<svg width="568" height="89" viewBox="0 0 568 89" fill="none" xmlns="http://www.w3.org/2000/svg">
<g filter="url(#filter0_d_279_979)">
<rect x="9.72119" y="0.892639" width="557.558" height="79.1595" rx="14" fill="#03266A"/>
</g>
<path d="M96.9145 34.2178V16.7632H99.5481V24.3485H108.25V16.7632H110.892V34.2178H108.25V26.607H99.5481V34.2178H96.9145ZM125.721 21.1269L120.974 34.2178H118.247L113.491 21.1269H116.227L119.542 31.2007H119.679L122.986 21.1269H125.721ZM133.185 34.482C131.958 34.482 130.887 34.2007 129.972 33.6382C129.057 33.0757 128.347 32.2888 127.841 31.2774C127.336 30.2661 127.083 29.0843 127.083 27.732C127.083 26.374 127.336 25.1865 127.841 24.1695C128.347 23.1524 129.057 22.3627 129.972 21.8002C130.887 21.2377 131.958 20.9564 133.185 20.9564C134.412 20.9564 135.483 21.2377 136.398 21.8002C137.313 22.3627 138.023 23.1524 138.529 24.1695C139.035 25.1865 139.287 26.374 139.287 27.732C139.287 29.0843 139.035 30.2661 138.529 31.2774C138.023 32.2888 137.313 33.0757 136.398 33.6382C135.483 34.2007 134.412 34.482 133.185 34.482ZM133.194 32.3428C133.989 32.3428 134.648 32.1325 135.171 31.7121C135.694 31.2916 136.08 30.732 136.33 30.0331C136.586 29.3343 136.714 28.5644 136.714 27.7235C136.714 26.8882 136.586 26.1212 136.33 25.4223C136.08 24.7178 135.694 24.1524 135.171 23.7263C134.648 23.3002 133.989 23.0871 133.194 23.0871C132.393 23.0871 131.728 23.3002 131.199 23.7263C130.677 24.1524 130.287 24.7178 130.032 25.4223C129.782 26.1212 129.657 26.8882 129.657 27.7235C129.657 28.5644 129.782 29.3343 130.032 30.0331C130.287 30.732 130.677 31.2916 131.199 31.7121C131.728 32.1325 132.393 32.3428 133.194 32.3428ZM142.132 34.2178V21.1269H144.595V23.2064H144.731C144.97 22.5019 145.39 21.9479 145.993 21.5445C146.601 21.1354 147.288 20.9308 148.055 20.9308C148.214 20.9308 148.402 20.9365 148.618 20.9479C148.839 20.9592 149.013 20.9735 149.138 20.9905V23.428C149.035 23.3996 148.853 23.3683 148.592 23.3343C148.331 23.2945 148.069 23.2746 147.808 23.2746C147.206 23.2746 146.669 23.4024 146.197 23.6581C145.731 23.9081 145.362 24.2575 145.089 24.7064C144.817 25.1496 144.68 25.6553 144.68 26.2235V34.2178H142.132ZM155.775 34.4735C154.718 34.4735 153.775 34.2036 152.945 33.6638C152.121 33.1183 151.473 32.3428 151.002 31.3371C150.536 30.3257 150.303 29.1127 150.303 27.6979C150.303 26.2831 150.539 25.0729 151.01 24.0672C151.488 23.0615 152.141 22.2916 152.971 21.7575C153.8 21.2235 154.741 20.9564 155.792 20.9564C156.604 20.9564 157.258 21.0928 157.752 21.3655C158.252 21.6325 158.638 21.945 158.911 22.303C159.189 22.661 159.405 22.9763 159.559 23.249H159.712V16.7632H162.26V34.2178H159.772V32.1808H159.559C159.405 32.4593 159.184 32.7774 158.894 33.1354C158.61 33.4933 158.218 33.8058 157.718 34.0729C157.218 34.3399 156.57 34.4735 155.775 34.4735ZM156.337 32.3002C157.07 32.3002 157.689 32.107 158.195 31.7206C158.706 31.3286 159.093 30.786 159.354 30.0928C159.621 29.3996 159.755 28.5928 159.755 27.6723C159.755 26.7632 159.624 25.9678 159.363 25.286C159.101 24.6041 158.718 24.0729 158.212 23.6922C157.706 23.3115 157.081 23.1212 156.337 23.1212C155.57 23.1212 154.931 23.32 154.42 23.7178C153.908 24.1155 153.522 24.6581 153.26 25.3456C153.005 26.0331 152.877 26.8087 152.877 27.6723C152.877 28.5473 153.008 29.3343 153.269 30.0331C153.53 30.732 153.917 31.286 154.428 31.695C154.945 32.0985 155.581 32.3002 156.337 32.3002ZM169.707 34.5075C168.878 34.5075 168.128 34.3541 167.457 34.0473C166.787 33.7348 166.255 33.2831 165.863 32.6922C165.477 32.1013 165.284 31.3769 165.284 30.5189C165.284 29.7803 165.426 29.1723 165.71 28.695C165.994 28.2178 166.378 27.8399 166.861 27.5615C167.344 27.2831 167.883 27.0729 168.48 26.9308C169.076 26.7888 169.684 26.6808 170.304 26.607C171.088 26.5161 171.724 26.4422 172.213 26.3854C172.701 26.3229 173.057 26.2235 173.278 26.0871C173.5 25.9507 173.611 25.7291 173.611 25.4223V25.3627C173.611 24.6183 173.4 24.0416 172.98 23.6325C172.565 23.2235 171.946 23.0189 171.122 23.0189C170.264 23.0189 169.588 23.2093 169.094 23.5899C168.605 23.9649 168.267 24.3825 168.079 24.8428L165.684 24.2973C165.969 23.5019 166.383 22.8598 166.929 22.3712C167.48 21.8769 168.113 21.5189 168.829 21.2973C169.545 21.07 170.298 20.9564 171.088 20.9564C171.611 20.9564 172.165 21.0189 172.75 21.1439C173.341 21.2632 173.892 21.4848 174.403 21.8087C174.92 22.1325 175.344 22.5956 175.673 23.1979C176.003 23.7945 176.167 24.57 176.167 25.5246V34.2178H173.679V32.428H173.576C173.412 32.7575 173.165 33.0814 172.835 33.3996C172.505 33.7178 172.082 33.982 171.565 34.1922C171.048 34.4024 170.429 34.5075 169.707 34.5075ZM170.261 32.4621C170.966 32.4621 171.568 32.3229 172.068 32.0445C172.574 31.7661 172.957 31.4024 173.219 30.9536C173.486 30.499 173.619 30.0132 173.619 29.4962V27.8087C173.528 27.8996 173.352 27.9848 173.091 28.0644C172.835 28.1382 172.542 28.2036 172.213 28.2604C171.883 28.3115 171.562 28.3598 171.25 28.4053C170.937 28.445 170.676 28.4791 170.466 28.5075C169.971 28.57 169.52 28.6752 169.111 28.8229C168.707 28.9706 168.383 29.1837 168.139 29.4621C167.9 29.7348 167.781 30.0985 167.781 30.553C167.781 31.1837 168.014 31.661 168.48 31.9848C168.946 32.303 169.54 32.4621 170.261 32.4621ZM182.11 26.445V34.2178H179.562V21.1269H182.008V23.2575H182.17C182.471 22.5644 182.942 22.0075 183.584 21.5871C184.232 21.1666 185.047 20.9564 186.03 20.9564C186.922 20.9564 187.704 21.1439 188.374 21.5189C189.045 21.8882 189.564 22.4394 189.934 23.1723C190.303 23.9053 190.488 24.8115 190.488 25.8911V34.2178H187.939V26.1979C187.939 25.249 187.692 24.5075 187.198 23.9735C186.704 23.4337 186.025 23.1638 185.161 23.1638C184.57 23.1638 184.045 23.2916 183.584 23.5473C183.13 23.803 182.769 24.178 182.502 24.6723C182.241 25.161 182.11 25.7519 182.11 26.445ZM210.067 24.3229L207.757 24.732C207.66 24.4365 207.507 24.1553 207.297 23.8882C207.092 23.6212 206.814 23.4024 206.461 23.232C206.109 23.0615 205.669 22.9763 205.14 22.9763C204.419 22.9763 203.817 23.1382 203.334 23.4621C202.851 23.7803 202.609 24.1922 202.609 24.6979C202.609 25.1354 202.771 25.4877 203.095 25.7547C203.419 26.0218 203.942 26.2405 204.663 26.411L206.743 26.8882C207.947 27.1666 208.845 27.5956 209.436 28.1752C210.027 28.7547 210.322 29.5075 210.322 30.4337C210.322 31.2178 210.095 31.9166 209.64 32.5303C209.192 33.1382 208.564 33.6155 207.757 33.9621C206.956 34.3087 206.027 34.482 204.97 34.482C203.504 34.482 202.308 34.1695 201.382 33.5445C200.456 32.9138 199.888 32.0189 199.677 30.8598L202.14 30.4848C202.294 31.1269 202.609 31.6127 203.086 31.9422C203.564 32.2661 204.186 32.428 204.953 32.428C205.788 32.428 206.456 32.2547 206.956 31.9081C207.456 31.5558 207.706 31.1269 207.706 30.6212C207.706 30.2121 207.552 29.8683 207.245 29.5899C206.944 29.3115 206.481 29.1013 205.856 28.9593L203.64 28.4735C202.419 28.195 201.515 27.7519 200.93 27.1439C200.351 26.536 200.061 25.7661 200.061 24.8343C200.061 24.0615 200.277 23.3854 200.709 22.8058C201.14 22.2263 201.737 21.7746 202.498 21.4507C203.26 21.1212 204.132 20.9564 205.115 20.9564C206.53 20.9564 207.643 21.2632 208.456 21.8769C209.268 22.4848 209.805 23.3002 210.067 24.3229ZM218.766 34.482C217.476 34.482 216.366 34.2064 215.434 33.6553C214.508 33.0985 213.792 32.3172 213.286 31.3115C212.786 30.3002 212.536 29.1155 212.536 27.7575C212.536 26.4166 212.786 25.2348 213.286 24.2121C213.792 23.1894 214.496 22.3911 215.4 21.8172C216.309 21.2433 217.371 20.9564 218.587 20.9564C219.326 20.9564 220.042 21.0786 220.735 21.3229C221.428 21.5672 222.05 21.9507 222.601 22.4735C223.152 22.9962 223.587 23.6752 223.905 24.5104C224.223 25.3399 224.383 26.3485 224.383 27.536V28.4394H213.976V26.5303H221.885C221.885 25.8598 221.749 25.2661 221.476 24.749C221.204 24.2263 220.82 23.8144 220.326 23.5132C219.837 23.2121 219.263 23.0615 218.604 23.0615C217.888 23.0615 217.263 23.2377 216.729 23.5899C216.201 23.9365 215.792 24.3911 215.502 24.9536C215.218 25.5104 215.076 26.1155 215.076 26.7689V28.2604C215.076 29.1354 215.229 29.8797 215.536 30.4933C215.848 31.107 216.283 31.5757 216.84 31.8996C217.397 32.2178 218.047 32.3769 218.792 32.3769C219.275 32.3769 219.715 32.3087 220.113 32.1723C220.51 32.0303 220.854 31.82 221.144 31.5416C221.434 31.2632 221.655 30.9195 221.809 30.5104L224.221 30.945C224.027 31.6553 223.681 32.2774 223.181 32.8115C222.687 33.3399 222.064 33.7519 221.314 34.0473C220.57 34.3371 219.721 34.482 218.766 34.482ZM227.21 34.2178V21.1269H229.673V23.2064H229.809C230.048 22.5019 230.469 21.9479 231.071 21.5445C231.679 21.1354 232.366 20.9308 233.133 20.9308C233.292 20.9308 233.48 20.9365 233.696 20.9479C233.917 20.9592 234.091 20.9735 234.216 20.9905V23.428C234.113 23.3996 233.932 23.3683 233.67 23.3343C233.409 23.2945 233.147 23.2746 232.886 23.2746C232.284 23.2746 231.747 23.4024 231.275 23.6581C230.809 23.9081 230.44 24.2575 230.167 24.7064C229.895 25.1496 229.758 25.6553 229.758 26.2235V34.2178H227.21ZM242.772 21.1269H245.321V35.07C245.321 35.945 245.162 36.6837 244.844 37.286C244.531 37.8882 244.065 38.3456 243.446 38.6581C242.832 38.9706 242.074 39.1269 241.17 39.1269C241.079 39.1269 240.994 39.1269 240.915 39.1269C240.829 39.1269 240.741 39.124 240.65 39.1183V36.928C240.73 36.928 240.801 36.928 240.863 36.928C240.92 36.928 240.986 36.928 241.059 36.928C241.662 36.928 242.096 36.7661 242.363 36.4422C242.636 36.124 242.772 35.661 242.772 35.053V21.1269ZM244.034 19.107C243.591 19.107 243.21 18.9592 242.892 18.6638C242.579 18.3627 242.423 18.0047 242.423 17.5899C242.423 17.1695 242.579 16.8115 242.892 16.5161C243.21 16.2149 243.591 16.0644 244.034 16.0644C244.477 16.0644 244.855 16.2149 245.167 16.5161C245.486 16.8115 245.645 17.1695 245.645 17.5899C245.645 18.0047 245.486 18.3627 245.167 18.6638C244.855 18.9592 244.477 19.107 244.034 19.107ZM254.391 34.482C253.101 34.482 251.991 34.2064 251.059 33.6553C250.133 33.0985 249.417 32.3172 248.911 31.3115C248.411 30.3002 248.161 29.1155 248.161 27.7575C248.161 26.4166 248.411 25.2348 248.911 24.2121C249.417 23.1894 250.121 22.3911 251.025 21.8172C251.934 21.2433 252.996 20.9564 254.212 20.9564C254.951 20.9564 255.667 21.0786 256.36 21.3229C257.053 21.5672 257.675 21.9507 258.226 22.4735C258.777 22.9962 259.212 23.6752 259.53 24.5104C259.848 25.3399 260.008 26.3485 260.008 27.536V28.4394H249.601V26.5303H257.51C257.51 25.8598 257.374 25.2661 257.101 24.749C256.829 24.2263 256.445 23.8144 255.951 23.5132C255.462 23.2121 254.888 23.0615 254.229 23.0615C253.513 23.0615 252.888 23.2377 252.354 23.5899C251.826 23.9365 251.417 24.3911 251.127 24.9536C250.843 25.5104 250.701 26.1155 250.701 26.7689V28.2604C250.701 29.1354 250.854 29.8797 251.161 30.4933C251.473 31.107 251.908 31.5757 252.465 31.8996C253.022 32.2178 253.672 32.3769 254.417 32.3769C254.9 32.3769 255.34 32.3087 255.738 32.1723C256.135 32.0303 256.479 31.82 256.769 31.5416C257.059 31.2632 257.28 30.9195 257.434 30.5104L259.846 30.945C259.652 31.6553 259.306 32.2774 258.806 32.8115C258.312 33.3399 257.689 33.7519 256.939 34.0473C256.195 34.3371 255.346 34.482 254.391 34.482ZM268.324 39.3996C267.284 39.3996 266.389 39.2632 265.639 38.9905C264.895 38.7178 264.287 38.357 263.815 37.9081C263.344 37.4593 262.991 36.9678 262.758 36.4337L264.949 35.5303C265.102 35.7803 265.307 36.0445 265.562 36.3229C265.824 36.607 266.176 36.8485 266.619 37.0473C267.068 37.2462 267.645 37.3456 268.349 37.3456C269.315 37.3456 270.113 37.1098 270.744 36.6382C271.375 36.1723 271.69 35.428 271.69 34.4053V31.8314H271.528C271.375 32.1098 271.153 32.4195 270.863 32.7604C270.579 33.1013 270.187 33.3968 269.687 33.6468C269.187 33.8968 268.537 34.0218 267.736 34.0218C266.701 34.0218 265.77 33.7803 264.94 33.2973C264.116 32.8087 263.463 32.0899 262.98 31.1411C262.503 30.1865 262.264 29.0132 262.264 27.6212C262.264 26.2291 262.5 25.036 262.971 24.0416C263.449 23.0473 264.102 22.286 264.932 21.7575C265.761 21.2235 266.701 20.9564 267.753 20.9564C268.565 20.9564 269.221 21.0928 269.721 21.3655C270.221 21.6325 270.611 21.945 270.889 22.303C271.173 22.661 271.392 22.9763 271.545 23.249H271.733V21.1269H274.23V34.5075C274.23 35.6325 273.969 36.5558 273.446 37.2774C272.923 37.999 272.216 38.5331 271.324 38.8797C270.437 39.2263 269.437 39.3996 268.324 39.3996ZM268.298 31.9081C269.031 31.9081 269.65 31.7377 270.156 31.3968C270.667 31.0502 271.054 30.5558 271.315 29.9138C271.582 29.2661 271.716 28.4905 271.716 27.5871C271.716 26.7064 271.585 25.9308 271.324 25.2604C271.062 24.5899 270.679 24.0672 270.173 23.6922C269.667 23.3115 269.042 23.1212 268.298 23.1212C267.531 23.1212 266.892 23.32 266.38 23.7178C265.869 24.1098 265.483 24.6439 265.221 25.32C264.966 25.9962 264.838 26.7519 264.838 27.5871C264.838 28.445 264.969 29.1979 265.23 29.8456C265.491 30.4933 265.878 30.999 266.389 31.3627C266.906 31.7263 267.542 31.9081 268.298 31.9081ZM286.547 26.445V34.2178H283.999V21.1269H286.445V23.2575H286.607C286.908 22.5644 287.38 22.0075 288.022 21.5871C288.67 21.1666 289.485 20.9564 290.468 20.9564C291.36 20.9564 292.141 21.1439 292.812 21.5189C293.482 21.8882 294.002 22.4394 294.371 23.1723C294.741 23.9053 294.925 24.8115 294.925 25.8911V34.2178H292.377V26.1979C292.377 25.249 292.13 24.5075 291.635 23.9735C291.141 23.4337 290.462 23.1638 289.598 23.1638C289.008 23.1638 288.482 23.2916 288.022 23.5473C287.567 23.803 287.206 24.178 286.939 24.6723C286.678 25.161 286.547 25.7519 286.547 26.445ZM303.857 34.482C302.63 34.482 301.559 34.2007 300.644 33.6382C299.729 33.0757 299.019 32.2888 298.513 31.2774C298.008 30.2661 297.755 29.0843 297.755 27.732C297.755 26.374 298.008 25.1865 298.513 24.1695C299.019 23.1524 299.729 22.3627 300.644 21.8002C301.559 21.2377 302.63 20.9564 303.857 20.9564C305.084 20.9564 306.155 21.2377 307.07 21.8002C307.985 22.3627 308.695 23.1524 309.201 24.1695C309.706 25.1865 309.959 26.374 309.959 27.732C309.959 29.0843 309.706 30.2661 309.201 31.2774C308.695 32.2888 307.985 33.0757 307.07 33.6382C306.155 34.2007 305.084 34.482 303.857 34.482ZM303.866 32.3428C304.661 32.3428 305.32 32.1325 305.843 31.7121C306.366 31.2916 306.752 30.732 307.002 30.0331C307.258 29.3343 307.385 28.5644 307.385 27.7235C307.385 26.8882 307.258 26.1212 307.002 25.4223C306.752 24.7178 306.366 24.1524 305.843 23.7263C305.32 23.3002 304.661 23.0871 303.866 23.0871C303.064 23.0871 302.4 23.3002 301.871 23.7263C301.348 24.1524 300.959 24.7178 300.704 25.4223C300.454 26.1212 300.329 26.8882 300.329 27.7235C300.329 28.5644 300.454 29.3343 300.704 30.0331C300.959 30.732 301.348 31.2916 301.871 31.7121C302.4 32.1325 303.064 32.3428 303.866 32.3428ZM318.915 21.1269V23.1723H311.764V21.1269H318.915ZM313.682 17.9905H316.23V30.374C316.23 30.8683 316.304 31.2405 316.451 31.4905C316.599 31.7348 316.79 31.9024 317.022 31.9933C317.261 32.0786 317.52 32.1212 317.798 32.1212C318.003 32.1212 318.182 32.107 318.335 32.0786C318.488 32.0502 318.608 32.0274 318.693 32.0104L319.153 34.1155C319.005 34.1723 318.795 34.2291 318.522 34.286C318.25 34.3485 317.909 34.3825 317.5 34.3882C316.829 34.3996 316.204 34.2803 315.625 34.0303C315.045 33.7803 314.576 33.3939 314.219 32.8712C313.861 32.3485 313.682 31.6922 313.682 30.9024V17.9905ZM321.733 34.2178V21.1269H324.282V34.2178H321.733ZM323.02 19.107C322.577 19.107 322.196 18.9592 321.878 18.6638C321.566 18.3627 321.41 18.0047 321.41 17.5899C321.41 17.1695 321.566 16.8115 321.878 16.5161C322.196 16.2149 322.577 16.0644 323.02 16.0644C323.464 16.0644 323.841 16.2149 324.154 16.5161C324.472 16.8115 324.631 17.1695 324.631 17.5899C324.631 18.0047 324.472 18.3627 324.154 18.6638C323.841 18.9592 323.464 19.107 323.02 19.107ZM333.94 21.1269V23.1723H326.542V21.1269H333.94ZM328.571 34.2178V19.6098C328.571 18.7916 328.75 18.1127 329.108 17.5729C329.466 17.0274 329.94 16.6212 330.531 16.3541C331.122 16.0814 331.764 15.945 332.457 15.945C332.969 15.945 333.406 15.9877 333.77 16.0729C334.133 16.1524 334.403 16.2263 334.579 16.2945L333.983 18.357C333.863 18.3229 333.71 18.2831 333.522 18.2377C333.335 18.1865 333.108 18.161 332.841 18.161C332.221 18.161 331.778 18.3144 331.511 18.6212C331.25 18.928 331.119 19.3712 331.119 19.9507V34.2178H328.571ZM336.569 34.2178V21.1269H339.118V34.2178H336.569ZM337.856 19.107C337.413 19.107 337.032 18.9592 336.714 18.6638C336.402 18.3627 336.245 18.0047 336.245 17.5899C336.245 17.1695 336.402 16.8115 336.714 16.5161C337.032 16.2149 337.413 16.0644 337.856 16.0644C338.299 16.0644 338.677 16.2149 338.99 16.5161C339.308 16.8115 339.467 17.1695 339.467 17.5899C339.467 18.0047 339.308 18.3627 338.99 18.6638C338.677 18.9592 338.299 19.107 337.856 19.107ZM344.89 29.7774L344.873 26.6666H345.316L350.532 21.1269H353.583L347.634 27.4337H347.233L344.89 29.7774ZM342.546 34.2178V16.7632H345.094V34.2178H342.546ZM350.813 34.2178L346.125 27.9962L347.881 26.2149L353.941 34.2178H350.813ZM359.715 34.5075C358.885 34.5075 358.135 34.3541 357.465 34.0473C356.795 33.7348 356.263 33.2831 355.871 32.6922C355.485 32.1013 355.292 31.3769 355.292 30.5189C355.292 29.7803 355.434 29.1723 355.718 28.695C356.002 28.2178 356.385 27.8399 356.868 27.5615C357.351 27.2831 357.891 27.0729 358.488 26.9308C359.084 26.7888 359.692 26.6808 360.312 26.607C361.096 26.5161 361.732 26.4422 362.221 26.3854C362.709 26.3229 363.064 26.2235 363.286 26.0871C363.508 25.9507 363.618 25.7291 363.618 25.4223V25.3627C363.618 24.6183 363.408 24.0416 362.988 23.6325C362.573 23.2235 361.954 23.0189 361.13 23.0189C360.272 23.0189 359.596 23.2093 359.101 23.5899C358.613 23.9649 358.275 24.3825 358.087 24.8428L355.692 24.2973C355.976 23.5019 356.391 22.8598 356.937 22.3712C357.488 21.8769 358.121 21.5189 358.837 21.2973C359.553 21.07 360.306 20.9564 361.096 20.9564C361.618 20.9564 362.172 21.0189 362.758 21.1439C363.348 21.2632 363.9 21.4848 364.411 21.8087C364.928 22.1325 365.351 22.5956 365.681 23.1979C366.01 23.7945 366.175 24.57 366.175 25.5246V34.2178H363.687V32.428H363.584C363.42 32.7575 363.172 33.0814 362.843 33.3996C362.513 33.7178 362.09 33.982 361.573 34.1922C361.056 34.4024 360.437 34.5075 359.715 34.5075ZM360.269 32.4621C360.973 32.4621 361.576 32.3229 362.076 32.0445C362.581 31.7661 362.965 31.4024 363.226 30.9536C363.493 30.499 363.627 30.0132 363.627 29.4962V27.8087C363.536 27.8996 363.36 27.9848 363.098 28.0644C362.843 28.1382 362.55 28.2036 362.221 28.2604C361.891 28.3115 361.57 28.3598 361.258 28.4053C360.945 28.445 360.684 28.4791 360.473 28.5075C359.979 28.57 359.527 28.6752 359.118 28.8229C358.715 28.9706 358.391 29.1837 358.147 29.4621C357.908 29.7348 357.789 30.0985 357.789 30.553C357.789 31.1837 358.022 31.661 358.488 31.9848C358.954 32.303 359.547 32.4621 360.269 32.4621ZM375.68 21.1269V23.1723H368.53V21.1269H375.68ZM370.447 17.9905H372.995V30.374C372.995 30.8683 373.069 31.2405 373.217 31.4905C373.365 31.7348 373.555 31.9024 373.788 31.9933C374.027 32.0786 374.285 32.1212 374.564 32.1212C374.768 32.1212 374.947 32.107 375.101 32.0786C375.254 32.0502 375.373 32.0274 375.459 32.0104L375.919 34.1155C375.771 34.1723 375.561 34.2291 375.288 34.286C375.015 34.3485 374.674 34.3825 374.265 34.3882C373.595 34.3996 372.97 34.2803 372.39 34.0303C371.811 33.7803 371.342 33.3939 370.984 32.8712C370.626 32.3485 370.447 31.6922 370.447 30.9024V17.9905ZM378.499 34.2178V21.1269H381.047V34.2178H378.499ZM379.786 19.107C379.343 19.107 378.962 18.9592 378.644 18.6638C378.331 18.3627 378.175 18.0047 378.175 17.5899C378.175 17.1695 378.331 16.8115 378.644 16.5161C378.962 16.2149 379.343 16.0644 379.786 16.0644C380.229 16.0644 380.607 16.2149 380.92 16.5161C381.238 16.8115 381.397 17.1695 381.397 17.5899C381.397 18.0047 381.238 18.3627 380.92 18.6638C380.607 18.9592 380.229 19.107 379.786 19.107ZM389.99 34.482C388.763 34.482 387.692 34.2007 386.777 33.6382C385.862 33.0757 385.152 32.2888 384.646 31.2774C384.14 30.2661 383.888 29.0843 383.888 27.732C383.888 26.374 384.14 25.1865 384.646 24.1695C385.152 23.1524 385.862 22.3627 386.777 21.8002C387.692 21.2377 388.763 20.9564 389.99 20.9564C391.217 20.9564 392.288 21.2377 393.203 21.8002C394.118 22.3627 394.828 23.1524 395.334 24.1695C395.839 25.1865 396.092 26.374 396.092 27.732C396.092 29.0843 395.839 30.2661 395.334 31.2774C394.828 32.2888 394.118 33.0757 393.203 33.6382C392.288 34.2007 391.217 34.482 389.99 34.482ZM389.998 32.3428C390.794 32.3428 391.453 32.1325 391.976 31.7121C392.498 31.2916 392.885 30.732 393.135 30.0331C393.39 29.3343 393.518 28.5644 393.518 27.7235C393.518 26.8882 393.39 26.1212 393.135 25.4223C392.885 24.7178 392.498 24.1524 391.976 23.7263C391.453 23.3002 390.794 23.0871 389.998 23.0871C389.197 23.0871 388.532 23.3002 388.004 23.7263C387.481 24.1524 387.092 24.7178 386.836 25.4223C386.586 26.1212 386.461 26.8882 386.461 27.7235C386.461 28.5644 386.586 29.3343 386.836 30.0331C387.092 30.732 387.481 31.2916 388.004 31.7121C388.532 32.1325 389.197 32.3428 389.998 32.3428ZM401.485 26.445V34.2178H398.937V21.1269H401.383V23.2575H401.545C401.846 22.5644 402.317 22.0075 402.959 21.5871C403.607 21.1666 404.422 20.9564 405.405 20.9564C406.297 20.9564 407.079 21.1439 407.749 21.5189C408.42 21.8882 408.939 22.4394 409.309 23.1723C409.678 23.9053 409.863 24.8115 409.863 25.8911V34.2178H407.314V26.1979C407.314 25.249 407.067 24.5075 406.573 23.9735C406.079 23.4337 405.4 23.1638 404.536 23.1638C403.945 23.1638 403.42 23.2916 402.959 23.5473C402.505 23.803 402.144 24.178 401.877 24.6723C401.616 25.161 401.485 25.7519 401.485 26.445ZM418.922 34.482C417.633 34.482 416.522 34.2064 415.59 33.6553C414.664 33.0985 413.948 32.3172 413.442 31.3115C412.942 30.3002 412.692 29.1155 412.692 27.7575C412.692 26.4166 412.942 25.2348 413.442 24.2121C413.948 23.1894 414.652 22.3911 415.556 21.8172C416.465 21.2433 417.527 20.9564 418.743 20.9564C419.482 20.9564 420.198 21.0786 420.891 21.3229C421.584 21.5672 422.206 21.9507 422.758 22.4735C423.309 22.9962 423.743 23.6752 424.062 24.5104C424.38 25.3399 424.539 26.3485 424.539 27.536V28.4394H414.133V26.5303H422.042C422.042 25.8598 421.905 25.2661 421.633 24.749C421.36 24.2263 420.976 23.8144 420.482 23.5132C419.993 23.2121 419.42 23.0615 418.76 23.0615C418.045 23.0615 417.42 23.2377 416.885 23.5899C416.357 23.9365 415.948 24.3911 415.658 24.9536C415.374 25.5104 415.232 26.1155 415.232 26.7689V28.2604C415.232 29.1354 415.385 29.8797 415.692 30.4933C416.005 31.107 416.439 31.5757 416.996 31.8996C417.553 32.2178 418.204 32.3769 418.948 32.3769C419.431 32.3769 419.871 32.3087 420.269 32.1723C420.667 32.0303 421.01 31.82 421.3 31.5416C421.59 31.2632 421.812 30.9195 421.965 30.5104L424.377 30.945C424.184 31.6553 423.837 32.2774 423.337 32.8115C422.843 33.3399 422.221 33.7519 421.471 34.0473C420.726 34.3371 419.877 34.482 418.922 34.482ZM427.366 34.2178V21.1269H429.829V23.2064H429.966C430.204 22.5019 430.625 21.9479 431.227 21.5445C431.835 21.1354 432.522 20.9308 433.29 20.9308C433.449 20.9308 433.636 20.9365 433.852 20.9479C434.074 20.9592 434.247 20.9735 434.372 20.9905V23.428C434.27 23.3996 434.088 23.3683 433.826 23.3343C433.565 23.2945 433.304 23.2746 433.042 23.2746C432.44 23.2746 431.903 23.4024 431.432 23.6581C430.966 23.9081 430.596 24.2575 430.324 24.7064C430.051 25.1496 429.915 25.6553 429.915 26.2235V34.2178H427.366ZM448.443 34.482C447.216 34.482 446.145 34.2007 445.23 33.6382C444.315 33.0757 443.605 32.2888 443.099 31.2774C442.594 30.2661 442.341 29.0843 442.341 27.732C442.341 26.374 442.594 25.1865 443.099 24.1695C443.605 23.1524 444.315 22.3627 445.23 21.8002C446.145 21.2377 447.216 20.9564 448.443 20.9564C449.67 20.9564 450.741 21.2377 451.656 21.8002C452.571 22.3627 453.281 23.1524 453.787 24.1695C454.292 25.1865 454.545 26.374 454.545 27.732C454.545 29.0843 454.292 30.2661 453.787 31.2774C453.281 32.2888 452.571 33.0757 451.656 33.6382C450.741 34.2007 449.67 34.482 448.443 34.482ZM448.451 32.3428C449.247 32.3428 449.906 32.1325 450.429 31.7121C450.951 31.2916 451.338 30.732 451.588 30.0331C451.844 29.3343 451.971 28.5644 451.971 27.7235C451.971 26.8882 451.844 26.1212 451.588 25.4223C451.338 24.7178 450.951 24.1524 450.429 23.7263C449.906 23.3002 449.247 23.0871 448.451 23.0871C447.65 23.0871 446.986 23.3002 446.457 23.7263C445.934 24.1524 445.545 24.7178 445.29 25.4223C445.04 26.1212 444.915 26.8882 444.915 27.7235C444.915 28.5644 445.04 29.3343 445.29 30.0331C445.545 30.732 445.934 31.2916 446.457 31.7121C446.986 32.1325 447.65 32.3428 448.451 32.3428ZM462.878 39.3996C461.839 39.3996 460.944 39.2632 460.194 38.9905C459.449 38.7178 458.841 38.357 458.37 37.9081C457.898 37.4593 457.546 36.9678 457.313 36.4337L459.503 35.5303C459.657 35.7803 459.861 36.0445 460.117 36.3229C460.378 36.607 460.731 36.8485 461.174 37.0473C461.623 37.2462 462.199 37.3456 462.904 37.3456C463.87 37.3456 464.668 37.1098 465.299 36.6382C465.929 36.1723 466.245 35.428 466.245 34.4053V31.8314H466.083C465.929 32.1098 465.708 32.4195 465.418 32.7604C465.134 33.1013 464.742 33.3968 464.242 33.6468C463.742 33.8968 463.091 34.0218 462.29 34.0218C461.256 34.0218 460.324 33.7803 459.495 33.2973C458.671 32.8087 458.018 32.0899 457.535 31.1411C457.057 30.1865 456.819 29.0132 456.819 27.6212C456.819 26.2291 457.054 25.036 457.526 24.0416C458.003 23.0473 458.657 22.286 459.486 21.7575C460.316 21.2235 461.256 20.9564 462.307 20.9564C463.12 20.9564 463.776 21.0928 464.276 21.3655C464.776 21.6325 465.165 21.945 465.444 22.303C465.728 22.661 465.946 22.9763 466.1 23.249H466.287V21.1269H468.785V34.5075C468.785 35.6325 468.523 36.5558 468 37.2774C467.478 37.999 466.77 38.5331 465.878 38.8797C464.992 39.2263 463.992 39.3996 462.878 39.3996ZM462.853 31.9081C463.586 31.9081 464.205 31.7377 464.711 31.3968C465.222 31.0502 465.608 30.5558 465.87 29.9138C466.137 29.2661 466.27 28.4905 466.27 27.5871C466.27 26.7064 466.14 25.9308 465.878 25.2604C465.617 24.5899 465.233 24.0672 464.728 23.6922C464.222 23.3115 463.597 23.1212 462.853 23.1212C462.086 23.1212 461.446 23.32 460.935 23.7178C460.424 24.1098 460.037 24.6439 459.776 25.32C459.52 25.9962 459.393 26.7519 459.393 27.5871C459.393 28.445 459.523 29.1979 459.785 29.8456C460.046 30.4933 460.432 30.999 460.944 31.3627C461.461 31.7263 462.097 31.9081 462.853 31.9081ZM227.93 63.2178V45.7632H230.478V52.249H230.632C230.78 51.9763 230.993 51.661 231.271 51.303C231.549 50.945 231.936 50.6325 232.43 50.3655C232.924 50.0928 233.578 49.9564 234.39 49.9564C235.447 49.9564 236.39 50.2235 237.22 50.7575C238.049 51.2916 238.7 52.0615 239.172 53.0672C239.649 54.0729 239.888 55.2831 239.888 56.6979C239.888 58.1127 239.652 59.3257 239.18 60.3371C238.709 61.3428 238.061 62.1183 237.237 62.6638C236.413 63.2036 235.473 63.4735 234.416 63.4735C233.62 63.4735 232.97 63.3399 232.464 63.0729C231.964 62.8058 231.572 62.4933 231.288 62.1354C231.004 61.7774 230.785 61.4593 230.632 61.1808H230.419V63.2178H227.93ZM230.427 56.6723C230.427 57.5928 230.561 58.3996 230.828 59.0928C231.095 59.786 231.481 60.3286 231.987 60.7206C232.493 61.107 233.112 61.3002 233.845 61.3002C234.606 61.3002 235.243 61.0985 235.754 60.695C236.265 60.286 236.652 59.732 236.913 59.0331C237.18 58.3343 237.314 57.5473 237.314 56.6723C237.314 55.8087 237.183 55.0331 236.922 54.3456C236.666 53.6581 236.28 53.1155 235.763 52.7178C235.251 52.32 234.612 52.1212 233.845 52.1212C233.106 52.1212 232.481 52.3115 231.97 52.6922C231.464 53.0729 231.081 53.6041 230.819 54.286C230.558 54.9678 230.427 55.7632 230.427 56.6723ZM248.391 63.482C247.101 63.482 245.991 63.2064 245.059 62.6553C244.133 62.0985 243.417 61.3172 242.911 60.3115C242.411 59.3002 242.161 58.1155 242.161 56.7575C242.161 55.4166 242.411 54.2348 242.911 53.2121C243.417 52.1894 244.121 51.3911 245.025 50.8172C245.934 50.2433 246.996 49.9564 248.212 49.9564C248.951 49.9564 249.667 50.0786 250.36 50.3229C251.053 50.5672 251.675 50.9507 252.226 51.4735C252.777 51.9962 253.212 52.6752 253.53 53.5104C253.848 54.3399 254.008 55.3485 254.008 56.536V57.4394H243.601V55.5303H251.51C251.51 54.8598 251.374 54.2661 251.101 53.749C250.829 53.2263 250.445 52.8144 249.951 52.5132C249.462 52.2121 248.888 52.0615 248.229 52.0615C247.513 52.0615 246.888 52.2377 246.354 52.5899C245.826 52.9365 245.417 53.3911 245.127 53.9536C244.843 54.5104 244.701 55.1155 244.701 55.7689V57.2604C244.701 58.1354 244.854 58.8797 245.161 59.4933C245.473 60.107 245.908 60.5757 246.465 60.8996C247.022 61.2178 247.672 61.3769 248.417 61.3769C248.9 61.3769 249.34 61.3087 249.738 61.1723C250.135 61.0303 250.479 60.82 250.769 60.5416C251.059 60.2632 251.28 59.9195 251.434 59.5104L253.846 59.945C253.652 60.6553 253.306 61.2774 252.806 61.8115C252.312 62.3399 251.689 62.7519 250.939 63.0473C250.195 63.3371 249.346 63.482 248.391 63.482ZM266.645 53.3229L264.335 53.732C264.238 53.4365 264.085 53.1553 263.875 52.8882C263.67 52.6212 263.392 52.4024 263.04 52.232C262.687 52.0615 262.247 51.9763 261.719 51.9763C260.997 51.9763 260.395 52.1382 259.912 52.4621C259.429 52.7803 259.187 53.1922 259.187 53.6979C259.187 54.1354 259.349 54.4877 259.673 54.7547C259.997 55.0218 260.52 55.2405 261.241 55.411L263.321 55.8882C264.525 56.1666 265.423 56.5956 266.014 57.1752C266.605 57.7547 266.9 58.5075 266.9 59.4337C266.9 60.2178 266.673 60.9166 266.219 61.5303C265.77 62.1382 265.142 62.6155 264.335 62.9621C263.534 63.3087 262.605 63.482 261.548 63.482C260.082 63.482 258.886 63.1695 257.96 62.5445C257.034 61.9138 256.466 61.0189 256.255 59.8598L258.719 59.4848C258.872 60.1269 259.187 60.6127 259.665 60.9422C260.142 61.2661 260.764 61.428 261.531 61.428C262.366 61.428 263.034 61.2547 263.534 60.9081C264.034 60.5558 264.284 60.1269 264.284 59.6212C264.284 59.2121 264.13 58.8683 263.824 58.5899C263.522 58.3115 263.059 58.1013 262.434 57.9593L260.219 57.4735C258.997 57.195 258.094 56.7519 257.508 56.1439C256.929 55.536 256.639 54.7661 256.639 53.8343C256.639 53.0615 256.855 52.3854 257.287 51.8058C257.719 51.2263 258.315 50.7746 259.076 50.4507C259.838 50.1212 260.71 49.9564 261.693 49.9564C263.108 49.9564 264.221 50.2632 265.034 50.8769C265.846 51.4848 266.383 52.3002 266.645 53.3229ZM272.046 58.7774L272.029 55.6666H272.472L277.688 50.1269H280.739L274.79 56.4337H274.39L272.046 58.7774ZM269.702 63.2178V45.7632H272.25V63.2178H269.702ZM277.969 63.2178L273.282 56.9962L275.037 55.2149L281.097 63.2178H277.969ZM288.165 63.482C286.875 63.482 285.764 63.2064 284.832 62.6553C283.906 62.0985 283.19 61.3172 282.684 60.3115C282.184 59.3002 281.934 58.1155 281.934 56.7575C281.934 55.4166 282.184 54.2348 282.684 53.2121C283.19 52.1894 283.895 51.3911 284.798 50.8172C285.707 50.2433 286.77 49.9564 287.986 49.9564C288.724 49.9564 289.44 50.0786 290.133 50.3229C290.826 50.5672 291.449 50.9507 292 51.4735C292.551 51.9962 292.986 52.6752 293.304 53.5104C293.622 54.3399 293.781 55.3485 293.781 56.536V57.4394H283.375V55.5303H291.284C291.284 54.8598 291.147 54.2661 290.875 53.749C290.602 53.2263 290.219 52.8144 289.724 52.5132C289.236 52.2121 288.662 52.0615 288.003 52.0615C287.287 52.0615 286.662 52.2377 286.128 52.5899C285.599 52.9365 285.19 53.3911 284.9 53.9536C284.616 54.5104 284.474 55.1155 284.474 55.7689V57.2604C284.474 58.1354 284.628 58.8797 284.934 59.4933C285.247 60.107 285.682 60.5757 286.238 60.8996C286.795 61.2178 287.446 61.3769 288.19 61.3769C288.673 61.3769 289.113 61.3087 289.511 61.1723C289.909 61.0303 290.253 60.82 290.542 60.5416C290.832 60.2632 291.054 59.9195 291.207 59.5104L293.619 59.945C293.426 60.6553 293.079 61.2774 292.579 61.8115C292.085 62.3399 291.463 62.7519 290.713 63.0473C289.969 63.3371 289.119 63.482 288.165 63.482ZM301.509 63.4735C300.452 63.4735 299.509 63.2036 298.679 62.6638C297.856 62.1183 297.208 61.3428 296.736 60.3371C296.27 59.3257 296.037 58.1127 296.037 56.6979C296.037 55.2831 296.273 54.0729 296.745 53.0672C297.222 52.0615 297.875 51.2916 298.705 50.7575C299.535 50.2235 300.475 49.9564 301.526 49.9564C302.339 49.9564 302.992 50.0928 303.486 50.3655C303.986 50.6325 304.373 50.945 304.645 51.303C304.924 51.661 305.14 51.9763 305.293 52.249H305.446V45.7632H307.995V63.2178H305.506V61.1808H305.293C305.14 61.4593 304.918 61.7774 304.628 62.1354C304.344 62.4933 303.952 62.8058 303.452 63.0729C302.952 63.3399 302.304 63.4735 301.509 63.4735ZM302.071 61.3002C302.804 61.3002 303.424 61.107 303.929 60.7206C304.441 60.3286 304.827 59.786 305.089 59.0928C305.356 58.3996 305.489 57.5928 305.489 56.6723C305.489 55.7632 305.358 54.9678 305.097 54.286C304.836 53.6041 304.452 53.0729 303.946 52.6922C303.441 52.3115 302.816 52.1212 302.071 52.1212C301.304 52.1212 300.665 52.32 300.154 52.7178C299.643 53.1155 299.256 53.6581 298.995 54.3456C298.739 55.0331 298.611 55.8087 298.611 56.6723C298.611 57.5473 298.742 58.3343 299.003 59.0331C299.265 59.732 299.651 60.286 300.162 60.695C300.679 61.0985 301.316 61.3002 302.071 61.3002ZM317.274 63.482C315.984 63.482 314.873 63.2064 313.942 62.6553C313.015 62.0985 312.299 61.3172 311.794 60.3115C311.294 59.3002 311.044 58.1155 311.044 56.7575C311.044 55.4166 311.294 54.2348 311.794 53.2121C312.299 52.1894 313.004 51.3911 313.907 50.8172C314.817 50.2433 315.879 49.9564 317.095 49.9564C317.834 49.9564 318.549 50.0786 319.243 50.3229C319.936 50.5672 320.558 50.9507 321.109 51.4735C321.66 51.9962 322.095 52.6752 322.413 53.5104C322.731 54.3399 322.89 55.3485 322.89 56.536V57.4394H312.484V55.5303H320.393C320.393 54.8598 320.257 54.2661 319.984 53.749C319.711 53.2263 319.328 52.8144 318.834 52.5132C318.345 52.2121 317.771 52.0615 317.112 52.0615C316.396 52.0615 315.771 52.2377 315.237 52.5899C314.709 52.9365 314.299 53.3911 314.01 53.9536C313.726 54.5104 313.584 55.1155 313.584 55.7689V57.2604C313.584 58.1354 313.737 58.8797 314.044 59.4933C314.356 60.107 314.791 60.5757 315.348 60.8996C315.905 61.2178 316.555 61.3769 317.299 61.3769C317.782 61.3769 318.223 61.3087 318.62 61.1723C319.018 61.0303 319.362 60.82 319.652 60.5416C319.942 60.2632 320.163 59.9195 320.317 59.5104L322.728 59.945C322.535 60.6553 322.189 61.2774 321.689 61.8115C321.194 62.3399 320.572 62.7519 319.822 63.0473C319.078 63.3371 318.228 63.482 317.274 63.482ZM325.718 63.2178V50.1269H328.181V52.2064H328.317C328.556 51.5019 328.976 50.9479 329.579 50.5445C330.187 50.1354 330.874 49.9308 331.641 49.9308C331.8 49.9308 331.988 49.9365 332.204 49.9479C332.425 49.9592 332.598 49.9735 332.723 49.9905V52.428C332.621 52.3996 332.439 52.3683 332.178 52.3343C331.917 52.2945 331.655 52.2746 331.394 52.2746C330.792 52.2746 330.255 52.4024 329.783 52.6581C329.317 52.9081 328.948 53.2575 328.675 53.7064C328.402 54.1496 328.266 54.6553 328.266 55.2235V63.2178H325.718ZM337.716 58.1979V58.036C337.727 56.9791 337.832 56.1382 338.031 55.5132C338.236 54.8882 338.525 54.3825 338.9 53.9962C339.275 53.6098 339.727 53.2575 340.255 52.9394C340.596 52.7235 340.903 52.482 341.176 52.2149C341.449 51.9479 341.665 51.6411 341.824 51.2945C341.983 50.9479 342.062 50.5644 342.062 50.1439C342.062 49.6382 341.943 49.2007 341.704 48.8314C341.466 48.4621 341.147 48.178 340.75 47.9791C340.358 47.7746 339.92 47.6723 339.437 47.6723C339 47.6723 338.582 47.7632 338.184 47.945C337.787 48.1269 337.457 48.411 337.196 48.7973C336.934 49.178 336.784 49.6695 336.744 50.2718H334.153C334.193 49.249 334.451 48.3854 334.929 47.6808C335.406 46.9706 336.037 46.4337 336.821 46.07C337.611 45.7064 338.483 45.5246 339.437 45.5246C340.483 45.5246 341.397 45.7206 342.182 46.1127C342.966 46.499 343.574 47.0416 344.005 47.7405C344.443 48.4337 344.662 49.2433 344.662 50.1695C344.662 50.8058 344.562 51.3797 344.363 51.8911C344.165 52.3968 343.88 52.8485 343.511 53.2462C343.147 53.6439 342.71 53.9962 342.199 54.303C341.716 54.6041 341.324 54.9166 341.022 55.2405C340.727 55.5644 340.511 55.9479 340.375 56.3911C340.238 56.8343 340.165 57.3825 340.153 58.036V58.1979H337.716ZM339.003 63.3797C338.537 63.3797 338.136 63.2149 337.801 62.8854C337.466 62.5502 337.298 62.1468 337.298 61.6752C337.298 61.2093 337.466 60.8115 337.801 60.482C338.136 60.1468 338.537 59.9791 339.003 59.9791C339.463 59.9791 339.861 60.1468 340.196 60.482C340.537 60.8115 340.707 61.2093 340.707 61.6752C340.707 61.9877 340.628 62.2746 340.469 62.536C340.315 62.7916 340.111 62.9962 339.855 63.1496C339.599 63.303 339.315 63.3797 339.003 63.3797Z" fill="white"/>
<defs>
<filter id="filter0_d_279_979" x="0.721191" y="0.892639" width="566.558" height="87.1595" filterUnits="userSpaceOnUse" color-interpolation-filters="sRGB">
<feFlood flood-opacity="0" result="BackgroundImageFix"/>
<feColorMatrix in="SourceAlpha" type="matrix" values="0 0 0 0 0 0 0 0 0 0 0 0 0 0 0 0 0 0 127 0" result="hardAlpha"/>
<feOffset dx="-5" dy="4"/>
<feGaussianBlur stdDeviation="2"/>
<feComposite in2="hardAlpha" operator="out"/>
<feColorMatrix type="matrix" values="0 0 0 0 0 0 0 0 0 0 0 0 0 0 0 0 0 0 0.33 0"/>
<feBlend mode="normal" in2="BackgroundImageFix" result="effect1_dropShadow_279_979"/>
<feBlend mode="normal" in="SourceGraphic" in2="effect1_dropShadow_279_979" result="shape"/>
</filter>
</defs>
</svg>
