<svg width="568" height="88" viewBox="0 0 568 88" fill="none" xmlns="http://www.w3.org/2000/svg">
<g filter="url(#filter0_d_279_985)">
<rect x="9.72119" y="0.487671" width="557.558" height="79.1595" rx="14" fill="#03266A"/>
</g>
<path d="M81.7339 30.3711V12.9165H84.3674V20.5018H93.0691V12.9165H95.7112V30.3711H93.0691V22.7603H84.3674V30.3711H81.7339ZM110.541 17.2802L105.794 30.3711H103.066L98.3106 17.2802H101.046L104.362 27.354H104.498L107.805 17.2802H110.541ZM118.004 30.6353C116.777 30.6353 115.706 30.354 114.791 29.7915C113.877 29.229 113.166 28.4421 112.661 27.4308C112.155 26.4194 111.902 25.2376 111.902 23.8853C111.902 22.5273 112.155 21.3398 112.661 20.3228C113.166 19.3058 113.877 18.516 114.791 17.9535C115.706 17.391 116.777 17.1097 118.004 17.1097C119.232 17.1097 120.303 17.391 121.218 17.9535C122.132 18.516 122.843 19.3058 123.348 20.3228C123.854 21.3398 124.107 22.5273 124.107 23.8853C124.107 25.2376 123.854 26.4194 123.348 27.4308C122.843 28.4421 122.132 29.229 121.218 29.7915C120.303 30.354 119.232 30.6353 118.004 30.6353ZM118.013 28.4961C118.808 28.4961 119.468 28.2859 119.99 27.8654C120.513 27.445 120.899 26.8853 121.149 26.1864C121.405 25.4876 121.533 24.7177 121.533 23.8768C121.533 23.0415 121.405 22.2745 121.149 21.5756C120.899 20.8711 120.513 20.3058 119.99 19.8796C119.468 19.4535 118.808 19.2404 118.013 19.2404C117.212 19.2404 116.547 19.4535 116.019 19.8796C115.496 20.3058 115.107 20.8711 114.851 21.5756C114.601 22.2745 114.476 23.0415 114.476 23.8768C114.476 24.7177 114.601 25.4876 114.851 26.1864C115.107 26.8853 115.496 27.445 116.019 27.8654C116.547 28.2859 117.212 28.4961 118.013 28.4961ZM126.951 30.3711V17.2802H129.414V19.3597H129.551C129.789 18.6552 130.21 18.1012 130.812 17.6978C131.42 17.2887 132.107 17.0842 132.875 17.0842C133.034 17.0842 133.221 17.0898 133.437 17.1012C133.659 17.1126 133.832 17.1268 133.957 17.1438V19.5813C133.855 19.5529 133.673 19.5217 133.411 19.4876C133.15 19.4478 132.889 19.4279 132.627 19.4279C132.025 19.4279 131.488 19.5558 131.017 19.8114C130.551 20.0614 130.181 20.4109 129.909 20.8597C129.636 21.3029 129.5 21.8086 129.5 22.3768V30.3711H126.951ZM144.857 25.9308L144.84 22.82H145.284L150.5 17.2802H153.551L147.602 23.587H147.201L144.857 25.9308ZM142.514 30.3711V12.9165H145.062V30.3711H142.514ZM150.781 30.3711L146.093 24.1495L147.849 22.3683L153.909 30.3711H150.781ZM159.683 30.6609C158.853 30.6609 158.103 30.5075 157.433 30.2006C156.762 29.8881 156.231 29.4364 155.839 28.8455C155.453 28.2546 155.259 27.5302 155.259 26.6722C155.259 25.9336 155.401 25.3256 155.686 24.8484C155.97 24.3711 156.353 23.9933 156.836 23.7148C157.319 23.4364 157.859 23.2262 158.455 23.0842C159.052 22.9421 159.66 22.8342 160.279 22.7603C161.063 22.6694 161.7 22.5955 162.188 22.5387C162.677 22.4762 163.032 22.3768 163.254 22.2404C163.475 22.104 163.586 21.8825 163.586 21.5756V21.516C163.586 20.7717 163.376 20.195 162.955 19.7859C162.541 19.3768 161.921 19.1722 161.098 19.1722C160.24 19.1722 159.563 19.3626 159.069 19.7433C158.58 20.1183 158.242 20.5359 158.055 20.9961L155.66 20.4506C155.944 19.6552 156.359 19.0131 156.904 18.5245C157.455 18.0302 158.089 17.6722 158.805 17.4506C159.521 17.2234 160.274 17.1097 161.063 17.1097C161.586 17.1097 162.14 17.1722 162.725 17.2972C163.316 17.4165 163.867 17.6381 164.379 17.962C164.896 18.2859 165.319 18.7489 165.649 19.3512C165.978 19.9478 166.143 20.7234 166.143 21.6779V30.3711H163.654V28.5813H163.552C163.387 28.9109 163.14 29.2347 162.811 29.5529C162.481 29.8711 162.058 30.1353 161.541 30.3455C161.024 30.5558 160.404 30.6609 159.683 30.6609ZM160.237 28.6154C160.941 28.6154 161.544 28.4762 162.044 28.1978C162.549 27.9194 162.933 27.5558 163.194 27.1069C163.461 26.6523 163.595 26.1665 163.595 25.6495V23.962C163.504 24.0529 163.328 24.1381 163.066 24.2177C162.811 24.2915 162.518 24.3569 162.188 24.4137C161.859 24.4648 161.538 24.5131 161.225 24.5586C160.913 24.5984 160.651 24.6325 160.441 24.6609C159.947 24.7234 159.495 24.8285 159.086 24.9762C158.683 25.1239 158.359 25.337 158.115 25.6154C157.876 25.8881 157.757 26.2518 157.757 26.7063C157.757 27.337 157.99 27.8143 158.455 28.1381C158.921 28.4563 159.515 28.6154 160.237 28.6154ZM172.085 22.5984V30.3711H169.537V17.2802H171.983V19.4109H172.145C172.446 18.7177 172.918 18.1609 173.56 17.7404C174.208 17.32 175.023 17.1097 176.006 17.1097C176.898 17.1097 177.679 17.2972 178.35 17.6722C179.02 18.0415 179.54 18.5927 179.909 19.3256C180.279 20.0586 180.463 20.9648 180.463 22.0444V30.3711H177.915V22.3512C177.915 21.4023 177.668 20.6609 177.174 20.1268C176.679 19.587 176 19.3171 175.137 19.3171C174.546 19.3171 174.02 19.445 173.56 19.7006C173.105 19.9563 172.745 20.3313 172.477 20.8256C172.216 21.3143 172.085 21.9052 172.085 22.5984ZM190.232 17.2802H192.781V31.2234C192.781 32.0984 192.622 32.837 192.303 33.4393C191.991 34.0415 191.525 34.4989 190.906 34.8114C190.292 35.1239 189.534 35.2802 188.63 35.2802C188.539 35.2802 188.454 35.2802 188.375 35.2802C188.289 35.2802 188.201 35.2773 188.11 35.2717V33.0813C188.19 33.0813 188.261 33.0813 188.323 33.0813C188.38 33.0813 188.446 33.0813 188.519 33.0813C189.122 33.0813 189.556 32.9194 189.823 32.5955C190.096 32.2773 190.232 31.8143 190.232 31.2063V17.2802ZM191.494 15.2603C191.051 15.2603 190.67 15.1126 190.352 14.8171C190.039 14.516 189.883 14.158 189.883 13.7433C189.883 13.3228 190.039 12.9648 190.352 12.6694C190.67 12.3683 191.051 12.2177 191.494 12.2177C191.937 12.2177 192.315 12.3683 192.627 12.6694C192.946 12.9648 193.105 13.3228 193.105 13.7433C193.105 14.158 192.946 14.516 192.627 14.8171C192.315 15.1126 191.937 15.2603 191.494 15.2603ZM201.851 30.6353C200.561 30.6353 199.451 30.3597 198.519 29.8086C197.593 29.2518 196.877 28.4705 196.371 27.4648C195.871 26.4535 195.621 25.2688 195.621 23.9109C195.621 22.57 195.871 21.3881 196.371 20.3654C196.877 19.3427 197.581 18.5444 198.485 17.9705C199.394 17.3967 200.456 17.1097 201.672 17.1097C202.411 17.1097 203.127 17.2319 203.82 17.4762C204.513 17.7205 205.135 18.104 205.686 18.6268C206.237 19.1495 206.672 19.8285 206.99 20.6637C207.308 21.4933 207.468 22.5018 207.468 23.6893V24.5927H197.061V22.6836H204.97C204.97 22.0131 204.834 21.4194 204.561 20.9023C204.289 20.3796 203.905 19.9677 203.411 19.6665C202.922 19.3654 202.348 19.2148 201.689 19.2148C200.973 19.2148 200.348 19.391 199.814 19.7433C199.286 20.0898 198.877 20.5444 198.587 21.1069C198.303 21.6637 198.161 22.2688 198.161 22.9222V24.4137C198.161 25.2887 198.314 26.033 198.621 26.6467C198.933 27.2603 199.368 27.729 199.925 28.0529C200.482 28.3711 201.132 28.5302 201.877 28.5302C202.36 28.5302 202.8 28.462 203.198 28.3256C203.595 28.1836 203.939 27.9734 204.229 27.695C204.519 27.4165 204.74 27.0728 204.894 26.6637L207.306 27.0984C207.112 27.8086 206.766 28.4308 206.266 28.9648C205.772 29.4933 205.149 29.9052 204.399 30.2006C203.655 30.4904 202.806 30.6353 201.851 30.6353ZM215.784 35.5529C214.744 35.5529 213.849 35.4165 213.099 35.1438C212.355 34.8711 211.747 34.5103 211.275 34.0614C210.803 33.6126 210.451 33.1211 210.218 32.587L212.409 31.6836C212.562 31.9336 212.767 32.1978 213.022 32.4762C213.284 32.7603 213.636 33.0018 214.079 33.2006C214.528 33.3995 215.105 33.4989 215.809 33.4989C216.775 33.4989 217.573 33.2631 218.204 32.7915C218.835 32.3256 219.15 31.5813 219.15 30.5586V27.9847H218.988C218.835 28.2631 218.613 28.5728 218.323 28.9137C218.039 29.2546 217.647 29.5501 217.147 29.8001C216.647 30.0501 215.997 30.1751 215.196 30.1751C214.161 30.1751 213.23 29.9336 212.4 29.4506C211.576 28.962 210.923 28.2433 210.44 27.2944C209.963 26.3398 209.724 25.1665 209.724 23.7745C209.724 22.3825 209.96 21.1893 210.431 20.195C210.909 19.2006 211.562 18.4393 212.392 17.9109C213.221 17.3768 214.161 17.1097 215.213 17.1097C216.025 17.1097 216.681 17.2461 217.181 17.5188C217.681 17.7859 218.071 18.0984 218.349 18.4563C218.633 18.8143 218.852 19.1296 219.005 19.4023H219.193V17.2802H221.69V30.6609C221.69 31.7859 221.428 32.7092 220.906 33.4308C220.383 34.1523 219.676 34.6864 218.784 35.033C217.897 35.3796 216.897 35.5529 215.784 35.5529ZM215.758 28.0614C216.491 28.0614 217.11 27.891 217.616 27.5501C218.127 27.2035 218.514 26.7092 218.775 26.0671C219.042 25.4194 219.176 24.6438 219.176 23.7404C219.176 22.8597 219.045 22.0842 218.784 21.4137C218.522 20.7433 218.139 20.2205 217.633 19.8455C217.127 19.4648 216.502 19.2745 215.758 19.2745C214.991 19.2745 214.352 19.4734 213.84 19.8711C213.329 20.2631 212.943 20.7972 212.681 21.4734C212.426 22.1495 212.298 22.9052 212.298 23.7404C212.298 24.5984 212.428 25.3512 212.69 25.9989C212.951 26.6467 213.338 27.1523 213.849 27.516C214.366 27.8796 215.002 28.0614 215.758 28.0614ZM241.269 20.4762L238.959 20.8853C238.862 20.5898 238.709 20.3086 238.499 20.0415C238.294 19.7745 238.016 19.5558 237.664 19.3853C237.311 19.2148 236.871 19.1296 236.343 19.1296C235.621 19.1296 235.019 19.2915 234.536 19.6154C234.053 19.9336 233.811 20.3455 233.811 20.8512C233.811 21.2887 233.973 21.641 234.297 21.908C234.621 22.1751 235.144 22.3938 235.865 22.5643L237.945 23.0415C239.149 23.32 240.047 23.7489 240.638 24.3285C241.229 24.908 241.524 25.6609 241.524 26.587C241.524 27.3711 241.297 28.07 240.843 28.6836C240.394 29.2915 239.766 29.7688 238.959 30.1154C238.158 30.462 237.229 30.6353 236.172 30.6353C234.706 30.6353 233.51 30.3228 232.584 29.6978C231.658 29.0671 231.09 28.1722 230.879 27.0131L233.343 26.6381C233.496 27.2802 233.811 27.766 234.289 28.0955C234.766 28.4194 235.388 28.5813 236.155 28.5813C236.99 28.5813 237.658 28.408 238.158 28.0614C238.658 27.7092 238.908 27.2802 238.908 26.7745C238.908 26.3654 238.754 26.0217 238.448 25.7433C238.147 25.4648 237.683 25.2546 237.058 25.1126L234.843 24.6268C233.621 24.3484 232.718 23.9052 232.132 23.2972C231.553 22.6893 231.263 21.9194 231.263 20.9876C231.263 20.2148 231.479 19.5387 231.911 18.9592C232.343 18.3796 232.939 17.9279 233.701 17.604C234.462 17.2745 235.334 17.1097 236.317 17.1097C237.732 17.1097 238.845 17.4165 239.658 18.0302C240.47 18.6381 241.007 19.4535 241.269 20.4762ZM249.968 30.6353C248.678 30.6353 247.568 30.3597 246.636 29.8086C245.71 29.2518 244.994 28.4705 244.488 27.4648C243.988 26.4535 243.738 25.2688 243.738 23.9109C243.738 22.57 243.988 21.3881 244.488 20.3654C244.994 19.3427 245.698 18.5444 246.602 17.9705C247.511 17.3967 248.573 17.1097 249.789 17.1097C250.528 17.1097 251.244 17.2319 251.937 17.4762C252.63 17.7205 253.252 18.104 253.803 18.6268C254.355 19.1495 254.789 19.8285 255.107 20.6637C255.426 21.4933 255.585 22.5018 255.585 23.6893V24.5927H245.178V22.6836H253.088C253.088 22.0131 252.951 21.4194 252.678 20.9023C252.406 20.3796 252.022 19.9677 251.528 19.6665C251.039 19.3654 250.465 19.2148 249.806 19.2148C249.09 19.2148 248.465 19.391 247.931 19.7433C247.403 20.0898 246.994 20.5444 246.704 21.1069C246.42 21.6637 246.278 22.2688 246.278 22.9222V24.4137C246.278 25.2887 246.431 26.033 246.738 26.6467C247.051 27.2603 247.485 27.729 248.042 28.0529C248.599 28.3711 249.25 28.5302 249.994 28.5302C250.477 28.5302 250.917 28.462 251.315 28.3256C251.713 28.1836 252.056 27.9734 252.346 27.695C252.636 27.4165 252.857 27.0728 253.011 26.6637L255.423 27.0984C255.23 27.8086 254.883 28.4308 254.383 28.9648C253.889 29.4933 253.267 29.9052 252.517 30.2006C251.772 30.4904 250.923 30.6353 249.968 30.6353ZM269.664 30.6268C268.607 30.6268 267.664 30.3569 266.835 29.8171C266.011 29.2717 265.363 28.4961 264.892 27.4904C264.426 26.479 264.193 25.266 264.193 23.8512C264.193 22.4364 264.428 21.2262 264.9 20.2205C265.377 19.2148 266.031 18.445 266.86 17.9109C267.69 17.3768 268.63 17.1097 269.681 17.1097C270.494 17.1097 271.147 17.2461 271.642 17.5188C272.142 17.7859 272.528 18.0984 272.801 18.4563C273.079 18.8143 273.295 19.1296 273.448 19.4023H273.602V12.9165H276.15V30.3711H273.661V28.3342H273.448C273.295 28.6126 273.073 28.9308 272.784 29.2887C272.5 29.6467 272.107 29.9592 271.607 30.2262C271.107 30.4933 270.46 30.6268 269.664 30.6268ZM270.227 28.4535C270.96 28.4535 271.579 28.2603 272.085 27.8739C272.596 27.4819 272.982 26.9393 273.244 26.2461C273.511 25.5529 273.644 24.7461 273.644 23.8256C273.644 22.9165 273.514 22.1211 273.252 21.4393C272.991 20.7575 272.607 20.2262 272.102 19.8455C271.596 19.4648 270.971 19.2745 270.227 19.2745C269.46 19.2745 268.821 19.4734 268.309 19.8711C267.798 20.2688 267.411 20.8114 267.15 21.4989C266.894 22.1864 266.767 22.962 266.767 23.8256C266.767 24.7006 266.897 25.4876 267.159 26.1864C267.42 26.8853 267.806 27.4393 268.318 27.8484C268.835 28.2518 269.471 28.4535 270.227 28.4535ZM285.429 30.6353C284.139 30.6353 283.029 30.3597 282.097 29.8086C281.171 29.2518 280.455 28.4705 279.949 27.4648C279.449 26.4535 279.199 25.2688 279.199 23.9109C279.199 22.57 279.449 21.3881 279.949 20.3654C280.455 19.3427 281.159 18.5444 282.063 17.9705C282.972 17.3967 284.034 17.1097 285.25 17.1097C285.989 17.1097 286.705 17.2319 287.398 17.4762C288.091 17.7205 288.713 18.104 289.264 18.6268C289.816 19.1495 290.25 19.8285 290.568 20.6637C290.887 21.4933 291.046 22.5018 291.046 23.6893V24.5927H280.639V22.6836H288.549C288.549 22.0131 288.412 21.4194 288.139 20.9023C287.867 20.3796 287.483 19.9677 286.989 19.6665C286.5 19.3654 285.926 19.2148 285.267 19.2148C284.551 19.2148 283.926 19.391 283.392 19.7433C282.864 20.0898 282.455 20.5444 282.165 21.1069C281.881 21.6637 281.739 22.2688 281.739 22.9222V24.4137C281.739 25.2887 281.892 26.033 282.199 26.6467C282.512 27.2603 282.946 27.729 283.503 28.0529C284.06 28.3711 284.71 28.5302 285.455 28.5302C285.938 28.5302 286.378 28.462 286.776 28.3256C287.174 28.1836 287.517 27.9734 287.807 27.695C288.097 27.4165 288.318 27.0728 288.472 26.6637L290.884 27.0984C290.691 27.8086 290.344 28.4308 289.844 28.9648C289.35 29.4933 288.727 29.9052 287.977 30.2006C287.233 30.4904 286.384 30.6353 285.429 30.6353ZM310.034 20.4762L307.725 20.8853C307.628 20.5898 307.475 20.3086 307.264 20.0415C307.06 19.7745 306.781 19.5558 306.429 19.3853C306.077 19.2148 305.637 19.1296 305.108 19.1296C304.387 19.1296 303.784 19.2915 303.301 19.6154C302.818 19.9336 302.577 20.3455 302.577 20.8512C302.577 21.2887 302.739 21.641 303.063 21.908C303.387 22.1751 303.909 22.3938 304.631 22.5643L306.71 23.0415C307.915 23.32 308.813 23.7489 309.404 24.3285C309.995 24.908 310.29 25.6609 310.29 26.587C310.29 27.3711 310.063 28.07 309.608 28.6836C309.159 29.2915 308.531 29.7688 307.725 30.1154C306.924 30.462 305.995 30.6353 304.938 30.6353C303.472 30.6353 302.276 30.3228 301.35 29.6978C300.424 29.0671 299.855 28.1722 299.645 27.0131L302.108 26.6381C302.262 27.2802 302.577 27.766 303.054 28.0955C303.531 28.4194 304.154 28.5813 304.921 28.5813C305.756 28.5813 306.424 28.408 306.924 28.0614C307.424 27.7092 307.674 27.2802 307.674 26.7745C307.674 26.3654 307.52 26.0217 307.213 25.7433C306.912 25.4648 306.449 25.2546 305.824 25.1126L303.608 24.6268C302.387 24.3484 301.483 23.9052 300.898 23.2972C300.318 22.6893 300.029 21.9194 300.029 20.9876C300.029 20.2148 300.245 19.5387 300.676 18.9592C301.108 18.3796 301.705 17.9279 302.466 17.604C303.227 17.2745 304.1 17.1097 305.083 17.1097C306.497 17.1097 307.611 17.4165 308.424 18.0302C309.236 18.6381 309.773 19.4535 310.034 20.4762ZM318.734 30.6353C317.444 30.6353 316.333 30.3597 315.402 29.8086C314.475 29.2518 313.759 28.4705 313.254 27.4648C312.754 26.4535 312.504 25.2688 312.504 23.9109C312.504 22.57 312.754 21.3881 313.254 20.3654C313.759 19.3427 314.464 18.5444 315.367 17.9705C316.277 17.3967 317.339 17.1097 318.555 17.1097C319.294 17.1097 320.009 17.2319 320.703 17.4762C321.396 17.7205 322.018 18.104 322.569 18.6268C323.12 19.1495 323.555 19.8285 323.873 20.6637C324.191 21.4933 324.35 22.5018 324.35 23.6893V24.5927H313.944V22.6836H321.853C321.853 22.0131 321.717 21.4194 321.444 20.9023C321.171 20.3796 320.788 19.9677 320.294 19.6665C319.805 19.3654 319.231 19.2148 318.572 19.2148C317.856 19.2148 317.231 19.391 316.697 19.7433C316.169 20.0898 315.759 20.5444 315.47 21.1069C315.186 21.6637 315.044 22.2688 315.044 22.9222V24.4137C315.044 25.2887 315.197 26.033 315.504 26.6467C315.816 27.2603 316.251 27.729 316.808 28.0529C317.365 28.3711 318.015 28.5302 318.759 28.5302C319.242 28.5302 319.683 28.462 320.08 28.3256C320.478 28.1836 320.822 27.9734 321.112 27.695C321.402 27.4165 321.623 27.0728 321.777 26.6637L324.188 27.0984C323.995 27.8086 323.649 28.4308 323.149 28.9648C322.654 29.4933 322.032 29.9052 321.282 30.2006C320.538 30.4904 319.688 30.6353 318.734 30.6353ZM329.726 22.5984V30.3711H327.178V17.2802H329.624V19.4109H329.786C330.087 18.7177 330.558 18.1609 331.201 17.7404C331.848 17.32 332.664 17.1097 333.647 17.1097C334.539 17.1097 335.32 17.2972 335.99 17.6722C336.661 18.0415 337.181 18.5927 337.55 19.3256C337.919 20.0586 338.104 20.9648 338.104 22.0444V30.3711H335.556V22.3512C335.556 21.4023 335.308 20.6609 334.814 20.1268C334.32 19.587 333.641 19.3171 332.777 19.3171C332.186 19.3171 331.661 19.445 331.201 19.7006C330.746 19.9563 330.385 20.3313 330.118 20.8256C329.857 21.3143 329.726 21.9052 329.726 22.5984ZM347.164 30.6353C345.874 30.6353 344.763 30.3597 343.831 29.8086C342.905 29.2518 342.189 28.4705 341.683 27.4648C341.183 26.4535 340.933 25.2688 340.933 23.9109C340.933 22.57 341.183 21.3881 341.683 20.3654C342.189 19.3427 342.894 18.5444 343.797 17.9705C344.706 17.3967 345.769 17.1097 346.985 17.1097C347.723 17.1097 348.439 17.2319 349.132 17.4762C349.826 17.7205 350.448 18.104 350.999 18.6268C351.55 19.1495 351.985 19.8285 352.303 20.6637C352.621 21.4933 352.78 22.5018 352.78 23.6893V24.5927H342.374V22.6836H350.283C350.283 22.0131 350.147 21.4194 349.874 20.9023C349.601 20.3796 349.218 19.9677 348.723 19.6665C348.235 19.3654 347.661 19.2148 347.002 19.2148C346.286 19.2148 345.661 19.391 345.127 19.7433C344.598 20.0898 344.189 20.5444 343.899 21.1069C343.615 21.6637 343.473 22.2688 343.473 22.9222V24.4137C343.473 25.2887 343.627 26.033 343.933 26.6467C344.246 27.2603 344.681 27.729 345.237 28.0529C345.794 28.3711 346.445 28.5302 347.189 28.5302C347.672 28.5302 348.112 28.462 348.51 28.3256C348.908 28.1836 349.252 27.9734 349.541 27.695C349.831 27.4165 350.053 27.0728 350.206 26.6637L352.618 27.0984C352.425 27.8086 352.078 28.4308 351.578 28.9648C351.084 29.4933 350.462 29.9052 349.712 30.2006C348.968 30.4904 348.118 30.6353 347.164 30.6353ZM365.417 20.4762L363.107 20.8853C363.011 20.5898 362.857 20.3086 362.647 20.0415C362.443 19.7745 362.164 19.5558 361.812 19.3853C361.46 19.2148 361.019 19.1296 360.491 19.1296C359.769 19.1296 359.167 19.2915 358.684 19.6154C358.201 19.9336 357.96 20.3455 357.96 20.8512C357.96 21.2887 358.122 21.641 358.446 21.908C358.769 22.1751 359.292 22.3938 360.014 22.5643L362.093 23.0415C363.298 23.32 364.196 23.7489 364.786 24.3285C365.377 24.908 365.673 25.6609 365.673 26.587C365.673 27.3711 365.446 28.07 364.991 28.6836C364.542 29.2915 363.914 29.7688 363.107 30.1154C362.306 30.462 361.377 30.6353 360.321 30.6353C358.855 30.6353 357.659 30.3228 356.732 29.6978C355.806 29.0671 355.238 28.1722 355.028 27.0131L357.491 26.6381C357.644 27.2802 357.96 27.766 358.437 28.0955C358.914 28.4194 359.536 28.5813 360.304 28.5813C361.139 28.5813 361.806 28.408 362.306 28.0614C362.806 27.7092 363.056 27.2802 363.056 26.7745C363.056 26.3654 362.903 26.0217 362.596 25.7433C362.295 25.4648 361.832 25.2546 361.207 25.1126L358.991 24.6268C357.769 24.3484 356.866 23.9052 356.281 23.2972C355.701 22.6893 355.411 21.9194 355.411 20.9876C355.411 20.2148 355.627 19.5387 356.059 18.9592C356.491 18.3796 357.088 17.9279 357.849 17.604C358.61 17.2745 359.482 17.1097 360.465 17.1097C361.88 17.1097 362.994 17.4165 363.806 18.0302C364.619 18.6381 365.156 19.4535 365.417 20.4762ZM374.585 17.2802V19.3256H367.435V17.2802H374.585ZM369.353 14.1438H371.901V26.5273C371.901 27.0217 371.975 27.3938 372.122 27.6438C372.27 27.8881 372.46 28.0558 372.693 28.1467C372.932 28.2319 373.191 28.2745 373.469 28.2745C373.674 28.2745 373.853 28.2603 374.006 28.2319C374.159 28.2035 374.279 28.1808 374.364 28.1637L374.824 30.2688C374.676 30.3256 374.466 30.3825 374.193 30.4393C373.921 30.5018 373.58 30.5359 373.171 30.5415C372.5 30.5529 371.875 30.4336 371.296 30.1836C370.716 29.9336 370.247 29.5472 369.889 29.0245C369.531 28.5018 369.353 27.8455 369.353 27.0558V14.1438ZM382.906 30.6353C381.616 30.6353 380.505 30.3597 379.573 29.8086C378.647 29.2518 377.931 28.4705 377.426 27.4648C376.926 26.4535 376.676 25.2688 376.676 23.9109C376.676 22.57 376.926 21.3881 377.426 20.3654C377.931 19.3427 378.636 18.5444 379.539 17.9705C380.448 17.3967 381.511 17.1097 382.727 17.1097C383.465 17.1097 384.181 17.2319 384.875 17.4762C385.568 17.7205 386.19 18.104 386.741 18.6268C387.292 19.1495 387.727 19.8285 388.045 20.6637C388.363 21.4933 388.522 22.5018 388.522 23.6893V24.5927H378.116V22.6836H386.025C386.025 22.0131 385.889 21.4194 385.616 20.9023C385.343 20.3796 384.96 19.9677 384.465 19.6665C383.977 19.3654 383.403 19.2148 382.744 19.2148C382.028 19.2148 381.403 19.391 380.869 19.7433C380.34 20.0898 379.931 20.5444 379.642 21.1069C379.357 21.6637 379.215 22.2688 379.215 22.9222V24.4137C379.215 25.2887 379.369 26.033 379.676 26.6467C379.988 27.2603 380.423 27.729 380.98 28.0529C381.536 28.3711 382.187 28.5302 382.931 28.5302C383.414 28.5302 383.855 28.462 384.252 28.3256C384.65 28.1836 384.994 27.9734 385.284 27.695C385.573 27.4165 385.795 27.0728 385.948 26.6637L388.36 27.0984C388.167 27.8086 387.821 28.4308 387.321 28.9648C386.826 29.4933 386.204 29.9052 385.454 30.2006C384.71 30.4904 383.86 30.6353 382.906 30.6353ZM400.25 22.5984V30.3711H397.701V17.2802H400.147V19.4109H400.309C400.61 18.7177 401.082 18.1609 401.724 17.7404C402.372 17.32 403.187 17.1097 404.17 17.1097C405.062 17.1097 405.843 17.2972 406.514 17.6722C407.184 18.0415 407.704 18.5927 408.073 19.3256C408.443 20.0586 408.627 20.9648 408.627 22.0444V30.3711H406.079V22.3512C406.079 21.4023 405.832 20.6609 405.338 20.1268C404.843 19.587 404.164 19.3171 403.301 19.3171C402.71 19.3171 402.184 19.445 401.724 19.7006C401.269 19.9563 400.909 20.3313 400.642 20.8256C400.38 21.3143 400.25 21.9052 400.25 22.5984ZM413.187 35.2802C412.806 35.2802 412.46 35.2489 412.147 35.1864C411.835 35.1296 411.602 35.0671 411.448 34.9989L412.062 32.9109C412.528 33.0359 412.943 33.0898 413.306 33.0728C413.67 33.0558 413.991 32.9194 414.269 32.6637C414.554 32.408 414.804 31.9904 415.019 31.4109L415.335 30.5415L410.545 17.2802H413.272L416.588 27.4393H416.724L420.039 17.2802H422.775L417.38 32.1183C417.13 32.8001 416.812 33.3768 416.426 33.8484C416.039 34.3256 415.579 34.6836 415.045 34.9222C414.511 35.1609 413.892 35.2802 413.187 35.2802ZM427.718 22.5984V30.3711H425.17V12.9165H427.684V19.4109H427.846C428.153 18.7063 428.622 18.1467 429.252 17.7319C429.883 17.3171 430.707 17.1097 431.724 17.1097C432.622 17.1097 433.406 17.2944 434.076 17.6637C434.752 18.033 435.275 18.5842 435.644 19.3171C436.019 20.0444 436.207 20.9535 436.207 22.0444V30.3711H433.659V22.3512C433.659 21.391 433.411 20.6467 432.917 20.1183C432.423 19.5842 431.735 19.3171 430.855 19.3171C430.252 19.3171 429.713 19.445 429.235 19.7006C428.764 19.9563 428.392 20.3313 428.119 20.8256C427.852 21.3143 427.718 21.9052 427.718 22.5984ZM445.25 30.6353C443.96 30.6353 442.849 30.3597 441.917 29.8086C440.991 29.2518 440.275 28.4705 439.769 27.4648C439.269 26.4535 439.019 25.2688 439.019 23.9109C439.019 22.57 439.269 21.3881 439.769 20.3654C440.275 19.3427 440.98 18.5444 441.883 17.9705C442.792 17.3967 443.855 17.1097 445.071 17.1097C445.809 17.1097 446.525 17.2319 447.218 17.4762C447.911 17.7205 448.534 18.104 449.085 18.6268C449.636 19.1495 450.071 19.8285 450.389 20.6637C450.707 21.4933 450.866 22.5018 450.866 23.6893V24.5927H440.46V22.6836H448.369C448.369 22.0131 448.232 21.4194 447.96 20.9023C447.687 20.3796 447.304 19.9677 446.809 19.6665C446.321 19.3654 445.747 19.2148 445.088 19.2148C444.372 19.2148 443.747 19.391 443.213 19.7433C442.684 20.0898 442.275 20.5444 441.985 21.1069C441.701 21.6637 441.559 22.2688 441.559 22.9222V24.4137C441.559 25.2887 441.713 26.033 442.019 26.6467C442.332 27.2603 442.767 27.729 443.323 28.0529C443.88 28.3711 444.531 28.5302 445.275 28.5302C445.758 28.5302 446.198 28.462 446.596 28.3256C446.994 28.1836 447.338 27.9734 447.627 27.695C447.917 27.4165 448.139 27.0728 448.292 26.6637L450.704 27.0984C450.511 27.8086 450.164 28.4308 449.664 28.9648C449.17 29.4933 448.548 29.9052 447.798 30.2006C447.054 30.4904 446.204 30.6353 445.25 30.6353ZM458.594 30.6268C457.537 30.6268 456.594 30.3569 455.764 29.8171C454.941 29.2717 454.293 28.4961 453.821 27.4904C453.355 26.479 453.122 25.266 453.122 23.8512C453.122 22.4364 453.358 21.2262 453.83 20.2205C454.307 19.2148 454.96 18.445 455.79 17.9109C456.62 17.3768 457.56 17.1097 458.611 17.1097C459.424 17.1097 460.077 17.2461 460.571 17.5188C461.071 17.7859 461.458 18.0984 461.73 18.4563C462.009 18.8143 462.225 19.1296 462.378 19.4023H462.531V12.9165H465.08V30.3711H462.591V28.3342H462.378C462.225 28.6126 462.003 28.9308 461.713 29.2887C461.429 29.6467 461.037 29.9592 460.537 30.2262C460.037 30.4933 459.389 30.6268 458.594 30.6268ZM459.156 28.4535C459.889 28.4535 460.509 28.2603 461.014 27.8739C461.526 27.4819 461.912 26.9393 462.174 26.2461C462.441 25.5529 462.574 24.7461 462.574 23.8256C462.574 22.9165 462.443 22.1211 462.182 21.4393C461.921 20.7575 461.537 20.2262 461.031 19.8455C460.526 19.4648 459.901 19.2745 459.156 19.2745C458.389 19.2745 457.75 19.4734 457.239 19.8711C456.728 20.2688 456.341 20.8114 456.08 21.4989C455.824 22.1864 455.696 22.962 455.696 23.8256C455.696 24.7006 455.827 25.4876 456.088 26.1864C456.35 26.8853 456.736 27.4393 457.247 27.8484C457.764 28.2518 458.401 28.4535 459.156 28.4535ZM474.359 30.6353C473.069 30.6353 471.958 30.3597 471.027 29.8086C470.1 29.2518 469.384 28.4705 468.879 27.4648C468.379 26.4535 468.129 25.2688 468.129 23.9109C468.129 22.57 468.379 21.3881 468.879 20.3654C469.384 19.3427 470.089 18.5444 470.992 17.9705C471.902 17.3967 472.964 17.1097 474.18 17.1097C474.919 17.1097 475.634 17.2319 476.328 17.4762C477.021 17.7205 477.643 18.104 478.194 18.6268C478.745 19.1495 479.18 19.8285 479.498 20.6637C479.816 21.4933 479.975 22.5018 479.975 23.6893V24.5927H469.569V22.6836H477.478C477.478 22.0131 477.342 21.4194 477.069 20.9023C476.796 20.3796 476.413 19.9677 475.919 19.6665C475.43 19.3654 474.856 19.2148 474.197 19.2148C473.481 19.2148 472.856 19.391 472.322 19.7433C471.794 20.0898 471.384 20.5444 471.095 21.1069C470.811 21.6637 470.669 22.2688 470.669 22.9222V24.4137C470.669 25.2887 470.822 26.033 471.129 26.6467C471.441 27.2603 471.876 27.729 472.433 28.0529C472.99 28.3711 473.64 28.5302 474.384 28.5302C474.867 28.5302 475.308 28.462 475.705 28.3256C476.103 28.1836 476.447 27.9734 476.737 27.695C477.027 27.4165 477.248 27.0728 477.402 26.6637L479.813 27.0984C479.62 27.8086 479.274 28.4308 478.774 28.9648C478.279 29.4933 477.657 29.9052 476.907 30.2006C476.163 30.4904 475.313 30.6353 474.359 30.6353ZM482.803 30.3711V17.2802H485.266V19.3597H485.402C485.641 18.6552 486.061 18.1012 486.664 17.6978C487.272 17.2887 487.959 17.0842 488.726 17.0842C488.885 17.0842 489.073 17.0898 489.289 17.1012C489.51 17.1126 489.683 17.1268 489.808 17.1438V19.5813C489.706 19.5529 489.524 19.5217 489.263 19.4876C489.002 19.4478 488.74 19.4279 488.479 19.4279C487.877 19.4279 487.34 19.5558 486.868 19.8114C486.402 20.0614 486.033 20.4109 485.76 20.8597C485.487 21.3029 485.351 21.8086 485.351 22.3768V30.3711H482.803ZM242.06 46.2802V48.3256H234.663V46.2802H242.06ZM236.691 59.3711V44.7631C236.691 43.945 236.87 43.266 237.228 42.7262C237.586 42.1808 238.06 41.7745 238.651 41.5075C239.242 41.2347 239.884 41.0984 240.577 41.0984C241.089 41.0984 241.526 41.141 241.89 41.2262C242.253 41.3058 242.523 41.3796 242.699 41.4478L242.103 43.5103C241.984 43.4762 241.83 43.4364 241.643 43.391C241.455 43.3398 241.228 43.3143 240.961 43.3143C240.341 43.3143 239.898 43.4677 239.631 43.7745C239.37 44.0813 239.239 44.5245 239.239 45.104V59.3711H236.691ZM244.689 59.3711V46.2802H247.153V48.3597H247.289C247.528 47.6552 247.948 47.1012 248.55 46.6978C249.158 46.2887 249.846 46.0842 250.613 46.0842C250.772 46.0842 250.959 46.0898 251.175 46.1012C251.397 46.1126 251.57 46.1268 251.695 46.1438V48.5813C251.593 48.5529 251.411 48.5217 251.15 48.4876C250.888 48.4478 250.627 48.4279 250.366 48.4279C249.763 48.4279 249.226 48.5558 248.755 48.8114C248.289 49.0614 247.92 49.4109 247.647 49.8597C247.374 50.3029 247.238 50.8086 247.238 51.3768V59.3711H244.689ZM257.593 59.6609C256.763 59.6609 256.013 59.5075 255.343 59.2006C254.672 58.8881 254.141 58.4364 253.749 57.8455C253.363 57.2546 253.17 56.5302 253.17 55.6722C253.17 54.9336 253.312 54.3256 253.596 53.8484C253.88 53.3711 254.263 52.9933 254.746 52.7148C255.229 52.4364 255.769 52.2262 256.366 52.0842C256.962 51.9421 257.57 51.8342 258.189 51.7603C258.974 51.6694 259.61 51.5955 260.099 51.5387C260.587 51.4762 260.942 51.3768 261.164 51.2404C261.386 51.104 261.496 50.8825 261.496 50.5756V50.516C261.496 49.7717 261.286 49.195 260.866 48.7859C260.451 48.3768 259.832 48.1722 259.008 48.1722C258.15 48.1722 257.474 48.3626 256.979 48.7433C256.491 49.1183 256.153 49.5359 255.965 49.9961L253.57 49.4506C253.854 48.6552 254.269 48.0131 254.814 47.5245C255.366 47.0302 255.999 46.6722 256.715 46.4506C257.431 46.2234 258.184 46.1097 258.974 46.1097C259.496 46.1097 260.05 46.1722 260.636 46.2972C261.226 46.4165 261.778 46.6381 262.289 46.962C262.806 47.2859 263.229 47.7489 263.559 48.3512C263.888 48.9478 264.053 49.7234 264.053 50.6779V59.3711H261.564V57.5813H261.462C261.297 57.9109 261.05 58.2347 260.721 58.5529C260.391 58.8711 259.968 59.1353 259.451 59.3455C258.934 59.5558 258.314 59.6609 257.593 59.6609ZM258.147 57.6154C258.851 57.6154 259.454 57.4762 259.954 57.1978C260.459 56.9194 260.843 56.5558 261.104 56.1069C261.371 55.6523 261.505 55.1665 261.505 54.6495V52.962C261.414 53.0529 261.238 53.1381 260.976 53.2177C260.721 53.2915 260.428 53.3569 260.099 53.4137C259.769 53.4648 259.448 53.5131 259.136 53.5586C258.823 53.5984 258.562 53.6325 258.351 53.6609C257.857 53.7234 257.405 53.8285 256.996 53.9762C256.593 54.1239 256.269 54.337 256.025 54.6154C255.786 54.8881 255.667 55.2518 255.667 55.7063C255.667 56.337 255.9 56.8143 256.366 57.1381C256.832 57.4563 257.425 57.6154 258.147 57.6154ZM275.478 59.3711H272.682L278.964 41.9165H282.006L288.288 59.3711H285.492L280.557 45.087H280.421L275.478 59.3711ZM275.947 52.5359H285.015V54.7518H275.947V52.5359ZM292.283 59.3711H289.487L295.768 41.9165H298.811L305.092 59.3711H302.297L297.362 45.087H297.226L292.283 59.3711ZM292.751 52.5359H301.819V54.7518H292.751V52.5359ZM318.837 41.9165H321.479V53.3967C321.479 54.6183 321.192 55.7006 320.618 56.6438C320.045 57.5813 319.238 58.32 318.198 58.8597C317.158 59.3938 315.94 59.6609 314.542 59.6609C313.15 59.6609 311.934 59.3938 310.894 58.8597C309.854 58.32 309.047 57.5813 308.474 56.6438C307.9 55.7006 307.613 54.6183 307.613 53.3967V41.9165H310.246V53.1836C310.246 53.9734 310.42 54.6751 310.766 55.2887C311.118 55.9023 311.616 56.3853 312.258 56.7376C312.9 57.0842 313.661 57.2575 314.542 57.2575C315.428 57.2575 316.192 57.0842 316.834 56.7376C317.482 56.3853 317.976 55.9023 318.317 55.2887C318.664 54.6751 318.837 53.9734 318.837 53.1836V41.9165ZM327.891 54.3512V54.1893C327.902 53.1325 328.007 52.2915 328.206 51.6665C328.41 51.0415 328.7 50.5359 329.075 50.1495C329.45 49.7631 329.902 49.4109 330.43 49.0927C330.771 48.8768 331.078 48.6353 331.351 48.3683C331.623 48.1012 331.839 47.7944 331.998 47.4478C332.158 47.1012 332.237 46.7177 332.237 46.2972C332.237 45.7915 332.118 45.354 331.879 44.9847C331.641 44.6154 331.322 44.3313 330.925 44.1325C330.533 43.9279 330.095 43.8256 329.612 43.8256C329.175 43.8256 328.757 43.9165 328.359 44.0984C327.962 44.2802 327.632 44.5643 327.371 44.9506C327.109 45.3313 326.959 45.8228 326.919 46.4251H324.328C324.368 45.4023 324.626 44.5387 325.104 43.8342C325.581 43.1239 326.212 42.587 326.996 42.2234C327.785 41.8597 328.658 41.6779 329.612 41.6779C330.658 41.6779 331.572 41.8739 332.356 42.266C333.141 42.6523 333.748 43.195 334.18 43.8938C334.618 44.587 334.837 45.3967 334.837 46.3228C334.837 46.9592 334.737 47.533 334.538 48.0444C334.339 48.5501 334.055 49.0018 333.686 49.3995C333.322 49.7972 332.885 50.1495 332.373 50.4563C331.891 50.7575 331.498 51.07 331.197 51.3938C330.902 51.7177 330.686 52.1012 330.55 52.5444C330.413 52.9876 330.339 53.5359 330.328 54.1893V54.3512H327.891ZM329.177 59.533C328.712 59.533 328.311 59.3683 327.976 59.0387C327.641 58.7035 327.473 58.3001 327.473 57.8285C327.473 57.3626 327.641 56.9648 327.976 56.6353C328.311 56.3001 328.712 56.1325 329.177 56.1325C329.638 56.1325 330.035 56.3001 330.371 56.6353C330.712 56.9648 330.882 57.3626 330.882 57.8285C330.882 58.141 330.802 58.4279 330.643 58.6893C330.49 58.945 330.285 59.1495 330.03 59.3029C329.774 59.4563 329.49 59.533 329.177 59.533Z" fill="white"/>
<defs>
<filter id="filter0_d_279_985" x="0.721191" y="0.487671" width="566.558" height="87.1595" filterUnits="userSpaceOnUse" color-interpolation-filters="sRGB">
<feFlood flood-opacity="0" result="BackgroundImageFix"/>
<feColorMatrix in="SourceAlpha" type="matrix" values="0 0 0 0 0 0 0 0 0 0 0 0 0 0 0 0 0 0 127 0" result="hardAlpha"/>
<feOffset dx="-5" dy="4"/>
<feGaussianBlur stdDeviation="2"/>
<feComposite in2="hardAlpha" operator="out"/>
<feColorMatrix type="matrix" values="0 0 0 0 0 0 0 0 0 0 0 0 0 0 0 0 0 0 0.33 0"/>
<feBlend mode="normal" in2="BackgroundImageFix" result="effect1_dropShadow_279_985"/>
<feBlend mode="normal" in="SourceGraphic" in2="effect1_dropShadow_279_985" result="shape"/>
</filter>
</defs>
</svg>
