<svg width="568" height="88" viewBox="0 0 568 88" fill="none" xmlns="http://www.w3.org/2000/svg">
<g filter="url(#filter0_d_279_988)">
<rect x="9.7207" y="0.343628" width="557.558" height="79.1595" rx="14" fill="#03266A"/>
</g>
<path d="M63.6788 30.2271V12.7725H66.3123V20.3577H75.014V12.7725H77.6561V30.2271H75.014V22.6163H66.3123V30.2271H63.6788ZM92.4856 17.1361L87.7384 30.2271H85.0112L80.2555 17.1361H82.9913L86.3066 27.21H86.443L89.7498 17.1361H92.4856ZM99.9494 30.4913C98.7221 30.4913 97.6511 30.21 96.7363 29.6475C95.8215 29.085 95.1113 28.2981 94.6056 27.2867C94.0999 26.2753 93.8471 25.0935 93.8471 23.7413C93.8471 22.3833 94.0999 21.1958 94.6056 20.1788C95.1113 19.1617 95.8215 18.3719 96.7363 17.8094C97.6511 17.2469 98.7221 16.9657 99.9494 16.9657C101.177 16.9657 102.248 17.2469 103.162 17.8094C104.077 18.3719 104.787 19.1617 105.293 20.1788C105.799 21.1958 106.052 22.3833 106.052 23.7413C106.052 25.0935 105.799 26.2753 105.293 27.2867C104.787 28.2981 104.077 29.085 103.162 29.6475C102.248 30.21 101.177 30.4913 99.9494 30.4913ZM99.9579 28.3521C100.753 28.3521 101.412 28.1418 101.935 27.7214C102.458 27.3009 102.844 26.7413 103.094 26.0424C103.35 25.3435 103.478 24.5736 103.478 23.7327C103.478 22.8975 103.35 22.1305 103.094 21.4316C102.844 20.7271 102.458 20.1617 101.935 19.7356C101.412 19.3094 100.753 19.0964 99.9579 19.0964C99.1568 19.0964 98.492 19.3094 97.9636 19.7356C97.4409 20.1617 97.0517 20.7271 96.796 21.4316C96.546 22.1305 96.421 22.8975 96.421 23.7327C96.421 24.5736 96.546 25.3435 96.796 26.0424C97.0517 26.7413 97.4409 27.3009 97.9636 27.7214C98.492 28.1418 99.1568 28.3521 99.9579 28.3521ZM108.896 30.2271V17.1361H111.359V19.2157H111.496C111.734 18.5111 112.155 17.9572 112.757 17.5538C113.365 17.1447 114.052 16.9401 114.819 16.9401C114.978 16.9401 115.166 16.9458 115.382 16.9572C115.603 16.9685 115.777 16.9827 115.902 16.9998V19.4373C115.8 19.4089 115.618 19.3776 115.356 19.3435C115.095 19.3038 114.834 19.2839 114.572 19.2839C113.97 19.2839 113.433 19.4117 112.961 19.6674C112.496 19.9174 112.126 20.2668 111.853 20.7157C111.581 21.1589 111.444 21.6646 111.444 22.2327V30.2271H108.896ZM122.539 30.4827C121.482 30.4827 120.539 30.2128 119.709 29.6731C118.885 29.1276 118.238 28.3521 117.766 27.3464C117.3 26.335 117.067 25.1219 117.067 23.7072C117.067 22.2924 117.303 21.0822 117.775 20.0765C118.252 19.0708 118.905 18.3009 119.735 17.7668C120.564 17.2327 121.505 16.9657 122.556 16.9657C123.368 16.9657 124.022 17.1021 124.516 17.3748C125.016 17.6418 125.403 17.9543 125.675 18.3123C125.954 18.6702 126.17 18.9856 126.323 19.2583H126.476V12.7725H129.025V30.2271H126.536V28.1901H126.323C126.17 28.4685 125.948 28.7867 125.658 29.1447C125.374 29.5026 124.982 29.8151 124.482 30.0822C123.982 30.3492 123.334 30.4827 122.539 30.4827ZM123.101 28.3094C123.834 28.3094 124.454 28.1163 124.959 27.7299C125.471 27.3378 125.857 26.7952 126.118 26.1021C126.385 25.4089 126.519 24.6021 126.519 23.6816C126.519 22.7725 126.388 21.9771 126.127 21.2952C125.866 20.6134 125.482 20.0822 124.976 19.7015C124.471 19.3208 123.846 19.1305 123.101 19.1305C122.334 19.1305 121.695 19.3293 121.184 19.7271C120.672 20.1248 120.286 20.6674 120.025 21.3549C119.769 22.0424 119.641 22.818 119.641 23.6816C119.641 24.5566 119.772 25.3435 120.033 26.0424C120.295 26.7413 120.681 27.2952 121.192 27.7043C121.709 28.1077 122.346 28.3094 123.101 28.3094ZM136.471 30.5168C135.642 30.5168 134.892 30.3634 134.221 30.0566C133.551 29.7441 133.02 29.2924 132.628 28.7015C132.241 28.1106 132.048 27.3861 132.048 26.5282C132.048 25.7896 132.19 25.1816 132.474 24.7043C132.758 24.2271 133.142 23.8492 133.625 23.5708C134.108 23.2924 134.648 23.0822 135.244 22.9401C135.841 22.7981 136.449 22.6901 137.068 22.6163C137.852 22.5253 138.488 22.4515 138.977 22.3947C139.466 22.3322 139.821 22.2327 140.042 22.0964C140.264 21.96 140.375 21.7384 140.375 21.4316V21.3719C140.375 20.6276 140.165 20.0509 139.744 19.6418C139.329 19.2327 138.71 19.0282 137.886 19.0282C137.028 19.0282 136.352 19.2185 135.858 19.5992C135.369 19.9742 135.031 20.3918 134.844 20.8521L132.449 20.3066C132.733 19.5111 133.148 18.8691 133.693 18.3805C134.244 17.8861 134.878 17.5282 135.594 17.3066C136.309 17.0793 137.062 16.9657 137.852 16.9657C138.375 16.9657 138.929 17.0282 139.514 17.1532C140.105 17.2725 140.656 17.4941 141.167 17.818C141.684 18.1418 142.108 18.6049 142.437 19.2072C142.767 19.8038 142.932 20.5793 142.932 21.5339V30.2271H140.443V28.4373H140.341C140.176 28.7668 139.929 29.0907 139.599 29.4089C139.27 29.7271 138.846 29.9913 138.329 30.2015C137.812 30.4117 137.193 30.5168 136.471 30.5168ZM137.025 28.4714C137.73 28.4714 138.332 28.3322 138.832 28.0538C139.338 27.7753 139.721 27.4117 139.983 26.9628C140.25 26.5083 140.383 26.0225 140.383 25.5055V23.818C140.292 23.9089 140.116 23.9941 139.855 24.0736C139.599 24.1475 139.307 24.2128 138.977 24.2697C138.648 24.3208 138.327 24.3691 138.014 24.4146C137.702 24.4543 137.44 24.4884 137.23 24.5168C136.736 24.5793 136.284 24.6844 135.875 24.8322C135.471 24.9799 135.148 25.193 134.903 25.4714C134.665 25.7441 134.545 26.1077 134.545 26.5623C134.545 27.193 134.778 27.6702 135.244 27.9941C135.71 28.3123 136.304 28.4714 137.025 28.4714ZM148.874 22.4543V30.2271H146.326V17.1361H148.772V19.2668H148.934C149.235 18.5736 149.706 18.0168 150.349 17.5964C150.996 17.1759 151.812 16.9657 152.795 16.9657C153.687 16.9657 154.468 17.1532 155.138 17.5282C155.809 17.8975 156.329 18.4486 156.698 19.1816C157.067 19.9146 157.252 20.8208 157.252 21.9003V30.2271H154.704V22.2072C154.704 21.2583 154.456 20.5168 153.962 19.9827C153.468 19.443 152.789 19.1731 151.925 19.1731C151.334 19.1731 150.809 19.3009 150.349 19.5566C149.894 19.8123 149.533 20.1873 149.266 20.6816C149.005 21.1702 148.874 21.7611 148.874 22.4543ZM176.831 20.3322L174.521 20.7413C174.425 20.4458 174.271 20.1646 174.061 19.8975C173.856 19.6305 173.578 19.4117 173.226 19.2413C172.873 19.0708 172.433 18.9856 171.905 18.9856C171.183 18.9856 170.581 19.1475 170.098 19.4714C169.615 19.7896 169.373 20.2015 169.373 20.7072C169.373 21.1447 169.535 21.4969 169.859 21.764C170.183 22.031 170.706 22.2498 171.427 22.4202L173.507 22.8975C174.711 23.1759 175.609 23.6049 176.2 24.1844C176.791 24.764 177.086 25.5168 177.086 26.443C177.086 27.2271 176.859 27.9259 176.405 28.5396C175.956 29.1475 175.328 29.6248 174.521 29.9714C173.72 30.318 172.791 30.4913 171.734 30.4913C170.268 30.4913 169.072 30.1788 168.146 29.5538C167.22 28.9231 166.652 28.0282 166.442 26.8691L168.905 26.4941C169.058 27.1361 169.373 27.6219 169.851 27.9515C170.328 28.2753 170.95 28.4373 171.717 28.4373C172.552 28.4373 173.22 28.264 173.72 27.9174C174.22 27.5651 174.47 27.1361 174.47 26.6305C174.47 26.2214 174.317 25.8776 174.01 25.5992C173.709 25.3208 173.246 25.1106 172.621 24.9685L170.405 24.4827C169.183 24.2043 168.28 23.7611 167.694 23.1532C167.115 22.5452 166.825 21.7753 166.825 20.8435C166.825 20.0708 167.041 19.3947 167.473 18.8151C167.905 18.2356 168.501 17.7839 169.263 17.46C170.024 17.1305 170.896 16.9657 171.879 16.9657C173.294 16.9657 174.407 17.2725 175.22 17.8861C176.032 18.4941 176.569 19.3094 176.831 20.3322ZM181.499 30.9856L180.076 30.014L189.306 16.4799L190.729 17.4515L181.499 30.9856ZM185.403 30.4998C184.175 30.4998 183.104 30.2185 182.189 29.656C181.275 29.0935 180.564 28.3066 180.059 27.2952C179.553 26.2839 179.3 25.1021 179.3 23.7498C179.3 22.3918 179.553 21.2043 180.059 20.1873C180.564 19.1702 181.275 18.3805 182.189 17.818C183.104 17.2555 184.175 16.9742 185.403 16.9742C186.63 16.9742 187.701 17.2555 188.616 17.818C189.53 18.3805 190.241 19.1702 190.746 20.1873C191.252 21.2043 191.505 22.3918 191.505 23.7498C191.505 25.1021 191.252 26.2839 190.746 27.2952C190.241 28.3066 189.53 29.0935 188.616 29.656C187.701 30.2185 186.63 30.4998 185.403 30.4998ZM185.411 28.3606C186.206 28.3606 186.866 28.1503 187.388 27.7299C187.911 27.3038 188.297 26.7413 188.547 26.0424C188.803 25.3435 188.931 24.5765 188.931 23.7413C188.931 22.906 188.803 22.1361 188.547 21.4316C188.297 20.7271 187.911 20.1617 187.388 19.7356C186.866 19.3094 186.206 19.0964 185.411 19.0964C184.61 19.0964 183.945 19.3094 183.417 19.7356C182.894 20.1617 182.505 20.7271 182.249 21.4316C181.999 22.1361 181.874 22.906 181.874 23.7413C181.874 24.5765 181.999 25.3435 182.249 26.0424C182.505 26.7413 182.894 27.3038 183.417 27.7299C183.945 28.1503 184.61 28.3606 185.411 28.3606ZM199.838 35.4089C198.798 35.4089 197.903 35.2725 197.153 34.9998C196.409 34.7271 195.801 34.3663 195.329 33.9174C194.858 33.4685 194.505 32.9771 194.273 32.443L196.463 31.5396C196.616 31.7896 196.821 32.0538 197.077 32.3322C197.338 32.6163 197.69 32.8577 198.133 33.0566C198.582 33.2555 199.159 33.3549 199.863 33.3549C200.829 33.3549 201.628 33.1191 202.258 32.6475C202.889 32.1816 203.204 31.4373 203.204 30.4146V27.8407H203.042C202.889 28.1191 202.667 28.4288 202.378 28.7697C202.094 29.1106 201.702 29.406 201.202 29.656C200.702 29.906 200.051 30.031 199.25 30.031C198.216 30.031 197.284 29.7896 196.454 29.3066C195.63 28.818 194.977 28.0992 194.494 27.1503C194.017 26.1958 193.778 25.0225 193.778 23.6305C193.778 22.2384 194.014 21.0452 194.486 20.0509C194.963 19.0566 195.616 18.2952 196.446 17.7668C197.275 17.2327 198.216 16.9657 199.267 16.9657C200.079 16.9657 200.736 17.1021 201.236 17.3748C201.736 17.6418 202.125 17.9543 202.403 18.3123C202.687 18.6702 202.906 18.9856 203.059 19.2583H203.247V17.1361H205.744V30.5168C205.744 31.6418 205.483 32.5651 204.96 33.2867C204.437 34.0083 203.73 34.5424 202.838 34.889C201.952 35.2356 200.952 35.4089 199.838 35.4089ZM199.812 27.9174C200.545 27.9174 201.165 27.7469 201.67 27.406C202.182 27.0594 202.568 26.5651 202.829 25.9231C203.096 25.2753 203.23 24.4998 203.23 23.5964C203.23 22.7157 203.099 21.9401 202.838 21.2697C202.577 20.5992 202.193 20.0765 201.687 19.7015C201.182 19.3208 200.557 19.1305 199.812 19.1305C199.045 19.1305 198.406 19.3293 197.895 19.7271C197.383 20.1191 196.997 20.6532 196.736 21.3293C196.48 22.0055 196.352 22.7611 196.352 23.5964C196.352 24.4543 196.483 25.2072 196.744 25.8549C197.005 26.5026 197.392 27.0083 197.903 27.3719C198.42 27.7356 199.057 27.9174 199.812 27.9174ZM214.804 30.4913C213.514 30.4913 212.403 30.2157 211.471 29.6646C210.545 29.1077 209.829 28.3265 209.324 27.3208C208.824 26.3094 208.574 25.1248 208.574 23.7668C208.574 22.4259 208.824 21.2441 209.324 20.2214C209.829 19.1986 210.534 18.4003 211.437 17.8265C212.346 17.2526 213.409 16.9657 214.625 16.9657C215.363 16.9657 216.079 17.0878 216.773 17.3322C217.466 17.5765 218.088 17.96 218.639 18.4827C219.19 19.0055 219.625 19.6844 219.943 20.5197C220.261 21.3492 220.42 22.3577 220.42 23.5452V24.4486H210.014V22.5396H217.923C217.923 21.8691 217.787 21.2753 217.514 20.7583C217.241 20.2356 216.858 19.8236 216.363 19.5225C215.875 19.2214 215.301 19.0708 214.642 19.0708C213.926 19.0708 213.301 19.2469 212.767 19.5992C212.238 19.9458 211.829 20.4003 211.54 20.9628C211.255 21.5197 211.113 22.1248 211.113 22.7782V24.2697C211.113 25.1447 211.267 25.889 211.574 26.5026C211.886 27.1163 212.321 27.585 212.878 27.9089C213.434 28.2271 214.085 28.3861 214.829 28.3861C215.312 28.3861 215.753 28.318 216.15 28.1816C216.548 28.0396 216.892 27.8293 217.182 27.5509C217.471 27.2725 217.693 26.9288 217.846 26.5197L220.258 26.9543C220.065 27.6646 219.719 28.2867 219.219 28.8208C218.724 29.3492 218.102 29.7611 217.352 30.0566C216.608 30.3464 215.758 30.4913 214.804 30.4913ZM223.248 30.2271V17.1361H225.711V19.2157H225.847C226.086 18.5111 226.506 17.9572 227.108 17.5538C227.716 17.1447 228.404 16.9401 229.171 16.9401C229.33 16.9401 229.518 16.9458 229.733 16.9572C229.955 16.9685 230.128 16.9827 230.253 16.9998V19.4373C230.151 19.4089 229.969 19.3776 229.708 19.3435C229.447 19.3038 229.185 19.2839 228.924 19.2839C228.322 19.2839 227.785 19.4117 227.313 19.6674C226.847 19.9174 226.478 20.2668 226.205 20.7157C225.932 21.1589 225.796 21.6646 225.796 22.2327V30.2271H223.248ZM238.81 17.1361H241.358V31.0793C241.358 31.9543 241.199 32.693 240.881 33.2952C240.569 33.8975 240.103 34.3549 239.483 34.6674C238.87 34.9799 238.111 35.1361 237.208 35.1361C237.117 35.1361 237.032 35.1361 236.952 35.1361C236.867 35.1361 236.779 35.1333 236.688 35.1276V32.9373C236.768 32.9373 236.839 32.9373 236.901 32.9373C236.958 32.9373 237.023 32.9373 237.097 32.9373C237.699 32.9373 238.134 32.7753 238.401 32.4515C238.674 32.1333 238.81 31.6702 238.81 31.0623V17.1361ZM240.072 15.1163C239.628 15.1163 239.248 14.9685 238.929 14.6731C238.617 14.3719 238.461 14.014 238.461 13.5992C238.461 13.1788 238.617 12.8208 238.929 12.5253C239.248 12.2242 239.628 12.0736 240.072 12.0736C240.515 12.0736 240.893 12.2242 241.205 12.5253C241.523 12.8208 241.682 13.1788 241.682 13.5992C241.682 14.014 241.523 14.3719 241.205 14.6731C240.893 14.9685 240.515 15.1163 240.072 15.1163ZM250.429 30.4913C249.139 30.4913 248.028 30.2157 247.096 29.6646C246.17 29.1077 245.454 28.3265 244.949 27.3208C244.449 26.3094 244.199 25.1248 244.199 23.7668C244.199 22.4259 244.449 21.2441 244.949 20.2214C245.454 19.1986 246.159 18.4003 247.062 17.8265C247.971 17.2526 249.034 16.9657 250.25 16.9657C250.988 16.9657 251.704 17.0878 252.398 17.3322C253.091 17.5765 253.713 17.96 254.264 18.4827C254.815 19.0055 255.25 19.6844 255.568 20.5197C255.886 21.3492 256.045 22.3577 256.045 23.5452V24.4486H245.639V22.5396H253.548C253.548 21.8691 253.412 21.2753 253.139 20.7583C252.866 20.2356 252.483 19.8236 251.988 19.5225C251.5 19.2214 250.926 19.0708 250.267 19.0708C249.551 19.0708 248.926 19.2469 248.392 19.5992C247.863 19.9458 247.454 20.4003 247.165 20.9628C246.88 21.5197 246.738 22.1248 246.738 22.7782V24.2697C246.738 25.1447 246.892 25.889 247.199 26.5026C247.511 27.1163 247.946 27.585 248.503 27.9089C249.059 28.2271 249.71 28.3861 250.454 28.3861C250.937 28.3861 251.378 28.318 251.775 28.1816C252.173 28.0396 252.517 27.8293 252.807 27.5509C253.096 27.2725 253.318 26.9288 253.471 26.5197L255.883 26.9543C255.69 27.6646 255.344 28.2867 254.844 28.8208C254.349 29.3492 253.727 29.7611 252.977 30.0566C252.233 30.3464 251.383 30.4913 250.429 30.4913ZM264.361 35.4089C263.322 35.4089 262.427 35.2725 261.677 34.9998C260.932 34.7271 260.324 34.3663 259.853 33.9174C259.381 33.4685 259.029 32.9771 258.796 32.443L260.986 31.5396C261.14 31.7896 261.344 32.0538 261.6 32.3322C261.861 32.6163 262.214 32.8577 262.657 33.0566C263.106 33.2555 263.682 33.3549 264.387 33.3549C265.353 33.3549 266.151 33.1191 266.782 32.6475C267.412 32.1816 267.728 31.4373 267.728 30.4146V27.8407H267.566C267.412 28.1191 267.191 28.4288 266.901 28.7697C266.617 29.1106 266.225 29.406 265.725 29.656C265.225 29.906 264.574 30.031 263.773 30.031C262.739 30.031 261.807 29.7896 260.978 29.3066C260.154 28.818 259.501 28.0992 259.018 27.1503C258.54 26.1958 258.302 25.0225 258.302 23.6305C258.302 22.2384 258.537 21.0452 259.009 20.0509C259.486 19.0566 260.14 18.2952 260.969 17.7668C261.799 17.2327 262.739 16.9657 263.79 16.9657C264.603 16.9657 265.259 17.1021 265.759 17.3748C266.259 17.6418 266.648 17.9543 266.927 18.3123C267.211 18.6702 267.429 18.9856 267.583 19.2583H267.77V17.1361H270.268V30.5168C270.268 31.6418 270.006 32.5651 269.483 33.2867C268.961 34.0083 268.253 34.5424 267.361 34.889C266.475 35.2356 265.475 35.4089 264.361 35.4089ZM264.336 27.9174C265.069 27.9174 265.688 27.7469 266.194 27.406C266.705 27.0594 267.091 26.5651 267.353 25.9231C267.62 25.2753 267.753 24.4998 267.753 23.5964C267.753 22.7157 267.623 21.9401 267.361 21.2697C267.1 20.5992 266.716 20.0765 266.211 19.7015C265.705 19.3208 265.08 19.1305 264.336 19.1305C263.569 19.1305 262.929 19.3293 262.418 19.7271C261.907 20.1191 261.52 20.6532 261.259 21.3293C261.003 22.0055 260.876 22.7611 260.876 23.5964C260.876 24.4543 261.006 25.2072 261.268 25.8549C261.529 26.5026 261.915 27.0083 262.427 27.3719C262.944 27.7356 263.58 27.9174 264.336 27.9174ZM283.846 30.5168C283.017 30.5168 282.267 30.3634 281.596 30.0566C280.926 29.7441 280.395 29.2924 280.003 28.7015C279.616 28.1106 279.423 27.3861 279.423 26.5282C279.423 25.7896 279.565 25.1816 279.849 24.7043C280.133 24.2271 280.517 23.8492 281 23.5708C281.483 23.2924 282.023 23.0822 282.619 22.9401C283.216 22.7981 283.824 22.6901 284.443 22.6163C285.227 22.5253 285.863 22.4515 286.352 22.3947C286.841 22.3322 287.196 22.2327 287.417 22.0964C287.639 21.96 287.75 21.7384 287.75 21.4316V21.3719C287.75 20.6276 287.54 20.0509 287.119 19.6418C286.704 19.2327 286.085 19.0282 285.261 19.0282C284.403 19.0282 283.727 19.2185 283.233 19.5992C282.744 19.9742 282.406 20.3918 282.219 20.8521L279.824 20.3066C280.108 19.5111 280.523 18.8691 281.068 18.3805C281.619 17.8861 282.253 17.5282 282.969 17.3066C283.684 17.0793 284.437 16.9657 285.227 16.9657C285.75 16.9657 286.304 17.0282 286.889 17.1532C287.48 17.2725 288.031 17.4941 288.542 17.818C289.059 18.1418 289.483 18.6049 289.812 19.2072C290.142 19.8038 290.307 20.5793 290.307 21.5339V30.2271H287.818V28.4373H287.716C287.551 28.7668 287.304 29.0907 286.974 29.4089C286.645 29.7271 286.221 29.9913 285.704 30.2015C285.187 30.4117 284.568 30.5168 283.846 30.5168ZM284.4 28.4714C285.105 28.4714 285.707 28.3322 286.207 28.0538C286.713 27.7753 287.096 27.4117 287.358 26.9628C287.625 26.5083 287.758 26.0225 287.758 25.5055V23.818C287.667 23.9089 287.491 23.9941 287.23 24.0736C286.974 24.1475 286.682 24.2128 286.352 24.2697C286.023 24.3208 285.702 24.3691 285.389 24.4146C285.077 24.4543 284.815 24.4884 284.605 24.5168C284.111 24.5793 283.659 24.6844 283.25 24.8322C282.846 24.9799 282.523 25.193 282.278 25.4714C282.04 25.7441 281.92 26.1077 281.92 26.5623C281.92 27.193 282.153 27.6702 282.619 27.9941C283.085 28.3123 283.679 28.4714 284.4 28.4714ZM298.601 30.4827C297.545 30.4827 296.601 30.2128 295.772 29.6731C294.948 29.1276 294.3 28.3521 293.829 27.3464C293.363 26.335 293.13 25.1219 293.13 23.7072C293.13 22.2924 293.366 21.0822 293.837 20.0765C294.314 19.0708 294.968 18.3009 295.797 17.7668C296.627 17.2327 297.567 16.9657 298.618 16.9657C299.431 16.9657 300.084 17.1021 300.579 17.3748C301.079 17.6418 301.465 17.9543 301.738 18.3123C302.016 18.6702 302.232 18.9856 302.385 19.2583H302.539V12.7725H305.087V30.2271H302.599V28.1901H302.385C302.232 28.4685 302.01 28.7867 301.721 29.1447C301.437 29.5026 301.045 29.8151 300.545 30.0822C300.045 30.3492 299.397 30.4827 298.601 30.4827ZM299.164 28.3094C299.897 28.3094 300.516 28.1163 301.022 27.7299C301.533 27.3378 301.92 26.7952 302.181 26.1021C302.448 25.4089 302.581 24.6021 302.581 23.6816C302.581 22.7725 302.451 21.9771 302.189 21.2952C301.928 20.6134 301.545 20.0822 301.039 19.7015C300.533 19.3208 299.908 19.1305 299.164 19.1305C298.397 19.1305 297.758 19.3293 297.246 19.7271C296.735 20.1248 296.349 20.6674 296.087 21.3549C295.831 22.0424 295.704 22.818 295.704 23.6816C295.704 24.5566 295.834 25.3435 296.096 26.0424C296.357 26.7413 296.743 27.2952 297.255 27.7043C297.772 28.1077 298.408 28.3094 299.164 28.3094ZM314.213 35.4089C313.173 35.4089 312.278 35.2725 311.528 34.9998C310.784 34.7271 310.176 34.3663 309.704 33.9174C309.233 33.4685 308.88 32.9771 308.648 32.443L310.838 31.5396C310.991 31.7896 311.196 32.0538 311.452 32.3322C311.713 32.6163 312.065 32.8577 312.508 33.0566C312.957 33.2555 313.534 33.3549 314.238 33.3549C315.204 33.3549 316.003 33.1191 316.633 32.6475C317.264 32.1816 317.579 31.4373 317.579 30.4146V27.8407H317.417C317.264 28.1191 317.042 28.4288 316.753 28.7697C316.469 29.1106 316.077 29.406 315.577 29.656C315.077 29.906 314.426 30.031 313.625 30.031C312.591 30.031 311.659 29.7896 310.829 29.3066C310.005 28.818 309.352 28.0992 308.869 27.1503C308.392 26.1958 308.153 25.0225 308.153 23.6305C308.153 22.2384 308.389 21.0452 308.861 20.0509C309.338 19.0566 309.991 18.2952 310.821 17.7668C311.65 17.2327 312.591 16.9657 313.642 16.9657C314.454 16.9657 315.111 17.1021 315.611 17.3748C316.111 17.6418 316.5 17.9543 316.778 18.3123C317.062 18.6702 317.281 18.9856 317.434 19.2583H317.622V17.1361H320.119V30.5168C320.119 31.6418 319.858 32.5651 319.335 33.2867C318.812 34.0083 318.105 34.5424 317.213 34.889C316.327 35.2356 315.327 35.4089 314.213 35.4089ZM314.187 27.9174C314.92 27.9174 315.54 27.7469 316.045 27.406C316.557 27.0594 316.943 26.5651 317.204 25.9231C317.471 25.2753 317.605 24.4998 317.605 23.5964C317.605 22.7157 317.474 21.9401 317.213 21.2697C316.952 20.5992 316.568 20.0765 316.062 19.7015C315.557 19.3208 314.932 19.1305 314.187 19.1305C313.42 19.1305 312.781 19.3293 312.27 19.7271C311.758 20.1191 311.372 20.6532 311.111 21.3293C310.855 22.0055 310.727 22.7611 310.727 23.5964C310.727 24.4543 310.858 25.2072 311.119 25.8549C311.38 26.5026 311.767 27.0083 312.278 27.3719C312.795 27.7356 313.432 27.9174 314.187 27.9174ZM327.346 30.5168C326.517 30.5168 325.767 30.3634 325.096 30.0566C324.426 29.7441 323.895 29.2924 323.503 28.7015C323.116 28.1106 322.923 27.3861 322.923 26.5282C322.923 25.7896 323.065 25.1816 323.349 24.7043C323.633 24.2271 324.017 23.8492 324.5 23.5708C324.983 23.2924 325.523 23.0822 326.119 22.9401C326.716 22.7981 327.324 22.6901 327.943 22.6163C328.727 22.5253 329.363 22.4515 329.852 22.3947C330.341 22.3322 330.696 22.2327 330.917 22.0964C331.139 21.96 331.25 21.7384 331.25 21.4316V21.3719C331.25 20.6276 331.04 20.0509 330.619 19.6418C330.204 19.2327 329.585 19.0282 328.761 19.0282C327.903 19.0282 327.227 19.2185 326.733 19.5992C326.244 19.9742 325.906 20.3918 325.719 20.8521L323.324 20.3066C323.608 19.5111 324.023 18.8691 324.568 18.3805C325.119 17.8861 325.753 17.5282 326.469 17.3066C327.184 17.0793 327.937 16.9657 328.727 16.9657C329.25 16.9657 329.804 17.0282 330.389 17.1532C330.98 17.2725 331.531 17.4941 332.042 17.818C332.559 18.1418 332.983 18.6049 333.312 19.2072C333.642 19.8038 333.807 20.5793 333.807 21.5339V30.2271H331.318V28.4373H331.216C331.051 28.7668 330.804 29.0907 330.474 29.4089C330.145 29.7271 329.721 29.9913 329.204 30.2015C328.687 30.4117 328.068 30.5168 327.346 30.5168ZM327.9 28.4714C328.605 28.4714 329.207 28.3322 329.707 28.0538C330.213 27.7753 330.596 27.4117 330.858 26.9628C331.125 26.5083 331.258 26.0225 331.258 25.5055V23.818C331.167 23.9089 330.991 23.9941 330.73 24.0736C330.474 24.1475 330.182 24.2128 329.852 24.2697C329.523 24.3208 329.202 24.3691 328.889 24.4146C328.577 24.4543 328.315 24.4884 328.105 24.5168C327.611 24.5793 327.159 24.6844 326.75 24.8322C326.346 24.9799 326.023 25.193 325.778 25.4714C325.54 25.7441 325.42 26.1077 325.42 26.5623C325.42 27.193 325.653 27.6702 326.119 27.9941C326.585 28.3123 327.179 28.4714 327.9 28.4714ZM339.749 22.4543V30.2271H337.201V17.1361H339.647V19.2668H339.809C340.11 18.5736 340.581 18.0168 341.224 17.5964C341.871 17.1759 342.687 16.9657 343.67 16.9657C344.562 16.9657 345.343 17.1532 346.013 17.5282C346.684 17.8975 347.204 18.4486 347.573 19.1816C347.942 19.9146 348.127 20.8208 348.127 21.9003V30.2271H345.579V22.2072C345.579 21.2583 345.331 20.5168 344.837 19.9827C344.343 19.443 343.664 19.1731 342.8 19.1731C342.209 19.1731 341.684 19.3009 341.224 19.5566C340.769 19.8123 340.408 20.1873 340.141 20.6816C339.88 21.1702 339.749 21.7611 339.749 22.4543ZM357.033 35.4089C355.993 35.4089 355.099 35.2725 354.349 34.9998C353.604 34.7271 352.996 34.3663 352.525 33.9174C352.053 33.4685 351.701 32.9771 351.468 32.443L353.658 31.5396C353.812 31.7896 354.016 32.0538 354.272 32.3322C354.533 32.6163 354.885 32.8577 355.329 33.0566C355.778 33.2555 356.354 33.3549 357.059 33.3549C358.025 33.3549 358.823 33.1191 359.454 32.6475C360.084 32.1816 360.4 31.4373 360.4 30.4146V27.8407H360.238C360.084 28.1191 359.863 28.4288 359.573 28.7697C359.289 29.1106 358.897 29.406 358.397 29.656C357.897 29.906 357.246 30.031 356.445 30.031C355.411 30.031 354.479 29.7896 353.65 29.3066C352.826 28.818 352.172 28.0992 351.689 27.1503C351.212 26.1958 350.974 25.0225 350.974 23.6305C350.974 22.2384 351.209 21.0452 351.681 20.0509C352.158 19.0566 352.812 18.2952 353.641 17.7668C354.471 17.2327 355.411 16.9657 356.462 16.9657C357.275 16.9657 357.931 17.1021 358.431 17.3748C358.931 17.6418 359.32 17.9543 359.599 18.3123C359.883 18.6702 360.101 18.9856 360.255 19.2583H360.442V17.1361H362.939V30.5168C362.939 31.6418 362.678 32.5651 362.155 33.2867C361.633 34.0083 360.925 34.5424 360.033 34.889C359.147 35.2356 358.147 35.4089 357.033 35.4089ZM357.008 27.9174C357.741 27.9174 358.36 27.7469 358.866 27.406C359.377 27.0594 359.763 26.5651 360.025 25.9231C360.292 25.2753 360.425 24.4998 360.425 23.5964C360.425 22.7157 360.295 21.9401 360.033 21.2697C359.772 20.5992 359.388 20.0765 358.883 19.7015C358.377 19.3208 357.752 19.1305 357.008 19.1305C356.241 19.1305 355.601 19.3293 355.09 19.7271C354.579 20.1191 354.192 20.6532 353.931 21.3293C353.675 22.0055 353.547 22.7611 353.547 23.5964C353.547 24.4543 353.678 25.2072 353.939 25.8549C354.201 26.5026 354.587 27.0083 355.099 27.3719C355.616 27.7356 356.252 27.9174 357.008 27.9174ZM378.819 17.1361V19.1816H371.669V17.1361H378.819ZM373.586 13.9998H376.135V26.3833C376.135 26.8776 376.209 27.2498 376.356 27.4998C376.504 27.7441 376.694 27.9117 376.927 28.0026C377.166 28.0878 377.425 28.1305 377.703 28.1305C377.907 28.1305 378.086 28.1163 378.24 28.0878C378.393 28.0594 378.513 28.0367 378.598 28.0197L379.058 30.1248C378.91 30.1816 378.7 30.2384 378.427 30.2952C378.155 30.3577 377.814 30.3918 377.405 30.3975C376.734 30.4089 376.109 30.2896 375.53 30.0396C374.95 29.7896 374.481 29.4032 374.123 28.8805C373.765 28.3577 373.586 27.7015 373.586 26.9117V13.9998ZM381.638 30.2271V17.1361H384.187V30.2271H381.638ZM382.925 15.1163C382.482 15.1163 382.101 14.9685 381.783 14.6731C381.471 14.3719 381.314 14.014 381.314 13.5992C381.314 13.1788 381.471 12.8208 381.783 12.5253C382.101 12.2242 382.482 12.0736 382.925 12.0736C383.368 12.0736 383.746 12.2242 384.059 12.5253C384.377 12.8208 384.536 13.1788 384.536 13.5992C384.536 14.014 384.377 14.3719 384.059 14.6731C383.746 14.9685 383.368 15.1163 382.925 15.1163ZM390.163 12.7725V30.2271H387.615V12.7725H390.163ZM405.585 30.4913C404.295 30.4913 403.184 30.2157 402.253 29.6646C401.327 29.1077 400.611 28.3265 400.105 27.3208C399.605 26.3094 399.355 25.1248 399.355 23.7668C399.355 22.4259 399.605 21.2441 400.105 20.2214C400.611 19.1986 401.315 18.4003 402.219 17.8265C403.128 17.2526 404.19 16.9657 405.406 16.9657C406.145 16.9657 406.861 17.0878 407.554 17.3322C408.247 17.5765 408.869 17.96 409.42 18.4827C409.971 19.0055 410.406 19.6844 410.724 20.5197C411.042 21.3492 411.202 22.3577 411.202 23.5452V24.4486H400.795V22.5396H408.704C408.704 21.8691 408.568 21.2753 408.295 20.7583C408.023 20.2356 407.639 19.8236 407.145 19.5225C406.656 19.2214 406.082 19.0708 405.423 19.0708C404.707 19.0708 404.082 19.2469 403.548 19.5992C403.02 19.9458 402.611 20.4003 402.321 20.9628C402.037 21.5197 401.895 22.1248 401.895 22.7782V24.2697C401.895 25.1447 402.048 25.889 402.355 26.5026C402.667 27.1163 403.102 27.585 403.659 27.9089C404.216 28.2271 404.866 28.3861 405.611 28.3861C406.094 28.3861 406.534 28.318 406.932 28.1816C407.329 28.0396 407.673 27.8293 407.963 27.5509C408.253 27.2725 408.474 26.9288 408.628 26.5197L411.04 26.9543C410.846 27.6646 410.5 28.2867 410 28.8208C409.505 29.3492 408.883 29.7611 408.133 30.0566C407.389 30.3464 406.54 30.4913 405.585 30.4913ZM420.14 17.1361V19.1816H412.989V17.1361H420.14ZM414.907 13.9998H417.455V26.3833C417.455 26.8776 417.529 27.2498 417.677 27.4998C417.824 27.7441 418.015 27.9117 418.248 28.0026C418.486 28.0878 418.745 28.1305 419.023 28.1305C419.228 28.1305 419.407 28.1163 419.56 28.0878C419.714 28.0594 419.833 28.0367 419.918 28.0197L420.378 30.1248C420.231 30.1816 420.02 30.2384 419.748 30.2952C419.475 30.3577 419.134 30.3918 418.725 30.3975C418.054 30.4089 417.429 30.2896 416.85 30.0396C416.27 29.7896 415.802 29.4032 415.444 28.8805C415.086 28.3577 414.907 27.7015 414.907 26.9117V13.9998ZM431.858 12.7725V30.2271H429.31V12.7725H431.858ZM440.801 30.4913C439.574 30.4913 438.503 30.21 437.588 29.6475C436.673 29.085 435.963 28.2981 435.457 27.2867C434.952 26.2753 434.699 25.0935 434.699 23.7413C434.699 22.3833 434.952 21.1958 435.457 20.1788C435.963 19.1617 436.673 18.3719 437.588 17.8094C438.503 17.2469 439.574 16.9657 440.801 16.9657C442.028 16.9657 443.099 17.2469 444.014 17.8094C444.929 18.3719 445.639 19.1617 446.145 20.1788C446.65 21.1958 446.903 22.3833 446.903 23.7413C446.903 25.0935 446.65 26.2753 446.145 27.2867C445.639 28.2981 444.929 29.085 444.014 29.6475C443.099 30.21 442.028 30.4913 440.801 30.4913ZM440.809 28.3521C441.605 28.3521 442.264 28.1418 442.787 27.7214C443.309 27.3009 443.696 26.7413 443.946 26.0424C444.202 25.3435 444.329 24.5736 444.329 23.7327C444.329 22.8975 444.202 22.1305 443.946 21.4316C443.696 20.7271 443.309 20.1617 442.787 19.7356C442.264 19.3094 441.605 19.0964 440.809 19.0964C440.008 19.0964 439.344 19.3094 438.815 19.7356C438.292 20.1617 437.903 20.7271 437.648 21.4316C437.398 22.1305 437.273 22.8975 437.273 23.7327C437.273 24.5736 437.398 25.3435 437.648 26.0424C437.903 26.7413 438.292 27.3009 438.815 27.7214C439.344 28.1418 440.008 28.3521 440.809 28.3521ZM452.091 25.7867L452.074 22.6759H452.518L457.733 17.1361H460.785L454.836 23.443H454.435L452.091 25.7867ZM449.748 30.2271V12.7725H452.296V30.2271H449.748ZM458.015 30.2271L453.327 24.0055L455.083 22.2242L461.143 30.2271H458.015ZM466.917 30.5168C466.087 30.5168 465.337 30.3634 464.667 30.0566C463.996 29.7441 463.465 29.2924 463.073 28.7015C462.687 28.1106 462.493 27.3861 462.493 26.5282C462.493 25.7896 462.635 25.1816 462.92 24.7043C463.204 24.2271 463.587 23.8492 464.07 23.5708C464.553 23.2924 465.093 23.0822 465.689 22.9401C466.286 22.7981 466.894 22.6901 467.513 22.6163C468.297 22.5253 468.934 22.4515 469.422 22.3947C469.911 22.3322 470.266 22.2327 470.488 22.0964C470.709 21.96 470.82 21.7384 470.82 21.4316V21.3719C470.82 20.6276 470.61 20.0509 470.189 19.6418C469.775 19.2327 469.155 19.0282 468.331 19.0282C467.474 19.0282 466.797 19.2185 466.303 19.5992C465.814 19.9742 465.476 20.3918 465.289 20.8521L462.894 20.3066C463.178 19.5111 463.593 18.8691 464.138 18.3805C464.689 17.8861 465.323 17.5282 466.039 17.3066C466.755 17.0793 467.508 16.9657 468.297 16.9657C468.82 16.9657 469.374 17.0282 469.959 17.1532C470.55 17.2725 471.101 17.4941 471.613 17.818C472.13 18.1418 472.553 18.6049 472.883 19.2072C473.212 19.8038 473.377 20.5793 473.377 21.5339V30.2271H470.888V28.4373H470.786C470.621 28.7668 470.374 29.0907 470.045 29.4089C469.715 29.7271 469.292 29.9913 468.775 30.2015C468.258 30.4117 467.638 30.5168 466.917 30.5168ZM467.471 28.4714C468.175 28.4714 468.778 28.3322 469.278 28.0538C469.783 27.7753 470.167 27.4117 470.428 26.9628C470.695 26.5083 470.829 26.0225 470.829 25.5055V23.818C470.738 23.9089 470.562 23.9941 470.3 24.0736C470.045 24.1475 469.752 24.2128 469.422 24.2697C469.093 24.3208 468.772 24.3691 468.459 24.4146C468.147 24.4543 467.885 24.4884 467.675 24.5168C467.181 24.5793 466.729 24.6844 466.32 24.8322C465.917 24.9799 465.593 25.193 465.349 25.4714C465.11 25.7441 464.991 26.1077 464.991 26.5623C464.991 27.193 465.224 27.6702 465.689 27.9941C466.155 28.3123 466.749 28.4714 467.471 28.4714ZM479.319 12.7725V30.2271H476.771V12.7725H479.319ZM488.39 30.4913C487.1 30.4913 485.989 30.2157 485.057 29.6646C484.131 29.1077 483.415 28.3265 482.91 27.3208C482.41 26.3094 482.16 25.1248 482.16 23.7668C482.16 22.4259 482.41 21.2441 482.91 20.2214C483.415 19.1986 484.12 18.4003 485.023 17.8265C485.932 17.2526 486.995 16.9657 488.211 16.9657C488.949 16.9657 489.665 17.0878 490.358 17.3322C491.052 17.5765 491.674 17.96 492.225 18.4827C492.776 19.0055 493.211 19.6844 493.529 20.5197C493.847 21.3492 494.006 22.3577 494.006 23.5452V24.4486H483.6V22.5396H491.509C491.509 21.8691 491.373 21.2753 491.1 20.7583C490.827 20.2356 490.444 19.8236 489.949 19.5225C489.461 19.2214 488.887 19.0708 488.228 19.0708C487.512 19.0708 486.887 19.2469 486.353 19.5992C485.824 19.9458 485.415 20.4003 485.126 20.9628C484.841 21.5197 484.699 22.1248 484.699 22.7782V24.2697C484.699 25.1447 484.853 25.889 485.16 26.5026C485.472 27.1163 485.907 27.585 486.464 27.9089C487.02 28.2271 487.671 28.3861 488.415 28.3861C488.898 28.3861 489.339 28.318 489.736 28.1816C490.134 28.0396 490.478 27.8293 490.768 27.5509C491.057 27.2725 491.279 26.9288 491.432 26.5197L493.844 26.9543C493.651 27.6646 493.304 28.2867 492.804 28.8208C492.31 29.3492 491.688 29.7611 490.938 30.0566C490.194 30.3464 489.344 30.4913 488.39 30.4913ZM133.87 49.3322L131.56 49.7413C131.464 49.4458 131.31 49.1646 131.1 48.8975C130.895 48.6305 130.617 48.4117 130.265 48.2413C129.912 48.0708 129.472 47.9856 128.944 47.9856C128.222 47.9856 127.62 48.1475 127.137 48.4714C126.654 48.7896 126.412 49.2015 126.412 49.7072C126.412 50.1447 126.574 50.4969 126.898 50.764C127.222 51.031 127.745 51.2498 128.466 51.4202L130.546 51.8975C131.751 52.1759 132.648 52.6049 133.239 53.1844C133.83 53.764 134.126 54.5168 134.126 55.443C134.126 56.2271 133.898 56.9259 133.444 57.5396C132.995 58.1475 132.367 58.6248 131.56 58.9714C130.759 59.318 129.83 59.4913 128.773 59.4913C127.307 59.4913 126.111 59.1788 125.185 58.5538C124.259 57.9231 123.691 57.0282 123.481 55.8691L125.944 55.4941C126.097 56.1361 126.412 56.6219 126.89 56.9515C127.367 57.2753 127.989 57.4373 128.756 57.4373C129.591 57.4373 130.259 57.264 130.759 56.9174C131.259 56.5651 131.509 56.1361 131.509 55.6305C131.509 55.2214 131.356 54.8776 131.049 54.5992C130.748 54.3208 130.285 54.1106 129.66 53.9685L127.444 53.4827C126.222 53.2043 125.319 52.7611 124.733 52.1532C124.154 51.5452 123.864 50.7753 123.864 49.8435C123.864 49.0708 124.08 48.3947 124.512 47.8151C124.944 47.2356 125.54 46.7839 126.302 46.46C127.063 46.1305 127.935 45.9657 128.918 45.9657C130.333 45.9657 131.447 46.2725 132.259 46.8861C133.072 47.4941 133.608 48.3094 133.87 49.3322ZM142.442 59.4913C141.214 59.4913 140.143 59.21 139.228 58.6475C138.314 58.085 137.603 57.2981 137.098 56.2867C136.592 55.2753 136.339 54.0935 136.339 52.7413C136.339 51.3833 136.592 50.1958 137.098 49.1788C137.603 48.1617 138.314 47.3719 139.228 46.8094C140.143 46.2469 141.214 45.9657 142.442 45.9657C143.669 45.9657 144.74 46.2469 145.655 46.8094C146.569 47.3719 147.28 48.1617 147.785 49.1788C148.291 50.1958 148.544 51.3833 148.544 52.7413C148.544 54.0935 148.291 55.2753 147.785 56.2867C147.28 57.2981 146.569 58.085 145.655 58.6475C144.74 59.21 143.669 59.4913 142.442 59.4913ZM142.45 57.3521C143.246 57.3521 143.905 57.1418 144.427 56.7214C144.95 56.3009 145.336 55.7413 145.586 55.0424C145.842 54.3435 145.97 53.5736 145.97 52.7327C145.97 51.8975 145.842 51.1305 145.586 50.4316C145.336 49.7271 144.95 49.1617 144.427 48.7356C143.905 48.3094 143.246 48.0964 142.45 48.0964C141.649 48.0964 140.984 48.3094 140.456 48.7356C139.933 49.1617 139.544 49.7271 139.288 50.4316C139.038 51.1305 138.913 51.8975 138.913 52.7327C138.913 53.5736 139.038 54.3435 139.288 55.0424C139.544 55.7413 139.933 56.3009 140.456 56.7214C140.984 57.1418 141.649 57.3521 142.45 57.3521ZM151.388 59.2271V46.1361H153.834V48.2668H153.996C154.269 47.5452 154.715 46.9827 155.334 46.5793C155.954 46.1702 156.695 45.9657 157.559 45.9657C158.434 45.9657 159.167 46.1702 159.758 46.5793C160.354 46.9884 160.795 47.5509 161.079 48.2668H161.215C161.528 47.568 162.025 47.0111 162.706 46.5964C163.388 46.1759 164.201 45.9657 165.144 45.9657C166.331 45.9657 167.3 46.3378 168.05 47.0822C168.806 47.8265 169.184 48.9486 169.184 50.4486V59.2271H166.635V50.6873C166.635 49.8009 166.394 49.1589 165.911 48.7611C165.428 48.3634 164.851 48.1646 164.181 48.1646C163.351 48.1646 162.706 48.4202 162.246 48.9316C161.786 49.4373 161.556 50.0878 161.556 50.8833V59.2271H159.016V50.5253C159.016 49.8151 158.795 49.2441 158.351 48.8123C157.908 48.3805 157.331 48.1646 156.621 48.1646C156.138 48.1646 155.692 48.2924 155.283 48.5481C154.88 48.7981 154.553 49.1475 154.303 49.5964C154.059 50.0452 153.937 50.5651 153.937 51.156V59.2271H151.388ZM178.951 46.1361H181.499V60.0793C181.499 60.9543 181.34 61.693 181.022 62.2952C180.709 62.8975 180.243 63.3549 179.624 63.6674C179.01 63.9799 178.252 64.1361 177.349 64.1361C177.258 64.1361 177.172 64.1361 177.093 64.1361C177.008 64.1361 176.92 64.1333 176.829 64.1276V61.9373C176.908 61.9373 176.979 61.9373 177.042 61.9373C177.099 61.9373 177.164 61.9373 177.238 61.9373C177.84 61.9373 178.275 61.7753 178.542 61.4515C178.814 61.1333 178.951 60.6702 178.951 60.0623V46.1361ZM180.212 44.1163C179.769 44.1163 179.388 43.9685 179.07 43.6731C178.758 43.3719 178.601 43.014 178.601 42.5992C178.601 42.1788 178.758 41.8208 179.07 41.5253C179.388 41.2242 179.769 41.0736 180.212 41.0736C180.655 41.0736 181.033 41.2242 181.346 41.5253C181.664 41.8208 181.823 42.1788 181.823 42.5992C181.823 43.014 181.664 43.3719 181.346 43.6731C181.033 43.9685 180.655 44.1163 180.212 44.1163ZM190.569 59.4913C189.28 59.4913 188.169 59.2157 187.237 58.6646C186.311 58.1077 185.595 57.3265 185.089 56.3208C184.589 55.3094 184.339 54.1248 184.339 52.7668C184.339 51.4259 184.589 50.2441 185.089 49.2214C185.595 48.1986 186.3 47.4003 187.203 46.8265C188.112 46.2526 189.175 45.9657 190.39 45.9657C191.129 45.9657 191.845 46.0878 192.538 46.3322C193.231 46.5765 193.853 46.96 194.405 47.4827C194.956 48.0055 195.39 48.6844 195.709 49.5197C196.027 50.3492 196.186 51.3577 196.186 52.5452V53.4486H185.78V51.5396H193.689C193.689 50.8691 193.552 50.2753 193.28 49.7583C193.007 49.2356 192.623 48.8236 192.129 48.5225C191.64 48.2214 191.067 48.0708 190.407 48.0708C189.692 48.0708 189.067 48.2469 188.532 48.5992C188.004 48.9458 187.595 49.4003 187.305 49.9628C187.021 50.5197 186.879 51.1248 186.879 51.7782V53.2697C186.879 54.1447 187.032 54.889 187.339 55.5026C187.652 56.1163 188.086 56.585 188.643 56.9089C189.2 57.2271 189.851 57.3861 190.595 57.3861C191.078 57.3861 191.518 57.318 191.916 57.1816C192.314 57.0396 192.657 56.8293 192.947 56.5509C193.237 56.2725 193.459 55.9288 193.612 55.5197L196.024 55.9543C195.831 56.6646 195.484 57.2867 194.984 57.8208C194.49 58.3492 193.868 58.7611 193.118 59.0566C192.373 59.3464 191.524 59.4913 190.569 59.4913ZM204.502 64.4089C203.462 64.4089 202.567 64.2725 201.817 63.9998C201.073 63.7271 200.465 63.3663 199.993 62.9174C199.522 62.4685 199.17 61.9771 198.937 61.443L201.127 60.5396C201.28 60.7896 201.485 61.0538 201.741 61.3322C202.002 61.6163 202.354 61.8577 202.797 62.0566C203.246 62.2555 203.823 62.3549 204.528 62.3549C205.493 62.3549 206.292 62.1191 206.922 61.6475C207.553 61.1816 207.868 60.4373 207.868 59.4146V56.8407H207.706C207.553 57.1191 207.331 57.4288 207.042 57.7697C206.758 58.1106 206.366 58.406 205.866 58.656C205.366 58.906 204.715 59.031 203.914 59.031C202.88 59.031 201.948 58.7896 201.118 58.3066C200.295 57.818 199.641 57.0992 199.158 56.1503C198.681 55.1958 198.442 54.0225 198.442 52.6305C198.442 51.2384 198.678 50.0452 199.15 49.0509C199.627 48.0566 200.28 47.2952 201.11 46.7668C201.939 46.2327 202.88 45.9657 203.931 45.9657C204.743 45.9657 205.4 46.1021 205.9 46.3748C206.4 46.6418 206.789 46.9543 207.067 47.3123C207.351 47.6702 207.57 47.9856 207.724 48.2583H207.911V46.1361H210.408V59.5168C210.408 60.6418 210.147 61.5651 209.624 62.2867C209.101 63.0083 208.394 63.5424 207.502 63.889C206.616 64.2356 205.616 64.4089 204.502 64.4089ZM204.476 56.9174C205.209 56.9174 205.829 56.7469 206.334 56.406C206.846 56.0594 207.232 55.5651 207.493 54.9231C207.76 54.2753 207.894 53.4998 207.894 52.5964C207.894 51.7157 207.763 50.9401 207.502 50.2697C207.241 49.5992 206.857 49.0765 206.351 48.7015C205.846 48.3208 205.221 48.1305 204.476 48.1305C203.709 48.1305 203.07 48.3293 202.559 48.7271C202.047 49.1191 201.661 49.6532 201.4 50.3293C201.144 51.0055 201.016 51.7611 201.016 52.5964C201.016 53.4543 201.147 54.2072 201.408 54.8549C201.67 55.5026 202.056 56.0083 202.567 56.3719C203.084 56.7356 203.721 56.9174 204.476 56.9174ZM220.177 59.2271V46.1361H222.726V59.2271H220.177ZM221.464 44.1163C221.021 44.1163 220.64 43.9685 220.322 43.6731C220.01 43.3719 219.853 43.014 219.853 42.5992C219.853 42.1788 220.01 41.8208 220.322 41.5253C220.64 41.2242 221.021 41.0736 221.464 41.0736C221.907 41.0736 222.285 41.2242 222.598 41.5253C222.916 41.8208 223.075 42.1788 223.075 42.5992C223.075 43.014 222.916 43.3719 222.598 43.6731C222.285 43.9685 221.907 44.1163 221.464 44.1163ZM228.498 54.7867L228.481 51.6759H228.924L234.14 46.1361H237.191L231.242 52.443H230.841L228.498 54.7867ZM226.154 59.2271V41.7725H228.702V59.2271H226.154ZM234.421 59.2271L229.733 53.0055L231.489 51.2242L237.549 59.2271H234.421ZM241.857 54.7867L241.84 51.6759H242.283L247.499 46.1361H250.55L244.601 52.443H244.201L241.857 54.7867ZM239.513 59.2271V41.7725H242.062V59.2271H239.513ZM247.78 59.2271L243.093 53.0055L244.849 51.2242L250.908 59.2271H247.78ZM257.976 59.4913C256.686 59.4913 255.575 59.2157 254.643 58.6646C253.717 58.1077 253.001 57.3265 252.496 56.3208C251.996 55.3094 251.746 54.1248 251.746 52.7668C251.746 51.4259 251.996 50.2441 252.496 49.2214C253.001 48.1986 253.706 47.4003 254.609 46.8265C255.518 46.2526 256.581 45.9657 257.797 45.9657C258.535 45.9657 259.251 46.0878 259.944 46.3322C260.638 46.5765 261.26 46.96 261.811 47.4827C262.362 48.0055 262.797 48.6844 263.115 49.5197C263.433 50.3492 263.592 51.3577 263.592 52.5452V53.4486H253.186V51.5396H261.095C261.095 50.8691 260.959 50.2753 260.686 49.7583C260.413 49.2356 260.03 48.8236 259.535 48.5225C259.047 48.2214 258.473 48.0708 257.814 48.0708C257.098 48.0708 256.473 48.2469 255.939 48.5992C255.41 48.9458 255.001 49.4003 254.711 49.9628C254.427 50.5197 254.285 51.1248 254.285 51.7782V53.2697C254.285 54.1447 254.439 54.889 254.746 55.5026C255.058 56.1163 255.493 56.585 256.05 56.9089C256.606 57.2271 257.257 57.3861 258.001 57.3861C258.484 57.3861 258.925 57.318 259.322 57.1816C259.72 57.0396 260.064 56.8293 260.353 56.5509C260.643 56.2725 260.865 55.9288 261.018 55.5197L263.43 55.9543C263.237 56.6646 262.89 57.2867 262.39 57.8208C261.896 58.3492 261.274 58.7611 260.524 59.0566C259.78 59.3464 258.93 59.4913 257.976 59.4913ZM275.319 51.4543V59.2271H272.771V41.7725H275.285V48.2668H275.447C275.754 47.5623 276.223 47.0026 276.853 46.5878C277.484 46.1731 278.308 45.9657 279.325 45.9657C280.223 45.9657 281.007 46.1503 281.677 46.5197C282.353 46.889 282.876 47.4401 283.246 48.1731C283.621 48.9003 283.808 49.8094 283.808 50.9003V59.2271H281.26V51.2072C281.26 50.2469 281.013 49.5026 280.518 48.9742C280.024 48.4401 279.336 48.1731 278.456 48.1731C277.853 48.1731 277.314 48.3009 276.836 48.5566C276.365 48.8123 275.993 49.1873 275.72 49.6816C275.453 50.1702 275.319 50.7611 275.319 51.4543ZM291.018 59.5168C290.189 59.5168 289.439 59.3634 288.768 59.0566C288.098 58.7441 287.567 58.2924 287.175 57.7015C286.788 57.1106 286.595 56.3861 286.595 55.5282C286.595 54.7896 286.737 54.1816 287.021 53.7043C287.305 53.2271 287.689 52.8492 288.172 52.5708C288.655 52.2924 289.194 52.0822 289.791 51.9401C290.388 51.7981 290.996 51.6901 291.615 51.6163C292.399 51.5253 293.035 51.4515 293.524 51.3947C294.013 51.3322 294.368 51.2327 294.589 51.0964C294.811 50.96 294.922 50.7384 294.922 50.4316V50.3719C294.922 49.6276 294.711 49.0509 294.291 48.6418C293.876 48.2327 293.257 48.0282 292.433 48.0282C291.575 48.0282 290.899 48.2185 290.405 48.5992C289.916 48.9742 289.578 49.3918 289.39 49.8521L286.996 49.3066C287.28 48.5111 287.694 47.8691 288.24 47.3805C288.791 46.8861 289.425 46.5282 290.14 46.3066C290.856 46.0793 291.609 45.9657 292.399 45.9657C292.922 45.9657 293.476 46.0282 294.061 46.1532C294.652 46.2725 295.203 46.4941 295.714 46.818C296.231 47.1418 296.655 47.6049 296.984 48.2072C297.314 48.8038 297.478 49.5793 297.478 50.5339V59.2271H294.99V57.4373H294.888C294.723 57.7668 294.476 58.0907 294.146 58.4089C293.817 58.7271 293.393 58.9913 292.876 59.2015C292.359 59.4117 291.74 59.5168 291.018 59.5168ZM291.572 57.4714C292.277 57.4714 292.879 57.3322 293.379 57.0538C293.885 56.7753 294.268 56.4117 294.53 55.9628C294.797 55.5083 294.93 55.0225 294.93 54.5055V52.818C294.839 52.9089 294.663 52.9941 294.402 53.0736C294.146 53.1475 293.853 53.2128 293.524 53.2697C293.194 53.3208 292.873 53.3691 292.561 53.4146C292.248 53.4543 291.987 53.4884 291.777 53.5168C291.282 53.5793 290.831 53.6844 290.422 53.8322C290.018 53.9799 289.694 54.193 289.45 54.4714C289.211 54.7441 289.092 55.1077 289.092 55.5623C289.092 56.193 289.325 56.6702 289.791 56.9941C290.257 57.3123 290.851 57.4714 291.572 57.4714ZM300.873 59.2271V46.1361H303.336V48.2157H303.472C303.711 47.5111 304.131 46.9572 304.733 46.5538C305.341 46.1447 306.029 45.9401 306.796 45.9401C306.955 45.9401 307.143 45.9458 307.358 45.9572C307.58 45.9685 307.753 45.9827 307.878 45.9998V48.4373C307.776 48.4089 307.594 48.3776 307.333 48.3435C307.072 48.3038 306.81 48.2839 306.549 48.2839C305.947 48.2839 305.41 48.4117 304.938 48.6674C304.472 48.9174 304.103 49.2668 303.83 49.7157C303.557 50.1589 303.421 50.6646 303.421 51.2327V59.2271H300.873ZM320.245 59.5168C319.415 59.5168 318.665 59.3634 317.995 59.0566C317.324 58.7441 316.793 58.2924 316.401 57.7015C316.015 57.1106 315.822 56.3861 315.822 55.5282C315.822 54.7896 315.964 54.1816 316.248 53.7043C316.532 53.2271 316.915 52.8492 317.398 52.5708C317.881 52.2924 318.421 52.0822 319.018 51.9401C319.614 51.7981 320.222 51.6901 320.841 51.6163C321.626 51.5253 322.262 51.4515 322.751 51.3947C323.239 51.3322 323.594 51.2327 323.816 51.0964C324.037 50.96 324.148 50.7384 324.148 50.4316V50.3719C324.148 49.6276 323.938 49.0509 323.518 48.6418C323.103 48.2327 322.483 48.0282 321.66 48.0282C320.802 48.0282 320.126 48.2185 319.631 48.5992C319.143 48.9742 318.804 49.3918 318.617 49.8521L316.222 49.3066C316.506 48.5111 316.921 47.8691 317.466 47.3805C318.018 46.8861 318.651 46.5282 319.367 46.3066C320.083 46.0793 320.836 45.9657 321.626 45.9657C322.148 45.9657 322.702 46.0282 323.287 46.1532C323.878 46.2725 324.429 46.4941 324.941 46.818C325.458 47.1418 325.881 47.6049 326.211 48.2072C326.54 48.8038 326.705 49.5793 326.705 50.5339V59.2271H324.216V57.4373H324.114C323.949 57.7668 323.702 58.0907 323.373 58.4089C323.043 58.7271 322.62 58.9913 322.103 59.2015C321.586 59.4117 320.966 59.5168 320.245 59.5168ZM320.799 57.4714C321.503 57.4714 322.106 57.3322 322.606 57.0538C323.111 56.7753 323.495 56.4117 323.756 55.9628C324.023 55.5083 324.157 55.0225 324.157 54.5055V52.818C324.066 52.9089 323.89 52.9941 323.628 53.0736C323.373 53.1475 323.08 53.2128 322.751 53.2697C322.421 53.3208 322.1 53.3691 321.787 53.4146C321.475 53.4543 321.214 53.4884 321.003 53.5168C320.509 53.5793 320.057 53.6844 319.648 53.8322C319.245 53.9799 318.921 54.193 318.677 54.4714C318.438 54.7441 318.319 55.1077 318.319 55.5623C318.319 56.193 318.552 56.6702 319.018 56.9941C319.483 57.3123 320.077 57.4714 320.799 57.4714ZM335 59.4827C333.943 59.4827 333 59.2128 332.17 58.6731C331.346 58.1276 330.699 57.3521 330.227 56.3464C329.761 55.335 329.528 54.1219 329.528 52.7072C329.528 51.2924 329.764 50.0822 330.236 49.0765C330.713 48.0708 331.366 47.3009 332.196 46.7668C333.025 46.2327 333.966 45.9657 335.017 45.9657C335.829 45.9657 336.483 46.1021 336.977 46.3748C337.477 46.6418 337.863 46.9543 338.136 47.3123C338.415 47.6702 338.63 47.9856 338.784 48.2583H338.937V41.7725H341.486V59.2271H338.997V57.1901H338.784C338.63 57.4685 338.409 57.7867 338.119 58.1447C337.835 58.5026 337.443 58.8151 336.943 59.0822C336.443 59.3492 335.795 59.4827 335 59.4827ZM335.562 57.3094C336.295 57.3094 336.915 57.1163 337.42 56.7299C337.932 56.3378 338.318 55.7952 338.579 55.1021C338.846 54.4089 338.98 53.6021 338.98 52.6816C338.98 51.7725 338.849 50.9771 338.588 50.2952C338.327 49.6134 337.943 49.0822 337.437 48.7015C336.932 48.3208 336.307 48.1305 335.562 48.1305C334.795 48.1305 334.156 48.3293 333.645 48.7271C333.133 49.1248 332.747 49.6674 332.486 50.3549C332.23 51.0424 332.102 51.818 332.102 52.6816C332.102 53.5566 332.233 54.3435 332.494 55.0424C332.755 55.7413 333.142 56.2952 333.653 56.7043C334.17 57.1077 334.807 57.3094 335.562 57.3094ZM350.611 64.4089C349.572 64.4089 348.677 64.2725 347.927 63.9998C347.182 63.7271 346.574 63.3663 346.103 62.9174C345.631 62.4685 345.279 61.9771 345.046 61.443L347.236 60.5396C347.39 60.7896 347.594 61.0538 347.85 61.3322C348.111 61.6163 348.464 61.8577 348.907 62.0566C349.356 62.2555 349.932 62.3549 350.637 62.3549C351.603 62.3549 352.401 62.1191 353.032 61.6475C353.662 61.1816 353.978 60.4373 353.978 59.4146V56.8407H353.816C353.662 57.1191 353.441 57.4288 353.151 57.7697C352.867 58.1106 352.475 58.406 351.975 58.656C351.475 58.906 350.824 59.031 350.023 59.031C348.989 59.031 348.057 58.7896 347.228 58.3066C346.404 57.818 345.751 57.0992 345.268 56.1503C344.79 55.1958 344.552 54.0225 344.552 52.6305C344.552 51.2384 344.787 50.0452 345.259 49.0509C345.736 48.0566 346.39 47.2952 347.219 46.7668C348.049 46.2327 348.989 45.9657 350.04 45.9657C350.853 45.9657 351.509 46.1021 352.009 46.3748C352.509 46.6418 352.898 46.9543 353.177 47.3123C353.461 47.6702 353.679 47.9856 353.833 48.2583H354.02V46.1361H356.518V59.5168C356.518 60.6418 356.256 61.5651 355.733 62.2867C355.211 63.0083 354.503 63.5424 353.611 63.889C352.725 64.2356 351.725 64.4089 350.611 64.4089ZM350.586 56.9174C351.319 56.9174 351.938 56.7469 352.444 56.406C352.955 56.0594 353.341 55.5651 353.603 54.9231C353.87 54.2753 354.003 53.4998 354.003 52.5964C354.003 51.7157 353.873 50.9401 353.611 50.2697C353.35 49.5992 352.966 49.0765 352.461 48.7015C351.955 48.3208 351.33 48.1305 350.586 48.1305C349.819 48.1305 349.179 48.3293 348.668 48.7271C348.157 49.1191 347.77 49.6532 347.509 50.3293C347.253 51.0055 347.126 51.7611 347.126 52.5964C347.126 53.4543 347.256 54.2072 347.518 54.8549C347.779 55.5026 348.165 56.0083 348.677 56.3719C349.194 56.7356 349.83 56.9174 350.586 56.9174ZM363.745 59.5168C362.915 59.5168 362.165 59.3634 361.495 59.0566C360.824 58.7441 360.293 58.2924 359.901 57.7015C359.515 57.1106 359.322 56.3861 359.322 55.5282C359.322 54.7896 359.464 54.1816 359.748 53.7043C360.032 53.2271 360.415 52.8492 360.898 52.5708C361.381 52.2924 361.921 52.0822 362.518 51.9401C363.114 51.7981 363.722 51.6901 364.341 51.6163C365.126 51.5253 365.762 51.4515 366.251 51.3947C366.739 51.3322 367.094 51.2327 367.316 51.0964C367.537 50.96 367.648 50.7384 367.648 50.4316V50.3719C367.648 49.6276 367.438 49.0509 367.018 48.6418C366.603 48.2327 365.983 48.0282 365.16 48.0282C364.302 48.0282 363.626 48.2185 363.131 48.5992C362.643 48.9742 362.304 49.3918 362.117 49.8521L359.722 49.3066C360.006 48.5111 360.421 47.8691 360.966 47.3805C361.518 46.8861 362.151 46.5282 362.867 46.3066C363.583 46.0793 364.336 45.9657 365.126 45.9657C365.648 45.9657 366.202 46.0282 366.787 46.1532C367.378 46.2725 367.929 46.4941 368.441 46.818C368.958 47.1418 369.381 47.6049 369.711 48.2072C370.04 48.8038 370.205 49.5793 370.205 50.5339V59.2271H367.716V57.4373H367.614C367.449 57.7668 367.202 58.0907 366.873 58.4089C366.543 58.7271 366.12 58.9913 365.603 59.2015C365.086 59.4117 364.466 59.5168 363.745 59.5168ZM364.299 57.4714C365.003 57.4714 365.606 57.3322 366.106 57.0538C366.611 56.7753 366.995 56.4117 367.256 55.9628C367.523 55.5083 367.657 55.0225 367.657 54.5055V52.818C367.566 52.9089 367.39 52.9941 367.128 53.0736C366.873 53.1475 366.58 53.2128 366.251 53.2697C365.921 53.3208 365.6 53.3691 365.287 53.4146C364.975 53.4543 364.714 53.4884 364.503 53.5168C364.009 53.5793 363.557 53.6844 363.148 53.8322C362.745 53.9799 362.421 54.193 362.177 54.4714C361.938 54.7441 361.819 55.1077 361.819 55.5623C361.819 56.193 362.052 56.6702 362.518 56.9941C362.983 57.3123 363.577 57.4714 364.299 57.4714ZM376.148 51.4543V59.2271H373.599V46.1361H376.045V48.2668H376.207C376.508 47.5736 376.98 47.0168 377.622 46.5964C378.27 46.1759 379.085 45.9657 380.068 45.9657C380.96 45.9657 381.741 46.1532 382.412 46.5282C383.082 46.8975 383.602 47.4486 383.971 48.1816C384.341 48.9146 384.525 49.8208 384.525 50.9003V59.2271H381.977V51.2072C381.977 50.2583 381.73 49.5168 381.236 48.9827C380.741 48.443 380.062 48.1731 379.199 48.1731C378.608 48.1731 378.082 48.3009 377.622 48.5566C377.167 48.8123 376.807 49.1873 376.54 49.6816C376.278 50.1702 376.148 50.7611 376.148 51.4543ZM393.432 64.4089C392.392 64.4089 391.497 64.2725 390.747 63.9998C390.003 63.7271 389.395 63.3663 388.923 62.9174C388.452 62.4685 388.099 61.9771 387.866 61.443L390.057 60.5396C390.21 60.7896 390.415 61.0538 390.67 61.3322C390.932 61.6163 391.284 61.8577 391.727 62.0566C392.176 62.2555 392.753 62.3549 393.457 62.3549C394.423 62.3549 395.221 62.1191 395.852 61.6475C396.483 61.1816 396.798 60.4373 396.798 59.4146V56.8407H396.636C396.483 57.1191 396.261 57.4288 395.971 57.7697C395.687 58.1106 395.295 58.406 394.795 58.656C394.295 58.906 393.645 59.031 392.844 59.031C391.809 59.031 390.878 58.7896 390.048 58.3066C389.224 57.818 388.571 57.0992 388.088 56.1503C387.611 55.1958 387.372 54.0225 387.372 52.6305C387.372 51.2384 387.608 50.0452 388.079 49.0509C388.557 48.0566 389.21 47.2952 390.04 46.7668C390.869 46.2327 391.809 45.9657 392.861 45.9657C393.673 45.9657 394.329 46.1021 394.829 46.3748C395.329 46.6418 395.719 46.9543 395.997 47.3123C396.281 47.6702 396.5 47.9856 396.653 48.2583H396.841V46.1361H399.338V59.5168C399.338 60.6418 399.077 61.5651 398.554 62.2867C398.031 63.0083 397.324 63.5424 396.432 63.889C395.545 64.2356 394.545 64.4089 393.432 64.4089ZM393.406 56.9174C394.139 56.9174 394.758 56.7469 395.264 56.406C395.775 56.0594 396.162 55.5651 396.423 54.9231C396.69 54.2753 396.824 53.4998 396.824 52.5964C396.824 51.7157 396.693 50.9401 396.432 50.2697C396.17 49.5992 395.787 49.0765 395.281 48.7015C394.775 48.3208 394.15 48.1305 393.406 48.1305C392.639 48.1305 392 48.3293 391.488 48.7271C390.977 49.1191 390.591 49.6532 390.329 50.3293C390.074 51.0055 389.946 51.7611 389.946 52.5964C389.946 53.4543 390.077 54.2072 390.338 54.8549C390.599 55.5026 390.986 56.0083 391.497 56.3719C392.014 56.7356 392.65 56.9174 393.406 56.9174ZM415.218 46.1361V48.1816H408.067V46.1361H415.218ZM409.985 42.9998H412.533V55.3833C412.533 55.8776 412.607 56.2498 412.755 56.4998C412.903 56.7441 413.093 56.9117 413.326 57.0026C413.564 57.0878 413.823 57.1305 414.101 57.1305C414.306 57.1305 414.485 57.1163 414.638 57.0878C414.792 57.0594 414.911 57.0367 414.996 57.0197L415.456 59.1248C415.309 59.1816 415.099 59.2384 414.826 59.2952C414.553 59.3577 414.212 59.3918 413.803 59.3975C413.133 59.4089 412.508 59.2896 411.928 59.0396C411.349 58.7896 410.88 58.4032 410.522 57.8805C410.164 57.3577 409.985 56.7015 409.985 55.9117V42.9998ZM418.037 59.2271V46.1361H420.585V59.2271H418.037ZM419.324 44.1163C418.88 44.1163 418.5 43.9685 418.182 43.6731C417.869 43.3719 417.713 43.014 417.713 42.5992C417.713 42.1788 417.869 41.8208 418.182 41.5253C418.5 41.2242 418.88 41.0736 419.324 41.0736C419.767 41.0736 420.145 41.2242 420.457 41.5253C420.775 41.8208 420.934 42.1788 420.934 42.5992C420.934 43.014 420.775 43.3719 420.457 43.6731C420.145 43.9685 419.767 44.1163 419.324 44.1163ZM426.562 41.7725V59.2271H424.013V41.7725H426.562ZM432.777 54.2072V54.0452C432.788 52.9884 432.893 52.1475 433.092 51.5225C433.297 50.8975 433.586 50.3918 433.961 50.0055C434.336 49.6191 434.788 49.2668 435.317 48.9486C435.657 48.7327 435.964 48.4913 436.237 48.2242C436.51 47.9572 436.726 47.6503 436.885 47.3038C437.044 46.9572 437.123 46.5736 437.123 46.1532C437.123 45.6475 437.004 45.21 436.765 44.8407C436.527 44.4714 436.209 44.1873 435.811 43.9884C435.419 43.7839 434.981 43.6816 434.498 43.6816C434.061 43.6816 433.643 43.7725 433.246 43.9543C432.848 44.1361 432.518 44.4202 432.257 44.8066C431.996 45.1873 431.845 45.6788 431.805 46.281H429.214C429.254 45.2583 429.513 44.3947 429.99 43.6901C430.467 42.9799 431.098 42.443 431.882 42.0793C432.672 41.7157 433.544 41.5339 434.498 41.5339C435.544 41.5339 436.459 41.7299 437.243 42.1219C438.027 42.5083 438.635 43.0509 439.067 43.7498C439.504 44.443 439.723 45.2526 439.723 46.1788C439.723 46.8151 439.623 47.389 439.425 47.9003C439.226 48.406 438.942 48.8577 438.572 49.2555C438.209 49.6532 437.771 50.0055 437.26 50.3123C436.777 50.6134 436.385 50.9259 436.084 51.2498C435.788 51.5736 435.572 51.9572 435.436 52.4003C435.3 52.8435 435.226 53.3918 435.214 54.0452V54.2072H432.777ZM434.064 59.389C433.598 59.389 433.197 59.2242 432.862 58.8947C432.527 58.5594 432.359 58.156 432.359 57.6844C432.359 57.2185 432.527 56.8208 432.862 56.4913C433.197 56.156 433.598 55.9884 434.064 55.9884C434.524 55.9884 434.922 56.156 435.257 56.4913C435.598 56.8208 435.768 57.2185 435.768 57.6844C435.768 57.9969 435.689 58.2839 435.53 58.5452C435.376 58.8009 435.172 59.0055 434.916 59.1589C434.66 59.3123 434.376 59.389 434.064 59.389Z" fill="white"/>
<defs>
<filter id="filter0_d_279_988" x="0.720703" y="0.343628" width="566.559" height="87.1595" filterUnits="userSpaceOnUse" color-interpolation-filters="sRGB">
<feFlood flood-opacity="0" result="BackgroundImageFix"/>
<feColorMatrix in="SourceAlpha" type="matrix" values="0 0 0 0 0 0 0 0 0 0 0 0 0 0 0 0 0 0 127 0" result="hardAlpha"/>
<feOffset dx="-5" dy="4"/>
<feGaussianBlur stdDeviation="2"/>
<feComposite in2="hardAlpha" operator="out"/>
<feColorMatrix type="matrix" values="0 0 0 0 0 0 0 0 0 0 0 0 0 0 0 0 0 0 0.33 0"/>
<feBlend mode="normal" in2="BackgroundImageFix" result="effect1_dropShadow_279_988"/>
<feBlend mode="normal" in="SourceGraphic" in2="effect1_dropShadow_279_988" result="shape"/>
</filter>
</defs>
</svg>
