<svg width="567" height="88" viewBox="0 0 567 88" fill="none" xmlns="http://www.w3.org/2000/svg">
<g filter="url(#filter0_d_279_973)">
<rect x="9" y="0.297546" width="557.558" height="79.1595" rx="14" fill="#03266A"/>
</g>
<path d="M87.3186 30.181V12.7264H89.9521V20.3117H98.6538V12.7264H101.296V30.181H98.6538V22.5702H89.9521V30.181H87.3186ZM116.125 17.0901L111.378 30.181H108.651L103.895 17.0901H106.631L109.946 27.1639H110.083L113.39 17.0901H116.125ZM123.589 30.4452C122.362 30.4452 121.291 30.1639 120.376 29.6014C119.461 29.0389 118.751 28.252 118.245 27.2406C117.74 26.2293 117.487 25.0474 117.487 23.6952C117.487 22.3372 117.74 21.1497 118.245 20.1327C118.751 19.1156 119.461 18.3259 120.376 17.7634C121.291 17.2009 122.362 16.9196 123.589 16.9196C124.816 16.9196 125.888 17.2009 126.802 17.7634C127.717 18.3259 128.427 19.1156 128.933 20.1327C129.439 21.1497 129.691 22.3372 129.691 23.6952C129.691 25.0474 129.439 26.2293 128.933 27.2406C128.427 28.252 127.717 29.0389 126.802 29.6014C125.888 30.1639 124.816 30.4452 123.589 30.4452ZM123.598 28.306C124.393 28.306 125.052 28.0957 125.575 27.6753C126.098 27.2548 126.484 26.6952 126.734 25.9963C126.99 25.2974 127.118 24.5276 127.118 23.6867C127.118 22.8514 126.99 22.0844 126.734 21.3855C126.484 20.681 126.098 20.1156 125.575 19.6895C125.052 19.2634 124.393 19.0503 123.598 19.0503C122.797 19.0503 122.132 19.2634 121.603 19.6895C121.081 20.1156 120.691 20.681 120.436 21.3855C120.186 22.0844 120.061 22.8514 120.061 23.6867C120.061 24.5276 120.186 25.2974 120.436 25.9963C120.691 26.6952 121.081 27.2548 121.603 27.6753C122.132 28.0957 122.797 28.306 123.598 28.306ZM132.536 30.181V17.0901H134.999V19.1696H135.135C135.374 18.4651 135.794 17.9111 136.397 17.5077C137.005 17.0986 137.692 16.894 138.459 16.894C138.618 16.894 138.806 16.8997 139.022 16.9111C139.243 16.9224 139.417 16.9367 139.542 16.9537V19.3912C139.439 19.3628 139.258 19.3315 138.996 19.2974C138.735 19.2577 138.473 19.2378 138.212 19.2378C137.61 19.2378 137.073 19.3656 136.601 19.6213C136.135 19.8713 135.766 20.2207 135.493 20.6696C135.221 21.1128 135.084 21.6185 135.084 22.1867V30.181H132.536ZM146.179 30.4367C145.122 30.4367 144.179 30.1668 143.349 29.627C142.525 29.0815 141.878 28.306 141.406 27.3003C140.94 26.2889 140.707 25.0759 140.707 23.6611C140.707 22.2463 140.943 21.0361 141.414 20.0304C141.892 19.0247 142.545 18.2548 143.375 17.7207C144.204 17.1867 145.145 16.9196 146.196 16.9196C147.008 16.9196 147.662 17.056 148.156 17.3287C148.656 17.5957 149.042 17.9082 149.315 18.2662C149.593 18.6242 149.809 18.9395 149.963 19.2122H150.116V12.7264H152.664V30.181H150.176V28.144H149.963C149.809 28.4224 149.588 28.7406 149.298 29.0986C149.014 29.4565 148.622 29.769 148.122 30.0361C147.622 30.3031 146.974 30.4367 146.179 30.4367ZM146.741 28.2634C147.474 28.2634 148.093 28.0702 148.599 27.6838C149.111 27.2918 149.497 26.7492 149.758 26.056C150.025 25.3628 150.159 24.556 150.159 23.6355C150.159 22.7264 150.028 21.931 149.767 21.2492C149.505 20.5673 149.122 20.0361 148.616 19.6554C148.111 19.2747 147.486 19.0844 146.741 19.0844C145.974 19.0844 145.335 19.2832 144.824 19.681C144.312 20.0787 143.926 20.6213 143.664 21.3088C143.409 21.9963 143.281 22.7719 143.281 23.6355C143.281 24.5105 143.412 25.2974 143.673 25.9963C143.934 26.6952 144.321 27.2492 144.832 27.6582C145.349 28.0617 145.986 28.2634 146.741 28.2634ZM160.111 30.4707C159.282 30.4707 158.532 30.3173 157.861 30.0105C157.191 29.698 156.66 29.2463 156.267 28.6554C155.881 28.0645 155.688 27.3401 155.688 26.4821C155.688 25.7435 155.83 25.1355 156.114 24.6582C156.398 24.181 156.782 23.8031 157.265 23.5247C157.748 23.2463 158.287 23.0361 158.884 22.894C159.481 22.752 160.089 22.644 160.708 22.5702C161.492 22.4793 162.128 22.4054 162.617 22.3486C163.106 22.2861 163.461 22.1867 163.682 22.0503C163.904 21.9139 164.015 21.6923 164.015 21.3855V21.3259C164.015 20.5815 163.804 20.0048 163.384 19.5957C162.969 19.1867 162.35 18.9821 161.526 18.9821C160.668 18.9821 159.992 19.1724 159.498 19.5531C159.009 19.9281 158.671 20.3457 158.483 20.806L156.089 20.2605C156.373 19.4651 156.787 18.823 157.333 18.3344C157.884 17.8401 158.517 17.4821 159.233 17.2605C159.949 17.0332 160.702 16.9196 161.492 16.9196C162.015 16.9196 162.569 16.9821 163.154 17.1071C163.745 17.2264 164.296 17.448 164.807 17.7719C165.324 18.0957 165.748 18.5588 166.077 19.1611C166.407 19.7577 166.571 20.5332 166.571 21.4878V30.181H164.083V28.3912H163.981C163.816 28.7207 163.569 29.0446 163.239 29.3628C162.91 29.681 162.486 29.9452 161.969 30.1554C161.452 30.3656 160.833 30.4707 160.111 30.4707ZM160.665 28.4253C161.37 28.4253 161.972 28.2861 162.472 28.0077C162.978 27.7293 163.361 27.3656 163.623 26.9168C163.89 26.4622 164.023 25.9764 164.023 25.4594V23.7719C163.932 23.8628 163.756 23.948 163.495 24.0276C163.239 24.1014 162.946 24.1668 162.617 24.2236C162.287 24.2747 161.966 24.323 161.654 24.3685C161.341 24.4082 161.08 24.4423 160.87 24.4707C160.375 24.5332 159.924 24.6384 159.515 24.7861C159.111 24.9338 158.787 25.1469 158.543 25.4253C158.304 25.698 158.185 26.0617 158.185 26.5162C158.185 27.1469 158.418 27.6242 158.884 27.948C159.35 28.2662 159.944 28.4253 160.665 28.4253ZM172.514 22.4082V30.181H169.966V17.0901H172.412V19.2207H172.574C172.875 18.5276 173.346 17.9707 173.988 17.5503C174.636 17.1298 175.451 16.9196 176.434 16.9196C177.326 16.9196 178.108 17.1071 178.778 17.4821C179.449 17.8514 179.968 18.4026 180.338 19.1355C180.707 19.8685 180.892 20.7747 180.892 21.8543V30.181H178.343V22.1611C178.343 21.2122 178.096 20.4707 177.602 19.9367C177.108 19.3969 176.429 19.127 175.565 19.127C174.974 19.127 174.449 19.2548 173.988 19.5105C173.534 19.7662 173.173 20.1412 172.906 20.6355C172.645 21.1242 172.514 21.7151 172.514 22.4082ZM193.005 25.7406L192.988 22.6298H193.431L198.647 17.0901H201.698L195.749 23.3969H195.348L193.005 25.7406ZM190.661 30.181V12.7264H193.209V30.181H190.661ZM198.928 30.181L194.24 23.9594L195.996 22.1781L202.056 30.181H198.928ZM207.83 30.4707C207 30.4707 206.25 30.3173 205.58 30.0105C204.91 29.698 204.378 29.2463 203.986 28.6554C203.6 28.0645 203.407 27.3401 203.407 26.4821C203.407 25.7435 203.549 25.1355 203.833 24.6582C204.117 24.181 204.5 23.8031 204.983 23.5247C205.466 23.2463 206.006 23.0361 206.603 22.894C207.199 22.752 207.807 22.644 208.427 22.5702C209.211 22.4793 209.847 22.4054 210.336 22.3486C210.824 22.2861 211.179 22.1867 211.401 22.0503C211.623 21.9139 211.733 21.6923 211.733 21.3855V21.3259C211.733 20.5815 211.523 20.0048 211.103 19.5957C210.688 19.1867 210.069 18.9821 209.245 18.9821C208.387 18.9821 207.711 19.1724 207.216 19.5531C206.728 19.9281 206.39 20.3457 206.202 20.806L203.807 20.2605C204.091 19.4651 204.506 18.823 205.052 18.3344C205.603 17.8401 206.236 17.4821 206.952 17.2605C207.668 17.0332 208.421 16.9196 209.211 16.9196C209.733 16.9196 210.287 16.9821 210.873 17.1071C211.464 17.2264 212.015 17.448 212.526 17.7719C213.043 18.0957 213.466 18.5588 213.796 19.1611C214.125 19.7577 214.29 20.5332 214.29 21.4878V30.181H211.802V28.3912H211.699C211.535 28.7207 211.287 29.0446 210.958 29.3628C210.628 29.681 210.205 29.9452 209.688 30.1554C209.171 30.3656 208.552 30.4707 207.83 30.4707ZM208.384 28.4253C209.089 28.4253 209.691 28.2861 210.191 28.0077C210.696 27.7293 211.08 27.3656 211.341 26.9168C211.608 26.4622 211.742 25.9764 211.742 25.4594V23.7719C211.651 23.8628 211.475 23.948 211.214 24.0276C210.958 24.1014 210.665 24.1668 210.336 24.2236C210.006 24.2747 209.685 24.323 209.373 24.3685C209.06 24.4082 208.799 24.4423 208.589 24.4707C208.094 24.5332 207.642 24.6384 207.233 24.7861C206.83 24.9338 206.506 25.1469 206.262 25.4253C206.023 25.698 205.904 26.0617 205.904 26.5162C205.904 27.1469 206.137 27.6242 206.603 27.948C207.069 28.2662 207.662 28.4253 208.384 28.4253ZM220.233 22.4082V30.181H217.684V17.0901H220.13V19.2207H220.292C220.593 18.5276 221.065 17.9707 221.707 17.5503C222.355 17.1298 223.17 16.9196 224.153 16.9196C225.045 16.9196 225.826 17.1071 226.497 17.4821C227.167 17.8514 227.687 18.4026 228.057 19.1355C228.426 19.8685 228.611 20.7747 228.611 21.8543V30.181H226.062V22.1611C226.062 21.2122 225.815 20.4707 225.321 19.9367C224.826 19.3969 224.147 19.127 223.284 19.127C222.693 19.127 222.167 19.2548 221.707 19.5105C221.253 19.7662 220.892 20.1412 220.625 20.6355C220.363 21.1242 220.233 21.7151 220.233 22.4082ZM238.38 17.0901H240.928V31.0332C240.928 31.9082 240.769 32.6469 240.451 33.2492C240.138 33.8514 239.672 34.3088 239.053 34.6213C238.439 34.9338 237.681 35.0901 236.777 35.0901C236.687 35.0901 236.601 35.0901 236.522 35.0901C236.437 35.0901 236.348 35.0872 236.258 35.0815V32.8912C236.337 32.8912 236.408 32.8912 236.471 32.8912C236.527 32.8912 236.593 32.8912 236.667 32.8912C237.269 32.8912 237.704 32.7293 237.971 32.4054C238.243 32.0872 238.38 31.6242 238.38 31.0162V17.0901ZM239.641 15.0702C239.198 15.0702 238.817 14.9224 238.499 14.627C238.187 14.3259 238.03 13.9679 238.03 13.5531C238.03 13.1327 238.187 12.7747 238.499 12.4793C238.817 12.1781 239.198 12.0276 239.641 12.0276C240.084 12.0276 240.462 12.1781 240.775 12.4793C241.093 12.7747 241.252 13.1327 241.252 13.5531C241.252 13.9679 241.093 14.3259 240.775 14.627C240.462 14.9224 240.084 15.0702 239.641 15.0702ZM249.998 30.4452C248.709 30.4452 247.598 30.1696 246.666 29.6185C245.74 29.0617 245.024 28.2804 244.518 27.2747C244.018 26.2634 243.768 25.0787 243.768 23.7207C243.768 22.3798 244.018 21.198 244.518 20.1753C245.024 19.1526 245.728 18.3543 246.632 17.7804C247.541 17.2065 248.603 16.9196 249.819 16.9196C250.558 16.9196 251.274 17.0418 251.967 17.2861C252.66 17.5304 253.282 17.9139 253.834 18.4367C254.385 18.9594 254.819 19.6384 255.138 20.4736C255.456 21.3031 255.615 22.3117 255.615 23.4992V24.4026H245.209V22.4935H253.118C253.118 21.823 252.981 21.2293 252.709 20.7122C252.436 20.1895 252.052 19.7776 251.558 19.4764C251.069 19.1753 250.495 19.0247 249.836 19.0247C249.12 19.0247 248.495 19.2009 247.961 19.5531C247.433 19.8997 247.024 20.3543 246.734 20.9168C246.45 21.4736 246.308 22.0787 246.308 22.7321V24.2236C246.308 25.0986 246.461 25.8429 246.768 26.4565C247.081 27.0702 247.515 27.5389 248.072 27.8628C248.629 28.181 249.28 28.3401 250.024 28.3401C250.507 28.3401 250.947 28.2719 251.345 28.1355C251.743 27.9935 252.086 27.7832 252.376 27.5048C252.666 27.2264 252.888 26.8827 253.041 26.4736L255.453 26.9082C255.26 27.6185 254.913 28.2406 254.413 28.7747C253.919 29.3031 253.297 29.7151 252.547 30.0105C251.802 30.3003 250.953 30.4452 249.998 30.4452ZM263.931 35.3628C262.891 35.3628 261.996 35.2264 261.246 34.9537C260.502 34.681 259.894 34.3202 259.422 33.8713C258.951 33.4224 258.598 32.931 258.365 32.3969L260.556 31.4935C260.709 31.7435 260.914 32.0077 261.169 32.2861C261.431 32.5702 261.783 32.8117 262.226 33.0105C262.675 33.2094 263.252 33.3088 263.956 33.3088C264.922 33.3088 265.721 33.073 266.351 32.6014C266.982 32.1355 267.297 31.3912 267.297 30.3685V27.7946H267.135C266.982 28.073 266.76 28.3827 266.471 28.7236C266.187 29.0645 265.794 29.3599 265.294 29.6099C264.794 29.8599 264.144 29.9849 263.343 29.9849C262.309 29.9849 261.377 29.7435 260.547 29.2605C259.723 28.7719 259.07 28.0531 258.587 27.1043C258.11 26.1497 257.871 24.9764 257.871 23.5844C257.871 22.1923 258.107 20.9992 258.579 20.0048C259.056 19.0105 259.709 18.2492 260.539 17.7207C261.368 17.1867 262.309 16.9196 263.36 16.9196C264.172 16.9196 264.829 17.056 265.329 17.3287C265.829 17.5957 266.218 17.9082 266.496 18.2662C266.78 18.6242 266.999 18.9395 267.152 19.2122H267.34V17.0901H269.837V30.4707C269.837 31.5957 269.576 32.519 269.053 33.2406C268.53 33.9622 267.823 34.4963 266.931 34.8429C266.044 35.1895 265.044 35.3628 263.931 35.3628ZM263.905 27.8713C264.638 27.8713 265.258 27.7009 265.763 27.3599C266.275 27.0134 266.661 26.519 266.922 25.877C267.189 25.2293 267.323 24.4537 267.323 23.5503C267.323 22.6696 267.192 21.894 266.931 21.2236C266.669 20.5531 266.286 20.0304 265.78 19.6554C265.275 19.2747 264.65 19.0844 263.905 19.0844C263.138 19.0844 262.499 19.2832 261.988 19.681C261.476 20.073 261.09 20.6071 260.829 21.2832C260.573 21.9594 260.445 22.7151 260.445 23.5503C260.445 24.4082 260.576 25.1611 260.837 25.8088C261.098 26.4565 261.485 26.9622 261.996 27.3259C262.513 27.6895 263.15 27.8713 263.905 27.8713ZM279.811 30.181V12.7264H282.359V19.2122H282.513C282.66 18.9395 282.873 18.6242 283.152 18.2662C283.43 17.9082 283.816 17.5957 284.311 17.3287C284.805 17.056 285.459 16.9196 286.271 16.9196C287.328 16.9196 288.271 17.1867 289.101 17.7207C289.93 18.2548 290.581 19.0247 291.052 20.0304C291.53 21.0361 291.768 22.2463 291.768 23.6611C291.768 25.0759 291.532 26.2889 291.061 27.3003C290.589 28.306 289.941 29.0815 289.118 29.627C288.294 30.1668 287.353 30.4367 286.297 30.4367C285.501 30.4367 284.851 30.3031 284.345 30.0361C283.845 29.769 283.453 29.4565 283.169 29.0986C282.885 28.7406 282.666 28.4224 282.513 28.144H282.299V30.181H279.811ZM282.308 23.6355C282.308 24.556 282.441 25.3628 282.709 26.056C282.976 26.7492 283.362 27.2918 283.868 27.6838C284.373 28.0702 284.993 28.2634 285.726 28.2634C286.487 28.2634 287.123 28.0617 287.635 27.6582C288.146 27.2492 288.532 26.6952 288.794 25.9963C289.061 25.2974 289.194 24.5105 289.194 23.6355C289.194 22.7719 289.064 21.9963 288.802 21.3088C288.547 20.6213 288.16 20.0787 287.643 19.681C287.132 19.2832 286.493 19.0844 285.726 19.0844C284.987 19.0844 284.362 19.2747 283.851 19.6554C283.345 20.0361 282.961 20.5673 282.7 21.2492C282.439 21.931 282.308 22.7264 282.308 23.6355ZM294.63 30.181V17.0901H297.093V19.1696H297.229C297.468 18.4651 297.888 17.9111 298.49 17.5077C299.098 17.0986 299.786 16.894 300.553 16.894C300.712 16.894 300.9 16.8997 301.115 16.9111C301.337 16.9224 301.51 16.9367 301.635 16.9537V19.3912C301.533 19.3628 301.351 19.3315 301.09 19.2974C300.829 19.2577 300.567 19.2378 300.306 19.2378C299.704 19.2378 299.167 19.3656 298.695 19.6213C298.229 19.8713 297.86 20.2207 297.587 20.6696C297.314 21.1128 297.178 21.6185 297.178 22.1867V30.181H294.63ZM312.133 24.752V17.0901H314.69V30.181H312.184V27.9139H312.048C311.747 28.6128 311.264 29.1952 310.599 29.6611C309.94 30.1213 309.119 30.3514 308.136 30.3514C307.295 30.3514 306.551 30.1668 305.903 29.7974C305.261 29.4224 304.755 28.8685 304.386 28.1355C304.022 27.4026 303.841 26.4963 303.841 25.4168V17.0901H306.389V25.1099C306.389 26.002 306.636 26.7122 307.13 27.2406C307.625 27.769 308.267 28.0332 309.057 28.0332C309.534 28.0332 310.008 27.9139 310.48 27.6753C310.957 27.4367 311.352 27.0759 311.664 26.5929C311.983 26.1099 312.139 25.4963 312.133 24.752ZM323.603 35.3628C322.563 35.3628 321.668 35.2264 320.918 34.9537C320.174 34.681 319.566 34.3202 319.094 33.8713C318.623 33.4224 318.27 32.931 318.037 32.3969L320.228 31.4935C320.381 31.7435 320.586 32.0077 320.841 32.2861C321.103 32.5702 321.455 32.8117 321.898 33.0105C322.347 33.2094 322.924 33.3088 323.628 33.3088C324.594 33.3088 325.392 33.073 326.023 32.6014C326.654 32.1355 326.969 31.3912 326.969 30.3685V27.7946H326.807C326.654 28.073 326.432 28.3827 326.142 28.7236C325.858 29.0645 325.466 29.3599 324.966 29.6099C324.466 29.8599 323.816 29.9849 323.015 29.9849C321.981 29.9849 321.049 29.7435 320.219 29.2605C319.395 28.7719 318.742 28.0531 318.259 27.1043C317.782 26.1497 317.543 24.9764 317.543 23.5844C317.543 22.1923 317.779 20.9992 318.25 20.0048C318.728 19.0105 319.381 18.2492 320.211 17.7207C321.04 17.1867 321.981 16.9196 323.032 16.9196C323.844 16.9196 324.5 17.056 325 17.3287C325.5 17.5957 325.89 17.9082 326.168 18.2662C326.452 18.6242 326.671 18.9395 326.824 19.2122H327.012V17.0901H329.509V30.4707C329.509 31.5957 329.248 32.519 328.725 33.2406C328.202 33.9622 327.495 34.4963 326.603 34.8429C325.716 35.1895 324.716 35.3628 323.603 35.3628ZM323.577 27.8713C324.31 27.8713 324.929 27.7009 325.435 27.3599C325.946 27.0134 326.333 26.519 326.594 25.877C326.861 25.2293 326.995 24.4537 326.995 23.5503C326.995 22.6696 326.864 21.894 326.603 21.2236C326.341 20.5531 325.958 20.0304 325.452 19.6554C324.946 19.2747 324.321 19.0844 323.577 19.0844C322.81 19.0844 322.171 19.2832 321.66 19.681C321.148 20.073 320.762 20.6071 320.5 21.2832C320.245 21.9594 320.117 22.7151 320.117 23.5503C320.117 24.4082 320.248 25.1611 320.509 25.8088C320.77 26.4565 321.157 26.9622 321.668 27.3259C322.185 27.6895 322.821 27.8713 323.577 27.8713ZM338.569 30.4452C337.279 30.4452 336.168 30.1696 335.236 29.6185C334.31 29.0617 333.594 28.2804 333.089 27.2747C332.589 26.2634 332.339 25.0787 332.339 23.7207C332.339 22.3798 332.589 21.198 333.089 20.1753C333.594 19.1526 334.299 18.3543 335.202 17.7804C336.111 17.2065 337.174 16.9196 338.39 16.9196C339.128 16.9196 339.844 17.0418 340.537 17.2861C341.231 17.5304 341.853 17.9139 342.404 18.4367C342.955 18.9594 343.39 19.6384 343.708 20.4736C344.026 21.3031 344.185 22.3117 344.185 23.4992V24.4026H333.779V22.4935H341.688C341.688 21.823 341.552 21.2293 341.279 20.7122C341.006 20.1895 340.623 19.7776 340.128 19.4764C339.64 19.1753 339.066 19.0247 338.407 19.0247C337.691 19.0247 337.066 19.2009 336.532 19.5531C336.003 19.8997 335.594 20.3543 335.304 20.9168C335.02 21.4736 334.878 22.0787 334.878 22.7321V24.2236C334.878 25.0986 335.032 25.8429 335.339 26.4565C335.651 27.0702 336.086 27.5389 336.642 27.8628C337.199 28.181 337.85 28.3401 338.594 28.3401C339.077 28.3401 339.517 28.2719 339.915 28.1355C340.313 27.9935 340.657 27.7832 340.946 27.5048C341.236 27.2264 341.458 26.8827 341.611 26.4736L344.023 26.9082C343.83 27.6185 343.483 28.2406 342.983 28.7747C342.489 29.3031 341.867 29.7151 341.117 30.0105C340.373 30.3003 339.523 30.4452 338.569 30.4452ZM363.174 20.2861L360.864 20.6952C360.767 20.3997 360.614 20.1185 360.404 19.8514C360.199 19.5844 359.921 19.3656 359.569 19.1952C359.216 19.0247 358.776 18.9395 358.248 18.9395C357.526 18.9395 356.924 19.1014 356.441 19.4253C355.958 19.7435 355.716 20.1554 355.716 20.6611C355.716 21.0986 355.878 21.4509 356.202 21.7179C356.526 21.9849 357.049 22.2037 357.77 22.3742L359.85 22.8514C361.054 23.1298 361.952 23.5588 362.543 24.1384C363.134 24.7179 363.429 25.4707 363.429 26.3969C363.429 27.181 363.202 27.8798 362.748 28.4935C362.299 29.1014 361.671 29.5787 360.864 29.9253C360.063 30.2719 359.134 30.4452 358.077 30.4452C356.611 30.4452 355.415 30.1327 354.489 29.5077C353.563 28.877 352.995 27.9821 352.785 26.823L355.248 26.448C355.401 27.0901 355.716 27.5759 356.194 27.9054C356.671 28.2293 357.293 28.3912 358.06 28.3912C358.895 28.3912 359.563 28.2179 360.063 27.8713C360.563 27.519 360.813 27.0901 360.813 26.5844C360.813 26.1753 360.66 25.8315 360.353 25.5531C360.052 25.2747 359.589 25.0645 358.964 24.9224L356.748 24.4367C355.526 24.1582 354.623 23.7151 354.037 23.1071C353.458 22.4992 353.168 21.7293 353.168 20.7974C353.168 20.0247 353.384 19.3486 353.816 18.769C354.248 18.1895 354.844 17.7378 355.606 17.4139C356.367 17.0844 357.239 16.9196 358.222 16.9196C359.637 16.9196 360.75 17.2264 361.563 17.8401C362.375 18.448 362.912 19.2634 363.174 20.2861ZM372.342 17.0901V19.1355H365.191V17.0901H372.342ZM367.109 13.9537H369.657V26.3372C369.657 26.8315 369.731 27.2037 369.879 27.4537C370.027 27.698 370.217 27.8656 370.45 27.9565C370.689 28.0418 370.947 28.0844 371.226 28.0844C371.43 28.0844 371.609 28.0702 371.763 28.0418C371.916 28.0134 372.035 27.9906 372.12 27.9736L372.581 30.0787C372.433 30.1355 372.223 30.1923 371.95 30.2492C371.677 30.3117 371.336 30.3457 370.927 30.3514C370.257 30.3628 369.632 30.2435 369.052 29.9935C368.473 29.7435 368.004 29.3571 367.646 28.8344C367.288 28.3117 367.109 27.6554 367.109 26.8656V13.9537ZM383.454 24.752V17.0901H386.01V30.181H383.505V27.9139H383.368C383.067 28.6128 382.584 29.1952 381.919 29.6611C381.26 30.1213 380.439 30.3514 379.456 30.3514C378.615 30.3514 377.871 30.1668 377.223 29.7974C376.581 29.4224 376.076 28.8685 375.706 28.1355C375.343 27.4026 375.161 26.4963 375.161 25.4168V17.0901H377.709V25.1099C377.709 26.002 377.956 26.7122 378.451 27.2406C378.945 27.769 379.587 28.0332 380.377 28.0332C380.854 28.0332 381.329 27.9139 381.8 27.6753C382.277 27.4367 382.672 27.0759 382.985 26.5929C383.303 26.1099 383.459 25.4963 383.454 24.752ZM394.335 30.4367C393.278 30.4367 392.335 30.1668 391.505 29.627C390.682 29.0815 390.034 28.306 389.562 27.3003C389.096 26.2889 388.863 25.0759 388.863 23.6611C388.863 22.2463 389.099 21.0361 389.571 20.0304C390.048 19.0247 390.701 18.2548 391.531 17.7207C392.361 17.1867 393.301 16.9196 394.352 16.9196C395.164 16.9196 395.818 17.056 396.312 17.3287C396.812 17.5957 397.199 17.9082 397.471 18.2662C397.75 18.6242 397.966 18.9395 398.119 19.2122H398.272V12.7264H400.821V30.181H398.332V28.144H398.119C397.966 28.4224 397.744 28.7406 397.454 29.0986C397.17 29.4565 396.778 29.769 396.278 30.0361C395.778 30.3031 395.13 30.4367 394.335 30.4367ZM394.897 28.2634C395.63 28.2634 396.25 28.0702 396.755 27.6838C397.267 27.2918 397.653 26.7492 397.914 26.056C398.182 25.3628 398.315 24.556 398.315 23.6355C398.315 22.7264 398.184 21.931 397.923 21.2492C397.662 20.5673 397.278 20.0361 396.772 19.6554C396.267 19.2747 395.642 19.0844 394.897 19.0844C394.13 19.0844 393.491 19.2832 392.98 19.681C392.468 20.0787 392.082 20.6213 391.821 21.3088C391.565 21.9963 391.437 22.7719 391.437 23.6355C391.437 24.5105 391.568 25.2974 391.829 25.9963C392.091 26.6952 392.477 27.2492 392.988 27.6582C393.505 28.0617 394.142 28.2634 394.897 28.2634ZM404.458 30.181V17.0901H407.006V30.181H404.458ZM405.745 15.0702C405.302 15.0702 404.921 14.9224 404.603 14.627C404.29 14.3259 404.134 13.9679 404.134 13.5531C404.134 13.1327 404.29 12.7747 404.603 12.4793C404.921 12.1781 405.302 12.0276 405.745 12.0276C406.188 12.0276 406.566 12.1781 406.878 12.4793C407.196 12.7747 407.356 13.1327 407.356 13.5531C407.356 13.9679 407.196 14.3259 406.878 14.627C406.566 14.9224 406.188 15.0702 405.745 15.0702ZM416.076 30.4452C414.787 30.4452 413.676 30.1696 412.744 29.6185C411.818 29.0617 411.102 28.2804 410.596 27.2747C410.096 26.2634 409.846 25.0787 409.846 23.7207C409.846 22.3798 410.096 21.198 410.596 20.1753C411.102 19.1526 411.807 18.3543 412.71 17.7804C413.619 17.2065 414.682 16.9196 415.897 16.9196C416.636 16.9196 417.352 17.0418 418.045 17.2861C418.738 17.5304 419.361 17.9139 419.912 18.4367C420.463 18.9594 420.897 19.6384 421.216 20.4736C421.534 21.3031 421.693 22.3117 421.693 23.4992V24.4026H411.287V22.4935H419.196C419.196 21.823 419.059 21.2293 418.787 20.7122C418.514 20.1895 418.13 19.7776 417.636 19.4764C417.147 19.1753 416.574 19.0247 415.914 19.0247C415.199 19.0247 414.574 19.2009 414.039 19.5531C413.511 19.8997 413.102 20.3543 412.812 20.9168C412.528 21.4736 412.386 22.0787 412.386 22.7321V24.2236C412.386 25.0986 412.539 25.8429 412.846 26.4565C413.159 27.0702 413.593 27.5389 414.15 27.8628C414.707 28.181 415.358 28.3401 416.102 28.3401C416.585 28.3401 417.025 28.2719 417.423 28.1355C417.821 27.9935 418.164 27.7832 418.454 27.5048C418.744 27.2264 418.966 26.8827 419.119 26.4736L421.531 26.9082C421.338 27.6185 420.991 28.2406 420.491 28.7747C419.997 29.3031 419.375 29.7151 418.625 30.0105C417.88 30.3003 417.031 30.4452 416.076 30.4452ZM426.864 25.7406L426.847 22.6298H427.29L432.506 17.0901H435.557L429.608 23.3969H429.208L426.864 25.7406ZM424.52 30.181V12.7264H427.069V30.181H424.52ZM432.787 30.181L428.1 23.9594L429.856 22.1781L435.915 30.181H432.787ZM442.855 30.4452C441.628 30.4452 440.557 30.1639 439.642 29.6014C438.727 29.0389 438.017 28.252 437.511 27.2406C437.005 26.2293 436.753 25.0474 436.753 23.6952C436.753 22.3372 437.005 21.1497 437.511 20.1327C438.017 19.1156 438.727 18.3259 439.642 17.7634C440.557 17.2009 441.628 16.9196 442.855 16.9196C444.082 16.9196 445.153 17.2009 446.068 17.7634C446.983 18.3259 447.693 19.1156 448.199 20.1327C448.704 21.1497 448.957 22.3372 448.957 23.6952C448.957 25.0474 448.704 26.2293 448.199 27.2406C447.693 28.252 446.983 29.0389 446.068 29.6014C445.153 30.1639 444.082 30.4452 442.855 30.4452ZM442.863 28.306C443.659 28.306 444.318 28.0957 444.841 27.6753C445.363 27.2548 445.75 26.6952 446 25.9963C446.255 25.2974 446.383 24.5276 446.383 23.6867C446.383 22.8514 446.255 22.0844 446 21.3855C445.75 20.681 445.363 20.1156 444.841 19.6895C444.318 19.2634 443.659 19.0503 442.863 19.0503C442.062 19.0503 441.397 19.2634 440.869 19.6895C440.346 20.1156 439.957 20.681 439.701 21.3855C439.451 22.0844 439.326 22.8514 439.326 23.6867C439.326 24.5276 439.451 25.2974 439.701 25.9963C439.957 26.6952 440.346 27.2548 440.869 27.6753C441.397 28.0957 442.062 28.306 442.863 28.306ZM451.802 30.181V17.0901H454.265V19.1696H454.401C454.64 18.4651 455.06 17.9111 455.662 17.5077C456.27 17.0986 456.958 16.894 457.725 16.894C457.884 16.894 458.071 16.8997 458.287 16.9111C458.509 16.9224 458.682 16.9367 458.807 16.9537V19.3912C458.705 19.3628 458.523 19.3315 458.262 19.2974C458 19.2577 457.739 19.2378 457.478 19.2378C456.875 19.2378 456.339 19.3656 455.867 19.6213C455.401 19.8713 455.032 20.2207 454.759 20.6696C454.486 21.1128 454.35 21.6185 454.35 22.1867V30.181H451.802ZM467.897 17.0901V19.1355H460.746V17.0901H467.897ZM462.664 13.9537H465.212V26.3372C465.212 26.8315 465.286 27.2037 465.434 27.4537C465.581 27.698 465.772 27.8656 466.005 27.9565C466.243 28.0418 466.502 28.0844 466.78 28.0844C466.985 28.0844 467.164 28.0702 467.317 28.0418C467.471 28.0134 467.59 27.9906 467.675 27.9736L468.135 30.0787C467.988 30.1355 467.777 30.1923 467.505 30.2492C467.232 30.3117 466.891 30.3457 466.482 30.3514C465.812 30.3628 465.187 30.2435 464.607 29.9935C464.027 29.7435 463.559 29.3571 463.201 28.8344C462.843 28.3117 462.664 27.6554 462.664 26.8656V13.9537ZM476.217 30.4452C474.927 30.4452 473.816 30.1696 472.885 29.6185C471.959 29.0617 471.243 28.2804 470.737 27.2747C470.237 26.2634 469.987 25.0787 469.987 23.7207C469.987 22.3798 470.237 21.198 470.737 20.1753C471.243 19.1526 471.947 18.3543 472.851 17.7804C473.76 17.2065 474.822 16.9196 476.038 16.9196C476.777 16.9196 477.493 17.0418 478.186 17.2861C478.879 17.5304 479.501 17.9139 480.052 18.4367C480.603 18.9594 481.038 19.6384 481.356 20.4736C481.674 21.3031 481.834 22.3117 481.834 23.4992V24.4026H471.427V22.4935H479.336C479.336 21.823 479.2 21.2293 478.927 20.7122C478.655 20.1895 478.271 19.7776 477.777 19.4764C477.288 19.1753 476.714 19.0247 476.055 19.0247C475.339 19.0247 474.714 19.2009 474.18 19.5531C473.652 19.8997 473.243 20.3543 472.953 20.9168C472.669 21.4736 472.527 22.0787 472.527 22.7321V24.2236C472.527 25.0986 472.68 25.8429 472.987 26.4565C473.299 27.0702 473.734 27.5389 474.291 27.8628C474.848 28.181 475.498 28.3401 476.243 28.3401C476.726 28.3401 477.166 28.2719 477.564 28.1355C477.961 27.9935 478.305 27.7832 478.595 27.5048C478.885 27.2264 479.106 26.8827 479.26 26.4736L481.672 26.9082C481.478 27.6185 481.132 28.2406 480.632 28.7747C480.138 29.3031 479.515 29.7151 478.765 30.0105C478.021 30.3003 477.172 30.4452 476.217 30.4452ZM490.772 17.0901V19.1355H483.621V17.0901H490.772ZM485.539 13.9537H488.087V26.3372C488.087 26.8315 488.161 27.2037 488.309 27.4537C488.456 27.698 488.647 27.8656 488.88 27.9565C489.118 28.0418 489.377 28.0844 489.655 28.0844C489.86 28.0844 490.039 28.0702 490.192 28.0418C490.346 28.0134 490.465 27.9906 490.55 27.9736L491.01 30.0787C490.863 30.1355 490.652 30.1923 490.38 30.2492C490.107 30.3117 489.766 30.3457 489.357 30.3514C488.687 30.3628 488.062 30.2435 487.482 29.9935C486.902 29.7435 486.434 29.3571 486.076 28.8344C485.718 28.3117 485.539 27.6554 485.539 26.8656V13.9537ZM98.1702 46.0901V48.1355H91.0196V46.0901H98.1702ZM92.9372 42.9537H95.4855V55.3372C95.4855 55.8315 95.5594 56.2037 95.7071 56.4537C95.8548 56.698 96.0452 56.8656 96.2781 56.9565C96.5168 57.0418 96.7753 57.0844 97.0537 57.0844C97.2582 57.0844 97.4372 57.0702 97.5906 57.0418C97.744 57.0134 97.8634 56.9906 97.9486 56.9736L98.4088 59.0787C98.2611 59.1355 98.0509 59.1923 97.7781 59.2492C97.5054 59.3117 97.1645 59.3457 96.7554 59.3514C96.0849 59.3628 95.4599 59.2435 94.8804 58.9935C94.3009 58.7435 93.8321 58.3571 93.4742 57.8344C93.1162 57.3117 92.9372 56.6554 92.9372 55.8656V42.9537ZM100.989 59.181V46.0901H103.537V59.181H100.989ZM102.276 44.0702C101.833 44.0702 101.452 43.9224 101.134 43.627C100.821 43.3259 100.665 42.9679 100.665 42.5531C100.665 42.1327 100.821 41.7747 101.134 41.4793C101.452 41.1781 101.833 41.0276 102.276 41.0276C102.719 41.0276 103.097 41.1781 103.41 41.4793C103.728 41.7747 103.887 42.1327 103.887 42.5531C103.887 42.9679 103.728 43.3259 103.41 43.627C103.097 43.9224 102.719 44.0702 102.276 44.0702ZM109.514 41.7264V59.181H106.966V41.7264H109.514ZM123.103 59.4707C122.274 59.4707 121.524 59.3173 120.853 59.0105C120.183 58.698 119.652 58.2463 119.26 57.6554C118.873 57.0645 118.68 56.3401 118.68 55.4821C118.68 54.7435 118.822 54.1355 119.106 53.6582C119.39 53.181 119.774 52.8031 120.257 52.5247C120.74 52.2463 121.28 52.0361 121.876 51.894C122.473 51.752 123.081 51.644 123.7 51.5702C124.484 51.4793 125.12 51.4054 125.609 51.3486C126.098 51.2861 126.453 51.1867 126.674 51.0503C126.896 50.9139 127.007 50.6923 127.007 50.3855V50.3259C127.007 49.5815 126.797 49.0048 126.376 48.5957C125.961 48.1867 125.342 47.9821 124.518 47.9821C123.66 47.9821 122.984 48.1724 122.49 48.5531C122.001 48.9281 121.663 49.3457 121.476 49.806L119.081 49.2605C119.365 48.4651 119.78 47.823 120.325 47.3344C120.876 46.8401 121.51 46.4821 122.226 46.2605C122.941 46.0332 123.694 45.9196 124.484 45.9196C125.007 45.9196 125.561 45.9821 126.146 46.1071C126.737 46.2264 127.288 46.448 127.799 46.7719C128.316 47.0957 128.74 47.5588 129.069 48.1611C129.399 48.7577 129.564 49.5332 129.564 50.4878V59.181H127.075V57.3912H126.973C126.808 57.7207 126.561 58.0446 126.231 58.3628C125.902 58.681 125.478 58.9452 124.961 59.1554C124.444 59.3656 123.825 59.4707 123.103 59.4707ZM123.657 57.4253C124.362 57.4253 124.964 57.2861 125.464 57.0077C125.97 56.7293 126.353 56.3656 126.615 55.9168C126.882 55.4622 127.015 54.9764 127.015 54.4594V52.7719C126.924 52.8628 126.748 52.948 126.487 53.0276C126.231 53.1014 125.939 53.1668 125.609 53.2236C125.28 53.2747 124.959 53.323 124.646 53.3685C124.334 53.4082 124.072 53.4423 123.862 53.4707C123.368 53.5332 122.916 53.6384 122.507 53.7861C122.103 53.9338 121.78 54.1469 121.535 54.4253C121.297 54.698 121.177 55.0617 121.177 55.5162C121.177 56.1469 121.41 56.6242 121.876 56.948C122.342 57.2662 122.936 57.4253 123.657 57.4253ZM139.069 46.0901V48.1355H131.918V46.0901H139.069ZM133.836 42.9537H136.384V55.3372C136.384 55.8315 136.458 56.2037 136.606 56.4537C136.753 56.698 136.944 56.8656 137.177 56.9565C137.415 57.0418 137.674 57.0844 137.952 57.0844C138.157 57.0844 138.336 57.0702 138.489 57.0418C138.642 57.0134 138.762 56.9906 138.847 56.9736L139.307 59.0787C139.16 59.1355 138.949 59.1923 138.677 59.2492C138.404 59.3117 138.063 59.3457 137.654 59.3514C136.983 59.3628 136.358 59.2435 135.779 58.9935C135.199 58.7435 134.731 58.3571 134.373 57.8344C134.015 57.3117 133.836 56.6554 133.836 55.8656V42.9537ZM150.787 41.7264V59.181H148.239V41.7264H150.787ZM158.025 59.4707C157.196 59.4707 156.446 59.3173 155.775 59.0105C155.105 58.698 154.574 58.2463 154.182 57.6554C153.795 57.0645 153.602 56.3401 153.602 55.4821C153.602 54.7435 153.744 54.1355 154.028 53.6582C154.312 53.181 154.696 52.8031 155.179 52.5247C155.662 52.2463 156.201 52.0361 156.798 51.894C157.395 51.752 158.003 51.644 158.622 51.5702C159.406 51.4793 160.042 51.4054 160.531 51.3486C161.02 51.2861 161.375 51.1867 161.596 51.0503C161.818 50.9139 161.929 50.6923 161.929 50.3855V50.3259C161.929 49.5815 161.718 49.0048 161.298 48.5957C160.883 48.1867 160.264 47.9821 159.44 47.9821C158.582 47.9821 157.906 48.1724 157.412 48.5531C156.923 48.9281 156.585 49.3457 156.397 49.806L154.003 49.2605C154.287 48.4651 154.701 47.823 155.247 47.3344C155.798 46.8401 156.432 46.4821 157.147 46.2605C157.863 46.0332 158.616 45.9196 159.406 45.9196C159.929 45.9196 160.483 45.9821 161.068 46.1071C161.659 46.2264 162.21 46.448 162.721 46.7719C163.238 47.0957 163.662 47.5588 163.991 48.1611C164.321 48.7577 164.486 49.5332 164.486 50.4878V59.181H161.997V57.3912H161.895C161.73 57.7207 161.483 58.0446 161.153 58.3628C160.824 58.681 160.4 58.9452 159.883 59.1554C159.366 59.3656 158.747 59.4707 158.025 59.4707ZM158.579 57.4253C159.284 57.4253 159.886 57.2861 160.386 57.0077C160.892 56.7293 161.275 56.3656 161.537 55.9168C161.804 55.4622 161.937 54.9764 161.937 54.4594V52.7719C161.846 52.8628 161.67 52.948 161.409 53.0276C161.153 53.1014 160.861 53.1668 160.531 53.2236C160.201 53.2747 159.88 53.323 159.568 53.3685C159.255 53.4082 158.994 53.4423 158.784 53.4707C158.289 53.5332 157.838 53.6384 157.429 53.7861C157.025 53.9338 156.701 54.1469 156.457 54.4253C156.218 54.698 156.099 55.0617 156.099 55.5162C156.099 56.1469 156.332 56.6242 156.798 56.948C157.264 57.2662 157.858 57.4253 158.579 57.4253ZM159.542 44.6412C158.974 44.6412 158.46 44.5162 158 44.2662C157.539 44.0105 157.173 43.6668 156.9 43.2349C156.633 42.8031 156.5 42.3173 156.5 41.7776C156.5 41.2435 156.633 40.7548 156.9 40.3117C157.173 39.8628 157.539 39.5048 158 39.2378C158.46 38.9707 158.974 38.8372 159.542 38.8372C160.105 38.8372 160.613 38.9707 161.068 39.2378C161.522 39.5048 161.883 39.8628 162.15 40.3117C162.417 40.7548 162.551 41.2435 162.551 41.7776C162.551 42.3173 162.417 42.8031 162.15 43.2349C161.883 43.6668 161.522 44.0105 161.068 44.2662C160.613 44.5162 160.105 44.6412 159.542 44.6412ZM159.542 43.2776C159.986 43.2719 160.352 43.1185 160.642 42.8173C160.932 42.5105 161.076 42.1639 161.076 41.7776C161.076 41.3798 160.932 41.0247 160.642 40.7122C160.352 40.394 159.986 40.2349 159.542 40.2349C159.093 40.2349 158.724 40.394 158.434 40.7122C158.15 41.0247 158.008 41.3798 158.008 41.7776C158.008 42.1639 158.15 42.5105 158.434 42.8173C158.724 43.1242 159.093 43.2776 159.542 43.2776ZM177.689 49.2861L175.38 49.6952C175.283 49.3997 175.13 49.1185 174.919 48.8514C174.715 48.5844 174.437 48.3656 174.084 48.1952C173.732 48.0247 173.292 47.9395 172.763 47.9395C172.042 47.9395 171.439 48.1014 170.956 48.4253C170.473 48.7435 170.232 49.1554 170.232 49.6611C170.232 50.0986 170.394 50.4509 170.718 50.7179C171.042 50.9849 171.564 51.2037 172.286 51.3742L174.365 51.8514C175.57 52.1298 176.468 52.5588 177.059 53.1384C177.65 53.7179 177.945 54.4707 177.945 55.3969C177.945 56.181 177.718 56.8798 177.263 57.4935C176.814 58.1014 176.187 58.5787 175.38 58.9253C174.579 59.2719 173.65 59.4452 172.593 59.4452C171.127 59.4452 169.931 59.1327 169.005 58.5077C168.079 57.877 167.51 56.9821 167.3 55.823L169.763 55.448C169.917 56.0901 170.232 56.5759 170.709 56.9054C171.187 57.2293 171.809 57.3912 172.576 57.3912C173.411 57.3912 174.079 57.2179 174.579 56.8713C175.079 56.519 175.329 56.0901 175.329 55.5844C175.329 55.1753 175.175 54.8315 174.868 54.5531C174.567 54.2747 174.104 54.0645 173.479 53.9224L171.263 53.4367C170.042 53.1582 169.138 52.7151 168.553 52.1071C167.973 51.4992 167.684 50.7293 167.684 49.7974C167.684 49.0247 167.9 48.3486 168.331 47.769C168.763 47.1895 169.36 46.7378 170.121 46.4139C170.883 46.0844 171.755 45.9196 172.738 45.9196C174.152 45.9196 175.266 46.2264 176.079 46.8401C176.891 47.448 177.428 48.2634 177.689 49.2861ZM186.389 59.4452C185.099 59.4452 183.988 59.1696 183.057 58.6185C182.13 58.0617 181.414 57.2804 180.909 56.2747C180.409 55.2634 180.159 54.0787 180.159 52.7207C180.159 51.3798 180.409 50.198 180.909 49.1753C181.414 48.1526 182.119 47.3543 183.022 46.7804C183.932 46.2065 184.994 45.9196 186.21 45.9196C186.949 45.9196 187.664 46.0418 188.358 46.2861C189.051 46.5304 189.673 46.9139 190.224 47.4367C190.775 47.9594 191.21 48.6384 191.528 49.4736C191.846 50.3031 192.005 51.3117 192.005 52.4992V53.4026H181.599V51.4935H189.508C189.508 50.823 189.372 50.2293 189.099 49.7122C188.826 49.1895 188.443 48.7776 187.949 48.4764C187.46 48.1753 186.886 48.0247 186.227 48.0247C185.511 48.0247 184.886 48.2009 184.352 48.5531C183.824 48.8997 183.414 49.3543 183.125 49.9168C182.841 50.4736 182.699 51.0787 182.699 51.7321V53.2236C182.699 54.0986 182.852 54.8429 183.159 55.4565C183.471 56.0702 183.906 56.5389 184.463 56.8628C185.02 57.181 185.67 57.3401 186.414 57.3401C186.897 57.3401 187.338 57.2719 187.736 57.1355C188.133 56.9935 188.477 56.7832 188.767 56.5048C189.057 56.2264 189.278 55.8827 189.432 55.4736L191.843 55.9082C191.65 56.6185 191.304 57.2406 190.804 57.7747C190.309 58.3031 189.687 58.7151 188.937 59.0105C188.193 59.3003 187.343 59.4452 186.389 59.4452ZM201.184 59.181V46.0901H203.63V48.2207H203.792C204.065 47.4992 204.511 46.9367 205.13 46.5332C205.75 46.1242 206.491 45.9196 207.355 45.9196C208.23 45.9196 208.963 46.1242 209.554 46.5332C210.15 46.9423 210.591 47.5048 210.875 48.2207H211.011C211.324 47.5219 211.821 46.9651 212.503 46.5503C213.184 46.1298 213.997 45.9196 214.94 45.9196C216.128 45.9196 217.096 46.2918 217.846 47.0361C218.602 47.7804 218.98 48.9026 218.98 50.4026V59.181H216.432V50.6412C216.432 49.7548 216.19 49.1128 215.707 48.7151C215.224 48.3173 214.647 48.1185 213.977 48.1185C213.147 48.1185 212.503 48.3742 212.042 48.8855C211.582 49.3912 211.352 50.0418 211.352 50.8372V59.181H208.812V50.4793C208.812 49.769 208.591 49.198 208.147 48.7662C207.704 48.3344 207.128 48.1185 206.417 48.1185C205.934 48.1185 205.488 48.2463 205.079 48.502C204.676 48.752 204.349 49.1014 204.099 49.5503C203.855 49.9992 203.733 50.519 203.733 51.1099V59.181H201.184ZM222.395 59.181V46.0901H224.944V59.181H222.395ZM223.682 44.0702C223.239 44.0702 222.858 43.9224 222.54 43.627C222.228 43.3259 222.071 42.9679 222.071 42.5531C222.071 42.1327 222.228 41.7747 222.54 41.4793C222.858 41.1781 223.239 41.0276 223.682 41.0276C224.125 41.0276 224.503 41.1781 224.816 41.4793C225.134 41.7747 225.293 42.1327 225.293 42.5531C225.293 42.9679 225.134 43.3259 224.816 43.627C224.503 43.9224 224.125 44.0702 223.682 44.0702ZM233.861 64.3628C232.821 64.3628 231.926 64.2264 231.176 63.9537C230.432 63.681 229.824 63.3202 229.352 62.8713C228.88 62.4224 228.528 61.931 228.295 61.3969L230.486 60.4935C230.639 60.7435 230.843 61.0077 231.099 61.2861C231.361 61.5702 231.713 61.8117 232.156 62.0105C232.605 62.2094 233.182 62.3088 233.886 62.3088C234.852 62.3088 235.65 62.073 236.281 61.6014C236.912 61.1355 237.227 60.3912 237.227 59.3685V56.7946H237.065C236.912 57.073 236.69 57.3827 236.4 57.7236C236.116 58.0645 235.724 58.3599 235.224 58.6099C234.724 58.8599 234.074 58.9849 233.272 58.9849C232.238 58.9849 231.307 58.7435 230.477 58.2605C229.653 57.7719 229 57.0531 228.517 56.1043C228.039 55.1497 227.801 53.9764 227.801 52.5844C227.801 51.1923 228.037 49.9992 228.508 49.0048C228.986 48.0105 229.639 47.2492 230.468 46.7207C231.298 46.1867 232.238 45.9196 233.289 45.9196C234.102 45.9196 234.758 46.056 235.258 46.3287C235.758 46.5957 236.147 46.9082 236.426 47.2662C236.71 47.6242 236.929 47.9395 237.082 48.2122H237.27V46.0901H239.767V59.4707C239.767 60.5957 239.505 61.519 238.983 62.2406C238.46 62.9622 237.753 63.4963 236.861 63.8429C235.974 64.1895 234.974 64.3628 233.861 64.3628ZM233.835 56.8713C234.568 56.8713 235.187 56.7009 235.693 56.3599C236.204 56.0134 236.591 55.519 236.852 54.877C237.119 54.2293 237.253 53.4537 237.253 52.5503C237.253 51.6696 237.122 50.894 236.861 50.2236C236.599 49.5531 236.216 49.0304 235.71 48.6554C235.204 48.2747 234.579 48.0844 233.835 48.0844C233.068 48.0844 232.429 48.2832 231.917 48.681C231.406 49.073 231.02 49.6071 230.758 50.2832C230.503 50.9594 230.375 51.7151 230.375 52.5503C230.375 53.4082 230.505 54.1611 230.767 54.8088C231.028 55.4565 231.414 55.9622 231.926 56.3259C232.443 56.6895 233.079 56.8713 233.835 56.8713ZM249.536 59.181V46.0901H252.084V59.181H249.536ZM250.823 44.0702C250.38 44.0702 249.999 43.9224 249.681 43.627C249.368 43.3259 249.212 42.9679 249.212 42.5531C249.212 42.1327 249.368 41.7747 249.681 41.4793C249.999 41.1781 250.38 41.0276 250.823 41.0276C251.266 41.0276 251.644 41.1781 251.956 41.4793C252.275 41.7747 252.434 42.1327 252.434 42.5531C252.434 42.9679 252.275 43.3259 251.956 43.627C251.644 43.9224 251.266 44.0702 250.823 44.0702ZM258.061 51.4082V59.181H255.513V46.0901H257.959V48.2207H258.12C258.422 47.5276 258.893 46.9707 259.535 46.5503C260.183 46.1298 260.998 45.9196 261.981 45.9196C262.873 45.9196 263.655 46.1071 264.325 46.4821C264.995 46.8514 265.515 47.4026 265.885 48.1355C266.254 48.8685 266.439 49.7747 266.439 50.8543V59.181H263.89V51.1611C263.89 50.2122 263.643 49.4707 263.149 48.9367C262.655 48.3969 261.976 48.127 261.112 48.127C260.521 48.127 259.995 48.2548 259.535 48.5105C259.081 48.7662 258.72 49.1412 258.453 49.6355C258.191 50.1242 258.061 50.7151 258.061 51.4082ZM274.757 59.4367C273.7 59.4367 272.757 59.1668 271.927 58.627C271.103 58.0815 270.456 57.306 269.984 56.3003C269.518 55.2889 269.285 54.0759 269.285 52.6611C269.285 51.2463 269.521 50.0361 269.993 49.0304C270.47 48.0247 271.123 47.2548 271.953 46.7207C272.782 46.1867 273.723 45.9196 274.774 45.9196C275.586 45.9196 276.24 46.056 276.734 46.3287C277.234 46.5957 277.62 46.9082 277.893 47.2662C278.172 47.6242 278.388 47.9395 278.541 48.2122H278.694V41.7264H281.243V59.181H278.754V57.144H278.541C278.388 57.4224 278.166 57.7406 277.876 58.0986C277.592 58.4565 277.2 58.769 276.7 59.0361C276.2 59.3031 275.552 59.4367 274.757 59.4367ZM275.319 57.2634C276.052 57.2634 276.672 57.0702 277.177 56.6838C277.689 56.2918 278.075 55.7492 278.336 55.056C278.603 54.3628 278.737 53.556 278.737 52.6355C278.737 51.7264 278.606 50.931 278.345 50.2492C278.084 49.5673 277.7 49.0361 277.194 48.6554C276.689 48.2747 276.064 48.0844 275.319 48.0844C274.552 48.0844 273.913 48.2832 273.402 48.681C272.89 49.0787 272.504 49.6213 272.243 50.3088C271.987 50.9963 271.859 51.7719 271.859 52.6355C271.859 53.5105 271.99 54.2974 272.251 54.9963C272.513 55.6952 272.899 56.2492 273.41 56.6582C273.927 57.0617 274.564 57.2634 275.319 57.2634ZM291.231 64.0901V46.0901H293.72V48.2122H293.933C294.081 47.9395 294.294 47.6242 294.572 47.2662C294.851 46.9082 295.237 46.5957 295.731 46.3287C296.226 46.056 296.879 45.9196 297.691 45.9196C298.748 45.9196 299.691 46.1867 300.521 46.7207C301.351 47.2548 302.001 48.0247 302.473 49.0304C302.95 50.0361 303.189 51.2463 303.189 52.6611C303.189 54.0759 302.953 55.2889 302.481 56.3003C302.01 57.306 301.362 58.0815 300.538 58.627C299.714 59.1668 298.774 59.4367 297.717 59.4367C296.922 59.4367 296.271 59.3031 295.765 59.0361C295.265 58.769 294.873 58.4565 294.589 58.0986C294.305 57.7406 294.086 57.4224 293.933 57.144H293.78V64.0901H291.231ZM293.728 52.6355C293.728 53.556 293.862 54.3628 294.129 55.056C294.396 55.7492 294.782 56.2918 295.288 56.6838C295.794 57.0702 296.413 57.2634 297.146 57.2634C297.907 57.2634 298.544 57.0617 299.055 56.6582C299.566 56.2492 299.953 55.6952 300.214 54.9963C300.481 54.2974 300.615 53.5105 300.615 52.6355C300.615 51.7719 300.484 50.9963 300.223 50.3088C299.967 49.6213 299.581 49.0787 299.064 48.681C298.552 48.2832 297.913 48.0844 297.146 48.0844C296.407 48.0844 295.782 48.2747 295.271 48.6554C294.765 49.0361 294.382 49.5673 294.12 50.2492C293.859 50.931 293.728 51.7264 293.728 52.6355ZM309.853 59.4707C309.024 59.4707 308.274 59.3173 307.603 59.0105C306.933 58.698 306.402 58.2463 306.01 57.6554C305.623 57.0645 305.43 56.3401 305.43 55.4821C305.43 54.7435 305.572 54.1355 305.856 53.6582C306.14 53.181 306.524 52.8031 307.007 52.5247C307.49 52.2463 308.03 52.0361 308.626 51.894C309.223 51.752 309.831 51.644 310.45 51.5702C311.234 51.4793 311.87 51.4054 312.359 51.3486C312.848 51.2861 313.203 51.1867 313.424 51.0503C313.646 50.9139 313.757 50.6923 313.757 50.3855V50.3259C313.757 49.5815 313.547 49.0048 313.126 48.5957C312.711 48.1867 312.092 47.9821 311.268 47.9821C310.41 47.9821 309.734 48.1724 309.24 48.5531C308.751 48.9281 308.413 49.3457 308.226 49.806L305.831 49.2605C306.115 48.4651 306.53 47.823 307.075 47.3344C307.626 46.8401 308.26 46.4821 308.976 46.2605C309.691 46.0332 310.444 45.9196 311.234 45.9196C311.757 45.9196 312.311 45.9821 312.896 46.1071C313.487 46.2264 314.038 46.448 314.549 46.7719C315.066 47.0957 315.49 47.5588 315.819 48.1611C316.149 48.7577 316.314 49.5332 316.314 50.4878V59.181H313.825V57.3912H313.723C313.558 57.7207 313.311 58.0446 312.981 58.3628C312.652 58.681 312.228 58.9452 311.711 59.1554C311.194 59.3656 310.575 59.4707 309.853 59.4707ZM310.407 57.4253C311.112 57.4253 311.714 57.2861 312.214 57.0077C312.72 56.7293 313.103 56.3656 313.365 55.9168C313.632 55.4622 313.765 54.9764 313.765 54.4594V52.7719C313.674 52.8628 313.498 52.948 313.237 53.0276C312.981 53.1014 312.689 53.1668 312.359 53.2236C312.03 53.2747 311.709 53.323 311.396 53.3685C311.084 53.4082 310.822 53.4423 310.612 53.4707C310.118 53.5332 309.666 53.6384 309.257 53.7861C308.853 53.9338 308.53 54.1469 308.285 54.4253C308.047 54.698 307.927 55.0617 307.927 55.5162C307.927 56.1469 308.16 56.6242 308.626 56.948C309.092 57.2662 309.686 57.4253 310.407 57.4253ZM311.37 44.6412C310.802 44.6412 310.288 44.5162 309.828 44.2662C309.368 44.0105 309.001 43.6668 308.728 43.2349C308.461 42.8031 308.328 42.3173 308.328 41.7776C308.328 41.2435 308.461 40.7548 308.728 40.3117C309.001 39.8628 309.368 39.5048 309.828 39.2378C310.288 38.9707 310.802 38.8372 311.37 38.8372C311.933 38.8372 312.441 38.9707 312.896 39.2378C313.351 39.5048 313.711 39.8628 313.978 40.3117C314.245 40.7548 314.379 41.2435 314.379 41.7776C314.379 42.3173 314.245 42.8031 313.978 43.2349C313.711 43.6668 313.351 44.0105 312.896 44.2662C312.441 44.5162 311.933 44.6412 311.37 44.6412ZM311.37 43.2776C311.814 43.2719 312.18 43.1185 312.47 42.8173C312.76 42.5105 312.905 42.1639 312.905 41.7776C312.905 41.3798 312.76 41.0247 312.47 40.7122C312.18 40.394 311.814 40.2349 311.37 40.2349C310.922 40.2349 310.552 40.394 310.263 40.7122C309.978 41.0247 309.836 41.3798 309.836 41.7776C309.836 42.1639 309.978 42.5105 310.263 42.8173C310.552 43.1242 310.922 43.2776 311.37 43.2776ZM334.352 53.752V46.0901H336.909V59.181H334.403V56.9139H334.267C333.966 57.6128 333.483 58.1952 332.818 58.6611C332.159 59.1213 331.338 59.3514 330.355 59.3514C329.514 59.3514 328.77 59.1668 328.122 58.7974C327.48 58.4224 326.974 57.8685 326.605 57.1355C326.241 56.4026 326.059 55.4963 326.059 54.4168V46.0901H328.608V54.1099C328.608 55.002 328.855 55.7122 329.349 56.2406C329.843 56.769 330.486 57.0332 331.275 57.0332C331.753 57.0332 332.227 56.9139 332.699 56.6753C333.176 56.4367 333.571 56.0759 333.883 55.5929C334.201 55.1099 334.358 54.4963 334.352 53.752ZM342.881 51.4082V59.181H340.333V46.0901H342.779V48.2207H342.941C343.242 47.5276 343.714 46.9707 344.356 46.5503C345.003 46.1298 345.819 45.9196 346.802 45.9196C347.694 45.9196 348.475 46.1071 349.145 46.4821C349.816 46.8514 350.336 47.4026 350.705 48.1355C351.074 48.8685 351.259 49.7747 351.259 50.8543V59.181H348.711V51.1611C348.711 50.2122 348.464 49.4707 347.969 48.9367C347.475 48.3969 346.796 48.127 345.932 48.127C345.341 48.127 344.816 48.2548 344.356 48.5105C343.901 48.7662 343.54 49.1412 343.273 49.6355C343.012 50.1242 342.881 50.7151 342.881 51.4082ZM354.677 59.181V46.0901H357.225V59.181H354.677ZM355.964 44.0702C355.52 44.0702 355.14 43.9224 354.821 43.627C354.509 43.3259 354.353 42.9679 354.353 42.5531C354.353 42.1327 354.509 41.7747 354.821 41.4793C355.14 41.1781 355.52 41.0276 355.964 41.0276C356.407 41.0276 356.785 41.1781 357.097 41.4793C357.415 41.7747 357.574 42.1327 357.574 42.5531C357.574 42.9679 357.415 43.3259 357.097 43.627C356.785 43.9224 356.407 44.0702 355.964 44.0702ZM371.852 46.0901L367.105 59.181H364.378L359.622 46.0901H362.358L365.673 56.1639H365.809L369.116 46.0901H371.852ZM379.444 59.4452C378.154 59.4452 377.043 59.1696 376.111 58.6185C375.185 58.0617 374.469 57.2804 373.964 56.2747C373.464 55.2634 373.214 54.0787 373.214 52.7207C373.214 51.3798 373.464 50.198 373.964 49.1753C374.469 48.1526 375.174 47.3543 376.077 46.7804C376.986 46.2065 378.049 45.9196 379.265 45.9196C380.003 45.9196 380.719 46.0418 381.412 46.2861C382.106 46.5304 382.728 46.9139 383.279 47.4367C383.83 47.9594 384.265 48.6384 384.583 49.4736C384.901 50.3031 385.06 51.3117 385.06 52.4992V53.4026H374.654V51.4935H382.563C382.563 50.823 382.427 50.2293 382.154 49.7122C381.881 49.1895 381.498 48.7776 381.003 48.4764C380.515 48.1753 379.941 48.0247 379.282 48.0247C378.566 48.0247 377.941 48.2009 377.407 48.5531C376.878 48.8997 376.469 49.3543 376.179 49.9168C375.895 50.4736 375.753 51.0787 375.753 51.7321V53.2236C375.753 54.0986 375.907 54.8429 376.214 55.4565C376.526 56.0702 376.961 56.5389 377.517 56.8628C378.074 57.181 378.725 57.3401 379.469 57.3401C379.952 57.3401 380.392 57.2719 380.79 57.1355C381.188 56.9935 381.532 56.7832 381.821 56.5048C382.111 56.2264 382.333 55.8827 382.486 55.4736L384.898 55.9082C384.705 56.6185 384.358 57.2406 383.858 57.7747C383.364 58.3031 382.742 58.7151 381.992 59.0105C381.248 59.3003 380.398 59.4452 379.444 59.4452ZM387.888 59.181V46.0901H390.351V48.1696H390.487C390.726 47.4651 391.146 46.9111 391.748 46.5077C392.356 46.0986 393.044 45.894 393.811 45.894C393.97 45.894 394.157 45.8997 394.373 45.9111C394.595 45.9224 394.768 45.9367 394.893 45.9537V48.3912C394.791 48.3628 394.609 48.3315 394.348 48.2974C394.086 48.2577 393.825 48.2378 393.564 48.2378C392.961 48.2378 392.424 48.3656 391.953 48.6213C391.487 48.8713 391.118 49.2207 390.845 49.6696C390.572 50.1128 390.436 50.6185 390.436 51.1867V59.181H387.888ZM406.908 49.2861L404.598 49.6952C404.502 49.3997 404.348 49.1185 404.138 48.8514C403.934 48.5844 403.655 48.3656 403.303 48.1952C402.951 48.0247 402.51 47.9395 401.982 47.9395C401.26 47.9395 400.658 48.1014 400.175 48.4253C399.692 48.7435 399.451 49.1554 399.451 49.6611C399.451 50.0986 399.613 50.4509 399.937 50.7179C400.26 50.9849 400.783 51.2037 401.505 51.3742L403.584 51.8514C404.789 52.1298 405.687 52.5588 406.277 53.1384C406.868 53.7179 407.164 54.4707 407.164 55.3969C407.164 56.181 406.937 56.8798 406.482 57.4935C406.033 58.1014 405.405 58.5787 404.598 58.9253C403.797 59.2719 402.868 59.4452 401.812 59.4452C400.346 59.4452 399.15 59.1327 398.223 58.5077C397.297 57.877 396.729 56.9821 396.519 55.823L398.982 55.448C399.135 56.0901 399.451 56.5759 399.928 56.9054C400.405 57.2293 401.027 57.3912 401.794 57.3912C402.63 57.3912 403.297 57.2179 403.797 56.8713C404.297 56.519 404.547 56.0901 404.547 55.5844C404.547 55.1753 404.394 54.8315 404.087 54.5531C403.786 54.2747 403.323 54.0645 402.698 53.9224L400.482 53.4367C399.26 53.1582 398.357 52.7151 397.772 52.1071C397.192 51.4992 396.902 50.7293 396.902 49.7974C396.902 49.0247 397.118 48.3486 397.55 47.769C397.982 47.1895 398.579 46.7378 399.34 46.4139C400.101 46.0844 400.973 45.9196 401.956 45.9196C403.371 45.9196 404.485 46.2264 405.297 46.8401C406.11 47.448 406.647 48.2634 406.908 49.2861ZM409.966 59.181V46.0901H412.514V59.181H409.966ZM411.253 44.0702C410.809 44.0702 410.429 43.9224 410.111 43.627C409.798 43.3259 409.642 42.9679 409.642 42.5531C409.642 42.1327 409.798 41.7747 410.111 41.4793C410.429 41.1781 410.809 41.0276 411.253 41.0276C411.696 41.0276 412.074 41.1781 412.386 41.4793C412.704 41.7747 412.863 42.1327 412.863 42.5531C412.863 42.9679 412.704 43.3259 412.386 43.627C412.074 43.9224 411.696 44.0702 411.253 44.0702ZM422.053 46.0901V48.1355H414.902V46.0901H422.053ZM416.82 42.9537H419.368V55.3372C419.368 55.8315 419.442 56.2037 419.59 56.4537C419.738 56.698 419.928 56.8656 420.161 56.9565C420.4 57.0418 420.658 57.0844 420.937 57.0844C421.141 57.0844 421.32 57.0702 421.473 57.0418C421.627 57.0134 421.746 56.9906 421.831 56.9736L422.292 59.0787C422.144 59.1355 421.934 59.1923 421.661 59.2492C421.388 59.3117 421.047 59.3457 420.638 59.3514C419.968 59.3628 419.343 59.2435 418.763 58.9935C418.184 58.7435 417.715 58.3571 417.357 57.8344C416.999 57.3117 416.82 56.6554 416.82 55.8656V42.9537ZM430.373 59.4452C429.084 59.4452 427.973 59.1696 427.041 58.6185C426.115 58.0617 425.399 57.2804 424.893 56.2747C424.393 55.2634 424.143 54.0787 424.143 52.7207C424.143 51.3798 424.393 50.198 424.893 49.1753C425.399 48.1526 426.103 47.3543 427.007 46.7804C427.916 46.2065 428.978 45.9196 430.194 45.9196C430.933 45.9196 431.649 46.0418 432.342 46.2861C433.035 46.5304 433.657 46.9139 434.209 47.4367C434.76 47.9594 435.194 48.6384 435.513 49.4736C435.831 50.3031 435.99 51.3117 435.99 52.4992V53.4026H425.584V51.4935H433.493C433.493 50.823 433.356 50.2293 433.084 49.7122C432.811 49.1895 432.427 48.7776 431.933 48.4764C431.444 48.1753 430.87 48.0247 430.211 48.0247C429.495 48.0247 428.87 48.2009 428.336 48.5531C427.808 48.8997 427.399 49.3543 427.109 49.9168C426.825 50.4736 426.683 51.0787 426.683 51.7321V53.2236C426.683 54.0986 426.836 54.8429 427.143 55.4565C427.456 56.0702 427.89 56.5389 428.447 56.8628C429.004 57.181 429.655 57.3401 430.399 57.3401C430.882 57.3401 431.322 57.2719 431.72 57.1355C432.118 56.9935 432.461 56.7832 432.751 56.5048C433.041 56.2264 433.263 55.8827 433.416 55.4736L435.828 55.9082C435.635 56.6185 435.288 57.2406 434.788 57.7747C434.294 58.3031 433.672 58.7151 432.922 59.0105C432.177 59.3003 431.328 59.4452 430.373 59.4452ZM444.928 46.0901V48.1355H437.777V46.0901H444.928ZM439.695 42.9537H442.243V55.3372C442.243 55.8315 442.317 56.2037 442.465 56.4537C442.613 56.698 442.803 56.8656 443.036 56.9565C443.275 57.0418 443.533 57.0844 443.812 57.0844C444.016 57.0844 444.195 57.0702 444.348 57.0418C444.502 57.0134 444.621 56.9906 444.706 56.9736L445.167 59.0787C445.019 59.1355 444.809 59.1923 444.536 59.2492C444.263 59.3117 443.922 59.3457 443.513 59.3514C442.843 59.3628 442.218 59.2435 441.638 58.9935C441.059 58.7435 440.59 58.3571 440.232 57.8344C439.874 57.3117 439.695 56.6554 439.695 55.8656V42.9537ZM453.248 59.4452C451.959 59.4452 450.848 59.1696 449.916 58.6185C448.99 58.0617 448.274 57.2804 447.768 56.2747C447.268 55.2634 447.018 54.0787 447.018 52.7207C447.018 51.3798 447.268 50.198 447.768 49.1753C448.274 48.1526 448.978 47.3543 449.882 46.7804C450.791 46.2065 451.853 45.9196 453.069 45.9196C453.808 45.9196 454.524 46.0418 455.217 46.2861C455.91 46.5304 456.532 46.9139 457.084 47.4367C457.635 47.9594 458.069 48.6384 458.388 49.4736C458.706 50.3031 458.865 51.3117 458.865 52.4992V53.4026H448.459V51.4935H456.368C456.368 50.823 456.231 50.2293 455.959 49.7122C455.686 49.1895 455.302 48.7776 454.808 48.4764C454.319 48.1753 453.745 48.0247 453.086 48.0247C452.37 48.0247 451.745 48.2009 451.211 48.5531C450.683 48.8997 450.274 49.3543 449.984 49.9168C449.7 50.4736 449.558 51.0787 449.558 51.7321V53.2236C449.558 54.0986 449.711 54.8429 450.018 55.4565C450.331 56.0702 450.765 56.5389 451.322 56.8628C451.879 57.181 452.53 57.3401 453.274 57.3401C453.757 57.3401 454.197 57.2719 454.595 57.1355C454.993 56.9935 455.336 56.7832 455.626 56.5048C455.916 56.2264 456.138 55.8827 456.291 55.4736L458.703 55.9082C458.51 56.6185 458.163 57.2406 457.663 57.7747C457.169 58.3031 456.547 58.7151 455.797 59.0105C455.052 59.3003 454.203 59.4452 453.248 59.4452ZM464.24 51.4082V59.181H461.692V46.0901H464.138V48.2207H464.3C464.601 47.5276 465.073 46.9707 465.715 46.5503C466.363 46.1298 467.178 45.9196 468.161 45.9196C469.053 45.9196 469.834 46.1071 470.505 46.4821C471.175 46.8514 471.695 47.4026 472.064 48.1355C472.434 48.8685 472.618 49.7747 472.618 50.8543V59.181H470.07V51.1611C470.07 50.2122 469.823 49.4707 469.329 48.9367C468.834 48.3969 468.155 48.127 467.292 48.127C466.701 48.127 466.175 48.2548 465.715 48.5105C465.26 48.7662 464.9 49.1412 464.633 49.6355C464.371 50.1242 464.24 50.7151 464.24 51.4082ZM478.823 54.1611V53.9992C478.834 52.9423 478.939 52.1014 479.138 51.4764C479.343 50.8514 479.633 50.3457 480.008 49.9594C480.383 49.573 480.834 49.2207 481.363 48.9026C481.704 48.6867 482.01 48.4452 482.283 48.1781C482.556 47.9111 482.772 47.6043 482.931 47.2577C483.09 46.9111 483.169 46.5276 483.169 46.1071C483.169 45.6014 483.05 45.1639 482.812 44.7946C482.573 44.4253 482.255 44.1412 481.857 43.9423C481.465 43.7378 481.027 43.6355 480.544 43.6355C480.107 43.6355 479.689 43.7264 479.292 43.9082C478.894 44.0901 478.564 44.3742 478.303 44.7605C478.042 45.1412 477.891 45.6327 477.851 46.2349H475.26C475.3 45.2122 475.559 44.3486 476.036 43.644C476.513 42.9338 477.144 42.3969 477.928 42.0332C478.718 41.6696 479.59 41.4878 480.544 41.4878C481.59 41.4878 482.505 41.6838 483.289 42.0759C484.073 42.4622 484.681 43.0048 485.113 43.7037C485.55 44.3969 485.769 45.2065 485.769 46.1327C485.769 46.769 485.669 47.3429 485.471 47.8543C485.272 48.3599 484.988 48.8117 484.618 49.2094C484.255 49.6071 483.817 49.9594 483.306 50.2662C482.823 50.5673 482.431 50.8798 482.13 51.2037C481.834 51.5276 481.618 51.9111 481.482 52.3543C481.346 52.7974 481.272 53.3457 481.26 53.9992V54.1611H478.823ZM480.11 59.3429C479.644 59.3429 479.243 59.1781 478.908 58.8486C478.573 58.5134 478.405 58.1099 478.405 57.6384C478.405 57.1724 478.573 56.7747 478.908 56.4452C479.243 56.1099 479.644 55.9423 480.11 55.9423C480.57 55.9423 480.968 56.1099 481.303 56.4452C481.644 56.7747 481.814 57.1724 481.814 57.6384C481.814 57.9509 481.735 58.2378 481.576 58.4992C481.422 58.7548 481.218 58.9594 480.962 59.1128C480.706 59.2662 480.422 59.3429 480.11 59.3429Z" fill="white"/>
<defs>
<filter id="filter0_d_279_973" x="0" y="0.297546" width="566.559" height="87.1595" filterUnits="userSpaceOnUse" color-interpolation-filters="sRGB">
<feFlood flood-opacity="0" result="BackgroundImageFix"/>
<feColorMatrix in="SourceAlpha" type="matrix" values="0 0 0 0 0 0 0 0 0 0 0 0 0 0 0 0 0 0 127 0" result="hardAlpha"/>
<feOffset dx="-5" dy="4"/>
<feGaussianBlur stdDeviation="2"/>
<feComposite in2="hardAlpha" operator="out"/>
<feColorMatrix type="matrix" values="0 0 0 0 0 0 0 0 0 0 0 0 0 0 0 0 0 0 0.38 0"/>
<feBlend mode="normal" in2="BackgroundImageFix" result="effect1_dropShadow_279_973"/>
<feBlend mode="normal" in="SourceGraphic" in2="effect1_dropShadow_279_973" result="shape"/>
</filter>
</defs>
</svg>
