<svg width="567" height="88" viewBox="0 0 567 88" fill="none" xmlns="http://www.w3.org/2000/svg">
<g filter="url(#filter0_d_279_982)">
<rect x="9.44189" y="0.190186" width="557.558" height="79.1595" rx="14" fill="#03266A"/>
</g>
<path d="M96.6956 30.0736V12.6191H99.3292V20.2043H108.031V12.6191H110.673V30.0736H108.031V22.4628H99.3292V30.0736H96.6956ZM125.502 16.9827L120.755 30.0736H118.028L113.272 16.9827H116.008L119.323 27.0566H119.46L122.767 16.9827H125.502ZM132.966 30.3378C131.739 30.3378 130.668 30.0566 129.753 29.4941C128.838 28.9316 128.128 28.1446 127.622 27.1333C127.117 26.1219 126.864 24.9401 126.864 23.5878C126.864 22.2299 127.117 21.0424 127.622 20.0253C128.128 19.0083 128.838 18.2185 129.753 17.656C130.668 17.0935 131.739 16.8122 132.966 16.8122C134.193 16.8122 135.265 17.0935 136.179 17.656C137.094 18.2185 137.804 19.0083 138.31 20.0253C138.816 21.0424 139.068 22.2299 139.068 23.5878C139.068 24.9401 138.816 26.1219 138.31 27.1333C137.804 28.1446 137.094 28.9316 136.179 29.4941C135.265 30.0566 134.193 30.3378 132.966 30.3378ZM132.975 28.1986C133.77 28.1986 134.429 27.9884 134.952 27.5679C135.475 27.1475 135.861 26.5878 136.111 25.8889C136.367 25.1901 136.495 24.4202 136.495 23.5793C136.495 22.7441 136.367 21.977 136.111 21.2782C135.861 20.5736 135.475 20.0083 134.952 19.5821C134.429 19.156 133.77 18.9429 132.975 18.9429C132.174 18.9429 131.509 19.156 130.98 19.5821C130.458 20.0083 130.068 20.5736 129.813 21.2782C129.563 21.977 129.438 22.7441 129.438 23.5793C129.438 24.4202 129.563 25.1901 129.813 25.8889C130.068 26.5878 130.458 27.1475 130.98 27.5679C131.509 27.9884 132.174 28.1986 132.975 28.1986ZM141.913 30.0736V16.9827H144.376V19.0622H144.512C144.751 18.3577 145.171 17.8037 145.774 17.4003C146.382 16.9912 147.069 16.7867 147.836 16.7867C147.995 16.7867 148.183 16.7924 148.399 16.8037C148.62 16.8151 148.794 16.8293 148.919 16.8463V19.2838C148.816 19.2554 148.635 19.2242 148.373 19.1901C148.112 19.1503 147.85 19.1304 147.589 19.1304C146.987 19.1304 146.45 19.2583 145.978 19.5139C145.512 19.7639 145.143 20.1134 144.87 20.5622C144.598 21.0054 144.461 21.5111 144.461 22.0793V30.0736H141.913ZM155.556 30.3293C154.499 30.3293 153.556 30.0594 152.726 29.5196C151.902 28.9742 151.255 28.1986 150.783 27.1929C150.317 26.1816 150.084 24.9685 150.084 23.5537C150.084 22.1389 150.32 20.9287 150.792 19.923C151.269 18.9174 151.922 18.1475 152.752 17.6134C153.581 17.0793 154.522 16.8122 155.573 16.8122C156.385 16.8122 157.039 16.9486 157.533 17.2213C158.033 17.4884 158.419 17.8009 158.692 18.1588C158.97 18.5168 159.186 18.8321 159.34 19.1049H159.493V12.6191H162.042V30.0736H159.553V28.0367H159.34C159.186 28.3151 158.965 28.6333 158.675 28.9912C158.391 29.3492 157.999 29.6617 157.499 29.9287C156.999 30.1958 156.351 30.3293 155.556 30.3293ZM156.118 28.156C156.851 28.156 157.47 27.9628 157.976 27.5764C158.488 27.1844 158.874 26.6418 159.135 25.9486C159.402 25.2554 159.536 24.4486 159.536 23.5282C159.536 22.6191 159.405 21.8236 159.144 21.1418C158.882 20.46 158.499 19.9287 157.993 19.548C157.488 19.1674 156.863 18.977 156.118 18.977C155.351 18.977 154.712 19.1759 154.201 19.5736C153.689 19.9713 153.303 20.5139 153.042 21.2014C152.786 21.8889 152.658 22.6645 152.658 23.5282C152.658 24.4032 152.789 25.1901 153.05 25.8889C153.311 26.5878 153.698 27.1418 154.209 27.5509C154.726 27.9543 155.363 28.156 156.118 28.156ZM169.488 30.3634C168.659 30.3634 167.909 30.21 167.238 29.9032C166.568 29.5907 166.037 29.1389 165.644 28.548C165.258 27.9571 165.065 27.2327 165.065 26.3747C165.065 25.6361 165.207 25.0282 165.491 24.5509C165.775 24.0736 166.159 23.6958 166.642 23.4174C167.125 23.1389 167.664 22.9287 168.261 22.7867C168.858 22.6446 169.466 22.5367 170.085 22.4628C170.869 22.3719 171.505 22.298 171.994 22.2412C172.483 22.1787 172.838 22.0793 173.059 21.9429C173.281 21.8066 173.392 21.585 173.392 21.2782V21.2185C173.392 20.4742 173.181 19.8975 172.761 19.4884C172.346 19.0793 171.727 18.8747 170.903 18.8747C170.045 18.8747 169.369 19.0651 168.875 19.4458C168.386 19.8208 168.048 20.2384 167.86 20.6986L165.466 20.1532C165.75 19.3577 166.164 18.7157 166.71 18.227C167.261 17.7327 167.894 17.3747 168.61 17.1532C169.326 16.9259 170.079 16.8122 170.869 16.8122C171.392 16.8122 171.946 16.8747 172.531 16.9997C173.122 17.1191 173.673 17.3407 174.184 17.6645C174.701 17.9884 175.125 18.4514 175.454 19.0537C175.784 19.6503 175.948 20.4259 175.948 21.3804V30.0736H173.46V28.2838H173.358C173.193 28.6134 172.946 28.9372 172.616 29.2554C172.287 29.5736 171.863 29.8378 171.346 30.048C170.829 30.2583 170.21 30.3634 169.488 30.3634ZM170.042 28.3179C170.747 28.3179 171.349 28.1787 171.849 27.9003C172.355 27.6219 172.738 27.2583 173 26.8094C173.267 26.3549 173.4 25.8691 173.4 25.352V23.6645C173.309 23.7554 173.133 23.8407 172.872 23.9202C172.616 23.9941 172.323 24.0594 171.994 24.1162C171.664 24.1674 171.343 24.2157 171.031 24.2611C170.718 24.3009 170.457 24.335 170.247 24.3634C169.752 24.4259 169.301 24.531 168.892 24.6787C168.488 24.8264 168.164 25.0395 167.92 25.3179C167.681 25.5907 167.562 25.9543 167.562 26.4088C167.562 27.0395 167.795 27.5168 168.261 27.8407C168.727 28.1588 169.321 28.3179 170.042 28.3179ZM181.891 22.3009V30.0736H179.343V16.9827H181.789V19.1134H181.951C182.252 18.4202 182.723 17.8634 183.365 17.4429C184.013 17.0225 184.828 16.8122 185.811 16.8122C186.703 16.8122 187.485 16.9997 188.155 17.3747C188.826 17.7441 189.345 18.2952 189.715 19.0282C190.084 19.7611 190.269 20.6674 190.269 21.7469V30.0736H187.72V22.0537C187.72 21.1049 187.473 20.3634 186.979 19.8293C186.485 19.2895 185.806 19.0196 184.942 19.0196C184.351 19.0196 183.826 19.1475 183.365 19.4032C182.911 19.6588 182.55 20.0338 182.283 20.5282C182.022 21.0168 181.891 21.6077 181.891 22.3009ZM209.848 20.1787L207.538 20.5878C207.441 20.2924 207.288 20.0111 207.078 19.7441C206.873 19.477 206.595 19.2583 206.243 19.0878C205.89 18.9174 205.45 18.8321 204.921 18.8321C204.2 18.8321 203.598 18.9941 203.115 19.3179C202.632 19.6361 202.39 20.048 202.39 20.5537C202.39 20.9912 202.552 21.3435 202.876 21.6105C203.2 21.8776 203.723 22.0963 204.444 22.2668L206.524 22.7441C207.728 23.0225 208.626 23.4514 209.217 24.031C209.808 24.6105 210.103 25.3634 210.103 26.2895C210.103 27.0736 209.876 27.7725 209.421 28.3861C208.973 28.9941 208.345 29.4713 207.538 29.8179C206.737 30.1645 205.808 30.3378 204.751 30.3378C203.285 30.3378 202.089 30.0253 201.163 29.4003C200.237 28.7696 199.669 27.8747 199.458 26.7157L201.921 26.3407C202.075 26.9827 202.39 27.4685 202.868 27.798C203.345 28.1219 203.967 28.2838 204.734 28.2838C205.569 28.2838 206.237 28.1105 206.737 27.7639C207.237 27.4117 207.487 26.9827 207.487 26.477C207.487 26.0679 207.333 25.7242 207.027 25.4458C206.725 25.1674 206.262 24.9571 205.637 24.8151L203.421 24.3293C202.2 24.0509 201.296 23.6077 200.711 22.9997C200.132 22.3918 199.842 21.6219 199.842 20.6901C199.842 19.9174 200.058 19.2412 200.49 18.6617C200.921 18.0821 201.518 17.6304 202.279 17.3066C203.041 16.977 203.913 16.8122 204.896 16.8122C206.311 16.8122 207.424 17.1191 208.237 17.7327C209.049 18.3407 209.586 19.156 209.848 20.1787ZM218.547 30.3378C217.257 30.3378 216.147 30.0622 215.215 29.5111C214.289 28.9543 213.573 28.173 213.067 27.1674C212.567 26.156 212.317 24.9713 212.317 23.6134C212.317 22.2725 212.567 21.0907 213.067 20.0679C213.573 19.0452 214.277 18.2469 215.181 17.673C216.09 17.0992 217.152 16.8122 218.368 16.8122C219.107 16.8122 219.823 16.9344 220.516 17.1787C221.209 17.423 221.831 17.8066 222.382 18.3293C222.934 18.852 223.368 19.531 223.686 20.3662C224.005 21.1958 224.164 22.2043 224.164 23.3918V24.2952H213.757V22.3861H221.667C221.667 21.7157 221.53 21.1219 221.257 20.6049C220.985 20.0821 220.601 19.6702 220.107 19.3691C219.618 19.0679 219.044 18.9174 218.385 18.9174C217.669 18.9174 217.044 19.0935 216.51 19.4458C215.982 19.7924 215.573 20.2469 215.283 20.8094C214.999 21.3662 214.857 21.9713 214.857 22.6247V24.1162C214.857 24.9912 215.01 25.7355 215.317 26.3492C215.63 26.9628 216.064 27.4316 216.621 27.7554C217.178 28.0736 217.828 28.2327 218.573 28.2327C219.056 28.2327 219.496 28.1645 219.894 28.0282C220.292 27.8861 220.635 27.6759 220.925 27.3975C221.215 27.1191 221.436 26.7753 221.59 26.3662L224.002 26.8009C223.809 27.5111 223.462 28.1333 222.962 28.6674C222.468 29.1958 221.845 29.6077 221.095 29.9032C220.351 30.1929 219.502 30.3378 218.547 30.3378ZM226.991 30.0736V16.9827H229.454V19.0622H229.591C229.829 18.3577 230.25 17.8037 230.852 17.4003C231.46 16.9912 232.147 16.7867 232.914 16.7867C233.073 16.7867 233.261 16.7924 233.477 16.8037C233.698 16.8151 233.872 16.8293 233.997 16.8463V19.2838C233.894 19.2554 233.713 19.2242 233.451 19.1901C233.19 19.1503 232.929 19.1304 232.667 19.1304C232.065 19.1304 231.528 19.2583 231.056 19.5139C230.591 19.7639 230.221 20.1134 229.948 20.5622C229.676 21.0054 229.539 21.5111 229.539 22.0793V30.0736H226.991ZM242.554 16.9827H245.102V30.9259C245.102 31.8009 244.943 32.5395 244.625 33.1418C244.312 33.7441 243.846 34.2014 243.227 34.5139C242.613 34.8264 241.855 34.9827 240.951 34.9827C240.86 34.9827 240.775 34.9827 240.696 34.9827C240.61 34.9827 240.522 34.9799 240.431 34.9742V32.7838C240.511 32.7838 240.582 32.7838 240.644 32.7838C240.701 32.7838 240.767 32.7838 240.841 32.7838C241.443 32.7838 241.877 32.6219 242.144 32.298C242.417 31.9799 242.554 31.5168 242.554 30.9088V16.9827ZM243.815 14.9628C243.372 14.9628 242.991 14.8151 242.673 14.5196C242.36 14.2185 242.204 13.8605 242.204 13.4458C242.204 13.0253 242.36 12.6674 242.673 12.3719C242.991 12.0708 243.372 11.9202 243.815 11.9202C244.258 11.9202 244.636 12.0708 244.948 12.3719C245.267 12.6674 245.426 13.0253 245.426 13.4458C245.426 13.8605 245.267 14.2185 244.948 14.5196C244.636 14.8151 244.258 14.9628 243.815 14.9628ZM254.172 30.3378C252.882 30.3378 251.772 30.0622 250.84 29.5111C249.914 28.9543 249.198 28.173 248.692 27.1674C248.192 26.156 247.942 24.9713 247.942 23.6134C247.942 22.2725 248.192 21.0907 248.692 20.0679C249.198 19.0452 249.902 18.2469 250.806 17.673C251.715 17.0992 252.777 16.8122 253.993 16.8122C254.732 16.8122 255.448 16.9344 256.141 17.1787C256.834 17.423 257.456 17.8066 258.007 18.3293C258.559 18.852 258.993 19.531 259.311 20.3662C259.63 21.1958 259.789 22.2043 259.789 23.3918V24.2952H249.382V22.3861H257.292C257.292 21.7157 257.155 21.1219 256.882 20.6049C256.61 20.0821 256.226 19.6702 255.732 19.3691C255.243 19.0679 254.669 18.9174 254.01 18.9174C253.294 18.9174 252.669 19.0935 252.135 19.4458C251.607 19.7924 251.198 20.2469 250.908 20.8094C250.624 21.3662 250.482 21.9713 250.482 22.6247V24.1162C250.482 24.9912 250.635 25.7355 250.942 26.3492C251.255 26.9628 251.689 27.4316 252.246 27.7554C252.803 28.0736 253.453 28.2327 254.198 28.2327C254.681 28.2327 255.121 28.1645 255.519 28.0282C255.917 27.8861 256.26 27.6759 256.55 27.3975C256.84 27.1191 257.061 26.7753 257.215 26.3662L259.627 26.8009C259.434 27.5111 259.087 28.1333 258.587 28.6674C258.093 29.1958 257.47 29.6077 256.72 29.9032C255.976 30.1929 255.127 30.3378 254.172 30.3378ZM268.105 35.2554C267.065 35.2554 266.17 35.1191 265.42 34.8463C264.676 34.5736 264.068 34.2128 263.596 33.7639C263.125 33.3151 262.772 32.8236 262.539 32.2895L264.73 31.3861C264.883 31.6361 265.088 31.9003 265.343 32.1787C265.605 32.4628 265.957 32.7043 266.4 32.9032C266.849 33.102 267.426 33.2014 268.13 33.2014C269.096 33.2014 269.894 32.9657 270.525 32.4941C271.156 32.0282 271.471 31.2838 271.471 30.2611V27.6872H271.309C271.156 27.9657 270.934 28.2753 270.644 28.6162C270.36 28.9571 269.968 29.2526 269.468 29.5026C268.968 29.7526 268.318 29.8776 267.517 29.8776C266.483 29.8776 265.551 29.6361 264.721 29.1532C263.897 28.6645 263.244 27.9458 262.761 26.9969C262.284 26.0424 262.045 24.8691 262.045 23.477C262.045 22.085 262.281 20.8918 262.752 19.8975C263.23 18.9032 263.883 18.1418 264.713 17.6134C265.542 17.0793 266.483 16.8122 267.534 16.8122C268.346 16.8122 269.002 16.9486 269.502 17.2213C270.002 17.4884 270.392 17.8009 270.67 18.1588C270.954 18.5168 271.173 18.8321 271.326 19.1049H271.514V16.9827H274.011V30.3634C274.011 31.4884 273.75 32.4117 273.227 33.1333C272.704 33.8549 271.997 34.3889 271.105 34.7355C270.218 35.0821 269.218 35.2554 268.105 35.2554ZM268.079 27.7639C268.812 27.7639 269.431 27.5935 269.937 27.2526C270.448 26.906 270.835 26.4117 271.096 25.7696C271.363 25.1219 271.497 24.3463 271.497 23.4429C271.497 22.5622 271.366 21.7867 271.105 21.1162C270.843 20.4458 270.46 19.923 269.954 19.548C269.448 19.1674 268.823 18.977 268.079 18.977C267.312 18.977 266.673 19.1759 266.162 19.5736C265.65 19.9657 265.264 20.4997 265.002 21.1759C264.747 21.852 264.619 22.6077 264.619 23.4429C264.619 24.3009 264.75 25.0537 265.011 25.7014C265.272 26.3492 265.659 26.8549 266.17 27.2185C266.687 27.5821 267.323 27.7639 268.079 27.7639ZM289.422 30.3378C288.132 30.3378 287.022 30.0622 286.09 29.5111C285.164 28.9543 284.448 28.173 283.942 27.1674C283.442 26.156 283.192 24.9713 283.192 23.6134C283.192 22.2725 283.442 21.0907 283.942 20.0679C284.448 19.0452 285.152 18.2469 286.056 17.673C286.965 17.0992 288.027 16.8122 289.243 16.8122C289.982 16.8122 290.698 16.9344 291.391 17.1787C292.084 17.423 292.706 17.8066 293.257 18.3293C293.809 18.852 294.243 19.531 294.561 20.3662C294.88 21.1958 295.039 22.2043 295.039 23.3918V24.2952H284.632V22.3861H292.542C292.542 21.7157 292.405 21.1219 292.132 20.6049C291.86 20.0821 291.476 19.6702 290.982 19.3691C290.493 19.0679 289.919 18.9174 289.26 18.9174C288.544 18.9174 287.919 19.0935 287.385 19.4458C286.857 19.7924 286.448 20.2469 286.158 20.8094C285.874 21.3662 285.732 21.9713 285.732 22.6247V24.1162C285.732 24.9912 285.885 25.7355 286.192 26.3492C286.505 26.9628 286.939 27.4316 287.496 27.7554C288.053 28.0736 288.703 28.2327 289.448 28.2327C289.931 28.2327 290.371 28.1645 290.769 28.0282C291.167 27.8861 291.51 27.6759 291.8 27.3975C292.09 27.1191 292.311 26.7753 292.465 26.3662L294.877 26.8009C294.684 27.5111 294.337 28.1333 293.837 28.6674C293.343 29.1958 292.72 29.6077 291.97 29.9032C291.226 30.1929 290.377 30.3378 289.422 30.3378ZM300.414 22.3009V30.0736H297.866V16.9827H300.312V19.1134H300.474C300.775 18.4202 301.247 17.8634 301.889 17.4429C302.537 17.0225 303.352 16.8122 304.335 16.8122C305.227 16.8122 306.008 16.9997 306.679 17.3747C307.349 17.7441 307.869 18.2952 308.238 19.0282C308.608 19.7611 308.792 20.6674 308.792 21.7469V30.0736H306.244V22.0537C306.244 21.1049 305.997 20.3634 305.502 19.8293C305.008 19.2895 304.329 19.0196 303.466 19.0196C302.875 19.0196 302.349 19.1475 301.889 19.4032C301.434 19.6588 301.073 20.0338 300.806 20.5282C300.545 21.0168 300.414 21.6077 300.414 22.3009ZM324.076 30.3378C322.848 30.3378 321.777 30.0566 320.863 29.4941C319.948 28.9316 319.238 28.1446 318.732 27.1333C318.226 26.1219 317.973 24.9401 317.973 23.5878C317.973 22.2299 318.226 21.0424 318.732 20.0253C319.238 19.0083 319.948 18.2185 320.863 17.656C321.777 17.0935 322.848 16.8122 324.076 16.8122C325.303 16.8122 326.374 17.0935 327.289 17.656C328.203 18.2185 328.914 19.0083 329.419 20.0253C329.925 21.0424 330.178 22.2299 330.178 23.5878C330.178 24.9401 329.925 26.1219 329.419 27.1333C328.914 28.1446 328.203 28.9316 327.289 29.4941C326.374 30.0566 325.303 30.3378 324.076 30.3378ZM324.084 28.1986C324.88 28.1986 325.539 27.9884 326.061 27.5679C326.584 27.1475 326.97 26.5878 327.22 25.8889C327.476 25.1901 327.604 24.4202 327.604 23.5793C327.604 22.7441 327.476 21.977 327.22 21.2782C326.97 20.5736 326.584 20.0083 326.061 19.5821C325.539 19.156 324.88 18.9429 324.084 18.9429C323.283 18.9429 322.618 19.156 322.09 19.5821C321.567 20.0083 321.178 20.5736 320.922 21.2782C320.672 21.977 320.547 22.7441 320.547 23.5793C320.547 24.4202 320.672 25.1901 320.922 25.8889C321.178 26.5878 321.567 27.1475 322.09 27.5679C322.618 27.9884 323.283 28.1986 324.084 28.1986ZM343.776 16.9827L339.029 30.0736H336.301L331.546 16.9827H334.282L337.597 27.0566H337.733L341.04 16.9827H343.776ZM351.368 30.3378C350.078 30.3378 348.967 30.0622 348.035 29.5111C347.109 28.9543 346.393 28.173 345.887 27.1674C345.387 26.156 345.137 24.9713 345.137 23.6134C345.137 22.2725 345.387 21.0907 345.887 20.0679C346.393 19.0452 347.098 18.2469 348.001 17.673C348.91 17.0992 349.973 16.8122 351.189 16.8122C351.927 16.8122 352.643 16.9344 353.336 17.1787C354.029 17.423 354.652 17.8066 355.203 18.3293C355.754 18.852 356.189 19.531 356.507 20.3662C356.825 21.1958 356.984 22.2043 356.984 23.3918V24.2952H346.578V22.3861H354.487C354.487 21.7157 354.35 21.1219 354.078 20.6049C353.805 20.0821 353.421 19.6702 352.927 19.3691C352.439 19.0679 351.865 18.9174 351.206 18.9174C350.49 18.9174 349.865 19.0935 349.331 19.4458C348.802 19.7924 348.393 20.2469 348.103 20.8094C347.819 21.3662 347.677 21.9713 347.677 22.6247V24.1162C347.677 24.9912 347.831 25.7355 348.137 26.3492C348.45 26.9628 348.885 27.4316 349.441 27.7554C349.998 28.0736 350.649 28.2327 351.393 28.2327C351.876 28.2327 352.316 28.1645 352.714 28.0282C353.112 27.8861 353.456 27.6759 353.745 27.3975C354.035 27.1191 354.257 26.7753 354.41 26.3662L356.822 26.8009C356.629 27.5111 356.282 28.1333 355.782 28.6674C355.288 29.1958 354.666 29.6077 353.916 29.9032C353.171 30.1929 352.322 30.3378 351.368 30.3378ZM359.811 30.0736V16.9827H362.274V19.0622H362.411C362.649 18.3577 363.07 17.8037 363.672 17.4003C364.28 16.9912 364.968 16.7867 365.735 16.7867C365.894 16.7867 366.081 16.7924 366.297 16.8037C366.519 16.8151 366.692 16.8293 366.817 16.8463V19.2838C366.715 19.2554 366.533 19.2242 366.272 19.1901C366.01 19.1503 365.749 19.1304 365.488 19.1304C364.885 19.1304 364.348 19.2583 363.877 19.5139C363.411 19.7639 363.042 20.1134 362.769 20.5622C362.496 21.0054 362.36 21.5111 362.36 22.0793V30.0736H359.811ZM378.832 20.1787L376.522 20.5878C376.426 20.2924 376.272 20.0111 376.062 19.7441C375.858 19.477 375.579 19.2583 375.227 19.0878C374.875 18.9174 374.434 18.8321 373.906 18.8321C373.184 18.8321 372.582 18.9941 372.099 19.3179C371.616 19.6361 371.375 20.048 371.375 20.5537C371.375 20.9912 371.537 21.3435 371.86 21.6105C372.184 21.8776 372.707 22.0963 373.429 22.2668L375.508 22.7441C376.713 23.0225 377.61 23.4514 378.201 24.031C378.792 24.6105 379.088 25.3634 379.088 26.2895C379.088 27.0736 378.86 27.7725 378.406 28.3861C377.957 28.9941 377.329 29.4713 376.522 29.8179C375.721 30.1645 374.792 30.3378 373.735 30.3378C372.269 30.3378 371.073 30.0253 370.147 29.4003C369.221 28.7696 368.653 27.8747 368.443 26.7157L370.906 26.3407C371.059 26.9827 371.375 27.4685 371.852 27.798C372.329 28.1219 372.951 28.2838 373.718 28.2838C374.554 28.2838 375.221 28.1105 375.721 27.7639C376.221 27.4117 376.471 26.9827 376.471 26.477C376.471 26.0679 376.318 25.7242 376.011 25.4458C375.71 25.1674 375.247 24.9571 374.622 24.8151L372.406 24.3293C371.184 24.0509 370.281 23.6077 369.696 22.9997C369.116 22.3918 368.826 21.6219 368.826 20.6901C368.826 19.9174 369.042 19.2412 369.474 18.6617C369.906 18.0821 370.502 17.6304 371.264 17.3066C372.025 16.977 372.897 16.8122 373.88 16.8122C375.295 16.8122 376.409 17.1191 377.221 17.7327C378.034 18.3407 378.571 19.156 378.832 20.1787ZM381.89 30.0736V16.9827H384.438V30.0736H381.89ZM383.176 14.9628C382.733 14.9628 382.353 14.8151 382.034 14.5196C381.722 14.2185 381.566 13.8605 381.566 13.4458C381.566 13.0253 381.722 12.6674 382.034 12.3719C382.353 12.0708 382.733 11.9202 383.176 11.9202C383.62 11.9202 383.997 12.0708 384.31 12.3719C384.628 12.6674 384.787 13.0253 384.787 13.4458C384.787 13.8605 384.628 14.2185 384.31 14.5196C383.997 14.8151 383.62 14.9628 383.176 14.9628ZM393.355 35.2554C392.315 35.2554 391.42 35.1191 390.67 34.8463C389.926 34.5736 389.318 34.2128 388.846 33.7639C388.375 33.3151 388.022 32.8236 387.789 32.2895L389.98 31.3861C390.133 31.6361 390.338 31.9003 390.593 32.1787C390.855 32.4628 391.207 32.7043 391.65 32.9032C392.099 33.102 392.676 33.2014 393.38 33.2014C394.346 33.2014 395.144 32.9657 395.775 32.4941C396.406 32.0282 396.721 31.2838 396.721 30.2611V27.6872H396.559C396.406 27.9657 396.184 28.2753 395.894 28.6162C395.61 28.9571 395.218 29.2526 394.718 29.5026C394.218 29.7526 393.568 29.8776 392.767 29.8776C391.733 29.8776 390.801 29.6361 389.971 29.1532C389.147 28.6645 388.494 27.9458 388.011 26.9969C387.534 26.0424 387.295 24.8691 387.295 23.477C387.295 22.085 387.531 20.8918 388.002 19.8975C388.48 18.9032 389.133 18.1418 389.963 17.6134C390.792 17.0793 391.733 16.8122 392.784 16.8122C393.596 16.8122 394.252 16.9486 394.752 17.2213C395.252 17.4884 395.642 17.8009 395.92 18.1588C396.204 18.5168 396.423 18.8321 396.576 19.1049H396.764V16.9827H399.261V30.3634C399.261 31.4884 399 32.4117 398.477 33.1333C397.954 33.8549 397.247 34.3889 396.355 34.7355C395.468 35.0821 394.468 35.2554 393.355 35.2554ZM393.329 27.7639C394.062 27.7639 394.681 27.5935 395.187 27.2526C395.698 26.906 396.085 26.4117 396.346 25.7696C396.613 25.1219 396.747 24.3463 396.747 23.4429C396.747 22.5622 396.616 21.7867 396.355 21.1162C396.093 20.4458 395.71 19.923 395.204 19.548C394.698 19.1674 394.073 18.977 393.329 18.977C392.562 18.977 391.923 19.1759 391.412 19.5736C390.9 19.9657 390.514 20.4997 390.252 21.1759C389.997 21.852 389.869 22.6077 389.869 23.4429C389.869 24.3009 390 25.0537 390.261 25.7014C390.522 26.3492 390.909 26.8549 391.42 27.2185C391.937 27.5821 392.573 27.7639 393.329 27.7639ZM408.789 16.9827V19.0282H401.639V16.9827H408.789ZM403.556 13.8463H406.105V26.2299C406.105 26.7242 406.179 27.0963 406.326 27.3463C406.474 27.5907 406.664 27.7583 406.897 27.8492C407.136 27.9344 407.394 27.977 407.673 27.977C407.877 27.977 408.056 27.9628 408.21 27.9344C408.363 27.906 408.483 27.8833 408.568 27.8662L409.028 29.9713C408.88 30.0282 408.67 30.085 408.397 30.1418C408.125 30.2043 407.784 30.2384 407.375 30.2441C406.704 30.2554 406.079 30.1361 405.5 29.8861C404.92 29.6361 404.451 29.2497 404.093 28.727C403.735 28.2043 403.556 27.548 403.556 26.7583V13.8463ZM423.474 30.3378C422.247 30.3378 421.176 30.0566 420.261 29.4941C419.346 28.9316 418.636 28.1446 418.13 27.1333C417.625 26.1219 417.372 24.9401 417.372 23.5878C417.372 22.2299 417.625 21.0424 418.13 20.0253C418.636 19.0083 419.346 18.2185 420.261 17.656C421.176 17.0935 422.247 16.8122 423.474 16.8122C424.701 16.8122 425.772 17.0935 426.687 17.656C427.602 18.2185 428.312 19.0083 428.818 20.0253C429.323 21.0424 429.576 22.2299 429.576 23.5878C429.576 24.9401 429.323 26.1219 428.818 27.1333C428.312 28.1446 427.602 28.9316 426.687 29.4941C425.772 30.0566 424.701 30.3378 423.474 30.3378ZM423.483 28.1986C424.278 28.1986 424.937 27.9884 425.46 27.5679C425.983 27.1475 426.369 26.5878 426.619 25.8889C426.875 25.1901 427.002 24.4202 427.002 23.5793C427.002 22.7441 426.875 21.977 426.619 21.2782C426.369 20.5736 425.983 20.0083 425.46 19.5821C424.937 19.156 424.278 18.9429 423.483 18.9429C422.681 18.9429 422.017 19.156 421.488 19.5821C420.966 20.0083 420.576 20.5736 420.321 21.2782C420.071 21.977 419.946 22.7441 419.946 23.5793C419.946 24.4202 420.071 25.1901 420.321 25.8889C420.576 26.5878 420.966 27.1475 421.488 27.5679C422.017 27.9884 422.681 28.1986 423.483 28.1986ZM443.174 16.9827L438.427 30.0736H435.7L430.944 16.9827H433.68L436.995 27.0566H437.132L440.439 16.9827H443.174ZM450.766 30.3378C449.476 30.3378 448.365 30.0622 447.434 29.5111C446.507 28.9543 445.792 28.173 445.286 27.1674C444.786 26.156 444.536 24.9713 444.536 23.6134C444.536 22.2725 444.786 21.0907 445.286 20.0679C445.792 19.0452 446.496 18.2469 447.399 17.673C448.309 17.0992 449.371 16.8122 450.587 16.8122C451.326 16.8122 452.042 16.9344 452.735 17.1787C453.428 17.423 454.05 17.8066 454.601 18.3293C455.152 18.852 455.587 19.531 455.905 20.3662C456.223 21.1958 456.382 22.2043 456.382 23.3918V24.2952H445.976V22.3861H453.885C453.885 21.7157 453.749 21.1219 453.476 20.6049C453.203 20.0821 452.82 19.6702 452.326 19.3691C451.837 19.0679 451.263 18.9174 450.604 18.9174C449.888 18.9174 449.263 19.0935 448.729 19.4458C448.201 19.7924 447.792 20.2469 447.502 20.8094C447.218 21.3662 447.076 21.9713 447.076 22.6247V24.1162C447.076 24.9912 447.229 25.7355 447.536 26.3492C447.848 26.9628 448.283 27.4316 448.84 27.7554C449.397 28.0736 450.047 28.2327 450.792 28.2327C451.274 28.2327 451.715 28.1645 452.113 28.0282C452.51 27.8861 452.854 27.6759 453.144 27.3975C453.434 27.1191 453.655 26.7753 453.809 26.3662L456.22 26.8009C456.027 27.5111 455.681 28.1333 455.181 28.6674C454.686 29.1958 454.064 29.6077 453.314 29.9032C452.57 30.1929 451.72 30.3378 450.766 30.3378ZM459.21 30.0736V16.9827H461.673V19.0622H461.809C462.048 18.3577 462.468 17.8037 463.071 17.4003C463.679 16.9912 464.366 16.7867 465.133 16.7867C465.292 16.7867 465.48 16.7924 465.696 16.8037C465.917 16.8151 466.091 16.8293 466.216 16.8463V19.2838C466.113 19.2554 465.931 19.2242 465.67 19.1901C465.409 19.1503 465.147 19.1304 464.886 19.1304C464.284 19.1304 463.747 19.2583 463.275 19.5139C462.809 19.7639 462.44 20.1134 462.167 20.5622C461.894 21.0054 461.758 21.5111 461.758 22.0793V30.0736H459.21ZM207.328 49.1787L205.018 49.5878C204.922 49.2924 204.768 49.0111 204.558 48.7441C204.354 48.477 204.075 48.2583 203.723 48.0878C203.371 47.9174 202.93 47.8321 202.402 47.8321C201.68 47.8321 201.078 47.9941 200.595 48.3179C200.112 48.6361 199.871 49.048 199.871 49.5537C199.871 49.9912 200.033 50.3435 200.356 50.6105C200.68 50.8776 201.203 51.0963 201.925 51.2668L204.004 51.7441C205.209 52.0225 206.106 52.4514 206.697 53.031C207.288 53.6105 207.584 54.3634 207.584 55.2895C207.584 56.0736 207.356 56.7725 206.902 57.3861C206.453 57.9941 205.825 58.4713 205.018 58.8179C204.217 59.1645 203.288 59.3378 202.231 59.3378C200.766 59.3378 199.57 59.0253 198.643 58.4003C197.717 57.7696 197.149 56.8747 196.939 55.7157L199.402 55.3407C199.555 55.9827 199.871 56.4685 200.348 56.798C200.825 57.1219 201.447 57.2838 202.214 57.2838C203.05 57.2838 203.717 57.1105 204.217 56.7639C204.717 56.4117 204.967 55.9827 204.967 55.477C204.967 55.0679 204.814 54.7242 204.507 54.4458C204.206 54.1674 203.743 53.9571 203.118 53.8151L200.902 53.3293C199.68 53.0509 198.777 52.6077 198.192 51.9997C197.612 51.3918 197.322 50.6219 197.322 49.6901C197.322 48.9174 197.538 48.2412 197.97 47.6617C198.402 47.0821 198.999 46.6304 199.76 46.3066C200.521 45.977 201.393 45.8122 202.376 45.8122C203.791 45.8122 204.905 46.1191 205.717 46.7327C206.53 47.3407 207.067 48.156 207.328 49.1787ZM216.496 45.9827V48.0282H209.346V45.9827H216.496ZM211.263 42.8463H213.812V55.2299C213.812 55.7242 213.886 56.0963 214.033 56.3463C214.181 56.5907 214.371 56.7583 214.604 56.8492C214.843 56.9344 215.102 56.977 215.38 56.977C215.584 56.977 215.763 56.9628 215.917 56.9344C216.07 56.906 216.19 56.8833 216.275 56.8662L216.735 58.9713C216.587 59.0282 216.377 59.085 216.104 59.1418C215.832 59.2043 215.491 59.2384 215.082 59.2441C214.411 59.2554 213.786 59.1361 213.207 58.8861C212.627 58.6361 212.158 58.2497 211.8 57.727C211.442 57.2043 211.263 56.548 211.263 55.7583V42.8463ZM227.608 53.6446V45.9827H230.165V59.0736H227.659V56.8066H227.523C227.222 57.5054 226.739 58.0878 226.074 58.5537C225.415 59.0139 224.594 59.2441 223.611 59.2441C222.77 59.2441 222.026 59.0594 221.378 58.6901C220.736 58.3151 220.23 57.7611 219.861 57.0282C219.497 56.2952 219.315 55.3889 219.315 54.3094V45.9827H221.864V54.0026C221.864 54.8946 222.111 55.6049 222.605 56.1333C223.099 56.6617 223.741 56.9259 224.531 56.9259C225.008 56.9259 225.483 56.8066 225.955 56.5679C226.432 56.3293 226.827 55.9685 227.139 55.4855C227.457 55.0026 227.614 54.3889 227.608 53.6446ZM238.489 59.3293C237.432 59.3293 236.489 59.0594 235.66 58.5196C234.836 57.9742 234.188 57.1986 233.717 56.1929C233.251 55.1816 233.018 53.9685 233.018 52.5537C233.018 51.1389 233.254 49.9287 233.725 48.923C234.202 47.9174 234.856 47.1475 235.685 46.6134C236.515 46.0793 237.455 45.8122 238.506 45.8122C239.319 45.8122 239.972 45.9486 240.467 46.2213C240.967 46.4884 241.353 46.8009 241.626 47.1588C241.904 47.5168 242.12 47.8321 242.273 48.1049H242.427V41.6191H244.975V59.0736H242.486V57.0367H242.273C242.12 57.3151 241.898 57.6333 241.609 57.9912C241.325 58.3492 240.932 58.6617 240.432 58.9287C239.932 59.1958 239.285 59.3293 238.489 59.3293ZM239.052 57.156C239.785 57.156 240.404 56.9628 240.91 56.5764C241.421 56.1844 241.807 55.6418 242.069 54.9486C242.336 54.2554 242.469 53.4486 242.469 52.5282C242.469 51.6191 242.339 50.8236 242.077 50.1418C241.816 49.46 241.432 48.9287 240.927 48.548C240.421 48.1674 239.796 47.977 239.052 47.977C238.285 47.977 237.646 48.1759 237.134 48.5736C236.623 48.9713 236.236 49.5139 235.975 50.2014C235.719 50.8889 235.592 51.6645 235.592 52.5282C235.592 53.4032 235.722 54.1901 235.984 54.8889C236.245 55.5878 236.631 56.1418 237.143 56.5509C237.66 56.9543 238.296 57.156 239.052 57.156ZM248.612 59.0736V45.9827H251.16V59.0736H248.612ZM249.899 43.9628C249.456 43.9628 249.075 43.8151 248.757 43.5196C248.445 43.2185 248.288 42.8605 248.288 42.4458C248.288 42.0253 248.445 41.6674 248.757 41.3719C249.075 41.0708 249.456 40.9202 249.899 40.9202C250.342 40.9202 250.72 41.0708 251.033 41.3719C251.351 41.6674 251.51 42.0253 251.51 42.4458C251.51 42.8605 251.351 43.2185 251.033 43.5196C250.72 43.8151 250.342 43.9628 249.899 43.9628ZM260.231 59.3378C258.941 59.3378 257.83 59.0622 256.898 58.5111C255.972 57.9543 255.256 57.173 254.751 56.1674C254.251 55.156 254.001 53.9713 254.001 52.6134C254.001 51.2725 254.251 50.0907 254.751 49.0679C255.256 48.0452 255.961 47.2469 256.864 46.673C257.773 46.0992 258.836 45.8122 260.052 45.8122C260.79 45.8122 261.506 45.9344 262.2 46.1787C262.893 46.423 263.515 46.8066 264.066 47.3293C264.617 47.852 265.052 48.531 265.37 49.3662C265.688 50.1958 265.847 51.2043 265.847 52.3918V53.2952H255.441V51.3861H263.35C263.35 50.7157 263.214 50.1219 262.941 49.6049C262.668 49.0821 262.285 48.6702 261.79 48.3691C261.302 48.0679 260.728 47.9174 260.069 47.9174C259.353 47.9174 258.728 48.0935 258.194 48.4458C257.665 48.7924 257.256 49.2469 256.967 49.8094C256.682 50.3662 256.54 50.9713 256.54 51.6247V53.1162C256.54 53.9912 256.694 54.7355 257.001 55.3492C257.313 55.9628 257.748 56.4316 258.305 56.7554C258.861 57.0736 259.512 57.2327 260.256 57.2327C260.739 57.2327 261.18 57.1645 261.577 57.0282C261.975 56.8861 262.319 56.6759 262.609 56.3975C262.898 56.1191 263.12 55.7753 263.273 55.3662L265.685 55.8009C265.492 56.5111 265.146 57.1333 264.646 57.6674C264.151 58.1958 263.529 58.6077 262.779 58.9032C262.035 59.1929 261.185 59.3378 260.231 59.3378ZM268.675 59.0736V45.9827H271.138V48.0622H271.274C271.513 47.3577 271.933 46.8037 272.535 46.4003C273.143 45.9912 273.831 45.7867 274.598 45.7867C274.757 45.7867 274.945 45.7924 275.16 45.8037C275.382 45.8151 275.555 45.8293 275.68 45.8463V48.2838C275.578 48.2554 275.396 48.2242 275.135 48.1901C274.874 48.1503 274.612 48.1304 274.351 48.1304C273.749 48.1304 273.212 48.2583 272.74 48.5139C272.274 48.7639 271.905 49.1134 271.632 49.5622C271.359 50.0054 271.223 50.5111 271.223 51.0793V59.0736H268.675ZM281.578 59.3634C280.749 59.3634 279.999 59.21 279.328 58.9032C278.658 58.5907 278.126 58.1389 277.734 57.548C277.348 56.9571 277.155 56.2327 277.155 55.3747C277.155 54.6361 277.297 54.0282 277.581 53.5509C277.865 53.0736 278.249 52.6958 278.731 52.4174C279.214 52.1389 279.754 51.9287 280.351 51.7867C280.947 51.6446 281.555 51.5367 282.175 51.4628C282.959 51.3719 283.595 51.298 284.084 51.2412C284.572 51.1787 284.928 51.0793 285.149 50.9429C285.371 50.8066 285.481 50.585 285.481 50.2782V50.2185C285.481 49.4742 285.271 48.8975 284.851 48.4884C284.436 48.0793 283.817 47.8747 282.993 47.8747C282.135 47.8747 281.459 48.0651 280.964 48.4458C280.476 48.8208 280.138 49.2384 279.95 49.6986L277.555 49.1532C277.839 48.3577 278.254 47.7157 278.8 47.227C279.351 46.7327 279.984 46.3747 280.7 46.1532C281.416 45.9259 282.169 45.8122 282.959 45.8122C283.481 45.8122 284.035 45.8747 284.621 45.9997C285.212 46.1191 285.763 46.3407 286.274 46.6645C286.791 46.9884 287.214 47.4514 287.544 48.0537C287.874 48.6503 288.038 49.4259 288.038 50.3804V59.0736H285.55V57.2838H285.447C285.283 57.6134 285.035 57.9372 284.706 58.2554C284.376 58.5736 283.953 58.8378 283.436 59.048C282.919 59.2583 282.3 59.3634 281.578 59.3634ZM282.132 57.3179C282.837 57.3179 283.439 57.1787 283.939 56.9003C284.445 56.6219 284.828 56.2583 285.089 55.8094C285.356 55.3549 285.49 54.8691 285.49 54.352V52.6645C285.399 52.7554 285.223 52.8407 284.962 52.9202C284.706 52.9941 284.413 53.0594 284.084 53.1162C283.754 53.1674 283.433 53.2157 283.121 53.2611C282.808 53.3009 282.547 53.335 282.337 53.3634C281.842 53.4259 281.391 53.531 280.981 53.6787C280.578 53.8264 280.254 54.0395 280.01 54.3179C279.771 54.5907 279.652 54.9543 279.652 55.4088C279.652 56.0395 279.885 56.5168 280.351 56.8407C280.817 57.1588 281.41 57.3179 282.132 57.3179ZM291.637 59.0736V41.6191H294.185V48.1049H294.339C294.486 47.8321 294.7 47.5168 294.978 47.1588C295.256 46.8009 295.643 46.4884 296.137 46.2213C296.631 45.9486 297.285 45.8122 298.097 45.8122C299.154 45.8122 300.097 46.0793 300.927 46.6134C301.756 47.1475 302.407 47.9174 302.879 48.923C303.356 49.9287 303.594 51.1389 303.594 52.5537C303.594 53.9685 303.359 55.1816 302.887 56.1929C302.415 57.1986 301.768 57.9742 300.944 58.5196C300.12 59.0594 299.18 59.3293 298.123 59.3293C297.327 59.3293 296.677 59.1958 296.171 58.9287C295.671 58.6617 295.279 58.3492 294.995 57.9912C294.711 57.6333 294.492 57.3151 294.339 57.0367H294.126V59.0736H291.637ZM294.134 52.5282C294.134 53.4486 294.268 54.2554 294.535 54.9486C294.802 55.6418 295.188 56.1844 295.694 56.5764C296.2 56.9628 296.819 57.156 297.552 57.156C298.313 57.156 298.95 56.9543 299.461 56.5509C299.972 56.1418 300.359 55.5878 300.62 54.8889C300.887 54.1901 301.021 53.4032 301.021 52.5282C301.021 51.6645 300.89 50.8889 300.629 50.2014C300.373 49.5139 299.986 48.9713 299.469 48.5736C298.958 48.1759 298.319 47.977 297.552 47.977C296.813 47.977 296.188 48.1674 295.677 48.548C295.171 48.9287 294.788 49.46 294.526 50.1418C294.265 50.8236 294.134 51.6191 294.134 52.5282ZM310.266 59.3634C309.436 59.3634 308.686 59.21 308.016 58.9032C307.345 58.5907 306.814 58.1389 306.422 57.548C306.035 56.9571 305.842 56.2327 305.842 55.3747C305.842 54.6361 305.984 54.0282 306.268 53.5509C306.553 53.0736 306.936 52.6958 307.419 52.4174C307.902 52.1389 308.442 51.9287 309.038 51.7867C309.635 51.6446 310.243 51.5367 310.862 51.4628C311.646 51.3719 312.283 51.298 312.771 51.2412C313.26 51.1787 313.615 51.0793 313.837 50.9429C314.058 50.8066 314.169 50.585 314.169 50.2782V50.2185C314.169 49.4742 313.959 48.8975 313.538 48.4884C313.124 48.0793 312.504 47.8747 311.68 47.8747C310.822 47.8747 310.146 48.0651 309.652 48.4458C309.163 48.8208 308.825 49.2384 308.638 49.6986L306.243 49.1532C306.527 48.3577 306.942 47.7157 307.487 47.227C308.038 46.7327 308.672 46.3747 309.388 46.1532C310.104 45.9259 310.856 45.8122 311.646 45.8122C312.169 45.8122 312.723 45.8747 313.308 45.9997C313.899 46.1191 314.45 46.3407 314.962 46.6645C315.479 46.9884 315.902 47.4514 316.231 48.0537C316.561 48.6503 316.726 49.4259 316.726 50.3804V59.0736H314.237V57.2838H314.135C313.97 57.6134 313.723 57.9372 313.393 58.2554C313.064 58.5736 312.641 58.8378 312.124 59.048C311.606 59.2583 310.987 59.3634 310.266 59.3634ZM310.82 57.3179C311.524 57.3179 312.126 57.1787 312.626 56.9003C313.132 56.6219 313.516 56.2583 313.777 55.8094C314.044 55.3549 314.178 54.8691 314.178 54.352V52.6645C314.087 52.7554 313.91 52.8407 313.649 52.9202C313.393 52.9941 313.101 53.0594 312.771 53.1162C312.442 53.1674 312.121 53.2157 311.808 53.2611C311.496 53.3009 311.234 53.335 311.024 53.3634C310.53 53.4259 310.078 53.531 309.669 53.6787C309.266 53.8264 308.942 54.0395 308.697 54.3179C308.459 54.5907 308.339 54.9543 308.339 55.4088C308.339 56.0395 308.572 56.5168 309.038 56.8407C309.504 57.1588 310.098 57.3179 310.82 57.3179ZM326.231 45.9827V48.0282H319.08V45.9827H326.231ZM320.998 42.8463H323.546V55.2299C323.546 55.7242 323.62 56.0963 323.768 56.3463C323.915 56.5907 324.106 56.7583 324.339 56.8492C324.577 56.9344 324.836 56.977 325.114 56.977C325.319 56.977 325.498 56.9628 325.651 56.9344C325.805 56.906 325.924 56.8833 326.009 56.8662L326.469 58.9713C326.322 59.0282 326.111 59.085 325.839 59.1418C325.566 59.2043 325.225 59.2384 324.816 59.2441C324.146 59.2554 323.521 59.1361 322.941 58.8861C322.361 58.6361 321.893 58.2497 321.535 57.727C321.177 57.2043 320.998 56.548 320.998 55.7583V42.8463ZM335.16 45.9827V48.0282H328.01V45.9827H335.16ZM329.928 42.8463H332.476V55.2299C332.476 55.7242 332.55 56.0963 332.697 56.3463C332.845 56.5907 333.035 56.7583 333.268 56.8492C333.507 56.9344 333.766 56.977 334.044 56.977C334.249 56.977 334.428 56.9628 334.581 56.9344C334.734 56.906 334.854 56.8833 334.939 56.8662L335.399 58.9713C335.251 59.0282 335.041 59.085 334.768 59.1418C334.496 59.2043 334.155 59.2384 333.746 59.2441C333.075 59.2554 332.45 59.1361 331.871 58.8861C331.291 58.6361 330.822 58.2497 330.464 57.727C330.106 57.2043 329.928 56.548 329.928 55.7583V42.8463ZM343.481 59.3378C342.191 59.3378 341.08 59.0622 340.148 58.5111C339.222 57.9543 338.506 57.173 338.001 56.1674C337.501 55.156 337.251 53.9713 337.251 52.6134C337.251 51.2725 337.501 50.0907 338.001 49.0679C338.506 48.0452 339.211 47.2469 340.114 46.673C341.023 46.0992 342.086 45.8122 343.302 45.8122C344.04 45.8122 344.756 45.9344 345.45 46.1787C346.143 46.423 346.765 46.8066 347.316 47.3293C347.867 47.852 348.302 48.531 348.62 49.3662C348.938 50.1958 349.097 51.2043 349.097 52.3918V53.2952H338.691V51.3861H346.6C346.6 50.7157 346.464 50.1219 346.191 49.6049C345.918 49.0821 345.535 48.6702 345.04 48.3691C344.552 48.0679 343.978 47.9174 343.319 47.9174C342.603 47.9174 341.978 48.0935 341.444 48.4458C340.915 48.7924 340.506 49.2469 340.217 49.8094C339.932 50.3662 339.79 50.9713 339.79 51.6247V53.1162C339.79 53.9912 339.944 54.7355 340.251 55.3492C340.563 55.9628 340.998 56.4316 341.555 56.7554C342.111 57.0736 342.762 57.2327 343.506 57.2327C343.989 57.2327 344.43 57.1645 344.827 57.0282C345.225 56.8861 345.569 56.6759 345.859 56.3975C346.148 56.1191 346.37 55.7753 346.523 55.3662L348.935 55.8009C348.742 56.5111 348.396 57.1333 347.896 57.6674C347.401 58.1958 346.779 58.6077 346.029 58.9032C345.285 59.1929 344.435 59.3378 343.481 59.3378ZM351.925 59.0736V45.9827H354.388V48.0622H354.524C354.763 47.3577 355.183 46.8037 355.785 46.4003C356.393 45.9912 357.081 45.7867 357.848 45.7867C358.007 45.7867 358.195 45.7924 358.41 45.8037C358.632 45.8151 358.805 45.8293 358.93 45.8463V48.2838C358.828 48.2554 358.646 48.2242 358.385 48.1901C358.124 48.1503 357.862 48.1304 357.601 48.1304C356.999 48.1304 356.462 48.2583 355.99 48.5139C355.524 48.7639 355.155 49.1134 354.882 49.5622C354.609 50.0054 354.473 50.5111 354.473 51.0793V59.0736H351.925ZM363.923 54.0537V53.8918C363.934 52.835 364.039 51.9941 364.238 51.3691C364.442 50.7441 364.732 50.2384 365.107 49.852C365.482 49.4657 365.934 49.1134 366.462 48.7952C366.803 48.5793 367.11 48.3378 367.383 48.0708C367.656 47.8037 367.871 47.4969 368.031 47.1503C368.19 46.8037 368.269 46.4202 368.269 45.9997C368.269 45.4941 368.15 45.0566 367.911 44.6872C367.673 44.3179 367.354 44.0338 366.957 43.835C366.565 43.6304 366.127 43.5282 365.644 43.5282C365.207 43.5282 364.789 43.6191 364.391 43.8009C363.994 43.9827 363.664 44.2668 363.403 44.6532C363.141 45.0338 362.991 45.5253 362.951 46.1276H360.36C360.4 45.1049 360.658 44.2412 361.136 43.5367C361.613 42.8264 362.244 42.2895 363.028 41.9259C363.817 41.5622 364.69 41.3804 365.644 41.3804C366.69 41.3804 367.604 41.5764 368.388 41.9685C369.173 42.3549 369.781 42.8975 370.212 43.5963C370.65 44.2895 370.869 45.0992 370.869 46.0253C370.869 46.6617 370.769 47.2355 370.57 47.7469C370.371 48.2526 370.087 48.7043 369.718 49.102C369.354 49.4997 368.917 49.852 368.406 50.1588C367.923 50.46 367.531 50.7725 367.229 51.0963C366.934 51.4202 366.718 51.8037 366.582 52.2469C366.445 52.6901 366.371 53.2384 366.36 53.8918V54.0537H363.923ZM365.209 59.2355C364.744 59.2355 364.343 59.0708 364.008 58.7412C363.673 58.406 363.505 58.0026 363.505 57.531C363.505 57.0651 363.673 56.6674 364.008 56.3378C364.343 56.0026 364.744 55.835 365.209 55.835C365.67 55.835 366.067 56.0026 366.403 56.3378C366.744 56.6674 366.914 57.0651 366.914 57.531C366.914 57.8435 366.834 58.1304 366.675 58.3918C366.522 58.6475 366.317 58.852 366.062 59.0054C365.806 59.1588 365.522 59.2355 365.209 59.2355Z" fill="white"/>
<defs>
<filter id="filter0_d_279_982" x="0.441895" y="0.190186" width="566.558" height="87.1595" filterUnits="userSpaceOnUse" color-interpolation-filters="sRGB">
<feFlood flood-opacity="0" result="BackgroundImageFix"/>
<feColorMatrix in="SourceAlpha" type="matrix" values="0 0 0 0 0 0 0 0 0 0 0 0 0 0 0 0 0 0 127 0" result="hardAlpha"/>
<feOffset dx="-5" dy="4"/>
<feGaussianBlur stdDeviation="2"/>
<feComposite in2="hardAlpha" operator="out"/>
<feColorMatrix type="matrix" values="0 0 0 0 0 0 0 0 0 0 0 0 0 0 0 0 0 0 0.33 0"/>
<feBlend mode="normal" in2="BackgroundImageFix" result="effect1_dropShadow_279_982"/>
<feBlend mode="normal" in="SourceGraphic" in2="effect1_dropShadow_279_982" result="shape"/>
</filter>
</defs>
</svg>
