<svg width="568" height="88" viewBox="0 0 568 88" fill="none" xmlns="http://www.w3.org/2000/svg">
<g filter="url(#filter0_d_279_976)">
<rect x="9.72119" y="0.595093" width="557.558" height="79.1595" rx="14" fill="#03266A"/>
</g>
<path d="M78.5972 30.4785V13.024H81.2307V20.6092H89.9324V13.024H92.5744V30.4785H89.9324V22.8677H81.2307V30.4785H78.5972ZM107.404 17.3876L102.657 30.4785H99.9296L95.1739 17.3876H97.9097L101.225 27.4615H101.361L104.668 17.3876H107.404ZM113.234 30.7683C112.404 30.7683 111.654 30.6149 110.984 30.3081C110.313 29.9956 109.782 29.5439 109.39 28.9529C109.003 28.362 108.81 27.6376 108.81 26.7797C108.81 26.041 108.952 25.4331 109.236 24.9558C109.52 24.4785 109.904 24.1007 110.387 23.8223C110.87 23.5439 111.41 23.3336 112.006 23.1916C112.603 23.0495 113.211 22.9416 113.83 22.8677C114.614 22.7768 115.251 22.7029 115.739 22.6461C116.228 22.5836 116.583 22.4842 116.805 22.3478C117.026 22.2115 117.137 21.9899 117.137 21.6831V21.6234C117.137 20.8791 116.927 20.3024 116.506 19.8933C116.091 19.4842 115.472 19.2797 114.648 19.2797C113.79 19.2797 113.114 19.47 112.62 19.8507C112.131 20.2257 111.793 20.6433 111.606 21.1035L109.211 20.5581C109.495 19.7626 109.91 19.1206 110.455 18.6319C111.006 18.1376 111.64 17.7797 112.356 17.5581C113.072 17.3308 113.824 17.2172 114.614 17.2172C115.137 17.2172 115.691 17.2797 116.276 17.4047C116.867 17.524 117.418 17.7456 117.93 18.0694C118.447 18.3933 118.87 18.8564 119.199 19.4586C119.529 20.0552 119.694 20.8308 119.694 21.7853V30.4785H117.205V28.6887H117.103C116.938 29.0183 116.691 29.3422 116.361 29.6603C116.032 29.9785 115.609 30.2427 115.091 30.4529C114.574 30.6632 113.955 30.7683 113.234 30.7683ZM113.788 28.7228C114.492 28.7228 115.094 28.5836 115.594 28.3052C116.1 28.0268 116.484 27.6632 116.745 27.2143C117.012 26.7598 117.145 26.274 117.145 25.7569V24.0694C117.055 24.1603 116.878 24.2456 116.617 24.3251C116.361 24.399 116.069 24.4643 115.739 24.5211C115.41 24.5723 115.089 24.6206 114.776 24.666C114.464 24.7058 114.202 24.7399 113.992 24.7683C113.498 24.8308 113.046 24.9359 112.637 25.0836C112.234 25.2314 111.91 25.4444 111.665 25.7228C111.427 25.9956 111.307 26.3592 111.307 26.8137C111.307 27.4444 111.54 27.9217 112.006 28.2456C112.472 28.5637 113.066 28.7228 113.788 28.7228ZM127.988 30.7342C126.932 30.7342 125.988 30.4643 125.159 29.9245C124.335 29.3791 123.687 28.6035 123.216 27.5978C122.75 26.5865 122.517 25.3734 122.517 23.9586C122.517 22.5439 122.753 21.3336 123.224 20.3279C123.702 19.3223 124.355 18.5524 125.185 18.0183C126.014 17.4842 126.954 17.2172 128.006 17.2172C128.818 17.2172 129.471 17.3535 129.966 17.6262C130.466 17.8933 130.852 18.2058 131.125 18.5637C131.403 18.9217 131.619 19.237 131.773 19.5098H131.926V13.024H134.474V30.4785H131.986V28.4416H131.773C131.619 28.72 131.398 29.0382 131.108 29.3961C130.824 29.7541 130.432 30.0666 129.932 30.3336C129.432 30.6007 128.784 30.7342 127.988 30.7342ZM128.551 28.5609C129.284 28.5609 129.903 28.3677 130.409 27.9814C130.92 27.5893 131.307 27.0467 131.568 26.3535C131.835 25.6603 131.969 24.8535 131.969 23.9331C131.969 23.024 131.838 22.2285 131.577 21.5467C131.315 20.8649 130.932 20.3336 130.426 19.9529C129.92 19.5723 129.295 19.3819 128.551 19.3819C127.784 19.3819 127.145 19.5808 126.633 19.9785C126.122 20.3762 125.736 20.9189 125.474 21.6064C125.219 22.2939 125.091 23.0694 125.091 23.9331C125.091 24.8081 125.221 25.595 125.483 26.2939C125.744 26.9927 126.131 27.5467 126.642 27.9558C127.159 28.3592 127.795 28.5609 128.551 28.5609ZM144.463 30.4785V17.3876H147.011V30.4785H144.463ZM145.75 15.3677C145.307 15.3677 144.926 15.22 144.608 14.9245C144.295 14.6234 144.139 14.2654 144.139 13.8507C144.139 13.4302 144.295 13.0723 144.608 12.7768C144.926 12.4757 145.307 12.3251 145.75 12.3251C146.193 12.3251 146.571 12.4757 146.883 12.7768C147.202 13.0723 147.361 13.4302 147.361 13.8507C147.361 14.2654 147.202 14.6234 146.883 14.9245C146.571 15.22 146.193 15.3677 145.75 15.3677ZM152.988 22.7058V30.4785H150.439V17.3876H152.886V19.5183H153.047C153.349 18.8251 153.82 18.2683 154.462 17.8478C155.11 17.4274 155.925 17.2172 156.908 17.2172C157.8 17.2172 158.582 17.4047 159.252 17.7797C159.922 18.149 160.442 18.7001 160.812 19.4331C161.181 20.166 161.366 21.0723 161.366 22.1518V30.4785H158.817V22.4586C158.817 21.5098 158.57 20.7683 158.076 20.2342C157.582 19.6944 156.903 19.4245 156.039 19.4245C155.448 19.4245 154.922 19.5524 154.462 19.8081C154.008 20.0637 153.647 20.4387 153.38 20.9331C153.118 21.4217 152.988 22.0126 152.988 22.7058ZM169.684 30.7342C168.627 30.7342 167.684 30.4643 166.854 29.9245C166.03 29.3791 165.383 28.6035 164.911 27.5978C164.445 26.5865 164.212 25.3734 164.212 23.9586C164.212 22.5439 164.448 21.3336 164.92 20.3279C165.397 19.3223 166.05 18.5524 166.88 18.0183C167.709 17.4842 168.65 17.2172 169.701 17.2172C170.513 17.2172 171.167 17.3535 171.661 17.6262C172.161 17.8933 172.547 18.2058 172.82 18.5637C173.099 18.9217 173.314 19.237 173.468 19.5098H173.621V13.024H176.17V30.4785H173.681V28.4416H173.468C173.314 28.72 173.093 29.0382 172.803 29.3961C172.519 29.7541 172.127 30.0666 171.627 30.3336C171.127 30.6007 170.479 30.7342 169.684 30.7342ZM170.246 28.5609C170.979 28.5609 171.599 28.3677 172.104 27.9814C172.616 27.5893 173.002 27.0467 173.263 26.3535C173.53 25.6603 173.664 24.8535 173.664 23.9331C173.664 23.024 173.533 22.2285 173.272 21.5467C173.011 20.8649 172.627 20.3336 172.121 19.9529C171.616 19.5723 170.991 19.3819 170.246 19.3819C169.479 19.3819 168.84 19.5808 168.329 19.9785C167.817 20.3762 167.431 20.9189 167.17 21.6064C166.914 22.2939 166.786 23.0694 166.786 23.9331C166.786 24.8081 166.917 25.595 167.178 26.2939C167.439 26.9927 167.826 27.5467 168.337 27.9558C168.854 28.3592 169.491 28.5609 170.246 28.5609ZM185.449 30.7427C184.159 30.7427 183.048 30.4672 182.116 29.916C181.19 29.3592 180.474 28.5779 179.969 27.5723C179.469 26.5609 179.219 25.3762 179.219 24.0183C179.219 22.6774 179.469 21.4956 179.969 20.4728C180.474 19.4501 181.179 18.6518 182.082 18.0779C182.991 17.5041 184.054 17.2172 185.27 17.2172C186.008 17.2172 186.724 17.3393 187.417 17.5836C188.111 17.8279 188.733 18.2115 189.284 18.7342C189.835 19.2569 190.27 19.9359 190.588 20.7711C190.906 21.6007 191.065 22.6092 191.065 23.7967V24.7001H180.659V22.791H188.568C188.568 22.1206 188.432 21.5268 188.159 21.0098C187.886 20.487 187.503 20.0751 187.008 19.774C186.52 19.4728 185.946 19.3223 185.287 19.3223C184.571 19.3223 183.946 19.4984 183.412 19.8507C182.883 20.1973 182.474 20.6518 182.185 21.2143C181.9 21.7711 181.758 22.3762 181.758 23.0297V24.5211C181.758 25.3961 181.912 26.1404 182.219 26.7541C182.531 27.3677 182.966 27.8365 183.523 28.1603C184.079 28.4785 184.73 28.6376 185.474 28.6376C185.957 28.6376 186.398 28.5694 186.795 28.4331C187.193 28.291 187.537 28.0808 187.827 27.8024C188.116 27.524 188.338 27.1802 188.491 26.7711L190.903 27.2058C190.71 27.916 190.363 28.5382 189.863 29.0723C189.369 29.6007 188.747 30.0126 187.997 30.3081C187.253 30.5978 186.403 30.7427 185.449 30.7427ZM196.441 22.7058V30.4785H193.893V13.024H196.407V19.5183H196.569C196.876 18.8137 197.344 18.2541 197.975 17.8393C198.606 17.4245 199.43 17.2172 200.447 17.2172C201.344 17.2172 202.128 17.4018 202.799 17.7711C203.475 18.1404 203.998 18.6916 204.367 19.4245C204.742 20.1518 204.93 21.0609 204.93 22.1518V30.4785H202.381V22.4586C202.381 21.4984 202.134 20.7541 201.64 20.2257C201.145 19.6916 200.458 19.4245 199.577 19.4245C198.975 19.4245 198.435 19.5524 197.958 19.8081C197.486 20.0637 197.114 20.4387 196.841 20.9331C196.574 21.4217 196.441 22.0126 196.441 22.7058ZM213.844 30.7427C212.617 30.7427 211.546 30.4615 210.631 29.899C209.716 29.3365 209.006 28.5495 208.501 27.5382C207.995 26.5268 207.742 25.345 207.742 23.9927C207.742 22.6348 207.995 21.4473 208.501 20.4302C209.006 19.4132 209.716 18.6234 210.631 18.0609C211.546 17.4984 212.617 17.2172 213.844 17.2172C215.072 17.2172 216.143 17.4984 217.057 18.0609C217.972 18.6234 218.682 19.4132 219.188 20.4302C219.694 21.4473 219.947 22.6348 219.947 23.9927C219.947 25.345 219.694 26.5268 219.188 27.5382C218.682 28.5495 217.972 29.3365 217.057 29.899C216.143 30.4615 215.072 30.7427 213.844 30.7427ZM213.853 28.6035C214.648 28.6035 215.307 28.3933 215.83 27.9728C216.353 27.5524 216.739 26.9927 216.989 26.2939C217.245 25.595 217.373 24.8251 217.373 23.9842C217.373 23.149 217.245 22.3819 216.989 21.6831C216.739 20.9785 216.353 20.4132 215.83 19.987C215.307 19.5609 214.648 19.3478 213.853 19.3478C213.052 19.3478 212.387 19.5609 211.859 19.987C211.336 20.4132 210.947 20.9785 210.691 21.6831C210.441 22.3819 210.316 23.149 210.316 23.9842C210.316 24.8251 210.441 25.595 210.691 26.2939C210.947 26.9927 211.336 27.5524 211.859 27.9728C212.387 28.3933 213.052 28.6035 213.853 28.6035ZM225.339 13.024V30.4785H222.791V13.024H225.339ZM233.668 30.7342C232.611 30.7342 231.668 30.4643 230.839 29.9245C230.015 29.3791 229.367 28.6035 228.895 27.5978C228.43 26.5865 228.197 25.3734 228.197 23.9586C228.197 22.5439 228.432 21.3336 228.904 20.3279C229.381 19.3223 230.035 18.5524 230.864 18.0183C231.694 17.4842 232.634 17.2172 233.685 17.2172C234.498 17.2172 235.151 17.3535 235.645 17.6262C236.145 17.8933 236.532 18.2058 236.805 18.5637C237.083 18.9217 237.299 19.237 237.452 19.5098H237.606V13.024H240.154V30.4785H237.665V28.4416H237.452C237.299 28.72 237.077 29.0382 236.788 29.3961C236.503 29.7541 236.111 30.0666 235.611 30.3336C235.111 30.6007 234.464 30.7342 233.668 30.7342ZM234.231 28.5609C234.964 28.5609 235.583 28.3677 236.089 27.9814C236.6 27.5893 236.986 27.0467 237.248 26.3535C237.515 25.6603 237.648 24.8535 237.648 23.9331C237.648 23.024 237.518 22.2285 237.256 21.5467C236.995 20.8649 236.611 20.3336 236.106 19.9529C235.6 19.5723 234.975 19.3819 234.231 19.3819C233.464 19.3819 232.824 19.5808 232.313 19.9785C231.802 20.3762 231.415 20.9189 231.154 21.6064C230.898 22.2939 230.77 23.0694 230.77 23.9331C230.77 24.8081 230.901 25.595 231.163 26.2939C231.424 26.9927 231.81 27.5467 232.322 27.9558C232.839 28.3592 233.475 28.5609 234.231 28.5609ZM249.433 30.7427C248.143 30.7427 247.033 30.4672 246.101 29.916C245.175 29.3592 244.459 28.5779 243.953 27.5723C243.453 26.5609 243.203 25.3762 243.203 24.0183C243.203 22.6774 243.453 21.4956 243.953 20.4728C244.459 19.4501 245.163 18.6518 246.067 18.0779C246.976 17.5041 248.038 17.2172 249.254 17.2172C249.993 17.2172 250.709 17.3393 251.402 17.5836C252.095 17.8279 252.717 18.2115 253.268 18.7342C253.819 19.2569 254.254 19.9359 254.572 20.7711C254.89 21.6007 255.05 22.6092 255.05 23.7967V24.7001H244.643V22.791H252.552C252.552 22.1206 252.416 21.5268 252.143 21.0098C251.871 20.487 251.487 20.0751 250.993 19.774C250.504 19.4728 249.93 19.3223 249.271 19.3223C248.555 19.3223 247.93 19.4984 247.396 19.8507C246.868 20.1973 246.459 20.6518 246.169 21.2143C245.885 21.7711 245.743 22.3762 245.743 23.0297V24.5211C245.743 25.3961 245.896 26.1404 246.203 26.7541C246.515 27.3677 246.95 27.8365 247.507 28.1603C248.064 28.4785 248.714 28.6376 249.459 28.6376C249.942 28.6376 250.382 28.5694 250.78 28.4331C251.177 28.291 251.521 28.0808 251.811 27.8024C252.101 27.524 252.322 27.1802 252.476 26.7711L254.888 27.2058C254.694 27.916 254.348 28.5382 253.848 29.0723C253.354 29.6007 252.731 30.0126 251.981 30.3081C251.237 30.5978 250.388 30.7427 249.433 30.7427ZM257.877 30.4785V17.3876H260.34V19.4672H260.476C260.715 18.7626 261.136 18.2086 261.738 17.8052C262.346 17.3961 263.033 17.1916 263.8 17.1916C263.959 17.1916 264.147 17.1973 264.363 17.2086C264.584 17.22 264.758 17.2342 264.883 17.2512V19.6887C264.78 19.6603 264.599 19.6291 264.337 19.595C264.076 19.5552 263.814 19.5353 263.553 19.5353C262.951 19.5353 262.414 19.6632 261.942 19.9189C261.476 20.1689 261.107 20.5183 260.834 20.9672C260.562 21.4103 260.425 21.916 260.425 22.4842V30.4785H257.877ZM275.988 13.024V30.4785H273.439V13.024H275.988ZM284.93 30.7427C283.703 30.7427 282.632 30.4615 281.717 29.899C280.802 29.3365 280.092 28.5495 279.587 27.5382C279.081 26.5268 278.828 25.345 278.828 23.9927C278.828 22.6348 279.081 21.4473 279.587 20.4302C280.092 19.4132 280.802 18.6234 281.717 18.0609C282.632 17.4984 283.703 17.2172 284.93 17.2172C286.158 17.2172 287.229 17.4984 288.143 18.0609C289.058 18.6234 289.768 19.4132 290.274 20.4302C290.78 21.4473 291.033 22.6348 291.033 23.9927C291.033 25.345 290.78 26.5268 290.274 27.5382C289.768 28.5495 289.058 29.3365 288.143 29.899C287.229 30.4615 286.158 30.7427 284.93 30.7427ZM284.939 28.6035C285.734 28.6035 286.393 28.3933 286.916 27.9728C287.439 27.5524 287.825 26.9927 288.075 26.2939C288.331 25.595 288.459 24.8251 288.459 23.9842C288.459 23.149 288.331 22.3819 288.075 21.6831C287.825 20.9785 287.439 20.4132 286.916 19.987C286.393 19.5609 285.734 19.3478 284.939 19.3478C284.138 19.3478 283.473 19.5609 282.944 19.987C282.422 20.4132 282.033 20.9785 281.777 21.6831C281.527 22.3819 281.402 23.149 281.402 23.9842C281.402 24.8251 281.527 25.595 281.777 26.2939C282.033 26.9927 282.422 27.5524 282.944 27.9728C283.473 28.3933 284.138 28.6035 284.939 28.6035ZM296.221 26.0382L296.204 22.9274H296.647L301.863 17.3876H304.914L298.965 23.6944H298.564L296.221 26.0382ZM293.877 30.4785V13.024H296.425V30.4785H293.877ZM302.144 30.4785L297.457 24.2569L299.212 22.4757L305.272 30.4785H302.144ZM311.046 30.7683C310.216 30.7683 309.466 30.6149 308.796 30.3081C308.126 29.9956 307.594 29.5439 307.202 28.9529C306.816 28.362 306.623 27.6376 306.623 26.7797C306.623 26.041 306.765 25.4331 307.049 24.9558C307.333 24.4785 307.716 24.1007 308.199 23.8223C308.682 23.5439 309.222 23.3336 309.819 23.1916C310.415 23.0495 311.023 22.9416 311.643 22.8677C312.427 22.7768 313.063 22.7029 313.552 22.6461C314.04 22.5836 314.395 22.4842 314.617 22.3478C314.839 22.2115 314.949 21.9899 314.949 21.6831V21.6234C314.949 20.8791 314.739 20.3024 314.319 19.8933C313.904 19.4842 313.285 19.2797 312.461 19.2797C311.603 19.2797 310.927 19.47 310.432 19.8507C309.944 20.2257 309.606 20.6433 309.418 21.1035L307.023 20.5581C307.307 19.7626 307.722 19.1206 308.268 18.6319C308.819 18.1376 309.452 17.7797 310.168 17.5581C310.884 17.3308 311.637 17.2172 312.427 17.2172C312.949 17.2172 313.503 17.2797 314.089 17.4047C314.68 17.524 315.231 17.7456 315.742 18.0694C316.259 18.3933 316.682 18.8564 317.012 19.4586C317.341 20.0552 317.506 20.8308 317.506 21.7853V30.4785H315.018V28.6887H314.915C314.751 29.0183 314.503 29.3422 314.174 29.6603C313.844 29.9785 313.421 30.2427 312.904 30.4529C312.387 30.6632 311.768 30.7683 311.046 30.7683ZM311.6 28.7228C312.305 28.7228 312.907 28.5836 313.407 28.3052C313.913 28.0268 314.296 27.6632 314.557 27.2143C314.824 26.7598 314.958 26.274 314.958 25.7569V24.0694C314.867 24.1603 314.691 24.2456 314.43 24.3251C314.174 24.399 313.881 24.4643 313.552 24.5211C313.222 24.5723 312.901 24.6206 312.589 24.666C312.276 24.7058 312.015 24.7399 311.805 24.7683C311.31 24.8308 310.859 24.9359 310.449 25.0836C310.046 25.2314 309.722 25.4444 309.478 25.7228C309.239 25.9956 309.12 26.3592 309.12 26.8137C309.12 27.4444 309.353 27.9217 309.819 28.2456C310.285 28.5637 310.878 28.7228 311.6 28.7228ZM323.449 13.024V30.4785H320.9V13.024H323.449ZM332.519 30.7427C331.229 30.7427 330.118 30.4672 329.187 29.916C328.261 29.3592 327.545 28.5779 327.039 27.5723C326.539 26.5609 326.289 25.3762 326.289 24.0183C326.289 22.6774 326.539 21.4956 327.039 20.4728C327.545 19.4501 328.249 18.6518 329.153 18.0779C330.062 17.5041 331.124 17.2172 332.34 17.2172C333.079 17.2172 333.795 17.3393 334.488 17.5836C335.181 17.8279 335.803 18.2115 336.354 18.7342C336.905 19.2569 337.34 19.9359 337.658 20.7711C337.976 21.6007 338.136 22.6092 338.136 23.7967V24.7001H327.729V22.791H335.638C335.638 22.1206 335.502 21.5268 335.229 21.0098C334.957 20.487 334.573 20.0751 334.079 19.774C333.59 19.4728 333.016 19.3223 332.357 19.3223C331.641 19.3223 331.016 19.4984 330.482 19.8507C329.954 20.1973 329.545 20.6518 329.255 21.2143C328.971 21.7711 328.829 22.3762 328.829 23.0297V24.5211C328.829 25.3961 328.982 26.1404 329.289 26.7541C329.601 27.3677 330.036 27.8365 330.593 28.1603C331.15 28.4785 331.8 28.6376 332.545 28.6376C333.028 28.6376 333.468 28.5694 333.866 28.4331C334.263 28.291 334.607 28.0808 334.897 27.8024C335.187 27.524 335.408 27.1802 335.562 26.7711L337.974 27.2058C337.78 27.916 337.434 28.5382 336.934 29.0723C336.44 29.6007 335.817 30.0126 335.067 30.3081C334.323 30.5978 333.474 30.7427 332.519 30.7427ZM347.315 30.4785V17.3876H349.761V19.5183H349.922C350.195 18.7967 350.641 18.2342 351.261 17.8308C351.88 17.4217 352.621 17.2172 353.485 17.2172C354.36 17.2172 355.093 17.4217 355.684 17.8308C356.28 18.2399 356.721 18.8024 357.005 19.5183H357.141C357.454 18.8194 357.951 18.2626 358.633 17.8478C359.315 17.4274 360.127 17.2172 361.07 17.2172C362.258 17.2172 363.226 17.5893 363.976 18.3336C364.732 19.0779 365.11 20.2001 365.11 21.7001V30.4785H362.562V21.9387C362.562 21.0524 362.32 20.4103 361.837 20.0126C361.354 19.6149 360.778 19.416 360.107 19.416C359.278 19.416 358.633 19.6717 358.172 20.1831C357.712 20.6887 357.482 21.3393 357.482 22.1348V30.4785H354.942V21.7768C354.942 21.0666 354.721 20.4956 354.278 20.0637C353.834 19.6319 353.258 19.416 352.547 19.416C352.065 19.416 351.618 19.5439 351.209 19.7995C350.806 20.0495 350.479 20.399 350.229 20.8478C349.985 21.2967 349.863 21.8166 349.863 22.4075V30.4785H347.315ZM374.167 30.7427C372.878 30.7427 371.767 30.4672 370.835 29.916C369.909 29.3592 369.193 28.5779 368.687 27.5723C368.187 26.5609 367.937 25.3762 367.937 24.0183C367.937 22.6774 368.187 21.4956 368.687 20.4728C369.193 19.4501 369.898 18.6518 370.801 18.0779C371.71 17.5041 372.773 17.2172 373.989 17.2172C374.727 17.2172 375.443 17.3393 376.136 17.5836C376.829 17.8279 377.452 18.2115 378.003 18.7342C378.554 19.2569 378.989 19.9359 379.307 20.7711C379.625 21.6007 379.784 22.6092 379.784 23.7967V24.7001H369.378V22.791H377.287C377.287 22.1206 377.15 21.5268 376.878 21.0098C376.605 20.487 376.221 20.0751 375.727 19.774C375.239 19.4728 374.665 19.3223 374.006 19.3223C373.29 19.3223 372.665 19.4984 372.131 19.8507C371.602 20.1973 371.193 20.6518 370.903 21.2143C370.619 21.7711 370.477 22.3762 370.477 23.0297V24.5211C370.477 25.3961 370.631 26.1404 370.937 26.7541C371.25 27.3677 371.685 27.8365 372.241 28.1603C372.798 28.4785 373.449 28.6376 374.193 28.6376C374.676 28.6376 375.116 28.5694 375.514 28.4331C375.912 28.291 376.256 28.0808 376.545 27.8024C376.835 27.524 377.057 27.1802 377.21 26.7711L379.622 27.2058C379.429 27.916 379.082 28.5382 378.582 29.0723C378.088 29.6007 377.466 30.0126 376.716 30.3081C375.971 30.5978 375.122 30.7427 374.167 30.7427ZM385.16 22.7058V30.4785H382.611V17.3876H385.057V19.5183H385.219C385.52 18.8251 385.992 18.2683 386.634 17.8478C387.282 17.4274 388.097 17.2172 389.08 17.2172C389.972 17.2172 390.753 17.4047 391.424 17.7797C392.094 18.149 392.614 18.7001 392.984 19.4331C393.353 20.166 393.538 21.0723 393.538 22.1518V30.4785H390.989V22.4586C390.989 21.5098 390.742 20.7683 390.248 20.2342C389.753 19.6944 389.074 19.4245 388.211 19.4245C387.62 19.4245 387.094 19.5524 386.634 19.8081C386.18 20.0637 385.819 20.4387 385.552 20.9331C385.29 21.4217 385.16 22.0126 385.16 22.7058ZM405.248 25.0495V17.3876H407.805V30.4785H405.299V28.2115H405.163C404.861 28.9103 404.378 29.4927 403.714 29.9586C403.055 30.4189 402.234 30.649 401.251 30.649C400.41 30.649 399.665 30.4643 399.018 30.095C398.376 29.72 397.87 29.166 397.501 28.4331C397.137 27.7001 396.955 26.7939 396.955 25.7143V17.3876H399.503V25.4075C399.503 26.2995 399.751 27.0098 400.245 27.5382C400.739 28.0666 401.381 28.3308 402.171 28.3308C402.648 28.3308 403.123 28.2115 403.594 27.9728C404.072 27.7342 404.466 27.3734 404.779 26.8904C405.097 26.4075 405.253 25.7939 405.248 25.0495ZM416.871 30.7427C415.581 30.7427 414.47 30.4672 413.538 29.916C412.612 29.3592 411.896 28.5779 411.391 27.5723C410.891 26.5609 410.641 25.3762 410.641 24.0183C410.641 22.6774 410.891 21.4956 411.391 20.4728C411.896 19.4501 412.601 18.6518 413.504 18.0779C414.413 17.5041 415.476 17.2172 416.692 17.2172C417.43 17.2172 418.146 17.3393 418.839 17.5836C419.533 17.8279 420.155 18.2115 420.706 18.7342C421.257 19.2569 421.692 19.9359 422.01 20.7711C422.328 21.6007 422.487 22.6092 422.487 23.7967V24.7001H412.081V22.791H419.99C419.99 22.1206 419.854 21.5268 419.581 21.0098C419.308 20.487 418.925 20.0751 418.43 19.774C417.942 19.4728 417.368 19.3223 416.709 19.3223C415.993 19.3223 415.368 19.4984 414.834 19.8507C414.305 20.1973 413.896 20.6518 413.606 21.2143C413.322 21.7711 413.18 22.3762 413.18 23.0297V24.5211C413.18 25.3961 413.334 26.1404 413.641 26.7541C413.953 27.3677 414.388 27.8365 414.944 28.1603C415.501 28.4785 416.152 28.6376 416.896 28.6376C417.379 28.6376 417.819 28.5694 418.217 28.4331C418.615 28.291 418.959 28.0808 419.248 27.8024C419.538 27.524 419.76 27.1802 419.913 26.7711L422.325 27.2058C422.132 27.916 421.785 28.5382 421.285 29.0723C420.791 29.6007 420.169 30.0126 419.419 30.3081C418.675 30.5978 417.825 30.7427 416.871 30.7427ZM427.863 22.7058V30.4785H425.315V17.3876H427.761V19.5183H427.922C428.224 18.8251 428.695 18.2683 429.337 17.8478C429.985 17.4274 430.8 17.2172 431.783 17.2172C432.675 17.2172 433.457 17.4047 434.127 17.7797C434.797 18.149 435.317 18.7001 435.687 19.4331C436.056 20.166 436.241 21.0723 436.241 22.1518V30.4785H433.692V22.4586C433.692 21.5098 433.445 20.7683 432.951 20.2342C432.457 19.6944 431.778 19.4245 430.914 19.4245C430.323 19.4245 429.797 19.5524 429.337 19.8081C428.883 20.0637 428.522 20.4387 428.255 20.9331C427.993 21.4217 427.863 22.0126 427.863 22.7058ZM442.974 28.0922L442.846 29.0211C442.761 29.7029 442.616 30.4132 442.411 31.1518C442.212 31.8961 442.005 32.5865 441.789 33.2228C441.579 33.8592 441.405 34.3649 441.269 34.7399H439.462C439.536 34.3876 439.638 33.9103 439.769 33.3081C439.9 32.7115 440.028 32.0439 440.153 31.3052C440.278 30.5666 440.371 29.8137 440.434 29.0467L440.519 28.0922H442.974ZM458.157 30.7427C456.93 30.7427 455.859 30.4615 454.944 29.899C454.029 29.3365 453.319 28.5495 452.813 27.5382C452.307 26.5268 452.055 25.345 452.055 23.9927C452.055 22.6348 452.307 21.4473 452.813 20.4302C453.319 19.4132 454.029 18.6234 454.944 18.0609C455.859 17.4984 456.93 17.2172 458.157 17.2172C459.384 17.2172 460.455 17.4984 461.37 18.0609C462.285 18.6234 462.995 19.4132 463.501 20.4302C464.006 21.4473 464.259 22.6348 464.259 23.9927C464.259 25.345 464.006 26.5268 463.501 27.5382C462.995 28.5495 462.285 29.3365 461.37 29.899C460.455 30.4615 459.384 30.7427 458.157 30.7427ZM458.165 28.6035C458.961 28.6035 459.62 28.3933 460.143 27.9728C460.665 27.5524 461.052 26.9927 461.302 26.2939C461.557 25.595 461.685 24.8251 461.685 23.9842C461.685 23.149 461.557 22.3819 461.302 21.6831C461.052 20.9785 460.665 20.4132 460.143 19.987C459.62 19.5609 458.961 19.3478 458.165 19.3478C457.364 19.3478 456.699 19.5609 456.171 19.987C455.648 20.4132 455.259 20.9785 455.003 21.6831C454.753 22.3819 454.628 23.149 454.628 23.9842C454.628 24.8251 454.753 25.595 455.003 26.2939C455.259 26.9927 455.648 27.5524 456.171 27.9728C456.699 28.3933 457.364 28.6035 458.165 28.6035ZM472.592 35.6603C471.552 35.6603 470.658 35.524 469.908 35.2512C469.163 34.9785 468.555 34.6177 468.084 34.1689C467.612 33.72 467.26 33.2285 467.027 32.6944L469.217 31.791C469.371 32.041 469.575 32.3052 469.831 32.5836C470.092 32.8677 470.444 33.1092 470.888 33.3081C471.337 33.5069 471.913 33.6064 472.618 33.6064C473.584 33.6064 474.382 33.3706 475.013 32.899C475.643 32.4331 475.959 31.6887 475.959 30.666V28.0922H475.797C475.643 28.3706 475.422 28.6802 475.132 29.0211C474.848 29.362 474.456 29.6575 473.956 29.9075C473.456 30.1575 472.805 30.2825 472.004 30.2825C470.97 30.2825 470.038 30.041 469.209 29.5581C468.385 29.0694 467.731 28.3507 467.248 27.4018C466.771 26.4473 466.533 25.274 466.533 23.8819C466.533 22.4899 466.768 21.2967 467.24 20.3024C467.717 19.3081 468.371 18.5467 469.2 18.0183C470.03 17.4842 470.97 17.2172 472.021 17.2172C472.834 17.2172 473.49 17.3535 473.99 17.6262C474.49 17.8933 474.879 18.2058 475.158 18.5637C475.442 18.9217 475.66 19.237 475.814 19.5098H476.001V17.3876H478.498V30.7683C478.498 31.8933 478.237 32.8166 477.714 33.5382C477.192 34.2598 476.484 34.7939 475.592 35.1404C474.706 35.487 473.706 35.6603 472.592 35.6603ZM472.567 28.1689C473.3 28.1689 473.919 27.9984 474.425 27.6575C474.936 27.3109 475.322 26.8166 475.584 26.1745C475.851 25.5268 475.984 24.7512 475.984 23.8478C475.984 22.9672 475.854 22.1916 475.592 21.5211C475.331 20.8507 474.947 20.3279 474.442 19.9529C473.936 19.5723 473.311 19.3819 472.567 19.3819C471.8 19.3819 471.16 19.5808 470.649 19.9785C470.138 20.3706 469.751 20.9047 469.49 21.5808C469.234 22.2569 469.106 23.0126 469.106 23.8478C469.106 24.7058 469.237 25.4586 469.498 26.1064C469.76 26.7541 470.146 27.2598 470.658 27.6234C471.175 27.987 471.811 28.1689 472.567 28.1689ZM91.5229 51.7058V59.4785H88.9746V42.024H91.4889V48.5183H91.6508C91.9576 47.8137 92.4264 47.2541 93.057 46.8393C93.6877 46.4245 94.5116 46.2172 95.5286 46.2172C96.4264 46.2172 97.2104 46.4018 97.8809 46.7711C98.557 47.1404 99.0798 47.6916 99.4491 48.4245C99.8241 49.1518 100.012 50.0609 100.012 51.1518V59.4785H97.4633V51.4586C97.4633 50.4984 97.2161 49.7541 96.7218 49.2257C96.2275 48.6916 95.54 48.4245 94.6593 48.4245C94.057 48.4245 93.5173 48.5524 93.04 48.8081C92.5684 49.0637 92.1962 49.4387 91.9235 49.9331C91.6565 50.4217 91.5229 51.0126 91.5229 51.7058ZM114.142 46.3876L109.395 59.4785H106.668L101.912 46.3876H104.648L107.963 56.4615H108.1L111.406 46.3876H114.142ZM119.972 59.7683C119.142 59.7683 118.392 59.6149 117.722 59.3081C117.051 58.9956 116.52 58.5439 116.128 57.9529C115.742 57.362 115.549 56.6376 115.549 55.7797C115.549 55.041 115.691 54.4331 115.975 53.9558C116.259 53.4785 116.642 53.1007 117.125 52.8223C117.608 52.5439 118.148 52.3336 118.745 52.1916C119.341 52.0495 119.949 51.9416 120.568 51.8677C121.352 51.7768 121.989 51.7029 122.477 51.6461C122.966 51.5836 123.321 51.4842 123.543 51.3478C123.764 51.2115 123.875 50.9899 123.875 50.6831V50.6234C123.875 49.8791 123.665 49.3024 123.245 48.8933C122.83 48.4842 122.21 48.2797 121.387 48.2797C120.529 48.2797 119.852 48.47 119.358 48.8507C118.87 49.2257 118.531 49.6433 118.344 50.1035L115.949 49.5581C116.233 48.7626 116.648 48.1206 117.193 47.6319C117.745 47.1376 118.378 46.7797 119.094 46.5581C119.81 46.3308 120.563 46.2172 121.352 46.2172C121.875 46.2172 122.429 46.2797 123.014 46.4047C123.605 46.524 124.156 46.7456 124.668 47.0694C125.185 47.3933 125.608 47.8564 125.938 48.4586C126.267 49.0552 126.432 49.8308 126.432 50.7853V59.4785H123.943V57.6887H123.841C123.676 58.0183 123.429 58.3422 123.1 58.6603C122.77 58.9785 122.347 59.2427 121.83 59.4529C121.313 59.6632 120.693 59.7683 119.972 59.7683ZM120.526 57.7228C121.23 57.7228 121.833 57.5836 122.333 57.3052C122.838 57.0268 123.222 56.6632 123.483 56.2143C123.75 55.7598 123.884 55.274 123.884 54.7569V53.0694C123.793 53.1603 123.617 53.2456 123.355 53.3251C123.1 53.399 122.807 53.4643 122.477 53.5211C122.148 53.5723 121.827 53.6206 121.514 53.666C121.202 53.7058 120.941 53.7399 120.73 53.7683C120.236 53.8308 119.784 53.9359 119.375 54.0836C118.972 54.2314 118.648 54.4444 118.404 54.7228C118.165 54.9956 118.046 55.3592 118.046 55.8137C118.046 56.4444 118.279 56.9217 118.745 57.2456C119.21 57.5637 119.804 57.7228 120.526 57.7228ZM134.727 59.7342C133.67 59.7342 132.727 59.4643 131.897 58.9245C131.073 58.3791 130.426 57.6035 129.954 56.5978C129.488 55.5865 129.255 54.3734 129.255 52.9586C129.255 51.5439 129.491 50.3336 129.963 49.3279C130.44 48.3223 131.093 47.5524 131.923 47.0183C132.752 46.4842 133.693 46.2172 134.744 46.2172C135.556 46.2172 136.21 46.3535 136.704 46.6262C137.204 46.8933 137.59 47.2058 137.863 47.5637C138.142 47.9217 138.357 48.237 138.511 48.5098H138.664V42.024H141.213V59.4785H138.724V57.4416H138.511C138.357 57.72 138.136 58.0382 137.846 58.3961C137.562 58.7541 137.17 59.0666 136.67 59.3336C136.17 59.6007 135.522 59.7342 134.727 59.7342ZM135.289 57.5609C136.022 57.5609 136.642 57.3677 137.147 56.9814C137.659 56.5893 138.045 56.0467 138.306 55.3535C138.573 54.6603 138.707 53.8535 138.707 52.9331C138.707 52.024 138.576 51.2285 138.315 50.5467C138.053 49.8649 137.67 49.3336 137.164 48.9529C136.659 48.5723 136.034 48.3819 135.289 48.3819C134.522 48.3819 133.883 48.5808 133.372 48.9785C132.86 49.3762 132.474 49.9189 132.213 50.6064C131.957 51.2939 131.829 52.0694 131.829 52.9331C131.829 53.8081 131.96 54.595 132.221 55.2939C132.482 55.9927 132.869 56.5467 133.38 56.9558C133.897 57.3592 134.534 57.5609 135.289 57.5609ZM151.406 59.4785V42.024H153.954V48.5098H154.107C154.255 48.237 154.468 47.9217 154.747 47.5637C155.025 47.2058 155.411 46.8933 155.906 46.6262C156.4 46.3535 157.053 46.2172 157.866 46.2172C158.923 46.2172 159.866 46.4842 160.696 47.0183C161.525 47.5524 162.176 48.3223 162.647 49.3279C163.125 50.3336 163.363 51.5439 163.363 52.9586C163.363 54.3734 163.127 55.5865 162.656 56.5978C162.184 57.6035 161.536 58.3791 160.713 58.9245C159.889 59.4643 158.948 59.7342 157.892 59.7342C157.096 59.7342 156.446 59.6007 155.94 59.3336C155.44 59.0666 155.048 58.7541 154.764 58.3961C154.48 58.0382 154.261 57.72 154.107 57.4416H153.894V59.4785H151.406ZM153.903 52.9331C153.903 53.8535 154.036 54.6603 154.303 55.3535C154.571 56.0467 154.957 56.5893 155.463 56.9814C155.968 57.3677 156.588 57.5609 157.321 57.5609C158.082 57.5609 158.718 57.3592 159.23 56.9558C159.741 56.5467 160.127 55.9927 160.389 55.2939C160.656 54.595 160.789 53.8081 160.789 52.9331C160.789 52.0694 160.659 51.2939 160.397 50.6064C160.142 49.9189 159.755 49.3762 159.238 48.9785C158.727 48.5808 158.088 48.3819 157.321 48.3819C156.582 48.3819 155.957 48.5723 155.446 48.9529C154.94 49.3336 154.556 49.8649 154.295 50.5467C154.034 51.2285 153.903 52.024 153.903 52.9331ZM171.867 59.7427C170.577 59.7427 169.466 59.4672 168.534 58.916C167.608 58.3592 166.892 57.5779 166.387 56.5723C165.887 55.5609 165.637 54.3762 165.637 53.0183C165.637 51.6774 165.887 50.4956 166.387 49.4728C166.892 48.4501 167.597 47.6518 168.5 47.0779C169.409 46.5041 170.472 46.2172 171.688 46.2172C172.426 46.2172 173.142 46.3393 173.835 46.5836C174.529 46.8279 175.151 47.2115 175.702 47.7342C176.253 48.2569 176.688 48.9359 177.006 49.7711C177.324 50.6007 177.483 51.6092 177.483 52.7967V53.7001H167.077V51.791H174.986C174.986 51.1206 174.85 50.5268 174.577 50.0098C174.304 49.487 173.921 49.0751 173.426 48.774C172.938 48.4728 172.364 48.3223 171.705 48.3223C170.989 48.3223 170.364 48.4984 169.83 48.8507C169.301 49.1973 168.892 49.6518 168.602 50.2143C168.318 50.7711 168.176 51.3762 168.176 52.0297V53.5211C168.176 54.3961 168.33 55.1404 168.637 55.7541C168.949 56.3677 169.384 56.8365 169.941 57.1603C170.497 57.4785 171.148 57.6376 171.892 57.6376C172.375 57.6376 172.816 57.5694 173.213 57.4331C173.611 57.291 173.955 57.0808 174.245 56.8024C174.534 56.524 174.756 56.1802 174.909 55.7711L177.321 56.2058C177.128 56.916 176.781 57.5382 176.281 58.0723C175.787 58.6007 175.165 59.0126 174.415 59.3081C173.671 59.5978 172.821 59.7427 171.867 59.7427ZM186.421 46.3876V48.4331H179.271V46.3876H186.421ZM181.188 43.2512H183.737V55.6348C183.737 56.1291 183.811 56.5012 183.958 56.7512C184.106 56.9956 184.296 57.1632 184.529 57.2541C184.768 57.3393 185.026 57.3819 185.305 57.3819C185.509 57.3819 185.688 57.3677 185.842 57.3393C185.995 57.3109 186.115 57.2882 186.2 57.2711L186.66 59.3762C186.512 59.4331 186.302 59.4899 186.029 59.5467C185.757 59.6092 185.416 59.6433 185.007 59.649C184.336 59.6603 183.711 59.541 183.132 59.291C182.552 59.041 182.083 58.6547 181.725 58.1319C181.367 57.6092 181.188 56.9529 181.188 56.1632V43.2512ZM190.851 64.3876C190.47 64.3876 190.124 64.3564 189.811 64.2939C189.499 64.237 189.266 64.1745 189.112 64.1064L189.726 62.0183C190.192 62.1433 190.607 62.1973 190.97 62.1802C191.334 62.1632 191.655 62.0268 191.933 61.7711C192.218 61.5154 192.468 61.0978 192.683 60.5183L192.999 59.649L188.209 46.3876H190.936L194.252 56.5467H194.388L197.703 46.3876H200.439L195.044 61.2257C194.794 61.9075 194.476 62.4842 194.09 62.9558C193.703 63.4331 193.243 63.791 192.709 64.0297C192.175 64.2683 191.556 64.3876 190.851 64.3876ZM207.289 59.7342C206.232 59.7342 205.289 59.4643 204.46 58.9245C203.636 58.3791 202.988 57.6035 202.517 56.5978C202.051 55.5865 201.818 54.3734 201.818 52.9586C201.818 51.5439 202.053 50.3336 202.525 49.3279C203.002 48.3223 203.656 47.5524 204.485 47.0183C205.315 46.4842 206.255 46.2172 207.306 46.2172C208.119 46.2172 208.772 46.3535 209.267 46.6262C209.767 46.8933 210.153 47.2058 210.426 47.5637C210.704 47.9217 210.92 48.237 211.073 48.5098H211.227V42.024H213.775V59.4785H211.286V57.4416H211.073C210.92 57.72 210.698 58.0382 210.409 58.3961C210.125 58.7541 209.732 59.0666 209.232 59.3336C208.732 59.6007 208.085 59.7342 207.289 59.7342ZM207.852 57.5609C208.585 57.5609 209.204 57.3677 209.71 56.9814C210.221 56.5893 210.607 56.0467 210.869 55.3535C211.136 54.6603 211.269 53.8535 211.269 52.9331C211.269 52.024 211.139 51.2285 210.877 50.5467C210.616 49.8649 210.232 49.3336 209.727 48.9529C209.221 48.5723 208.596 48.3819 207.852 48.3819C207.085 48.3819 206.446 48.5808 205.934 48.9785C205.423 49.3762 205.036 49.9189 204.775 50.6064C204.519 51.2939 204.392 52.0694 204.392 52.9331C204.392 53.8081 204.522 54.595 204.784 55.2939C205.045 55.9927 205.431 56.5467 205.943 56.9558C206.46 57.3592 207.096 57.5609 207.852 57.5609ZM223.054 59.7427C221.764 59.7427 220.654 59.4672 219.722 58.916C218.796 58.3592 218.08 57.5779 217.574 56.5723C217.074 55.5609 216.824 54.3762 216.824 53.0183C216.824 51.6774 217.074 50.4956 217.574 49.4728C218.08 48.4501 218.784 47.6518 219.688 47.0779C220.597 46.5041 221.659 46.2172 222.875 46.2172C223.614 46.2172 224.33 46.3393 225.023 46.5836C225.716 46.8279 226.338 47.2115 226.889 47.7342C227.441 48.2569 227.875 48.9359 228.193 49.7711C228.512 50.6007 228.671 51.6092 228.671 52.7967V53.7001H218.264V51.791H226.174C226.174 51.1206 226.037 50.5268 225.764 50.0098C225.492 49.487 225.108 49.0751 224.614 48.774C224.125 48.4728 223.551 48.3223 222.892 48.3223C222.176 48.3223 221.551 48.4984 221.017 48.8507C220.489 49.1973 220.08 49.6518 219.79 50.2143C219.506 50.7711 219.364 51.3762 219.364 52.0297V53.5211C219.364 54.3961 219.517 55.1404 219.824 55.7541C220.137 56.3677 220.571 56.8365 221.128 57.1603C221.685 57.4785 222.335 57.6376 223.08 57.6376C223.563 57.6376 224.003 57.5694 224.401 57.4331C224.799 57.291 225.142 57.0808 225.432 56.8024C225.722 56.524 225.943 56.1802 226.097 55.7711L228.509 56.2058C228.316 56.916 227.969 57.5382 227.469 58.0723C226.975 58.6007 226.352 59.0126 225.602 59.3081C224.858 59.5978 224.009 59.7427 223.054 59.7427ZM231.498 59.4785V46.3876H233.961V48.4672H234.098C234.336 47.7626 234.757 47.2086 235.359 46.8052C235.967 46.3961 236.654 46.1916 237.421 46.1916C237.58 46.1916 237.768 46.1973 237.984 46.2086C238.205 46.22 238.379 46.2342 238.504 46.2512V48.6887C238.401 48.6603 238.22 48.6291 237.958 48.595C237.697 48.5552 237.436 48.5353 237.174 48.5353C236.572 48.5353 236.035 48.6632 235.563 48.9189C235.098 49.1689 234.728 49.5183 234.455 49.9672C234.183 50.4103 234.046 50.916 234.046 51.4842V59.4785H231.498ZM247.265 59.4785V42.024H249.813V48.5098H249.967C250.115 48.237 250.328 47.9217 250.606 47.5637C250.884 47.2058 251.271 46.8933 251.765 46.6262C252.259 46.3535 252.913 46.2172 253.725 46.2172C254.782 46.2172 255.725 46.4842 256.555 47.0183C257.384 47.5524 258.035 48.3223 258.507 49.3279C258.984 50.3336 259.223 51.5439 259.223 52.9586C259.223 54.3734 258.987 55.5865 258.515 56.5978C258.044 57.6035 257.396 58.3791 256.572 58.9245C255.748 59.4643 254.808 59.7342 253.751 59.7342C252.955 59.7342 252.305 59.6007 251.799 59.3336C251.299 59.0666 250.907 58.7541 250.623 58.3961C250.339 58.0382 250.12 57.72 249.967 57.4416H249.754V59.4785H247.265ZM249.762 52.9331C249.762 53.8535 249.896 54.6603 250.163 55.3535C250.43 56.0467 250.816 56.5893 251.322 56.9814C251.828 57.3677 252.447 57.5609 253.18 57.5609C253.941 57.5609 254.578 57.3592 255.089 56.9558C255.6 56.5467 255.987 55.9927 256.248 55.2939C256.515 54.595 256.649 53.8081 256.649 52.9331C256.649 52.0694 256.518 51.2939 256.257 50.6064C256.001 49.9189 255.615 49.3762 255.098 48.9785C254.586 48.5808 253.947 48.3819 253.18 48.3819C252.441 48.3819 251.816 48.5723 251.305 48.9529C250.799 49.3336 250.416 49.8649 250.154 50.5467C249.893 51.2285 249.762 52.024 249.762 52.9331ZM267.726 59.7427C266.436 59.7427 265.326 59.4672 264.394 58.916C263.468 58.3592 262.752 57.5779 262.246 56.5723C261.746 55.5609 261.496 54.3762 261.496 53.0183C261.496 51.6774 261.746 50.4956 262.246 49.4728C262.752 48.4501 263.456 47.6518 264.36 47.0779C265.269 46.5041 266.331 46.2172 267.547 46.2172C268.286 46.2172 269.002 46.3393 269.695 46.5836C270.388 46.8279 271.01 47.2115 271.561 47.7342C272.112 48.2569 272.547 48.9359 272.865 49.7711C273.183 50.6007 273.343 51.6092 273.343 52.7967V53.7001H262.936V51.791H270.845C270.845 51.1206 270.709 50.5268 270.436 50.0098C270.164 49.487 269.78 49.0751 269.286 48.774C268.797 48.4728 268.223 48.3223 267.564 48.3223C266.848 48.3223 266.223 48.4984 265.689 48.8507C265.161 49.1973 264.752 49.6518 264.462 50.2143C264.178 50.7711 264.036 51.3762 264.036 52.0297V53.5211C264.036 54.3961 264.189 55.1404 264.496 55.7541C264.808 56.3677 265.243 56.8365 265.8 57.1603C266.357 57.4785 267.007 57.6376 267.752 57.6376C268.235 57.6376 268.675 57.5694 269.073 57.4331C269.47 57.291 269.814 57.0808 270.104 56.8024C270.394 56.524 270.615 56.1802 270.769 55.7711L273.181 56.2058C272.987 56.916 272.641 57.5382 272.141 58.0723C271.647 58.6007 271.024 59.0126 270.274 59.3081C269.53 59.5978 268.681 59.7427 267.726 59.7427ZM281.659 64.6603C280.619 64.6603 279.724 64.524 278.974 64.2512C278.23 63.9785 277.622 63.6177 277.15 63.1689C276.678 62.72 276.326 62.2285 276.093 61.6944L278.284 60.791C278.437 61.041 278.642 61.3052 278.897 61.5836C279.159 61.8677 279.511 62.1092 279.954 62.3081C280.403 62.5069 280.98 62.6064 281.684 62.6064C282.65 62.6064 283.448 62.3706 284.079 61.899C284.71 61.4331 285.025 60.6887 285.025 59.666V57.0922H284.863C284.71 57.3706 284.488 57.6802 284.198 58.0211C283.914 58.362 283.522 58.6575 283.022 58.9075C282.522 59.1575 281.872 59.2825 281.071 59.2825C280.036 59.2825 279.105 59.041 278.275 58.5581C277.451 58.0694 276.798 57.3507 276.315 56.4018C275.838 55.4473 275.599 54.274 275.599 52.8819C275.599 51.4899 275.835 50.2967 276.306 49.3024C276.784 48.3081 277.437 47.5467 278.267 47.0183C279.096 46.4842 280.036 46.2172 281.088 46.2172C281.9 46.2172 282.556 46.3535 283.056 46.6262C283.556 46.8933 283.946 47.2058 284.224 47.5637C284.508 47.9217 284.727 48.237 284.88 48.5098H285.068V46.3876H287.565V59.7683C287.565 60.8933 287.303 61.8166 286.781 62.5382C286.258 63.2598 285.551 63.7939 284.659 64.1404C283.772 64.487 282.772 64.6603 281.659 64.6603ZM281.633 57.1689C282.366 57.1689 282.985 56.9984 283.491 56.6575C284.002 56.3109 284.389 55.8166 284.65 55.1745C284.917 54.5268 285.051 53.7512 285.051 52.8478C285.051 51.9672 284.92 51.1916 284.659 50.5211C284.397 49.8507 284.014 49.3279 283.508 48.9529C283.002 48.5723 282.377 48.3819 281.633 48.3819C280.866 48.3819 280.227 48.5808 279.715 48.9785C279.204 49.3706 278.818 49.9047 278.556 50.5808C278.301 51.2569 278.173 52.0126 278.173 52.8478C278.173 53.7058 278.303 54.4586 278.565 55.1064C278.826 55.7541 279.213 56.2598 279.724 56.6234C280.241 56.987 280.877 57.1689 281.633 57.1689ZM290.982 59.4785V46.3876H293.446V48.4672H293.582C293.821 47.7626 294.241 47.2086 294.843 46.8052C295.451 46.3961 296.139 46.1916 296.906 46.1916C297.065 46.1916 297.252 46.1973 297.468 46.2086C297.69 46.22 297.863 46.2342 297.988 46.2512V48.6887C297.886 48.6603 297.704 48.6291 297.443 48.595C297.181 48.5552 296.92 48.5353 296.659 48.5353C296.056 48.5353 295.519 48.6632 295.048 48.9189C294.582 49.1689 294.213 49.5183 293.94 49.9672C293.667 50.4103 293.531 50.916 293.531 51.4842V59.4785H290.982ZM313.798 59.7427C312.428 59.7427 311.272 59.4189 310.329 58.7711C309.386 58.1177 308.784 57.2456 308.522 56.1547L308.735 49.2512C309.196 48.274 309.829 47.524 310.636 47.0012C311.443 46.4785 312.411 46.2172 313.542 46.2172C314.286 46.2172 315.002 46.3393 315.69 46.5836C316.383 46.8279 317.005 47.2115 317.556 47.7342C318.107 48.2569 318.542 48.9359 318.86 49.7711C319.184 50.6007 319.346 51.6092 319.346 52.7967V53.7001H309.017V51.791H316.84C316.84 51.1206 316.704 50.5268 316.431 50.0098C316.159 49.487 315.775 49.0751 315.281 48.774C314.792 48.4728 314.218 48.3223 313.559 48.3223C312.843 48.3223 312.221 48.4984 311.693 48.8507C311.164 49.1973 310.755 49.6518 310.465 50.2143C310.176 50.7768 310.031 51.3819 310.031 52.0297V53.5211C310.031 54.3961 310.187 55.1404 310.5 55.7541C310.812 56.3677 311.247 56.8365 311.803 57.1603C312.36 57.4785 313.008 57.6376 313.747 57.6376C314.235 57.6376 314.676 57.5694 315.068 57.4331C315.465 57.291 315.809 57.0808 316.099 56.8024C316.389 56.524 316.61 56.1802 316.764 55.7711L319.176 56.2058C318.982 56.916 318.639 57.5382 318.144 58.0723C317.65 58.6007 317.031 59.0126 316.286 59.3081C315.548 59.5978 314.718 59.7427 313.798 59.7427ZM304.44 57.7228C305.144 57.7228 305.747 57.5836 306.247 57.3052C306.752 57.0268 307.136 56.6632 307.397 56.2143C307.664 55.7598 307.798 55.274 307.798 54.7569V53.0694C307.707 53.1603 307.531 53.2456 307.269 53.3251C307.014 53.399 306.721 53.4643 306.392 53.5211C306.062 53.5723 305.741 53.6206 305.428 53.666C305.116 53.7058 304.855 53.7399 304.644 53.7683C304.15 53.8308 303.698 53.9359 303.289 54.0836C302.886 54.2314 302.562 54.4444 302.318 54.7228C302.079 54.9956 301.96 55.3592 301.96 55.8137C301.96 56.4444 302.193 56.9217 302.659 57.2456C303.125 57.5637 303.718 57.7228 304.44 57.7228ZM303.954 59.7683C303.102 59.7683 302.335 59.6149 301.653 59.3081C300.977 58.9956 300.443 58.5439 300.051 57.9529C299.659 57.362 299.463 56.6376 299.463 55.7797C299.463 55.041 299.605 54.4331 299.889 53.9558C300.178 53.4785 300.562 53.1007 301.039 52.8223C301.522 52.5382 302.062 52.3251 302.659 52.1831C303.261 52.041 303.869 51.9359 304.482 51.8677C305.267 51.7768 305.903 51.7001 306.392 51.6376C306.88 51.5751 307.235 51.4785 307.457 51.3478C307.678 51.2115 307.789 50.9899 307.789 50.6831V50.6234C307.789 49.8848 307.579 49.3109 307.159 48.9018C306.744 48.487 306.125 48.2797 305.301 48.2797C304.448 48.2797 303.775 48.4672 303.281 48.8422C302.786 49.2172 302.446 49.6376 302.258 50.1035L299.863 49.5581C300.147 48.7626 300.562 48.1206 301.107 47.6319C301.653 47.1376 302.286 46.7797 303.008 46.5581C303.73 46.3308 304.488 46.2172 305.284 46.2172C305.653 46.2172 306.051 46.2512 306.477 46.3194C306.909 46.3876 307.332 46.5154 307.747 46.7029C308.167 46.8848 308.548 47.149 308.889 47.4956C309.23 47.8422 309.491 48.2967 309.673 48.8592L309.008 57.1774H308.812C308.625 57.666 308.289 58.1064 307.806 58.4984C307.329 58.8904 306.755 59.2001 306.085 59.4274C305.42 59.6547 304.71 59.7683 303.954 59.7683ZM324.726 51.7058V59.4785H322.178V46.3876H324.624V48.5183H324.786C325.087 47.8251 325.558 47.2683 326.201 46.8478C326.848 46.4274 327.664 46.2172 328.647 46.2172C329.539 46.2172 330.32 46.4047 330.99 46.7797C331.661 47.149 332.181 47.7001 332.55 48.4331C332.919 49.166 333.104 50.0723 333.104 51.1518V59.4785H330.556V51.4586C330.556 50.5098 330.308 49.7683 329.814 49.2342C329.32 48.6944 328.641 48.4245 327.777 48.4245C327.186 48.4245 326.661 48.5524 326.201 48.8081C325.746 49.0637 325.385 49.4387 325.118 49.9331C324.857 50.4217 324.726 51.0126 324.726 51.7058ZM346.331 49.5836L344.022 49.9927C343.925 49.6973 343.772 49.416 343.561 49.149C343.357 48.8819 343.078 48.6632 342.726 48.4927C342.374 48.3223 341.933 48.237 341.405 48.237C340.683 48.237 340.081 48.399 339.598 48.7228C339.115 49.041 338.874 49.4529 338.874 49.9586C338.874 50.3961 339.036 50.7484 339.36 51.0154C339.683 51.2825 340.206 51.5012 340.928 51.6717L343.007 52.149C344.212 52.4274 345.11 52.8564 345.701 53.4359C346.291 54.0154 346.587 54.7683 346.587 55.6944C346.587 56.4785 346.36 57.1774 345.905 57.791C345.456 58.399 344.828 58.8762 344.022 59.2228C343.22 59.5694 342.291 59.7427 341.235 59.7427C339.769 59.7427 338.573 59.4302 337.647 58.8052C336.72 58.1745 336.152 57.2797 335.942 56.1206L338.405 55.7456C338.558 56.3876 338.874 56.8734 339.351 57.2029C339.828 57.5268 340.451 57.6887 341.218 57.6887C342.053 57.6887 342.72 57.5154 343.22 57.1689C343.72 56.8166 343.97 56.3876 343.97 55.8819C343.97 55.4728 343.817 55.1291 343.51 54.8507C343.209 54.5723 342.746 54.362 342.121 54.22L339.905 53.7342C338.683 53.4558 337.78 53.0126 337.195 52.4047C336.615 51.7967 336.326 51.0268 336.326 50.095C336.326 49.3223 336.541 48.6461 336.973 48.0666C337.405 47.487 338.002 47.0353 338.763 46.7115C339.524 46.3819 340.397 46.2172 341.379 46.2172C342.794 46.2172 343.908 46.524 344.72 47.1376C345.533 47.7456 346.07 48.5609 346.331 49.5836ZM355.031 59.7427C353.741 59.7427 352.63 59.4672 351.698 58.916C350.772 58.3592 350.056 57.5779 349.551 56.5723C349.051 55.5609 348.801 54.3762 348.801 53.0183C348.801 51.6774 349.051 50.4956 349.551 49.4728C350.056 48.4501 350.761 47.6518 351.664 47.0779C352.573 46.5041 353.636 46.2172 354.852 46.2172C355.59 46.2172 356.306 46.3393 357 46.5836C357.693 46.8279 358.315 47.2115 358.866 47.7342C359.417 48.2569 359.852 48.9359 360.17 49.7711C360.488 50.6007 360.647 51.6092 360.647 52.7967V53.7001H350.241V51.791H358.15C358.15 51.1206 358.014 50.5268 357.741 50.0098C357.468 49.487 357.085 49.0751 356.59 48.774C356.102 48.4728 355.528 48.3223 354.869 48.3223C354.153 48.3223 353.528 48.4984 352.994 48.8507C352.465 49.1973 352.056 49.6518 351.767 50.2143C351.482 50.7711 351.34 51.3762 351.34 52.0297V53.5211C351.34 54.3961 351.494 55.1404 351.801 55.7541C352.113 56.3677 352.548 56.8365 353.105 57.1603C353.661 57.4785 354.312 57.6376 355.056 57.6376C355.539 57.6376 355.98 57.5694 356.377 57.4331C356.775 57.291 357.119 57.0808 357.409 56.8024C357.698 56.524 357.92 56.1802 358.073 55.7711L360.485 56.2058C360.292 56.916 359.946 57.5382 359.446 58.0723C358.951 58.6007 358.329 59.0126 357.579 59.3081C356.835 59.5978 355.985 59.7427 355.031 59.7427ZM369.585 46.3876V48.4331H362.435V46.3876H369.585ZM364.353 43.2512H366.901V55.6348C366.901 56.1291 366.975 56.5012 367.122 56.7512C367.27 56.9956 367.46 57.1632 367.693 57.2541C367.932 57.3393 368.191 57.3819 368.469 57.3819C368.674 57.3819 368.853 57.3677 369.006 57.3393C369.159 57.3109 369.279 57.2882 369.364 57.2711L369.824 59.3762C369.676 59.4331 369.466 59.4899 369.193 59.5467C368.921 59.6092 368.58 59.6433 368.171 59.649C367.5 59.6603 366.875 59.541 366.296 59.291C365.716 59.041 365.247 58.6547 364.889 58.1319C364.531 57.6092 364.353 56.9529 364.353 56.1632V43.2512ZM382.566 59.7683C381.736 59.7683 380.986 59.6149 380.316 59.3081C379.645 58.9956 379.114 58.5439 378.722 57.9529C378.335 57.362 378.142 56.6376 378.142 55.7797C378.142 55.041 378.284 54.4331 378.568 53.9558C378.853 53.4785 379.236 53.1007 379.719 52.8223C380.202 52.5439 380.742 52.3336 381.338 52.1916C381.935 52.0495 382.543 51.9416 383.162 51.8677C383.946 51.7768 384.583 51.7029 385.071 51.6461C385.56 51.5836 385.915 51.4842 386.137 51.3478C386.358 51.2115 386.469 50.9899 386.469 50.6831V50.6234C386.469 49.8791 386.259 49.3024 385.838 48.8933C385.424 48.4842 384.804 48.2797 383.98 48.2797C383.122 48.2797 382.446 48.47 381.952 48.8507C381.463 49.2257 381.125 49.6433 380.938 50.1035L378.543 49.5581C378.827 48.7626 379.242 48.1206 379.787 47.6319C380.338 47.1376 380.972 46.7797 381.688 46.5581C382.404 46.3308 383.156 46.2172 383.946 46.2172C384.469 46.2172 385.023 46.2797 385.608 46.4047C386.199 46.524 386.75 46.7456 387.262 47.0694C387.779 47.3933 388.202 47.8564 388.531 48.4586C388.861 49.0552 389.026 49.8308 389.026 50.7853V59.4785H386.537V57.6887H386.435C386.27 58.0183 386.023 58.3422 385.693 58.6603C385.364 58.9785 384.941 59.2427 384.424 59.4529C383.906 59.6632 383.287 59.7683 382.566 59.7683ZM383.12 57.7228C383.824 57.7228 384.426 57.5836 384.926 57.3052C385.432 57.0268 385.816 56.6632 386.077 56.2143C386.344 55.7598 386.478 55.274 386.478 54.7569V53.0694C386.387 53.1603 386.21 53.2456 385.949 53.3251C385.693 53.399 385.401 53.4643 385.071 53.5211C384.742 53.5723 384.421 53.6206 384.108 53.666C383.796 53.7058 383.534 53.7399 383.324 53.7683C382.83 53.8308 382.378 53.9359 381.969 54.0836C381.566 54.2314 381.242 54.4444 380.997 54.7228C380.759 54.9956 380.639 55.3592 380.639 55.8137C380.639 56.4444 380.872 56.9217 381.338 57.2456C381.804 57.5637 382.398 57.7228 383.12 57.7228ZM397.321 59.7342C396.264 59.7342 395.321 59.4643 394.491 58.9245C393.667 58.3791 393.019 57.6035 392.548 56.5978C392.082 55.5865 391.849 54.3734 391.849 52.9586C391.849 51.5439 392.085 50.3336 392.556 49.3279C393.034 48.3223 393.687 47.5524 394.517 47.0183C395.346 46.4842 396.286 46.2172 397.338 46.2172C398.15 46.2172 398.804 46.3535 399.298 46.6262C399.798 46.8933 400.184 47.2058 400.457 47.5637C400.735 47.9217 400.951 48.237 401.105 48.5098H401.258V42.024H403.806V59.4785H401.318V57.4416H401.105C400.951 57.72 400.73 58.0382 400.44 58.3961C400.156 58.7541 399.764 59.0666 399.264 59.3336C398.764 59.6007 398.116 59.7342 397.321 59.7342ZM397.883 57.5609C398.616 57.5609 399.235 57.3677 399.741 56.9814C400.252 56.5893 400.639 56.0467 400.9 55.3535C401.167 54.6603 401.301 53.8535 401.301 52.9331C401.301 52.024 401.17 51.2285 400.909 50.5467C400.647 49.8649 400.264 49.3336 399.758 48.9529C399.252 48.5723 398.627 48.3819 397.883 48.3819C397.116 48.3819 396.477 48.5808 395.965 48.9785C395.454 49.3762 395.068 49.9189 394.806 50.6064C394.551 51.2939 394.423 52.0694 394.423 52.9331C394.423 53.8081 394.554 54.595 394.815 55.2939C395.076 55.9927 395.463 56.5467 395.974 56.9558C396.491 57.3592 397.127 57.5609 397.883 57.5609ZM412.932 64.6603C411.892 64.6603 410.997 64.524 410.247 64.2512C409.503 63.9785 408.895 63.6177 408.424 63.1689C407.952 62.72 407.6 62.2285 407.367 61.6944L409.557 60.791C409.71 61.041 409.915 61.3052 410.171 61.5836C410.432 61.8677 410.784 62.1092 411.228 62.3081C411.676 62.5069 412.253 62.6064 412.958 62.6064C413.924 62.6064 414.722 62.3706 415.353 61.899C415.983 61.4331 416.299 60.6887 416.299 59.666V57.0922H416.137C415.983 57.3706 415.762 57.6802 415.472 58.0211C415.188 58.362 414.796 58.6575 414.296 58.9075C413.796 59.1575 413.145 59.2825 412.344 59.2825C411.31 59.2825 410.378 59.041 409.549 58.5581C408.725 58.0694 408.071 57.3507 407.588 56.4018C407.111 55.4473 406.872 54.274 406.872 52.8819C406.872 51.4899 407.108 50.2967 407.58 49.3024C408.057 48.3081 408.71 47.5467 409.54 47.0183C410.37 46.4842 411.31 46.2172 412.361 46.2172C413.174 46.2172 413.83 46.3535 414.33 46.6262C414.83 46.8933 415.219 47.2058 415.497 47.5637C415.781 47.9217 416 48.237 416.154 48.5098H416.341V46.3876H418.838V59.7683C418.838 60.8933 418.577 61.8166 418.054 62.5382C417.531 63.2598 416.824 63.7939 415.932 64.1404C415.046 64.487 414.046 64.6603 412.932 64.6603ZM412.906 57.1689C413.639 57.1689 414.259 56.9984 414.764 56.6575C415.276 56.3109 415.662 55.8166 415.924 55.1745C416.191 54.5268 416.324 53.7512 416.324 52.8478C416.324 51.9672 416.193 51.1916 415.932 50.5211C415.671 49.8507 415.287 49.3279 414.781 48.9529C414.276 48.5723 413.651 48.3819 412.906 48.3819C412.139 48.3819 411.5 48.5808 410.989 48.9785C410.478 49.3706 410.091 49.9047 409.83 50.5808C409.574 51.2569 409.446 52.0126 409.446 52.8478C409.446 53.7058 409.577 54.4586 409.838 55.1064C410.1 55.7541 410.486 56.2598 410.997 56.6234C411.514 56.987 412.151 57.1689 412.906 57.1689ZM426.066 59.7683C425.236 59.7683 424.486 59.6149 423.816 59.3081C423.145 58.9956 422.614 58.5439 422.222 57.9529C421.835 57.362 421.642 56.6376 421.642 55.7797C421.642 55.041 421.784 54.4331 422.068 53.9558C422.353 53.4785 422.736 53.1007 423.219 52.8223C423.702 52.5439 424.242 52.3336 424.838 52.1916C425.435 52.0495 426.043 51.9416 426.662 51.8677C427.446 51.7768 428.083 51.7029 428.571 51.6461C429.06 51.5836 429.415 51.4842 429.637 51.3478C429.858 51.2115 429.969 50.9899 429.969 50.6831V50.6234C429.969 49.8791 429.759 49.3024 429.338 48.8933C428.924 48.4842 428.304 48.2797 427.48 48.2797C426.622 48.2797 425.946 48.47 425.452 48.8507C424.963 49.2257 424.625 49.6433 424.438 50.1035L422.043 49.5581C422.327 48.7626 422.742 48.1206 423.287 47.6319C423.838 47.1376 424.472 46.7797 425.188 46.5581C425.904 46.3308 426.656 46.2172 427.446 46.2172C427.969 46.2172 428.523 46.2797 429.108 46.4047C429.699 46.524 430.25 46.7456 430.762 47.0694C431.279 47.3933 431.702 47.8564 432.031 48.4586C432.361 49.0552 432.526 49.8308 432.526 50.7853V59.4785H430.037V57.6887H429.935C429.77 58.0183 429.523 58.3422 429.193 58.6603C428.864 58.9785 428.441 59.2427 427.924 59.4529C427.406 59.6632 426.787 59.7683 426.066 59.7683ZM426.62 57.7228C427.324 57.7228 427.926 57.5836 428.426 57.3052C428.932 57.0268 429.316 56.6632 429.577 56.2143C429.844 55.7598 429.978 55.274 429.978 54.7569V53.0694C429.887 53.1603 429.71 53.2456 429.449 53.3251C429.193 53.399 428.901 53.4643 428.571 53.5211C428.242 53.5723 427.921 53.6206 427.608 53.666C427.296 53.7058 427.034 53.7399 426.824 53.7683C426.33 53.8308 425.878 53.9359 425.469 54.0836C425.066 54.2314 424.742 54.4444 424.497 54.7228C424.259 54.9956 424.139 55.3592 424.139 55.8137C424.139 56.4444 424.372 56.9217 424.838 57.2456C425.304 57.5637 425.898 57.7228 426.62 57.7228ZM438.468 51.7058V59.4785H435.92V46.3876H438.366V48.5183H438.528C438.829 47.8251 439.301 47.2683 439.943 46.8478C440.59 46.4274 441.406 46.2172 442.389 46.2172C443.281 46.2172 444.062 46.4047 444.732 46.7797C445.403 47.149 445.923 47.7001 446.292 48.4331C446.661 49.166 446.846 50.0723 446.846 51.1518V59.4785H444.298V51.4586C444.298 50.5098 444.051 49.7683 443.556 49.2342C443.062 48.6944 442.383 48.4245 441.519 48.4245C440.929 48.4245 440.403 48.5524 439.943 48.8081C439.488 49.0637 439.127 49.4387 438.86 49.9331C438.599 50.4217 438.468 51.0126 438.468 51.7058ZM455.752 64.6603C454.713 64.6603 453.818 64.524 453.068 64.2512C452.323 63.9785 451.715 63.6177 451.244 63.1689C450.772 62.72 450.42 62.2285 450.187 61.6944L452.377 60.791C452.531 61.041 452.735 61.3052 452.991 61.5836C453.252 61.8677 453.605 62.1092 454.048 62.3081C454.497 62.5069 455.073 62.6064 455.778 62.6064C456.744 62.6064 457.542 62.3706 458.173 61.899C458.804 61.4331 459.119 60.6887 459.119 59.666V57.0922H458.957C458.804 57.3706 458.582 57.6802 458.292 58.0211C458.008 58.362 457.616 58.6575 457.116 58.9075C456.616 59.1575 455.965 59.2825 455.164 59.2825C454.13 59.2825 453.198 59.041 452.369 58.5581C451.545 58.0694 450.892 57.3507 450.409 56.4018C449.931 55.4473 449.693 54.274 449.693 52.8819C449.693 51.4899 449.929 50.2967 450.4 49.3024C450.877 48.3081 451.531 47.5467 452.36 47.0183C453.19 46.4842 454.13 46.2172 455.181 46.2172C455.994 46.2172 456.65 46.3535 457.15 46.6262C457.65 46.8933 458.039 47.2058 458.318 47.5637C458.602 47.9217 458.821 48.237 458.974 48.5098H459.161V46.3876H461.659V59.7683C461.659 60.8933 461.397 61.8166 460.875 62.5382C460.352 63.2598 459.644 63.7939 458.752 64.1404C457.866 64.487 456.866 64.6603 455.752 64.6603ZM455.727 57.1689C456.46 57.1689 457.079 56.9984 457.585 56.6575C458.096 56.3109 458.482 55.8166 458.744 55.1745C459.011 54.5268 459.144 53.7512 459.144 52.8478C459.144 51.9672 459.014 51.1916 458.752 50.5211C458.491 49.8507 458.107 49.3279 457.602 48.9529C457.096 48.5723 456.471 48.3819 455.727 48.3819C454.96 48.3819 454.321 48.5808 453.809 48.9785C453.298 49.3706 452.911 49.9047 452.65 50.5808C452.394 51.2569 452.267 52.0126 452.267 52.8478C452.267 53.7058 452.397 54.4586 452.659 55.1064C452.92 55.7541 453.306 56.2598 453.818 56.6234C454.335 56.987 454.971 57.1689 455.727 57.1689ZM467.863 54.4586V54.2967C467.875 53.2399 467.98 52.399 468.179 51.774C468.383 51.149 468.673 50.6433 469.048 50.2569C469.423 49.8706 469.875 49.5183 470.403 49.2001C470.744 48.9842 471.051 48.7427 471.323 48.4757C471.596 48.2086 471.812 47.9018 471.971 47.5552C472.13 47.2086 472.21 46.8251 472.21 46.4047C472.21 45.899 472.09 45.4615 471.852 45.0922C471.613 44.7228 471.295 44.4387 470.897 44.2399C470.505 44.0353 470.068 43.9331 469.585 43.9331C469.147 43.9331 468.73 44.024 468.332 44.2058C467.934 44.3876 467.605 44.6717 467.343 45.0581C467.082 45.4387 466.931 45.9302 466.892 46.5325H464.301C464.34 45.5098 464.599 44.6461 465.076 43.9416C465.554 43.2314 466.184 42.6944 466.968 42.3308C467.758 41.9672 468.63 41.7853 469.585 41.7853C470.63 41.7853 471.545 41.9814 472.329 42.3734C473.113 42.7598 473.721 43.3024 474.153 44.0012C474.59 44.6944 474.809 45.5041 474.809 46.4302C474.809 47.0666 474.71 47.6404 474.511 48.1518C474.312 48.6575 474.028 49.1092 473.659 49.5069C473.295 49.9047 472.857 50.2569 472.346 50.5637C471.863 50.8649 471.471 51.1774 471.17 51.5012C470.875 51.8251 470.659 52.2086 470.522 52.6518C470.386 53.095 470.312 53.6433 470.301 54.2967V54.4586H467.863ZM469.15 59.6404C468.684 59.6404 468.284 59.4757 467.948 59.1461C467.613 58.8109 467.446 58.4075 467.446 57.9359C467.446 57.47 467.613 57.0723 467.948 56.7427C468.284 56.4075 468.684 56.2399 469.15 56.2399C469.61 56.2399 470.008 56.4075 470.343 56.7427C470.684 57.0723 470.855 57.47 470.855 57.9359C470.855 58.2484 470.775 58.5353 470.616 58.7967C470.463 59.0524 470.258 59.2569 470.002 59.4103C469.747 59.5637 469.463 59.6404 469.15 59.6404Z" fill="white"/>
<defs>
<filter id="filter0_d_279_976" x="0.721191" y="0.595093" width="566.558" height="87.1595" filterUnits="userSpaceOnUse" color-interpolation-filters="sRGB">
<feFlood flood-opacity="0" result="BackgroundImageFix"/>
<feColorMatrix in="SourceAlpha" type="matrix" values="0 0 0 0 0 0 0 0 0 0 0 0 0 0 0 0 0 0 127 0" result="hardAlpha"/>
<feOffset dx="-5" dy="4"/>
<feGaussianBlur stdDeviation="2"/>
<feComposite in2="hardAlpha" operator="out"/>
<feColorMatrix type="matrix" values="0 0 0 0 0 0 0 0 0 0 0 0 0 0 0 0 0 0 0.38 0"/>
<feBlend mode="normal" in2="BackgroundImageFix" result="effect1_dropShadow_279_976"/>
<feBlend mode="normal" in="SourceGraphic" in2="effect1_dropShadow_279_976" result="shape"/>
</filter>
</defs>
</svg>
