<svg width="568" height="88" viewBox="0 0 568 88" fill="none" xmlns="http://www.w3.org/2000/svg">
<g filter="url(#filter0_d_279_970)">
<rect x="9.72119" width="557.558" height="79.1595" rx="14" fill="#03266A"/>
</g>
<path d="M131.29 47.092V29.6375H133.923V37.2227H142.625V29.6375H145.267V47.092H142.625V39.4812H133.923V47.092H131.29ZM160.096 34.0011L155.349 47.092H152.622L147.866 34.0011H150.602L153.917 44.075H154.054L157.361 34.0011H160.096ZM165.926 47.3818C165.096 47.3818 164.346 47.2284 163.676 46.9216C163.005 46.6091 162.474 46.1574 162.082 45.5665C161.696 44.9756 161.503 44.2511 161.503 43.3932C161.503 42.6545 161.645 42.0466 161.929 41.5693C162.213 41.092 162.596 40.7142 163.079 40.4358C163.562 40.1574 164.102 39.9472 164.699 39.8051C165.295 39.6631 165.903 39.5551 166.523 39.4812C167.307 39.3903 167.943 39.3165 168.432 39.2597C168.92 39.1972 169.275 39.0977 169.497 38.9614C169.719 38.825 169.829 38.6034 169.829 38.2966V38.2369C169.829 37.4926 169.619 36.9159 169.199 36.5068C168.784 36.0977 168.165 35.8932 167.341 35.8932C166.483 35.8932 165.807 36.0835 165.312 36.4642C164.824 36.8392 164.486 37.2568 164.298 37.717L161.903 37.1716C162.187 36.3761 162.602 35.7341 163.148 35.2454C163.699 34.7511 164.332 34.3932 165.048 34.1716C165.764 33.9443 166.517 33.8307 167.307 33.8307C167.829 33.8307 168.383 33.8932 168.969 34.0182C169.559 34.1375 170.111 34.3591 170.622 34.6829C171.139 35.0068 171.562 35.4699 171.892 36.0722C172.221 36.6687 172.386 37.4443 172.386 38.3989V47.092H169.898V45.3023H169.795C169.63 45.6318 169.383 45.9557 169.054 46.2739C168.724 46.592 168.301 46.8562 167.784 47.0665C167.267 47.2767 166.648 47.3818 165.926 47.3818ZM166.48 45.3364C167.184 45.3364 167.787 45.1972 168.287 44.9187C168.792 44.6403 169.176 44.2767 169.437 43.8278C169.704 43.3733 169.838 42.8875 169.838 42.3705V40.6829C169.747 40.7739 169.571 40.8591 169.309 40.9386C169.054 41.0125 168.761 41.0778 168.432 41.1347C168.102 41.1858 167.781 41.2341 167.469 41.2795C167.156 41.3193 166.895 41.3534 166.684 41.3818C166.19 41.4443 165.738 41.5494 165.329 41.6972C164.926 41.8449 164.602 42.0579 164.358 42.3364C164.119 42.6091 164 42.9727 164 43.4273C164 44.058 164.233 44.5352 164.699 44.8591C165.165 45.1773 165.758 45.3364 166.48 45.3364ZM180.681 47.3477C179.624 47.3477 178.681 47.0778 177.851 46.5381C177.027 45.9926 176.38 45.217 175.908 44.2114C175.442 43.2 175.209 41.9869 175.209 40.5722C175.209 39.1574 175.445 37.9472 175.917 36.9415C176.394 35.9358 177.047 35.1659 177.877 34.6318C178.706 34.0977 179.647 33.8307 180.698 33.8307C181.51 33.8307 182.164 33.967 182.658 34.2398C183.158 34.5068 183.545 34.8193 183.817 35.1773C184.096 35.5352 184.312 35.8506 184.465 36.1233H184.618V29.6375H187.167V47.092H184.678V45.0551H184.465C184.312 45.3335 184.09 45.6517 183.8 46.0097C183.516 46.3676 183.124 46.6801 182.624 46.9472C182.124 47.2142 181.476 47.3477 180.681 47.3477ZM181.243 45.1744C181.976 45.1744 182.596 44.9812 183.101 44.5949C183.613 44.2028 183.999 43.6602 184.26 42.967C184.527 42.2739 184.661 41.467 184.661 40.5466C184.661 39.6375 184.53 38.842 184.269 38.1602C184.008 37.4784 183.624 36.9472 183.118 36.5665C182.613 36.1858 181.988 35.9954 181.243 35.9954C180.476 35.9954 179.837 36.1943 179.326 36.592C178.814 36.9898 178.428 37.5324 178.167 38.2199C177.911 38.9074 177.783 39.6829 177.783 40.5466C177.783 41.4216 177.914 42.2085 178.175 42.9074C178.437 43.6062 178.823 44.1602 179.334 44.5693C179.851 44.9727 180.488 45.1744 181.243 45.1744ZM202.797 47.3562C201.508 47.3562 200.397 47.0807 199.465 46.5295C198.539 45.9727 197.823 45.1915 197.317 44.1858C196.817 43.1744 196.567 41.9898 196.567 40.6318C196.567 39.2909 196.817 38.1091 197.317 37.0864C197.823 36.0636 198.527 35.2653 199.431 34.6915C200.34 34.1176 201.402 33.8307 202.618 33.8307C203.357 33.8307 204.073 33.9528 204.766 34.1972C205.459 34.4415 206.081 34.825 206.633 35.3477C207.184 35.8704 207.618 36.5494 207.937 37.3847C208.255 38.2142 208.414 39.2227 208.414 40.4102V41.3136H198.008V39.4045H205.917C205.917 38.7341 205.78 38.1403 205.508 37.6233C205.235 37.1006 204.851 36.6886 204.357 36.3875C203.868 36.0864 203.295 35.9358 202.635 35.9358C201.92 35.9358 201.295 36.1119 200.76 36.4642C200.232 36.8108 199.823 37.2653 199.533 37.8278C199.249 38.3847 199.107 38.9898 199.107 39.6432V41.1347C199.107 42.0097 199.26 42.754 199.567 43.3676C199.88 43.9812 200.314 44.45 200.871 44.7739C201.428 45.092 202.079 45.2511 202.823 45.2511C203.306 45.2511 203.746 45.183 204.144 45.0466C204.542 44.9045 204.885 44.6943 205.175 44.4159C205.465 44.1375 205.687 43.7937 205.84 43.3847L208.252 43.8193C208.059 44.5295 207.712 45.1517 207.212 45.6858C206.718 46.2142 206.096 46.6261 205.346 46.9216C204.601 47.2114 203.752 47.3562 202.797 47.3562ZM211.241 47.092V34.0011H213.704V36.0807H213.841C214.079 35.3761 214.5 34.8222 215.102 34.4187C215.71 34.0097 216.398 33.8051 217.165 33.8051C217.324 33.8051 217.511 33.8108 217.727 33.8222C217.949 33.8335 218.122 33.8477 218.247 33.8648V36.3023C218.145 36.2739 217.963 36.2426 217.701 36.2085C217.44 36.1687 217.179 36.1489 216.917 36.1489C216.315 36.1489 215.778 36.2767 215.307 36.5324C214.841 36.7824 214.471 37.1318 214.199 37.5807C213.926 38.0239 213.79 38.5295 213.79 39.0977V47.092H211.241ZM228.483 47.092H225.687L231.969 29.6375H235.011L241.292 47.092H238.497L233.562 32.8079H233.426L228.483 47.092ZM228.951 40.2568H238.02V42.4727H228.951V40.2568ZM245.287 47.092H242.492L248.773 29.6375H251.816L258.097 47.092H255.302L250.367 32.8079H250.231L245.287 47.092ZM245.756 40.2568H254.824V42.4727H245.756V40.2568ZM271.842 29.6375H274.484V41.1176C274.484 42.3392 274.197 43.4216 273.623 44.3648C273.049 45.3023 272.243 46.0409 271.203 46.5807C270.163 47.1148 268.944 47.3818 267.547 47.3818C266.155 47.3818 264.939 47.1148 263.899 46.5807C262.859 46.0409 262.052 45.3023 261.478 44.3648C260.905 43.4216 260.618 42.3392 260.618 41.1176V29.6375H263.251V40.9045C263.251 41.6943 263.424 42.396 263.771 43.0097C264.123 43.6233 264.621 44.1062 265.263 44.4585C265.905 44.8051 266.666 44.9784 267.547 44.9784C268.433 44.9784 269.197 44.8051 269.839 44.4585C270.487 44.1062 270.981 43.6233 271.322 43.0097C271.669 42.396 271.842 41.6943 271.842 40.9045V29.6375ZM294.27 37.1972L291.96 37.6062C291.863 37.3108 291.71 37.0295 291.5 36.7625C291.295 36.4954 291.017 36.2767 290.665 36.1062C290.312 35.9358 289.872 35.8506 289.344 35.8506C288.622 35.8506 288.02 36.0125 287.537 36.3364C287.054 36.6545 286.812 37.0665 286.812 37.5722C286.812 38.0097 286.974 38.3619 287.298 38.629C287.622 38.896 288.145 39.1148 288.866 39.2852L290.946 39.7625C292.15 40.0409 293.048 40.4699 293.639 41.0494C294.23 41.629 294.525 42.3818 294.525 43.308C294.525 44.092 294.298 44.7909 293.844 45.4045C293.395 46.0125 292.767 46.4898 291.96 46.8364C291.159 47.183 290.23 47.3562 289.173 47.3562C287.707 47.3562 286.511 47.0437 285.585 46.4187C284.659 45.7881 284.091 44.8932 283.88 43.7341L286.344 43.3591C286.497 44.0011 286.812 44.4869 287.29 44.8165C287.767 45.1403 288.389 45.3023 289.156 45.3023C289.991 45.3023 290.659 45.129 291.159 44.7824C291.659 44.4301 291.909 44.0011 291.909 43.4955C291.909 43.0864 291.755 42.7426 291.449 42.4642C291.148 42.1858 290.684 41.9756 290.059 41.8335L287.844 41.3477C286.622 41.0693 285.719 40.6261 285.133 40.0182C284.554 39.4102 284.264 38.6403 284.264 37.7085C284.264 36.9358 284.48 36.2597 284.912 35.6801C285.344 35.1006 285.94 34.6489 286.701 34.325C287.463 33.9955 288.335 33.8307 289.318 33.8307C290.733 33.8307 291.846 34.1375 292.659 34.7511C293.471 35.3591 294.008 36.1744 294.27 37.1972ZM303.438 34.0011V36.0466H296.287V34.0011H303.438ZM298.205 30.8648H300.753V43.2483C300.753 43.7426 300.827 44.1148 300.975 44.3648C301.123 44.6091 301.313 44.7767 301.546 44.8676C301.785 44.9528 302.043 44.9954 302.322 44.9954C302.526 44.9954 302.705 44.9812 302.858 44.9528C303.012 44.9244 303.131 44.9017 303.216 44.8847L303.677 46.9898C303.529 47.0466 303.319 47.1034 303.046 47.1602C302.773 47.2227 302.432 47.2568 302.023 47.2625C301.353 47.2739 300.728 47.1545 300.148 46.9045C299.569 46.6545 299.1 46.2682 298.742 45.7455C298.384 45.2227 298.205 44.5665 298.205 43.7767V30.8648ZM314.549 41.6631V34.0011H317.106V47.092H314.601V44.825H314.464C314.163 45.5239 313.68 46.1062 313.015 46.5722C312.356 47.0324 311.535 47.2625 310.552 47.2625C309.711 47.2625 308.967 47.0778 308.319 46.7085C307.677 46.3335 307.172 45.7795 306.802 45.0466C306.439 44.3136 306.257 43.4074 306.257 42.3278V34.0011H308.805V42.021C308.805 42.9131 309.052 43.6233 309.547 44.1517C310.041 44.6801 310.683 44.9443 311.473 44.9443C311.95 44.9443 312.424 44.825 312.896 44.5864C313.373 44.3477 313.768 43.9869 314.081 43.504C314.399 43.021 314.555 42.4074 314.549 41.6631ZM325.431 47.3477C324.374 47.3477 323.431 47.0778 322.601 46.5381C321.777 45.9926 321.13 45.217 320.658 44.2114C320.192 43.2 319.959 41.9869 319.959 40.5722C319.959 39.1574 320.195 37.9472 320.667 36.9415C321.144 35.9358 321.797 35.1659 322.627 34.6318C323.456 34.0977 324.397 33.8307 325.448 33.8307C326.26 33.8307 326.914 33.967 327.408 34.2398C327.908 34.5068 328.295 34.8193 328.567 35.1773C328.846 35.5352 329.062 35.8506 329.215 36.1233H329.368V29.6375H331.917V47.092H329.428V45.0551H329.215C329.062 45.3335 328.84 45.6517 328.55 46.0097C328.266 46.3676 327.874 46.6801 327.374 46.9472C326.874 47.2142 326.226 47.3477 325.431 47.3477ZM325.993 45.1744C326.726 45.1744 327.346 44.9812 327.851 44.5949C328.363 44.2028 328.749 43.6602 329.01 42.967C329.277 42.2739 329.411 41.467 329.411 40.5466C329.411 39.6375 329.28 38.842 329.019 38.1602C328.758 37.4784 328.374 36.9472 327.868 36.5665C327.363 36.1858 326.738 35.9954 325.993 35.9954C325.226 35.9954 324.587 36.1943 324.076 36.592C323.564 36.9898 323.178 37.5324 322.917 38.2199C322.661 38.9074 322.533 39.6829 322.533 40.5466C322.533 41.4216 322.664 42.2085 322.925 42.9074C323.187 43.6062 323.573 44.1602 324.084 44.5693C324.601 44.9727 325.238 45.1744 325.993 45.1744ZM335.554 47.092V34.0011H338.102V47.092H335.554ZM336.841 31.9812C336.398 31.9812 336.017 31.8335 335.699 31.5381C335.386 31.2369 335.23 30.879 335.23 30.4642C335.23 30.0437 335.386 29.6858 335.699 29.3903C336.017 29.0892 336.398 28.9386 336.841 28.9386C337.284 28.9386 337.662 29.0892 337.974 29.3903C338.292 29.6858 338.451 30.0437 338.451 30.4642C338.451 30.879 338.292 31.2369 337.974 31.5381C337.662 31.8335 337.284 31.9812 336.841 31.9812ZM347.172 47.3562C345.883 47.3562 344.772 47.0807 343.84 46.5295C342.914 45.9727 342.198 45.1915 341.692 44.1858C341.192 43.1744 340.942 41.9898 340.942 40.6318C340.942 39.2909 341.192 38.1091 341.692 37.0864C342.198 36.0636 342.902 35.2653 343.806 34.6915C344.715 34.1176 345.777 33.8307 346.993 33.8307C347.732 33.8307 348.448 33.9528 349.141 34.1972C349.834 34.4415 350.456 34.825 351.008 35.3477C351.559 35.8704 351.993 36.5494 352.312 37.3847C352.63 38.2142 352.789 39.2227 352.789 40.4102V41.3136H342.383V39.4045H350.292C350.292 38.7341 350.155 38.1403 349.883 37.6233C349.61 37.1006 349.226 36.6886 348.732 36.3875C348.243 36.0864 347.67 35.9358 347.01 35.9358C346.295 35.9358 345.67 36.1119 345.135 36.4642C344.607 36.8108 344.198 37.2653 343.908 37.8278C343.624 38.3847 343.482 38.9898 343.482 39.6432V41.1347C343.482 42.0097 343.635 42.754 343.942 43.3676C344.255 43.9812 344.689 44.45 345.246 44.7739C345.803 45.092 346.454 45.2511 347.198 45.2511C347.681 45.2511 348.121 45.183 348.519 45.0466C348.917 44.9045 349.26 44.6943 349.55 44.4159C349.84 44.1375 350.062 43.7937 350.215 43.3847L352.627 43.8193C352.434 44.5295 352.087 45.1517 351.587 45.6858C351.093 46.2142 350.471 46.6261 349.721 46.9216C348.976 47.2114 348.127 47.3562 347.172 47.3562ZM357.96 42.6517L357.943 39.5409H358.386L363.602 34.0011H366.653L360.704 40.3079H360.304L357.96 42.6517ZM355.616 47.092V29.6375H358.165V47.092H355.616ZM363.883 47.092L359.196 40.8704L360.951 39.0892L367.011 47.092H363.883ZM373.951 47.3562C372.724 47.3562 371.652 47.075 370.738 46.5125C369.823 45.95 369.113 45.1631 368.607 44.1517C368.101 43.1403 367.849 41.9585 367.849 40.6062C367.849 39.2483 368.101 38.0608 368.607 37.0437C369.113 36.0267 369.823 35.2369 370.738 34.6744C371.652 34.1119 372.724 33.8307 373.951 33.8307C375.178 33.8307 376.249 34.1119 377.164 34.6744C378.079 35.2369 378.789 36.0267 379.295 37.0437C379.8 38.0608 380.053 39.2483 380.053 40.6062C380.053 41.9585 379.8 43.1403 379.295 44.1517C378.789 45.1631 378.079 45.95 377.164 46.5125C376.249 47.075 375.178 47.3562 373.951 47.3562ZM373.959 45.217C374.755 45.217 375.414 45.0068 375.937 44.5864C376.459 44.1659 376.846 43.6062 377.096 42.9074C377.351 42.2085 377.479 41.4386 377.479 40.5977C377.479 39.7625 377.351 38.9954 377.096 38.2966C376.846 37.592 376.459 37.0267 375.937 36.6006C375.414 36.1744 374.755 35.9614 373.959 35.9614C373.158 35.9614 372.493 36.1744 371.965 36.6006C371.442 37.0267 371.053 37.592 370.797 38.2966C370.547 38.9954 370.422 39.7625 370.422 40.5977C370.422 41.4386 370.547 42.2085 370.797 42.9074C371.053 43.6062 371.442 44.1659 371.965 44.5864C372.493 45.0068 373.158 45.217 373.959 45.217ZM382.898 47.092V34.0011H385.361V36.0807H385.497C385.736 35.3761 386.156 34.8222 386.758 34.4187C387.366 34.0097 388.054 33.8051 388.821 33.8051C388.98 33.8051 389.167 33.8108 389.383 33.8222C389.605 33.8335 389.778 33.8477 389.903 33.8648V36.3023C389.801 36.2739 389.619 36.2426 389.358 36.2085C389.096 36.1687 388.835 36.1489 388.574 36.1489C387.971 36.1489 387.434 36.2767 386.963 36.5324C386.497 36.7824 386.128 37.1318 385.855 37.5807C385.582 38.0239 385.446 38.5295 385.446 39.0977V47.092H382.898ZM398.993 34.0011V36.0466H391.842V34.0011H398.993ZM393.76 30.8648H396.308V43.2483C396.308 43.7426 396.382 44.1148 396.53 44.3648C396.677 44.6091 396.868 44.7767 397.101 44.8676C397.339 44.9528 397.598 44.9954 397.876 44.9954C398.081 44.9954 398.26 44.9812 398.413 44.9528C398.567 44.9244 398.686 44.9017 398.771 44.8847L399.231 46.9898C399.084 47.0466 398.873 47.1034 398.601 47.1602C398.328 47.2227 397.987 47.2568 397.578 47.2625C396.907 47.2739 396.282 47.1545 395.703 46.9045C395.123 46.6545 394.655 46.2682 394.297 45.7455C393.939 45.2227 393.76 44.5665 393.76 43.7767V30.8648ZM407.313 47.3562C406.023 47.3562 404.912 47.0807 403.981 46.5295C403.054 45.9727 402.339 45.1915 401.833 44.1858C401.333 43.1744 401.083 41.9898 401.083 40.6318C401.083 39.2909 401.333 38.1091 401.833 37.0864C402.339 36.0636 403.043 35.2653 403.947 34.6915C404.856 34.1176 405.918 33.8307 407.134 33.8307C407.873 33.8307 408.589 33.9528 409.282 34.1972C409.975 34.4415 410.597 34.825 411.148 35.3477C411.699 35.8704 412.134 36.5494 412.452 37.3847C412.77 38.2142 412.929 39.2227 412.929 40.4102V41.3136H402.523V39.4045H410.432C410.432 38.7341 410.296 38.1403 410.023 37.6233C409.75 37.1006 409.367 36.6886 408.873 36.3875C408.384 36.0864 407.81 35.9358 407.151 35.9358C406.435 35.9358 405.81 36.1119 405.276 36.4642C404.748 36.8108 404.339 37.2653 404.049 37.8278C403.765 38.3847 403.623 38.9898 403.623 39.6432V41.1347C403.623 42.0097 403.776 42.754 404.083 43.3676C404.395 43.9812 404.83 44.45 405.387 44.7739C405.944 45.092 406.594 45.2511 407.339 45.2511C407.822 45.2511 408.262 45.183 408.66 45.0466C409.057 44.9045 409.401 44.6943 409.691 44.4159C409.981 44.1375 410.202 43.7937 410.356 43.3847L412.768 43.8193C412.574 44.5295 412.228 45.1517 411.728 45.6858C411.233 46.2142 410.611 46.6261 409.861 46.9216C409.117 47.2114 408.268 47.3562 407.313 47.3562ZM421.868 34.0011V36.0466H414.717V34.0011H421.868ZM416.635 30.8648H419.183V43.2483C419.183 43.7426 419.257 44.1148 419.405 44.3648C419.552 44.6091 419.743 44.7767 419.976 44.8676C420.214 44.9528 420.473 44.9954 420.751 44.9954C420.956 44.9954 421.135 44.9812 421.288 44.9528C421.442 44.9244 421.561 44.9017 421.646 44.8847L422.106 46.9898C421.959 47.0466 421.748 47.1034 421.476 47.1602C421.203 47.2227 420.862 47.2568 420.453 47.2625C419.782 47.2739 419.157 47.1545 418.578 46.9045C417.998 46.6545 417.53 46.2682 417.172 45.7455C416.814 45.2227 416.635 44.5665 416.635 43.7767V30.8648ZM427.474 42.0722V41.9102C427.485 40.8534 427.59 40.0125 427.789 39.3875C427.993 38.7625 428.283 38.2568 428.658 37.8704C429.033 37.4841 429.485 37.1318 430.013 36.8136C430.354 36.5977 430.661 36.3562 430.934 36.0892C431.206 35.8222 431.422 35.5153 431.581 35.1687C431.741 34.8222 431.82 34.4386 431.82 34.0182C431.82 33.5125 431.701 33.075 431.462 32.7057C431.224 32.3364 430.905 32.0523 430.508 31.8534C430.116 31.6489 429.678 31.5466 429.195 31.5466C428.758 31.5466 428.34 31.6375 427.942 31.8193C427.545 32.0011 427.215 32.2852 426.954 32.6716C426.692 33.0523 426.542 33.5437 426.502 34.146H423.911C423.951 33.1233 424.209 32.2597 424.687 31.5551C425.164 30.8449 425.795 30.3079 426.579 29.9443C427.368 29.5807 428.241 29.3989 429.195 29.3989C430.241 29.3989 431.155 29.5949 431.939 29.9869C432.724 30.3733 433.331 30.9159 433.763 31.6148C434.201 32.308 434.42 33.1176 434.42 34.0437C434.42 34.6801 434.32 35.254 434.121 35.7653C433.922 36.271 433.638 36.7227 433.269 37.1204C432.905 37.5182 432.468 37.8705 431.956 38.1773C431.474 38.4784 431.081 38.7909 430.78 39.1148C430.485 39.4386 430.269 39.8222 430.133 40.2653C429.996 40.7085 429.922 41.2568 429.911 41.9102V42.0722H427.474ZM428.76 47.254C428.295 47.254 427.894 47.0892 427.559 46.7597C427.224 46.4244 427.056 46.021 427.056 45.5494C427.056 45.0835 427.224 44.6858 427.559 44.3562C427.894 44.021 428.295 43.8534 428.76 43.8534C429.221 43.8534 429.618 44.021 429.954 44.3562C430.295 44.6858 430.465 45.0835 430.465 45.5494C430.465 45.8619 430.385 46.1489 430.226 46.4102C430.073 46.6659 429.868 46.8705 429.613 47.0239C429.357 47.1773 429.073 47.254 428.76 47.254Z" fill="white"/>
<defs>
<filter id="filter0_d_279_970" x="0.721191" y="0" width="566.558" height="87.1595" filterUnits="userSpaceOnUse" color-interpolation-filters="sRGB">
<feFlood flood-opacity="0" result="BackgroundImageFix"/>
<feColorMatrix in="SourceAlpha" type="matrix" values="0 0 0 0 0 0 0 0 0 0 0 0 0 0 0 0 0 0 127 0" result="hardAlpha"/>
<feOffset dx="-5" dy="4"/>
<feGaussianBlur stdDeviation="2"/>
<feComposite in2="hardAlpha" operator="out"/>
<feColorMatrix type="matrix" values="0 0 0 0 0 0 0 0 0 0 0 0 0 0 0 0 0 0 0.33 0"/>
<feBlend mode="normal" in2="BackgroundImageFix" result="effect1_dropShadow_279_970"/>
<feBlend mode="normal" in="SourceGraphic" in2="effect1_dropShadow_279_970" result="shape"/>
</filter>
</defs>
</svg>
