<svg width="179" height="28" viewBox="0 0 179 28" fill="none" xmlns="http://www.w3.org/2000/svg">
<g filter="url(#filter0_d_168_850)">
<path d="M13.7129 6.50391V8.96484H6.34961V6.50391H13.7129ZM7.35547 0.78125V15H4.17188V0.78125H7.35547ZM15.9102 0.78125V15H12.7363V0.78125H15.9102ZM19.4125 4.43359H22.4789V15.4883C22.4789 16.3021 22.3259 16.9889 22.0199 17.5488C21.7139 18.1152 21.2712 18.5417 20.6918 18.8281C20.1189 19.1211 19.432 19.2676 18.6313 19.2676C18.3708 19.2676 18.1234 19.2546 17.8891 19.2285C17.6547 19.209 17.404 19.1667 17.1371 19.1016V16.7773C17.2999 16.8034 17.4561 16.8229 17.6059 16.8359C17.7491 16.8555 17.9021 16.8652 18.0648 16.8652C18.3578 16.8652 18.602 16.8164 18.7973 16.7188C18.9991 16.6211 19.1521 16.4681 19.2563 16.2598C19.3604 16.0579 19.4125 15.8008 19.4125 15.4883V4.43359ZM19.1781 1.69922C19.1781 1.25651 19.3344 0.895182 19.6469 0.615234C19.9594 0.328776 20.3728 0.185547 20.8871 0.185547C21.3949 0.185547 21.8051 0.328776 22.1176 0.615234C22.4301 0.895182 22.5863 1.25651 22.5863 1.69922C22.5863 2.13542 22.4301 2.49674 22.1176 2.7832C21.8051 3.06315 21.3949 3.20312 20.8871 3.20312C20.3728 3.20312 19.9594 3.06315 19.6469 2.7832C19.3344 2.49674 19.1781 2.13542 19.1781 1.69922ZM31.6648 13.2129V8.125C31.6648 7.80599 31.6095 7.53581 31.4988 7.31445C31.3882 7.08659 31.2254 6.91406 31.0105 6.79688C30.8022 6.67318 30.5451 6.61133 30.2391 6.61133C29.9005 6.61133 29.6141 6.66341 29.3797 6.76758C29.1453 6.86523 28.963 6.9987 28.8328 7.16797C28.7091 7.33724 28.6473 7.5293 28.6473 7.74414L25.5906 7.55859C25.5906 7.07682 25.7013 6.63411 25.9227 6.23047C26.144 5.82682 26.4598 5.47852 26.8699 5.18555C27.2801 4.88607 27.7716 4.65495 28.3445 4.49219C28.924 4.32292 29.5685 4.23828 30.2781 4.23828C31.1635 4.23828 31.9318 4.38477 32.5828 4.67773C33.2339 4.96419 33.7352 5.39714 34.0867 5.97656C34.4448 6.55599 34.6238 7.27865 34.6238 8.14453V12.8711L31.6648 13.2129ZM32.0945 8.63281L32.1141 10.5273H30.2195C29.8029 10.5273 29.4513 10.5924 29.1648 10.7227C28.8784 10.8529 28.6603 11.0221 28.5105 11.2305C28.3673 11.4388 28.2957 11.6634 28.2957 11.9043C28.2957 12.1387 28.351 12.3438 28.4617 12.5195C28.5724 12.6888 28.7417 12.8223 28.9695 12.9199C29.1974 13.0111 29.4904 13.0566 29.8484 13.0566C30.1089 13.0566 30.3725 13.0111 30.6395 12.9199C30.9064 12.8288 31.1505 12.7116 31.3719 12.5684C31.5997 12.4186 31.782 12.2591 31.9188 12.0898C32.0555 11.9206 32.1238 11.7611 32.1238 11.6113L33.5301 13.1152C33.3673 13.4277 33.1036 13.7467 32.7391 14.0723C32.3745 14.3913 31.9025 14.6582 31.323 14.873C30.7501 15.0879 30.0665 15.1953 29.2723 15.1953C28.3999 15.1953 27.6642 15.0586 27.0652 14.7852C26.4663 14.5117 26.0105 14.1243 25.698 13.623C25.3921 13.1217 25.2391 12.5358 25.2391 11.8652C25.2391 11.3509 25.3432 10.8952 25.5516 10.498C25.7664 10.0944 26.0822 9.75586 26.4988 9.48242C26.9155 9.20247 27.4331 8.99089 28.0516 8.84766C28.6701 8.70443 29.3862 8.63281 30.2 8.63281H32.0945ZM36.743 15.1953C35.9292 15.1953 35.2065 15.0749 34.575 14.834C33.9435 14.5866 33.4096 14.2415 32.9734 13.7988C32.5438 13.3496 32.2182 12.8223 31.9969 12.2168C31.782 11.6048 31.6746 10.9342 31.6746 10.2051V9.49219C31.6746 8.71745 31.7788 8.01107 31.9871 7.37305C32.1954 6.72852 32.5047 6.17188 32.9148 5.70312C33.325 5.23438 33.8361 4.87305 34.448 4.61914C35.0665 4.35872 35.7794 4.23177 36.5867 4.23828C37.2768 4.23828 37.8953 4.34896 38.4422 4.57031C38.9891 4.79167 39.4546 5.11068 39.8387 5.52734C40.2293 5.94401 40.5255 6.44857 40.7273 7.04102C40.9357 7.62695 41.0398 8.28451 41.0398 9.01367V10.6543H32.8855V8.70117H38.0418V8.4375C38.0418 8.06641 37.9865 7.74414 37.8758 7.4707C37.7716 7.19727 37.6121 6.98568 37.3973 6.83594C37.1824 6.6862 36.9122 6.61133 36.5867 6.61133C36.2156 6.61133 35.9031 6.68294 35.6492 6.82617C35.4018 6.9694 35.2033 7.17122 35.0535 7.43164C34.9038 7.69206 34.7964 7.99805 34.7313 8.34961C34.6661 8.70117 34.6336 9.08203 34.6336 9.49219V10.2051C34.6336 10.5827 34.6792 10.931 34.7703 11.25C34.868 11.5625 35.0145 11.8392 35.2098 12.0801C35.4116 12.3145 35.6688 12.5 35.9813 12.6367C36.3003 12.7669 36.6811 12.832 37.1238 12.832C37.7814 12.832 38.3185 12.7604 38.7352 12.6172C39.1518 12.4674 39.5555 12.2982 39.9461 12.1094L40.7273 14.0137C40.4799 14.2025 40.1544 14.388 39.7508 14.5703C39.3471 14.7526 38.8882 14.9023 38.3738 15.0195C37.866 15.1367 37.3224 15.1953 36.743 15.1953ZM46.8371 0V15H43.7805V0H46.8371ZM53.191 6.46484V19.0625H50.1441V4.43359H52.9859L53.191 6.46484ZM59.7828 9.59961V9.80469C59.7828 10.5729 59.6949 11.2858 59.5191 11.9434C59.3434 12.5944 59.0797 13.1641 58.7281 13.6523C58.3831 14.1406 57.9566 14.5215 57.4488 14.7949C56.941 15.0618 56.3518 15.1953 55.6813 15.1953C55.0432 15.1953 54.4898 15.0618 54.0211 14.7949C53.5589 14.5215 53.1682 14.1439 52.8492 13.6621C52.5367 13.1738 52.2828 12.6172 52.0875 11.9922C51.8987 11.3607 51.7522 10.6868 51.648 9.9707V9.57031C51.7522 8.80859 51.902 8.10221 52.0973 7.45117C52.2926 6.80013 52.5465 6.23698 52.859 5.76172C53.1715 5.27995 53.5589 4.9056 54.0211 4.63867C54.4833 4.37174 55.0335 4.23828 55.6715 4.23828C56.3355 4.23828 56.9247 4.36523 57.4391 4.61914C57.9534 4.87305 58.3831 5.23763 58.7281 5.71289C59.0797 6.18164 59.3434 6.74479 59.5191 7.40234C59.6949 8.0599 59.7828 8.79232 59.7828 9.59961ZM56.7262 9.80469V9.59961C56.7262 9.16992 56.6936 8.77604 56.6285 8.41797C56.5634 8.05339 56.4592 7.73763 56.316 7.4707C56.1728 7.19727 55.984 6.98568 55.7496 6.83594C55.5152 6.6862 55.2288 6.61133 54.8902 6.61133C54.5257 6.61133 54.2164 6.66992 53.9625 6.78711C53.7086 6.9043 53.5035 7.07682 53.3473 7.30469C53.191 7.52604 53.0771 7.79948 53.0055 8.125C52.9404 8.45052 52.9046 8.82161 52.898 9.23828V10.3125C52.9046 10.8008 52.9729 11.237 53.1031 11.6211C53.2398 11.9987 53.4514 12.2949 53.7379 12.5098C54.0309 12.7181 54.4215 12.8223 54.9098 12.8223C55.2548 12.8223 55.5413 12.7474 55.7691 12.5977C56.0035 12.4414 56.1891 12.2233 56.3258 11.9434C56.469 11.6634 56.5699 11.3411 56.6285 10.9766C56.6936 10.612 56.7262 10.2214 56.7262 9.80469ZM68.1449 9.82422V9.61914C68.1449 8.8444 68.2556 8.13151 68.477 7.48047C68.6983 6.82292 69.0238 6.25326 69.4535 5.77148C69.8832 5.28971 70.4105 4.91536 71.0355 4.64844C71.6605 4.375 72.3767 4.23828 73.184 4.23828C74.0043 4.23828 74.727 4.375 75.352 4.64844C75.9835 4.91536 76.5141 5.28971 76.9437 5.77148C77.3734 6.25326 77.699 6.82292 77.9203 7.48047C78.1417 8.13151 78.2523 8.8444 78.2523 9.61914V9.82422C78.2523 10.5924 78.1417 11.3053 77.9203 11.9629C77.699 12.6139 77.3734 13.1836 76.9437 13.6719C76.5141 14.1536 75.9867 14.528 75.3617 14.7949C74.7367 15.0618 74.0173 15.1953 73.2035 15.1953C72.3962 15.1953 71.6768 15.0618 71.0453 14.7949C70.4138 14.528 69.8832 14.1536 69.4535 13.6719C69.0238 13.1836 68.6983 12.6139 68.477 11.9629C68.2556 11.3053 68.1449 10.5924 68.1449 9.82422ZM71.2016 9.61914V9.82422C71.2016 10.2409 71.2341 10.6315 71.2992 10.9961C71.3708 11.3607 71.4848 11.6797 71.641 11.9531C71.7973 12.2266 72.0023 12.4414 72.2562 12.5977C72.5167 12.7474 72.8324 12.8223 73.2035 12.8223C73.5746 12.8223 73.8871 12.7474 74.141 12.5977C74.3949 12.4414 74.6 12.2266 74.7562 11.9531C74.9125 11.6797 75.0232 11.3607 75.0883 10.9961C75.1599 10.6315 75.1957 10.2409 75.1957 9.82422V9.61914C75.1957 9.20898 75.1599 8.82487 75.0883 8.4668C75.0232 8.10221 74.9125 7.77995 74.7562 7.5C74.6 7.22005 74.3917 7.00195 74.1312 6.8457C73.8773 6.68945 73.5616 6.61133 73.184 6.61133C72.8194 6.61133 72.5102 6.68945 72.2562 6.8457C72.0023 7.00195 71.7973 7.22005 71.641 7.5C71.4848 7.77995 71.3708 8.10221 71.2992 8.4668C71.2341 8.82487 71.2016 9.20898 71.2016 9.61914ZM87.6141 4.43359H90.3875V14.6191C90.3875 15.5892 90.1661 16.4128 89.7234 17.0898C89.2872 17.7669 88.6785 18.2812 87.8973 18.6328C87.116 18.9844 86.2013 19.1602 85.1531 19.1602C84.6974 19.1602 84.2221 19.0983 83.7273 18.9746C83.2325 18.8574 82.7671 18.6784 82.3309 18.4375C81.8947 18.2031 81.5301 17.9036 81.2371 17.5391L82.5359 15.7422C82.8354 16.0807 83.1935 16.3542 83.6102 16.5625C84.0268 16.7773 84.5021 16.8848 85.0359 16.8848C85.5242 16.8848 85.9376 16.7969 86.2762 16.6211C86.6147 16.4453 86.8719 16.1882 87.0477 15.8496C87.2299 15.5111 87.3211 15.1009 87.3211 14.6191V6.9043L87.6141 4.43359ZM80.5535 9.84375V9.63867C80.5535 8.83789 80.6512 8.10872 80.8465 7.45117C81.0418 6.78711 81.325 6.21745 81.6961 5.74219C82.0737 5.26042 82.5262 4.88932 83.0535 4.62891C83.5874 4.36849 84.1863 4.23828 84.8504 4.23828C85.5665 4.23828 86.159 4.375 86.6277 4.64844C87.0965 4.91536 87.4773 5.29297 87.7703 5.78125C88.0633 6.26302 88.2944 6.83268 88.4637 7.49023C88.6329 8.14128 88.7697 8.84766 88.8738 9.60938V9.96094C88.7697 10.6901 88.6199 11.3704 88.4246 12.002C88.2293 12.6335 87.9754 13.1901 87.6629 13.6719C87.3504 14.1471 86.9598 14.5215 86.491 14.7949C86.0288 15.0618 85.4754 15.1953 84.8309 15.1953C84.1733 15.1953 83.5809 15.0618 83.0535 14.7949C82.5262 14.528 82.0737 14.1536 81.6961 13.6719C81.325 13.1901 81.0418 12.6237 80.8465 11.9727C80.6512 11.3216 80.5535 10.612 80.5535 9.84375ZM83.6004 9.63867V9.84375C83.6004 10.2604 83.6395 10.6478 83.7176 11.0059C83.8022 11.3639 83.9259 11.6797 84.0887 11.9531C84.2579 12.2266 84.4663 12.4414 84.7137 12.5977C84.9676 12.7474 85.2638 12.8223 85.6023 12.8223C86.0971 12.8223 86.4975 12.7181 86.8035 12.5098C87.116 12.2949 87.3439 11.9987 87.4871 11.6211C87.6368 11.2435 87.715 10.804 87.7215 10.3027V9.27734C87.7215 8.86068 87.6792 8.48633 87.5945 8.1543C87.5099 7.82227 87.3829 7.54232 87.2137 7.31445C87.0509 7.08659 86.8361 6.91406 86.5691 6.79688C86.3087 6.67318 85.993 6.61133 85.6219 6.61133C85.2898 6.61133 84.9969 6.68945 84.743 6.8457C84.4891 6.99544 84.2775 7.20703 84.1082 7.48047C83.9389 7.75391 83.812 8.07617 83.7273 8.44727C83.6427 8.81185 83.6004 9.20898 83.6004 9.63867ZM105.224 12.0605C105.224 11.8652 105.162 11.6927 105.039 11.543C104.921 11.3932 104.707 11.2565 104.394 11.1328C104.088 11.0091 103.655 10.8854 103.095 10.7617C102.568 10.651 102.076 10.5078 101.621 10.332C101.165 10.1497 100.768 9.93164 100.429 9.67773C100.091 9.41732 99.8271 9.11133 99.6383 8.75977C99.4495 8.40169 99.3551 7.99479 99.3551 7.53906C99.3551 7.09635 99.4495 6.67643 99.6383 6.2793C99.8336 5.88216 100.114 5.5306 100.478 5.22461C100.849 4.91862 101.298 4.67773 101.826 4.50195C102.36 4.32617 102.965 4.23828 103.642 4.23828C104.573 4.23828 105.377 4.38477 106.054 4.67773C106.731 4.96419 107.252 5.36784 107.617 5.88867C107.981 6.40299 108.164 6.99219 108.164 7.65625H105.117C105.117 7.38281 105.065 7.14518 104.961 6.94336C104.856 6.74154 104.697 6.58529 104.482 6.47461C104.267 6.35742 103.984 6.29883 103.632 6.29883C103.359 6.29883 103.118 6.34766 102.91 6.44531C102.708 6.53646 102.548 6.66341 102.431 6.82617C102.321 6.98893 102.265 7.17773 102.265 7.39258C102.265 7.54232 102.298 7.67904 102.363 7.80273C102.435 7.91992 102.542 8.0306 102.685 8.13477C102.835 8.23242 103.027 8.32031 103.261 8.39844C103.502 8.47656 103.795 8.55143 104.14 8.62305C104.876 8.75977 105.546 8.95182 106.152 9.19922C106.764 9.44661 107.252 9.78841 107.617 10.2246C107.988 10.6608 108.173 11.237 108.173 11.9531C108.173 12.4219 108.066 12.8516 107.851 13.2422C107.643 13.6328 107.34 13.9746 106.943 14.2676C106.546 14.5605 106.071 14.7884 105.517 14.9512C104.964 15.1139 104.339 15.1953 103.642 15.1953C102.646 15.1953 101.803 15.0163 101.113 14.6582C100.423 14.3001 99.902 13.8509 99.5504 13.3105C99.2053 12.7637 99.0328 12.2038 99.0328 11.6309H101.894C101.907 11.9824 101.995 12.2689 102.158 12.4902C102.327 12.7116 102.545 12.8743 102.812 12.9785C103.079 13.0762 103.379 13.125 103.711 13.125C104.043 13.125 104.319 13.0794 104.541 12.9883C104.762 12.8971 104.931 12.7734 105.048 12.6172C105.166 12.4544 105.224 12.2689 105.224 12.0605ZM117.174 12.4512V4.43359H120.24V15H117.369L117.174 12.4512ZM117.496 10.293L118.336 10.2734C118.336 10.9831 118.251 11.6374 118.082 12.2363C117.919 12.8353 117.672 13.3561 117.34 13.7988C117.014 14.2415 116.607 14.5866 116.119 14.834C115.637 15.0749 115.074 15.1953 114.43 15.1953C113.909 15.1953 113.43 15.1237 112.994 14.9805C112.564 14.8307 112.193 14.5996 111.881 14.2871C111.568 13.9681 111.327 13.5612 111.158 13.0664C110.989 12.5651 110.904 11.9661 110.904 11.2695V4.43359H113.951V11.2891C113.951 11.5625 113.984 11.7969 114.049 11.9922C114.12 12.181 114.215 12.3372 114.332 12.4609C114.456 12.5846 114.605 12.6758 114.781 12.7344C114.964 12.793 115.162 12.8223 115.377 12.8223C115.917 12.8223 116.34 12.7116 116.646 12.4902C116.959 12.2624 117.177 11.9596 117.301 11.582C117.431 11.1979 117.496 10.7682 117.496 10.293ZM126.379 6.46484V19.0625H123.332V4.43359H126.174L126.379 6.46484ZM132.971 9.59961V9.80469C132.971 10.5729 132.883 11.2858 132.707 11.9434C132.532 12.5944 132.268 13.1641 131.916 13.6523C131.571 14.1406 131.145 14.5215 130.637 14.7949C130.129 15.0618 129.54 15.1953 128.87 15.1953C128.232 15.1953 127.678 15.0618 127.209 14.7949C126.747 14.5215 126.357 14.1439 126.037 13.6621C125.725 13.1738 125.471 12.6172 125.276 11.9922C125.087 11.3607 124.94 10.6868 124.836 9.9707V9.57031C124.94 8.80859 125.09 8.10221 125.286 7.45117C125.481 6.80013 125.735 6.23698 126.047 5.76172C126.36 5.27995 126.747 4.9056 127.209 4.63867C127.672 4.37174 128.222 4.23828 128.86 4.23828C129.524 4.23828 130.113 4.36523 130.627 4.61914C131.142 4.87305 131.571 5.23763 131.916 5.71289C132.268 6.18164 132.532 6.74479 132.707 7.40234C132.883 8.0599 132.971 8.79232 132.971 9.59961ZM129.914 9.80469V9.59961C129.914 9.16992 129.882 8.77604 129.817 8.41797C129.752 8.05339 129.648 7.73763 129.504 7.4707C129.361 7.19727 129.172 6.98568 128.938 6.83594C128.704 6.6862 128.417 6.61133 128.079 6.61133C127.714 6.61133 127.405 6.66992 127.151 6.78711C126.897 6.9043 126.692 7.07682 126.536 7.30469C126.379 7.52604 126.265 7.79948 126.194 8.125C126.129 8.45052 126.093 8.82161 126.086 9.23828V10.3125C126.093 10.8008 126.161 11.237 126.291 11.6211C126.428 11.9987 126.64 12.2949 126.926 12.5098C127.219 12.7181 127.61 12.8223 128.098 12.8223C128.443 12.8223 128.73 12.7474 128.957 12.5977C129.192 12.4414 129.377 12.2233 129.514 11.9434C129.657 11.6634 129.758 11.3411 129.817 10.9766C129.882 10.612 129.914 10.2214 129.914 9.80469ZM138.749 6.46484V19.0625H135.702V4.43359H138.544L138.749 6.46484ZM145.341 9.59961V9.80469C145.341 10.5729 145.253 11.2858 145.077 11.9434C144.901 12.5944 144.637 13.1641 144.286 13.6523C143.941 14.1406 143.514 14.5215 143.007 14.7949C142.499 15.0618 141.91 15.1953 141.239 15.1953C140.601 15.1953 140.048 15.0618 139.579 14.7949C139.117 14.5215 138.726 14.1439 138.407 13.6621C138.095 13.1738 137.841 12.6172 137.645 11.9922C137.457 11.3607 137.31 10.6868 137.206 9.9707V9.57031C137.31 8.80859 137.46 8.10221 137.655 7.45117C137.85 6.80013 138.104 6.23698 138.417 5.76172C138.729 5.27995 139.117 4.9056 139.579 4.63867C140.041 4.37174 140.591 4.23828 141.229 4.23828C141.893 4.23828 142.483 4.36523 142.997 4.61914C143.511 4.87305 143.941 5.23763 144.286 5.71289C144.637 6.18164 144.901 6.74479 145.077 7.40234C145.253 8.0599 145.341 8.79232 145.341 9.59961ZM142.284 9.80469V9.59961C142.284 9.16992 142.251 8.77604 142.186 8.41797C142.121 8.05339 142.017 7.73763 141.874 7.4707C141.731 7.19727 141.542 6.98568 141.307 6.83594C141.073 6.6862 140.787 6.61133 140.448 6.61133C140.083 6.61133 139.774 6.66992 139.52 6.78711C139.266 6.9043 139.061 7.07682 138.905 7.30469C138.749 7.52604 138.635 7.79948 138.563 8.125C138.498 8.45052 138.462 8.82161 138.456 9.23828V10.3125C138.462 10.8008 138.531 11.237 138.661 11.6211C138.798 11.9987 139.009 12.2949 139.296 12.5098C139.589 12.7181 139.979 12.8223 140.468 12.8223C140.813 12.8223 141.099 12.7474 141.327 12.5977C141.561 12.4414 141.747 12.2233 141.884 11.9434C142.027 11.6634 142.128 11.3411 142.186 10.9766C142.251 10.612 142.284 10.2214 142.284 9.80469ZM147.622 9.82422V9.61914C147.622 8.8444 147.733 8.13151 147.954 7.48047C148.176 6.82292 148.501 6.25326 148.931 5.77148C149.361 5.28971 149.888 4.91536 150.513 4.64844C151.138 4.375 151.854 4.23828 152.661 4.23828C153.482 4.23828 154.204 4.375 154.829 4.64844C155.461 4.91536 155.991 5.28971 156.421 5.77148C156.851 6.25326 157.176 6.82292 157.398 7.48047C157.619 8.13151 157.73 8.8444 157.73 9.61914V9.82422C157.73 10.5924 157.619 11.3053 157.398 11.9629C157.176 12.6139 156.851 13.1836 156.421 13.6719C155.991 14.1536 155.464 14.528 154.839 14.7949C154.214 15.0618 153.495 15.1953 152.681 15.1953C151.874 15.1953 151.154 15.0618 150.523 14.7949C149.891 14.528 149.361 14.1536 148.931 13.6719C148.501 13.1836 148.176 12.6139 147.954 11.9629C147.733 11.3053 147.622 10.5924 147.622 9.82422ZM150.679 9.61914V9.82422C150.679 10.2409 150.711 10.6315 150.777 10.9961C150.848 11.3607 150.962 11.6797 151.118 11.9531C151.275 12.2266 151.48 12.4414 151.734 12.5977C151.994 12.7474 152.31 12.8223 152.681 12.8223C153.052 12.8223 153.364 12.7474 153.618 12.5977C153.872 12.4414 154.077 12.2266 154.234 11.9531C154.39 11.6797 154.501 11.3607 154.566 10.9961C154.637 10.6315 154.673 10.2409 154.673 9.82422V9.61914C154.673 9.20898 154.637 8.82487 154.566 8.4668C154.501 8.10221 154.39 7.77995 154.234 7.5C154.077 7.22005 153.869 7.00195 153.609 6.8457C153.355 6.68945 153.039 6.61133 152.661 6.61133C152.297 6.61133 151.988 6.68945 151.734 6.8457C151.48 7.00195 151.275 7.22005 151.118 7.5C150.962 7.77995 150.848 8.10221 150.777 8.4668C150.711 8.82487 150.679 9.20898 150.679 9.61914ZM163.488 6.89453V15H160.441V4.43359H163.302L163.488 6.89453ZM166.642 4.35547L166.593 7.19727C166.463 7.17773 166.294 7.16146 166.086 7.14844C165.877 7.12891 165.698 7.11914 165.548 7.11914C165.158 7.11914 164.819 7.16797 164.533 7.26562C164.253 7.35677 164.018 7.49349 163.83 7.67578C163.647 7.85807 163.511 8.08594 163.42 8.35938C163.328 8.6263 163.283 8.93555 163.283 9.28711L162.707 9.00391C162.707 8.30729 162.775 7.66927 162.912 7.08984C163.048 6.51042 163.247 6.00911 163.507 5.58594C163.768 5.15625 164.087 4.82422 164.464 4.58984C164.842 4.35547 165.272 4.23828 165.754 4.23828C165.91 4.23828 166.069 4.24805 166.232 4.26758C166.395 4.28711 166.532 4.31641 166.642 4.35547ZM174.852 4.43359V6.57227H168.582V4.43359H174.852ZM170.018 1.81641H173.074V11.6895C173.074 11.9824 173.11 12.207 173.182 12.3633C173.253 12.5195 173.37 12.6302 173.533 12.6953C173.696 12.7539 173.904 12.7832 174.158 12.7832C174.34 12.7832 174.497 12.7767 174.627 12.7637C174.757 12.7507 174.878 12.7344 174.988 12.7148V14.9219C174.728 15.0065 174.451 15.0716 174.158 15.1172C173.865 15.1693 173.546 15.1953 173.201 15.1953C172.544 15.1953 171.974 15.0879 171.492 14.873C171.017 14.6582 170.652 14.3197 170.398 13.8574C170.145 13.3887 170.018 12.7799 170.018 12.0312V1.81641Z" fill="white"/>
</g>
<defs>
<filter id="filter0_d_168_850" x="0.171875" y="0" width="178.816" height="27.2676" filterUnits="userSpaceOnUse" color-interpolation-filters="sRGB">
<feFlood flood-opacity="0" result="BackgroundImageFix"/>
<feColorMatrix in="SourceAlpha" type="matrix" values="0 0 0 0 0 0 0 0 0 0 0 0 0 0 0 0 0 0 127 0" result="hardAlpha"/>
<feOffset dy="4"/>
<feGaussianBlur stdDeviation="2"/>
<feComposite in2="hardAlpha" operator="out"/>
<feColorMatrix type="matrix" values="0 0 0 0 0 0 0 0 0 0 0 0 0 0 0 0 0 0 0.25 0"/>
<feBlend mode="normal" in2="BackgroundImageFix" result="effect1_dropShadow_168_850"/>
<feBlend mode="normal" in="SourceGraphic" in2="effect1_dropShadow_168_850" result="shape"/>
</filter>
</defs>
</svg>
