<svg width="288" height="36" viewBox="0 0 288 36" fill="none" xmlns="http://www.w3.org/2000/svg">
<path d="M0.708097 13V1.36364H2.46378V6.42045H8.26492V1.36364H10.0263V13H8.26492V7.92614H2.46378V13H0.708097ZM19.9126 4.27273L16.7479 13H14.9297L11.7592 4.27273H13.5831L15.7933 10.9886H15.8842L18.0888 4.27273H19.9126ZM24.8885 13.1761C24.0703 13.1761 23.3563 12.9886 22.7464 12.6136C22.1366 12.2386 21.6631 11.714 21.326 11.0398C20.9889 10.3655 20.8203 9.57765 20.8203 8.67614C20.8203 7.77083 20.9889 6.97917 21.326 6.30114C21.6631 5.62311 22.1366 5.09659 22.7464 4.72159C23.3563 4.34659 24.0703 4.15909 24.8885 4.15909C25.7067 4.15909 26.4207 4.34659 27.0305 4.72159C27.6404 5.09659 28.1139 5.62311 28.451 6.30114C28.7881 6.97917 28.9567 7.77083 28.9567 8.67614C28.9567 9.57765 28.7881 10.3655 28.451 11.0398C28.1139 11.714 27.6404 12.2386 27.0305 12.6136C26.4207 12.9886 25.7067 13.1761 24.8885 13.1761ZM24.8942 11.75C25.4245 11.75 25.8639 11.6098 26.2124 11.3295C26.5608 11.0492 26.8184 10.6761 26.9851 10.2102C27.1555 9.74432 27.2408 9.23106 27.2408 8.67045C27.2408 8.11364 27.1555 7.60227 26.9851 7.13636C26.8184 6.66667 26.5608 6.28977 26.2124 6.00568C25.8639 5.72159 25.4245 5.57955 24.8942 5.57955C24.3601 5.57955 23.9169 5.72159 23.5646 6.00568C23.2161 6.28977 22.9567 6.66667 22.7862 7.13636C22.6196 7.60227 22.5362 8.11364 22.5362 8.67045C22.5362 9.23106 22.6196 9.74432 22.7862 10.2102C22.9567 10.6761 23.2161 11.0492 23.5646 11.3295C23.9169 11.6098 24.3601 11.75 24.8942 11.75ZM30.853 13V4.27273H32.495V5.65909H32.5859C32.745 5.18939 33.0253 4.82008 33.4268 4.55114C33.8321 4.27841 34.2905 4.14205 34.8018 4.14205C34.9079 4.14205 35.0329 4.14583 35.1768 4.15341C35.3246 4.16098 35.4401 4.17045 35.5234 4.18182V5.80682C35.4553 5.78788 35.334 5.76705 35.1598 5.74432C34.9856 5.7178 34.8113 5.70455 34.6371 5.70455C34.2356 5.70455 33.8776 5.78977 33.5632 5.96023C33.2526 6.12689 33.0064 6.35985 32.8246 6.65909C32.6428 6.95455 32.5518 7.29167 32.5518 7.67045V13H30.853ZM39.9482 13.1705C39.2436 13.1705 38.6148 12.9905 38.0618 12.6307C37.5125 12.267 37.0807 11.75 36.7663 11.0795C36.4557 10.4053 36.3004 9.59659 36.3004 8.65341C36.3004 7.71023 36.4576 6.90341 36.772 6.23295C37.0902 5.5625 37.5258 5.04924 38.0788 4.69318C38.6319 4.33712 39.2588 4.15909 39.9595 4.15909C40.5012 4.15909 40.9368 4.25 41.2663 4.43182C41.5997 4.60985 41.8572 4.81818 42.0391 5.05682C42.2247 5.29545 42.3686 5.50568 42.4709 5.6875H42.5732V1.36364H44.272V13H42.6129V11.642H42.4709C42.3686 11.8277 42.2209 12.0398 42.0277 12.2784C41.8383 12.517 41.5769 12.7254 41.2436 12.9034C40.9103 13.0814 40.4785 13.1705 39.9482 13.1705ZM40.3232 11.7216C40.8118 11.7216 41.2247 11.5928 41.5618 11.3352C41.9027 11.0739 42.1603 10.7121 42.3345 10.25C42.5125 9.78788 42.6016 9.25 42.6016 8.63636C42.6016 8.0303 42.5144 7.5 42.3402 7.04545C42.166 6.59091 41.9103 6.23674 41.5732 5.98295C41.236 5.72917 40.8194 5.60227 40.3232 5.60227C39.8118 5.60227 39.3857 5.73485 39.0447 6C38.7038 6.26515 38.4463 6.62689 38.272 7.08523C38.1016 7.54356 38.0163 8.06061 38.0163 8.63636C38.0163 9.2197 38.1035 9.74432 38.2777 10.2102C38.4519 10.6761 38.7095 11.0455 39.0504 11.3182C39.3951 11.5871 39.8194 11.7216 40.3232 11.7216ZM49.2365 13.1932C48.6835 13.1932 48.1835 13.0909 47.7365 12.8864C47.2895 12.678 46.9354 12.3769 46.674 11.983C46.4164 11.589 46.2876 11.1061 46.2876 10.5341C46.2876 10.0417 46.3823 9.63636 46.5717 9.31818C46.7611 9 47.0168 8.74811 47.3388 8.5625C47.6607 8.37689 48.0206 8.23674 48.4183 8.14205C48.8161 8.04735 49.2214 7.97538 49.6342 7.92614C50.157 7.86553 50.5812 7.81629 50.907 7.77841C51.2327 7.73674 51.4695 7.67045 51.6172 7.57955C51.7649 7.48864 51.8388 7.34091 51.8388 7.13636V7.09659C51.8388 6.60038 51.6986 6.21591 51.4183 5.94318C51.1418 5.67045 50.7289 5.53409 50.1797 5.53409C49.6077 5.53409 49.157 5.66098 48.8274 5.91477C48.5017 6.16477 48.2763 6.44318 48.1513 6.75L46.5547 6.38636C46.7441 5.85606 47.0206 5.42803 47.3842 5.10227C47.7517 4.77273 48.174 4.53409 48.6513 4.38636C49.1286 4.23485 49.6304 4.15909 50.157 4.15909C50.5054 4.15909 50.8748 4.20076 51.2649 4.28409C51.6589 4.36364 52.0263 4.51136 52.3672 4.72727C52.7119 4.94318 52.9941 5.25189 53.2138 5.65341C53.4335 6.05114 53.5433 6.56818 53.5433 7.20455V13H51.8842V11.8068H51.8161C51.7062 12.0265 51.5414 12.2424 51.3217 12.4545C51.102 12.6667 50.8198 12.8428 50.4751 12.983C50.1304 13.1231 49.7176 13.1932 49.2365 13.1932ZM49.6058 11.8295C50.0755 11.8295 50.477 11.7367 50.8104 11.5511C51.1475 11.3655 51.4032 11.1231 51.5774 10.8239C51.7554 10.5208 51.8445 10.197 51.8445 9.85227V8.72727C51.7839 8.78788 51.6664 8.8447 51.4922 8.89773C51.3217 8.94697 51.1267 8.99053 50.907 9.02841C50.6873 9.0625 50.4732 9.0947 50.2649 9.125C50.0566 9.15152 49.8823 9.17424 49.7422 9.19318C49.4126 9.23485 49.1115 9.30492 48.8388 9.40341C48.5698 9.50189 48.3539 9.64394 48.1911 9.82955C48.032 10.0114 47.9524 10.2538 47.9524 10.5568C47.9524 10.9773 48.1077 11.2955 48.4183 11.5114C48.7289 11.7235 49.1248 11.8295 49.6058 11.8295ZM57.505 7.81818V13H55.8061V4.27273H57.4368V5.69318H57.5447C57.7455 5.23106 58.0599 4.85985 58.4879 4.57955C58.9197 4.29924 59.4633 4.15909 60.1186 4.15909C60.7133 4.15909 61.2341 4.28409 61.6811 4.53409C62.1281 4.7803 62.4747 5.14773 62.7209 5.63636C62.9671 6.125 63.0902 6.72917 63.0902 7.44886V13H61.3913V7.65341C61.3913 7.02083 61.2266 6.52652 60.897 6.17045C60.5675 5.81061 60.1148 5.63068 59.5391 5.63068C59.1451 5.63068 58.7947 5.71591 58.4879 5.88636C58.1849 6.05682 57.9444 6.30682 57.7663 6.63636C57.5921 6.96212 57.505 7.35606 57.505 7.81818ZM76.1428 6.40341L74.603 6.67614C74.5386 6.47917 74.4363 6.29167 74.2962 6.11364C74.1598 5.93561 73.9742 5.78977 73.7393 5.67614C73.5045 5.5625 73.2109 5.50568 72.8587 5.50568C72.3776 5.50568 71.9761 5.61364 71.6541 5.82955C71.3321 6.04167 71.1712 6.31629 71.1712 6.65341C71.1712 6.94508 71.2791 7.17992 71.495 7.35795C71.7109 7.53598 72.0594 7.68182 72.5405 7.79545L73.9268 8.11364C74.7299 8.29924 75.3284 8.58523 75.7223 8.97159C76.1162 9.35795 76.3132 9.85985 76.3132 10.4773C76.3132 11 76.1617 11.4659 75.8587 11.875C75.5594 12.2803 75.1409 12.5985 74.603 12.8295C74.0689 13.0606 73.4496 13.1761 72.745 13.1761C71.7678 13.1761 70.9704 12.9678 70.353 12.5511C69.7356 12.1307 69.3568 11.5341 69.2166 10.7614L70.8587 10.5114C70.9609 10.9394 71.1712 11.2633 71.4893 11.483C71.8075 11.6989 72.2223 11.8068 72.7337 11.8068C73.2905 11.8068 73.7356 11.6913 74.0689 11.4602C74.4022 11.2254 74.5689 10.9394 74.5689 10.6023C74.5689 10.3295 74.4666 10.1004 74.2621 9.91477C74.0613 9.72917 73.7526 9.58902 73.3359 9.49432L71.8587 9.17045C71.0443 8.98485 70.442 8.68939 70.0518 8.28409C69.6655 7.87879 69.4723 7.36553 69.4723 6.74432C69.4723 6.22917 69.6162 5.77841 69.9041 5.39205C70.192 5.00568 70.5897 4.70455 71.0973 4.48864C71.6049 4.26894 72.1863 4.15909 72.8416 4.15909C73.7848 4.15909 74.5272 4.36364 75.0689 4.77273C75.6106 5.17803 75.9685 5.72159 76.1428 6.40341ZM79.255 13.5057L78.3061 12.858L84.4595 3.83523L85.4084 4.48295L79.255 13.5057ZM81.8572 13.1818C81.0391 13.1818 80.325 12.9943 79.7152 12.6193C79.1054 12.2443 78.6319 11.7197 78.2947 11.0455C77.9576 10.3712 77.7891 9.58333 77.7891 8.68182C77.7891 7.77652 77.9576 6.98485 78.2947 6.30682C78.6319 5.62879 79.1054 5.10227 79.7152 4.72727C80.325 4.35227 81.0391 4.16477 81.8572 4.16477C82.6754 4.16477 83.3894 4.35227 83.9993 4.72727C84.6091 5.10227 85.0826 5.62879 85.4197 6.30682C85.7569 6.98485 85.9254 7.77652 85.9254 8.68182C85.9254 9.58333 85.7569 10.3712 85.4197 11.0455C85.0826 11.7197 84.6091 12.2443 83.9993 12.6193C83.3894 12.9943 82.6754 13.1818 81.8572 13.1818ZM81.8629 11.7557C82.3932 11.7557 82.8326 11.6155 83.1811 11.3352C83.5296 11.0511 83.7872 10.6761 83.9538 10.2102C84.1243 9.74432 84.2095 9.23295 84.2095 8.67614C84.2095 8.11932 84.1243 7.60606 83.9538 7.13636C83.7872 6.66667 83.5296 6.28977 83.1811 6.00568C82.8326 5.72159 82.3932 5.57955 81.8629 5.57955C81.3288 5.57955 80.8857 5.72159 80.5334 6.00568C80.1849 6.28977 79.9254 6.66667 79.755 7.13636C79.5883 7.60606 79.505 8.11932 79.505 8.67614C79.505 9.23295 79.5883 9.74432 79.755 10.2102C79.9254 10.6761 80.1849 11.0511 80.5334 11.3352C80.8857 11.6155 81.3288 11.7557 81.8629 11.7557ZM91.4808 16.4545C90.7876 16.4545 90.1911 16.3636 89.6911 16.1818C89.1948 16 88.7895 15.7595 88.4751 15.4602C88.1607 15.161 87.9259 14.8333 87.7706 14.4773L89.2308 13.875C89.3331 14.0417 89.4695 14.2178 89.6399 14.4034C89.8142 14.5928 90.049 14.7538 90.3445 14.8864C90.6437 15.0189 91.0282 15.0852 91.4979 15.0852C92.1418 15.0852 92.674 14.928 93.0945 14.6136C93.5149 14.303 93.7251 13.8068 93.7251 13.125V11.4091H93.6172C93.5149 11.5947 93.3672 11.8011 93.174 12.0284C92.9846 12.2557 92.7232 12.4527 92.3899 12.6193C92.0566 12.786 91.6229 12.8693 91.0888 12.8693C90.3994 12.8693 89.7782 12.7083 89.2251 12.3864C88.6759 12.0606 88.2403 11.5814 87.9183 10.9489C87.6001 10.3125 87.4411 9.5303 87.4411 8.60227C87.4411 7.67424 87.5982 6.87879 87.9126 6.21591C88.2308 5.55303 88.6664 5.04545 89.2195 4.69318C89.7725 4.33712 90.3994 4.15909 91.1001 4.15909C91.6418 4.15909 92.0793 4.25 92.4126 4.43182C92.746 4.60985 93.0054 4.81818 93.1911 5.05682C93.3804 5.29545 93.5263 5.50568 93.6286 5.6875H93.7536V4.27273H95.4183V13.1932C95.4183 13.9432 95.2441 14.5587 94.8956 15.0398C94.5471 15.5208 94.0755 15.8769 93.4808 16.108C92.8899 16.339 92.2232 16.4545 91.4808 16.4545ZM91.4638 11.4602C91.9524 11.4602 92.3653 11.3466 92.7024 11.1193C93.0433 10.8883 93.3009 10.5587 93.4751 10.1307C93.6532 9.69886 93.7422 9.18182 93.7422 8.57955C93.7422 7.99242 93.6551 7.47538 93.4808 7.02841C93.3066 6.58144 93.0509 6.23295 92.7138 5.98295C92.3767 5.72917 91.96 5.60227 91.4638 5.60227C90.9524 5.60227 90.5263 5.73485 90.1854 6C89.8445 6.26136 89.5869 6.61742 89.4126 7.06818C89.2422 7.51894 89.157 8.02273 89.157 8.57955C89.157 9.15152 89.2441 9.65341 89.4183 10.0852C89.5926 10.517 89.8501 10.8542 90.1911 11.0966C90.5357 11.339 90.96 11.4602 91.4638 11.4602ZM101.458 13.1761C100.598 13.1761 99.8577 12.9924 99.2365 12.625C98.6191 12.2538 98.1418 11.733 97.8047 11.0625C97.4714 10.3883 97.3047 9.59848 97.3047 8.69318C97.3047 7.79924 97.4714 7.01136 97.8047 6.32955C98.1418 5.64773 98.6115 5.11553 99.2138 4.73295C99.8198 4.35038 100.528 4.15909 101.339 4.15909C101.831 4.15909 102.308 4.24053 102.771 4.40341C103.233 4.56629 103.647 4.82197 104.015 5.17045C104.382 5.51894 104.672 5.97159 104.884 6.52841C105.096 7.08144 105.202 7.75379 105.202 8.54545V9.14773H98.2649V7.875H103.538C103.538 7.42803 103.447 7.0322 103.265 6.6875C103.083 6.33902 102.827 6.06439 102.498 5.86364C102.172 5.66288 101.79 5.5625 101.35 5.5625C100.873 5.5625 100.456 5.67992 100.1 5.91477C99.7479 6.14583 99.4751 6.44886 99.282 6.82386C99.0926 7.19508 98.9979 7.59848 98.9979 8.03409V9.02841C98.9979 9.61174 99.1001 10.108 99.3047 10.517C99.513 10.9261 99.8028 11.2386 100.174 11.4545C100.545 11.6667 100.979 11.7727 101.475 11.7727C101.797 11.7727 102.091 11.7273 102.356 11.6364C102.621 11.5417 102.85 11.4015 103.043 11.2159C103.237 11.0303 103.384 10.8011 103.487 10.5284L105.094 10.8182C104.966 11.2917 104.735 11.7064 104.401 12.0625C104.072 12.4148 103.657 12.6894 103.157 12.8864C102.661 13.0795 102.094 13.1761 101.458 13.1761ZM107.087 13V4.27273H108.729V5.65909H108.82C108.979 5.18939 109.26 4.82008 109.661 4.55114C110.067 4.27841 110.525 4.14205 111.036 4.14205C111.142 4.14205 111.267 4.14583 111.411 4.15341C111.559 4.16098 111.674 4.17045 111.758 4.18182V5.80682C111.69 5.78788 111.568 5.76705 111.394 5.74432C111.22 5.7178 111.046 5.70455 110.871 5.70455C110.47 5.70455 110.112 5.78977 109.798 5.96023C109.487 6.12689 109.241 6.35985 109.059 6.65909C108.877 6.95455 108.786 7.29167 108.786 7.67045V13H107.087ZM117.462 4.27273H119.161V13.5682C119.161 14.1515 119.055 14.6439 118.843 15.0455C118.635 15.447 118.324 15.7519 117.911 15.9602C117.502 16.1686 116.996 16.2727 116.394 16.2727C116.334 16.2727 116.277 16.2727 116.224 16.2727C116.167 16.2727 116.108 16.2708 116.048 16.267V14.8068C116.101 14.8068 116.148 14.8068 116.19 14.8068C116.228 14.8068 116.271 14.8068 116.32 14.8068C116.722 14.8068 117.012 14.6989 117.19 14.483C117.371 14.2708 117.462 13.9621 117.462 13.5568V4.27273ZM118.303 2.92614C118.008 2.92614 117.754 2.82765 117.542 2.63068C117.334 2.42992 117.229 2.19129 117.229 1.91477C117.229 1.63447 117.334 1.39583 117.542 1.19886C117.754 0.998106 118.008 0.897727 118.303 0.897727C118.599 0.897727 118.851 0.998106 119.059 1.19886C119.271 1.39583 119.377 1.63447 119.377 1.91477C119.377 2.19129 119.271 2.42992 119.059 2.63068C118.851 2.82765 118.599 2.92614 118.303 2.92614ZM125.208 13.1761C124.348 13.1761 123.608 12.9924 122.987 12.625C122.369 12.2538 121.892 11.733 121.555 11.0625C121.221 10.3883 121.055 9.59848 121.055 8.69318C121.055 7.79924 121.221 7.01136 121.555 6.32955C121.892 5.64773 122.362 5.11553 122.964 4.73295C123.57 4.35038 124.278 4.15909 125.089 4.15909C125.581 4.15909 126.058 4.24053 126.521 4.40341C126.983 4.56629 127.397 4.82197 127.765 5.17045C128.132 5.51894 128.422 5.97159 128.634 6.52841C128.846 7.08144 128.952 7.75379 128.952 8.54545V9.14773H122.015V7.875H127.288C127.288 7.42803 127.197 7.0322 127.015 6.6875C126.833 6.33902 126.577 6.06439 126.248 5.86364C125.922 5.66288 125.54 5.5625 125.1 5.5625C124.623 5.5625 124.206 5.67992 123.85 5.91477C123.498 6.14583 123.225 6.44886 123.032 6.82386C122.843 7.19508 122.748 7.59848 122.748 8.03409V9.02841C122.748 9.61174 122.85 10.108 123.055 10.517C123.263 10.9261 123.553 11.2386 123.924 11.4545C124.295 11.6667 124.729 11.7727 125.225 11.7727C125.547 11.7727 125.841 11.7273 126.106 11.6364C126.371 11.5417 126.6 11.4015 126.793 11.2159C126.987 11.0303 127.134 10.8011 127.237 10.5284L128.844 10.8182C128.716 11.2917 128.485 11.7064 128.151 12.0625C127.822 12.4148 127.407 12.6894 126.907 12.8864C126.411 13.0795 125.844 13.1761 125.208 13.1761ZM134.496 16.4545C133.803 16.4545 133.207 16.3636 132.707 16.1818C132.21 16 131.805 15.7595 131.491 15.4602C131.176 15.161 130.942 14.8333 130.786 14.4773L132.246 13.875C132.349 14.0417 132.485 14.2178 132.656 14.4034C132.83 14.5928 133.065 14.7538 133.36 14.8864C133.659 15.0189 134.044 15.0852 134.513 15.0852C135.157 15.0852 135.69 14.928 136.11 14.6136C136.531 14.303 136.741 13.8068 136.741 13.125V11.4091H136.633C136.531 11.5947 136.383 11.8011 136.19 12.0284C136 12.2557 135.739 12.4527 135.406 12.6193C135.072 12.786 134.638 12.8693 134.104 12.8693C133.415 12.8693 132.794 12.7083 132.241 12.3864C131.692 12.0606 131.256 11.5814 130.934 10.9489C130.616 10.3125 130.457 9.5303 130.457 8.60227C130.457 7.67424 130.614 6.87879 130.928 6.21591C131.246 5.55303 131.682 5.04545 132.235 4.69318C132.788 4.33712 133.415 4.15909 134.116 4.15909C134.657 4.15909 135.095 4.25 135.428 4.43182C135.762 4.60985 136.021 4.81818 136.207 5.05682C136.396 5.29545 136.542 5.50568 136.644 5.6875H136.769V4.27273H138.434V13.1932C138.434 13.9432 138.26 14.5587 137.911 15.0398C137.563 15.5208 137.091 15.8769 136.496 16.108C135.906 16.339 135.239 16.4545 134.496 16.4545ZM134.479 11.4602C134.968 11.4602 135.381 11.3466 135.718 11.1193C136.059 10.8883 136.317 10.5587 136.491 10.1307C136.669 9.69886 136.758 9.18182 136.758 8.57955C136.758 7.99242 136.671 7.47538 136.496 7.02841C136.322 6.58144 136.067 6.23295 135.729 5.98295C135.392 5.72917 134.976 5.60227 134.479 5.60227C133.968 5.60227 133.542 5.73485 133.201 6C132.86 6.26136 132.603 6.61742 132.428 7.06818C132.258 7.51894 132.173 8.02273 132.173 8.57955C132.173 9.15152 132.26 9.65341 132.434 10.0852C132.608 10.517 132.866 10.8542 133.207 11.0966C133.551 11.339 133.976 11.4602 134.479 11.4602ZM147.487 13.1932C146.933 13.1932 146.433 13.0909 145.987 12.8864C145.54 12.678 145.185 12.3769 144.924 11.983C144.666 11.589 144.538 11.1061 144.538 10.5341C144.538 10.0417 144.632 9.63636 144.822 9.31818C145.011 9 145.267 8.74811 145.589 8.5625C145.911 8.37689 146.271 8.23674 146.668 8.14205C147.066 8.04735 147.471 7.97538 147.884 7.92614C148.407 7.86553 148.831 7.81629 149.157 7.77841C149.483 7.73674 149.719 7.67045 149.867 7.57955C150.015 7.48864 150.089 7.34091 150.089 7.13636V7.09659C150.089 6.60038 149.949 6.21591 149.668 5.94318C149.392 5.67045 148.979 5.53409 148.43 5.53409C147.858 5.53409 147.407 5.66098 147.077 5.91477C146.752 6.16477 146.526 6.44318 146.401 6.75L144.805 6.38636C144.994 5.85606 145.271 5.42803 145.634 5.10227C146.002 4.77273 146.424 4.53409 146.901 4.38636C147.379 4.23485 147.88 4.15909 148.407 4.15909C148.755 4.15909 149.125 4.20076 149.515 4.28409C149.909 4.36364 150.276 4.51136 150.617 4.72727C150.962 4.94318 151.244 5.25189 151.464 5.65341C151.683 6.05114 151.793 6.56818 151.793 7.20455V13H150.134V11.8068H150.066C149.956 12.0265 149.791 12.2424 149.572 12.4545C149.352 12.6667 149.07 12.8428 148.725 12.983C148.38 13.1231 147.968 13.1932 147.487 13.1932ZM147.856 11.8295C148.326 11.8295 148.727 11.7367 149.06 11.5511C149.397 11.3655 149.653 11.1231 149.827 10.8239C150.005 10.5208 150.094 10.197 150.094 9.85227V8.72727C150.034 8.78788 149.916 8.8447 149.742 8.89773C149.572 8.94697 149.377 8.99053 149.157 9.02841C148.937 9.0625 148.723 9.0947 148.515 9.125C148.307 9.15152 148.132 9.17424 147.992 9.19318C147.663 9.23485 147.362 9.30492 147.089 9.40341C146.82 9.50189 146.604 9.64394 146.441 9.82955C146.282 10.0114 146.202 10.2538 146.202 10.5568C146.202 10.9773 146.358 11.2955 146.668 11.5114C146.979 11.7235 147.375 11.8295 147.856 11.8295ZM157.323 13.1705C156.619 13.1705 155.99 12.9905 155.437 12.6307C154.888 12.267 154.456 11.75 154.141 11.0795C153.831 10.4053 153.675 9.59659 153.675 8.65341C153.675 7.71023 153.833 6.90341 154.147 6.23295C154.465 5.5625 154.901 5.04924 155.454 4.69318C156.007 4.33712 156.634 4.15909 157.335 4.15909C157.876 4.15909 158.312 4.25 158.641 4.43182C158.975 4.60985 159.232 4.81818 159.414 5.05682C159.6 5.29545 159.744 5.50568 159.846 5.6875H159.948V1.36364H161.647V13H159.988V11.642H159.846C159.744 11.8277 159.596 12.0398 159.403 12.2784C159.213 12.517 158.952 12.7254 158.619 12.9034C158.285 13.0814 157.853 13.1705 157.323 13.1705ZM157.698 11.7216C158.187 11.7216 158.6 11.5928 158.937 11.3352C159.278 11.0739 159.535 10.7121 159.71 10.25C159.888 9.78788 159.977 9.25 159.977 8.63636C159.977 8.0303 159.889 7.5 159.715 7.04545C159.541 6.59091 159.285 6.23674 158.948 5.98295C158.611 5.72917 158.194 5.60227 157.698 5.60227C157.187 5.60227 156.761 5.73485 156.42 6C156.079 6.26515 155.821 6.62689 155.647 7.08523C155.477 7.54356 155.391 8.06061 155.391 8.63636C155.391 9.2197 155.478 9.74432 155.653 10.2102C155.827 10.6761 156.085 11.0455 156.425 11.3182C156.77 11.5871 157.194 11.7216 157.698 11.7216ZM167.731 16.4545C167.038 16.4545 166.441 16.3636 165.941 16.1818C165.445 16 165.04 15.7595 164.725 15.4602C164.411 15.161 164.176 14.8333 164.021 14.4773L165.481 13.875C165.583 14.0417 165.719 14.2178 165.89 14.4034C166.064 14.5928 166.299 14.7538 166.594 14.8864C166.894 15.0189 167.278 15.0852 167.748 15.0852C168.392 15.0852 168.924 14.928 169.344 14.6136C169.765 14.303 169.975 13.8068 169.975 13.125V11.4091H169.867C169.765 11.5947 169.617 11.8011 169.424 12.0284C169.235 12.2557 168.973 12.4527 168.64 12.6193C168.307 12.786 167.873 12.8693 167.339 12.8693C166.649 12.8693 166.028 12.7083 165.475 12.3864C164.926 12.0606 164.49 11.5814 164.168 10.9489C163.85 10.3125 163.691 9.5303 163.691 8.60227C163.691 7.67424 163.848 6.87879 164.163 6.21591C164.481 5.55303 164.916 5.04545 165.469 4.69318C166.022 4.33712 166.649 4.15909 167.35 4.15909C167.892 4.15909 168.329 4.25 168.663 4.43182C168.996 4.60985 169.255 4.81818 169.441 5.05682C169.63 5.29545 169.776 5.50568 169.879 5.6875H170.004V4.27273H171.668V13.1932C171.668 13.9432 171.494 14.5587 171.146 15.0398C170.797 15.5208 170.326 15.8769 169.731 16.108C169.14 16.339 168.473 16.4545 167.731 16.4545ZM167.714 11.4602C168.202 11.4602 168.615 11.3466 168.952 11.1193C169.293 10.8883 169.551 10.5587 169.725 10.1307C169.903 9.69886 169.992 9.18182 169.992 8.57955C169.992 7.99242 169.905 7.47538 169.731 7.02841C169.557 6.58144 169.301 6.23295 168.964 5.98295C168.627 5.72917 168.21 5.60227 167.714 5.60227C167.202 5.60227 166.776 5.73485 166.435 6C166.094 6.26136 165.837 6.61742 165.663 7.06818C165.492 7.51894 165.407 8.02273 165.407 8.57955C165.407 9.15152 165.494 9.65341 165.668 10.0852C165.843 10.517 166.1 10.8542 166.441 11.0966C166.786 11.339 167.21 11.4602 167.714 11.4602ZM176.487 13.1932C175.933 13.1932 175.433 13.0909 174.987 12.8864C174.54 12.678 174.185 12.3769 173.924 11.983C173.666 11.589 173.538 11.1061 173.538 10.5341C173.538 10.0417 173.632 9.63636 173.822 9.31818C174.011 9 174.267 8.74811 174.589 8.5625C174.911 8.37689 175.271 8.23674 175.668 8.14205C176.066 8.04735 176.471 7.97538 176.884 7.92614C177.407 7.86553 177.831 7.81629 178.157 7.77841C178.483 7.73674 178.719 7.67045 178.867 7.57955C179.015 7.48864 179.089 7.34091 179.089 7.13636V7.09659C179.089 6.60038 178.949 6.21591 178.668 5.94318C178.392 5.67045 177.979 5.53409 177.43 5.53409C176.858 5.53409 176.407 5.66098 176.077 5.91477C175.752 6.16477 175.526 6.44318 175.401 6.75L173.805 6.38636C173.994 5.85606 174.271 5.42803 174.634 5.10227C175.002 4.77273 175.424 4.53409 175.901 4.38636C176.379 4.23485 176.88 4.15909 177.407 4.15909C177.755 4.15909 178.125 4.20076 178.515 4.28409C178.909 4.36364 179.276 4.51136 179.617 4.72727C179.962 4.94318 180.244 5.25189 180.464 5.65341C180.683 6.05114 180.793 6.56818 180.793 7.20455V13H179.134V11.8068H179.066C178.956 12.0265 178.791 12.2424 178.572 12.4545C178.352 12.6667 178.07 12.8428 177.725 12.983C177.38 13.1231 176.968 13.1932 176.487 13.1932ZM176.856 11.8295C177.326 11.8295 177.727 11.7367 178.06 11.5511C178.397 11.3655 178.653 11.1231 178.827 10.8239C179.005 10.5208 179.094 10.197 179.094 9.85227V8.72727C179.034 8.78788 178.916 8.8447 178.742 8.89773C178.572 8.94697 178.377 8.99053 178.157 9.02841C177.937 9.0625 177.723 9.0947 177.515 9.125C177.307 9.15152 177.132 9.17424 176.992 9.19318C176.663 9.23485 176.362 9.30492 176.089 9.40341C175.82 9.50189 175.604 9.64394 175.441 9.82955C175.282 10.0114 175.202 10.2538 175.202 10.5568C175.202 10.9773 175.358 11.2955 175.668 11.5114C175.979 11.7235 176.375 11.8295 176.856 11.8295ZM184.755 7.81818V13H183.056V4.27273H184.687V5.69318H184.795C184.996 5.23106 185.31 4.85985 185.738 4.57955C186.17 4.29924 186.713 4.15909 187.369 4.15909C187.963 4.15909 188.484 4.28409 188.931 4.53409C189.378 4.7803 189.725 5.14773 189.971 5.63636C190.217 6.125 190.34 6.72917 190.34 7.44886V13H188.641V7.65341C188.641 7.02083 188.477 6.52652 188.147 6.17045C187.817 5.81061 187.365 5.63068 186.789 5.63068C186.395 5.63068 186.045 5.71591 185.738 5.88636C185.435 6.05682 185.194 6.30682 185.016 6.63636C184.842 6.96212 184.755 7.35606 184.755 7.81818ZM196.278 16.4545C195.585 16.4545 194.988 16.3636 194.488 16.1818C193.992 16 193.586 15.7595 193.272 15.4602C192.958 15.161 192.723 14.8333 192.567 14.4773L194.028 13.875C194.13 14.0417 194.266 14.2178 194.437 14.4034C194.611 14.5928 194.846 14.7538 195.141 14.8864C195.441 15.0189 195.825 15.0852 196.295 15.0852C196.939 15.0852 197.471 14.928 197.891 14.6136C198.312 14.303 198.522 13.8068 198.522 13.125V11.4091H198.414C198.312 11.5947 198.164 11.8011 197.971 12.0284C197.781 12.2557 197.52 12.4527 197.187 12.6193C196.853 12.786 196.42 12.8693 195.886 12.8693C195.196 12.8693 194.575 12.7083 194.022 12.3864C193.473 12.0606 193.037 11.5814 192.715 10.9489C192.397 10.3125 192.238 9.5303 192.238 8.60227C192.238 7.67424 192.395 6.87879 192.71 6.21591C193.028 5.55303 193.463 5.04545 194.016 4.69318C194.569 4.33712 195.196 4.15909 195.897 4.15909C196.439 4.15909 196.876 4.25 197.21 4.43182C197.543 4.60985 197.802 4.81818 197.988 5.05682C198.177 5.29545 198.323 5.50568 198.425 5.6875H198.55V4.27273H200.215V13.1932C200.215 13.9432 200.041 14.5587 199.692 15.0398C199.344 15.5208 198.872 15.8769 198.278 16.108C197.687 16.339 197.02 16.4545 196.278 16.4545ZM196.261 11.4602C196.749 11.4602 197.162 11.3466 197.499 11.1193C197.84 10.8883 198.098 10.5587 198.272 10.1307C198.45 9.69886 198.539 9.18182 198.539 8.57955C198.539 7.99242 198.452 7.47538 198.278 7.02841C198.103 6.58144 197.848 6.23295 197.511 5.98295C197.174 5.72917 196.757 5.60227 196.261 5.60227C195.749 5.60227 195.323 5.73485 194.982 6C194.641 6.26136 194.384 6.61742 194.21 7.06818C194.039 7.51894 193.954 8.02273 193.954 8.57955C193.954 9.15152 194.041 9.65341 194.215 10.0852C194.389 10.517 194.647 10.8542 194.988 11.0966C195.333 11.339 195.757 11.4602 196.261 11.4602ZM210.802 4.27273V5.63636H206.035V4.27273H210.802ZM207.313 2.18182H209.012V10.4375C209.012 10.767 209.061 11.0152 209.16 11.1818C209.258 11.3447 209.385 11.4564 209.54 11.517C209.7 11.5739 209.872 11.6023 210.058 11.6023C210.194 11.6023 210.313 11.5928 210.415 11.5739C210.518 11.5549 210.597 11.5398 210.654 11.5284L210.961 12.9318C210.862 12.9697 210.722 13.0076 210.54 13.0455C210.359 13.0871 210.131 13.1098 209.859 13.1136C209.412 13.1212 208.995 13.0417 208.609 12.875C208.222 12.7083 207.91 12.4508 207.671 12.1023C207.433 11.7538 207.313 11.3163 207.313 10.7898V2.18182ZM212.681 13V4.27273H214.38V13H212.681ZM213.539 2.92614C213.244 2.92614 212.99 2.82765 212.778 2.63068C212.569 2.42992 212.465 2.19129 212.465 1.91477C212.465 1.63447 212.569 1.39583 212.778 1.19886C212.99 0.998106 213.244 0.897727 213.539 0.897727C213.835 0.897727 214.086 0.998106 214.295 1.19886C214.507 1.39583 214.613 1.63447 214.613 1.91477C214.613 2.19129 214.507 2.42992 214.295 2.63068C214.086 2.82765 213.835 2.92614 213.539 2.92614ZM218.364 1.36364V13H216.665V1.36364H218.364ZM228.646 13.1761C227.786 13.1761 227.045 12.9924 226.424 12.625C225.807 12.2538 225.329 11.733 224.992 11.0625C224.659 10.3883 224.492 9.59848 224.492 8.69318C224.492 7.79924 224.659 7.01136 224.992 6.32955C225.329 5.64773 225.799 5.11553 226.401 4.73295C227.007 4.35038 227.716 4.15909 228.526 4.15909C229.019 4.15909 229.496 4.24053 229.958 4.40341C230.42 4.56629 230.835 4.82197 231.202 5.17045C231.57 5.51894 231.86 5.97159 232.072 6.52841C232.284 7.08144 232.39 7.75379 232.39 8.54545V9.14773H225.452V7.875H230.725C230.725 7.42803 230.634 7.0322 230.452 6.6875C230.271 6.33902 230.015 6.06439 229.685 5.86364C229.36 5.66288 228.977 5.5625 228.538 5.5625C228.06 5.5625 227.644 5.67992 227.288 5.91477C226.935 6.14583 226.663 6.44886 226.469 6.82386C226.28 7.19508 226.185 7.59848 226.185 8.03409V9.02841C226.185 9.61174 226.288 10.108 226.492 10.517C226.701 10.9261 226.99 11.2386 227.362 11.4545C227.733 11.6667 228.166 11.7727 228.663 11.7727C228.985 11.7727 229.278 11.7273 229.543 11.6364C229.808 11.5417 230.038 11.4015 230.231 11.2159C230.424 11.0303 230.572 10.8011 230.674 10.5284L232.282 10.8182C232.153 11.2917 231.922 11.7064 231.589 12.0625C231.259 12.4148 230.844 12.6894 230.344 12.8864C229.848 13.0795 229.282 13.1761 228.646 13.1761ZM238.349 4.27273V5.63636H233.582V4.27273H238.349ZM234.86 2.18182H236.559V10.4375C236.559 10.767 236.608 11.0152 236.707 11.1818C236.805 11.3447 236.932 11.4564 237.087 11.517C237.246 11.5739 237.419 11.6023 237.604 11.6023C237.741 11.6023 237.86 11.5928 237.962 11.5739C238.065 11.5549 238.144 11.5398 238.201 11.5284L238.508 12.9318C238.409 12.9697 238.269 13.0076 238.087 13.0455C237.906 13.0871 237.678 13.1098 237.406 13.1136C236.959 13.1212 236.542 13.0417 236.156 12.875C235.769 12.7083 235.457 12.4508 235.218 12.1023C234.979 11.7538 234.86 11.3163 234.86 10.7898V2.18182ZM246.161 1.36364V13H244.462V1.36364H246.161ZM252.123 13.1761C251.305 13.1761 250.591 12.9886 249.981 12.6136C249.371 12.2386 248.897 11.714 248.56 11.0398C248.223 10.3655 248.055 9.57765 248.055 8.67614C248.055 7.77083 248.223 6.97917 248.56 6.30114C248.897 5.62311 249.371 5.09659 249.981 4.72159C250.591 4.34659 251.305 4.15909 252.123 4.15909C252.941 4.15909 253.655 4.34659 254.265 4.72159C254.875 5.09659 255.348 5.62311 255.685 6.30114C256.022 6.97917 256.191 7.77083 256.191 8.67614C256.191 9.57765 256.022 10.3655 255.685 11.0398C255.348 11.714 254.875 12.2386 254.265 12.6136C253.655 12.9886 252.941 13.1761 252.123 13.1761ZM252.129 11.75C252.659 11.75 253.098 11.6098 253.447 11.3295C253.795 11.0492 254.053 10.6761 254.219 10.2102C254.39 9.74432 254.475 9.23106 254.475 8.67045C254.475 8.11364 254.39 7.60227 254.219 7.13636C254.053 6.66667 253.795 6.28977 253.447 6.00568C253.098 5.72159 252.659 5.57955 252.129 5.57955C251.594 5.57955 251.151 5.72159 250.799 6.00568C250.451 6.28977 250.191 6.66667 250.021 7.13636C249.854 7.60227 249.771 8.11364 249.771 8.67045C249.771 9.23106 249.854 9.74432 250.021 10.2102C250.191 10.6761 250.451 11.0492 250.799 11.3295C251.151 11.6098 251.594 11.75 252.129 11.75ZM259.65 10.0398L259.638 7.96591H259.934L263.411 4.27273H265.445L261.479 8.47727H261.212L259.65 10.0398ZM258.087 13V1.36364H259.786V13H258.087ZM263.599 13L260.474 8.85227L261.644 7.66477L265.684 13H263.599ZM269.533 13.1932C268.98 13.1932 268.48 13.0909 268.033 12.8864C267.586 12.678 267.232 12.3769 266.971 11.983C266.713 11.589 266.585 11.1061 266.585 10.5341C266.585 10.0417 266.679 9.63636 266.869 9.31818C267.058 9 267.314 8.74811 267.636 8.5625C267.958 8.37689 268.317 8.23674 268.715 8.14205C269.113 8.04735 269.518 7.97538 269.931 7.92614C270.454 7.86553 270.878 7.81629 271.204 7.77841C271.53 7.73674 271.766 7.67045 271.914 7.57955C272.062 7.48864 272.136 7.34091 272.136 7.13636V7.09659C272.136 6.60038 271.996 6.21591 271.715 5.94318C271.439 5.67045 271.026 5.53409 270.477 5.53409C269.905 5.53409 269.454 5.66098 269.124 5.91477C268.799 6.16477 268.573 6.44318 268.448 6.75L266.852 6.38636C267.041 5.85606 267.317 5.42803 267.681 5.10227C268.049 4.77273 268.471 4.53409 268.948 4.38636C269.425 4.23485 269.927 4.15909 270.454 4.15909C270.802 4.15909 271.172 4.20076 271.562 4.28409C271.956 4.36364 272.323 4.51136 272.664 4.72727C273.009 4.94318 273.291 5.25189 273.511 5.65341C273.73 6.05114 273.84 6.56818 273.84 7.20455V13H272.181V11.8068H272.113C272.003 12.0265 271.838 12.2424 271.619 12.4545C271.399 12.6667 271.117 12.8428 270.772 12.983C270.427 13.1231 270.014 13.1932 269.533 13.1932ZM269.903 11.8295C270.372 11.8295 270.774 11.7367 271.107 11.5511C271.444 11.3655 271.7 11.1231 271.874 10.8239C272.052 10.5208 272.141 10.197 272.141 9.85227V8.72727C272.081 8.78788 271.963 8.8447 271.789 8.89773C271.619 8.94697 271.424 8.99053 271.204 9.02841C270.984 9.0625 270.77 9.0947 270.562 9.125C270.353 9.15152 270.179 9.17424 270.039 9.19318C269.71 9.23485 269.408 9.30492 269.136 9.40341C268.867 9.50189 268.651 9.64394 268.488 9.82955C268.329 10.0114 268.249 10.2538 268.249 10.5568C268.249 10.9773 268.405 11.2955 268.715 11.5114C269.026 11.7235 269.422 11.8295 269.903 11.8295ZM277.802 1.36364V13H276.103V1.36364H277.802ZM283.849 13.1761C282.989 13.1761 282.248 12.9924 281.627 12.625C281.01 12.2538 280.532 11.733 280.195 11.0625C279.862 10.3883 279.695 9.59848 279.695 8.69318C279.695 7.79924 279.862 7.01136 280.195 6.32955C280.532 5.64773 281.002 5.11553 281.604 4.73295C282.21 4.35038 282.919 4.15909 283.729 4.15909C284.222 4.15909 284.699 4.24053 285.161 4.40341C285.623 4.56629 286.038 4.82197 286.406 5.17045C286.773 5.51894 287.063 5.97159 287.275 6.52841C287.487 7.08144 287.593 7.75379 287.593 8.54545V9.14773H280.656V7.875H285.928C285.928 7.42803 285.837 7.0322 285.656 6.6875C285.474 6.33902 285.218 6.06439 284.888 5.86364C284.563 5.66288 284.18 5.5625 283.741 5.5625C283.263 5.5625 282.847 5.67992 282.491 5.91477C282.138 6.14583 281.866 6.44886 281.673 6.82386C281.483 7.19508 281.388 7.59848 281.388 8.03409V9.02841C281.388 9.61174 281.491 10.108 281.695 10.517C281.904 10.9261 282.193 11.2386 282.565 11.4545C282.936 11.6667 283.37 11.7727 283.866 11.7727C284.188 11.7727 284.481 11.7273 284.746 11.6364C285.012 11.5417 285.241 11.4015 285.434 11.2159C285.627 11.0303 285.775 10.8011 285.877 10.5284L287.485 10.8182C287.356 11.2917 287.125 11.7064 286.792 12.0625C286.462 12.4148 286.048 12.6894 285.548 12.8864C285.051 13.0795 284.485 13.1761 283.849 13.1761ZM47.5021 25.4034L45.9624 25.6761C45.898 25.4792 45.7957 25.2917 45.6555 25.1136C45.5192 24.9356 45.3336 24.7898 45.0987 24.6761C44.8639 24.5625 44.5703 24.5057 44.218 24.5057C43.737 24.5057 43.3355 24.6136 43.0135 24.8295C42.6915 25.0417 42.5305 25.3163 42.5305 25.6534C42.5305 25.9451 42.6385 26.1799 42.8544 26.358C43.0703 26.536 43.4188 26.6818 43.8999 26.7955L45.2862 27.1136C46.0893 27.2992 46.6877 27.5852 47.0817 27.9716C47.4756 28.358 47.6726 28.8598 47.6726 29.4773C47.6726 30 47.5211 30.4659 47.218 30.875C46.9188 31.2803 46.5002 31.5985 45.9624 31.8295C45.4283 32.0606 44.8089 32.1761 44.1044 32.1761C43.1271 32.1761 42.3298 31.9678 41.7124 31.5511C41.0949 31.1307 40.7161 30.5341 40.576 29.7614L42.218 29.5114C42.3203 29.9394 42.5305 30.2633 42.8487 30.483C43.1669 30.6989 43.5817 30.8068 44.093 30.8068C44.6499 30.8068 45.0949 30.6913 45.4283 30.4602C45.7616 30.2254 45.9283 29.9394 45.9283 29.6023C45.9283 29.3295 45.826 29.1004 45.6214 28.9148C45.4207 28.7292 45.112 28.589 44.6953 28.4943L43.218 28.1705C42.4036 27.9848 41.8014 27.6894 41.4112 27.2841C41.0249 26.8788 40.8317 26.3655 40.8317 25.7443C40.8317 25.2292 40.9756 24.7784 41.2635 24.392C41.5514 24.0057 41.9491 23.7045 42.4567 23.4886C42.9643 23.2689 43.5457 23.1591 44.201 23.1591C45.1442 23.1591 45.8866 23.3636 46.4283 23.7727C46.9699 24.178 47.3279 24.7216 47.5021 25.4034ZM53.2166 32.1761C52.3984 32.1761 51.6844 31.9886 51.0746 31.6136C50.4647 31.2386 49.9912 30.714 49.6541 30.0398C49.317 29.3655 49.1484 28.5777 49.1484 27.6761C49.1484 26.7708 49.317 25.9792 49.6541 25.3011C49.9912 24.6231 50.4647 24.0966 51.0746 23.7216C51.6844 23.3466 52.3984 23.1591 53.2166 23.1591C54.0348 23.1591 54.7488 23.3466 55.3587 23.7216C55.9685 24.0966 56.442 24.6231 56.7791 25.3011C57.1162 25.9792 57.2848 26.7708 57.2848 27.6761C57.2848 28.5777 57.1162 29.3655 56.7791 30.0398C56.442 30.714 55.9685 31.2386 55.3587 31.6136C54.7488 31.9886 54.0348 32.1761 53.2166 32.1761ZM53.2223 30.75C53.7526 30.75 54.192 30.6098 54.5405 30.3295C54.889 30.0492 55.1465 29.6761 55.3132 29.2102C55.4837 28.7443 55.5689 28.2311 55.5689 27.6705C55.5689 27.1136 55.4837 26.6023 55.3132 26.1364C55.1465 25.6667 54.889 25.2898 54.5405 25.0057C54.192 24.7216 53.7526 24.5795 53.2223 24.5795C52.6882 24.5795 52.245 24.7216 51.8928 25.0057C51.5443 25.2898 51.2848 25.6667 51.1143 26.1364C50.9477 26.6023 50.8643 27.1136 50.8643 27.6705C50.8643 28.2311 50.9477 28.7443 51.1143 29.2102C51.2848 29.6761 51.5443 30.0492 51.8928 30.3295C52.245 30.6098 52.6882 30.75 53.2223 30.75ZM59.1811 32V23.2727H60.8118V24.6932H60.9197C61.1016 24.2121 61.3989 23.8371 61.8118 23.5682C62.2247 23.2955 62.719 23.1591 63.2947 23.1591C63.8781 23.1591 64.3667 23.2955 64.7607 23.5682C65.1584 23.8409 65.4519 24.2159 65.6413 24.6932H65.7322C65.9406 24.2273 66.272 23.8561 66.7266 23.5795C67.1811 23.2992 67.7228 23.1591 68.3516 23.1591C69.1432 23.1591 69.7891 23.4072 70.2891 23.9034C70.7929 24.3996 71.0447 25.1477 71.0447 26.1477V32H69.3459V26.3068C69.3459 25.7159 69.1849 25.2879 68.8629 25.0227C68.541 24.7576 68.1565 24.625 67.7095 24.625C67.1565 24.625 66.7266 24.7955 66.4197 25.1364C66.1129 25.4735 65.9595 25.9072 65.9595 26.4375V32H64.2663V26.1989C64.2663 25.7254 64.1186 25.3447 63.8232 25.0568C63.5277 24.7689 63.1432 24.625 62.6697 24.625C62.3478 24.625 62.0504 24.7102 61.7777 24.8807C61.5088 25.0473 61.291 25.2803 61.1243 25.5795C60.9614 25.8788 60.88 26.2254 60.88 26.6193V32H59.1811ZM77.5561 23.2727H79.255V32.5682C79.255 33.1515 79.1489 33.6439 78.9368 34.0455C78.7285 34.447 78.4179 34.7519 78.005 34.9602C77.5959 35.1686 77.0902 35.2727 76.4879 35.2727C76.4273 35.2727 76.3705 35.2727 76.3175 35.2727C76.2607 35.2727 76.2019 35.2708 76.1413 35.267V33.8068C76.1944 33.8068 76.2417 33.8068 76.2834 33.8068C76.3213 33.8068 76.3648 33.8068 76.4141 33.8068C76.8156 33.8068 77.1054 33.6989 77.2834 33.483C77.4652 33.2708 77.5561 32.9621 77.5561 32.5568V23.2727ZM78.397 21.9261C78.1016 21.9261 77.8478 21.8277 77.6357 21.6307C77.4273 21.4299 77.3232 21.1913 77.3232 20.9148C77.3232 20.6345 77.4273 20.3958 77.6357 20.1989C77.8478 19.9981 78.1016 19.8977 78.397 19.8977C78.6925 19.8977 78.9444 19.9981 79.1527 20.1989C79.3648 20.3958 79.4709 20.6345 79.4709 20.9148C79.4709 21.1913 79.3648 21.4299 79.1527 21.6307C78.9444 21.8277 78.6925 21.9261 78.397 21.9261ZM85.3018 32.1761C84.442 32.1761 83.7015 31.9924 83.0803 31.625C82.4628 31.2538 81.9856 30.733 81.6484 30.0625C81.3151 29.3883 81.1484 28.5985 81.1484 27.6932C81.1484 26.7992 81.3151 26.0114 81.6484 25.3295C81.9856 24.6477 82.4553 24.1155 83.0575 23.733C83.6636 23.3504 84.3719 23.1591 85.1825 23.1591C85.675 23.1591 86.1522 23.2405 86.6143 23.4034C87.0765 23.5663 87.4912 23.822 87.8587 24.1705C88.2261 24.5189 88.5159 24.9716 88.728 25.5284C88.9401 26.0814 89.0462 26.7538 89.0462 27.5455V28.1477H82.1087V26.875H87.3814C87.3814 26.428 87.2905 26.0322 87.1087 25.6875C86.9268 25.339 86.6712 25.0644 86.3416 24.8636C86.0159 24.6629 85.6333 24.5625 85.1939 24.5625C84.7166 24.5625 84.3 24.6799 83.9439 24.9148C83.5916 25.1458 83.3189 25.4489 83.1257 25.8239C82.9363 26.1951 82.8416 26.5985 82.8416 27.0341V28.0284C82.8416 28.6117 82.9439 29.108 83.1484 29.517C83.3568 29.9261 83.6465 30.2386 84.0178 30.4545C84.389 30.6667 84.8227 30.7727 85.3189 30.7727C85.6409 30.7727 85.9344 30.7273 86.1996 30.6364C86.4647 30.5417 86.6939 30.4015 86.8871 30.2159C87.0803 30.0303 87.228 29.8011 87.3303 29.5284L88.9382 29.8182C88.8094 30.2917 88.5784 30.7064 88.245 31.0625C87.9155 31.4148 87.5007 31.6894 87.0007 31.8864C86.5045 32.0795 85.9382 32.1761 85.3018 32.1761ZM94.5902 35.4545C93.897 35.4545 93.3004 35.3636 92.8004 35.1818C92.3042 35 91.8989 34.7595 91.5845 34.4602C91.2701 34.161 91.0353 33.8333 90.88 33.4773L92.3402 32.875C92.4425 33.0417 92.5788 33.2178 92.7493 33.4034C92.9235 33.5928 93.1584 33.7538 93.4538 33.8864C93.7531 34.0189 94.1375 34.0852 94.6072 34.0852C95.2512 34.0852 95.7834 33.928 96.2038 33.6136C96.6243 33.303 96.8345 32.8068 96.8345 32.125V30.4091H96.7266C96.6243 30.5947 96.4766 30.8011 96.2834 31.0284C96.094 31.2557 95.8326 31.4527 95.4993 31.6193C95.166 31.786 94.7322 31.8693 94.1982 31.8693C93.5088 31.8693 92.8875 31.7083 92.3345 31.3864C91.7853 31.0606 91.3497 30.5814 91.0277 29.9489C90.7095 29.3125 90.5504 28.5303 90.5504 27.6023C90.5504 26.6742 90.7076 25.8788 91.022 25.2159C91.3402 24.553 91.7758 24.0455 92.3288 23.6932C92.8819 23.3371 93.5088 23.1591 94.2095 23.1591C94.7512 23.1591 95.1887 23.25 95.522 23.4318C95.8554 23.6098 96.1148 23.8182 96.3004 24.0568C96.4898 24.2955 96.6357 24.5057 96.7379 24.6875H96.8629V23.2727H98.5277V32.1932C98.5277 32.9432 98.3535 33.5587 98.005 34.0398C97.6565 34.5208 97.1849 34.8769 96.5902 35.108C95.9993 35.339 95.3326 35.4545 94.5902 35.4545ZM94.5732 30.4602C95.0618 30.4602 95.4747 30.3466 95.8118 30.1193C96.1527 29.8883 96.4103 29.5587 96.5845 29.1307C96.7625 28.6989 96.8516 28.1818 96.8516 27.5795C96.8516 26.9924 96.7644 26.4754 96.5902 26.0284C96.416 25.5814 96.1603 25.233 95.8232 24.983C95.486 24.7292 95.0694 24.6023 94.5732 24.6023C94.0618 24.6023 93.6357 24.7348 93.2947 25C92.9538 25.2614 92.6963 25.6174 92.522 26.0682C92.3516 26.5189 92.2663 27.0227 92.2663 27.5795C92.2663 28.1515 92.3535 28.6534 92.5277 29.0852C92.7019 29.517 92.9595 29.8542 93.3004 30.0966C93.6451 30.339 94.0694 30.4602 94.5732 30.4602ZM105.04 32V23.2727H106.739V32H105.04ZM105.898 21.9261C105.603 21.9261 105.349 21.8277 105.137 21.6307C104.929 21.4299 104.825 21.1913 104.825 20.9148C104.825 20.6345 104.929 20.3958 105.137 20.1989C105.349 19.9981 105.603 19.8977 105.898 19.8977C106.194 19.8977 106.446 19.9981 106.654 20.1989C106.866 20.3958 106.972 20.6345 106.972 20.9148C106.972 21.1913 106.866 21.4299 106.654 21.6307C106.446 21.8277 106.194 21.9261 105.898 21.9261ZM110.587 29.0398L110.576 26.9659H110.871L114.349 23.2727H116.383L112.417 27.4773H112.15L110.587 29.0398ZM109.025 32V20.3636H110.724V32H109.025ZM114.536 32L111.411 27.8523L112.582 26.6648L116.621 32H114.536ZM119.494 29.0398L119.482 26.9659H119.778L123.255 23.2727H125.289L121.323 27.4773H121.056L119.494 29.0398ZM117.931 32V20.3636H119.63V32H117.931ZM123.442 32L120.317 27.8523L121.488 26.6648L125.528 32H123.442ZM130.239 32.1761C129.379 32.1761 128.639 31.9924 128.018 31.625C127.4 31.2538 126.923 30.733 126.586 30.0625C126.253 29.3883 126.086 28.5985 126.086 27.6932C126.086 26.7992 126.253 26.0114 126.586 25.3295C126.923 24.6477 127.393 24.1155 127.995 23.733C128.601 23.3504 129.309 23.1591 130.12 23.1591C130.612 23.1591 131.09 23.2405 131.552 23.4034C132.014 23.5663 132.429 23.822 132.796 24.1705C133.164 24.5189 133.453 24.9716 133.665 25.5284C133.878 26.0814 133.984 26.7538 133.984 27.5455V28.1477H127.046V26.875H132.319C132.319 26.428 132.228 26.0322 132.046 25.6875C131.864 25.339 131.609 25.0644 131.279 24.8636C130.953 24.6629 130.571 24.5625 130.131 24.5625C129.654 24.5625 129.237 24.6799 128.881 24.9148C128.529 25.1458 128.256 25.4489 128.063 25.8239C127.874 26.1951 127.779 26.5985 127.779 27.0341V28.0284C127.779 28.6117 127.881 29.108 128.086 29.517C128.294 29.9261 128.584 30.2386 128.955 30.4545C129.326 30.6667 129.76 30.7727 130.256 30.7727C130.578 30.7727 130.872 30.7273 131.137 30.6364C131.402 30.5417 131.631 30.4015 131.825 30.2159C132.018 30.0303 132.165 29.8011 132.268 29.5284L133.876 29.8182C133.747 30.2917 133.516 30.7064 133.183 31.0625C132.853 31.4148 132.438 31.6894 131.938 31.8864C131.442 32.0795 130.876 32.1761 130.239 32.1761ZM141.802 26.8182V32H140.103V20.3636H141.779V24.6932H141.887C142.092 24.2235 142.404 23.8504 142.825 23.5739C143.245 23.2973 143.794 23.1591 144.472 23.1591C145.071 23.1591 145.594 23.2822 146.04 23.5284C146.491 23.7746 146.84 24.142 147.086 24.6307C147.336 25.1155 147.461 25.7216 147.461 26.4489V32H145.762V26.6534C145.762 26.0133 145.597 25.517 145.268 25.1648C144.938 24.8087 144.48 24.6307 143.893 24.6307C143.491 24.6307 143.131 24.7159 142.813 24.8864C142.499 25.0568 142.251 25.3068 142.069 25.6364C141.891 25.9621 141.802 26.3561 141.802 26.8182ZM152.268 32.1932C151.715 32.1932 151.215 32.0909 150.768 31.8864C150.321 31.678 149.967 31.3769 149.705 30.983C149.448 30.589 149.319 30.1061 149.319 29.5341C149.319 29.0417 149.414 28.6364 149.603 28.3182C149.792 28 150.048 27.7481 150.37 27.5625C150.692 27.3769 151.052 27.2367 151.45 27.142C151.847 27.0473 152.253 26.9754 152.665 26.9261C153.188 26.8655 153.612 26.8163 153.938 26.7784C154.264 26.7367 154.501 26.6705 154.648 26.5795C154.796 26.4886 154.87 26.3409 154.87 26.1364V26.0966C154.87 25.6004 154.73 25.2159 154.45 24.9432C154.173 24.6705 153.76 24.5341 153.211 24.5341C152.639 24.5341 152.188 24.661 151.859 24.9148C151.533 25.1648 151.308 25.4432 151.183 25.75L149.586 25.3864C149.775 24.8561 150.052 24.428 150.415 24.1023C150.783 23.7727 151.205 23.5341 151.683 23.3864C152.16 23.2348 152.662 23.1591 153.188 23.1591C153.537 23.1591 153.906 23.2008 154.296 23.2841C154.69 23.3636 155.058 23.5114 155.398 23.7273C155.743 23.9432 156.025 24.2519 156.245 24.6534C156.465 25.0511 156.575 25.5682 156.575 26.2045V32H154.915V30.8068H154.847C154.737 31.0265 154.573 31.2424 154.353 31.4545C154.133 31.6667 153.851 31.8428 153.506 31.983C153.162 32.1231 152.749 32.1932 152.268 32.1932ZM152.637 30.8295C153.107 30.8295 153.508 30.7367 153.842 30.5511C154.179 30.3655 154.434 30.1231 154.609 29.8239C154.787 29.5208 154.876 29.197 154.876 28.8523V27.7273C154.815 27.7879 154.698 27.8447 154.523 27.8977C154.353 27.947 154.158 27.9905 153.938 28.0284C153.719 28.0625 153.504 28.0947 153.296 28.125C153.088 28.1515 152.914 28.1742 152.773 28.1932C152.444 28.2348 152.143 28.3049 151.87 28.4034C151.601 28.5019 151.385 28.6439 151.222 28.8295C151.063 29.0114 150.984 29.2538 150.984 29.5568C150.984 29.9773 151.139 30.2955 151.45 30.5114C151.76 30.7235 152.156 30.8295 152.637 30.8295ZM158.837 32V23.2727H160.479V24.6591H160.57C160.729 24.1894 161.01 23.8201 161.411 23.5511C161.817 23.2784 162.275 23.142 162.786 23.142C162.892 23.142 163.017 23.1458 163.161 23.1534C163.309 23.161 163.424 23.1705 163.508 23.1818V24.8068C163.44 24.7879 163.318 24.767 163.144 24.7443C162.97 24.7178 162.796 24.7045 162.621 24.7045C162.22 24.7045 161.862 24.7898 161.548 24.9602C161.237 25.1269 160.991 25.3598 160.809 25.6591C160.627 25.9545 160.536 26.2917 160.536 26.6705V32H158.837ZM171.752 32.1932C171.199 32.1932 170.699 32.0909 170.252 31.8864C169.805 31.678 169.451 31.3769 169.19 30.983C168.932 30.589 168.803 30.1061 168.803 29.5341C168.803 29.0417 168.898 28.6364 169.087 28.3182C169.277 28 169.532 27.7481 169.854 27.5625C170.176 27.3769 170.536 27.2367 170.934 27.142C171.332 27.0473 171.737 26.9754 172.15 26.9261C172.673 26.8655 173.097 26.8163 173.423 26.7784C173.748 26.7367 173.985 26.6705 174.133 26.5795C174.281 26.4886 174.354 26.3409 174.354 26.1364V26.0966C174.354 25.6004 174.214 25.2159 173.934 24.9432C173.657 24.6705 173.245 24.5341 172.695 24.5341C172.123 24.5341 171.673 24.661 171.343 24.9148C171.017 25.1648 170.792 25.4432 170.667 25.75L169.07 25.3864C169.26 24.8561 169.536 24.428 169.9 24.1023C170.267 23.7727 170.69 23.5341 171.167 23.3864C171.644 23.2348 172.146 23.1591 172.673 23.1591C173.021 23.1591 173.39 23.2008 173.781 23.2841C174.174 23.3636 174.542 23.5114 174.883 23.7273C175.228 23.9432 175.51 24.2519 175.729 24.6534C175.949 25.0511 176.059 25.5682 176.059 26.2045V32H174.4V30.8068H174.332C174.222 31.0265 174.057 31.2424 173.837 31.4545C173.618 31.6667 173.335 31.8428 172.991 31.983C172.646 32.1231 172.233 32.1932 171.752 32.1932ZM172.121 30.8295C172.591 30.8295 172.993 30.7367 173.326 30.5511C173.663 30.3655 173.919 30.1231 174.093 29.8239C174.271 29.5208 174.36 29.197 174.36 28.8523V27.7273C174.299 27.7879 174.182 27.8447 174.008 27.8977C173.837 27.947 173.642 27.9905 173.423 28.0284C173.203 28.0625 172.989 28.0947 172.781 28.125C172.572 28.1515 172.398 28.1742 172.258 28.1932C171.928 28.2348 171.627 28.3049 171.354 28.4034C171.085 28.5019 170.87 28.6439 170.707 28.8295C170.548 29.0114 170.468 29.2538 170.468 29.5568C170.468 29.9773 170.623 30.2955 170.934 30.5114C171.245 30.7235 171.64 30.8295 172.121 30.8295ZM181.589 32.1705C180.884 32.1705 180.255 31.9905 179.702 31.6307C179.153 31.267 178.721 30.75 178.407 30.0795C178.096 29.4053 177.941 28.5966 177.941 27.6534C177.941 26.7102 178.098 25.9034 178.413 25.233C178.731 24.5625 179.166 24.0492 179.719 23.6932C180.272 23.3371 180.899 23.1591 181.6 23.1591C182.142 23.1591 182.577 23.25 182.907 23.4318C183.24 23.6098 183.498 23.8182 183.68 24.0568C183.865 24.2955 184.009 24.5057 184.112 24.6875H184.214V20.3636H185.913V32H184.254V30.642H184.112C184.009 30.8277 183.862 31.0398 183.668 31.2784C183.479 31.517 183.218 31.7254 182.884 31.9034C182.551 32.0814 182.119 32.1705 181.589 32.1705ZM181.964 30.7216C182.452 30.7216 182.865 30.5928 183.202 30.3352C183.543 30.0739 183.801 29.7121 183.975 29.25C184.153 28.7879 184.242 28.25 184.242 27.6364C184.242 27.0303 184.155 26.5 183.981 26.0455C183.807 25.5909 183.551 25.2367 183.214 24.983C182.877 24.7292 182.46 24.6023 181.964 24.6023C181.452 24.6023 181.026 24.7348 180.685 25C180.344 25.2652 180.087 25.6269 179.913 26.0852C179.742 26.5436 179.657 27.0606 179.657 27.6364C179.657 28.2197 179.744 28.7443 179.918 29.2102C180.093 29.6761 180.35 30.0455 180.691 30.3182C181.036 30.5871 181.46 30.7216 181.964 30.7216ZM191.996 35.4545C191.303 35.4545 190.707 35.3636 190.207 35.1818C189.71 35 189.305 34.7595 188.991 34.4602C188.676 34.161 188.442 33.8333 188.286 33.4773L189.746 32.875C189.849 33.0417 189.985 33.2178 190.156 33.4034C190.33 33.5928 190.565 33.7538 190.86 33.8864C191.159 34.0189 191.544 34.0852 192.013 34.0852C192.657 34.0852 193.19 33.928 193.61 33.6136C194.031 33.303 194.241 32.8068 194.241 32.125V30.4091H194.133C194.031 30.5947 193.883 30.8011 193.69 31.0284C193.5 31.2557 193.239 31.4527 192.906 31.6193C192.572 31.786 192.138 31.8693 191.604 31.8693C190.915 31.8693 190.294 31.7083 189.741 31.3864C189.192 31.0606 188.756 30.5814 188.434 29.9489C188.116 29.3125 187.957 28.5303 187.957 27.6023C187.957 26.6742 188.114 25.8788 188.428 25.2159C188.746 24.553 189.182 24.0455 189.735 23.6932C190.288 23.3371 190.915 23.1591 191.616 23.1591C192.157 23.1591 192.595 23.25 192.928 23.4318C193.262 23.6098 193.521 23.8182 193.707 24.0568C193.896 24.2955 194.042 24.5057 194.144 24.6875H194.269V23.2727H195.934V32.1932C195.934 32.9432 195.76 33.5587 195.411 34.0398C195.063 34.5208 194.591 34.8769 193.996 35.108C193.406 35.339 192.739 35.4545 191.996 35.4545ZM191.979 30.4602C192.468 30.4602 192.881 30.3466 193.218 30.1193C193.559 29.8883 193.817 29.5587 193.991 29.1307C194.169 28.6989 194.258 28.1818 194.258 27.5795C194.258 26.9924 194.171 26.4754 193.996 26.0284C193.822 25.5814 193.567 25.233 193.229 24.983C192.892 24.7292 192.476 24.6023 191.979 24.6023C191.468 24.6023 191.042 24.7348 190.701 25C190.36 25.2614 190.103 25.6174 189.928 26.0682C189.758 26.5189 189.673 27.0227 189.673 27.5795C189.673 28.1515 189.76 28.6534 189.934 29.0852C190.108 29.517 190.366 29.8542 190.707 30.0966C191.051 30.339 191.476 30.4602 191.979 30.4602ZM200.752 32.1932C200.199 32.1932 199.699 32.0909 199.252 31.8864C198.805 31.678 198.451 31.3769 198.19 30.983C197.932 30.589 197.803 30.1061 197.803 29.5341C197.803 29.0417 197.898 28.6364 198.087 28.3182C198.277 28 198.532 27.7481 198.854 27.5625C199.176 27.3769 199.536 27.2367 199.934 27.142C200.332 27.0473 200.737 26.9754 201.15 26.9261C201.673 26.8655 202.097 26.8163 202.423 26.7784C202.748 26.7367 202.985 26.6705 203.133 26.5795C203.281 26.4886 203.354 26.3409 203.354 26.1364V26.0966C203.354 25.6004 203.214 25.2159 202.934 24.9432C202.657 24.6705 202.245 24.5341 201.695 24.5341C201.123 24.5341 200.673 24.661 200.343 24.9148C200.017 25.1648 199.792 25.4432 199.667 25.75L198.07 25.3864C198.26 24.8561 198.536 24.428 198.9 24.1023C199.267 23.7727 199.69 23.5341 200.167 23.3864C200.644 23.2348 201.146 23.1591 201.673 23.1591C202.021 23.1591 202.39 23.2008 202.781 23.2841C203.174 23.3636 203.542 23.5114 203.883 23.7273C204.228 23.9432 204.51 24.2519 204.729 24.6534C204.949 25.0511 205.059 25.5682 205.059 26.2045V32H203.4V30.8068H203.332C203.222 31.0265 203.057 31.2424 202.837 31.4545C202.618 31.6667 202.335 31.8428 201.991 31.983C201.646 32.1231 201.233 32.1932 200.752 32.1932ZM201.121 30.8295C201.591 30.8295 201.993 30.7367 202.326 30.5511C202.663 30.3655 202.919 30.1231 203.093 29.8239C203.271 29.5208 203.36 29.197 203.36 28.8523V27.7273C203.299 27.7879 203.182 27.8447 203.008 27.8977C202.837 27.947 202.642 27.9905 202.423 28.0284C202.203 28.0625 201.989 28.0947 201.781 28.125C201.572 28.1515 201.398 28.1742 201.258 28.1932C200.928 28.2348 200.627 28.3049 200.354 28.4034C200.085 28.5019 199.87 28.6439 199.707 28.8295C199.548 29.0114 199.468 29.2538 199.468 29.5568C199.468 29.9773 199.623 30.2955 199.934 30.5114C200.245 30.7235 200.64 30.8295 201.121 30.8295ZM209.021 26.8182V32H207.322V23.2727H208.952V24.6932H209.06C209.261 24.2311 209.576 23.8598 210.004 23.5795C210.435 23.2992 210.979 23.1591 211.634 23.1591C212.229 23.1591 212.75 23.2841 213.197 23.5341C213.644 23.7803 213.99 24.1477 214.237 24.6364C214.483 25.125 214.606 25.7292 214.606 26.4489V32H212.907V26.6534C212.907 26.0208 212.742 25.5265 212.413 25.1705C212.083 24.8106 211.63 24.6307 211.055 24.6307C210.661 24.6307 210.31 24.7159 210.004 24.8864C209.701 25.0568 209.46 25.3068 209.282 25.6364C209.108 25.9621 209.021 26.3561 209.021 26.8182ZM220.543 35.4545C219.85 35.4545 219.254 35.3636 218.754 35.1818C218.257 35 217.852 34.7595 217.538 34.4602C217.223 34.161 216.988 33.8333 216.833 33.4773L218.293 32.875C218.396 33.0417 218.532 33.2178 218.702 33.4034C218.877 33.5928 219.112 33.7538 219.407 33.8864C219.706 34.0189 220.091 34.0852 220.56 34.0852C221.204 34.0852 221.737 33.928 222.157 33.6136C222.577 33.303 222.788 32.8068 222.788 32.125V30.4091H222.68C222.577 30.5947 222.43 30.8011 222.237 31.0284C222.047 31.2557 221.786 31.4527 221.452 31.6193C221.119 31.786 220.685 31.8693 220.151 31.8693C219.462 31.8693 218.841 31.7083 218.288 31.3864C217.738 31.0606 217.303 30.5814 216.981 29.9489C216.663 29.3125 216.504 28.5303 216.504 27.6023C216.504 26.6742 216.661 25.8788 216.975 25.2159C217.293 24.553 217.729 24.0455 218.282 23.6932C218.835 23.3371 219.462 23.1591 220.163 23.1591C220.704 23.1591 221.142 23.25 221.475 23.4318C221.808 23.6098 222.068 23.8182 222.254 24.0568C222.443 24.2955 222.589 24.5057 222.691 24.6875H222.816V23.2727H224.481V32.1932C224.481 32.9432 224.307 33.5587 223.958 34.0398C223.61 34.5208 223.138 34.8769 222.543 35.108C221.952 35.339 221.286 35.4545 220.543 35.4545ZM220.526 30.4602C221.015 30.4602 221.428 30.3466 221.765 30.1193C222.106 29.8883 222.363 29.5587 222.538 29.1307C222.716 28.6989 222.805 28.1818 222.805 27.5795C222.805 26.9924 222.718 26.4754 222.543 26.0284C222.369 25.5814 222.113 25.233 221.776 24.983C221.439 24.7292 221.022 24.6023 220.526 24.6023C220.015 24.6023 219.589 24.7348 219.248 25C218.907 25.2614 218.649 25.6174 218.475 26.0682C218.305 26.5189 218.219 27.0227 218.219 27.5795C218.219 28.1515 218.307 28.6534 218.481 29.0852C218.655 29.517 218.913 29.8542 219.254 30.0966C219.598 30.339 220.022 30.4602 220.526 30.4602ZM235.067 23.2727V24.6364H230.3V23.2727H235.067ZM231.579 21.1818H233.278V29.4375C233.278 29.767 233.327 30.0152 233.425 30.1818C233.524 30.3447 233.651 30.4564 233.806 30.517C233.965 30.5739 234.138 30.6023 234.323 30.6023C234.46 30.6023 234.579 30.5928 234.681 30.5739C234.783 30.5549 234.863 30.5398 234.92 30.5284L235.227 31.9318C235.128 31.9697 234.988 32.0076 234.806 32.0455C234.624 32.0871 234.397 32.1098 234.124 32.1136C233.677 32.1212 233.261 32.0417 232.874 31.875C232.488 31.7083 232.175 31.4508 231.937 31.1023C231.698 30.7538 231.579 30.3163 231.579 29.7898V21.1818ZM236.947 32V23.2727H238.646V32H236.947ZM237.805 21.9261C237.509 21.9261 237.255 21.8277 237.043 21.6307C236.835 21.4299 236.731 21.1913 236.731 20.9148C236.731 20.6345 236.835 20.3958 237.043 20.1989C237.255 19.9981 237.509 19.8977 237.805 19.8977C238.1 19.8977 238.352 19.9981 238.56 20.1989C238.772 20.3958 238.879 20.6345 238.879 20.9148C238.879 21.1913 238.772 21.4299 238.56 21.6307C238.352 21.8277 238.1 21.9261 237.805 21.9261ZM242.63 20.3636V32H240.931V20.3636H242.63ZM246.773 28.6534V28.5455C246.781 27.8409 246.851 27.2803 246.984 26.8636C247.12 26.447 247.313 26.1098 247.563 25.8523C247.813 25.5947 248.114 25.3598 248.467 25.1477C248.694 25.0038 248.898 24.8428 249.08 24.6648C249.262 24.4867 249.406 24.2822 249.512 24.0511C249.618 23.8201 249.671 23.5644 249.671 23.2841C249.671 22.947 249.592 22.6553 249.433 22.4091C249.273 22.1629 249.061 21.9735 248.796 21.8409C248.535 21.7045 248.243 21.6364 247.921 21.6364C247.629 21.6364 247.351 21.697 247.086 21.8182C246.821 21.9394 246.601 22.1288 246.427 22.3864C246.253 22.6402 246.152 22.9678 246.126 23.3693H244.398C244.425 22.6875 244.597 22.1117 244.915 21.642C245.234 21.1686 245.654 20.8106 246.177 20.5682C246.703 20.3258 247.285 20.2045 247.921 20.2045C248.618 20.2045 249.228 20.3352 249.751 20.5966C250.273 20.8542 250.679 21.2159 250.967 21.6818C251.258 22.1439 251.404 22.6837 251.404 23.3011C251.404 23.7254 251.338 24.108 251.205 24.4489C251.073 24.786 250.883 25.0871 250.637 25.3523C250.395 25.6174 250.103 25.8523 249.762 26.0568C249.44 26.2576 249.179 26.4659 248.978 26.6818C248.781 26.8977 248.637 27.1534 248.546 27.4489C248.455 27.7443 248.406 28.1098 248.398 28.5455V28.6534H246.773ZM247.631 32.108C247.321 32.108 247.054 31.9981 246.83 31.7784C246.607 31.5549 246.495 31.286 246.495 30.9716C246.495 30.661 246.607 30.3958 246.83 30.1761C247.054 29.9527 247.321 29.8409 247.631 29.8409C247.938 29.8409 248.203 29.9527 248.427 30.1761C248.654 30.3958 248.768 30.661 248.768 30.9716C248.768 31.1799 248.715 31.3712 248.609 31.5455C248.506 31.7159 248.37 31.8523 248.2 31.9545C248.029 32.0568 247.84 32.108 247.631 32.108Z" fill="white"/>
</svg>
