<svg width="30" height="43" viewBox="0 0 30 43" fill="none" xmlns="http://www.w3.org/2000/svg">
<path d="M1.61719 31.4688H3.19922L5.25 37.5684L7.29492 31.4688H8.87695L5.88867 40H4.60547L1.61719 31.4688ZM0.703125 31.4688H2.31445L2.61328 37.791V40H0.703125V31.4688ZM8.17969 31.4688H9.79688V40H7.88086V37.791L8.17969 31.4688ZM14.7694 40.1172C14.2655 40.1172 13.8143 40.0371 13.4159 39.877C13.0174 39.7168 12.6795 39.4961 12.4022 39.2148C12.1287 38.9297 11.9198 38.6016 11.7752 38.2305C11.6307 37.8594 11.5584 37.4629 11.5584 37.041V36.8184C11.5584 36.3457 11.6248 35.9102 11.7577 35.5117C11.8905 35.1133 12.0838 34.7676 12.3377 34.4746C12.5955 34.1777 12.912 33.9492 13.287 33.7891C13.662 33.625 14.0897 33.543 14.5702 33.543C15.0194 33.543 15.4198 33.6172 15.7713 33.7656C16.1229 33.9102 16.4198 34.1191 16.662 34.3926C16.9041 34.6621 17.0877 34.9883 17.2127 35.3711C17.3416 35.75 17.4061 36.1758 17.4061 36.6484V37.3984H12.2967V36.2207H15.6131V36.0801C15.6131 35.8574 15.5721 35.6621 15.4901 35.4941C15.412 35.3262 15.2948 35.1973 15.1385 35.1074C14.9862 35.0137 14.7928 34.9668 14.5584 34.9668C14.3358 34.9668 14.1502 35.0137 14.0018 35.1074C13.8534 35.2012 13.7342 35.334 13.6444 35.5059C13.5584 35.6738 13.4959 35.8711 13.4569 36.0977C13.4178 36.3203 13.3983 36.5605 13.3983 36.8184V37.041C13.3983 37.2871 13.4315 37.5117 13.4979 37.7148C13.5643 37.918 13.662 38.0918 13.7909 38.2363C13.9198 38.3809 14.076 38.4941 14.2596 38.5762C14.4432 38.6582 14.6522 38.6992 14.8866 38.6992C15.1756 38.6992 15.451 38.6445 15.7127 38.5352C15.9745 38.4219 16.201 38.2461 16.3924 38.0078L17.2479 38.9863C17.119 39.1738 16.9373 39.3555 16.703 39.5312C16.4725 39.7031 16.1952 39.8438 15.8709 39.9531C15.5467 40.0625 15.1795 40.1172 14.7694 40.1172ZM20.7907 35.1367V40H18.9626V33.6602H20.6794L20.7907 35.1367ZM22.6833 33.6133L22.654 35.3184C22.5759 35.3066 22.4743 35.2969 22.3493 35.2891C22.2243 35.2773 22.1169 35.2715 22.027 35.2715C21.7927 35.2715 21.5895 35.3008 21.4177 35.3594C21.2497 35.4141 21.1091 35.4961 20.9958 35.6055C20.8864 35.7148 20.8044 35.8516 20.7497 36.0156C20.695 36.1758 20.6677 36.3613 20.6677 36.5723L20.322 36.4023C20.322 35.9844 20.363 35.6016 20.445 35.2539C20.527 34.9062 20.6462 34.6055 20.8024 34.3516C20.9587 34.0938 21.1501 33.8945 21.3766 33.7539C21.6032 33.6133 21.861 33.543 22.1501 33.543C22.2438 33.543 22.3395 33.5488 22.4372 33.5605C22.5348 33.5723 22.6169 33.5898 22.6833 33.6133ZM26.9644 40.1172C26.4605 40.1172 26.0093 40.0371 25.6109 39.877C25.2124 39.7168 24.8745 39.4961 24.5972 39.2148C24.3237 38.9297 24.1148 38.6016 23.9702 38.2305C23.8257 37.8594 23.7534 37.4629 23.7534 37.041V36.8184C23.7534 36.3457 23.8198 35.9102 23.9527 35.5117C24.0855 35.1133 24.2788 34.7676 24.5327 34.4746C24.7905 34.1777 25.107 33.9492 25.482 33.7891C25.857 33.625 26.2847 33.543 26.7652 33.543C27.2144 33.543 27.6148 33.6172 27.9663 33.7656C28.3179 33.9102 28.6148 34.1191 28.857 34.3926C29.0991 34.6621 29.2827 34.9883 29.4077 35.3711C29.5366 35.75 29.6011 36.1758 29.6011 36.6484V37.3984H24.4917V36.2207H27.8081V36.0801C27.8081 35.8574 27.7671 35.6621 27.6851 35.4941C27.607 35.3262 27.4898 35.1973 27.3335 35.1074C27.1812 35.0137 26.9878 34.9668 26.7534 34.9668C26.5308 34.9668 26.3452 35.0137 26.1968 35.1074C26.0484 35.2012 25.9292 35.334 25.8394 35.5059C25.7534 35.6738 25.6909 35.8711 25.6519 36.0977C25.6128 36.3203 25.5933 36.5605 25.5933 36.8184V37.041C25.5933 37.2871 25.6265 37.5117 25.6929 37.7148C25.7593 37.918 25.857 38.0918 25.9859 38.2363C26.1148 38.3809 26.271 38.4941 26.4546 38.5762C26.6382 38.6582 26.8472 38.6992 27.0816 38.6992C27.3706 38.6992 27.646 38.6445 27.9077 38.5352C28.1695 38.4219 28.396 38.2461 28.5874 38.0078L29.4429 38.9863C29.314 39.1738 29.1323 39.3555 28.898 39.5312C28.6675 39.7031 28.3902 39.8438 28.0659 39.9531C27.7417 40.0625 27.3745 40.1172 26.9644 40.1172Z" fill="black"/>
<line x1="3" y1="20" x2="27" y2="20" stroke="black" stroke-width="4" stroke-linecap="round"/>
<line x1="3" y1="2" x2="27" y2="2" stroke="black" stroke-width="4" stroke-linecap="round"/>
<line x1="3" y1="11" x2="27" y2="11" stroke="black" stroke-width="4" stroke-linecap="round"/>
</svg>
