<svg width="27" height="28" viewBox="0 0 27 28" fill="none" xmlns="http://www.w3.org/2000/svg">
<path d="M10.1667 7.95455H16.8333V5.56818C16.8333 4.68987 16.5078 3.93999 15.8568 3.31854C15.2057 2.69709 14.4201 2.38636 13.5 2.38636C12.5799 2.38636 11.7943 2.69709 11.1432 3.31854C10.4922 3.93999 10.1667 4.68987 10.1667 5.56818V7.95455ZM21 9.14773V16.3068C21 16.6383 20.8785 16.92 20.6354 17.152C20.3924 17.384 20.0972 17.5 19.75 17.5H7.25C6.90278 17.5 6.60764 17.384 6.36458 17.152C6.12153 16.92 6 16.6383 6 16.3068V9.14773C6 8.81629 6.12153 8.53456 6.36458 8.30256C6.60764 8.07055 6.90278 7.95455 7.25 7.95455H7.66667V5.56818C7.66667 4.04356 8.23958 2.73438 9.38542 1.64063C10.5312 0.546875 11.9028 0 13.5 0C15.0972 0 16.4687 0.546875 17.6146 1.64063C18.7604 2.73438 19.3333 4.04356 19.3333 5.56818V7.95455H19.75C20.0972 7.95455 20.3924 8.07055 20.6354 8.30256C20.8785 8.53456 21 8.81629 21 9.14773Z" fill="black"/>
<path d="M4.22049 25.1387V26H1.70828V25.1387H4.22049ZM2.08768 21.0234V26H0.973418V21.0234H2.08768ZM4.94387 24.1885V24.1167C4.94387 23.8455 4.9826 23.596 5.06008 23.3682C5.13755 23.138 5.25148 22.9386 5.40188 22.77C5.55227 22.6014 5.73684 22.4704 5.95559 22.377C6.17434 22.2812 6.42499 22.2334 6.70754 22.2334C6.99465 22.2334 7.24758 22.2812 7.46633 22.377C7.68736 22.4704 7.87307 22.6014 8.02346 22.77C8.17385 22.9386 8.28778 23.138 8.36525 23.3682C8.44273 23.596 8.48147 23.8455 8.48147 24.1167V24.1885C8.48147 24.4574 8.44273 24.7069 8.36525 24.937C8.28778 25.1649 8.17385 25.3643 8.02346 25.5352C7.87307 25.7038 7.6885 25.8348 7.46975 25.9282C7.251 26.0216 6.99921 26.0684 6.71438 26.0684C6.43182 26.0684 6.18003 26.0216 5.959 25.9282C5.73798 25.8348 5.55227 25.7038 5.40188 25.5352C5.25148 25.3643 5.13755 25.1649 5.06008 24.937C4.9826 24.7069 4.94387 24.4574 4.94387 24.1885ZM6.01369 24.1167V24.1885C6.01369 24.3343 6.02509 24.471 6.04787 24.5986C6.07294 24.7262 6.11281 24.8379 6.1675 24.9336C6.22219 25.0293 6.29397 25.1045 6.38283 25.1592C6.47398 25.2116 6.58449 25.2378 6.71438 25.2378C6.84426 25.2378 6.95363 25.2116 7.0425 25.1592C7.13137 25.1045 7.20315 25.0293 7.25783 24.9336C7.31252 24.8379 7.35126 24.7262 7.37404 24.5986C7.39911 24.471 7.41164 24.3343 7.41164 24.1885V24.1167C7.41164 23.9731 7.39911 23.8387 7.37404 23.7134C7.35126 23.5858 7.31252 23.473 7.25783 23.375C7.20315 23.277 7.13023 23.2007 7.03908 23.146C6.95022 23.0913 6.8397 23.064 6.70754 23.064C6.57994 23.064 6.4717 23.0913 6.38283 23.146C6.29397 23.2007 6.22219 23.277 6.1675 23.375C6.11281 23.473 6.07294 23.5858 6.04787 23.7134C6.02509 23.8387 6.01369 23.9731 6.01369 24.1167ZM10.5003 20.7466V26H9.43043V20.7466H10.5003ZM12.8484 22.3018L11.2385 24.1611L10.3875 25.0156L9.96022 24.2944L10.6506 23.4023L11.5632 22.3018H12.8484ZM11.7205 26L10.678 24.3013L11.4436 23.7031L12.9441 26H11.7205ZM15.5576 25.1182V23.5322C15.5576 23.4206 15.5405 23.3249 15.5063 23.2451C15.4722 23.1654 15.4186 23.1027 15.3457 23.0571C15.2728 23.0116 15.1782 22.9888 15.062 22.9888C14.964 22.9888 14.8786 23.0059 14.8057 23.04C14.735 23.0742 14.6803 23.1232 14.6416 23.187C14.6051 23.2508 14.5869 23.3294 14.5869 23.4229H13.5205C13.5205 23.2565 13.5581 23.1016 13.6333 22.958C13.7085 22.8145 13.8156 22.688 13.9546 22.5786C14.0959 22.4692 14.2645 22.3849 14.4604 22.3257C14.6564 22.2642 14.8763 22.2334 15.1201 22.2334C15.4095 22.2334 15.667 22.2824 15.8926 22.3804C16.1204 22.4761 16.3005 22.6208 16.4326 22.8145C16.5648 23.0059 16.6309 23.2474 16.6309 23.5391V25.0874C16.6309 25.3107 16.6434 25.4862 16.6685 25.6138C16.6958 25.7391 16.7345 25.8485 16.7847 25.9419V26H15.708C15.6579 25.8929 15.6203 25.7607 15.5952 25.6035C15.5701 25.444 15.5576 25.2822 15.5576 25.1182ZM15.6909 23.7441L15.6978 24.332H15.168C15.0495 24.332 14.9469 24.3468 14.8604 24.3765C14.776 24.4061 14.7077 24.4471 14.6553 24.4995C14.6029 24.5496 14.5641 24.6089 14.5391 24.6772C14.5163 24.7433 14.5049 24.8162 14.5049 24.896C14.5049 24.9712 14.5231 25.0396 14.5596 25.1011C14.596 25.1603 14.6462 25.207 14.71 25.2412C14.7738 25.2754 14.8478 25.2925 14.9321 25.2925C15.0711 25.2925 15.1896 25.2651 15.2876 25.2104C15.3879 25.1558 15.4653 25.0897 15.52 25.0122C15.5747 24.9325 15.6021 24.8584 15.6021 24.79L15.8584 25.2344C15.8174 25.3255 15.7673 25.4201 15.708 25.5181C15.6488 25.6138 15.5736 25.7038 15.4824 25.7881C15.3913 25.8701 15.2808 25.9373 15.1509 25.9897C15.0233 26.0422 14.8695 26.0684 14.6895 26.0684C14.457 26.0684 14.2463 26.0216 14.0571 25.9282C13.868 25.8325 13.7165 25.7015 13.6025 25.5352C13.4909 25.3688 13.4351 25.1774 13.4351 24.9609C13.4351 24.7673 13.4704 24.5952 13.541 24.4448C13.6117 24.2944 13.7176 24.1668 13.8589 24.062C14.0024 23.9572 14.1825 23.8786 14.3989 23.8262C14.6154 23.7715 14.8683 23.7441 15.1577 23.7441H15.6909ZM18.8411 20.75V26H17.7712V20.75H18.8411ZM21.7383 26.0684C21.4443 26.0684 21.1811 26.0216 20.9487 25.9282C20.7163 25.8348 20.5192 25.7061 20.3574 25.542C20.1979 25.3757 20.076 25.1842 19.9917 24.9678C19.9074 24.7513 19.8652 24.52 19.8652 24.2739V24.144C19.8652 23.8683 19.904 23.6143 19.9814 23.3818C20.0589 23.1494 20.1717 22.9478 20.3198 22.7769C20.4702 22.6037 20.6548 22.4704 20.8735 22.377C21.0923 22.2812 21.3418 22.2334 21.6221 22.2334C21.8841 22.2334 22.1177 22.2767 22.3227 22.3633C22.5278 22.4476 22.701 22.5695 22.8423 22.729C22.9835 22.8862 23.0906 23.0765 23.1636 23.2998C23.2388 23.5208 23.2763 23.7692 23.2763 24.0449V24.4824H20.2959V23.7954H22.2304V23.7134C22.2304 23.5835 22.2065 23.4696 22.1587 23.3716C22.1131 23.2736 22.0447 23.1984 21.9536 23.146C21.8647 23.0913 21.7519 23.064 21.6152 23.064C21.4853 23.064 21.3771 23.0913 21.2905 23.146C21.2039 23.2007 21.1344 23.2782 21.082 23.3784C21.0319 23.4764 20.9954 23.5915 20.9726 23.7236C20.9499 23.8535 20.9385 23.9937 20.9385 24.144V24.2739C20.9385 24.4175 20.9578 24.5485 20.9966 24.667C21.0353 24.7855 21.0923 24.8869 21.1675 24.9712C21.2427 25.0555 21.3338 25.1216 21.4409 25.1694C21.548 25.2173 21.6699 25.2412 21.8066 25.2412C21.9752 25.2412 22.1359 25.2093 22.2886 25.1455C22.4412 25.0794 22.5734 24.9769 22.685 24.8379L23.1841 25.4087C23.1089 25.5181 23.0029 25.624 22.8662 25.7266C22.7318 25.8268 22.57 25.9089 22.3808 25.9727C22.1917 26.0365 21.9775 26.0684 21.7383 26.0684ZM25.2507 23.1631V26H24.1843V22.3018H25.1858L25.2507 23.1631ZM26.3547 22.2744L26.3376 23.269C26.292 23.2622 26.2328 23.2565 26.1599 23.252C26.087 23.2451 26.0243 23.2417 25.9719 23.2417C25.8352 23.2417 25.7167 23.2588 25.6164 23.293C25.5184 23.3249 25.4364 23.3727 25.3703 23.4365C25.3065 23.5003 25.2587 23.5801 25.2268 23.6758C25.1949 23.7692 25.1789 23.8774 25.1789 24.0005L24.9773 23.9014C24.9773 23.6576 25.0012 23.4342 25.049 23.2314C25.0969 23.0286 25.1664 22.8532 25.2575 22.7051C25.3487 22.5547 25.4603 22.4385 25.5925 22.3564C25.7247 22.2744 25.8751 22.2334 26.0437 22.2334C26.0984 22.2334 26.1542 22.2368 26.2112 22.2437C26.2681 22.2505 26.316 22.2607 26.3547 22.2744Z" fill="black"/>
</svg>
