<svg width="77" height="78" viewBox="0 0 77 78" fill="none" xmlns="http://www.w3.org/2000/svg">
<path d="M28.6399 74C22.9337 72.2018 17.7658 68.875 13.6393 64.3433C14.967 62.6813 15.7946 60.639 16.0163 58.4777C16.238 56.3164 15.8437 54.1344 14.8838 52.211C13.9239 50.2876 12.4421 48.7102 10.6279 47.6807C8.81383 46.6511 6.74994 46.2163 4.70035 46.4319C4.23343 44.0179 3.99878 41.5603 4 39.0965C4 35.2914 4.552 31.6209 5.5801 28.1726H5.725C7.48408 28.1732 9.21428 27.7006 10.7522 26.7994C12.2902 25.8982 13.5851 24.5982 14.5148 23.022C15.4445 21.4459 15.9782 19.6457 16.0655 17.7914C16.1529 15.937 15.7911 14.0898 15.0141 12.4241C19.0585 8.44932 23.9497 5.55997 29.2747 4C30.1413 5.79588 31.4617 7.30373 33.0899 8.35671C34.7181 9.40968 36.5905 9.96674 38.5 9.96624C40.4095 9.96674 42.2819 9.40968 43.9101 8.35671C45.5383 7.30373 46.8587 5.79588 47.7253 4C53.0503 5.55997 57.9415 8.44932 61.9859 12.4241C61.2033 14.1015 60.8417 15.9628 60.9357 17.8299C61.0298 19.6969 61.5763 21.5073 62.523 23.0876C63.4697 24.668 64.7849 25.9654 66.3426 26.8558C67.9004 27.7461 69.6486 28.1995 71.4199 28.1726C72.4703 31.7078 73.0032 35.3916 73 39.0965C73 41.609 72.7585 44.0632 72.2996 46.4319C70.2501 46.2163 68.1862 46.6511 66.372 47.6807C64.5579 48.7102 63.0761 50.2876 62.1162 52.211C61.1563 54.1344 60.762 56.3164 60.9837 58.4777C61.2054 60.639 62.033 62.6813 63.3607 64.3433C59.2342 68.875 54.0663 72.2018 48.3601 74C47.69 71.7957 46.3741 69.873 44.6021 68.5088C42.83 67.1447 40.6933 66.4096 38.5 66.4096C36.3067 66.4096 34.17 67.1447 32.3979 68.5088C30.6259 69.873 29.31 71.7957 28.6399 74Z" stroke="white" stroke-width="8" stroke-linejoin="round"/>
<path d="M38.4998 51.841C40.0855 51.841 41.6557 51.5114 43.1207 50.8709C44.5857 50.2304 45.9168 49.2917 47.0381 48.1082C48.1594 46.9248 49.0488 45.5199 49.6556 43.9736C50.2625 42.4274 50.5748 40.7702 50.5748 39.0965C50.5748 37.4229 50.2625 35.7657 49.6556 34.2194C49.0488 32.6732 48.1594 31.2683 47.0381 30.0848C45.9168 28.9014 44.5857 27.9626 43.1207 27.3222C41.6557 26.6817 40.0855 26.3521 38.4998 26.3521C35.2973 26.3521 32.226 27.6948 29.9615 30.0848C27.697 32.4749 26.4248 35.7165 26.4248 39.0965C26.4248 42.4766 27.697 45.7182 29.9615 48.1082C32.226 50.4983 35.2973 51.841 38.4998 51.841V51.841Z" stroke="white" stroke-width="8" stroke-linejoin="round"/>
</svg>
