<svg width="129" height="28" viewBox="0 0 129 28" fill="none" xmlns="http://www.w3.org/2000/svg">
<g filter="url(#filter0_d_241_825)">
<path d="M7.56055 0.78125V15H4.38672V0.78125H7.56055ZM14.0609 6.68945V15H11.0043V4.43359H13.8754L14.0609 6.68945ZM13.6605 9.3457L12.8988 9.36523C12.8988 8.57096 12.9965 7.85807 13.1918 7.22656C13.3871 6.59505 13.6638 6.05794 14.0219 5.61523C14.3865 5.16602 14.8194 4.82422 15.3207 4.58984C15.8285 4.35547 16.3884 4.23828 17.0004 4.23828C17.4952 4.23828 17.9477 4.3099 18.3578 4.45312C18.768 4.59635 19.1195 4.82747 19.4125 5.14648C19.712 5.45898 19.9398 5.87565 20.0961 6.39648C20.2523 6.91081 20.3305 7.54557 20.3305 8.30078V15H17.2641V8.29102C17.2641 7.84831 17.2022 7.50651 17.0785 7.26562C16.9548 7.02474 16.7725 6.85547 16.5316 6.75781C16.2973 6.66016 16.0108 6.61133 15.6723 6.61133C15.3142 6.61133 15.0082 6.68294 14.7543 6.82617C14.5004 6.96289 14.2921 7.15495 14.1293 7.40234C13.9665 7.64974 13.8461 7.93945 13.768 8.27148C13.6964 8.60352 13.6605 8.96159 13.6605 9.3457ZM29.575 12.6367V0H32.6414V15H29.8875L29.575 12.6367ZM22.993 9.84375V9.63867C22.993 8.83789 23.0809 8.10872 23.2566 7.45117C23.4389 6.78711 23.7026 6.21745 24.0477 5.74219C24.3992 5.26042 24.8322 4.88932 25.3465 4.62891C25.8608 4.36849 26.45 4.23828 27.1141 4.23828C27.726 4.23828 28.2599 4.375 28.7156 4.64844C29.1714 4.91536 29.5587 5.29297 29.8777 5.78125C30.2033 6.26302 30.4669 6.83268 30.6688 7.49023C30.8706 8.14128 31.0236 8.84766 31.1277 9.60938V9.96094C31.0301 10.6901 30.8771 11.3704 30.6688 12.002C30.4669 12.6335 30.2033 13.1901 29.8777 13.6719C29.5587 14.1471 29.1681 14.5215 28.7059 14.7949C28.2501 15.0618 27.713 15.1953 27.0945 15.1953C26.4305 15.1953 25.8413 15.0618 25.327 14.7949C24.8191 14.528 24.3927 14.1536 24.0477 13.6719C23.7026 13.1901 23.4389 12.6237 23.2566 11.9727C23.0809 11.3216 22.993 10.612 22.993 9.84375ZM26.0398 9.63867V9.84375C26.0398 10.2604 26.0691 10.6478 26.1277 11.0059C26.1928 11.3639 26.297 11.6797 26.4402 11.9531C26.5835 12.2266 26.7723 12.4414 27.0066 12.5977C27.241 12.7474 27.5275 12.8223 27.866 12.8223C28.3217 12.8223 28.6961 12.7181 28.9891 12.5098C29.282 12.2949 29.5034 11.9987 29.6531 11.6211C29.8029 11.2435 29.881 10.804 29.8875 10.3027V9.27734C29.8875 8.86068 29.8452 8.48633 29.7605 8.1543C29.6759 7.82227 29.549 7.54232 29.3797 7.31445C29.2169 7.08659 29.0118 6.91406 28.7645 6.79688C28.5171 6.67318 28.2241 6.61133 27.8855 6.61133C27.5535 6.61133 27.2703 6.68945 27.0359 6.8457C26.8016 6.99544 26.6095 7.20703 26.4598 7.48047C26.3165 7.75391 26.2091 8.07617 26.1375 8.44727C26.0724 8.81185 26.0398 9.20898 26.0398 9.63867ZM41.3977 12.0605C41.3977 11.8652 41.3358 11.6927 41.2121 11.543C41.0949 11.3932 40.8801 11.2565 40.5676 11.1328C40.2616 11.0091 39.8286 10.8854 39.2687 10.7617C38.7414 10.651 38.2499 10.5078 37.7941 10.332C37.3384 10.1497 36.9413 9.93164 36.6027 9.67773C36.2642 9.41732 36.0005 9.11133 35.8117 8.75977C35.6229 8.40169 35.5285 7.99479 35.5285 7.53906C35.5285 7.09635 35.6229 6.67643 35.8117 6.2793C36.007 5.88216 36.287 5.5306 36.6516 5.22461C37.0227 4.91862 37.4719 4.67773 37.9992 4.50195C38.5331 4.32617 39.1385 4.23828 39.8156 4.23828C40.7466 4.23828 41.5507 4.38477 42.2277 4.67773C42.9048 4.96419 43.4257 5.36784 43.7902 5.88867C44.1548 6.40299 44.3371 6.99219 44.3371 7.65625H41.2902C41.2902 7.38281 41.2382 7.14518 41.134 6.94336C41.0298 6.74154 40.8703 6.58529 40.6555 6.47461C40.4406 6.35742 40.1574 6.29883 39.8059 6.29883C39.5324 6.29883 39.2915 6.34766 39.0832 6.44531C38.8814 6.53646 38.7219 6.66341 38.6047 6.82617C38.494 6.98893 38.4387 7.17773 38.4387 7.39258C38.4387 7.54232 38.4712 7.67904 38.5363 7.80273C38.6079 7.91992 38.7154 8.0306 38.8586 8.13477C39.0083 8.23242 39.2004 8.32031 39.4348 8.39844C39.6757 8.47656 39.9686 8.55143 40.3137 8.62305C41.0493 8.75977 41.7199 8.95182 42.3254 9.19922C42.9374 9.44661 43.4257 9.78841 43.7902 10.2246C44.1613 10.6608 44.3469 11.237 44.3469 11.9531C44.3469 12.4219 44.2395 12.8516 44.0246 13.2422C43.8163 13.6328 43.5135 13.9746 43.1164 14.2676C42.7193 14.5605 42.244 14.7884 41.6906 14.9512C41.1372 15.1139 40.5122 15.1953 39.8156 15.1953C38.8195 15.1953 37.9764 15.0163 37.2863 14.6582C36.5962 14.3001 36.0754 13.8509 35.7238 13.3105C35.3788 12.7637 35.2062 12.2038 35.2062 11.6309H38.0676C38.0806 11.9824 38.1685 12.2689 38.3312 12.4902C38.5005 12.7116 38.7186 12.8743 38.9855 12.9785C39.2525 13.0762 39.552 13.125 39.884 13.125C40.216 13.125 40.4927 13.0794 40.7141 12.9883C40.9354 12.8971 41.1047 12.7734 41.2219 12.6172C41.3391 12.4544 41.3977 12.2689 41.3977 12.0605ZM52.5172 4.43359V6.57227H46.2477V4.43359H52.5172ZM47.6832 1.81641H50.7398V11.6895C50.7398 11.9824 50.7757 12.207 50.8473 12.3633C50.9189 12.5195 51.0361 12.6302 51.1988 12.6953C51.3616 12.7539 51.5699 12.7832 51.8238 12.7832C52.0061 12.7832 52.1624 12.7767 52.2926 12.7637C52.4228 12.7507 52.5432 12.7344 52.6539 12.7148V14.9219C52.3935 15.0065 52.1168 15.0716 51.8238 15.1172C51.5309 15.1693 51.2119 15.1953 50.8668 15.1953C50.2092 15.1953 49.6396 15.0879 49.1578 14.873C48.6826 14.6582 48.318 14.3197 48.0641 13.8574C47.8102 13.3887 47.6832 12.7799 47.6832 12.0312V1.81641ZM58.2949 4.43359V15H55.2383V4.43359H58.2949ZM55.0527 1.69922C55.0527 1.25651 55.209 0.895182 55.5215 0.615234C55.834 0.328776 56.2441 0.185547 56.752 0.185547C57.2598 0.185547 57.6699 0.328776 57.9824 0.615234C58.3014 0.895182 58.4609 1.25651 58.4609 1.69922C58.4609 2.13542 58.3014 2.49674 57.9824 2.7832C57.6699 3.06315 57.2598 3.20312 56.752 3.20312C56.2441 3.20312 55.834 3.06315 55.5215 2.7832C55.209 2.49674 55.0527 2.13542 55.0527 1.69922ZM64.8051 0V15H61.7484V0H64.8051ZM71.3152 0V15H68.2586V0H71.3152ZM77.8254 4.43359V15H74.7688V4.43359H77.8254ZM74.5832 1.69922C74.5832 1.25651 74.7395 0.895182 75.052 0.615234C75.3645 0.328776 75.7746 0.185547 76.2824 0.185547C76.7902 0.185547 77.2004 0.328776 77.5129 0.615234C77.8319 0.895182 77.9914 1.25651 77.9914 1.69922C77.9914 2.13542 77.8319 2.49674 77.5129 2.7832C77.2004 3.06315 76.7902 3.20312 76.2824 3.20312C75.7746 3.20312 75.3645 3.06315 75.052 2.7832C74.7395 2.49674 74.5832 2.13542 74.5832 1.69922ZM84.1109 6.68945V15H81.0543V4.43359H83.9254L84.1109 6.68945ZM83.7105 9.3457L82.9488 9.36523C82.9488 8.57096 83.0465 7.85807 83.2418 7.22656C83.4371 6.59505 83.7138 6.05794 84.0719 5.61523C84.4365 5.16602 84.8694 4.82422 85.3707 4.58984C85.8785 4.35547 86.4384 4.23828 87.0504 4.23828C87.5452 4.23828 87.9977 4.3099 88.4078 4.45312C88.818 4.59635 89.1695 4.82747 89.4625 5.14648C89.762 5.45898 89.9898 5.87565 90.1461 6.39648C90.3023 6.91081 90.3805 7.54557 90.3805 8.30078V15H87.3141V8.29102C87.3141 7.84831 87.2522 7.50651 87.1285 7.26562C87.0048 7.02474 86.8225 6.85547 86.5816 6.75781C86.3473 6.66016 86.0608 6.61133 85.7223 6.61133C85.3642 6.61133 85.0582 6.68294 84.8043 6.82617C84.5504 6.96289 84.3421 7.15495 84.1793 7.40234C84.0165 7.64974 83.8961 7.93945 83.818 8.27148C83.7464 8.60352 83.7105 8.96159 83.7105 9.3457ZM100.133 4.43359H102.906V14.6191C102.906 15.5892 102.685 16.4128 102.242 17.0898C101.806 17.7669 101.197 18.2812 100.416 18.6328C99.6348 18.9844 98.7201 19.1602 97.6719 19.1602C97.2161 19.1602 96.7409 19.0983 96.2461 18.9746C95.7513 18.8574 95.2858 18.6784 94.8496 18.4375C94.4134 18.2031 94.0488 17.9036 93.7559 17.5391L95.0547 15.7422C95.3542 16.0807 95.7122 16.3542 96.1289 16.5625C96.5456 16.7773 97.0208 16.8848 97.5547 16.8848C98.043 16.8848 98.4564 16.7969 98.7949 16.6211C99.1335 16.4453 99.3906 16.1882 99.5664 15.8496C99.7487 15.5111 99.8398 15.1009 99.8398 14.6191V6.9043L100.133 4.43359ZM93.0723 9.84375V9.63867C93.0723 8.83789 93.1699 8.10872 93.3652 7.45117C93.5605 6.78711 93.8438 6.21745 94.2148 5.74219C94.5924 5.26042 95.0449 4.88932 95.5723 4.62891C96.1061 4.36849 96.7051 4.23828 97.3691 4.23828C98.0853 4.23828 98.6777 4.375 99.1465 4.64844C99.6152 4.91536 99.9961 5.29297 100.289 5.78125C100.582 6.26302 100.813 6.83268 100.982 7.49023C101.152 8.14128 101.288 8.84766 101.393 9.60938V9.96094C101.288 10.6901 101.139 11.3704 100.943 12.002C100.748 12.6335 100.494 13.1901 100.182 13.6719C99.8691 14.1471 99.4785 14.5215 99.0098 14.7949C98.5475 15.0618 97.9941 15.1953 97.3496 15.1953C96.6921 15.1953 96.0996 15.0618 95.5723 14.7949C95.0449 14.528 94.5924 14.1536 94.2148 13.6719C93.8438 13.1901 93.5605 12.6237 93.3652 11.9727C93.1699 11.3216 93.0723 10.612 93.0723 9.84375ZM96.1191 9.63867V9.84375C96.1191 10.2604 96.1582 10.6478 96.2363 11.0059C96.321 11.3639 96.4447 11.6797 96.6074 11.9531C96.7767 12.2266 96.985 12.4414 97.2324 12.5977C97.4863 12.7474 97.7826 12.8223 98.1211 12.8223C98.6159 12.8223 99.0163 12.7181 99.3223 12.5098C99.6348 12.2949 99.8626 11.9987 100.006 11.6211C100.156 11.2435 100.234 10.804 100.24 10.3027V9.27734C100.24 8.86068 100.198 8.48633 100.113 8.1543C100.029 7.82227 99.9017 7.54232 99.7324 7.31445C99.5697 7.08659 99.3548 6.91406 99.0879 6.79688C98.8275 6.67318 98.5117 6.61133 98.1406 6.61133C97.8086 6.61133 97.5156 6.68945 97.2617 6.8457C97.0078 6.99544 96.7962 7.20703 96.627 7.48047C96.4577 7.75391 96.3307 8.07617 96.2461 8.44727C96.1615 8.81185 96.1191 9.20898 96.1191 9.63867ZM111.018 15.1953C110.178 15.1953 109.426 15.0618 108.762 14.7949C108.098 14.528 107.535 14.1602 107.073 13.6914C106.617 13.2161 106.269 12.6693 106.028 12.0508C105.787 11.4323 105.666 10.7715 105.666 10.0684V9.69727C105.666 8.90951 105.777 8.18359 105.998 7.51953C106.22 6.85547 106.542 6.2793 106.965 5.79102C107.395 5.29622 107.922 4.91536 108.547 4.64844C109.172 4.375 109.885 4.23828 110.686 4.23828C111.435 4.23828 112.102 4.36198 112.688 4.60938C113.274 4.85026 113.769 5.19857 114.172 5.6543C114.576 6.10352 114.882 6.64714 115.09 7.28516C115.305 7.91667 115.412 8.6263 115.412 9.41406V10.6641H106.897V8.70117H112.424V8.4668C112.424 8.0957 112.356 7.77018 112.219 7.49023C112.089 7.21029 111.894 6.99544 111.633 6.8457C111.379 6.68945 111.057 6.61133 110.666 6.61133C110.295 6.61133 109.986 6.68945 109.739 6.8457C109.491 7.00195 109.293 7.22331 109.143 7.50977C109 7.78971 108.896 8.11849 108.83 8.49609C108.765 8.86719 108.733 9.26758 108.733 9.69727V10.0684C108.733 10.4785 108.788 10.8529 108.899 11.1914C109.01 11.5299 109.172 11.8197 109.387 12.0605C109.602 12.3014 109.862 12.4902 110.168 12.627C110.474 12.7637 110.823 12.832 111.213 12.832C111.695 12.832 112.154 12.7409 112.59 12.5586C113.026 12.3698 113.404 12.0768 113.723 11.6797L115.149 13.3105C114.934 13.623 114.631 13.9258 114.241 14.2188C113.857 14.5052 113.394 14.7396 112.854 14.9219C112.314 15.1042 111.702 15.1953 111.018 15.1953ZM121.054 6.89453V15H118.007V4.43359H120.868L121.054 6.89453ZM124.208 4.35547L124.159 7.19727C124.029 7.17773 123.86 7.16146 123.651 7.14844C123.443 7.12891 123.264 7.11914 123.114 7.11914C122.723 7.11914 122.385 7.16797 122.098 7.26562C121.818 7.35677 121.584 7.49349 121.395 7.67578C121.213 7.85807 121.076 8.08594 120.985 8.35938C120.894 8.6263 120.848 8.93555 120.848 9.28711L120.272 9.00391C120.272 8.30729 120.341 7.66927 120.477 7.08984C120.614 6.51042 120.813 6.00911 121.073 5.58594C121.333 5.15625 121.652 4.82422 122.03 4.58984C122.408 4.35547 122.837 4.23828 123.319 4.23828C123.475 4.23828 123.635 4.24805 123.798 4.26758C123.96 4.28711 124.097 4.31641 124.208 4.35547Z" fill="white"/>
</g>
<defs>
<filter id="filter0_d_241_825" x="0.386719" y="0" width="127.821" height="27.1602" filterUnits="userSpaceOnUse" color-interpolation-filters="sRGB">
<feFlood flood-opacity="0" result="BackgroundImageFix"/>
<feColorMatrix in="SourceAlpha" type="matrix" values="0 0 0 0 0 0 0 0 0 0 0 0 0 0 0 0 0 0 127 0" result="hardAlpha"/>
<feOffset dy="4"/>
<feGaussianBlur stdDeviation="2"/>
<feComposite in2="hardAlpha" operator="out"/>
<feColorMatrix type="matrix" values="0 0 0 0 0 0 0 0 0 0 0 0 0 0 0 0 0 0 0.25 0"/>
<feBlend mode="normal" in2="BackgroundImageFix" result="effect1_dropShadow_241_825"/>
<feBlend mode="normal" in="SourceGraphic" in2="effect1_dropShadow_241_825" result="shape"/>
</filter>
</defs>
</svg>
