<svg width="185" height="190" viewBox="0 0 185 190" fill="none" xmlns="http://www.w3.org/2000/svg">
<circle cx="91.5" cy="112.5" r="77.5" fill="#03266A" fill-opacity="0.49"/>
<g filter="url(#filter0_d_270_869)">
<path d="M63.1185 11.6343L65.4915 3.33594H68.1502L64.4954 14H62.7596L63.1185 11.6343ZM60.9578 3.33594L63.3235 11.6343L63.6971 14H61.9393L58.3064 3.33594H60.9578ZM72.1539 6.0752V14H69.8614V6.0752H72.1539ZM69.7223 4.02441C69.7223 3.69238 69.8395 3.42139 70.0738 3.21143C70.3082 2.99658 70.6158 2.88916 70.9967 2.88916C71.3775 2.88916 71.6852 2.99658 71.9195 3.21143C72.1588 3.42139 72.2784 3.69238 72.2784 4.02441C72.2784 4.35156 72.1588 4.62256 71.9195 4.8374C71.6852 5.04736 71.3775 5.15234 70.9967 5.15234C70.6158 5.15234 70.3082 5.04736 70.0738 4.8374C69.8395 4.62256 69.7223 4.35156 69.7223 4.02441ZM74.6342 2.75H76.9193V12.1177L76.685 14H74.6342V2.75ZM81.8632 9.94971V10.1035C81.8632 10.7041 81.7997 11.251 81.6728 11.7441C81.5507 12.2373 81.3627 12.6646 81.1088 13.0259C80.8549 13.3823 80.5351 13.6582 80.1493 13.8535C79.7636 14.0488 79.3095 14.1465 78.787 14.1465C78.3036 14.1465 77.8886 14.0464 77.5419 13.8462C77.1952 13.6411 76.9047 13.3579 76.6703 12.9966C76.4359 12.6353 76.2455 12.2129 76.099 11.7295C75.9574 11.2461 75.8476 10.7261 75.7694 10.1694V9.90576C75.8476 9.34912 75.9574 8.8291 76.099 8.3457C76.2455 7.8623 76.4359 7.43994 76.6703 7.07861C76.9047 6.71729 77.1928 6.43652 77.5346 6.23633C77.8812 6.03125 78.2938 5.92871 78.7724 5.92871C79.2997 5.92871 79.7562 6.02881 80.142 6.229C80.5326 6.4292 80.8549 6.70996 81.1088 7.07129C81.3627 7.42773 81.5507 7.85254 81.6728 8.3457C81.7997 8.83398 81.8632 9.36865 81.8632 9.94971ZM79.578 10.1035V9.94971C79.578 9.64697 79.5561 9.36133 79.5121 9.09277C79.473 8.82422 79.4022 8.5874 79.2997 8.38232C79.202 8.17236 79.0629 8.00879 78.8822 7.8916C78.7064 7.76953 78.4794 7.7085 78.2011 7.7085C77.9276 7.7085 77.6957 7.75488 77.5053 7.84766C77.3148 7.94043 77.161 8.07227 77.0438 8.24316C76.9267 8.40918 76.8412 8.61182 76.7875 8.85107C76.7338 9.09033 76.7045 9.35645 76.6996 9.64941V10.4258C76.7045 10.8164 76.7558 11.1582 76.8534 11.4512C76.9511 11.7441 77.1098 11.9712 77.3295 12.1323C77.5492 12.2886 77.8446 12.3667 78.2157 12.3667C78.4989 12.3667 78.7284 12.313 78.9042 12.2056C79.0849 12.0933 79.2216 11.937 79.3144 11.7368C79.412 11.5366 79.4804 11.2974 79.5194 11.019C79.5585 10.7407 79.578 10.4355 79.578 10.1035ZM86.1965 7.9209V14H83.9113V6.0752H86.0573L86.1965 7.9209ZM88.5622 6.0166L88.5256 8.14795C88.4279 8.1333 88.301 8.12109 88.1447 8.11133C87.9885 8.09668 87.8542 8.08936 87.7419 8.08936C87.4489 8.08936 87.195 8.12598 86.9802 8.19922C86.7702 8.26758 86.5944 8.37012 86.4528 8.50684C86.3161 8.64355 86.2136 8.81445 86.1452 9.01953C86.0769 9.21973 86.0427 9.45166 86.0427 9.71533L85.6105 9.50293C85.6105 8.98047 85.6618 8.50195 85.7644 8.06738C85.8669 7.63281 86.0158 7.25684 86.2111 6.93945C86.4064 6.61719 86.6457 6.36816 86.9289 6.19238C87.2121 6.0166 87.5344 5.92871 87.8957 5.92871C88.0129 5.92871 88.1325 5.93604 88.2546 5.95068C88.3767 5.96533 88.4792 5.9873 88.5622 6.0166ZM94.2871 12.1104V8.71191C94.2871 8.47266 94.2505 8.26758 94.1772 8.09668C94.104 7.92578 93.9893 7.7915 93.833 7.69385C93.6768 7.59619 93.4741 7.54736 93.2251 7.54736C93.0151 7.54736 92.832 7.58398 92.6758 7.65723C92.5244 7.73047 92.4072 7.83545 92.3242 7.97217C92.2461 8.10889 92.207 8.27734 92.207 8.47754H89.9219C89.9219 8.12109 90.0024 7.78906 90.1636 7.48145C90.3247 7.17383 90.5542 6.90283 90.8521 6.66846C91.1548 6.43408 91.5161 6.25342 91.936 6.12646C92.356 5.99463 92.8271 5.92871 93.3496 5.92871C93.9697 5.92871 94.5215 6.03369 95.0049 6.24365C95.4932 6.44873 95.8789 6.75879 96.1621 7.17383C96.4453 7.58398 96.5869 8.10156 96.5869 8.72656V12.0444C96.5869 12.5229 96.6138 12.8989 96.6675 13.1724C96.7261 13.4409 96.8091 13.6753 96.9165 13.8755V14H94.6094C94.502 13.7705 94.4214 13.4873 94.3677 13.1504C94.314 12.8086 94.2871 12.4619 94.2871 12.1104ZM94.5728 9.16602L94.5874 10.4258H93.4521C93.1982 10.4258 92.9785 10.4575 92.793 10.521C92.6123 10.5845 92.4658 10.6724 92.3535 10.7847C92.2412 10.8921 92.1582 11.019 92.1045 11.1655C92.0557 11.3071 92.0312 11.4634 92.0312 11.6343C92.0312 11.7954 92.0703 11.9419 92.1484 12.0737C92.2266 12.2007 92.334 12.3008 92.4707 12.374C92.6074 12.4473 92.7661 12.4839 92.9468 12.4839C93.2446 12.4839 93.4985 12.4253 93.7085 12.3081C93.9233 12.1909 94.0894 12.0493 94.2065 11.8833C94.3237 11.7124 94.3823 11.5537 94.3823 11.4072L94.9316 12.3594C94.8438 12.5547 94.7363 12.7573 94.6094 12.9673C94.4824 13.1724 94.3213 13.3652 94.126 13.5459C93.9307 13.7217 93.6938 13.8657 93.4155 13.978C93.1421 14.0903 92.8125 14.1465 92.4268 14.1465C91.9287 14.1465 91.4771 14.0464 91.0718 13.8462C90.6665 13.6411 90.3418 13.3604 90.0977 13.0039C89.8584 12.6475 89.7388 12.2373 89.7388 11.7734C89.7388 11.3584 89.8145 10.9897 89.9658 10.6675C90.1172 10.3452 90.3442 10.0718 90.647 9.84717C90.9546 9.62256 91.3403 9.4541 91.8042 9.3418C92.2681 9.22461 92.8101 9.16602 93.4302 9.16602H94.5728ZM102.942 6.0752V7.6792H98.2395V6.0752H102.942ZM99.3162 4.1123H101.609V11.5171C101.609 11.7368 101.636 11.9053 101.689 12.0225C101.743 12.1396 101.831 12.2227 101.953 12.2715C102.075 12.3154 102.231 12.3374 102.422 12.3374C102.558 12.3374 102.676 12.3325 102.773 12.3228C102.871 12.313 102.961 12.3008 103.044 12.2861V13.9414C102.849 14.0049 102.641 14.0537 102.422 14.0879C102.202 14.127 101.963 14.1465 101.704 14.1465C101.211 14.1465 100.783 14.0659 100.422 13.9048C100.066 13.7437 99.7923 13.4897 99.6019 13.1431C99.4114 12.7915 99.3162 12.335 99.3162 11.7734V4.1123ZM107.275 6.0752V14H104.983V6.0752H107.275ZM104.843 4.02441C104.843 3.69238 104.961 3.42139 105.195 3.21143C105.429 2.99658 105.737 2.88916 106.118 2.88916C106.499 2.88916 106.806 2.99658 107.041 3.21143C107.28 3.42139 107.4 3.69238 107.4 4.02441C107.4 4.35156 107.28 4.62256 107.041 4.8374C106.806 5.04736 106.499 5.15234 106.118 5.15234C105.737 5.15234 105.429 5.04736 105.195 4.8374C104.961 4.62256 104.843 4.35156 104.843 4.02441ZM109.418 10.1182V9.96436C109.418 9.3833 109.501 8.84863 109.667 8.36035C109.833 7.86719 110.078 7.43994 110.4 7.07861C110.722 6.71729 111.118 6.43652 111.586 6.23633C112.055 6.03125 112.592 5.92871 113.198 5.92871C113.813 5.92871 114.355 6.03125 114.824 6.23633C115.297 6.43652 115.695 6.71729 116.017 7.07861C116.34 7.43994 116.584 7.86719 116.75 8.36035C116.916 8.84863 116.999 9.3833 116.999 9.96436V10.1182C116.999 10.6943 116.916 11.229 116.75 11.7222C116.584 12.2104 116.34 12.6377 116.017 13.0039C115.695 13.3652 115.3 13.646 114.831 13.8462C114.362 14.0464 113.823 14.1465 113.212 14.1465C112.607 14.1465 112.067 14.0464 111.594 13.8462C111.12 13.646 110.722 13.3652 110.4 13.0039C110.078 12.6377 109.833 12.2104 109.667 11.7222C109.501 11.229 109.418 10.6943 109.418 10.1182ZM111.711 9.96436V10.1182C111.711 10.4307 111.735 10.7236 111.784 10.9971C111.838 11.2705 111.923 11.5098 112.04 11.7148C112.158 11.9199 112.311 12.0811 112.502 12.1982C112.697 12.3105 112.934 12.3667 113.212 12.3667C113.491 12.3667 113.725 12.3105 113.915 12.1982C114.106 12.0811 114.26 11.9199 114.377 11.7148C114.494 11.5098 114.577 11.2705 114.626 10.9971C114.68 10.7236 114.706 10.4307 114.706 10.1182V9.96436C114.706 9.65674 114.68 9.36865 114.626 9.1001C114.577 8.82666 114.494 8.58496 114.377 8.375C114.26 8.16504 114.103 8.00146 113.908 7.88428C113.718 7.76709 113.481 7.7085 113.198 7.7085C112.924 7.7085 112.692 7.76709 112.502 7.88428C112.311 8.00146 112.158 8.16504 112.04 8.375C111.923 8.58496 111.838 8.82666 111.784 9.1001C111.735 9.36865 111.711 9.65674 111.711 9.96436ZM121.266 7.76709V14H118.974V6.0752H121.127L121.266 7.76709ZM120.966 9.75928L120.395 9.77393C120.395 9.17822 120.468 8.64355 120.614 8.16992C120.761 7.69629 120.968 7.29346 121.237 6.96143C121.51 6.62451 121.835 6.36816 122.211 6.19238C122.592 6.0166 123.012 5.92871 123.471 5.92871C123.842 5.92871 124.181 5.98242 124.489 6.08984C124.797 6.19727 125.06 6.37061 125.28 6.60986C125.505 6.84424 125.675 7.15674 125.793 7.54736C125.91 7.93311 125.968 8.40918 125.968 8.97559V14H123.669V8.96826C123.669 8.63623 123.622 8.37988 123.529 8.19922C123.437 8.01855 123.3 7.8916 123.119 7.81836C122.944 7.74512 122.729 7.7085 122.475 7.7085C122.206 7.7085 121.977 7.76221 121.786 7.86963C121.596 7.97217 121.44 8.11621 121.318 8.30176C121.196 8.4873 121.105 8.70459 121.047 8.95361C120.993 9.20264 120.966 9.47119 120.966 9.75928Z" fill="white"/>
</g>
<path d="M76.1449 134.381C79.0904 134.381 81.4782 131.994 81.4782 129.048C81.4782 126.102 79.0904 123.715 76.1449 123.715C73.1993 123.715 70.8115 126.102 70.8115 129.048C70.8115 131.994 73.1993 134.381 76.1449 134.381Z" fill="white"/>
<path d="M111.916 164.819L104.375 157.277L136.375 125.277L143.916 132.824L111.916 164.819ZM72.3745 61.2773L79.9158 68.8186L47.9158 100.819L40.3745 93.2719L72.3745 61.2773Z" fill="white"/>
<path d="M110.998 64.024C106.966 59.992 99.9475 59.992 95.9155 64.024L43.1208 116.819C41.1225 118.82 40 121.532 40 124.36C40 127.188 41.1225 129.9 43.1208 131.901L73.2915 162.072C75.3075 164.088 77.9848 165.197 80.8328 165.197C83.6808 165.197 86.3582 164.088 88.3742 162.072L141.169 109.277C143.185 107.261 144.294 104.584 144.294 101.736C144.294 98.888 143.185 96.2107 141.169 94.1947L110.998 64.024ZM80.8328 154.531L50.6622 124.36L103.457 71.5653L133.628 101.736L80.8328 154.531Z" fill="white"/>
<defs>
<filter id="filter0_d_270_869" x="54.3066" y="2.75" width="75.6616" height="19.3965" filterUnits="userSpaceOnUse" color-interpolation-filters="sRGB">
<feFlood flood-opacity="0" result="BackgroundImageFix"/>
<feColorMatrix in="SourceAlpha" type="matrix" values="0 0 0 0 0 0 0 0 0 0 0 0 0 0 0 0 0 0 127 0" result="hardAlpha"/>
<feOffset dy="4"/>
<feGaussianBlur stdDeviation="2"/>
<feComposite in2="hardAlpha" operator="out"/>
<feColorMatrix type="matrix" values="0 0 0 0 0 0 0 0 0 0 0 0 0 0 0 0 0 0 0.25 0"/>
<feBlend mode="normal" in2="BackgroundImageFix" result="effect1_dropShadow_270_869"/>
<feBlend mode="normal" in="SourceGraphic" in2="effect1_dropShadow_270_869" result="shape"/>
</filter>
</defs>
</svg>
