<svg width="185" height="192" viewBox="0 0 185 192" fill="none" xmlns="http://www.w3.org/2000/svg">
<circle cx="91.5" cy="114.5" r="77.5" fill="#03266A" fill-opacity="0.49"/>
<g filter="url(#filter0_d_270_878)">
<path d="M87.9104 12.1543V14H82.5271V12.1543H87.9104ZM83.34 3.33594V14H80.9523V3.33594H83.34ZM91.2549 13.0845L93.3276 6.0752H95.7886L92.6025 15.1865C92.5342 15.3867 92.4414 15.6016 92.3242 15.8311C92.2119 16.0605 92.0581 16.2803 91.8628 16.4902C91.6724 16.7002 91.4282 16.8711 91.1304 17.0029C90.8325 17.1348 90.4663 17.2007 90.0317 17.2007C89.812 17.2007 89.6411 17.1885 89.519 17.1641C89.4019 17.1445 89.2456 17.1104 89.0503 17.0615L89.043 15.3989C89.1064 15.3989 89.1626 15.3989 89.2114 15.3989C89.2651 15.4038 89.3188 15.4062 89.3726 15.4062C89.646 15.4062 89.8657 15.377 90.0317 15.3184C90.2026 15.2598 90.3345 15.1719 90.4272 15.0547C90.5249 14.9424 90.603 14.7983 90.6616 14.6226L91.2549 13.0845ZM90.5591 6.0752L92.1997 11.7148L92.478 14.1392L90.9326 14.2197L88.0981 6.0752H90.5591ZM101.865 12.2275V2.75H104.165V14H102.099L101.865 12.2275ZM96.9285 10.1328V9.979C96.9285 9.37842 96.9944 8.83154 97.1263 8.33838C97.263 7.84033 97.4607 7.41309 97.7195 7.05664C97.9832 6.69531 98.3079 6.41699 98.6937 6.22168C99.0794 6.02637 99.5213 5.92871 100.019 5.92871C100.478 5.92871 100.879 6.03125 101.221 6.23633C101.562 6.43652 101.853 6.71973 102.092 7.08594C102.336 7.44727 102.534 7.87451 102.685 8.36768C102.837 8.85596 102.951 9.38574 103.03 9.95703V10.2207C102.956 10.7676 102.842 11.2778 102.685 11.7515C102.534 12.2251 102.336 12.6426 102.092 13.0039C101.853 13.3604 101.56 13.6411 101.213 13.8462C100.871 14.0464 100.469 14.1465 100.005 14.1465C99.5066 14.1465 99.0648 14.0464 98.679 13.8462C98.2981 13.646 97.9783 13.3652 97.7195 13.0039C97.4607 12.6426 97.263 12.2178 97.1263 11.7295C96.9944 11.2412 96.9285 10.709 96.9285 10.1328ZM99.2137 9.979V10.1328C99.2137 10.4453 99.2356 10.7358 99.2796 11.0044C99.3284 11.2729 99.4065 11.5098 99.514 11.7148C99.6214 11.9199 99.763 12.0811 99.9388 12.1982C100.115 12.3105 100.329 12.3667 100.583 12.3667C100.925 12.3667 101.206 12.2886 101.426 12.1323C101.645 11.9712 101.811 11.749 101.924 11.4658C102.036 11.1826 102.095 10.853 102.099 10.4771V9.70801C102.099 9.39551 102.068 9.11475 102.004 8.86572C101.941 8.6167 101.846 8.40674 101.719 8.23584C101.596 8.06494 101.443 7.93555 101.257 7.84766C101.072 7.75488 100.852 7.7085 100.598 7.7085C100.349 7.7085 100.137 7.76709 99.9607 7.88428C99.785 7.99658 99.6409 8.15527 99.5286 8.36035C99.4212 8.56543 99.3406 8.80713 99.2869 9.08545C99.2381 9.35889 99.2137 9.65674 99.2137 9.979Z" fill="white"/>
</g>
<path d="M110.667 96.0001C117.776 105.483 117.776 123.851 110.667 133.333M126.667 77.3334C147.936 97.6427 148.064 131.824 126.667 152M36 130.448V98.8801C36 95.8187 38.3893 93.3334 41.3333 93.3334H60.4587C61.1644 93.3309 61.8624 93.1855 62.5105 92.9059C63.1585 92.6263 63.7432 92.2184 64.2293 91.7067L80.2293 73.6374C83.5893 70.1387 89.3333 72.6187 89.3333 77.5627V151.771C89.3333 156.752 83.52 159.211 80.1813 155.643L64.2347 137.675C63.7472 137.148 63.1565 136.728 62.4996 136.44C61.8426 136.152 61.1334 136.002 60.416 136H41.3333C38.3893 136 36 133.515 36 130.448Z" stroke="white" stroke-width="10" stroke-linecap="round" stroke-linejoin="round"/>
<defs>
<filter id="filter0_d_270_878" x="76.9521" y="2.75" width="31.2129" height="22.4507" filterUnits="userSpaceOnUse" color-interpolation-filters="sRGB">
<feFlood flood-opacity="0" result="BackgroundImageFix"/>
<feColorMatrix in="SourceAlpha" type="matrix" values="0 0 0 0 0 0 0 0 0 0 0 0 0 0 0 0 0 0 127 0" result="hardAlpha"/>
<feOffset dy="4"/>
<feGaussianBlur stdDeviation="2"/>
<feComposite in2="hardAlpha" operator="out"/>
<feColorMatrix type="matrix" values="0 0 0 0 0 0 0 0 0 0 0 0 0 0 0 0 0 0 0.25 0"/>
<feBlend mode="normal" in2="BackgroundImageFix" result="effect1_dropShadow_270_878"/>
<feBlend mode="normal" in="SourceGraphic" in2="effect1_dropShadow_270_878" result="shape"/>
</filter>
</defs>
</svg>
