<svg width="204" height="54" viewBox="0 0 204 54" fill="none" xmlns="http://www.w3.org/2000/svg">
<rect width="204" height="54" rx="15" fill="black"/>
<path d="M176.5 15C179.55 15 182.475 16.2116 184.632 18.3683C186.788 20.5249 188 23.45 188 26.5C188 29.55 186.788 32.4751 184.632 34.6317C182.475 36.7884 179.55 38 176.5 38C173.45 38 170.525 36.7884 168.368 34.6317C166.212 32.4751 165 29.55 165 26.5C165 23.45 166.212 20.5249 168.368 18.3683C170.525 16.2116 173.45 15 176.5 15V15ZM171.469 25.7812C171.278 25.7812 171.095 25.857 170.961 25.9918C170.826 26.1266 170.75 26.3094 170.75 26.5C170.75 26.6906 170.826 26.8734 170.961 27.0082C171.095 27.143 171.278 27.2188 171.469 27.2188H179.796L176.71 30.3036C176.575 30.4386 176.499 30.6216 176.499 30.8125C176.499 31.0034 176.575 31.1864 176.71 31.3214C176.845 31.4563 177.028 31.5322 177.219 31.5322C177.41 31.5322 177.593 31.4563 177.728 31.3214L182.04 27.0089C182.107 26.9421 182.16 26.8628 182.196 26.7755C182.233 26.6882 182.251 26.5945 182.251 26.5C182.251 26.4055 182.233 26.3118 182.196 26.2245C182.16 26.1372 182.107 26.0579 182.04 25.9911L177.728 21.6786C177.593 21.5437 177.41 21.4678 177.219 21.4678C177.028 21.4678 176.845 21.5437 176.71 21.6786C176.575 21.8136 176.499 21.9966 176.499 22.1875C176.499 22.3784 176.575 22.5614 176.71 22.6964L179.796 25.7812H171.469Z" fill="#FFF6A4"/>
<path d="M16.9247 21.135C16.6147 21.135 16.3547 21.065 16.1447 20.925C15.9347 20.775 15.8047 20.575 15.7547 20.325C15.7047 20.065 15.7497 19.775 15.8897 19.455L19.6247 11.415C19.8047 11.025 20.0247 10.74 20.2847 10.56C20.5547 10.38 20.8597 10.29 21.1997 10.29C21.5397 10.29 21.8347 10.38 22.0847 10.56C22.3447 10.74 22.5697 11.025 22.7597 11.415L26.4947 19.455C26.6547 19.775 26.7097 20.065 26.6597 20.325C26.6197 20.585 26.4947 20.785 26.2847 20.925C26.0847 21.065 25.8347 21.135 25.5347 21.135C25.1347 21.135 24.8247 21.045 24.6047 20.865C24.3947 20.685 24.2047 20.395 24.0347 19.995L23.2247 18.09L24.2747 18.855H18.0947L19.1597 18.09L18.3497 19.995C18.1697 20.395 17.9847 20.685 17.7947 20.865C17.6047 21.045 17.3147 21.135 16.9247 21.135ZM21.1697 13.305L19.4297 17.46L19.0097 16.74H23.3747L22.9547 17.46L21.1997 13.305H21.1697ZM29.0102 21.135C28.5902 21.135 28.2652 21.02 28.0352 20.79C27.8052 20.56 27.6902 20.225 27.6902 19.785V14.82C27.6902 14.39 27.8002 14.06 28.0202 13.83C28.2502 13.6 28.5752 13.485 28.9952 13.485C29.4152 13.485 29.7352 13.6 29.9552 13.83C30.1752 14.06 30.2852 14.39 30.2852 14.82V15.525L30.1202 14.91C30.3602 14.44 30.7002 14.08 31.1402 13.83C31.5902 13.58 32.1002 13.455 32.6702 13.455C33.2602 13.455 33.7452 13.57 34.1252 13.8C34.5052 14.02 34.7902 14.37 34.9802 14.85C35.1702 15.32 35.2652 15.915 35.2652 16.635V19.785C35.2652 20.225 35.1502 20.56 34.9202 20.79C34.6902 21.02 34.3602 21.135 33.9302 21.135C33.5002 21.135 33.1702 21.02 32.9402 20.79C32.7102 20.56 32.5952 20.225 32.5952 19.785V16.74C32.5952 16.29 32.5152 15.97 32.3552 15.78C32.2052 15.59 31.9802 15.495 31.6802 15.495C31.2802 15.495 30.9602 15.625 30.7202 15.885C30.4802 16.135 30.3602 16.475 30.3602 16.905V19.785C30.3602 20.685 29.9102 21.135 29.0102 21.135ZM38.1368 21.135C37.7168 21.135 37.3918 21.02 37.1618 20.79C36.9318 20.56 36.8168 20.225 36.8168 19.785V14.82C36.8168 14.39 36.9268 14.06 37.1468 13.83C37.3768 13.6 37.7018 13.485 38.1218 13.485C38.5418 13.485 38.8618 13.6 39.0818 13.83C39.3018 14.06 39.4118 14.39 39.4118 14.82V15.645L39.2468 14.91C39.4568 14.47 39.7668 14.12 40.1768 13.86C40.5968 13.59 41.0918 13.455 41.6618 13.455C42.2018 13.455 42.6618 13.585 43.0418 13.845C43.4318 14.105 43.7118 14.5 43.8818 15.03H43.6718C43.9018 14.54 44.2468 14.155 44.7068 13.875C45.1668 13.595 45.6768 13.455 46.2368 13.455C46.8168 13.455 47.2918 13.57 47.6618 13.8C48.0318 14.02 48.3068 14.37 48.4868 14.85C48.6768 15.32 48.7718 15.915 48.7718 16.635V19.785C48.7718 20.225 48.6518 20.56 48.4118 20.79C48.1818 21.02 47.8518 21.135 47.4218 21.135C47.0018 21.135 46.6768 21.02 46.4468 20.79C46.2168 20.56 46.1018 20.225 46.1018 19.785V16.71C46.1018 16.28 46.0368 15.97 45.9068 15.78C45.7768 15.59 45.5618 15.495 45.2618 15.495C44.8918 15.495 44.6068 15.625 44.4068 15.885C44.2168 16.145 44.1218 16.515 44.1218 16.995V19.785C44.1218 20.225 44.0068 20.56 43.7768 20.79C43.5468 21.02 43.2168 21.135 42.7868 21.135C42.3568 21.135 42.0268 21.02 41.7968 20.79C41.5668 20.56 41.4518 20.225 41.4518 19.785V16.71C41.4518 16.28 41.3868 15.97 41.2568 15.78C41.1268 15.59 40.9118 15.495 40.6118 15.495C40.2518 15.495 39.9718 15.625 39.7718 15.885C39.5818 16.145 39.4868 16.515 39.4868 16.995V19.785C39.4868 20.685 39.0368 21.135 38.1368 21.135ZM54.057 21.165C53.237 21.165 52.522 21.01 51.912 20.7C51.302 20.39 50.827 19.945 50.487 19.365C50.147 18.785 49.977 18.1 49.977 17.31C49.977 16.71 50.072 16.175 50.262 15.705C50.452 15.225 50.727 14.82 51.087 14.49C51.447 14.15 51.877 13.895 52.377 13.725C52.877 13.545 53.437 13.455 54.057 13.455C54.877 13.455 55.592 13.61 56.202 13.92C56.812 14.23 57.282 14.675 57.612 15.255C57.952 15.825 58.122 16.51 58.122 17.31C58.122 17.9 58.027 18.435 57.837 18.915C57.647 19.395 57.372 19.805 57.012 20.145C56.662 20.475 56.232 20.73 55.722 20.91C55.222 21.08 54.667 21.165 54.057 21.165ZM54.057 19.2C54.327 19.2 54.567 19.135 54.777 19.005C54.987 18.865 55.147 18.66 55.257 18.39C55.377 18.11 55.437 17.75 55.437 17.31C55.437 16.64 55.307 16.16 55.047 15.87C54.787 15.57 54.457 15.42 54.057 15.42C53.787 15.42 53.547 15.485 53.337 15.615C53.127 15.745 52.962 15.95 52.842 16.23C52.722 16.5 52.662 16.86 52.662 17.31C52.662 17.97 52.792 18.45 53.052 18.75C53.312 19.05 53.647 19.2 54.057 19.2ZM62.2254 21.165C61.5954 21.165 61.0354 21.01 60.5454 20.7C60.0654 20.39 59.6854 19.945 59.4054 19.365C59.1354 18.785 59.0004 18.1 59.0004 17.31C59.0004 16.5 59.1354 15.81 59.4054 15.24C59.6854 14.67 60.0654 14.23 60.5454 13.92C61.0354 13.61 61.5954 13.455 62.2254 13.455C62.7754 13.455 63.2704 13.585 63.7104 13.845C64.1504 14.105 64.4454 14.44 64.5954 14.85H64.4304V11.64C64.4304 11.2 64.5454 10.865 64.7754 10.635C65.0054 10.405 65.3354 10.29 65.7654 10.29C66.1854 10.29 66.5104 10.405 66.7404 10.635C66.9804 10.865 67.1004 11.2 67.1004 11.64V19.785C67.1004 20.225 66.9854 20.56 66.7554 20.79C66.5354 21.02 66.2104 21.135 65.7804 21.135C65.3604 21.135 65.0354 21.02 64.8054 20.79C64.5754 20.56 64.4604 20.225 64.4604 19.785V18.93L64.6254 19.665C64.4854 20.115 64.1904 20.48 63.7404 20.76C63.3004 21.03 62.7954 21.165 62.2254 21.165ZM63.0804 19.2C63.3504 19.2 63.5904 19.135 63.8004 19.005C64.0104 18.865 64.1704 18.66 64.2804 18.39C64.4004 18.11 64.4604 17.75 64.4604 17.31C64.4604 16.64 64.3304 16.16 64.0704 15.87C63.8104 15.57 63.4804 15.42 63.0804 15.42C62.8104 15.42 62.5704 15.485 62.3604 15.615C62.1504 15.745 61.9854 15.95 61.8654 16.23C61.7454 16.5 61.6854 16.86 61.6854 17.31C61.6854 17.97 61.8154 18.45 62.0754 18.75C62.3354 19.05 62.6704 19.2 63.0804 19.2ZM76.6742 21.165C75.8542 21.165 75.1392 21.01 74.5292 20.7C73.9192 20.39 73.4442 19.945 73.1042 19.365C72.7642 18.785 72.5942 18.1 72.5942 17.31C72.5942 16.71 72.6892 16.175 72.8792 15.705C73.0692 15.225 73.3442 14.82 73.7042 14.49C74.0642 14.15 74.4942 13.895 74.9942 13.725C75.4942 13.545 76.0542 13.455 76.6742 13.455C77.4942 13.455 78.2092 13.61 78.8192 13.92C79.4292 14.23 79.8992 14.675 80.2292 15.255C80.5692 15.825 80.7392 16.51 80.7392 17.31C80.7392 17.9 80.6442 18.435 80.4542 18.915C80.2642 19.395 79.9892 19.805 79.6292 20.145C79.2792 20.475 78.8492 20.73 78.3392 20.91C77.8392 21.08 77.2842 21.165 76.6742 21.165ZM76.6742 19.2C76.9442 19.2 77.1842 19.135 77.3942 19.005C77.6042 18.865 77.7642 18.66 77.8742 18.39C77.9942 18.11 78.0542 17.75 78.0542 17.31C78.0542 16.64 77.9242 16.16 77.6642 15.87C77.4042 15.57 77.0742 15.42 76.6742 15.42C76.4042 15.42 76.1642 15.485 75.9542 15.615C75.7442 15.745 75.5792 15.95 75.4592 16.23C75.3392 16.5 75.2792 16.86 75.2792 17.31C75.2792 17.97 75.4092 18.45 75.6692 18.75C75.9292 19.05 76.2642 19.2 76.6742 19.2ZM83.3126 21.135C82.8926 21.135 82.5676 21.02 82.3376 20.79C82.1076 20.56 81.9926 20.225 81.9926 19.785V14.82C81.9926 14.39 82.1026 14.06 82.3226 13.83C82.5526 13.6 82.8776 13.485 83.2976 13.485C83.7176 13.485 84.0376 13.6 84.2576 13.83C84.4776 14.06 84.5876 14.39 84.5876 14.82V15.645L84.4226 14.91C84.6326 14.47 84.9426 14.12 85.3526 13.86C85.7726 13.59 86.2676 13.455 86.8376 13.455C87.3776 13.455 87.8376 13.585 88.2176 13.845C88.6076 14.105 88.8876 14.5 89.0576 15.03H88.8476C89.0776 14.54 89.4226 14.155 89.8826 13.875C90.3426 13.595 90.8526 13.455 91.4126 13.455C91.9926 13.455 92.4676 13.57 92.8376 13.8C93.2076 14.02 93.4826 14.37 93.6626 14.85C93.8526 15.32 93.9476 15.915 93.9476 16.635V19.785C93.9476 20.225 93.8276 20.56 93.5876 20.79C93.3576 21.02 93.0276 21.135 92.5976 21.135C92.1776 21.135 91.8526 21.02 91.6226 20.79C91.3926 20.56 91.2776 20.225 91.2776 19.785V16.71C91.2776 16.28 91.2126 15.97 91.0826 15.78C90.9526 15.59 90.7376 15.495 90.4376 15.495C90.0676 15.495 89.7826 15.625 89.5826 15.885C89.3926 16.145 89.2976 16.515 89.2976 16.995V19.785C89.2976 20.225 89.1826 20.56 88.9526 20.79C88.7226 21.02 88.3926 21.135 87.9626 21.135C87.5326 21.135 87.2026 21.02 86.9726 20.79C86.7426 20.56 86.6276 20.225 86.6276 19.785V16.71C86.6276 16.28 86.5626 15.97 86.4326 15.78C86.3026 15.59 86.0876 15.495 85.7876 15.495C85.4276 15.495 85.1476 15.625 84.9476 15.885C84.7576 16.145 84.6626 16.515 84.6626 16.995V19.785C84.6626 20.685 84.2126 21.135 83.3126 21.135ZM102.355 21.165C101.785 21.165 101.28 21.06 100.84 20.85C100.41 20.64 100.07 20.355 99.8198 19.995C99.5798 19.625 99.4598 19.205 99.4598 18.735C99.4598 18.195 99.5998 17.77 99.8798 17.46C100.16 17.15 100.61 16.93 101.23 16.8C101.85 16.66 102.675 16.59 103.705 16.59H104.53V17.85H103.705C103.315 17.85 102.99 17.88 102.73 17.94C102.48 17.99 102.295 18.075 102.175 18.195C102.055 18.305 101.995 18.45 101.995 18.63C101.995 18.86 102.075 19.05 102.235 19.2C102.405 19.35 102.645 19.425 102.955 19.425C103.205 19.425 103.425 19.37 103.615 19.26C103.815 19.15 103.975 19 104.095 18.81C104.215 18.61 104.275 18.38 104.275 18.12V16.38C104.275 16.02 104.18 15.765 103.99 15.615C103.81 15.465 103.495 15.39 103.045 15.39C102.805 15.39 102.535 15.42 102.235 15.48C101.935 15.53 101.6 15.625 101.23 15.765C100.96 15.865 100.73 15.88 100.54 15.81C100.35 15.74 100.2 15.62 100.09 15.45C99.9898 15.28 99.9398 15.095 99.9398 14.895C99.9498 14.695 100.015 14.505 100.135 14.325C100.265 14.145 100.46 14.005 100.72 13.905C101.2 13.725 101.64 13.605 102.04 13.545C102.45 13.485 102.825 13.455 103.165 13.455C103.985 13.455 104.66 13.575 105.19 13.815C105.73 14.045 106.13 14.405 106.39 14.895C106.66 15.375 106.795 15.995 106.795 16.755V19.785C106.795 20.225 106.69 20.56 106.48 20.79C106.27 21.02 105.965 21.135 105.565 21.135C105.155 21.135 104.84 21.02 104.62 20.79C104.41 20.56 104.305 20.225 104.305 19.785V19.395L104.395 19.605C104.345 19.925 104.23 20.2 104.05 20.43C103.87 20.66 103.635 20.84 103.345 20.97C103.055 21.1 102.725 21.165 102.355 21.165ZM111.195 21.165C110.565 21.165 110.005 21.01 109.515 20.7C109.035 20.39 108.655 19.945 108.375 19.365C108.105 18.785 107.97 18.1 107.97 17.31C107.97 16.5 108.105 15.81 108.375 15.24C108.655 14.67 109.035 14.23 109.515 13.92C110.005 13.61 110.565 13.455 111.195 13.455C111.745 13.455 112.24 13.585 112.68 13.845C113.12 14.105 113.415 14.44 113.565 14.85H113.4V11.64C113.4 11.2 113.515 10.865 113.745 10.635C113.975 10.405 114.305 10.29 114.735 10.29C115.155 10.29 115.48 10.405 115.71 10.635C115.95 10.865 116.07 11.2 116.07 11.64V19.785C116.07 20.225 115.955 20.56 115.725 20.79C115.505 21.02 115.18 21.135 114.75 21.135C114.33 21.135 114.005 21.02 113.775 20.79C113.545 20.56 113.43 20.225 113.43 19.785V18.93L113.595 19.665C113.455 20.115 113.16 20.48 112.71 20.76C112.27 21.03 111.765 21.165 111.195 21.165ZM112.05 19.2C112.32 19.2 112.56 19.135 112.77 19.005C112.98 18.865 113.14 18.66 113.25 18.39C113.37 18.11 113.43 17.75 113.43 17.31C113.43 16.64 113.3 16.16 113.04 15.87C112.78 15.57 112.45 15.42 112.05 15.42C111.78 15.42 111.54 15.485 111.33 15.615C111.12 15.745 110.955 15.95 110.835 16.23C110.715 16.5 110.655 16.86 110.655 17.31C110.655 17.97 110.785 18.45 111.045 18.75C111.305 19.05 111.64 19.2 112.05 19.2ZM121.277 23.865C120.727 23.865 120.212 23.825 119.732 23.745C119.252 23.675 118.837 23.57 118.487 23.43C118.197 23.33 117.992 23.185 117.872 22.995C117.752 22.805 117.697 22.605 117.707 22.395C117.717 22.185 117.772 21.995 117.872 21.825C117.982 21.655 118.127 21.53 118.307 21.45C118.487 21.38 118.687 21.385 118.907 21.465C119.347 21.645 119.747 21.76 120.107 21.81C120.467 21.87 120.772 21.9 121.022 21.9C121.632 21.9 122.087 21.77 122.387 21.51C122.697 21.26 122.852 20.865 122.852 20.325V19.38H122.972C122.822 19.8 122.517 20.145 122.057 20.415C121.597 20.675 121.097 20.805 120.557 20.805C119.897 20.805 119.322 20.655 118.832 20.355C118.342 20.045 117.957 19.615 117.677 19.065C117.407 18.515 117.272 17.87 117.272 17.13C117.272 16.57 117.352 16.065 117.512 15.615C117.672 15.165 117.892 14.78 118.172 14.46C118.462 14.14 118.807 13.895 119.207 13.725C119.617 13.545 120.067 13.455 120.557 13.455C121.117 13.455 121.617 13.585 122.057 13.845C122.507 14.105 122.807 14.445 122.957 14.865L122.807 15.48V14.82C122.807 14.39 122.922 14.06 123.152 13.83C123.392 13.6 123.722 13.485 124.142 13.485C124.562 13.485 124.882 13.6 125.102 13.83C125.332 14.06 125.447 14.39 125.447 14.82V20.01C125.447 21.29 125.087 22.25 124.367 22.89C123.647 23.54 122.617 23.865 121.277 23.865ZM121.382 18.84C121.682 18.84 121.937 18.775 122.147 18.645C122.357 18.505 122.522 18.31 122.642 18.06C122.762 17.8 122.822 17.49 122.822 17.13C122.822 16.59 122.692 16.17 122.432 15.87C122.172 15.57 121.822 15.42 121.382 15.42C121.102 15.42 120.852 15.49 120.632 15.63C120.412 15.76 120.242 15.955 120.122 16.215C120.012 16.465 119.957 16.77 119.957 17.13C119.957 17.67 120.087 18.09 120.347 18.39C120.607 18.69 120.952 18.84 121.382 18.84ZM129.572 21.165C129.002 21.165 128.497 21.06 128.057 20.85C127.627 20.64 127.287 20.355 127.037 19.995C126.797 19.625 126.677 19.205 126.677 18.735C126.677 18.195 126.817 17.77 127.097 17.46C127.377 17.15 127.827 16.93 128.447 16.8C129.067 16.66 129.892 16.59 130.922 16.59H131.747V17.85H130.922C130.532 17.85 130.207 17.88 129.947 17.94C129.697 17.99 129.512 18.075 129.392 18.195C129.272 18.305 129.212 18.45 129.212 18.63C129.212 18.86 129.292 19.05 129.452 19.2C129.622 19.35 129.862 19.425 130.172 19.425C130.422 19.425 130.642 19.37 130.832 19.26C131.032 19.15 131.192 19 131.312 18.81C131.432 18.61 131.492 18.38 131.492 18.12V16.38C131.492 16.02 131.397 15.765 131.207 15.615C131.027 15.465 130.712 15.39 130.262 15.39C130.022 15.39 129.752 15.42 129.452 15.48C129.152 15.53 128.817 15.625 128.447 15.765C128.177 15.865 127.947 15.88 127.757 15.81C127.567 15.74 127.417 15.62 127.307 15.45C127.207 15.28 127.157 15.095 127.157 14.895C127.167 14.695 127.232 14.505 127.352 14.325C127.482 14.145 127.677 14.005 127.937 13.905C128.417 13.725 128.857 13.605 129.257 13.545C129.667 13.485 130.042 13.455 130.382 13.455C131.202 13.455 131.877 13.575 132.407 13.815C132.947 14.045 133.347 14.405 133.607 14.895C133.877 15.375 134.012 15.995 134.012 16.755V19.785C134.012 20.225 133.907 20.56 133.697 20.79C133.487 21.02 133.182 21.135 132.782 21.135C132.372 21.135 132.057 21.02 131.837 20.79C131.627 20.56 131.522 20.225 131.522 19.785V19.395L131.612 19.605C131.562 19.925 131.447 20.2 131.267 20.43C131.087 20.66 130.852 20.84 130.562 20.97C130.272 21.1 129.942 21.165 129.572 21.165ZM136.852 21.135C136.432 21.135 136.107 21.02 135.877 20.79C135.647 20.56 135.532 20.225 135.532 19.785V14.82C135.532 14.39 135.642 14.06 135.862 13.83C136.092 13.6 136.417 13.485 136.837 13.485C137.257 13.485 137.577 13.6 137.797 13.83C138.017 14.06 138.127 14.39 138.127 14.82V15.525L137.962 14.91C138.202 14.44 138.542 14.08 138.982 13.83C139.432 13.58 139.942 13.455 140.512 13.455C141.102 13.455 141.587 13.57 141.967 13.8C142.347 14.02 142.632 14.37 142.822 14.85C143.012 15.32 143.107 15.915 143.107 16.635V19.785C143.107 20.225 142.992 20.56 142.762 20.79C142.532 21.02 142.202 21.135 141.772 21.135C141.342 21.135 141.012 21.02 140.782 20.79C140.552 20.56 140.437 20.225 140.437 19.785V16.74C140.437 16.29 140.357 15.97 140.197 15.78C140.047 15.59 139.822 15.495 139.522 15.495C139.122 15.495 138.802 15.625 138.562 15.885C138.322 16.135 138.202 16.475 138.202 16.905V19.785C138.202 20.685 137.752 21.135 136.852 21.135ZM148.289 23.865C147.739 23.865 147.224 23.825 146.744 23.745C146.264 23.675 145.849 23.57 145.499 23.43C145.209 23.33 145.004 23.185 144.884 22.995C144.764 22.805 144.709 22.605 144.719 22.395C144.729 22.185 144.784 21.995 144.884 21.825C144.994 21.655 145.139 21.53 145.319 21.45C145.499 21.38 145.699 21.385 145.919 21.465C146.359 21.645 146.759 21.76 147.119 21.81C147.479 21.87 147.784 21.9 148.034 21.9C148.644 21.9 149.099 21.77 149.399 21.51C149.709 21.26 149.864 20.865 149.864 20.325V19.38H149.984C149.834 19.8 149.529 20.145 149.069 20.415C148.609 20.675 148.109 20.805 147.569 20.805C146.909 20.805 146.334 20.655 145.844 20.355C145.354 20.045 144.969 19.615 144.689 19.065C144.419 18.515 144.284 17.87 144.284 17.13C144.284 16.57 144.364 16.065 144.524 15.615C144.684 15.165 144.904 14.78 145.184 14.46C145.474 14.14 145.819 13.895 146.219 13.725C146.629 13.545 147.079 13.455 147.569 13.455C148.129 13.455 148.629 13.585 149.069 13.845C149.519 14.105 149.819 14.445 149.969 14.865L149.819 15.48V14.82C149.819 14.39 149.934 14.06 150.164 13.83C150.404 13.6 150.734 13.485 151.154 13.485C151.574 13.485 151.894 13.6 152.114 13.83C152.344 14.06 152.459 14.39 152.459 14.82V20.01C152.459 21.29 152.099 22.25 151.379 22.89C150.659 23.54 149.629 23.865 148.289 23.865ZM148.394 18.84C148.694 18.84 148.949 18.775 149.159 18.645C149.369 18.505 149.534 18.31 149.654 18.06C149.774 17.8 149.834 17.49 149.834 17.13C149.834 16.59 149.704 16.17 149.444 15.87C149.184 15.57 148.834 15.42 148.394 15.42C148.114 15.42 147.864 15.49 147.644 15.63C147.424 15.76 147.254 15.955 147.134 16.215C147.024 16.465 146.969 16.77 146.969 17.13C146.969 17.67 147.099 18.09 147.359 18.39C147.619 18.69 147.964 18.84 148.394 18.84ZM37.4708 41.165C36.7208 41.165 36.1008 41.05 35.6108 40.82C35.1308 40.59 34.7708 40.245 34.5308 39.785C34.2908 39.315 34.1708 38.73 34.1708 38.03V35.585H33.6608C33.3408 35.585 33.0908 35.5 32.9108 35.33C32.7408 35.16 32.6558 34.915 32.6558 34.595C32.6558 34.275 32.7408 34.035 32.9108 33.875C33.0908 33.705 33.3408 33.62 33.6608 33.62H34.1708V32.69C34.1708 32.25 34.2858 31.915 34.5158 31.685C34.7458 31.455 35.0758 31.34 35.5058 31.34C35.9358 31.34 36.2658 31.455 36.4958 31.685C36.7258 31.915 36.8408 32.25 36.8408 32.69V33.62H38.0708C38.4008 33.62 38.6508 33.705 38.8208 33.875C39.0008 34.035 39.0908 34.275 39.0908 34.595C39.0908 34.915 39.0008 35.16 38.8208 35.33C38.6508 35.5 38.4008 35.585 38.0708 35.585H36.8408V37.94C36.8408 38.31 36.9258 38.585 37.0958 38.765C37.2758 38.935 37.5558 39.02 37.9358 39.02C38.0758 39.02 38.2108 39.005 38.3408 38.975C38.4708 38.945 38.5908 38.93 38.7008 38.93C38.8608 38.92 38.9908 38.97 39.0908 39.08C39.1908 39.18 39.2408 39.415 39.2408 39.785C39.2408 40.085 39.1958 40.34 39.1058 40.55C39.0158 40.75 38.8558 40.895 38.6258 40.985C38.4858 41.035 38.2958 41.075 38.0558 41.105C37.8158 41.145 37.6208 41.165 37.4708 41.165ZM41.5712 41.135C41.1512 41.135 40.8262 41.01 40.5962 40.76C40.3662 40.51 40.2512 40.15 40.2512 39.68V34.94C40.2512 34.47 40.3662 34.11 40.5962 33.86C40.8262 33.61 41.1512 33.485 41.5712 33.485C42.0012 33.485 42.3312 33.61 42.5612 33.86C42.8012 34.11 42.9212 34.47 42.9212 34.94V39.68C42.9212 40.15 42.8062 40.51 42.5762 40.76C42.3462 41.01 42.0112 41.135 41.5712 41.135ZM41.5712 32.42C41.1012 32.42 40.7362 32.31 40.4762 32.09C40.2262 31.87 40.1012 31.55 40.1012 31.13C40.1012 30.72 40.2262 30.405 40.4762 30.185C40.7362 29.965 41.1012 29.855 41.5712 29.855C42.0612 29.855 42.4312 29.965 42.6812 30.185C42.9312 30.405 43.0562 30.72 43.0562 31.13C43.0562 31.55 42.9312 31.87 42.6812 32.09C42.4312 32.31 42.0612 32.42 41.5712 32.42ZM47.2749 41.165C46.3149 41.165 45.6049 40.91 45.1449 40.4C44.6949 39.88 44.4699 39.1 44.4699 38.06V31.64C44.4699 31.2 44.5849 30.865 44.8149 30.635C45.0449 30.405 45.3699 30.29 45.7899 30.29C46.2199 30.29 46.5499 30.405 46.7799 30.635C47.0199 30.865 47.1399 31.2 47.1399 31.64V37.97C47.1399 38.34 47.2099 38.61 47.3499 38.78C47.4999 38.95 47.6899 39.035 47.9199 39.035C47.9899 39.035 48.0599 39.03 48.1299 39.02C48.2099 39 48.2949 38.985 48.3849 38.975C48.5549 38.975 48.6799 39.04 48.7599 39.17C48.8499 39.3 48.8949 39.565 48.8949 39.965C48.8949 40.315 48.8249 40.58 48.6849 40.76C48.5449 40.93 48.3299 41.04 48.0399 41.09C47.9599 41.1 47.8449 41.115 47.6949 41.135C47.5449 41.155 47.4049 41.165 47.2749 41.165ZM56.8568 41.165C56.2268 41.165 55.6668 41.01 55.1768 40.7C54.6968 40.39 54.3168 39.945 54.0368 39.365C53.7668 38.785 53.6318 38.1 53.6318 37.31C53.6318 36.5 53.7668 35.81 54.0368 35.24C54.3168 34.67 54.6968 34.23 55.1768 33.92C55.6668 33.61 56.2268 33.455 56.8568 33.455C57.4068 33.455 57.9018 33.585 58.3418 33.845C58.7818 34.105 59.0768 34.44 59.2268 34.85H59.0618V31.64C59.0618 31.2 59.1768 30.865 59.4068 30.635C59.6368 30.405 59.9668 30.29 60.3968 30.29C60.8168 30.29 61.1418 30.405 61.3718 30.635C61.6118 30.865 61.7318 31.2 61.7318 31.64V39.785C61.7318 40.225 61.6168 40.56 61.3868 40.79C61.1668 41.02 60.8418 41.135 60.4118 41.135C59.9918 41.135 59.6668 41.02 59.4368 40.79C59.2068 40.56 59.0918 40.225 59.0918 39.785V38.93L59.2568 39.665C59.1168 40.115 58.8218 40.48 58.3718 40.76C57.9318 41.03 57.4268 41.165 56.8568 41.165ZM57.7118 39.2C57.9818 39.2 58.2218 39.135 58.4318 39.005C58.6418 38.865 58.8018 38.66 58.9118 38.39C59.0318 38.11 59.0918 37.75 59.0918 37.31C59.0918 36.64 58.9618 36.16 58.7018 35.87C58.4418 35.57 58.1118 35.42 57.7118 35.42C57.4418 35.42 57.2018 35.485 56.9918 35.615C56.7818 35.745 56.6168 35.95 56.4968 36.23C56.3768 36.5 56.3168 36.86 56.3168 37.31C56.3168 37.97 56.4468 38.45 56.7068 38.75C56.9668 39.05 57.3018 39.2 57.7118 39.2ZM67.2985 41.165C66.3985 41.165 65.6185 41.01 64.9585 40.7C64.3085 40.38 63.8085 39.93 63.4585 39.35C63.1085 38.77 62.9335 38.085 62.9335 37.295C62.9335 36.535 63.0985 35.87 63.4285 35.3C63.7685 34.72 64.2285 34.27 64.8085 33.95C65.3985 33.62 66.0685 33.455 66.8185 33.455C67.3685 33.455 67.8685 33.545 68.3185 33.725C68.7685 33.895 69.1535 34.15 69.4735 34.49C69.7935 34.82 70.0335 35.22 70.1935 35.69C70.3635 36.16 70.4485 36.685 70.4485 37.265C70.4485 37.465 70.3935 37.615 70.2835 37.715C70.1735 37.805 69.9985 37.85 69.7585 37.85H65.1685V36.59H68.4985L68.2585 36.785C68.2585 36.415 68.2085 36.115 68.1085 35.885C68.0085 35.655 67.8585 35.48 67.6585 35.36C67.4685 35.24 67.2285 35.18 66.9385 35.18C66.6285 35.18 66.3585 35.255 66.1285 35.405C65.9085 35.545 65.7385 35.755 65.6185 36.035C65.4985 36.315 65.4385 36.665 65.4385 37.085V37.22C65.4385 37.93 65.5935 38.44 65.9035 38.75C66.2235 39.05 66.7135 39.2 67.3735 39.2C67.5935 39.2 67.8435 39.175 68.1235 39.125C68.4135 39.065 68.6885 38.985 68.9485 38.885C69.2085 38.785 69.4335 38.77 69.6235 38.84C69.8135 38.9 69.9585 39.01 70.0585 39.17C70.1685 39.32 70.2285 39.495 70.2385 39.695C70.2485 39.885 70.2035 40.075 70.1035 40.265C70.0035 40.445 69.8385 40.585 69.6085 40.685C69.2585 40.845 68.8835 40.965 68.4835 41.045C68.0935 41.125 67.6985 41.165 67.2985 41.165ZM75.4103 41.165C74.6603 41.165 74.0403 41.05 73.5503 40.82C73.0703 40.59 72.7103 40.245 72.4703 39.785C72.2303 39.315 72.1103 38.73 72.1103 38.03V35.585H71.6003C71.2803 35.585 71.0303 35.5 70.8503 35.33C70.6803 35.16 70.5953 34.915 70.5953 34.595C70.5953 34.275 70.6803 34.035 70.8503 33.875C71.0303 33.705 71.2803 33.62 71.6003 33.62H72.1103V32.69C72.1103 32.25 72.2253 31.915 72.4553 31.685C72.6853 31.455 73.0153 31.34 73.4453 31.34C73.8753 31.34 74.2053 31.455 74.4353 31.685C74.6653 31.915 74.7803 32.25 74.7803 32.69V33.62H76.0103C76.3403 33.62 76.5903 33.705 76.7603 33.875C76.9403 34.035 77.0303 34.275 77.0303 34.595C77.0303 34.915 76.9403 35.16 76.7603 35.33C76.5903 35.5 76.3403 35.585 76.0103 35.585H74.7803V37.94C74.7803 38.31 74.8653 38.585 75.0353 38.765C75.2153 38.935 75.4953 39.02 75.8753 39.02C76.0153 39.02 76.1503 39.005 76.2803 38.975C76.4103 38.945 76.5303 38.93 76.6403 38.93C76.8003 38.92 76.9303 38.97 77.0303 39.08C77.1303 39.18 77.1803 39.415 77.1803 39.785C77.1803 40.085 77.1353 40.34 77.0453 40.55C76.9553 40.75 76.7953 40.895 76.5653 40.985C76.4253 41.035 76.2353 41.075 75.9953 41.105C75.7553 41.145 75.5603 41.165 75.4103 41.165ZM81.1231 41.165C80.3731 41.165 79.7531 41.05 79.2631 40.82C78.7831 40.59 78.4231 40.245 78.1831 39.785C77.9431 39.315 77.8231 38.73 77.8231 38.03V35.585H77.3131C76.9931 35.585 76.7431 35.5 76.5631 35.33C76.3931 35.16 76.3081 34.915 76.3081 34.595C76.3081 34.275 76.3931 34.035 76.5631 33.875C76.7431 33.705 76.9931 33.62 77.3131 33.62H77.8231V32.69C77.8231 32.25 77.9381 31.915 78.1681 31.685C78.3981 31.455 78.7281 31.34 79.1581 31.34C79.5881 31.34 79.9181 31.455 80.1481 31.685C80.3781 31.915 80.4931 32.25 80.4931 32.69V33.62H81.7231C82.0531 33.62 82.3031 33.705 82.4731 33.875C82.6531 34.035 82.7431 34.275 82.7431 34.595C82.7431 34.915 82.6531 35.16 82.4731 35.33C82.3031 35.5 82.0531 35.585 81.7231 35.585H80.4931V37.94C80.4931 38.31 80.5781 38.585 80.7481 38.765C80.9281 38.935 81.2081 39.02 81.5881 39.02C81.7281 39.02 81.8631 39.005 81.9931 38.975C82.1231 38.945 82.2431 38.93 82.3531 38.93C82.5131 38.92 82.6431 38.97 82.7431 39.08C82.8431 39.18 82.8931 39.415 82.8931 39.785C82.8931 40.085 82.8481 40.34 82.7581 40.55C82.6681 40.75 82.5081 40.895 82.2781 40.985C82.1381 41.035 81.9481 41.075 81.7081 41.105C81.4681 41.145 81.2731 41.165 81.1231 41.165ZM87.5866 41.165C86.6866 41.165 85.9066 41.01 85.2466 40.7C84.5966 40.38 84.0966 39.93 83.7466 39.35C83.3966 38.77 83.2216 38.085 83.2216 37.295C83.2216 36.535 83.3866 35.87 83.7166 35.3C84.0566 34.72 84.5166 34.27 85.0966 33.95C85.6866 33.62 86.3566 33.455 87.1066 33.455C87.6566 33.455 88.1566 33.545 88.6066 33.725C89.0566 33.895 89.4416 34.15 89.7616 34.49C90.0816 34.82 90.3216 35.22 90.4816 35.69C90.6516 36.16 90.7366 36.685 90.7366 37.265C90.7366 37.465 90.6816 37.615 90.5716 37.715C90.4616 37.805 90.2866 37.85 90.0466 37.85H85.4566V36.59H88.7866L88.5466 36.785C88.5466 36.415 88.4966 36.115 88.3966 35.885C88.2966 35.655 88.1466 35.48 87.9466 35.36C87.7566 35.24 87.5166 35.18 87.2266 35.18C86.9166 35.18 86.6466 35.255 86.4166 35.405C86.1966 35.545 86.0266 35.755 85.9066 36.035C85.7866 36.315 85.7266 36.665 85.7266 37.085V37.22C85.7266 37.93 85.8816 38.44 86.1916 38.75C86.5116 39.05 87.0016 39.2 87.6616 39.2C87.8816 39.2 88.1316 39.175 88.4116 39.125C88.7016 39.065 88.9766 38.985 89.2366 38.885C89.4966 38.785 89.7216 38.77 89.9116 38.84C90.1016 38.9 90.2466 39.01 90.3466 39.17C90.4566 39.32 90.5166 39.495 90.5266 39.695C90.5366 39.885 90.4916 40.075 90.3916 40.265C90.2916 40.445 90.1266 40.585 89.8966 40.685C89.5466 40.845 89.1716 40.965 88.7716 41.045C88.3816 41.125 87.9866 41.165 87.5866 41.165ZM98.9839 41.165C98.0239 41.165 97.3139 40.91 96.8539 40.4C96.4039 39.88 96.1789 39.1 96.1789 38.06V31.64C96.1789 31.2 96.2939 30.865 96.5239 30.635C96.7539 30.405 97.0789 30.29 97.4989 30.29C97.9289 30.29 98.2589 30.405 98.4889 30.635C98.7289 30.865 98.8489 31.2 98.8489 31.64V37.97C98.8489 38.34 98.9189 38.61 99.0589 38.78C99.2089 38.95 99.3989 39.035 99.6289 39.035C99.6989 39.035 99.7689 39.03 99.8389 39.02C99.9189 39 100.004 38.985 100.094 38.975C100.264 38.975 100.389 39.04 100.469 39.17C100.559 39.3 100.604 39.565 100.604 39.965C100.604 40.315 100.534 40.58 100.394 40.76C100.254 40.93 100.039 41.04 99.7489 41.09C99.6689 41.1 99.5539 41.115 99.4039 41.135C99.2539 41.155 99.1139 41.165 98.9839 41.165ZM105.056 41.165C104.236 41.165 103.521 41.01 102.911 40.7C102.301 40.39 101.826 39.945 101.486 39.365C101.146 38.785 100.976 38.1 100.976 37.31C100.976 36.71 101.071 36.175 101.261 35.705C101.451 35.225 101.726 34.82 102.086 34.49C102.446 34.15 102.876 33.895 103.376 33.725C103.876 33.545 104.436 33.455 105.056 33.455C105.876 33.455 106.591 33.61 107.201 33.92C107.811 34.23 108.281 34.675 108.611 35.255C108.951 35.825 109.121 36.51 109.121 37.31C109.121 37.9 109.026 38.435 108.836 38.915C108.646 39.395 108.371 39.805 108.011 40.145C107.661 40.475 107.231 40.73 106.721 40.91C106.221 41.08 105.666 41.165 105.056 41.165ZM105.056 39.2C105.326 39.2 105.566 39.135 105.776 39.005C105.986 38.865 106.146 38.66 106.256 38.39C106.376 38.11 106.436 37.75 106.436 37.31C106.436 36.64 106.306 36.16 106.046 35.87C105.786 35.57 105.456 35.42 105.056 35.42C104.786 35.42 104.546 35.485 104.336 35.615C104.126 35.745 103.961 35.95 103.841 36.23C103.721 36.5 103.661 36.86 103.661 37.31C103.661 37.97 103.791 38.45 104.051 38.75C104.311 39.05 104.646 39.2 105.056 39.2ZM111.664 41.135C111.244 41.135 110.919 41.02 110.689 40.79C110.459 40.56 110.344 40.225 110.344 39.785V31.64C110.344 31.2 110.459 30.865 110.689 30.635C110.919 30.405 111.244 30.29 111.664 30.29C112.094 30.29 112.424 30.405 112.654 30.635C112.894 30.865 113.014 31.2 113.014 31.64V36.59H113.044L114.874 34.37C115.124 34.07 115.354 33.85 115.564 33.71C115.784 33.56 116.079 33.485 116.449 33.485C116.819 33.485 117.104 33.575 117.304 33.755C117.504 33.935 117.609 34.16 117.619 34.43C117.629 34.7 117.519 34.97 117.289 35.24L115.309 37.58V36.65L117.529 39.44C117.749 39.72 117.839 39.995 117.799 40.265C117.759 40.525 117.629 40.735 117.409 40.895C117.199 41.055 116.929 41.135 116.599 41.135C116.199 41.135 115.879 41.065 115.639 40.925C115.399 40.775 115.159 40.545 114.919 40.235L113.044 37.925H113.014V39.785C113.014 40.685 112.564 41.135 111.664 41.135ZM121.537 41.165C120.967 41.165 120.462 41.06 120.022 40.85C119.592 40.64 119.252 40.355 119.002 39.995C118.762 39.625 118.642 39.205 118.642 38.735C118.642 38.195 118.782 37.77 119.062 37.46C119.342 37.15 119.792 36.93 120.412 36.8C121.032 36.66 121.857 36.59 122.887 36.59H123.712V37.85H122.887C122.497 37.85 122.172 37.88 121.912 37.94C121.662 37.99 121.477 38.075 121.357 38.195C121.237 38.305 121.177 38.45 121.177 38.63C121.177 38.86 121.257 39.05 121.417 39.2C121.587 39.35 121.827 39.425 122.137 39.425C122.387 39.425 122.607 39.37 122.797 39.26C122.997 39.15 123.157 39 123.277 38.81C123.397 38.61 123.457 38.38 123.457 38.12V36.38C123.457 36.02 123.362 35.765 123.172 35.615C122.992 35.465 122.677 35.39 122.227 35.39C121.987 35.39 121.717 35.42 121.417 35.48C121.117 35.53 120.782 35.625 120.412 35.765C120.142 35.865 119.912 35.88 119.722 35.81C119.532 35.74 119.382 35.62 119.272 35.45C119.172 35.28 119.122 35.095 119.122 34.895C119.132 34.695 119.197 34.505 119.317 34.325C119.447 34.145 119.642 34.005 119.902 33.905C120.382 33.725 120.822 33.605 121.222 33.545C121.632 33.485 122.007 33.455 122.347 33.455C123.167 33.455 123.842 33.575 124.372 33.815C124.912 34.045 125.312 34.405 125.572 34.895C125.842 35.375 125.977 35.995 125.977 36.755V39.785C125.977 40.225 125.872 40.56 125.662 40.79C125.452 41.02 125.147 41.135 124.747 41.135C124.337 41.135 124.022 41.02 123.802 40.79C123.592 40.56 123.487 40.225 123.487 39.785V39.395L123.577 39.605C123.527 39.925 123.412 40.2 123.232 40.43C123.052 40.66 122.817 40.84 122.527 40.97C122.237 41.1 121.907 41.165 121.537 41.165ZM130.302 41.165C129.342 41.165 128.632 40.91 128.172 40.4C127.722 39.88 127.497 39.1 127.497 38.06V31.64C127.497 31.2 127.612 30.865 127.842 30.635C128.072 30.405 128.397 30.29 128.817 30.29C129.247 30.29 129.577 30.405 129.807 30.635C130.047 30.865 130.167 31.2 130.167 31.64V37.97C130.167 38.34 130.237 38.61 130.377 38.78C130.527 38.95 130.717 39.035 130.947 39.035C131.017 39.035 131.087 39.03 131.157 39.02C131.237 39 131.322 38.985 131.412 38.975C131.582 38.975 131.707 39.04 131.787 39.17C131.877 39.3 131.922 39.565 131.922 39.965C131.922 40.315 131.852 40.58 131.712 40.76C131.572 40.93 131.357 41.04 131.067 41.09C130.987 41.1 130.872 41.115 130.722 41.135C130.572 41.155 130.432 41.165 130.302 41.165ZM136.659 41.165C135.759 41.165 134.979 41.01 134.319 40.7C133.669 40.38 133.169 39.93 132.819 39.35C132.469 38.77 132.294 38.085 132.294 37.295C132.294 36.535 132.459 35.87 132.789 35.3C133.129 34.72 133.589 34.27 134.169 33.95C134.759 33.62 135.429 33.455 136.179 33.455C136.729 33.455 137.229 33.545 137.679 33.725C138.129 33.895 138.514 34.15 138.834 34.49C139.154 34.82 139.394 35.22 139.554 35.69C139.724 36.16 139.809 36.685 139.809 37.265C139.809 37.465 139.754 37.615 139.644 37.715C139.534 37.805 139.359 37.85 139.119 37.85H134.529V36.59H137.859L137.619 36.785C137.619 36.415 137.569 36.115 137.469 35.885C137.369 35.655 137.219 35.48 137.019 35.36C136.829 35.24 136.589 35.18 136.299 35.18C135.989 35.18 135.719 35.255 135.489 35.405C135.269 35.545 135.099 35.755 134.979 36.035C134.859 36.315 134.799 36.665 134.799 37.085V37.22C134.799 37.93 134.954 38.44 135.264 38.75C135.584 39.05 136.074 39.2 136.734 39.2C136.954 39.2 137.204 39.175 137.484 39.125C137.774 39.065 138.049 38.985 138.309 38.885C138.569 38.785 138.794 38.77 138.984 38.84C139.174 38.9 139.319 39.01 139.419 39.17C139.529 39.32 139.589 39.495 139.599 39.695C139.609 39.885 139.564 40.075 139.464 40.265C139.364 40.445 139.199 40.585 138.969 40.685C138.619 40.845 138.244 40.965 137.844 41.045C137.454 41.125 137.059 41.165 136.659 41.165Z" fill="#FFF6A4"/>
</svg>
