<svg width="154" height="31" viewBox="0 0 154 31" fill="none" xmlns="http://www.w3.org/2000/svg">
<rect width="154" height="31" rx="15" fill="black"/>
<path d="M139 11C140.326 11 141.598 11.5268 142.536 12.4645C143.473 13.4021 144 14.6739 144 16C144 17.3261 143.473 18.5979 142.536 19.5355C141.598 20.4732 140.326 21 139 21C137.674 21 136.402 20.4732 135.464 19.5355C134.527 18.5979 134 17.3261 134 16C134 14.6739 134.527 13.4021 135.464 12.4645C136.402 11.5268 137.674 11 139 11ZM136.812 15.6875C136.73 15.6875 136.65 15.7204 136.592 15.779C136.533 15.8376 136.5 15.9171 136.5 16C136.5 16.0829 136.533 16.1624 136.592 16.221C136.65 16.2796 136.73 16.3125 136.812 16.3125H140.433L139.091 17.6537C139.033 17.7124 139 17.792 139 17.875C139 17.958 139.033 18.0376 139.091 18.0963C139.15 18.1549 139.23 18.1879 139.312 18.1879C139.395 18.1879 139.475 18.1549 139.534 18.0963L141.409 16.2213C141.438 16.1922 141.461 16.1577 141.477 16.1198C141.492 16.0818 141.501 16.0411 141.501 16C141.501 15.9589 141.492 15.9182 141.477 15.8802C141.461 15.8423 141.438 15.8078 141.409 15.7787L139.534 13.9037C139.475 13.8451 139.395 13.8121 139.312 13.8121C139.23 13.8121 139.15 13.8451 139.091 13.9037C139.033 13.9624 139 14.042 139 14.125C139 14.208 139.033 14.2876 139.091 14.3463L140.433 15.6875H136.812Z" fill="#FFF6A4"/>
<path d="M14.955 19.108C14.579 19.108 14.303 18.98 14.127 18.724C13.951 18.468 13.951 18.148 14.127 17.764L17.115 11.332C17.259 11.02 17.435 10.792 17.643 10.648C17.851 10.504 18.095 10.432 18.375 10.432C18.647 10.432 18.887 10.504 19.095 10.648C19.303 10.792 19.479 11.02 19.623 11.332L22.611 17.764C22.795 18.156 22.803 18.48 22.635 18.736C22.467 18.984 22.203 19.108 21.843 19.108C21.523 19.108 21.275 19.036 21.099 18.892C20.931 18.748 20.779 18.516 20.643 18.196L20.259 17.284H16.479L16.095 18.196C15.951 18.516 15.803 18.748 15.651 18.892C15.499 19.036 15.267 19.108 14.955 19.108ZM18.351 12.844L17.199 15.592H19.527L18.375 12.844H18.351ZM24.6234 19.108C24.2794 19.108 24.0154 19.016 23.8314 18.832C23.6554 18.648 23.5674 18.38 23.5674 18.028V14.056C23.5674 13.344 23.9154 12.988 24.6114 12.988C25.2434 12.988 25.5874 13.296 25.6434 13.912C25.8434 13.608 26.1074 13.376 26.4354 13.216C26.7714 13.048 27.1434 12.964 27.5514 12.964C28.2554 12.964 28.7754 13.172 29.1114 13.588C29.4554 14.004 29.6274 14.644 29.6274 15.508V18.028C29.6274 18.38 29.5354 18.648 29.3514 18.832C29.1674 19.016 28.9034 19.108 28.5594 19.108C28.2154 19.108 27.9514 19.016 27.7674 18.832C27.5834 18.648 27.4914 18.38 27.4914 18.028V15.592C27.4914 15.232 27.4274 14.976 27.2994 14.824C27.1794 14.672 26.9994 14.596 26.7594 14.596C26.4394 14.596 26.1834 14.7 25.9914 14.908C25.7994 15.108 25.7034 15.38 25.7034 15.724V18.028C25.7034 18.748 25.3434 19.108 24.6234 19.108ZM31.9247 19.108C31.5807 19.108 31.3167 19.016 31.1327 18.832C30.9567 18.648 30.8687 18.38 30.8687 18.028V14.056C30.8687 13.344 31.2167 12.988 31.9127 12.988C32.5447 12.988 32.8887 13.292 32.9447 13.9C33.1207 13.612 33.3607 13.384 33.6647 13.216C33.9767 13.048 34.3367 12.964 34.7447 12.964C35.1447 12.964 35.4887 13.052 35.7767 13.228C36.0727 13.404 36.2967 13.676 36.4487 14.044C36.6487 13.7 36.9207 13.436 37.2647 13.252C37.6087 13.06 37.9887 12.964 38.4047 12.964C39.0927 12.964 39.6007 13.172 39.9287 13.588C40.2647 13.996 40.4327 14.636 40.4327 15.508V18.028C40.4327 18.38 40.3367 18.648 40.1447 18.832C39.9607 19.016 39.6967 19.108 39.3527 19.108C39.0167 19.108 38.7567 19.016 38.5727 18.832C38.3887 18.648 38.2967 18.38 38.2967 18.028V15.568C38.2967 15.224 38.2447 14.976 38.1407 14.824C38.0367 14.672 37.8647 14.596 37.6247 14.596C37.3287 14.596 37.1007 14.7 36.9407 14.908C36.7887 15.116 36.7127 15.412 36.7127 15.796V18.028C36.7127 18.38 36.6207 18.648 36.4367 18.832C36.2527 19.016 35.9887 19.108 35.6447 19.108C35.3007 19.108 35.0367 19.016 34.8527 18.832C34.6687 18.648 34.5767 18.38 34.5767 18.028V15.568C34.5767 15.224 34.5247 14.976 34.4207 14.824C34.3167 14.672 34.1447 14.596 33.9047 14.596C33.6167 14.596 33.3927 14.7 33.2327 14.908C33.0807 15.116 33.0047 15.412 33.0047 15.796V18.028C33.0047 18.748 32.6447 19.108 31.9247 19.108ZM44.6609 19.132C44.0049 19.132 43.4329 19.008 42.9449 18.76C42.4569 18.512 42.0769 18.156 41.8049 17.692C41.5329 17.228 41.3969 16.68 41.3969 16.048C41.3969 15.408 41.5329 14.86 41.8049 14.404C42.0769 13.94 42.4569 13.584 42.9449 13.336C43.4329 13.088 44.0049 12.964 44.6609 12.964C45.3169 12.964 45.8889 13.088 46.3769 13.336C46.8649 13.584 47.2409 13.94 47.5049 14.404C47.7769 14.86 47.9129 15.408 47.9129 16.048C47.9129 16.68 47.7769 17.228 47.5049 17.692C47.2409 18.156 46.8649 18.512 46.3769 18.76C45.8889 19.008 45.3169 19.132 44.6609 19.132ZM44.6609 17.56C44.9809 17.56 45.2449 17.44 45.4529 17.2C45.6609 16.96 45.7649 16.576 45.7649 16.048C45.7649 15.512 45.6609 15.128 45.4529 14.896C45.2449 14.656 44.9809 14.536 44.6609 14.536C44.3329 14.536 44.0649 14.656 43.8569 14.896C43.6489 15.128 43.5449 15.512 43.5449 16.048C43.5449 16.576 43.6489 16.96 43.8569 17.2C44.0649 17.44 44.3329 17.56 44.6609 17.56ZM51.1956 19.132C50.6916 19.132 50.2436 19.008 49.8516 18.76C49.4676 18.512 49.1636 18.156 48.9396 17.692C48.7236 17.228 48.6156 16.68 48.6156 16.048C48.6156 15.408 48.7236 14.86 48.9396 14.404C49.1636 13.94 49.4676 13.584 49.8516 13.336C50.2436 13.088 50.6916 12.964 51.1956 12.964C51.5716 12.964 51.9156 13.044 52.2276 13.204C52.5476 13.356 52.7916 13.556 52.9596 13.804V11.512C52.9596 10.792 53.3156 10.432 54.0276 10.432C54.3716 10.432 54.6356 10.524 54.8196 10.708C55.0036 10.892 55.0956 11.16 55.0956 11.512V18.028C55.0956 18.748 54.7436 19.108 54.0396 19.108C53.4076 19.108 53.0596 18.808 52.9956 18.208C52.8356 18.488 52.5916 18.712 52.2636 18.88C51.9436 19.048 51.5876 19.132 51.1956 19.132ZM51.8796 17.56C52.1996 17.56 52.4636 17.44 52.6716 17.2C52.8796 16.96 52.9836 16.576 52.9836 16.048C52.9836 15.512 52.8796 15.128 52.6716 14.896C52.4636 14.656 52.1996 14.536 51.8796 14.536C51.5516 14.536 51.2836 14.656 51.0756 14.896C50.8676 15.128 50.7636 15.512 50.7636 16.048C50.7636 16.576 50.8676 16.96 51.0756 17.2C51.2836 17.44 51.5516 17.56 51.8796 17.56ZM62.7546 19.132C62.0986 19.132 61.5266 19.008 61.0386 18.76C60.5506 18.512 60.1706 18.156 59.8986 17.692C59.6266 17.228 59.4906 16.68 59.4906 16.048C59.4906 15.408 59.6266 14.86 59.8986 14.404C60.1706 13.94 60.5506 13.584 61.0386 13.336C61.5266 13.088 62.0986 12.964 62.7546 12.964C63.4106 12.964 63.9826 13.088 64.4706 13.336C64.9586 13.584 65.3346 13.94 65.5986 14.404C65.8706 14.86 66.0066 15.408 66.0066 16.048C66.0066 16.68 65.8706 17.228 65.5986 17.692C65.3346 18.156 64.9586 18.512 64.4706 18.76C63.9826 19.008 63.4106 19.132 62.7546 19.132ZM62.7546 17.56C63.0746 17.56 63.3386 17.44 63.5466 17.2C63.7546 16.96 63.8586 16.576 63.8586 16.048C63.8586 15.512 63.7546 15.128 63.5466 14.896C63.3386 14.656 63.0746 14.536 62.7546 14.536C62.4266 14.536 62.1586 14.656 61.9506 14.896C61.7426 15.128 61.6386 15.512 61.6386 16.048C61.6386 16.576 61.7426 16.96 61.9506 17.2C62.1586 17.44 62.4266 17.56 62.7546 17.56ZM68.0654 19.108C67.7214 19.108 67.4574 19.016 67.2734 18.832C67.0974 18.648 67.0094 18.38 67.0094 18.028V14.056C67.0094 13.344 67.3574 12.988 68.0534 12.988C68.6854 12.988 69.0294 13.292 69.0854 13.9C69.2614 13.612 69.5014 13.384 69.8054 13.216C70.1174 13.048 70.4774 12.964 70.8854 12.964C71.2854 12.964 71.6294 13.052 71.9174 13.228C72.2134 13.404 72.4374 13.676 72.5894 14.044C72.7894 13.7 73.0614 13.436 73.4054 13.252C73.7494 13.06 74.1294 12.964 74.5454 12.964C75.2334 12.964 75.7414 13.172 76.0694 13.588C76.4054 13.996 76.5734 14.636 76.5734 15.508V18.028C76.5734 18.38 76.4774 18.648 76.2854 18.832C76.1014 19.016 75.8374 19.108 75.4934 19.108C75.1574 19.108 74.8974 19.016 74.7134 18.832C74.5294 18.648 74.4374 18.38 74.4374 18.028V15.568C74.4374 15.224 74.3854 14.976 74.2814 14.824C74.1774 14.672 74.0054 14.596 73.7654 14.596C73.4694 14.596 73.2414 14.7 73.0814 14.908C72.9294 15.116 72.8534 15.412 72.8534 15.796V18.028C72.8534 18.38 72.7614 18.648 72.5774 18.832C72.3934 19.016 72.1294 19.108 71.7854 19.108C71.4414 19.108 71.1774 19.016 70.9934 18.832C70.8094 18.648 70.7174 18.38 70.7174 18.028V15.568C70.7174 15.224 70.6654 14.976 70.5614 14.824C70.4574 14.672 70.2854 14.596 70.0454 14.596C69.7574 14.596 69.5334 14.7 69.3734 14.908C69.2214 15.116 69.1454 15.412 69.1454 15.796V18.028C69.1454 18.748 68.7854 19.108 68.0654 19.108ZM83.2991 19.132C82.8431 19.132 82.4391 19.048 82.0871 18.88C81.7431 18.712 81.4711 18.484 81.2711 18.196C81.0791 17.9 80.9831 17.564 80.9831 17.188C80.9831 16.764 81.0951 16.428 81.3191 16.18C81.5431 15.924 81.9031 15.744 82.3991 15.64C82.8951 15.528 83.5551 15.472 84.3791 15.472H84.8351V15.304C84.8351 15.016 84.7591 14.812 84.6071 14.692C84.4631 14.572 84.2111 14.512 83.8511 14.512C83.6511 14.512 83.4311 14.536 83.1911 14.584C82.9591 14.624 82.6951 14.7 82.3991 14.812C82.1351 14.908 81.9151 14.904 81.7391 14.8C81.5631 14.696 81.4471 14.548 81.3911 14.356C81.3431 14.156 81.3631 13.96 81.4511 13.768C81.5471 13.568 81.7271 13.42 81.9911 13.324C82.3751 13.188 82.7271 13.096 83.0471 13.048C83.3751 12.992 83.6751 12.964 83.9471 12.964C84.9311 12.964 85.6591 13.176 86.1311 13.6C86.6111 14.024 86.8511 14.692 86.8511 15.604V18.028C86.8511 18.748 86.5231 19.108 85.8671 19.108C85.2431 19.108 84.9111 18.788 84.8711 18.148C84.7591 18.452 84.5671 18.692 84.2951 18.868C84.0231 19.044 83.6911 19.132 83.2991 19.132ZM83.7791 17.74C84.0751 17.74 84.3231 17.644 84.5231 17.452C84.7311 17.26 84.8351 17.008 84.8351 16.696V16.48H84.3791C83.9071 16.48 83.5591 16.532 83.3351 16.636C83.1191 16.732 83.0111 16.888 83.0111 17.104C83.0111 17.288 83.0751 17.44 83.2031 17.56C83.3391 17.68 83.5311 17.74 83.7791 17.74ZM90.3714 19.132C89.8674 19.132 89.4194 19.008 89.0274 18.76C88.6434 18.512 88.3394 18.156 88.1154 17.692C87.8994 17.228 87.7914 16.68 87.7914 16.048C87.7914 15.408 87.8994 14.86 88.1154 14.404C88.3394 13.94 88.6434 13.584 89.0274 13.336C89.4194 13.088 89.8674 12.964 90.3714 12.964C90.7474 12.964 91.0914 13.044 91.4034 13.204C91.7234 13.356 91.9674 13.556 92.1354 13.804V11.512C92.1354 10.792 92.4914 10.432 93.2034 10.432C93.5474 10.432 93.8114 10.524 93.9954 10.708C94.1794 10.892 94.2714 11.16 94.2714 11.512V18.028C94.2714 18.748 93.9194 19.108 93.2154 19.108C92.5834 19.108 92.2354 18.808 92.1714 18.208C92.0114 18.488 91.7674 18.712 91.4394 18.88C91.1194 19.048 90.7634 19.132 90.3714 19.132ZM91.0554 17.56C91.3754 17.56 91.6394 17.44 91.8474 17.2C92.0554 16.96 92.1594 16.576 92.1594 16.048C92.1594 15.512 92.0554 15.128 91.8474 14.896C91.6394 14.656 91.3754 14.536 91.0554 14.536C90.7274 14.536 90.4594 14.656 90.2514 14.896C90.0434 15.128 89.9394 15.512 89.9394 16.048C89.9394 16.576 90.0434 16.96 90.2514 17.2C90.4594 17.44 90.7274 17.56 91.0554 17.56ZM98.4368 21.292C97.5328 21.292 96.7888 21.176 96.2048 20.944C95.9168 20.84 95.7288 20.688 95.6408 20.488C95.5608 20.288 95.5528 20.084 95.6168 19.876C95.6808 19.676 95.7928 19.52 95.9528 19.408C96.1208 19.304 96.3168 19.292 96.5408 19.372C96.8928 19.516 97.2088 19.608 97.4888 19.648C97.7768 19.696 98.0248 19.72 98.2328 19.72C98.7208 19.72 99.0848 19.616 99.3248 19.408C99.5728 19.208 99.6968 18.892 99.6968 18.46V17.908C99.5288 18.196 99.2768 18.424 98.9408 18.592C98.6048 18.76 98.2448 18.844 97.8608 18.844C97.3328 18.844 96.8728 18.724 96.4808 18.484C96.0888 18.236 95.7808 17.892 95.5568 17.452C95.3408 17.012 95.2328 16.496 95.2328 15.904C95.2328 15.312 95.3408 14.796 95.5568 14.356C95.7808 13.916 96.0888 13.576 96.4808 13.336C96.8728 13.088 97.3328 12.964 97.8608 12.964C98.2528 12.964 98.6128 13.048 98.9408 13.216C99.2768 13.376 99.5208 13.596 99.6728 13.876C99.7448 13.284 100.097 12.988 100.729 12.988C101.425 12.988 101.773 13.344 101.773 14.056V18.208C101.773 19.24 101.485 20.012 100.909 20.524C100.333 21.036 99.5088 21.292 98.4368 21.292ZM98.5208 17.272C98.8728 17.272 99.1528 17.152 99.3608 16.912C99.5688 16.672 99.6728 16.336 99.6728 15.904C99.6728 15.472 99.5688 15.136 99.3608 14.896C99.1528 14.656 98.8728 14.536 98.5208 14.536C98.1768 14.536 97.9008 14.656 97.6928 14.896C97.4848 15.136 97.3808 15.472 97.3808 15.904C97.3808 16.336 97.4848 16.672 97.6928 16.912C97.9008 17.152 98.1768 17.272 98.5208 17.272ZM105.073 19.132C104.617 19.132 104.213 19.048 103.861 18.88C103.517 18.712 103.245 18.484 103.045 18.196C102.853 17.9 102.757 17.564 102.757 17.188C102.757 16.764 102.869 16.428 103.093 16.18C103.317 15.924 103.677 15.744 104.173 15.64C104.669 15.528 105.329 15.472 106.153 15.472H106.609V15.304C106.609 15.016 106.533 14.812 106.381 14.692C106.237 14.572 105.985 14.512 105.625 14.512C105.425 14.512 105.205 14.536 104.965 14.584C104.733 14.624 104.469 14.7 104.173 14.812C103.909 14.908 103.689 14.904 103.513 14.8C103.337 14.696 103.221 14.548 103.165 14.356C103.117 14.156 103.137 13.96 103.225 13.768C103.321 13.568 103.501 13.42 103.765 13.324C104.149 13.188 104.501 13.096 104.821 13.048C105.149 12.992 105.449 12.964 105.721 12.964C106.705 12.964 107.433 13.176 107.905 13.6C108.385 14.024 108.625 14.692 108.625 15.604V18.028C108.625 18.748 108.297 19.108 107.641 19.108C107.017 19.108 106.685 18.788 106.645 18.148C106.533 18.452 106.341 18.692 106.069 18.868C105.797 19.044 105.465 19.132 105.073 19.132ZM105.553 17.74C105.849 17.74 106.097 17.644 106.297 17.452C106.505 17.26 106.609 17.008 106.609 16.696V16.48H106.153C105.681 16.48 105.333 16.532 105.109 16.636C104.893 16.732 104.785 16.888 104.785 17.104C104.785 17.288 104.849 17.44 104.977 17.56C105.113 17.68 105.305 17.74 105.553 17.74ZM110.897 19.108C110.553 19.108 110.289 19.016 110.105 18.832C109.929 18.648 109.841 18.38 109.841 18.028V14.056C109.841 13.344 110.189 12.988 110.885 12.988C111.517 12.988 111.861 13.296 111.917 13.912C112.117 13.608 112.381 13.376 112.709 13.216C113.045 13.048 113.417 12.964 113.825 12.964C114.529 12.964 115.049 13.172 115.385 13.588C115.729 14.004 115.901 14.644 115.901 15.508V18.028C115.901 18.38 115.809 18.648 115.625 18.832C115.441 19.016 115.177 19.108 114.833 19.108C114.489 19.108 114.225 19.016 114.041 18.832C113.857 18.648 113.765 18.38 113.765 18.028V15.592C113.765 15.232 113.701 14.976 113.573 14.824C113.453 14.672 113.273 14.596 113.033 14.596C112.713 14.596 112.457 14.7 112.265 14.908C112.073 15.108 111.977 15.38 111.977 15.724V18.028C111.977 18.748 111.617 19.108 110.897 19.108ZM120.046 21.292C119.142 21.292 118.398 21.176 117.814 20.944C117.526 20.84 117.338 20.688 117.25 20.488C117.17 20.288 117.162 20.084 117.226 19.876C117.29 19.676 117.402 19.52 117.562 19.408C117.73 19.304 117.926 19.292 118.15 19.372C118.502 19.516 118.818 19.608 119.098 19.648C119.386 19.696 119.634 19.72 119.842 19.72C120.33 19.72 120.694 19.616 120.934 19.408C121.182 19.208 121.306 18.892 121.306 18.46V17.908C121.138 18.196 120.886 18.424 120.55 18.592C120.214 18.76 119.854 18.844 119.47 18.844C118.942 18.844 118.482 18.724 118.09 18.484C117.698 18.236 117.39 17.892 117.166 17.452C116.95 17.012 116.842 16.496 116.842 15.904C116.842 15.312 116.95 14.796 117.166 14.356C117.39 13.916 117.698 13.576 118.09 13.336C118.482 13.088 118.942 12.964 119.47 12.964C119.862 12.964 120.222 13.048 120.55 13.216C120.886 13.376 121.13 13.596 121.282 13.876C121.354 13.284 121.706 12.988 122.338 12.988C123.034 12.988 123.382 13.344 123.382 14.056V18.208C123.382 19.24 123.094 20.012 122.518 20.524C121.942 21.036 121.118 21.292 120.046 21.292ZM120.13 17.272C120.482 17.272 120.762 17.152 120.97 16.912C121.178 16.672 121.282 16.336 121.282 15.904C121.282 15.472 121.178 15.136 120.97 14.896C120.762 14.656 120.482 14.536 120.13 14.536C119.786 14.536 119.51 14.656 119.302 14.896C119.094 15.136 118.99 15.472 118.99 15.904C118.99 16.336 119.094 16.672 119.302 16.912C119.51 17.152 119.786 17.272 120.13 17.272Z" fill="#FFF6A4"/>
</svg>
