<svg width="284" height="191" viewBox="0 0 284 191" fill="none" xmlns="http://www.w3.org/2000/svg">
<g filter="url(#filter0_dddd_257_782)">
<rect x="8" y="8" width="268" height="175" rx="15" fill="#FFF6A4"/>
</g>
<path d="M78.1699 95C77.7199 95 77.4949 94.775 77.4949 94.325V85.1C77.4949 84.65 77.7199 84.425 78.1699 84.425H81.0649C82.7749 84.425 84.0949 84.88 85.0249 85.79C85.9549 86.69 86.4199 87.995 86.4199 89.705C86.4199 91.415 85.9549 92.725 85.0249 93.635C84.0949 94.545 82.7749 95 81.0649 95H78.1699ZM78.7249 93.95H80.9749C83.7349 93.95 85.1149 92.535 85.1149 89.705C85.1149 86.885 83.7349 85.475 80.9749 85.475H78.7249V93.95ZM91.0428 95.135C89.2928 95.135 88.4178 94.17 88.4178 92.24V88.22C88.4178 87.81 88.6178 87.605 89.0178 87.605C89.4278 87.605 89.6328 87.81 89.6328 88.22V92.225C89.6328 92.875 89.7628 93.355 90.0228 93.665C90.2928 93.975 90.7128 94.13 91.2828 94.13C91.9028 94.13 92.4078 93.925 92.7978 93.515C93.1878 93.095 93.3828 92.54 93.3828 91.85V88.22C93.3828 87.81 93.5878 87.605 93.9978 87.605C94.3978 87.605 94.5978 87.81 94.5978 88.22V94.475C94.5978 94.895 94.4028 95.105 94.0128 95.105C93.6128 95.105 93.4128 94.895 93.4128 94.475V93.77C93.1828 94.21 92.8578 94.55 92.4378 94.79C92.0278 95.02 91.5628 95.135 91.0428 95.135ZM101.338 95.105C100.938 95.105 100.738 94.895 100.738 94.475V84.935C100.738 84.525 100.938 84.32 101.338 84.32C101.748 84.32 101.953 84.525 101.953 84.935V90.95H101.983L105.058 88.01C105.188 87.88 105.308 87.78 105.418 87.71C105.528 87.64 105.673 87.605 105.853 87.605C106.093 87.605 106.248 87.7 106.318 87.89C106.398 88.07 106.348 88.255 106.168 88.445L103.243 91.22L106.453 94.235C106.663 94.435 106.718 94.63 106.618 94.82C106.528 95.01 106.373 95.105 106.153 95.105C105.973 95.105 105.823 95.07 105.703 95C105.593 94.92 105.463 94.805 105.313 94.655L101.983 91.58H101.953V94.475C101.953 94.895 101.748 95.105 101.338 95.105ZM110.46 95.135C109.96 95.135 109.51 95.04 109.11 94.85C108.72 94.65 108.41 94.38 108.18 94.04C107.95 93.7 107.835 93.32 107.835 92.9C107.835 92.37 107.97 91.95 108.24 91.64C108.52 91.33 108.975 91.11 109.605 90.98C110.245 90.84 111.115 90.77 112.215 90.77H112.695V90.305C112.695 89.685 112.565 89.24 112.305 88.97C112.055 88.69 111.65 88.55 111.09 88.55C110.74 88.55 110.385 88.595 110.025 88.685C109.675 88.775 109.31 88.92 108.93 89.12C108.76 89.21 108.615 89.23 108.495 89.18C108.385 89.12 108.305 89.03 108.255 88.91C108.215 88.78 108.215 88.65 108.255 88.52C108.305 88.38 108.405 88.275 108.555 88.205C108.985 87.985 109.415 87.825 109.845 87.725C110.285 87.625 110.7 87.575 111.09 87.575C112.03 87.575 112.725 87.805 113.175 88.265C113.635 88.725 113.865 89.44 113.865 90.41V94.475C113.865 94.895 113.68 95.105 113.31 95.105C112.92 95.105 112.725 94.895 112.725 94.475V93.74C112.535 94.17 112.24 94.51 111.84 94.76C111.45 95.01 110.99 95.135 110.46 95.135ZM110.655 94.22C111.255 94.22 111.745 94.015 112.125 93.605C112.505 93.185 112.695 92.655 112.695 92.015V91.565H112.23C111.42 91.565 110.78 91.605 110.31 91.685C109.85 91.755 109.525 91.885 109.335 92.075C109.155 92.255 109.065 92.505 109.065 92.825C109.065 93.235 109.205 93.57 109.485 93.83C109.775 94.09 110.165 94.22 110.655 94.22ZM116.719 95.105C116.319 95.105 116.119 94.895 116.119 94.475V88.22C116.119 87.81 116.314 87.605 116.704 87.605C117.104 87.605 117.304 87.81 117.304 88.22V88.955C117.544 88.495 117.884 88.15 118.324 87.92C118.764 87.69 119.259 87.575 119.809 87.575C121.539 87.575 122.404 88.535 122.404 90.455V94.475C122.404 94.895 122.204 95.105 121.804 95.105C121.394 95.105 121.189 94.895 121.189 94.475V90.53C121.189 89.85 121.054 89.355 120.784 89.045C120.524 88.725 120.104 88.565 119.524 88.565C118.854 88.565 118.319 88.775 117.919 89.195C117.529 89.605 117.334 90.155 117.334 90.845V94.475C117.334 94.895 117.129 95.105 116.719 95.105ZM130.807 95.135C130.307 95.135 129.857 95.04 129.457 94.85C129.067 94.65 128.757 94.38 128.527 94.04C128.297 93.7 128.182 93.32 128.182 92.9C128.182 92.37 128.317 91.95 128.587 91.64C128.867 91.33 129.322 91.11 129.952 90.98C130.592 90.84 131.462 90.77 132.562 90.77H133.042V90.305C133.042 89.685 132.912 89.24 132.652 88.97C132.402 88.69 131.997 88.55 131.437 88.55C131.087 88.55 130.732 88.595 130.372 88.685C130.022 88.775 129.657 88.92 129.277 89.12C129.107 89.21 128.962 89.23 128.842 89.18C128.732 89.12 128.652 89.03 128.602 88.91C128.562 88.78 128.562 88.65 128.602 88.52C128.652 88.38 128.752 88.275 128.902 88.205C129.332 87.985 129.762 87.825 130.192 87.725C130.632 87.625 131.047 87.575 131.437 87.575C132.377 87.575 133.072 87.805 133.522 88.265C133.982 88.725 134.212 89.44 134.212 90.41V94.475C134.212 94.895 134.027 95.105 133.657 95.105C133.267 95.105 133.072 94.895 133.072 94.475V93.74C132.882 94.17 132.587 94.51 132.187 94.76C131.797 95.01 131.337 95.135 130.807 95.135ZM131.002 94.22C131.602 94.22 132.092 94.015 132.472 93.605C132.852 93.185 133.042 92.655 133.042 92.015V91.565H132.577C131.767 91.565 131.127 91.605 130.657 91.685C130.197 91.755 129.872 91.885 129.682 92.075C129.502 92.255 129.412 92.505 129.412 92.825C129.412 93.235 129.552 93.57 129.832 93.83C130.122 94.09 130.512 94.22 131.002 94.22ZM137.066 95.105C136.666 95.105 136.466 94.895 136.466 94.475V88.22C136.466 87.81 136.661 87.605 137.051 87.605C137.451 87.605 137.651 87.81 137.651 88.22V88.955C137.891 88.495 138.231 88.15 138.671 87.92C139.111 87.69 139.606 87.575 140.156 87.575C141.886 87.575 142.751 88.535 142.751 90.455V94.475C142.751 94.895 142.551 95.105 142.151 95.105C141.741 95.105 141.536 94.895 141.536 94.475V90.53C141.536 89.85 141.401 89.355 141.131 89.045C140.871 88.725 140.451 88.565 139.871 88.565C139.201 88.565 138.666 88.775 138.266 89.195C137.876 89.605 137.681 90.155 137.681 90.845V94.475C137.681 94.895 137.476 95.105 137.066 95.105ZM145.621 95.105C145.221 95.105 145.021 94.895 145.021 94.475V88.22C145.021 87.81 145.216 87.605 145.606 87.605C146.006 87.605 146.206 87.81 146.206 88.22V88.94C146.426 88.5 146.731 88.165 147.121 87.935C147.511 87.695 147.966 87.575 148.486 87.575C149.626 87.575 150.356 88.07 150.676 89.06C150.896 88.6 151.221 88.24 151.651 87.98C152.081 87.71 152.576 87.575 153.136 87.575C154.756 87.575 155.566 88.535 155.566 90.455V94.475C155.566 94.895 155.361 95.105 154.951 95.105C154.551 95.105 154.351 94.895 154.351 94.475V90.515C154.351 89.845 154.231 89.355 153.991 89.045C153.761 88.725 153.376 88.565 152.836 88.565C152.246 88.565 151.776 88.775 151.426 89.195C151.076 89.615 150.901 90.175 150.901 90.875V94.475C150.901 94.895 150.696 95.105 150.286 95.105C149.886 95.105 149.686 94.895 149.686 94.475V90.515C149.686 89.845 149.566 89.355 149.326 89.045C149.096 88.725 148.711 88.565 148.171 88.565C147.571 88.565 147.096 88.775 146.746 89.195C146.406 89.615 146.236 90.175 146.236 90.875V94.475C146.236 94.895 146.031 95.105 145.621 95.105ZM160.868 95.135C160.158 95.135 159.543 94.98 159.023 94.67C158.503 94.36 158.098 93.925 157.808 93.365C157.528 92.795 157.388 92.125 157.388 91.355C157.388 90.585 157.528 89.92 157.808 89.36C158.098 88.79 158.503 88.35 159.023 88.04C159.543 87.73 160.158 87.575 160.868 87.575C161.568 87.575 162.178 87.73 162.698 88.04C163.228 88.35 163.633 88.79 163.913 89.36C164.203 89.92 164.348 90.585 164.348 91.355C164.348 92.125 164.203 92.795 163.913 93.365C163.633 93.925 163.228 94.36 162.698 94.67C162.178 94.98 161.568 95.135 160.868 95.135ZM160.868 94.16C161.548 94.16 162.093 93.92 162.503 93.44C162.913 92.95 163.118 92.255 163.118 91.355C163.118 90.445 162.913 89.75 162.503 89.27C162.093 88.79 161.548 88.55 160.868 88.55C160.178 88.55 159.628 88.79 159.218 89.27C158.818 89.75 158.618 90.445 158.618 91.355C158.618 92.255 158.818 92.95 159.218 93.44C159.628 93.92 160.178 94.16 160.868 94.16ZM168.948 95.135C168.298 95.135 167.728 94.98 167.238 94.67C166.758 94.36 166.383 93.925 166.113 93.365C165.853 92.795 165.723 92.125 165.723 91.355C165.723 90.575 165.853 89.905 166.113 89.345C166.383 88.775 166.758 88.34 167.238 88.04C167.728 87.73 168.298 87.575 168.948 87.575C169.518 87.575 170.018 87.7 170.448 87.95C170.888 88.2 171.213 88.545 171.423 88.985V84.935C171.423 84.525 171.628 84.32 172.038 84.32C172.438 84.32 172.638 84.525 172.638 84.935V94.475C172.638 94.895 172.438 95.105 172.038 95.105C171.638 95.105 171.438 94.895 171.438 94.475V93.695C171.218 94.145 170.888 94.5 170.448 94.76C170.018 95.01 169.518 95.135 168.948 95.135ZM169.203 94.16C169.883 94.16 170.428 93.92 170.838 93.44C171.248 92.95 171.453 92.255 171.453 91.355C171.453 90.445 171.248 89.75 170.838 89.27C170.428 88.79 169.883 88.55 169.203 88.55C168.513 88.55 167.963 88.79 167.553 89.27C167.153 89.75 166.953 90.445 166.953 91.355C166.953 92.255 167.153 92.95 167.553 93.44C167.963 93.92 168.513 94.16 169.203 94.16ZM178.203 95.135C177.053 95.135 176.143 94.8 175.473 94.13C174.803 93.45 174.468 92.53 174.468 91.37C174.468 90.62 174.618 89.96 174.918 89.39C175.218 88.81 175.628 88.365 176.148 88.055C176.678 87.735 177.288 87.575 177.978 87.575C178.968 87.575 179.743 87.895 180.303 88.535C180.863 89.165 181.143 90.035 181.143 91.145C181.143 91.455 180.968 91.61 180.618 91.61H175.653C175.693 92.44 175.933 93.075 176.373 93.515C176.813 93.945 177.423 94.16 178.203 94.16C178.533 94.16 178.868 94.12 179.208 94.04C179.548 93.95 179.878 93.795 180.198 93.575C180.428 93.425 180.618 93.395 180.768 93.485C180.928 93.575 181.008 93.715 181.008 93.905C181.018 94.085 180.918 94.245 180.708 94.385C180.378 94.625 179.983 94.81 179.523 94.94C179.073 95.07 178.633 95.135 178.203 95.135ZM178.008 88.475C177.318 88.475 176.773 88.69 176.373 89.12C175.973 89.55 175.738 90.115 175.668 90.815H180.093C180.063 90.075 179.868 89.5 179.508 89.09C179.158 88.68 178.658 88.475 178.008 88.475ZM189.798 95.135C189.088 95.135 188.473 94.98 187.953 94.67C187.433 94.36 187.028 93.925 186.738 93.365C186.458 92.795 186.318 92.125 186.318 91.355C186.318 90.585 186.458 89.92 186.738 89.36C187.028 88.79 187.433 88.35 187.953 88.04C188.473 87.73 189.088 87.575 189.798 87.575C190.498 87.575 191.108 87.73 191.628 88.04C192.158 88.35 192.563 88.79 192.843 89.36C193.133 89.92 193.278 90.585 193.278 91.355C193.278 92.125 193.133 92.795 192.843 93.365C192.563 93.925 192.158 94.36 191.628 94.67C191.108 94.98 190.498 95.135 189.798 95.135ZM189.798 94.16C190.478 94.16 191.023 93.92 191.433 93.44C191.843 92.95 192.048 92.255 192.048 91.355C192.048 90.445 191.843 89.75 191.433 89.27C191.023 88.79 190.478 88.55 189.798 88.55C189.108 88.55 188.558 88.79 188.148 89.27C187.748 89.75 187.548 90.445 187.548 91.355C187.548 92.255 187.748 92.95 188.148 93.44C188.558 93.92 189.108 94.16 189.798 94.16ZM195.733 95.105C195.333 95.105 195.133 94.895 195.133 94.475V88.22C195.133 87.81 195.328 87.605 195.718 87.605C196.118 87.605 196.318 87.81 196.318 88.22V88.94C196.538 88.5 196.843 88.165 197.233 87.935C197.623 87.695 198.078 87.575 198.598 87.575C199.738 87.575 200.468 88.07 200.788 89.06C201.008 88.6 201.333 88.24 201.763 87.98C202.193 87.71 202.688 87.575 203.248 87.575C204.868 87.575 205.678 88.535 205.678 90.455V94.475C205.678 94.895 205.473 95.105 205.063 95.105C204.663 95.105 204.463 94.895 204.463 94.475V90.515C204.463 89.845 204.343 89.355 204.103 89.045C203.873 88.725 203.488 88.565 202.948 88.565C202.358 88.565 201.888 88.775 201.538 89.195C201.188 89.615 201.013 90.175 201.013 90.875V94.475C201.013 94.895 200.808 95.105 200.398 95.105C199.998 95.105 199.798 94.895 199.798 94.475V90.515C199.798 89.845 199.678 89.355 199.438 89.045C199.208 88.725 198.823 88.565 198.283 88.565C197.683 88.565 197.208 88.775 196.858 89.195C196.518 89.615 196.348 90.175 196.348 90.875V94.475C196.348 94.895 196.143 95.105 195.733 95.105ZM69.4443 114.135C68.9443 114.135 68.4943 114.04 68.0943 113.85C67.7043 113.65 67.3943 113.38 67.1643 113.04C66.9343 112.7 66.8193 112.32 66.8193 111.9C66.8193 111.37 66.9543 110.95 67.2243 110.64C67.5043 110.33 67.9593 110.11 68.5893 109.98C69.2293 109.84 70.0993 109.77 71.1993 109.77H71.6793V109.305C71.6793 108.685 71.5493 108.24 71.2893 107.97C71.0393 107.69 70.6343 107.55 70.0743 107.55C69.7243 107.55 69.3693 107.595 69.0093 107.685C68.6593 107.775 68.2943 107.92 67.9143 108.12C67.7443 108.21 67.5993 108.23 67.4793 108.18C67.3693 108.12 67.2893 108.03 67.2393 107.91C67.1993 107.78 67.1993 107.65 67.2393 107.52C67.2893 107.38 67.3893 107.275 67.5393 107.205C67.9693 106.985 68.3993 106.825 68.8293 106.725C69.2693 106.625 69.6843 106.575 70.0743 106.575C71.0143 106.575 71.7093 106.805 72.1593 107.265C72.6193 107.725 72.8493 108.44 72.8493 109.41V113.475C72.8493 113.895 72.6643 114.105 72.2943 114.105C71.9043 114.105 71.7093 113.895 71.7093 113.475V112.74C71.5193 113.17 71.2243 113.51 70.8243 113.76C70.4343 114.01 69.9743 114.135 69.4443 114.135ZM69.6393 113.22C70.2393 113.22 70.7293 113.015 71.1093 112.605C71.4893 112.185 71.6793 111.655 71.6793 111.015V110.565H71.2143C70.4043 110.565 69.7643 110.605 69.2943 110.685C68.8343 110.755 68.5093 110.885 68.3193 111.075C68.1393 111.255 68.0493 111.505 68.0493 111.825C68.0493 112.235 68.1893 112.57 68.4693 112.83C68.7593 113.09 69.1493 113.22 69.6393 113.22ZM77.8784 114.135C77.2284 114.135 76.6584 113.98 76.1684 113.67C75.6884 113.36 75.3134 112.925 75.0434 112.365C74.7834 111.795 74.6534 111.125 74.6534 110.355C74.6534 109.575 74.7834 108.905 75.0434 108.345C75.3134 107.775 75.6884 107.34 76.1684 107.04C76.6584 106.73 77.2284 106.575 77.8784 106.575C78.4484 106.575 78.9484 106.7 79.3784 106.95C79.8184 107.2 80.1434 107.545 80.3534 107.985V103.935C80.3534 103.525 80.5584 103.32 80.9684 103.32C81.3684 103.32 81.5684 103.525 81.5684 103.935V113.475C81.5684 113.895 81.3684 114.105 80.9684 114.105C80.5684 114.105 80.3684 113.895 80.3684 113.475V112.695C80.1484 113.145 79.8184 113.5 79.3784 113.76C78.9484 114.01 78.4484 114.135 77.8784 114.135ZM78.1334 113.16C78.8134 113.16 79.3584 112.92 79.7684 112.44C80.1784 111.95 80.3834 111.255 80.3834 110.355C80.3834 109.445 80.1784 108.75 79.7684 108.27C79.3584 107.79 78.8134 107.55 78.1334 107.55C77.4434 107.55 76.8934 107.79 76.4834 108.27C76.0834 108.75 75.8834 109.445 75.8834 110.355C75.8834 111.255 76.0834 111.95 76.4834 112.44C76.8934 112.92 77.4434 113.16 78.1334 113.16ZM87.0735 116.835C86.5435 116.835 86.0235 116.77 85.5135 116.64C85.0135 116.52 84.5585 116.325 84.1485 116.055C83.9985 115.965 83.9085 115.855 83.8785 115.725C83.8585 115.605 83.8785 115.485 83.9385 115.365C83.9985 115.255 84.0835 115.175 84.1935 115.125C84.3135 115.075 84.4385 115.085 84.5685 115.155C85.0085 115.425 85.4285 115.61 85.8285 115.71C86.2285 115.81 86.6235 115.86 87.0135 115.86C88.4535 115.86 89.1735 115.12 89.1735 113.64V112.35C88.9635 112.81 88.6335 113.175 88.1835 113.445C87.7435 113.705 87.2385 113.835 86.6685 113.835C85.9985 113.835 85.4185 113.68 84.9285 113.37C84.4385 113.06 84.0585 112.635 83.7885 112.095C83.5285 111.545 83.3985 110.91 83.3985 110.19C83.3985 109.47 83.5285 108.84 83.7885 108.3C84.0585 107.75 84.4385 107.325 84.9285 107.025C85.4185 106.725 85.9985 106.575 86.6685 106.575C87.2385 106.575 87.7435 106.7 88.1835 106.95C88.6235 107.2 88.9485 107.55 89.1585 108V107.22C89.1585 106.81 89.3585 106.605 89.7585 106.605C90.1585 106.605 90.3585 106.81 90.3585 107.22V113.475C90.3585 114.595 90.0785 115.435 89.5185 115.995C88.9685 116.555 88.1535 116.835 87.0735 116.835ZM86.8935 112.845C87.5935 112.845 88.1485 112.605 88.5585 112.125C88.9685 111.645 89.1735 111 89.1735 110.19C89.1735 109.38 88.9685 108.74 88.5585 108.27C88.1485 107.79 87.5935 107.55 86.8935 107.55C86.2035 107.55 85.6535 107.79 85.2435 108.27C84.8335 108.74 84.6285 109.38 84.6285 110.19C84.6285 111 84.8335 111.645 85.2435 112.125C85.6535 112.605 86.2035 112.845 86.8935 112.845ZM94.9326 114.135C94.4326 114.135 93.9826 114.04 93.5826 113.85C93.1926 113.65 92.8826 113.38 92.6526 113.04C92.4226 112.7 92.3076 112.32 92.3076 111.9C92.3076 111.37 92.4426 110.95 92.7126 110.64C92.9926 110.33 93.4476 110.11 94.0776 109.98C94.7176 109.84 95.5876 109.77 96.6876 109.77H97.1676V109.305C97.1676 108.685 97.0376 108.24 96.7776 107.97C96.5276 107.69 96.1226 107.55 95.5626 107.55C95.2126 107.55 94.8576 107.595 94.4976 107.685C94.1476 107.775 93.7826 107.92 93.4026 108.12C93.2326 108.21 93.0876 108.23 92.9676 108.18C92.8576 108.12 92.7776 108.03 92.7276 107.91C92.6876 107.78 92.6876 107.65 92.7276 107.52C92.7776 107.38 92.8776 107.275 93.0276 107.205C93.4576 106.985 93.8876 106.825 94.3176 106.725C94.7576 106.625 95.1726 106.575 95.5626 106.575C96.5026 106.575 97.1976 106.805 97.6476 107.265C98.1076 107.725 98.3376 108.44 98.3376 109.41V113.475C98.3376 113.895 98.1526 114.105 97.7826 114.105C97.3926 114.105 97.1976 113.895 97.1976 113.475V112.74C97.0076 113.17 96.7126 113.51 96.3126 113.76C95.9226 114.01 95.4626 114.135 94.9326 114.135ZM95.1276 113.22C95.7276 113.22 96.2176 113.015 96.5976 112.605C96.9776 112.185 97.1676 111.655 97.1676 111.015V110.565H96.7026C95.8926 110.565 95.2526 110.605 94.7826 110.685C94.3226 110.755 93.9976 110.885 93.8076 111.075C93.6276 111.255 93.5376 111.505 93.5376 111.825C93.5376 112.235 93.6776 112.57 93.9576 112.83C94.2476 113.09 94.6376 113.22 95.1276 113.22ZM101.192 114.105C100.792 114.105 100.592 113.895 100.592 113.475V107.22C100.592 106.81 100.787 106.605 101.177 106.605C101.577 106.605 101.777 106.81 101.777 107.22V107.955C102.017 107.495 102.357 107.15 102.797 106.92C103.237 106.69 103.732 106.575 104.282 106.575C106.012 106.575 106.877 107.535 106.877 109.455V113.475C106.877 113.895 106.677 114.105 106.277 114.105C105.867 114.105 105.662 113.895 105.662 113.475V109.53C105.662 108.85 105.527 108.355 105.257 108.045C104.997 107.725 104.577 107.565 103.997 107.565C103.327 107.565 102.792 107.775 102.392 108.195C102.002 108.605 101.807 109.155 101.807 109.845V113.475C101.807 113.895 101.602 114.105 101.192 114.105ZM112.342 116.835C111.812 116.835 111.292 116.77 110.782 116.64C110.282 116.52 109.827 116.325 109.417 116.055C109.267 115.965 109.177 115.855 109.147 115.725C109.127 115.605 109.147 115.485 109.207 115.365C109.267 115.255 109.352 115.175 109.462 115.125C109.582 115.075 109.707 115.085 109.837 115.155C110.277 115.425 110.697 115.61 111.097 115.71C111.497 115.81 111.892 115.86 112.282 115.86C113.722 115.86 114.442 115.12 114.442 113.64V112.35C114.232 112.81 113.902 113.175 113.452 113.445C113.012 113.705 112.507 113.835 111.937 113.835C111.267 113.835 110.687 113.68 110.197 113.37C109.707 113.06 109.327 112.635 109.057 112.095C108.797 111.545 108.667 110.91 108.667 110.19C108.667 109.47 108.797 108.84 109.057 108.3C109.327 107.75 109.707 107.325 110.197 107.025C110.687 106.725 111.267 106.575 111.937 106.575C112.507 106.575 113.012 106.7 113.452 106.95C113.892 107.2 114.217 107.55 114.427 108V107.22C114.427 106.81 114.627 106.605 115.027 106.605C115.427 106.605 115.627 106.81 115.627 107.22V113.475C115.627 114.595 115.347 115.435 114.787 115.995C114.237 116.555 113.422 116.835 112.342 116.835ZM112.162 112.845C112.862 112.845 113.417 112.605 113.827 112.125C114.237 111.645 114.442 111 114.442 110.19C114.442 109.38 114.237 108.74 113.827 108.27C113.417 107.79 112.862 107.55 112.162 107.55C111.472 107.55 110.922 107.79 110.512 108.27C110.102 108.74 109.897 109.38 109.897 110.19C109.897 111 110.102 111.645 110.512 112.125C110.922 112.605 111.472 112.845 112.162 112.845ZM124.698 114.135C123.838 114.135 123.193 113.91 122.763 113.46C122.333 113 122.118 112.34 122.118 111.48V107.655H121.113C120.763 107.655 120.588 107.495 120.588 107.175C120.588 106.865 120.763 106.71 121.113 106.71H122.118V104.985C122.118 104.575 122.323 104.37 122.733 104.37C123.133 104.37 123.333 104.575 123.333 104.985V106.71H125.223C125.573 106.71 125.748 106.865 125.748 107.175C125.748 107.495 125.573 107.655 125.223 107.655H123.333V111.36C123.333 111.93 123.453 112.365 123.693 112.665C123.933 112.955 124.323 113.1 124.863 113.1C125.053 113.1 125.213 113.08 125.343 113.04C125.473 113 125.588 112.98 125.688 112.98C125.778 112.97 125.853 113 125.913 113.07C125.973 113.14 126.003 113.26 126.003 113.43C126.003 113.55 125.978 113.66 125.928 113.76C125.888 113.86 125.813 113.93 125.703 113.97C125.583 114.01 125.423 114.045 125.223 114.075C125.033 114.115 124.858 114.135 124.698 114.135ZM127.705 104.955C127.175 104.955 126.91 104.705 126.91 104.205C126.91 103.715 127.175 103.47 127.705 103.47C128.235 103.47 128.5 103.715 128.5 104.205C128.5 104.705 128.235 104.955 127.705 104.955ZM127.705 114.075C127.305 114.075 127.105 113.855 127.105 113.415V107.28C127.105 106.85 127.305 106.635 127.705 106.635C128.115 106.635 128.32 106.85 128.32 107.28V113.415C128.32 113.855 128.115 114.075 127.705 114.075ZM132.812 114.135C132.092 114.135 131.542 113.92 131.162 113.49C130.782 113.05 130.592 112.415 130.592 111.585V103.935C130.592 103.525 130.792 103.32 131.192 103.32C131.602 103.32 131.807 103.525 131.807 103.935V111.495C131.807 112.565 132.232 113.1 133.082 113.1C133.172 113.1 133.252 113.095 133.322 113.085C133.392 113.075 133.462 113.07 133.532 113.07C133.642 113.06 133.717 113.085 133.757 113.145C133.807 113.205 133.832 113.325 133.832 113.505C133.832 113.845 133.662 114.04 133.322 114.09C133.242 114.11 133.157 114.12 133.067 114.12C132.977 114.13 132.892 114.135 132.812 114.135ZM141.672 114.135C141.022 114.135 140.452 113.98 139.962 113.67C139.482 113.36 139.107 112.925 138.837 112.365C138.577 111.795 138.447 111.125 138.447 110.355C138.447 109.575 138.577 108.905 138.837 108.345C139.107 107.775 139.482 107.34 139.962 107.04C140.452 106.73 141.022 106.575 141.672 106.575C142.242 106.575 142.742 106.7 143.172 106.95C143.612 107.2 143.937 107.545 144.147 107.985V103.935C144.147 103.525 144.352 103.32 144.762 103.32C145.162 103.32 145.362 103.525 145.362 103.935V113.475C145.362 113.895 145.162 114.105 144.762 114.105C144.362 114.105 144.162 113.895 144.162 113.475V112.695C143.942 113.145 143.612 113.5 143.172 113.76C142.742 114.01 142.242 114.135 141.672 114.135ZM141.927 113.16C142.607 113.16 143.152 112.92 143.562 112.44C143.972 111.95 144.177 111.255 144.177 110.355C144.177 109.445 143.972 108.75 143.562 108.27C143.152 107.79 142.607 107.55 141.927 107.55C141.237 107.55 140.687 107.79 140.277 108.27C139.877 108.75 139.677 109.445 139.677 110.355C139.677 111.255 139.877 111.95 140.277 112.44C140.687 112.92 141.237 113.16 141.927 113.16ZM150.927 114.135C149.777 114.135 148.867 113.8 148.197 113.13C147.527 112.45 147.192 111.53 147.192 110.37C147.192 109.62 147.342 108.96 147.642 108.39C147.942 107.81 148.352 107.365 148.872 107.055C149.402 106.735 150.012 106.575 150.702 106.575C151.692 106.575 152.467 106.895 153.027 107.535C153.587 108.165 153.867 109.035 153.867 110.145C153.867 110.455 153.692 110.61 153.342 110.61H148.377C148.417 111.44 148.657 112.075 149.097 112.515C149.537 112.945 150.147 113.16 150.927 113.16C151.257 113.16 151.592 113.12 151.932 113.04C152.272 112.95 152.602 112.795 152.922 112.575C153.152 112.425 153.342 112.395 153.492 112.485C153.652 112.575 153.732 112.715 153.732 112.905C153.742 113.085 153.642 113.245 153.432 113.385C153.102 113.625 152.707 113.81 152.247 113.94C151.797 114.07 151.357 114.135 150.927 114.135ZM150.732 107.475C150.042 107.475 149.497 107.69 149.097 108.12C148.697 108.55 148.462 109.115 148.392 109.815H152.817C152.787 109.075 152.592 108.5 152.232 108.09C151.882 107.68 151.382 107.475 150.732 107.475ZM158.551 114.135C157.691 114.135 157.046 113.91 156.616 113.46C156.186 113 155.971 112.34 155.971 111.48V107.655H154.966C154.616 107.655 154.441 107.495 154.441 107.175C154.441 106.865 154.616 106.71 154.966 106.71H155.971V104.985C155.971 104.575 156.176 104.37 156.586 104.37C156.986 104.37 157.186 104.575 157.186 104.985V106.71H159.076C159.426 106.71 159.601 106.865 159.601 107.175C159.601 107.495 159.426 107.655 159.076 107.655H157.186V111.36C157.186 111.93 157.306 112.365 157.546 112.665C157.786 112.955 158.176 113.1 158.716 113.1C158.906 113.1 159.066 113.08 159.196 113.04C159.326 113 159.441 112.98 159.541 112.98C159.631 112.97 159.706 113 159.766 113.07C159.826 113.14 159.856 113.26 159.856 113.43C159.856 113.55 159.831 113.66 159.781 113.76C159.741 113.86 159.666 113.93 159.556 113.97C159.436 114.01 159.276 114.045 159.076 114.075C158.886 114.115 158.711 114.135 158.551 114.135ZM163.605 114.135C162.745 114.135 162.1 113.91 161.67 113.46C161.24 113 161.025 112.34 161.025 111.48V107.655H160.02C159.67 107.655 159.495 107.495 159.495 107.175C159.495 106.865 159.67 106.71 160.02 106.71H161.025V104.985C161.025 104.575 161.23 104.37 161.64 104.37C162.04 104.37 162.24 104.575 162.24 104.985V106.71H164.13C164.48 106.71 164.655 106.865 164.655 107.175C164.655 107.495 164.48 107.655 164.13 107.655H162.24V111.36C162.24 111.93 162.36 112.365 162.6 112.665C162.84 112.955 163.23 113.1 163.77 113.1C163.96 113.1 164.12 113.08 164.25 113.04C164.38 113 164.495 112.98 164.595 112.98C164.685 112.97 164.76 113 164.82 113.07C164.88 113.14 164.91 113.26 164.91 113.43C164.91 113.55 164.885 113.66 164.835 113.76C164.795 113.86 164.72 113.93 164.61 113.97C164.49 114.01 164.33 114.045 164.13 114.075C163.94 114.115 163.765 114.135 163.605 114.135ZM169.135 114.135C167.985 114.135 167.075 113.8 166.405 113.13C165.735 112.45 165.4 111.53 165.4 110.37C165.4 109.62 165.55 108.96 165.85 108.39C166.15 107.81 166.56 107.365 167.08 107.055C167.61 106.735 168.22 106.575 168.91 106.575C169.9 106.575 170.675 106.895 171.235 107.535C171.795 108.165 172.075 109.035 172.075 110.145C172.075 110.455 171.9 110.61 171.55 110.61H166.585C166.625 111.44 166.865 112.075 167.305 112.515C167.745 112.945 168.355 113.16 169.135 113.16C169.465 113.16 169.8 113.12 170.14 113.04C170.48 112.95 170.81 112.795 171.13 112.575C171.36 112.425 171.55 112.395 171.7 112.485C171.86 112.575 171.94 112.715 171.94 112.905C171.95 113.085 171.85 113.245 171.64 113.385C171.31 113.625 170.915 113.81 170.455 113.94C170.005 114.07 169.565 114.135 169.135 114.135ZM168.94 107.475C168.25 107.475 167.705 107.69 167.305 108.12C166.905 108.55 166.67 109.115 166.6 109.815H171.025C170.995 109.075 170.8 108.5 170.44 108.09C170.09 107.68 169.59 107.475 168.94 107.475ZM179.921 114.135C179.201 114.135 178.651 113.92 178.271 113.49C177.891 113.05 177.701 112.415 177.701 111.585V103.935C177.701 103.525 177.901 103.32 178.301 103.32C178.711 103.32 178.916 103.525 178.916 103.935V111.495C178.916 112.565 179.341 113.1 180.191 113.1C180.281 113.1 180.361 113.095 180.431 113.085C180.501 113.075 180.571 113.07 180.641 113.07C180.751 113.06 180.826 113.085 180.866 113.145C180.916 113.205 180.941 113.325 180.941 113.505C180.941 113.845 180.771 114.04 180.431 114.09C180.351 114.11 180.266 114.12 180.176 114.12C180.086 114.13 180.001 114.135 179.921 114.135ZM185.096 114.135C184.386 114.135 183.771 113.98 183.251 113.67C182.731 113.36 182.326 112.925 182.036 112.365C181.756 111.795 181.616 111.125 181.616 110.355C181.616 109.585 181.756 108.92 182.036 108.36C182.326 107.79 182.731 107.35 183.251 107.04C183.771 106.73 184.386 106.575 185.096 106.575C185.796 106.575 186.406 106.73 186.926 107.04C187.456 107.35 187.861 107.79 188.141 108.36C188.431 108.92 188.576 109.585 188.576 110.355C188.576 111.125 188.431 111.795 188.141 112.365C187.861 112.925 187.456 113.36 186.926 113.67C186.406 113.98 185.796 114.135 185.096 114.135ZM185.096 113.16C185.776 113.16 186.321 112.92 186.731 112.44C187.141 111.95 187.346 111.255 187.346 110.355C187.346 109.445 187.141 108.75 186.731 108.27C186.321 107.79 185.776 107.55 185.096 107.55C184.406 107.55 183.856 107.79 183.446 108.27C183.046 108.75 182.846 109.445 182.846 110.355C182.846 111.255 183.046 111.95 183.446 112.44C183.856 112.92 184.406 113.16 185.096 113.16ZM191.001 114.105C190.601 114.105 190.401 113.895 190.401 113.475V103.935C190.401 103.525 190.601 103.32 191.001 103.32C191.411 103.32 191.616 103.525 191.616 103.935V109.95H191.646L194.721 107.01C194.851 106.88 194.971 106.78 195.081 106.71C195.191 106.64 195.336 106.605 195.516 106.605C195.756 106.605 195.911 106.7 195.981 106.89C196.061 107.07 196.011 107.255 195.831 107.445L192.906 110.22L196.116 113.235C196.326 113.435 196.381 113.63 196.281 113.82C196.191 114.01 196.036 114.105 195.816 114.105C195.636 114.105 195.486 114.07 195.366 114C195.256 113.92 195.126 113.805 194.976 113.655L191.646 110.58H191.616V113.475C191.616 113.895 191.411 114.105 191.001 114.105ZM200.123 114.135C199.623 114.135 199.173 114.04 198.773 113.85C198.383 113.65 198.073 113.38 197.843 113.04C197.613 112.7 197.498 112.32 197.498 111.9C197.498 111.37 197.633 110.95 197.903 110.64C198.183 110.33 198.638 110.11 199.268 109.98C199.908 109.84 200.778 109.77 201.878 109.77H202.358V109.305C202.358 108.685 202.228 108.24 201.968 107.97C201.718 107.69 201.313 107.55 200.753 107.55C200.403 107.55 200.048 107.595 199.688 107.685C199.338 107.775 198.973 107.92 198.593 108.12C198.423 108.21 198.278 108.23 198.158 108.18C198.048 108.12 197.968 108.03 197.918 107.91C197.878 107.78 197.878 107.65 197.918 107.52C197.968 107.38 198.068 107.275 198.218 107.205C198.648 106.985 199.078 106.825 199.508 106.725C199.948 106.625 200.363 106.575 200.753 106.575C201.693 106.575 202.388 106.805 202.838 107.265C203.298 107.725 203.528 108.44 203.528 109.41V113.475C203.528 113.895 203.343 114.105 202.973 114.105C202.583 114.105 202.388 113.895 202.388 113.475V112.74C202.198 113.17 201.903 113.51 201.503 113.76C201.113 114.01 200.653 114.135 200.123 114.135ZM200.318 113.22C200.918 113.22 201.408 113.015 201.788 112.605C202.168 112.185 202.358 111.655 202.358 111.015V110.565H201.893C201.083 110.565 200.443 110.605 199.973 110.685C199.513 110.755 199.188 110.885 198.998 111.075C198.818 111.255 198.728 111.505 198.728 111.825C198.728 112.235 198.868 112.57 199.148 112.83C199.438 113.09 199.828 113.22 200.318 113.22ZM208.002 114.135C207.282 114.135 206.732 113.92 206.352 113.49C205.972 113.05 205.782 112.415 205.782 111.585V103.935C205.782 103.525 205.982 103.32 206.382 103.32C206.792 103.32 206.997 103.525 206.997 103.935V111.495C206.997 112.565 207.422 113.1 208.272 113.1C208.362 113.1 208.442 113.095 208.512 113.085C208.582 113.075 208.652 113.07 208.722 113.07C208.832 113.06 208.907 113.085 208.947 113.145C208.997 113.205 209.022 113.325 209.022 113.505C209.022 113.845 208.852 114.04 208.512 114.09C208.432 114.11 208.347 114.12 208.257 114.12C208.167 114.13 208.082 114.135 208.002 114.135ZM213.432 114.135C212.282 114.135 211.372 113.8 210.702 113.13C210.032 112.45 209.697 111.53 209.697 110.37C209.697 109.62 209.847 108.96 210.147 108.39C210.447 107.81 210.857 107.365 211.377 107.055C211.907 106.735 212.517 106.575 213.207 106.575C214.197 106.575 214.972 106.895 215.532 107.535C216.092 108.165 216.372 109.035 216.372 110.145C216.372 110.455 216.197 110.61 215.847 110.61H210.882C210.922 111.44 211.162 112.075 211.602 112.515C212.042 112.945 212.652 113.16 213.432 113.16C213.762 113.16 214.097 113.12 214.437 113.04C214.777 112.95 215.107 112.795 215.427 112.575C215.657 112.425 215.847 112.395 215.997 112.485C216.157 112.575 216.237 112.715 216.237 112.905C216.247 113.085 216.147 113.245 215.937 113.385C215.607 113.625 215.212 113.81 214.752 113.94C214.302 114.07 213.862 114.135 213.432 114.135ZM213.237 107.475C212.547 107.475 212.002 107.69 211.602 108.12C211.202 108.55 210.967 109.115 210.897 109.815H215.322C215.292 109.075 215.097 108.5 214.737 108.09C214.387 107.68 213.887 107.475 213.237 107.475Z" fill="black"/>
<path d="M56.9 64C55.9933 64 55.54 63.5467 55.54 62.64V51.26C55.54 50.3533 55.9933 49.9 56.9 49.9H61.7C63.18 49.9 64.3267 50.2267 65.14 50.88C65.9533 51.52 66.36 52.4133 66.36 53.56C66.36 54.32 66.1667 54.9733 65.78 55.52C65.3933 56.0667 64.86 56.4667 64.18 56.72C64.98 56.9467 65.6 57.3467 66.04 57.92C66.4933 58.48 66.72 59.1933 66.72 60.06C66.72 61.3133 66.2933 62.2867 65.44 62.98C64.6 63.66 63.4267 64 61.92 64H56.9ZM58 55.88H61.26C63.0067 55.88 63.88 55.2067 63.88 53.86C63.88 52.5133 63.0067 51.84 61.26 51.84H58V55.88ZM58 62.06H61.6C63.36 62.06 64.24 61.3533 64.24 59.94C64.24 58.5267 63.36 57.82 61.6 57.82H58V62.06ZM73.8895 64.2C72.7829 64.2 71.8295 63.9933 71.0295 63.58C70.2295 63.1667 69.6095 62.58 69.1695 61.82C68.7429 61.06 68.5295 60.16 68.5295 59.12C68.5295 58.1067 68.7362 57.22 69.1495 56.46C69.5762 55.7 70.1562 55.1067 70.8895 54.68C71.6362 54.24 72.4829 54.02 73.4295 54.02C74.8162 54.02 75.9095 54.46 76.7095 55.34C77.5229 56.22 77.9295 57.42 77.9295 58.94C77.9295 59.4333 77.6095 59.68 76.9695 59.68H70.9295C71.1162 61.4267 72.1162 62.3 73.9295 62.3C74.2762 62.3 74.6629 62.26 75.0895 62.18C75.5295 62.0867 75.9429 61.9333 76.3295 61.72C76.6762 61.52 76.9695 61.46 77.2095 61.54C77.4495 61.6067 77.6162 61.7467 77.7095 61.96C77.8162 62.1733 77.8295 62.4133 77.7495 62.68C77.6829 62.9333 77.4962 63.1533 77.1895 63.34C76.7229 63.6333 76.1829 63.8533 75.5695 64C74.9695 64.1333 74.4095 64.2 73.8895 64.2ZM73.5295 55.72C72.7962 55.72 72.2029 55.9467 71.7495 56.4C71.2962 56.8533 71.0229 57.4667 70.9295 58.24H75.8495C75.7962 57.4267 75.5695 56.8067 75.1695 56.38C74.7829 55.94 74.2362 55.72 73.5295 55.72ZM84.4694 67.8C83.7494 67.8 83.0494 67.7333 82.3694 67.6C81.7027 67.4667 81.096 67.26 80.5494 66.98C80.2294 66.82 80.036 66.6133 79.9694 66.36C79.916 66.12 79.9427 65.8867 80.0494 65.66C80.156 65.4333 80.316 65.2667 80.5294 65.16C80.756 65.0667 80.996 65.08 81.2494 65.2C81.836 65.4933 82.3894 65.68 82.9094 65.76C83.4427 65.8533 83.896 65.9 84.2694 65.9C86.056 65.9 86.9494 65.04 86.9494 63.32V61.98C86.6694 62.5267 86.236 62.96 85.6494 63.28C85.076 63.6 84.436 63.76 83.7294 63.76C82.8494 63.76 82.0827 63.56 81.4294 63.16C80.776 62.7467 80.2694 62.1733 79.9094 61.44C79.5494 60.7067 79.3694 59.8533 79.3694 58.88C79.3694 57.9067 79.5494 57.06 79.9094 56.34C80.2694 55.6067 80.776 55.04 81.4294 54.64C82.0827 54.2267 82.8494 54.02 83.7294 54.02C84.436 54.02 85.076 54.1733 85.6494 54.48C86.2227 54.7867 86.6427 55.2067 86.9094 55.74V55.32C86.9094 54.9067 87.016 54.5933 87.2294 54.38C87.456 54.1667 87.7627 54.06 88.1494 54.06C88.976 54.06 89.3894 54.48 89.3894 55.32V63.02C89.3894 64.6067 88.9694 65.8 88.1294 66.6C87.2894 67.4 86.0694 67.8 84.4694 67.8ZM84.4094 61.86C85.1827 61.86 85.796 61.5933 86.2494 61.06C86.7027 60.5267 86.9294 59.8 86.9294 58.88C86.9294 57.96 86.7027 57.24 86.2494 56.72C85.796 56.1867 85.1827 55.92 84.4094 55.92C83.636 55.92 83.0227 56.1867 82.5694 56.72C82.116 57.24 81.8894 57.96 81.8894 58.88C81.8894 59.8 82.116 60.5267 82.5694 61.06C83.0227 61.5933 83.636 61.86 84.4094 61.86ZM93.2597 64.16C92.4064 64.16 91.9797 63.7333 91.9797 62.88V55.32C91.9797 54.48 92.3864 54.06 93.1997 54.06C94.013 54.06 94.4197 54.48 94.4197 55.32V55.94C94.8997 54.7933 95.9264 54.1533 97.4997 54.02C98.073 53.9533 98.393 54.28 98.4597 55C98.5264 55.7067 98.1797 56.1 97.4197 56.18L96.9797 56.22C95.3397 56.38 94.5197 57.22 94.5197 58.74V62.88C94.5197 63.7333 94.0997 64.16 93.2597 64.16ZM103.134 64.2C102.361 64.2 101.681 64.0667 101.094 63.8C100.521 63.52 100.074 63.1467 99.7541 62.68C99.4341 62.2133 99.2741 61.6867 99.2741 61.1C99.2741 60.38 99.4607 59.8133 99.8341 59.4C100.207 58.9733 100.814 58.6667 101.654 58.48C102.507 58.2933 103.654 58.2 105.094 58.2H105.734V57.78C105.734 57.1133 105.581 56.6333 105.274 56.34C104.981 56.0467 104.501 55.9 103.834 55.9C103.447 55.9 103.027 55.9467 102.574 56.04C102.134 56.1333 101.667 56.2933 101.174 56.52C100.854 56.6667 100.587 56.6867 100.374 56.58C100.161 56.46 100.014 56.28 99.9341 56.04C99.8674 55.7867 99.8807 55.5333 99.9741 55.28C100.081 55.0267 100.287 54.84 100.594 54.72C101.207 54.4667 101.794 54.2867 102.354 54.18C102.927 54.0733 103.447 54.02 103.914 54.02C105.554 54.02 106.667 54.5333 107.254 55.56C107.641 55.0533 108.134 54.6733 108.734 54.42C109.347 54.1533 109.967 54.02 110.594 54.02C111.954 54.02 113.034 54.46 113.834 55.34C114.634 56.2067 115.034 57.4 115.034 58.92V58.96C115.034 59.4133 114.714 59.64 114.074 59.64H108.154C108.327 61.4133 109.301 62.3 111.074 62.3C111.421 62.3 111.807 62.26 112.234 62.18C112.674 62.0867 113.087 61.9333 113.474 61.72C113.821 61.52 114.114 61.46 114.354 61.54C114.594 61.6067 114.761 61.7467 114.854 61.96C114.961 62.1733 114.974 62.4133 114.894 62.68C114.827 62.9333 114.641 63.1533 114.334 63.34C113.867 63.6333 113.327 63.8533 112.714 64C112.114 64.1333 111.554 64.2 111.034 64.2C110.047 64.2 109.181 64.02 108.434 63.66C107.687 63.3 107.121 62.7533 106.734 62.02C106.441 62.7133 105.981 63.2533 105.354 63.64C104.741 64.0133 104.001 64.2 103.134 64.2ZM110.654 55.72C109.961 55.72 109.394 55.9333 108.954 56.36C108.527 56.7867 108.267 57.4 108.174 58.2H112.954C112.901 57.4 112.681 56.7867 112.294 56.36C111.907 55.9333 111.361 55.72 110.654 55.72ZM103.474 62.48C104.141 62.48 104.681 62.2533 105.094 61.8C105.521 61.3333 105.734 60.7333 105.734 60V59.64H105.054C103.801 59.64 102.927 59.74 102.434 59.94C101.954 60.1267 101.714 60.4733 101.714 60.98C101.714 61.42 101.867 61.78 102.174 62.06C102.481 62.34 102.914 62.48 103.474 62.48ZM118.259 64.16C117.432 64.16 117.019 63.7333 117.019 62.88V55.32C117.019 54.48 117.425 54.06 118.239 54.06C119.052 54.06 119.459 54.48 119.459 55.32V55.74C119.792 55.18 120.239 54.7533 120.799 54.46C121.372 54.1667 122.012 54.02 122.719 54.02C125.025 54.02 126.179 55.36 126.179 58.04V62.88C126.179 63.7333 125.765 64.16 124.939 64.16C124.099 64.16 123.679 63.7333 123.679 62.88V58.16C123.679 57.4 123.532 56.8467 123.239 56.5C122.959 56.1533 122.519 55.98 121.919 55.98C121.185 55.98 120.599 56.2133 120.159 56.68C119.732 57.1333 119.519 57.74 119.519 58.5V62.88C119.519 63.7333 119.099 64.16 118.259 64.16ZM132.298 64.2C131.725 64.2 131.118 64.14 130.478 64.02C129.838 63.9 129.265 63.6933 128.758 63.4C128.478 63.24 128.305 63.0467 128.238 62.82C128.171 62.58 128.178 62.36 128.258 62.16C128.351 61.9467 128.498 61.7933 128.698 61.7C128.911 61.6067 129.158 61.6267 129.438 61.76C129.971 62.0133 130.471 62.1933 130.938 62.3C131.405 62.3933 131.865 62.44 132.318 62.44C132.958 62.44 133.431 62.3333 133.738 62.12C134.058 61.8933 134.218 61.6 134.218 61.24C134.218 60.68 133.805 60.32 132.978 60.16L130.978 59.78C129.285 59.46 128.438 58.58 128.438 57.14C128.438 56.5 128.611 55.9467 128.958 55.48C129.318 55.0133 129.811 54.6533 130.438 54.4C131.065 54.1467 131.785 54.02 132.598 54.02C133.771 54.02 134.818 54.28 135.738 54.8C135.991 54.9333 136.138 55.12 136.178 55.36C136.231 55.5867 136.205 55.8067 136.098 56.02C136.005 56.22 135.851 56.3667 135.638 56.46C135.425 56.54 135.178 56.5133 134.898 56.38C134.485 56.1667 134.085 56.0133 133.698 55.92C133.325 55.8267 132.965 55.78 132.618 55.78C131.965 55.78 131.478 55.8933 131.158 56.12C130.851 56.3467 130.698 56.6467 130.698 57.02C130.698 57.6067 131.078 57.9667 131.838 58.1L133.838 58.48C134.705 58.64 135.358 58.9333 135.798 59.36C136.251 59.7867 136.478 60.36 136.478 61.08C136.478 62.0533 136.098 62.82 135.338 63.38C134.578 63.9267 133.565 64.2 132.298 64.2ZM143.304 64.2C142.197 64.2 141.244 63.9933 140.444 63.58C139.644 63.1667 139.024 62.58 138.584 61.82C138.157 61.06 137.944 60.16 137.944 59.12C137.944 58.1067 138.15 57.22 138.564 56.46C138.99 55.7 139.57 55.1067 140.304 54.68C141.05 54.24 141.897 54.02 142.844 54.02C144.23 54.02 145.324 54.46 146.124 55.34C146.937 56.22 147.344 57.42 147.344 58.94C147.344 59.4333 147.024 59.68 146.384 59.68H140.344C140.53 61.4267 141.53 62.3 143.344 62.3C143.69 62.3 144.077 62.26 144.504 62.18C144.944 62.0867 145.357 61.9333 145.744 61.72C146.09 61.52 146.384 61.46 146.624 61.54C146.864 61.6067 147.03 61.7467 147.124 61.96C147.23 62.1733 147.244 62.4133 147.164 62.68C147.097 62.9333 146.91 63.1533 146.604 63.34C146.137 63.6333 145.597 63.8533 144.984 64C144.384 64.1333 143.824 64.2 143.304 64.2ZM142.944 55.72C142.21 55.72 141.617 55.9467 141.164 56.4C140.71 56.8533 140.437 57.4667 140.344 58.24H145.264C145.21 57.4267 144.984 56.8067 144.584 56.38C144.197 55.94 143.65 55.72 142.944 55.72ZM153.764 64.2C151.178 64.2 149.884 62.92 149.884 60.36V56.1H148.844C148.178 56.1 147.844 55.7867 147.844 55.16C147.844 54.5333 148.178 54.22 148.844 54.22H149.884V52.4C149.884 51.56 150.304 51.14 151.144 51.14C151.971 51.14 152.384 51.56 152.384 52.4V54.22H154.504C155.171 54.22 155.504 54.5333 155.504 55.16C155.504 55.7867 155.171 56.1 154.504 56.1H152.384V60.22C152.384 60.86 152.524 61.34 152.804 61.66C153.084 61.98 153.538 62.14 154.164 62.14C154.391 62.14 154.591 62.12 154.764 62.08C154.938 62.04 155.091 62.0133 155.224 62C155.384 61.9867 155.518 62.04 155.624 62.16C155.731 62.2667 155.784 62.4933 155.784 62.84C155.784 63.1067 155.738 63.3467 155.644 63.56C155.564 63.76 155.411 63.9 155.184 63.98C155.011 64.0333 154.784 64.08 154.504 64.12C154.224 64.1733 153.978 64.2 153.764 64.2ZM165.61 64.2C164.903 64.2 164.27 64.0667 163.71 63.8C163.163 63.52 162.73 63.1467 162.41 62.68C162.103 62.2133 161.95 61.6867 161.95 61.1C161.95 60.38 162.137 59.8133 162.51 59.4C162.883 58.9733 163.49 58.6667 164.33 58.48C165.17 58.2933 166.297 58.2 167.71 58.2H168.41V57.78C168.41 57.1133 168.263 56.6333 167.97 56.34C167.677 56.0467 167.183 55.9 166.49 55.9C166.103 55.9 165.683 55.9467 165.23 56.04C164.79 56.1333 164.323 56.2933 163.83 56.52C163.51 56.6667 163.243 56.6867 163.03 56.58C162.817 56.46 162.67 56.28 162.59 56.04C162.523 55.7867 162.537 55.5333 162.63 55.28C162.737 55.0267 162.943 54.84 163.25 54.72C163.863 54.4667 164.45 54.2867 165.01 54.18C165.583 54.0733 166.103 54.02 166.57 54.02C167.997 54.02 169.057 54.3533 169.75 55.02C170.443 55.6733 170.79 56.6933 170.79 58.08V62.88C170.79 63.7333 170.403 64.16 169.63 64.16C168.843 64.16 168.45 63.7333 168.45 62.88V62.44C168.223 62.9867 167.863 63.42 167.37 63.74C166.877 64.0467 166.29 64.2 165.61 64.2ZM166.13 62.48C166.783 62.48 167.323 62.2533 167.75 61.8C168.19 61.3467 168.41 60.7733 168.41 60.08V59.64H167.73C166.477 59.64 165.603 59.74 165.11 59.94C164.63 60.1267 164.39 60.4733 164.39 60.98C164.39 61.42 164.543 61.78 164.85 62.06C165.157 62.34 165.583 62.48 166.13 62.48ZM177.087 64.2C176.234 64.2 175.481 63.9933 174.827 63.58C174.187 63.1667 173.687 62.58 173.327 61.82C172.967 61.0467 172.787 60.14 172.787 59.1C172.787 58.0467 172.967 57.1467 173.327 56.4C173.687 55.64 174.187 55.0533 174.827 54.64C175.481 54.2267 176.234 54.02 177.087 54.02C177.781 54.02 178.407 54.1733 178.967 54.48C179.527 54.7867 179.947 55.1933 180.227 55.7V51C180.227 50.16 180.641 49.74 181.467 49.74C182.307 49.74 182.727 50.16 182.727 51V62.88C182.727 63.7333 182.314 64.16 181.487 64.16C180.661 64.16 180.247 63.7333 180.247 62.88V62.46C179.967 62.9933 179.547 63.42 178.987 63.74C178.427 64.0467 177.794 64.2 177.087 64.2ZM177.787 62.3C178.534 62.3 179.134 62.0333 179.587 61.5C180.041 60.9533 180.267 60.1533 180.267 59.1C180.267 58.0333 180.041 57.24 179.587 56.72C179.134 56.1867 178.534 55.92 177.787 55.92C177.041 55.92 176.441 56.1867 175.987 56.72C175.534 57.24 175.307 58.0333 175.307 59.1C175.307 60.1533 175.534 60.9533 175.987 61.5C176.441 62.0333 177.041 62.3 177.787 62.3ZM189.88 67.8C189.16 67.8 188.46 67.7333 187.78 67.6C187.113 67.4667 186.506 67.26 185.96 66.98C185.64 66.82 185.446 66.6133 185.38 66.36C185.326 66.12 185.353 65.8867 185.46 65.66C185.566 65.4333 185.726 65.2667 185.94 65.16C186.166 65.0667 186.406 65.08 186.66 65.2C187.246 65.4933 187.8 65.68 188.32 65.76C188.853 65.8533 189.306 65.9 189.68 65.9C191.466 65.9 192.36 65.04 192.36 63.32V61.98C192.08 62.5267 191.646 62.96 191.06 63.28C190.486 63.6 189.846 63.76 189.14 63.76C188.26 63.76 187.493 63.56 186.84 63.16C186.186 62.7467 185.68 62.1733 185.32 61.44C184.96 60.7067 184.78 59.8533 184.78 58.88C184.78 57.9067 184.96 57.06 185.32 56.34C185.68 55.6067 186.186 55.04 186.84 54.64C187.493 54.2267 188.26 54.02 189.14 54.02C189.846 54.02 190.486 54.1733 191.06 54.48C191.633 54.7867 192.053 55.2067 192.32 55.74V55.32C192.32 54.9067 192.426 54.5933 192.64 54.38C192.866 54.1667 193.173 54.06 193.56 54.06C194.386 54.06 194.8 54.48 194.8 55.32V63.02C194.8 64.6067 194.38 65.8 193.54 66.6C192.7 67.4 191.48 67.8 189.88 67.8ZM189.82 61.86C190.593 61.86 191.206 61.5933 191.66 61.06C192.113 60.5267 192.34 59.8 192.34 58.88C192.34 57.96 192.113 57.24 191.66 56.72C191.206 56.1867 190.593 55.92 189.82 55.92C189.046 55.92 188.433 56.1867 187.98 56.72C187.526 57.24 187.3 57.96 187.3 58.88C187.3 59.8 187.526 60.5267 187.98 61.06C188.433 61.5933 189.046 61.86 189.82 61.86ZM200.61 64.2C199.903 64.2 199.27 64.0667 198.71 63.8C198.163 63.52 197.73 63.1467 197.41 62.68C197.103 62.2133 196.95 61.6867 196.95 61.1C196.95 60.38 197.137 59.8133 197.51 59.4C197.883 58.9733 198.49 58.6667 199.33 58.48C200.17 58.2933 201.297 58.2 202.71 58.2H203.41V57.78C203.41 57.1133 203.263 56.6333 202.97 56.34C202.677 56.0467 202.183 55.9 201.49 55.9C201.103 55.9 200.683 55.9467 200.23 56.04C199.79 56.1333 199.323 56.2933 198.83 56.52C198.51 56.6667 198.243 56.6867 198.03 56.58C197.817 56.46 197.67 56.28 197.59 56.04C197.523 55.7867 197.537 55.5333 197.63 55.28C197.737 55.0267 197.943 54.84 198.25 54.72C198.863 54.4667 199.45 54.2867 200.01 54.18C200.583 54.0733 201.103 54.02 201.57 54.02C202.997 54.02 204.057 54.3533 204.75 55.02C205.443 55.6733 205.79 56.6933 205.79 58.08V62.88C205.79 63.7333 205.403 64.16 204.63 64.16C203.843 64.16 203.45 63.7333 203.45 62.88V62.44C203.223 62.9867 202.863 63.42 202.37 63.74C201.877 64.0467 201.29 64.2 200.61 64.2ZM201.13 62.48C201.783 62.48 202.323 62.2533 202.75 61.8C203.19 61.3467 203.41 60.7733 203.41 60.08V59.64H202.73C201.477 59.64 200.603 59.74 200.11 59.94C199.63 60.1267 199.39 60.4733 199.39 60.98C199.39 61.42 199.543 61.78 199.85 62.06C200.157 62.34 200.583 62.48 201.13 62.48ZM209.567 64.16C208.741 64.16 208.327 63.7333 208.327 62.88V55.32C208.327 54.48 208.734 54.06 209.547 54.06C210.361 54.06 210.767 54.48 210.767 55.32V55.74C211.101 55.18 211.547 54.7533 212.107 54.46C212.681 54.1667 213.321 54.02 214.027 54.02C216.334 54.02 217.487 55.36 217.487 58.04V62.88C217.487 63.7333 217.074 64.16 216.247 64.16C215.407 64.16 214.987 63.7333 214.987 62.88V58.16C214.987 57.4 214.841 56.8467 214.547 56.5C214.267 56.1533 213.827 55.98 213.227 55.98C212.494 55.98 211.907 56.2133 211.467 56.68C211.041 57.1333 210.827 57.74 210.827 58.5V62.88C210.827 63.7333 210.407 64.16 209.567 64.16ZM224.587 67.8C223.867 67.8 223.167 67.7333 222.487 67.6C221.82 67.4667 221.213 67.26 220.667 66.98C220.347 66.82 220.153 66.6133 220.087 66.36C220.033 66.12 220.06 65.8867 220.167 65.66C220.273 65.4333 220.433 65.2667 220.647 65.16C220.873 65.0667 221.113 65.08 221.367 65.2C221.953 65.4933 222.507 65.68 223.027 65.76C223.56 65.8533 224.013 65.9 224.387 65.9C226.173 65.9 227.067 65.04 227.067 63.32V61.98C226.787 62.5267 226.353 62.96 225.767 63.28C225.193 63.6 224.553 63.76 223.847 63.76C222.967 63.76 222.2 63.56 221.547 63.16C220.893 62.7467 220.387 62.1733 220.027 61.44C219.667 60.7067 219.487 59.8533 219.487 58.88C219.487 57.9067 219.667 57.06 220.027 56.34C220.387 55.6067 220.893 55.04 221.547 54.64C222.2 54.2267 222.967 54.02 223.847 54.02C224.553 54.02 225.193 54.1733 225.767 54.48C226.34 54.7867 226.76 55.2067 227.027 55.74V55.32C227.027 54.9067 227.133 54.5933 227.347 54.38C227.573 54.1667 227.88 54.06 228.267 54.06C229.093 54.06 229.507 54.48 229.507 55.32V63.02C229.507 64.6067 229.087 65.8 228.247 66.6C227.407 67.4 226.187 67.8 224.587 67.8ZM224.527 61.86C225.3 61.86 225.913 61.5933 226.367 61.06C226.82 60.5267 227.047 59.8 227.047 58.88C227.047 57.96 226.82 57.24 226.367 56.72C225.913 56.1867 225.3 55.92 224.527 55.92C223.753 55.92 223.14 56.1867 222.687 56.72C222.233 57.24 222.007 57.96 222.007 58.88C222.007 59.8 222.233 60.5267 222.687 61.06C223.14 61.5933 223.753 61.86 224.527 61.86Z" fill="black"/>
<defs>
<filter id="filter0_dddd_257_782" x="0" y="0" width="284" height="191" filterUnits="userSpaceOnUse" color-interpolation-filters="sRGB">
<feFlood flood-opacity="0" result="BackgroundImageFix"/>
<feColorMatrix in="SourceAlpha" type="matrix" values="0 0 0 0 0 0 0 0 0 0 0 0 0 0 0 0 0 0 127 0" result="hardAlpha"/>
<feOffset dy="-4"/>
<feGaussianBlur stdDeviation="2"/>
<feComposite in2="hardAlpha" operator="out"/>
<feColorMatrix type="matrix" values="0 0 0 0 0 0 0 0 0 0 0 0 0 0 0 0 0 0 0.12 0"/>
<feBlend mode="normal" in2="BackgroundImageFix" result="effect1_dropShadow_257_782"/>
<feColorMatrix in="SourceAlpha" type="matrix" values="0 0 0 0 0 0 0 0 0 0 0 0 0 0 0 0 0 0 127 0" result="hardAlpha"/>
<feOffset dx="4"/>
<feGaussianBlur stdDeviation="2"/>
<feComposite in2="hardAlpha" operator="out"/>
<feColorMatrix type="matrix" values="0 0 0 0 0 0 0 0 0 0 0 0 0 0 0 0 0 0 0.12 0"/>
<feBlend mode="normal" in2="effect1_dropShadow_257_782" result="effect2_dropShadow_257_782"/>
<feColorMatrix in="SourceAlpha" type="matrix" values="0 0 0 0 0 0 0 0 0 0 0 0 0 0 0 0 0 0 127 0" result="hardAlpha"/>
<feOffset dy="4"/>
<feGaussianBlur stdDeviation="2"/>
<feComposite in2="hardAlpha" operator="out"/>
<feColorMatrix type="matrix" values="0 0 0 0 0 0 0 0 0 0 0 0 0 0 0 0 0 0 0.25 0"/>
<feBlend mode="normal" in2="effect2_dropShadow_257_782" result="effect3_dropShadow_257_782"/>
<feColorMatrix in="SourceAlpha" type="matrix" values="0 0 0 0 0 0 0 0 0 0 0 0 0 0 0 0 0 0 127 0" result="hardAlpha"/>
<feOffset dx="-4"/>
<feGaussianBlur stdDeviation="2"/>
<feComposite in2="hardAlpha" operator="out"/>
<feColorMatrix type="matrix" values="0 0 0 0 0 0 0 0 0 0 0 0 0 0 0 0 0 0 0.12 0"/>
<feBlend mode="normal" in2="effect3_dropShadow_257_782" result="effect4_dropShadow_257_782"/>
<feBlend mode="normal" in="SourceGraphic" in2="effect4_dropShadow_257_782" result="shape"/>
</filter>
</defs>
</svg>
