<svg width="284" height="191" viewBox="0 0 284 191" fill="none" xmlns="http://www.w3.org/2000/svg">
<g filter="url(#filter0_dddd_257_796)">
<rect x="8" y="8" width="268" height="175" rx="15" fill="#A5FFA4"/>
</g>
<path d="M65.5723 94C65.1223 94 64.8973 93.775 64.8973 93.325V84.1C64.8973 83.65 65.1223 83.425 65.5723 83.425H68.4673C70.1773 83.425 71.4973 83.88 72.4273 84.79C73.3573 85.69 73.8223 86.995 73.8223 88.705C73.8223 90.415 73.3573 91.725 72.4273 92.635C71.4973 93.545 70.1773 94 68.4673 94H65.5723ZM66.1273 92.95H68.3773C71.1373 92.95 72.5173 91.535 72.5173 88.705C72.5173 85.885 71.1373 84.475 68.3773 84.475H66.1273V92.95ZM78.4451 94.135C76.6951 94.135 75.8201 93.17 75.8201 91.24V87.22C75.8201 86.81 76.0201 86.605 76.4201 86.605C76.8301 86.605 77.0351 86.81 77.0351 87.22V91.225C77.0351 91.875 77.1651 92.355 77.4251 92.665C77.6951 92.975 78.1151 93.13 78.6851 93.13C79.3051 93.13 79.8101 92.925 80.2001 92.515C80.5901 92.095 80.7851 91.54 80.7851 90.85V87.22C80.7851 86.81 80.9901 86.605 81.4001 86.605C81.8001 86.605 82.0001 86.81 82.0001 87.22V93.475C82.0001 93.895 81.8051 94.105 81.4151 94.105C81.0151 94.105 80.8151 93.895 80.8151 93.475V92.77C80.5851 93.21 80.2601 93.55 79.8401 93.79C79.4301 94.02 78.9651 94.135 78.4451 94.135ZM88.7405 94.105C88.3405 94.105 88.1405 93.895 88.1405 93.475V83.935C88.1405 83.525 88.3405 83.32 88.7405 83.32C89.1505 83.32 89.3555 83.525 89.3555 83.935V87.91C89.5955 87.47 89.9305 87.14 90.3605 86.92C90.8005 86.69 91.2905 86.575 91.8305 86.575C93.5605 86.575 94.4255 87.535 94.4255 89.455V93.475C94.4255 93.895 94.2255 94.105 93.8255 94.105C93.4155 94.105 93.2105 93.895 93.2105 93.475V89.53C93.2105 88.85 93.0755 88.355 92.8055 88.045C92.5455 87.725 92.1255 87.565 91.5455 87.565C90.8755 87.565 90.3405 87.775 89.9405 88.195C89.5505 88.605 89.3555 89.155 89.3555 89.845V93.475C89.3555 93.895 89.1505 94.105 88.7405 94.105ZM98.9609 94.135C98.4609 94.135 98.0109 94.04 97.6109 93.85C97.2209 93.65 96.9109 93.38 96.6809 93.04C96.4509 92.7 96.3359 92.32 96.3359 91.9C96.3359 91.37 96.4709 90.95 96.7409 90.64C97.0209 90.33 97.4759 90.11 98.1059 89.98C98.7459 89.84 99.6159 89.77 100.716 89.77H101.196V89.305C101.196 88.685 101.066 88.24 100.806 87.97C100.556 87.69 100.151 87.55 99.5909 87.55C99.2409 87.55 98.8859 87.595 98.5259 87.685C98.1759 87.775 97.8109 87.92 97.4309 88.12C97.2609 88.21 97.1159 88.23 96.9959 88.18C96.8859 88.12 96.8059 88.03 96.7559 87.91C96.7159 87.78 96.7159 87.65 96.7559 87.52C96.8059 87.38 96.9059 87.275 97.0559 87.205C97.4859 86.985 97.9159 86.825 98.3459 86.725C98.7859 86.625 99.2009 86.575 99.5909 86.575C100.531 86.575 101.226 86.805 101.676 87.265C102.136 87.725 102.366 88.44 102.366 89.41V93.475C102.366 93.895 102.181 94.105 101.811 94.105C101.421 94.105 101.226 93.895 101.226 93.475V92.74C101.036 93.17 100.741 93.51 100.341 93.76C99.9509 94.01 99.4909 94.135 98.9609 94.135ZM99.1559 93.22C99.7559 93.22 100.246 93.015 100.626 92.605C101.006 92.185 101.196 91.655 101.196 91.015V90.565H100.731C99.9209 90.565 99.2809 90.605 98.8109 90.685C98.3509 90.755 98.0259 90.885 97.8359 91.075C97.6559 91.255 97.5659 91.505 97.5659 91.825C97.5659 92.235 97.7059 92.57 97.9859 92.83C98.2759 93.09 98.6659 93.22 99.1559 93.22ZM105.235 94.105C104.825 94.105 104.62 93.895 104.62 93.475V87.22C104.62 86.81 104.815 86.605 105.205 86.605C105.605 86.605 105.805 86.81 105.805 87.22V88.015C106.005 87.555 106.315 87.205 106.735 86.965C107.155 86.715 107.655 86.58 108.235 86.56C108.555 86.53 108.725 86.69 108.745 87.04C108.775 87.39 108.595 87.585 108.205 87.625L107.965 87.655C107.275 87.715 106.75 87.935 106.39 88.315C106.03 88.685 105.85 89.195 105.85 89.845V93.475C105.85 93.895 105.645 94.105 105.235 94.105ZM116.158 94.135C115.658 94.135 115.208 94.04 114.808 93.85C114.418 93.65 114.108 93.38 113.878 93.04C113.648 92.7 113.533 92.32 113.533 91.9C113.533 91.37 113.668 90.95 113.938 90.64C114.218 90.33 114.673 90.11 115.303 89.98C115.943 89.84 116.813 89.77 117.913 89.77H118.393V89.305C118.393 88.685 118.263 88.24 118.003 87.97C117.753 87.69 117.348 87.55 116.788 87.55C116.438 87.55 116.083 87.595 115.723 87.685C115.373 87.775 115.008 87.92 114.628 88.12C114.458 88.21 114.313 88.23 114.193 88.18C114.083 88.12 114.003 88.03 113.953 87.91C113.913 87.78 113.913 87.65 113.953 87.52C114.003 87.38 114.103 87.275 114.253 87.205C114.683 86.985 115.113 86.825 115.543 86.725C115.983 86.625 116.398 86.575 116.788 86.575C117.728 86.575 118.423 86.805 118.873 87.265C119.333 87.725 119.563 88.44 119.563 89.41V93.475C119.563 93.895 119.378 94.105 119.008 94.105C118.618 94.105 118.423 93.895 118.423 93.475V92.74C118.233 93.17 117.938 93.51 117.538 93.76C117.148 94.01 116.688 94.135 116.158 94.135ZM116.353 93.22C116.953 93.22 117.443 93.015 117.823 92.605C118.203 92.185 118.393 91.655 118.393 91.015V90.565H117.928C117.118 90.565 116.478 90.605 116.008 90.685C115.548 90.755 115.223 90.885 115.033 91.075C114.853 91.255 114.763 91.505 114.763 91.825C114.763 92.235 114.903 92.57 115.183 92.83C115.473 93.09 115.863 93.22 116.353 93.22ZM124.592 94.135C123.942 94.135 123.372 93.98 122.882 93.67C122.402 93.36 122.027 92.925 121.757 92.365C121.497 91.795 121.367 91.125 121.367 90.355C121.367 89.575 121.497 88.905 121.757 88.345C122.027 87.775 122.402 87.34 122.882 87.04C123.372 86.73 123.942 86.575 124.592 86.575C125.162 86.575 125.662 86.7 126.092 86.95C126.532 87.2 126.857 87.545 127.067 87.985V83.935C127.067 83.525 127.272 83.32 127.682 83.32C128.082 83.32 128.282 83.525 128.282 83.935V93.475C128.282 93.895 128.082 94.105 127.682 94.105C127.282 94.105 127.082 93.895 127.082 93.475V92.695C126.862 93.145 126.532 93.5 126.092 93.76C125.662 94.01 125.162 94.135 124.592 94.135ZM124.847 93.16C125.527 93.16 126.072 92.92 126.482 92.44C126.892 91.95 127.097 91.255 127.097 90.355C127.097 89.445 126.892 88.75 126.482 88.27C126.072 87.79 125.527 87.55 124.847 87.55C124.157 87.55 123.607 87.79 123.197 88.27C122.797 88.75 122.597 89.445 122.597 90.355C122.597 91.255 122.797 91.95 123.197 92.44C123.607 92.92 124.157 93.16 124.847 93.16ZM133.787 96.835C133.257 96.835 132.737 96.77 132.227 96.64C131.727 96.52 131.272 96.325 130.862 96.055C130.712 95.965 130.622 95.855 130.592 95.725C130.572 95.605 130.592 95.485 130.652 95.365C130.712 95.255 130.797 95.175 130.907 95.125C131.027 95.075 131.152 95.085 131.282 95.155C131.722 95.425 132.142 95.61 132.542 95.71C132.942 95.81 133.337 95.86 133.727 95.86C135.167 95.86 135.887 95.12 135.887 93.64V92.35C135.677 92.81 135.347 93.175 134.897 93.445C134.457 93.705 133.952 93.835 133.382 93.835C132.712 93.835 132.132 93.68 131.642 93.37C131.152 93.06 130.772 92.635 130.502 92.095C130.242 91.545 130.112 90.91 130.112 90.19C130.112 89.47 130.242 88.84 130.502 88.3C130.772 87.75 131.152 87.325 131.642 87.025C132.132 86.725 132.712 86.575 133.382 86.575C133.952 86.575 134.457 86.7 134.897 86.95C135.337 87.2 135.662 87.55 135.872 88V87.22C135.872 86.81 136.072 86.605 136.472 86.605C136.872 86.605 137.072 86.81 137.072 87.22V93.475C137.072 94.595 136.792 95.435 136.232 95.995C135.682 96.555 134.867 96.835 133.787 96.835ZM133.607 92.845C134.307 92.845 134.862 92.605 135.272 92.125C135.682 91.645 135.887 91 135.887 90.19C135.887 89.38 135.682 88.74 135.272 88.27C134.862 87.79 134.307 87.55 133.607 87.55C132.917 87.55 132.367 87.79 131.957 88.27C131.547 88.74 131.342 89.38 131.342 90.19C131.342 91 131.547 91.645 131.957 92.125C132.367 92.605 132.917 92.845 133.607 92.845ZM141.646 94.135C141.146 94.135 140.696 94.04 140.296 93.85C139.906 93.65 139.596 93.38 139.366 93.04C139.136 92.7 139.021 92.32 139.021 91.9C139.021 91.37 139.156 90.95 139.426 90.64C139.706 90.33 140.161 90.11 140.791 89.98C141.431 89.84 142.301 89.77 143.401 89.77H143.881V89.305C143.881 88.685 143.751 88.24 143.491 87.97C143.241 87.69 142.836 87.55 142.276 87.55C141.926 87.55 141.571 87.595 141.211 87.685C140.861 87.775 140.496 87.92 140.116 88.12C139.946 88.21 139.801 88.23 139.681 88.18C139.571 88.12 139.491 88.03 139.441 87.91C139.401 87.78 139.401 87.65 139.441 87.52C139.491 87.38 139.591 87.275 139.741 87.205C140.171 86.985 140.601 86.825 141.031 86.725C141.471 86.625 141.886 86.575 142.276 86.575C143.216 86.575 143.911 86.805 144.361 87.265C144.821 87.725 145.051 88.44 145.051 89.41V93.475C145.051 93.895 144.866 94.105 144.496 94.105C144.106 94.105 143.911 93.895 143.911 93.475V92.74C143.721 93.17 143.426 93.51 143.026 93.76C142.636 94.01 142.176 94.135 141.646 94.135ZM141.841 93.22C142.441 93.22 142.931 93.015 143.311 92.605C143.691 92.185 143.881 91.655 143.881 91.015V90.565H143.416C142.606 90.565 141.966 90.605 141.496 90.685C141.036 90.755 140.711 90.885 140.521 91.075C140.341 91.255 140.251 91.505 140.251 91.825C140.251 92.235 140.391 92.57 140.671 92.83C140.961 93.09 141.351 93.22 141.841 93.22ZM147.906 94.105C147.506 94.105 147.306 93.895 147.306 93.475V87.22C147.306 86.81 147.501 86.605 147.891 86.605C148.291 86.605 148.491 86.81 148.491 87.22V87.955C148.731 87.495 149.071 87.15 149.511 86.92C149.951 86.69 150.446 86.575 150.996 86.575C152.726 86.575 153.591 87.535 153.591 89.455V93.475C153.591 93.895 153.391 94.105 152.991 94.105C152.581 94.105 152.376 93.895 152.376 93.475V89.53C152.376 88.85 152.241 88.355 151.971 88.045C151.711 87.725 151.291 87.565 150.711 87.565C150.041 87.565 149.506 87.775 149.106 88.195C148.716 88.605 148.521 89.155 148.521 89.845V93.475C148.521 93.895 148.316 94.105 147.906 94.105ZM159.056 96.835C158.526 96.835 158.006 96.77 157.496 96.64C156.996 96.52 156.541 96.325 156.131 96.055C155.981 95.965 155.891 95.855 155.861 95.725C155.841 95.605 155.861 95.485 155.921 95.365C155.981 95.255 156.066 95.175 156.176 95.125C156.296 95.075 156.421 95.085 156.551 95.155C156.991 95.425 157.411 95.61 157.811 95.71C158.211 95.81 158.606 95.86 158.996 95.86C160.436 95.86 161.156 95.12 161.156 93.64V92.35C160.946 92.81 160.616 93.175 160.166 93.445C159.726 93.705 159.221 93.835 158.651 93.835C157.981 93.835 157.401 93.68 156.911 93.37C156.421 93.06 156.041 92.635 155.771 92.095C155.511 91.545 155.381 90.91 155.381 90.19C155.381 89.47 155.511 88.84 155.771 88.3C156.041 87.75 156.421 87.325 156.911 87.025C157.401 86.725 157.981 86.575 158.651 86.575C159.221 86.575 159.726 86.7 160.166 86.95C160.606 87.2 160.931 87.55 161.141 88V87.22C161.141 86.81 161.341 86.605 161.741 86.605C162.141 86.605 162.341 86.81 162.341 87.22V93.475C162.341 94.595 162.061 95.435 161.501 95.995C160.951 96.555 160.136 96.835 159.056 96.835ZM158.876 92.845C159.576 92.845 160.131 92.605 160.541 92.125C160.951 91.645 161.156 91 161.156 90.19C161.156 89.38 160.951 88.74 160.541 88.27C160.131 87.79 159.576 87.55 158.876 87.55C158.186 87.55 157.636 87.79 157.226 88.27C156.816 88.74 156.611 89.38 156.611 90.19C156.611 91 156.816 91.645 157.226 92.125C157.636 92.605 158.186 92.845 158.876 92.845ZM171.412 94.135C170.552 94.135 169.907 93.91 169.477 93.46C169.047 93 168.832 92.34 168.832 91.48V87.655H167.827C167.477 87.655 167.302 87.495 167.302 87.175C167.302 86.865 167.477 86.71 167.827 86.71H168.832V84.985C168.832 84.575 169.037 84.37 169.447 84.37C169.847 84.37 170.047 84.575 170.047 84.985V86.71H171.937C172.287 86.71 172.462 86.865 172.462 87.175C172.462 87.495 172.287 87.655 171.937 87.655H170.047V91.36C170.047 91.93 170.167 92.365 170.407 92.665C170.647 92.955 171.037 93.1 171.577 93.1C171.767 93.1 171.927 93.08 172.057 93.04C172.187 93 172.302 92.98 172.402 92.98C172.492 92.97 172.567 93 172.627 93.07C172.687 93.14 172.717 93.26 172.717 93.43C172.717 93.55 172.692 93.66 172.642 93.76C172.602 93.86 172.527 93.93 172.417 93.97C172.297 94.01 172.137 94.045 171.937 94.075C171.747 94.115 171.572 94.135 171.412 94.135ZM174.419 84.955C173.889 84.955 173.624 84.705 173.624 84.205C173.624 83.715 173.889 83.47 174.419 83.47C174.949 83.47 175.214 83.715 175.214 84.205C175.214 84.705 174.949 84.955 174.419 84.955ZM174.419 94.075C174.019 94.075 173.819 93.855 173.819 93.415V87.28C173.819 86.85 174.019 86.635 174.419 86.635C174.829 86.635 175.034 86.85 175.034 87.28V93.415C175.034 93.855 174.829 94.075 174.419 94.075ZM179.526 94.135C178.806 94.135 178.256 93.92 177.876 93.49C177.496 93.05 177.306 92.415 177.306 91.585V83.935C177.306 83.525 177.506 83.32 177.906 83.32C178.316 83.32 178.521 83.525 178.521 83.935V91.495C178.521 92.565 178.946 93.1 179.796 93.1C179.886 93.1 179.966 93.095 180.036 93.085C180.106 93.075 180.176 93.07 180.246 93.07C180.356 93.06 180.431 93.085 180.471 93.145C180.521 93.205 180.546 93.325 180.546 93.505C180.546 93.845 180.376 94.04 180.036 94.09C179.956 94.11 179.871 94.12 179.781 94.12C179.691 94.13 179.606 94.135 179.526 94.135ZM188.386 94.135C187.736 94.135 187.166 93.98 186.676 93.67C186.196 93.36 185.821 92.925 185.551 92.365C185.291 91.795 185.161 91.125 185.161 90.355C185.161 89.575 185.291 88.905 185.551 88.345C185.821 87.775 186.196 87.34 186.676 87.04C187.166 86.73 187.736 86.575 188.386 86.575C188.956 86.575 189.456 86.7 189.886 86.95C190.326 87.2 190.651 87.545 190.861 87.985V83.935C190.861 83.525 191.066 83.32 191.476 83.32C191.876 83.32 192.076 83.525 192.076 83.935V93.475C192.076 93.895 191.876 94.105 191.476 94.105C191.076 94.105 190.876 93.895 190.876 93.475V92.695C190.656 93.145 190.326 93.5 189.886 93.76C189.456 94.01 188.956 94.135 188.386 94.135ZM188.641 93.16C189.321 93.16 189.866 92.92 190.276 92.44C190.686 91.95 190.891 91.255 190.891 90.355C190.891 89.445 190.686 88.75 190.276 88.27C189.866 87.79 189.321 87.55 188.641 87.55C187.951 87.55 187.401 87.79 186.991 88.27C186.591 88.75 186.391 89.445 186.391 90.355C186.391 91.255 186.591 91.95 186.991 92.44C187.401 92.92 187.951 93.16 188.641 93.16ZM197.641 94.135C196.491 94.135 195.581 93.8 194.911 93.13C194.241 92.45 193.906 91.53 193.906 90.37C193.906 89.62 194.056 88.96 194.356 88.39C194.656 87.81 195.066 87.365 195.586 87.055C196.116 86.735 196.726 86.575 197.416 86.575C198.406 86.575 199.181 86.895 199.741 87.535C200.301 88.165 200.581 89.035 200.581 90.145C200.581 90.455 200.406 90.61 200.056 90.61H195.091C195.131 91.44 195.371 92.075 195.811 92.515C196.251 92.945 196.861 93.16 197.641 93.16C197.971 93.16 198.306 93.12 198.646 93.04C198.986 92.95 199.316 92.795 199.636 92.575C199.866 92.425 200.056 92.395 200.206 92.485C200.366 92.575 200.446 92.715 200.446 92.905C200.456 93.085 200.356 93.245 200.146 93.385C199.816 93.625 199.421 93.81 198.961 93.94C198.511 94.07 198.071 94.135 197.641 94.135ZM197.446 87.475C196.756 87.475 196.211 87.69 195.811 88.12C195.411 88.55 195.176 89.115 195.106 89.815H199.531C199.501 89.075 199.306 88.5 198.946 88.09C198.596 87.68 198.096 87.475 197.446 87.475ZM205.265 94.135C204.405 94.135 203.76 93.91 203.33 93.46C202.9 93 202.685 92.34 202.685 91.48V87.655H201.68C201.33 87.655 201.155 87.495 201.155 87.175C201.155 86.865 201.33 86.71 201.68 86.71H202.685V84.985C202.685 84.575 202.89 84.37 203.3 84.37C203.7 84.37 203.9 84.575 203.9 84.985V86.71H205.79C206.14 86.71 206.315 86.865 206.315 87.175C206.315 87.495 206.14 87.655 205.79 87.655H203.9V91.36C203.9 91.93 204.02 92.365 204.26 92.665C204.5 92.955 204.89 93.1 205.43 93.1C205.62 93.1 205.78 93.08 205.91 93.04C206.04 93 206.155 92.98 206.255 92.98C206.345 92.97 206.42 93 206.48 93.07C206.54 93.14 206.57 93.26 206.57 93.43C206.57 93.55 206.545 93.66 206.495 93.76C206.455 93.86 206.38 93.93 206.27 93.97C206.15 94.01 205.99 94.045 205.79 94.075C205.6 94.115 205.425 94.135 205.265 94.135ZM210.318 94.135C209.458 94.135 208.813 93.91 208.383 93.46C207.953 93 207.738 92.34 207.738 91.48V87.655H206.733C206.383 87.655 206.208 87.495 206.208 87.175C206.208 86.865 206.383 86.71 206.733 86.71H207.738V84.985C207.738 84.575 207.943 84.37 208.353 84.37C208.753 84.37 208.953 84.575 208.953 84.985V86.71H210.843C211.193 86.71 211.368 86.865 211.368 87.175C211.368 87.495 211.193 87.655 210.843 87.655H208.953V91.36C208.953 91.93 209.073 92.365 209.313 92.665C209.553 92.955 209.943 93.1 210.483 93.1C210.673 93.1 210.833 93.08 210.963 93.04C211.093 93 211.208 92.98 211.308 92.98C211.398 92.97 211.473 93 211.533 93.07C211.593 93.14 211.623 93.26 211.623 93.43C211.623 93.55 211.598 93.66 211.548 93.76C211.508 93.86 211.433 93.93 211.323 93.97C211.203 94.01 211.043 94.045 210.843 94.075C210.653 94.115 210.478 94.135 210.318 94.135ZM215.849 94.135C214.699 94.135 213.789 93.8 213.119 93.13C212.449 92.45 212.114 91.53 212.114 90.37C212.114 89.62 212.264 88.96 212.564 88.39C212.864 87.81 213.274 87.365 213.794 87.055C214.324 86.735 214.934 86.575 215.624 86.575C216.614 86.575 217.389 86.895 217.949 87.535C218.509 88.165 218.789 89.035 218.789 90.145C218.789 90.455 218.614 90.61 218.264 90.61H213.299C213.339 91.44 213.579 92.075 214.019 92.515C214.459 92.945 215.069 93.16 215.849 93.16C216.179 93.16 216.514 93.12 216.854 93.04C217.194 92.95 217.524 92.795 217.844 92.575C218.074 92.425 218.264 92.395 218.414 92.485C218.574 92.575 218.654 92.715 218.654 92.905C218.664 93.085 218.564 93.245 218.354 93.385C218.024 93.625 217.629 93.81 217.169 93.94C216.719 94.07 216.279 94.135 215.849 94.135ZM215.654 87.475C214.964 87.475 214.419 87.69 214.019 88.12C213.619 88.55 213.384 89.115 213.314 89.815H217.739C217.709 89.075 217.514 88.5 217.154 88.09C216.804 87.68 216.304 87.475 215.654 87.475ZM52.2306 113.135C51.5106 113.135 50.9606 112.92 50.5806 112.49C50.2006 112.05 50.0106 111.415 50.0106 110.585V102.935C50.0106 102.525 50.2106 102.32 50.6106 102.32C51.0206 102.32 51.2256 102.525 51.2256 102.935V110.495C51.2256 111.565 51.6506 112.1 52.5006 112.1C52.5906 112.1 52.6706 112.095 52.7406 112.085C52.8106 112.075 52.8806 112.07 52.9506 112.07C53.0606 112.06 53.1356 112.085 53.1756 112.145C53.2256 112.205 53.2506 112.325 53.2506 112.505C53.2506 112.845 53.0806 113.04 52.7406 113.09C52.6606 113.11 52.5756 113.12 52.4856 113.12C52.3956 113.13 52.3106 113.135 52.2306 113.135ZM57.4058 113.135C56.6958 113.135 56.0808 112.98 55.5608 112.67C55.0408 112.36 54.6358 111.925 54.3458 111.365C54.0658 110.795 53.9258 110.125 53.9258 109.355C53.9258 108.585 54.0658 107.92 54.3458 107.36C54.6358 106.79 55.0408 106.35 55.5608 106.04C56.0808 105.73 56.6958 105.575 57.4058 105.575C58.1058 105.575 58.7158 105.73 59.2358 106.04C59.7658 106.35 60.1708 106.79 60.4508 107.36C60.7408 107.92 60.8858 108.585 60.8858 109.355C60.8858 110.125 60.7408 110.795 60.4508 111.365C60.1708 111.925 59.7658 112.36 59.2358 112.67C58.7158 112.98 58.1058 113.135 57.4058 113.135ZM57.4058 112.16C58.0858 112.16 58.6308 111.92 59.0408 111.44C59.4508 110.95 59.6558 110.255 59.6558 109.355C59.6558 108.445 59.4508 107.75 59.0408 107.27C58.6308 106.79 58.0858 106.55 57.4058 106.55C56.7158 106.55 56.1658 106.79 55.7558 107.27C55.3558 107.75 55.1558 108.445 55.1558 109.355C55.1558 110.255 55.3558 110.95 55.7558 111.44C56.1658 111.92 56.7158 112.16 57.4058 112.16ZM63.3108 113.105C62.9108 113.105 62.7108 112.895 62.7108 112.475V102.935C62.7108 102.525 62.9108 102.32 63.3108 102.32C63.7208 102.32 63.9258 102.525 63.9258 102.935V108.95H63.9558L67.0308 106.01C67.1608 105.88 67.2808 105.78 67.3908 105.71C67.5008 105.64 67.6458 105.605 67.8258 105.605C68.0658 105.605 68.2208 105.7 68.2908 105.89C68.3708 106.07 68.3208 106.255 68.1408 106.445L65.2158 109.22L68.4258 112.235C68.6358 112.435 68.6908 112.63 68.5908 112.82C68.5008 113.01 68.3458 113.105 68.1258 113.105C67.9458 113.105 67.7958 113.07 67.6758 113C67.5658 112.92 67.4358 112.805 67.2858 112.655L63.9558 109.58H63.9258V112.475C63.9258 112.895 63.7208 113.105 63.3108 113.105ZM72.4326 113.135C71.9326 113.135 71.4826 113.04 71.0826 112.85C70.6926 112.65 70.3826 112.38 70.1526 112.04C69.9226 111.7 69.8076 111.32 69.8076 110.9C69.8076 110.37 69.9426 109.95 70.2126 109.64C70.4926 109.33 70.9476 109.11 71.5776 108.98C72.2176 108.84 73.0876 108.77 74.1876 108.77H74.6676V108.305C74.6676 107.685 74.5376 107.24 74.2776 106.97C74.0276 106.69 73.6226 106.55 73.0626 106.55C72.7126 106.55 72.3576 106.595 71.9976 106.685C71.6476 106.775 71.2826 106.92 70.9026 107.12C70.7326 107.21 70.5876 107.23 70.4676 107.18C70.3576 107.12 70.2776 107.03 70.2276 106.91C70.1876 106.78 70.1876 106.65 70.2276 106.52C70.2776 106.38 70.3776 106.275 70.5276 106.205C70.9576 105.985 71.3876 105.825 71.8176 105.725C72.2576 105.625 72.6726 105.575 73.0626 105.575C74.0026 105.575 74.6976 105.805 75.1476 106.265C75.6076 106.725 75.8376 107.44 75.8376 108.41V112.475C75.8376 112.895 75.6526 113.105 75.2826 113.105C74.8926 113.105 74.6976 112.895 74.6976 112.475V111.74C74.5076 112.17 74.2126 112.51 73.8126 112.76C73.4226 113.01 72.9626 113.135 72.4326 113.135ZM72.6276 112.22C73.2276 112.22 73.7176 112.015 74.0976 111.605C74.4776 111.185 74.6676 110.655 74.6676 110.015V109.565H74.2026C73.3926 109.565 72.7526 109.605 72.2826 109.685C71.8226 109.755 71.4976 109.885 71.3076 110.075C71.1276 110.255 71.0376 110.505 71.0376 110.825C71.0376 111.235 71.1776 111.57 71.4576 111.83C71.7476 112.09 72.1376 112.22 72.6276 112.22ZM80.3117 113.135C79.5917 113.135 79.0417 112.92 78.6617 112.49C78.2817 112.05 78.0917 111.415 78.0917 110.585V102.935C78.0917 102.525 78.2917 102.32 78.6917 102.32C79.1017 102.32 79.3067 102.525 79.3067 102.935V110.495C79.3067 111.565 79.7317 112.1 80.5817 112.1C80.6717 112.1 80.7517 112.095 80.8217 112.085C80.8917 112.075 80.9617 112.07 81.0317 112.07C81.1417 112.06 81.2167 112.085 81.2567 112.145C81.3067 112.205 81.3317 112.325 81.3317 112.505C81.3317 112.845 81.1617 113.04 80.8217 113.09C80.7417 113.11 80.6567 113.12 80.5667 113.12C80.4767 113.13 80.3917 113.135 80.3117 113.135ZM85.7419 113.135C84.5919 113.135 83.6819 112.8 83.0119 112.13C82.3419 111.45 82.0069 110.53 82.0069 109.37C82.0069 108.62 82.1569 107.96 82.4569 107.39C82.7569 106.81 83.1669 106.365 83.6869 106.055C84.2169 105.735 84.8269 105.575 85.5169 105.575C86.5069 105.575 87.2819 105.895 87.8419 106.535C88.4019 107.165 88.6819 108.035 88.6819 109.145C88.6819 109.455 88.5069 109.61 88.1569 109.61H83.1919C83.2319 110.44 83.4719 111.075 83.9119 111.515C84.3519 111.945 84.9619 112.16 85.7419 112.16C86.0719 112.16 86.4069 112.12 86.7469 112.04C87.0869 111.95 87.4169 111.795 87.7369 111.575C87.9669 111.425 88.1569 111.395 88.3069 111.485C88.4669 111.575 88.5469 111.715 88.5469 111.905C88.5569 112.085 88.4569 112.245 88.2469 112.385C87.9169 112.625 87.5219 112.81 87.0619 112.94C86.6119 113.07 86.1719 113.135 85.7419 113.135ZM85.5469 106.475C84.8569 106.475 84.3119 106.69 83.9119 107.12C83.5119 107.55 83.2769 108.115 83.2069 108.815H87.6319C87.6019 108.075 87.4069 107.5 87.0469 107.09C86.6969 106.68 86.1969 106.475 85.5469 106.475ZM91.0253 113.06C90.7753 113.06 90.5753 112.985 90.4253 112.835C90.2753 112.675 90.2003 112.475 90.2003 112.235C90.2003 111.995 90.2753 111.8 90.4253 111.65C90.5753 111.49 90.7753 111.41 91.0253 111.41C91.2753 111.41 91.4703 111.49 91.6103 111.65C91.7603 111.8 91.8353 111.995 91.8353 112.235C91.8353 112.475 91.7603 112.675 91.6103 112.835C91.4703 112.985 91.2753 113.06 91.0253 113.06ZM98.5606 113C98.1106 113 97.8856 112.775 97.8856 112.325V103.1C97.8856 102.65 98.1106 102.425 98.5606 102.425H101.456C103.166 102.425 104.486 102.88 105.416 103.79C106.346 104.69 106.811 105.995 106.811 107.705C106.811 109.415 106.346 110.725 105.416 111.635C104.486 112.545 103.166 113 101.456 113H98.5606ZM99.1156 111.95H101.366C104.126 111.95 105.506 110.535 105.506 107.705C105.506 104.885 104.126 103.475 101.366 103.475H99.1156V111.95ZM109.993 113.45C109.893 113.61 109.768 113.68 109.618 113.66C109.468 113.65 109.348 113.58 109.258 113.45C109.178 113.33 109.188 113.175 109.288 112.985L109.633 112.385C109.243 112.065 108.938 111.645 108.718 111.125C108.508 110.605 108.403 110.015 108.403 109.355C108.403 108.585 108.543 107.92 108.823 107.36C109.113 106.79 109.518 106.35 110.038 106.04C110.558 105.73 111.173 105.575 111.883 105.575C112.443 105.575 112.953 105.675 113.413 105.875L113.773 105.245C113.873 105.085 113.998 105.015 114.148 105.035C114.308 105.055 114.428 105.13 114.508 105.26C114.598 105.39 114.593 105.54 114.493 105.71L114.133 106.325C114.523 106.655 114.823 107.075 115.033 107.585C115.253 108.095 115.363 108.685 115.363 109.355C115.363 110.125 115.218 110.795 114.928 111.365C114.648 111.925 114.243 112.36 113.713 112.67C113.193 112.98 112.583 113.135 111.883 113.135C111.323 113.135 110.813 113.035 110.353 112.835L109.993 113.45ZM109.633 109.355C109.633 110.225 109.828 110.905 110.218 111.395L112.888 106.775C112.598 106.625 112.263 106.55 111.883 106.55C111.193 106.55 110.643 106.79 110.233 107.27C109.833 107.75 109.633 108.445 109.633 109.355ZM111.883 112.16C112.563 112.16 113.108 111.92 113.518 111.44C113.928 110.95 114.133 110.255 114.133 109.355C114.133 108.485 113.938 107.805 113.548 107.315L110.878 111.935C111.168 112.085 111.503 112.16 111.883 112.16ZM117.803 113.105C117.393 113.105 117.188 112.895 117.188 112.475V106.22C117.188 105.81 117.383 105.605 117.773 105.605C118.173 105.605 118.373 105.81 118.373 106.22V107.015C118.573 106.555 118.883 106.205 119.303 105.965C119.723 105.715 120.223 105.58 120.803 105.56C121.123 105.53 121.293 105.69 121.313 106.04C121.343 106.39 121.163 106.585 120.773 106.625L120.533 106.655C119.843 106.715 119.318 106.935 118.958 107.315C118.598 107.685 118.418 108.195 118.418 108.845V112.475C118.418 112.895 118.213 113.105 117.803 113.105ZM125.761 113.135C124.611 113.135 123.701 112.8 123.031 112.13C122.361 111.45 122.026 110.53 122.026 109.37C122.026 108.62 122.176 107.96 122.476 107.39C122.776 106.81 123.186 106.365 123.706 106.055C124.236 105.735 124.846 105.575 125.536 105.575C126.526 105.575 127.301 105.895 127.861 106.535C128.421 107.165 128.701 108.035 128.701 109.145C128.701 109.455 128.526 109.61 128.176 109.61H123.211C123.251 110.44 123.491 111.075 123.931 111.515C124.371 111.945 124.981 112.16 125.761 112.16C126.091 112.16 126.426 112.12 126.766 112.04C127.106 111.95 127.436 111.795 127.756 111.575C127.986 111.425 128.176 111.395 128.326 111.485C128.486 111.575 128.566 111.715 128.566 111.905C128.576 112.085 128.476 112.245 128.266 112.385C127.936 112.625 127.541 112.81 127.081 112.94C126.631 113.07 126.191 113.135 125.761 113.135ZM125.566 106.475C124.876 106.475 124.331 106.69 123.931 107.12C123.531 107.55 123.296 108.115 123.226 108.815H127.651C127.621 108.075 127.426 107.5 127.066 107.09C126.716 106.68 126.216 106.475 125.566 106.475ZM131.06 113.105C130.66 113.105 130.46 112.895 130.46 112.475V106.22C130.46 105.81 130.655 105.605 131.045 105.605C131.445 105.605 131.645 105.81 131.645 106.22V106.955C131.885 106.495 132.225 106.15 132.665 105.92C133.105 105.69 133.6 105.575 134.15 105.575C135.88 105.575 136.745 106.535 136.745 108.455V112.475C136.745 112.895 136.545 113.105 136.145 113.105C135.735 113.105 135.53 112.895 135.53 112.475V108.53C135.53 107.85 135.395 107.355 135.125 107.045C134.865 106.725 134.445 106.565 133.865 106.565C133.195 106.565 132.66 106.775 132.26 107.195C131.87 107.605 131.675 108.155 131.675 108.845V112.475C131.675 112.895 131.47 113.105 131.06 113.105ZM143.452 113.105C143.052 113.105 142.852 112.895 142.852 112.475V102.935C142.852 102.525 143.052 102.32 143.452 102.32C143.862 102.32 144.067 102.525 144.067 102.935V108.95H144.097L147.172 106.01C147.302 105.88 147.422 105.78 147.532 105.71C147.642 105.64 147.787 105.605 147.967 105.605C148.207 105.605 148.362 105.7 148.432 105.89C148.512 106.07 148.462 106.255 148.282 106.445L145.357 109.22L148.567 112.235C148.777 112.435 148.832 112.63 148.732 112.82C148.642 113.01 148.487 113.105 148.267 113.105C148.087 113.105 147.937 113.07 147.817 113C147.707 112.92 147.577 112.805 147.427 112.655L144.097 109.58H144.067V112.475C144.067 112.895 143.862 113.105 143.452 113.105ZM152.574 113.135C152.074 113.135 151.624 113.04 151.224 112.85C150.834 112.65 150.524 112.38 150.294 112.04C150.064 111.7 149.949 111.32 149.949 110.9C149.949 110.37 150.084 109.95 150.354 109.64C150.634 109.33 151.089 109.11 151.719 108.98C152.359 108.84 153.229 108.77 154.329 108.77H154.809V108.305C154.809 107.685 154.679 107.24 154.419 106.97C154.169 106.69 153.764 106.55 153.204 106.55C152.854 106.55 152.499 106.595 152.139 106.685C151.789 106.775 151.424 106.92 151.044 107.12C150.874 107.21 150.729 107.23 150.609 107.18C150.499 107.12 150.419 107.03 150.369 106.91C150.329 106.78 150.329 106.65 150.369 106.52C150.419 106.38 150.519 106.275 150.669 106.205C151.099 105.985 151.529 105.825 151.959 105.725C152.399 105.625 152.814 105.575 153.204 105.575C154.144 105.575 154.839 105.805 155.289 106.265C155.749 106.725 155.979 107.44 155.979 108.41V112.475C155.979 112.895 155.794 113.105 155.424 113.105C155.034 113.105 154.839 112.895 154.839 112.475V111.74C154.649 112.17 154.354 112.51 153.954 112.76C153.564 113.01 153.104 113.135 152.574 113.135ZM152.769 112.22C153.369 112.22 153.859 112.015 154.239 111.605C154.619 111.185 154.809 110.655 154.809 110.015V109.565H154.344C153.534 109.565 152.894 109.605 152.424 109.685C151.964 109.755 151.639 109.885 151.449 110.075C151.269 110.255 151.179 110.505 151.179 110.825C151.179 111.235 151.319 111.57 151.599 111.83C151.889 112.09 152.279 112.22 152.769 112.22ZM158.833 113.105C158.433 113.105 158.233 112.895 158.233 112.475V106.22C158.233 105.81 158.428 105.605 158.818 105.605C159.218 105.605 159.418 105.81 159.418 106.22V106.955C159.658 106.495 159.998 106.15 160.438 105.92C160.878 105.69 161.373 105.575 161.923 105.575C163.653 105.575 164.518 106.535 164.518 108.455V112.475C164.518 112.895 164.318 113.105 163.918 113.105C163.508 113.105 163.303 112.895 163.303 112.475V108.53C163.303 107.85 163.168 107.355 162.898 107.045C162.638 106.725 162.218 106.565 161.638 106.565C160.968 106.565 160.433 106.775 160.033 107.195C159.643 107.605 159.448 108.155 159.448 108.845V112.475C159.448 112.895 159.243 113.105 158.833 113.105ZM172.921 113.135C172.421 113.135 171.971 113.04 171.571 112.85C171.181 112.65 170.871 112.38 170.641 112.04C170.411 111.7 170.296 111.32 170.296 110.9C170.296 110.37 170.431 109.95 170.701 109.64C170.981 109.33 171.436 109.11 172.066 108.98C172.706 108.84 173.576 108.77 174.676 108.77H175.156V108.305C175.156 107.685 175.026 107.24 174.766 106.97C174.516 106.69 174.111 106.55 173.551 106.55C173.201 106.55 172.846 106.595 172.486 106.685C172.136 106.775 171.771 106.92 171.391 107.12C171.221 107.21 171.076 107.23 170.956 107.18C170.846 107.12 170.766 107.03 170.716 106.91C170.676 106.78 170.676 106.65 170.716 106.52C170.766 106.38 170.866 106.275 171.016 106.205C171.446 105.985 171.876 105.825 172.306 105.725C172.746 105.625 173.161 105.575 173.551 105.575C174.491 105.575 175.186 105.805 175.636 106.265C176.096 106.725 176.326 107.44 176.326 108.41V112.475C176.326 112.895 176.141 113.105 175.771 113.105C175.381 113.105 175.186 112.895 175.186 112.475V111.74C174.996 112.17 174.701 112.51 174.301 112.76C173.911 113.01 173.451 113.135 172.921 113.135ZM173.116 112.22C173.716 112.22 174.206 112.015 174.586 111.605C174.966 111.185 175.156 110.655 175.156 110.015V109.565H174.691C173.881 109.565 173.241 109.605 172.771 109.685C172.311 109.755 171.986 109.885 171.796 110.075C171.616 110.255 171.526 110.505 171.526 110.825C171.526 111.235 171.666 111.57 171.946 111.83C172.236 112.09 172.626 112.22 173.116 112.22ZM173.566 104.795C173.066 104.795 172.641 104.63 172.291 104.3C171.951 103.96 171.781 103.545 171.781 103.055C171.781 102.575 171.951 102.17 172.291 101.84C172.641 101.5 173.066 101.33 173.566 101.33C174.066 101.33 174.486 101.5 174.826 101.84C175.176 102.17 175.351 102.575 175.351 103.055C175.351 103.545 175.176 103.96 174.826 104.3C174.486 104.63 174.066 104.795 173.566 104.795ZM173.566 104.15C173.886 104.15 174.146 104.045 174.346 103.835C174.546 103.625 174.646 103.365 174.646 103.055C174.646 102.755 174.546 102.5 174.346 102.29C174.146 102.08 173.886 101.975 173.566 101.975C173.256 101.975 172.996 102.08 172.786 102.29C172.586 102.5 172.486 102.755 172.486 103.055C172.486 103.365 172.586 103.625 172.786 103.835C172.996 104.045 173.256 104.15 173.566 104.15ZM182.27 113.135C181.7 113.135 181.195 113.01 180.755 112.76C180.315 112.5 179.99 112.145 179.78 111.695V112.475C179.78 112.895 179.58 113.105 179.18 113.105C178.78 113.105 178.58 112.895 178.58 112.475V102.935C178.58 102.525 178.78 102.32 179.18 102.32C179.59 102.32 179.795 102.525 179.795 102.935V106.97C180.005 106.54 180.33 106.2 180.77 105.95C181.21 105.7 181.71 105.575 182.27 105.575C182.92 105.575 183.485 105.73 183.965 106.04C184.455 106.34 184.83 106.775 185.09 107.345C185.36 107.905 185.495 108.575 185.495 109.355C185.495 110.125 185.36 110.795 185.09 111.365C184.83 111.925 184.455 112.36 183.965 112.67C183.485 112.98 182.92 113.135 182.27 113.135ZM182.015 112.16C182.695 112.16 183.24 111.92 183.65 111.44C184.06 110.95 184.265 110.255 184.265 109.355C184.265 108.445 184.06 107.75 183.65 107.27C183.24 106.79 182.695 106.55 182.015 106.55C181.335 106.55 180.79 106.79 180.38 107.27C179.97 107.75 179.765 108.445 179.765 109.355C179.765 110.255 179.97 110.95 180.38 111.44C180.79 111.92 181.335 112.16 182.015 112.16ZM187.925 113.105C187.525 113.105 187.325 112.895 187.325 112.475V106.22C187.325 105.81 187.52 105.605 187.91 105.605C188.31 105.605 188.51 105.81 188.51 106.22V106.955C188.75 106.495 189.09 106.15 189.53 105.92C189.97 105.69 190.465 105.575 191.015 105.575C192.745 105.575 193.61 106.535 193.61 108.455V112.475C193.61 112.895 193.41 113.105 193.01 113.105C192.6 113.105 192.395 112.895 192.395 112.475V108.53C192.395 107.85 192.26 107.355 191.99 107.045C191.73 106.725 191.31 106.565 190.73 106.565C190.06 106.565 189.525 106.775 189.125 107.195C188.735 107.605 188.54 108.155 188.54 108.845V112.475C188.54 112.895 188.335 113.105 187.925 113.105ZM199.135 113.135C197.985 113.135 197.075 112.8 196.405 112.13C195.735 111.45 195.4 110.53 195.4 109.37C195.4 108.62 195.55 107.96 195.85 107.39C196.15 106.81 196.56 106.365 197.08 106.055C197.61 105.735 198.22 105.575 198.91 105.575C199.9 105.575 200.675 105.895 201.235 106.535C201.795 107.165 202.075 108.035 202.075 109.145C202.075 109.455 201.9 109.61 201.55 109.61H196.585C196.625 110.44 196.865 111.075 197.305 111.515C197.745 111.945 198.355 112.16 199.135 112.16C199.465 112.16 199.8 112.12 200.14 112.04C200.48 111.95 200.81 111.795 201.13 111.575C201.36 111.425 201.55 111.395 201.7 111.485C201.86 111.575 201.94 111.715 201.94 111.905C201.95 112.085 201.85 112.245 201.64 112.385C201.31 112.625 200.915 112.81 200.455 112.94C200.005 113.07 199.565 113.135 199.135 113.135ZM198.94 106.475C198.25 106.475 197.705 106.69 197.305 107.12C196.905 107.55 196.67 108.115 196.6 108.815H201.025C200.995 108.075 200.8 107.5 200.44 107.09C200.09 106.68 199.59 106.475 198.94 106.475ZM206.294 113.135C205.844 113.135 205.389 113.08 204.929 112.97C204.479 112.85 204.059 112.66 203.669 112.4C203.489 112.29 203.399 112.15 203.399 111.98C203.409 111.8 203.479 111.66 203.609 111.56C203.739 111.46 203.904 111.46 204.104 111.56C204.494 111.8 204.869 111.97 205.229 112.07C205.599 112.16 205.964 112.205 206.324 112.205C206.894 112.205 207.324 112.1 207.614 111.89C207.904 111.68 208.049 111.395 208.049 111.035C208.049 110.755 207.954 110.535 207.764 110.375C207.574 110.205 207.274 110.075 206.864 109.985L205.499 109.685C204.259 109.415 203.639 108.775 203.639 107.765C203.639 107.105 203.899 106.575 204.419 106.175C204.949 105.775 205.639 105.575 206.489 105.575C206.919 105.575 207.334 105.635 207.734 105.755C208.134 105.865 208.494 106.045 208.814 106.295C208.984 106.415 209.059 106.56 209.039 106.73C209.019 106.9 208.939 107.035 208.799 107.135C208.669 107.225 208.509 107.21 208.319 107.09C208.019 106.89 207.714 106.745 207.404 106.655C207.094 106.555 206.789 106.505 206.489 106.505C205.929 106.505 205.504 106.615 205.214 106.835C204.924 107.055 204.779 107.345 204.779 107.705C204.779 108.265 205.149 108.625 205.889 108.785L207.254 109.07C207.894 109.21 208.379 109.435 208.709 109.745C209.039 110.045 209.204 110.455 209.204 110.975C209.204 111.645 208.939 112.175 208.409 112.565C207.879 112.945 207.174 113.135 206.294 113.135ZM215.523 113.105C215.123 113.105 214.923 112.895 214.923 112.475V106.22C214.923 105.81 215.118 105.605 215.508 105.605C215.908 105.605 216.108 105.81 216.108 106.22V106.955C216.348 106.495 216.688 106.15 217.128 105.92C217.568 105.69 218.063 105.575 218.613 105.575C220.343 105.575 221.208 106.535 221.208 108.455V112.475C221.208 112.895 221.008 113.105 220.608 113.105C220.198 113.105 219.993 112.895 219.993 112.475V108.53C219.993 107.85 219.858 107.355 219.588 107.045C219.328 106.725 218.908 106.565 218.328 106.565C217.658 106.565 217.123 106.775 216.723 107.195C216.333 107.605 216.138 108.155 216.138 108.845V112.475C216.138 112.895 215.933 113.105 215.523 113.105ZM226.028 113.135C224.278 113.135 223.403 112.17 223.403 110.24V106.22C223.403 105.81 223.603 105.605 224.003 105.605C224.413 105.605 224.618 105.81 224.618 106.22V110.225C224.618 110.875 224.748 111.355 225.008 111.665C225.278 111.975 225.698 112.13 226.268 112.13C226.888 112.13 227.393 111.925 227.783 111.515C228.173 111.095 228.368 110.54 228.368 109.85V106.22C228.368 105.81 228.573 105.605 228.983 105.605C229.383 105.605 229.583 105.81 229.583 106.22V112.475C229.583 112.895 229.388 113.105 228.998 113.105C228.598 113.105 228.398 112.895 228.398 112.475V111.77C228.168 112.21 227.843 112.55 227.423 112.79C227.013 113.02 226.548 113.135 226.028 113.135ZM232.441 113.06C232.191 113.06 231.991 112.985 231.841 112.835C231.691 112.675 231.616 112.475 231.616 112.235C231.616 111.995 231.691 111.8 231.841 111.65C231.991 111.49 232.191 111.41 232.441 111.41C232.691 111.41 232.886 111.49 233.026 111.65C233.176 111.8 233.251 111.995 233.251 112.235C233.251 112.475 233.176 112.675 233.026 112.835C232.886 112.985 232.691 113.06 232.441 113.06Z" fill="black"/>
<path d="M92.86 64.16C91.98 64.16 91.54 63.7067 91.54 62.8V51.26C91.54 50.3533 91.9933 49.9 92.9 49.9H99.88C100.573 49.9 100.92 50.2333 100.92 50.9C100.92 51.5933 100.573 51.94 99.88 51.94H94.1V55.92H99.46C100.153 55.92 100.5 56.2533 100.5 56.92C100.5 57.6133 100.153 57.96 99.46 57.96H94.1V62.8C94.1 63.7067 93.6867 64.16 92.86 64.16ZM103.615 64.16C102.762 64.16 102.335 63.7333 102.335 62.88V55.32C102.335 54.48 102.742 54.06 103.555 54.06C104.368 54.06 104.775 54.48 104.775 55.32V55.94C105.255 54.7933 106.282 54.1533 107.855 54.02C108.428 53.9533 108.748 54.28 108.815 55C108.882 55.7067 108.535 56.1 107.775 56.18L107.335 56.22C105.695 56.38 104.875 57.22 104.875 58.74V62.88C104.875 63.7333 104.455 64.16 103.615 64.16ZM111.407 52.22C110.941 52.22 110.574 52.1067 110.307 51.88C110.054 51.64 109.927 51.3133 109.927 50.9C109.927 50.4733 110.054 50.1467 110.307 49.92C110.574 49.6933 110.941 49.58 111.407 49.58C112.394 49.58 112.887 50.02 112.887 50.9C112.887 51.78 112.394 52.22 111.407 52.22ZM111.407 64.14C111.007 64.14 110.701 64.02 110.487 63.78C110.274 63.54 110.167 63.2067 110.167 62.78V55.44C110.167 54.5333 110.581 54.08 111.407 54.08C112.247 54.08 112.667 54.5333 112.667 55.44V62.78C112.667 63.2067 112.561 63.54 112.347 63.78C112.134 64.02 111.821 64.14 111.407 64.14ZM121.075 64.16C120.608 64.16 120.275 64 120.075 63.68C119.875 63.36 119.881 62.9733 120.095 62.52L125.375 50.82C125.548 50.4333 125.755 50.16 125.995 50C126.248 49.8267 126.535 49.74 126.855 49.74C127.161 49.74 127.435 49.8267 127.675 50C127.928 50.16 128.141 50.4333 128.315 50.82L133.615 62.52C133.828 62.9867 133.841 63.38 133.655 63.7C133.468 64.0067 133.148 64.16 132.695 64.16C132.321 64.16 132.028 64.0733 131.815 63.9C131.615 63.7133 131.435 63.4333 131.275 63.06L130.275 60.74H123.395L122.415 63.06C122.241 63.4467 122.061 63.7267 121.875 63.9C121.688 64.0733 121.421 64.16 121.075 64.16ZM126.815 52.68L124.275 58.7H129.395L126.855 52.68H126.815ZM139.24 64.2C138.386 64.2 137.633 63.9933 136.98 63.58C136.34 63.1667 135.84 62.58 135.48 61.82C135.12 61.0467 134.94 60.14 134.94 59.1C134.94 58.0467 135.12 57.1467 135.48 56.4C135.84 55.64 136.34 55.0533 136.98 54.64C137.633 54.2267 138.386 54.02 139.24 54.02C139.933 54.02 140.56 54.1733 141.12 54.48C141.68 54.7867 142.1 55.1933 142.38 55.7V51C142.38 50.16 142.793 49.74 143.62 49.74C144.46 49.74 144.88 50.16 144.88 51V62.88C144.88 63.7333 144.466 64.16 143.64 64.16C142.813 64.16 142.4 63.7333 142.4 62.88V62.46C142.12 62.9933 141.7 63.42 141.14 63.74C140.58 64.0467 139.946 64.2 139.24 64.2ZM139.94 62.3C140.686 62.3 141.286 62.0333 141.74 61.5C142.193 60.9533 142.42 60.1533 142.42 59.1C142.42 58.0333 142.193 57.24 141.74 56.72C141.286 56.1867 140.686 55.92 139.94 55.92C139.193 55.92 138.593 56.1867 138.14 56.72C137.686 57.24 137.46 58.0333 137.46 59.1C137.46 60.1533 137.686 60.9533 138.14 61.5C138.593 62.0333 139.193 62.3 139.94 62.3ZM152.032 67.8C151.312 67.8 150.612 67.7333 149.932 67.6C149.265 67.4667 148.659 67.26 148.112 66.98C147.792 66.82 147.599 66.6133 147.532 66.36C147.479 66.12 147.505 65.8867 147.612 65.66C147.719 65.4333 147.879 65.2667 148.092 65.16C148.319 65.0667 148.559 65.08 148.812 65.2C149.399 65.4933 149.952 65.68 150.472 65.76C151.005 65.8533 151.459 65.9 151.832 65.9C153.619 65.9 154.512 65.04 154.512 63.32V61.98C154.232 62.5267 153.799 62.96 153.212 63.28C152.639 63.6 151.999 63.76 151.292 63.76C150.412 63.76 149.645 63.56 148.992 63.16C148.339 62.7467 147.832 62.1733 147.472 61.44C147.112 60.7067 146.932 59.8533 146.932 58.88C146.932 57.9067 147.112 57.06 147.472 56.34C147.832 55.6067 148.339 55.04 148.992 54.64C149.645 54.2267 150.412 54.02 151.292 54.02C151.999 54.02 152.639 54.1733 153.212 54.48C153.785 54.7867 154.205 55.2067 154.472 55.74V55.32C154.472 54.9067 154.579 54.5933 154.792 54.38C155.019 54.1667 155.325 54.06 155.712 54.06C156.539 54.06 156.952 54.48 156.952 55.32V63.02C156.952 64.6067 156.532 65.8 155.692 66.6C154.852 67.4 153.632 67.8 152.032 67.8ZM151.972 61.86C152.745 61.86 153.359 61.5933 153.812 61.06C154.265 60.5267 154.492 59.8 154.492 58.88C154.492 57.96 154.265 57.24 153.812 56.72C153.359 56.1867 152.745 55.92 151.972 55.92C151.199 55.92 150.585 56.1867 150.132 56.72C149.679 57.24 149.452 57.96 149.452 58.88C149.452 59.8 149.679 60.5267 150.132 61.06C150.585 61.5933 151.199 61.86 151.972 61.86ZM162.762 64.2C162.056 64.2 161.422 64.0667 160.862 63.8C160.316 63.52 159.882 63.1467 159.562 62.68C159.256 62.2133 159.102 61.6867 159.102 61.1C159.102 60.38 159.289 59.8133 159.662 59.4C160.036 58.9733 160.642 58.6667 161.482 58.48C162.322 58.2933 163.449 58.2 164.862 58.2H165.562V57.78C165.562 57.1133 165.416 56.6333 165.122 56.34C164.829 56.0467 164.336 55.9 163.642 55.9C163.256 55.9 162.836 55.9467 162.382 56.04C161.942 56.1333 161.476 56.2933 160.982 56.52C160.662 56.6667 160.396 56.6867 160.182 56.58C159.969 56.46 159.822 56.28 159.742 56.04C159.676 55.7867 159.689 55.5333 159.782 55.28C159.889 55.0267 160.096 54.84 160.402 54.72C161.016 54.4667 161.602 54.2867 162.162 54.18C162.736 54.0733 163.256 54.02 163.722 54.02C165.149 54.02 166.209 54.3533 166.902 55.02C167.596 55.6733 167.942 56.6933 167.942 58.08V62.88C167.942 63.7333 167.556 64.16 166.782 64.16C165.996 64.16 165.602 63.7333 165.602 62.88V62.44C165.376 62.9867 165.016 63.42 164.522 63.74C164.029 64.0467 163.442 64.2 162.762 64.2ZM163.282 62.48C163.936 62.48 164.476 62.2533 164.902 61.8C165.342 61.3467 165.562 60.7733 165.562 60.08V59.64H164.882C163.629 59.64 162.756 59.74 162.262 59.94C161.782 60.1267 161.542 60.4733 161.542 60.98C161.542 61.42 161.696 61.78 162.002 62.06C162.309 62.34 162.736 62.48 163.282 62.48ZM171.72 64.16C170.893 64.16 170.48 63.7333 170.48 62.88V55.32C170.48 54.48 170.886 54.06 171.7 54.06C172.513 54.06 172.92 54.48 172.92 55.32V55.74C173.253 55.18 173.7 54.7533 174.26 54.46C174.833 54.1667 175.473 54.02 176.18 54.02C178.486 54.02 179.64 55.36 179.64 58.04V62.88C179.64 63.7333 179.226 64.16 178.4 64.16C177.56 64.16 177.14 63.7333 177.14 62.88V58.16C177.14 57.4 176.993 56.8467 176.7 56.5C176.42 56.1533 175.98 55.98 175.38 55.98C174.646 55.98 174.06 56.2133 173.62 56.68C173.193 57.1333 172.98 57.74 172.98 58.5V62.88C172.98 63.7333 172.56 64.16 171.72 64.16ZM186.739 67.8C186.019 67.8 185.319 67.7333 184.639 67.6C183.972 67.4667 183.366 67.26 182.819 66.98C182.499 66.82 182.306 66.6133 182.239 66.36C182.186 66.12 182.212 65.8867 182.319 65.66C182.426 65.4333 182.586 65.2667 182.799 65.16C183.026 65.0667 183.266 65.08 183.519 65.2C184.106 65.4933 184.659 65.68 185.179 65.76C185.712 65.8533 186.166 65.9 186.539 65.9C188.326 65.9 189.219 65.04 189.219 63.32V61.98C188.939 62.5267 188.506 62.96 187.919 63.28C187.346 63.6 186.706 63.76 185.999 63.76C185.119 63.76 184.352 63.56 183.699 63.16C183.046 62.7467 182.539 62.1733 182.179 61.44C181.819 60.7067 181.639 59.8533 181.639 58.88C181.639 57.9067 181.819 57.06 182.179 56.34C182.539 55.6067 183.046 55.04 183.699 54.64C184.352 54.2267 185.119 54.02 185.999 54.02C186.706 54.02 187.346 54.1733 187.919 54.48C188.492 54.7867 188.912 55.2067 189.179 55.74V55.32C189.179 54.9067 189.286 54.5933 189.499 54.38C189.726 54.1667 190.032 54.06 190.419 54.06C191.246 54.06 191.659 54.48 191.659 55.32V63.02C191.659 64.6067 191.239 65.8 190.399 66.6C189.559 67.4 188.339 67.8 186.739 67.8ZM186.679 61.86C187.452 61.86 188.066 61.5933 188.519 61.06C188.972 60.5267 189.199 59.8 189.199 58.88C189.199 57.96 188.972 57.24 188.519 56.72C188.066 56.1867 187.452 55.92 186.679 55.92C185.906 55.92 185.292 56.1867 184.839 56.72C184.386 57.24 184.159 57.96 184.159 58.88C184.159 59.8 184.386 60.5267 184.839 61.06C185.292 61.5933 185.906 61.86 186.679 61.86Z" fill="black"/>
<defs>
<filter id="filter0_dddd_257_796" x="0" y="0" width="284" height="191" filterUnits="userSpaceOnUse" color-interpolation-filters="sRGB">
<feFlood flood-opacity="0" result="BackgroundImageFix"/>
<feColorMatrix in="SourceAlpha" type="matrix" values="0 0 0 0 0 0 0 0 0 0 0 0 0 0 0 0 0 0 127 0" result="hardAlpha"/>
<feOffset dy="-4"/>
<feGaussianBlur stdDeviation="2"/>
<feComposite in2="hardAlpha" operator="out"/>
<feColorMatrix type="matrix" values="0 0 0 0 0 0 0 0 0 0 0 0 0 0 0 0 0 0 0.12 0"/>
<feBlend mode="normal" in2="BackgroundImageFix" result="effect1_dropShadow_257_796"/>
<feColorMatrix in="SourceAlpha" type="matrix" values="0 0 0 0 0 0 0 0 0 0 0 0 0 0 0 0 0 0 127 0" result="hardAlpha"/>
<feOffset dx="4"/>
<feGaussianBlur stdDeviation="2"/>
<feComposite in2="hardAlpha" operator="out"/>
<feColorMatrix type="matrix" values="0 0 0 0 0 0 0 0 0 0 0 0 0 0 0 0 0 0 0.12 0"/>
<feBlend mode="normal" in2="effect1_dropShadow_257_796" result="effect2_dropShadow_257_796"/>
<feColorMatrix in="SourceAlpha" type="matrix" values="0 0 0 0 0 0 0 0 0 0 0 0 0 0 0 0 0 0 127 0" result="hardAlpha"/>
<feOffset dy="4"/>
<feGaussianBlur stdDeviation="2"/>
<feComposite in2="hardAlpha" operator="out"/>
<feColorMatrix type="matrix" values="0 0 0 0 0 0 0 0 0 0 0 0 0 0 0 0 0 0 0.25 0"/>
<feBlend mode="normal" in2="effect2_dropShadow_257_796" result="effect3_dropShadow_257_796"/>
<feColorMatrix in="SourceAlpha" type="matrix" values="0 0 0 0 0 0 0 0 0 0 0 0 0 0 0 0 0 0 127 0" result="hardAlpha"/>
<feOffset dx="-4"/>
<feGaussianBlur stdDeviation="2"/>
<feComposite in2="hardAlpha" operator="out"/>
<feColorMatrix type="matrix" values="0 0 0 0 0 0 0 0 0 0 0 0 0 0 0 0 0 0 0.12 0"/>
<feBlend mode="normal" in2="effect3_dropShadow_257_796" result="effect4_dropShadow_257_796"/>
<feBlend mode="normal" in="SourceGraphic" in2="effect4_dropShadow_257_796" result="shape"/>
</filter>
</defs>
</svg>
