<svg width="284" height="191" viewBox="0 0 284 191" fill="none" xmlns="http://www.w3.org/2000/svg">
<g filter="url(#filter0_dddd_340_905)">
<rect x="8" y="8" width="268" height="175" rx="15" fill="#FFF6A4"/>
</g>
<path d="M56.9 47C55.9933 47 55.54 46.5467 55.54 45.64V34.26C55.54 33.3533 55.9933 32.9 56.9 32.9H61.7C63.18 32.9 64.3267 33.2267 65.14 33.88C65.9533 34.52 66.36 35.4133 66.36 36.56C66.36 37.32 66.1667 37.9733 65.78 38.52C65.3933 39.0667 64.86 39.4667 64.18 39.72C64.98 39.9467 65.6 40.3467 66.04 40.92C66.4933 41.48 66.72 42.1933 66.72 43.06C66.72 44.3133 66.2933 45.2867 65.44 45.98C64.6 46.66 63.4267 47 61.92 47H56.9ZM58 38.88H61.26C63.0067 38.88 63.88 38.2067 63.88 36.86C63.88 35.5133 63.0067 34.84 61.26 34.84H58V38.88ZM58 45.06H61.6C63.36 45.06 64.24 44.3533 64.24 42.94C64.24 41.5267 63.36 40.82 61.6 40.82H58V45.06ZM73.8895 47.2C72.7829 47.2 71.8295 46.9933 71.0295 46.58C70.2295 46.1667 69.6095 45.58 69.1695 44.82C68.7429 44.06 68.5295 43.16 68.5295 42.12C68.5295 41.1067 68.7362 40.22 69.1495 39.46C69.5762 38.7 70.1562 38.1067 70.8895 37.68C71.6362 37.24 72.4829 37.02 73.4295 37.02C74.8162 37.02 75.9095 37.46 76.7095 38.34C77.5229 39.22 77.9295 40.42 77.9295 41.94C77.9295 42.4333 77.6095 42.68 76.9695 42.68H70.9295C71.1162 44.4267 72.1162 45.3 73.9295 45.3C74.2762 45.3 74.6629 45.26 75.0895 45.18C75.5295 45.0867 75.9429 44.9333 76.3295 44.72C76.6762 44.52 76.9695 44.46 77.2095 44.54C77.4495 44.6067 77.6162 44.7467 77.7095 44.96C77.8162 45.1733 77.8295 45.4133 77.7495 45.68C77.6829 45.9333 77.4962 46.1533 77.1895 46.34C76.7229 46.6333 76.1829 46.8533 75.5695 47C74.9695 47.1333 74.4095 47.2 73.8895 47.2ZM73.5295 38.72C72.7962 38.72 72.2029 38.9467 71.7495 39.4C71.2962 39.8533 71.0229 40.4667 70.9295 41.24H75.8495C75.7962 40.4267 75.5695 39.8067 75.1695 39.38C74.7829 38.94 74.2362 38.72 73.5295 38.72ZM84.4694 50.8C83.7494 50.8 83.0494 50.7333 82.3694 50.6C81.7027 50.4667 81.096 50.26 80.5494 49.98C80.2294 49.82 80.036 49.6133 79.9694 49.36C79.916 49.12 79.9427 48.8867 80.0494 48.66C80.156 48.4333 80.316 48.2667 80.5294 48.16C80.756 48.0667 80.996 48.08 81.2494 48.2C81.836 48.4933 82.3894 48.68 82.9094 48.76C83.4427 48.8533 83.896 48.9 84.2694 48.9C86.056 48.9 86.9494 48.04 86.9494 46.32V44.98C86.6694 45.5267 86.236 45.96 85.6494 46.28C85.076 46.6 84.436 46.76 83.7294 46.76C82.8494 46.76 82.0827 46.56 81.4294 46.16C80.776 45.7467 80.2694 45.1733 79.9094 44.44C79.5494 43.7067 79.3694 42.8533 79.3694 41.88C79.3694 40.9067 79.5494 40.06 79.9094 39.34C80.2694 38.6067 80.776 38.04 81.4294 37.64C82.0827 37.2267 82.8494 37.02 83.7294 37.02C84.436 37.02 85.076 37.1733 85.6494 37.48C86.2227 37.7867 86.6427 38.2067 86.9094 38.74V38.32C86.9094 37.9067 87.016 37.5933 87.2294 37.38C87.456 37.1667 87.7627 37.06 88.1494 37.06C88.976 37.06 89.3894 37.48 89.3894 38.32V46.02C89.3894 47.6067 88.9694 48.8 88.1294 49.6C87.2894 50.4 86.0694 50.8 84.4694 50.8ZM84.4094 44.86C85.1827 44.86 85.796 44.5933 86.2494 44.06C86.7027 43.5267 86.9294 42.8 86.9294 41.88C86.9294 40.96 86.7027 40.24 86.2494 39.72C85.796 39.1867 85.1827 38.92 84.4094 38.92C83.636 38.92 83.0227 39.1867 82.5694 39.72C82.116 40.24 81.8894 40.96 81.8894 41.88C81.8894 42.8 82.116 43.5267 82.5694 44.06C83.0227 44.5933 83.636 44.86 84.4094 44.86ZM93.2597 47.16C92.4064 47.16 91.9797 46.7333 91.9797 45.88V38.32C91.9797 37.48 92.3864 37.06 93.1997 37.06C94.013 37.06 94.4197 37.48 94.4197 38.32V38.94C94.8997 37.7933 95.9264 37.1533 97.4997 37.02C98.073 36.9533 98.393 37.28 98.4597 38C98.5264 38.7067 98.1797 39.1 97.4197 39.18L96.9797 39.22C95.3397 39.38 94.5197 40.22 94.5197 41.74V45.88C94.5197 46.7333 94.0997 47.16 93.2597 47.16ZM103.134 47.2C102.361 47.2 101.681 47.0667 101.094 46.8C100.521 46.52 100.074 46.1467 99.7541 45.68C99.4341 45.2133 99.2741 44.6867 99.2741 44.1C99.2741 43.38 99.4607 42.8133 99.8341 42.4C100.207 41.9733 100.814 41.6667 101.654 41.48C102.507 41.2933 103.654 41.2 105.094 41.2H105.734V40.78C105.734 40.1133 105.581 39.6333 105.274 39.34C104.981 39.0467 104.501 38.9 103.834 38.9C103.447 38.9 103.027 38.9467 102.574 39.04C102.134 39.1333 101.667 39.2933 101.174 39.52C100.854 39.6667 100.587 39.6867 100.374 39.58C100.161 39.46 100.014 39.28 99.9341 39.04C99.8674 38.7867 99.8807 38.5333 99.9741 38.28C100.081 38.0267 100.287 37.84 100.594 37.72C101.207 37.4667 101.794 37.2867 102.354 37.18C102.927 37.0733 103.447 37.02 103.914 37.02C105.554 37.02 106.667 37.5333 107.254 38.56C107.641 38.0533 108.134 37.6733 108.734 37.42C109.347 37.1533 109.967 37.02 110.594 37.02C111.954 37.02 113.034 37.46 113.834 38.34C114.634 39.2067 115.034 40.4 115.034 41.92V41.96C115.034 42.4133 114.714 42.64 114.074 42.64H108.154C108.327 44.4133 109.301 45.3 111.074 45.3C111.421 45.3 111.807 45.26 112.234 45.18C112.674 45.0867 113.087 44.9333 113.474 44.72C113.821 44.52 114.114 44.46 114.354 44.54C114.594 44.6067 114.761 44.7467 114.854 44.96C114.961 45.1733 114.974 45.4133 114.894 45.68C114.827 45.9333 114.641 46.1533 114.334 46.34C113.867 46.6333 113.327 46.8533 112.714 47C112.114 47.1333 111.554 47.2 111.034 47.2C110.047 47.2 109.181 47.02 108.434 46.66C107.687 46.3 107.121 45.7533 106.734 45.02C106.441 45.7133 105.981 46.2533 105.354 46.64C104.741 47.0133 104.001 47.2 103.134 47.2ZM110.654 38.72C109.961 38.72 109.394 38.9333 108.954 39.36C108.527 39.7867 108.267 40.4 108.174 41.2H112.954C112.901 40.4 112.681 39.7867 112.294 39.36C111.907 38.9333 111.361 38.72 110.654 38.72ZM103.474 45.48C104.141 45.48 104.681 45.2533 105.094 44.8C105.521 44.3333 105.734 43.7333 105.734 43V42.64H105.054C103.801 42.64 102.927 42.74 102.434 42.94C101.954 43.1267 101.714 43.4733 101.714 43.98C101.714 44.42 101.867 44.78 102.174 45.06C102.481 45.34 102.914 45.48 103.474 45.48ZM118.259 47.16C117.432 47.16 117.019 46.7333 117.019 45.88V38.32C117.019 37.48 117.425 37.06 118.239 37.06C119.052 37.06 119.459 37.48 119.459 38.32V38.74C119.792 38.18 120.239 37.7533 120.799 37.46C121.372 37.1667 122.012 37.02 122.719 37.02C125.025 37.02 126.179 38.36 126.179 41.04V45.88C126.179 46.7333 125.765 47.16 124.939 47.16C124.099 47.16 123.679 46.7333 123.679 45.88V41.16C123.679 40.4 123.532 39.8467 123.239 39.5C122.959 39.1533 122.519 38.98 121.919 38.98C121.185 38.98 120.599 39.2133 120.159 39.68C119.732 40.1333 119.519 40.74 119.519 41.5V45.88C119.519 46.7333 119.099 47.16 118.259 47.16ZM132.298 47.2C131.725 47.2 131.118 47.14 130.478 47.02C129.838 46.9 129.265 46.6933 128.758 46.4C128.478 46.24 128.305 46.0467 128.238 45.82C128.171 45.58 128.178 45.36 128.258 45.16C128.351 44.9467 128.498 44.7933 128.698 44.7C128.911 44.6067 129.158 44.6267 129.438 44.76C129.971 45.0133 130.471 45.1933 130.938 45.3C131.405 45.3933 131.865 45.44 132.318 45.44C132.958 45.44 133.431 45.3333 133.738 45.12C134.058 44.8933 134.218 44.6 134.218 44.24C134.218 43.68 133.805 43.32 132.978 43.16L130.978 42.78C129.285 42.46 128.438 41.58 128.438 40.14C128.438 39.5 128.611 38.9467 128.958 38.48C129.318 38.0133 129.811 37.6533 130.438 37.4C131.065 37.1467 131.785 37.02 132.598 37.02C133.771 37.02 134.818 37.28 135.738 37.8C135.991 37.9333 136.138 38.12 136.178 38.36C136.231 38.5867 136.205 38.8067 136.098 39.02C136.005 39.22 135.851 39.3667 135.638 39.46C135.425 39.54 135.178 39.5133 134.898 39.38C134.485 39.1667 134.085 39.0133 133.698 38.92C133.325 38.8267 132.965 38.78 132.618 38.78C131.965 38.78 131.478 38.8933 131.158 39.12C130.851 39.3467 130.698 39.6467 130.698 40.02C130.698 40.6067 131.078 40.9667 131.838 41.1L133.838 41.48C134.705 41.64 135.358 41.9333 135.798 42.36C136.251 42.7867 136.478 43.36 136.478 44.08C136.478 45.0533 136.098 45.82 135.338 46.38C134.578 46.9267 133.565 47.2 132.298 47.2ZM143.304 47.2C142.197 47.2 141.244 46.9933 140.444 46.58C139.644 46.1667 139.024 45.58 138.584 44.82C138.157 44.06 137.944 43.16 137.944 42.12C137.944 41.1067 138.15 40.22 138.564 39.46C138.99 38.7 139.57 38.1067 140.304 37.68C141.05 37.24 141.897 37.02 142.844 37.02C144.23 37.02 145.324 37.46 146.124 38.34C146.937 39.22 147.344 40.42 147.344 41.94C147.344 42.4333 147.024 42.68 146.384 42.68H140.344C140.53 44.4267 141.53 45.3 143.344 45.3C143.69 45.3 144.077 45.26 144.504 45.18C144.944 45.0867 145.357 44.9333 145.744 44.72C146.09 44.52 146.384 44.46 146.624 44.54C146.864 44.6067 147.03 44.7467 147.124 44.96C147.23 45.1733 147.244 45.4133 147.164 45.68C147.097 45.9333 146.91 46.1533 146.604 46.34C146.137 46.6333 145.597 46.8533 144.984 47C144.384 47.1333 143.824 47.2 143.304 47.2ZM142.944 38.72C142.21 38.72 141.617 38.9467 141.164 39.4C140.71 39.8533 140.437 40.4667 140.344 41.24H145.264C145.21 40.4267 144.984 39.8067 144.584 39.38C144.197 38.94 143.65 38.72 142.944 38.72ZM153.764 47.2C151.178 47.2 149.884 45.92 149.884 43.36V39.1H148.844C148.178 39.1 147.844 38.7867 147.844 38.16C147.844 37.5333 148.178 37.22 148.844 37.22H149.884V35.4C149.884 34.56 150.304 34.14 151.144 34.14C151.971 34.14 152.384 34.56 152.384 35.4V37.22H154.504C155.171 37.22 155.504 37.5333 155.504 38.16C155.504 38.7867 155.171 39.1 154.504 39.1H152.384V43.22C152.384 43.86 152.524 44.34 152.804 44.66C153.084 44.98 153.538 45.14 154.164 45.14C154.391 45.14 154.591 45.12 154.764 45.08C154.938 45.04 155.091 45.0133 155.224 45C155.384 44.9867 155.518 45.04 155.624 45.16C155.731 45.2667 155.784 45.4933 155.784 45.84C155.784 46.1067 155.738 46.3467 155.644 46.56C155.564 46.76 155.411 46.9 155.184 46.98C155.011 47.0333 154.784 47.08 154.504 47.12C154.224 47.1733 153.978 47.2 153.764 47.2ZM165.61 47.2C164.903 47.2 164.27 47.0667 163.71 46.8C163.163 46.52 162.73 46.1467 162.41 45.68C162.103 45.2133 161.95 44.6867 161.95 44.1C161.95 43.38 162.137 42.8133 162.51 42.4C162.883 41.9733 163.49 41.6667 164.33 41.48C165.17 41.2933 166.297 41.2 167.71 41.2H168.41V40.78C168.41 40.1133 168.263 39.6333 167.97 39.34C167.677 39.0467 167.183 38.9 166.49 38.9C166.103 38.9 165.683 38.9467 165.23 39.04C164.79 39.1333 164.323 39.2933 163.83 39.52C163.51 39.6667 163.243 39.6867 163.03 39.58C162.817 39.46 162.67 39.28 162.59 39.04C162.523 38.7867 162.537 38.5333 162.63 38.28C162.737 38.0267 162.943 37.84 163.25 37.72C163.863 37.4667 164.45 37.2867 165.01 37.18C165.583 37.0733 166.103 37.02 166.57 37.02C167.997 37.02 169.057 37.3533 169.75 38.02C170.443 38.6733 170.79 39.6933 170.79 41.08V45.88C170.79 46.7333 170.403 47.16 169.63 47.16C168.843 47.16 168.45 46.7333 168.45 45.88V45.44C168.223 45.9867 167.863 46.42 167.37 46.74C166.877 47.0467 166.29 47.2 165.61 47.2ZM166.13 45.48C166.783 45.48 167.323 45.2533 167.75 44.8C168.19 44.3467 168.41 43.7733 168.41 43.08V42.64H167.73C166.477 42.64 165.603 42.74 165.11 42.94C164.63 43.1267 164.39 43.4733 164.39 43.98C164.39 44.42 164.543 44.78 164.85 45.06C165.157 45.34 165.583 45.48 166.13 45.48ZM177.087 47.2C176.234 47.2 175.481 46.9933 174.827 46.58C174.187 46.1667 173.687 45.58 173.327 44.82C172.967 44.0467 172.787 43.14 172.787 42.1C172.787 41.0467 172.967 40.1467 173.327 39.4C173.687 38.64 174.187 38.0533 174.827 37.64C175.481 37.2267 176.234 37.02 177.087 37.02C177.781 37.02 178.407 37.1733 178.967 37.48C179.527 37.7867 179.947 38.1933 180.227 38.7V34C180.227 33.16 180.641 32.74 181.467 32.74C182.307 32.74 182.727 33.16 182.727 34V45.88C182.727 46.7333 182.314 47.16 181.487 47.16C180.661 47.16 180.247 46.7333 180.247 45.88V45.46C179.967 45.9933 179.547 46.42 178.987 46.74C178.427 47.0467 177.794 47.2 177.087 47.2ZM177.787 45.3C178.534 45.3 179.134 45.0333 179.587 44.5C180.041 43.9533 180.267 43.1533 180.267 42.1C180.267 41.0333 180.041 40.24 179.587 39.72C179.134 39.1867 178.534 38.92 177.787 38.92C177.041 38.92 176.441 39.1867 175.987 39.72C175.534 40.24 175.307 41.0333 175.307 42.1C175.307 43.1533 175.534 43.9533 175.987 44.5C176.441 45.0333 177.041 45.3 177.787 45.3ZM189.88 50.8C189.16 50.8 188.46 50.7333 187.78 50.6C187.113 50.4667 186.506 50.26 185.96 49.98C185.64 49.82 185.446 49.6133 185.38 49.36C185.326 49.12 185.353 48.8867 185.46 48.66C185.566 48.4333 185.726 48.2667 185.94 48.16C186.166 48.0667 186.406 48.08 186.66 48.2C187.246 48.4933 187.8 48.68 188.32 48.76C188.853 48.8533 189.306 48.9 189.68 48.9C191.466 48.9 192.36 48.04 192.36 46.32V44.98C192.08 45.5267 191.646 45.96 191.06 46.28C190.486 46.6 189.846 46.76 189.14 46.76C188.26 46.76 187.493 46.56 186.84 46.16C186.186 45.7467 185.68 45.1733 185.32 44.44C184.96 43.7067 184.78 42.8533 184.78 41.88C184.78 40.9067 184.96 40.06 185.32 39.34C185.68 38.6067 186.186 38.04 186.84 37.64C187.493 37.2267 188.26 37.02 189.14 37.02C189.846 37.02 190.486 37.1733 191.06 37.48C191.633 37.7867 192.053 38.2067 192.32 38.74V38.32C192.32 37.9067 192.426 37.5933 192.64 37.38C192.866 37.1667 193.173 37.06 193.56 37.06C194.386 37.06 194.8 37.48 194.8 38.32V46.02C194.8 47.6067 194.38 48.8 193.54 49.6C192.7 50.4 191.48 50.8 189.88 50.8ZM189.82 44.86C190.593 44.86 191.206 44.5933 191.66 44.06C192.113 43.5267 192.34 42.8 192.34 41.88C192.34 40.96 192.113 40.24 191.66 39.72C191.206 39.1867 190.593 38.92 189.82 38.92C189.046 38.92 188.433 39.1867 187.98 39.72C187.526 40.24 187.3 40.96 187.3 41.88C187.3 42.8 187.526 43.5267 187.98 44.06C188.433 44.5933 189.046 44.86 189.82 44.86ZM200.61 47.2C199.903 47.2 199.27 47.0667 198.71 46.8C198.163 46.52 197.73 46.1467 197.41 45.68C197.103 45.2133 196.95 44.6867 196.95 44.1C196.95 43.38 197.137 42.8133 197.51 42.4C197.883 41.9733 198.49 41.6667 199.33 41.48C200.17 41.2933 201.297 41.2 202.71 41.2H203.41V40.78C203.41 40.1133 203.263 39.6333 202.97 39.34C202.677 39.0467 202.183 38.9 201.49 38.9C201.103 38.9 200.683 38.9467 200.23 39.04C199.79 39.1333 199.323 39.2933 198.83 39.52C198.51 39.6667 198.243 39.6867 198.03 39.58C197.817 39.46 197.67 39.28 197.59 39.04C197.523 38.7867 197.537 38.5333 197.63 38.28C197.737 38.0267 197.943 37.84 198.25 37.72C198.863 37.4667 199.45 37.2867 200.01 37.18C200.583 37.0733 201.103 37.02 201.57 37.02C202.997 37.02 204.057 37.3533 204.75 38.02C205.443 38.6733 205.79 39.6933 205.79 41.08V45.88C205.79 46.7333 205.403 47.16 204.63 47.16C203.843 47.16 203.45 46.7333 203.45 45.88V45.44C203.223 45.9867 202.863 46.42 202.37 46.74C201.877 47.0467 201.29 47.2 200.61 47.2ZM201.13 45.48C201.783 45.48 202.323 45.2533 202.75 44.8C203.19 44.3467 203.41 43.7733 203.41 43.08V42.64H202.73C201.477 42.64 200.603 42.74 200.11 42.94C199.63 43.1267 199.39 43.4733 199.39 43.98C199.39 44.42 199.543 44.78 199.85 45.06C200.157 45.34 200.583 45.48 201.13 45.48ZM209.567 47.16C208.741 47.16 208.327 46.7333 208.327 45.88V38.32C208.327 37.48 208.734 37.06 209.547 37.06C210.361 37.06 210.767 37.48 210.767 38.32V38.74C211.101 38.18 211.547 37.7533 212.107 37.46C212.681 37.1667 213.321 37.02 214.027 37.02C216.334 37.02 217.487 38.36 217.487 41.04V45.88C217.487 46.7333 217.074 47.16 216.247 47.16C215.407 47.16 214.987 46.7333 214.987 45.88V41.16C214.987 40.4 214.841 39.8467 214.547 39.5C214.267 39.1533 213.827 38.98 213.227 38.98C212.494 38.98 211.907 39.2133 211.467 39.68C211.041 40.1333 210.827 40.74 210.827 41.5V45.88C210.827 46.7333 210.407 47.16 209.567 47.16ZM224.587 50.8C223.867 50.8 223.167 50.7333 222.487 50.6C221.82 50.4667 221.213 50.26 220.667 49.98C220.347 49.82 220.153 49.6133 220.087 49.36C220.033 49.12 220.06 48.8867 220.167 48.66C220.273 48.4333 220.433 48.2667 220.647 48.16C220.873 48.0667 221.113 48.08 221.367 48.2C221.953 48.4933 222.507 48.68 223.027 48.76C223.56 48.8533 224.013 48.9 224.387 48.9C226.173 48.9 227.067 48.04 227.067 46.32V44.98C226.787 45.5267 226.353 45.96 225.767 46.28C225.193 46.6 224.553 46.76 223.847 46.76C222.967 46.76 222.2 46.56 221.547 46.16C220.893 45.7467 220.387 45.1733 220.027 44.44C219.667 43.7067 219.487 42.8533 219.487 41.88C219.487 40.9067 219.667 40.06 220.027 39.34C220.387 38.6067 220.893 38.04 221.547 37.64C222.2 37.2267 222.967 37.02 223.847 37.02C224.553 37.02 225.193 37.1733 225.767 37.48C226.34 37.7867 226.76 38.2067 227.027 38.74V38.32C227.027 37.9067 227.133 37.5933 227.347 37.38C227.573 37.1667 227.88 37.06 228.267 37.06C229.093 37.06 229.507 37.48 229.507 38.32V46.02C229.507 47.6067 229.087 48.8 228.247 49.6C227.407 50.4 226.187 50.8 224.587 50.8ZM224.527 44.86C225.3 44.86 225.913 44.5933 226.367 44.06C226.82 43.5267 227.047 42.8 227.047 41.88C227.047 40.96 226.82 40.24 226.367 39.72C225.913 39.1867 225.3 38.92 224.527 38.92C223.753 38.92 223.14 39.1867 222.687 39.72C222.233 40.24 222.007 40.96 222.007 41.88C222.007 42.8 222.233 43.5267 222.687 44.06C223.14 44.5933 223.753 44.86 224.527 44.86Z" fill="black"/>
<defs>
<filter id="filter0_dddd_340_905" x="0" y="0" width="284" height="191" filterUnits="userSpaceOnUse" color-interpolation-filters="sRGB">
<feFlood flood-opacity="0" result="BackgroundImageFix"/>
<feColorMatrix in="SourceAlpha" type="matrix" values="0 0 0 0 0 0 0 0 0 0 0 0 0 0 0 0 0 0 127 0" result="hardAlpha"/>
<feOffset dy="-4"/>
<feGaussianBlur stdDeviation="2"/>
<feComposite in2="hardAlpha" operator="out"/>
<feColorMatrix type="matrix" values="0 0 0 0 0 0 0 0 0 0 0 0 0 0 0 0 0 0 0.12 0"/>
<feBlend mode="normal" in2="BackgroundImageFix" result="effect1_dropShadow_340_905"/>
<feColorMatrix in="SourceAlpha" type="matrix" values="0 0 0 0 0 0 0 0 0 0 0 0 0 0 0 0 0 0 127 0" result="hardAlpha"/>
<feOffset dx="4"/>
<feGaussianBlur stdDeviation="2"/>
<feComposite in2="hardAlpha" operator="out"/>
<feColorMatrix type="matrix" values="0 0 0 0 0 0 0 0 0 0 0 0 0 0 0 0 0 0 0.12 0"/>
<feBlend mode="normal" in2="effect1_dropShadow_340_905" result="effect2_dropShadow_340_905"/>
<feColorMatrix in="SourceAlpha" type="matrix" values="0 0 0 0 0 0 0 0 0 0 0 0 0 0 0 0 0 0 127 0" result="hardAlpha"/>
<feOffset dy="4"/>
<feGaussianBlur stdDeviation="2"/>
<feComposite in2="hardAlpha" operator="out"/>
<feColorMatrix type="matrix" values="0 0 0 0 0 0 0 0 0 0 0 0 0 0 0 0 0 0 0.25 0"/>
<feBlend mode="normal" in2="effect2_dropShadow_340_905" result="effect3_dropShadow_340_905"/>
<feColorMatrix in="SourceAlpha" type="matrix" values="0 0 0 0 0 0 0 0 0 0 0 0 0 0 0 0 0 0 127 0" result="hardAlpha"/>
<feOffset dx="-4"/>
<feGaussianBlur stdDeviation="2"/>
<feComposite in2="hardAlpha" operator="out"/>
<feColorMatrix type="matrix" values="0 0 0 0 0 0 0 0 0 0 0 0 0 0 0 0 0 0 0.12 0"/>
<feBlend mode="normal" in2="effect3_dropShadow_340_905" result="effect4_dropShadow_340_905"/>
<feBlend mode="normal" in="SourceGraphic" in2="effect4_dropShadow_340_905" result="shape"/>
</filter>
</defs>
</svg>
