<svg width="284" height="191" viewBox="0 0 284 191" fill="none" xmlns="http://www.w3.org/2000/svg">
<g filter="url(#filter0_dddd_257_806)">
<rect x="8" y="8" width="268" height="175" rx="15" fill="#FF8D8D"/>
</g>
<path d="M69.9009 95C69.4509 95 69.2259 94.775 69.2259 94.325V85.1C69.2259 84.65 69.4509 84.425 69.9009 84.425H72.7959C74.5059 84.425 75.8259 84.88 76.7559 85.79C77.6859 86.69 78.1509 87.995 78.1509 89.705C78.1509 91.415 77.6859 92.725 76.7559 93.635C75.8259 94.545 74.5059 95 72.7959 95H69.9009ZM70.4559 93.95H72.7059C75.4659 93.95 76.8459 92.535 76.8459 89.705C76.8459 86.885 75.4659 85.475 72.7059 85.475H70.4559V93.95ZM82.7737 95.135C81.0237 95.135 80.1487 94.17 80.1487 92.24V88.22C80.1487 87.81 80.3487 87.605 80.7487 87.605C81.1587 87.605 81.3637 87.81 81.3637 88.22V92.225C81.3637 92.875 81.4937 93.355 81.7537 93.665C82.0237 93.975 82.4437 94.13 83.0137 94.13C83.6337 94.13 84.1387 93.925 84.5287 93.515C84.9187 93.095 85.1137 92.54 85.1137 91.85V88.22C85.1137 87.81 85.3187 87.605 85.7287 87.605C86.1287 87.605 86.3287 87.81 86.3287 88.22V94.475C86.3287 94.895 86.1337 95.105 85.7437 95.105C85.3437 95.105 85.1437 94.895 85.1437 94.475V93.77C84.9137 94.21 84.5887 94.55 84.1687 94.79C83.7587 95.02 83.2937 95.135 82.7737 95.135ZM93.0691 95.105C92.6691 95.105 92.4691 94.895 92.4691 94.475V84.935C92.4691 84.525 92.6691 84.32 93.0691 84.32C93.4791 84.32 93.6841 84.525 93.6841 84.935V88.91C93.9241 88.47 94.2591 88.14 94.6891 87.92C95.1291 87.69 95.6191 87.575 96.1591 87.575C97.8891 87.575 98.7541 88.535 98.7541 90.455V94.475C98.7541 94.895 98.5541 95.105 98.1541 95.105C97.7441 95.105 97.5391 94.895 97.5391 94.475V90.53C97.5391 89.85 97.4041 89.355 97.1341 89.045C96.8741 88.725 96.4541 88.565 95.8741 88.565C95.2041 88.565 94.6691 88.775 94.2691 89.195C93.8791 89.605 93.6841 90.155 93.6841 90.845V94.475C93.6841 94.895 93.4791 95.105 93.0691 95.105ZM103.289 95.135C102.789 95.135 102.339 95.04 101.939 94.85C101.549 94.65 101.239 94.38 101.009 94.04C100.779 93.7 100.664 93.32 100.664 92.9C100.664 92.37 100.799 91.95 101.069 91.64C101.349 91.33 101.804 91.11 102.434 90.98C103.074 90.84 103.944 90.77 105.044 90.77H105.524V90.305C105.524 89.685 105.394 89.24 105.134 88.97C104.884 88.69 104.479 88.55 103.919 88.55C103.569 88.55 103.214 88.595 102.854 88.685C102.504 88.775 102.139 88.92 101.759 89.12C101.589 89.21 101.444 89.23 101.324 89.18C101.214 89.12 101.134 89.03 101.084 88.91C101.044 88.78 101.044 88.65 101.084 88.52C101.134 88.38 101.234 88.275 101.384 88.205C101.814 87.985 102.244 87.825 102.674 87.725C103.114 87.625 103.529 87.575 103.919 87.575C104.859 87.575 105.554 87.805 106.004 88.265C106.464 88.725 106.694 89.44 106.694 90.41V94.475C106.694 94.895 106.509 95.105 106.139 95.105C105.749 95.105 105.554 94.895 105.554 94.475V93.74C105.364 94.17 105.069 94.51 104.669 94.76C104.279 95.01 103.819 95.135 103.289 95.135ZM103.484 94.22C104.084 94.22 104.574 94.015 104.954 93.605C105.334 93.185 105.524 92.655 105.524 92.015V91.565H105.059C104.249 91.565 103.609 91.605 103.139 91.685C102.679 91.755 102.354 91.885 102.164 92.075C101.984 92.255 101.894 92.505 101.894 92.825C101.894 93.235 102.034 93.57 102.314 93.83C102.604 94.09 102.994 94.22 103.484 94.22ZM109.564 95.105C109.154 95.105 108.949 94.895 108.949 94.475V88.22C108.949 87.81 109.144 87.605 109.534 87.605C109.934 87.605 110.134 87.81 110.134 88.22V89.015C110.334 88.555 110.644 88.205 111.064 87.965C111.484 87.715 111.984 87.58 112.564 87.56C112.884 87.53 113.054 87.69 113.074 88.04C113.104 88.39 112.924 88.585 112.534 88.625L112.294 88.655C111.604 88.715 111.079 88.935 110.719 89.315C110.359 89.685 110.179 90.195 110.179 90.845V94.475C110.179 94.895 109.974 95.105 109.564 95.105ZM118.792 85.955C118.262 85.955 117.997 85.705 117.997 85.205C117.997 84.715 118.262 84.47 118.792 84.47C119.322 84.47 119.587 84.715 119.587 85.205C119.587 85.705 119.322 85.955 118.792 85.955ZM118.792 95.075C118.392 95.075 118.192 94.855 118.192 94.415V88.28C118.192 87.85 118.392 87.635 118.792 87.635C119.202 87.635 119.407 87.85 119.407 88.28V94.415C119.407 94.855 119.202 95.075 118.792 95.075ZM122.278 95.105C121.878 95.105 121.678 94.895 121.678 94.475V84.935C121.678 84.525 121.878 84.32 122.278 84.32C122.688 84.32 122.893 84.525 122.893 84.935V90.95H122.923L125.998 88.01C126.128 87.88 126.248 87.78 126.358 87.71C126.468 87.64 126.613 87.605 126.793 87.605C127.033 87.605 127.188 87.7 127.258 87.89C127.338 88.07 127.288 88.255 127.108 88.445L124.183 91.22L127.393 94.235C127.603 94.435 127.658 94.63 127.558 94.82C127.468 95.01 127.313 95.105 127.093 95.105C126.913 95.105 126.763 95.07 126.643 95C126.533 94.92 126.403 94.805 126.253 94.655L122.923 91.58H122.893V94.475C122.893 94.895 122.688 95.105 122.278 95.105ZM129.778 95.105C129.378 95.105 129.178 94.895 129.178 94.475V84.935C129.178 84.525 129.378 84.32 129.778 84.32C130.188 84.32 130.393 84.525 130.393 84.935V90.95H130.423L133.498 88.01C133.628 87.88 133.748 87.78 133.858 87.71C133.968 87.64 134.113 87.605 134.293 87.605C134.533 87.605 134.688 87.7 134.758 87.89C134.838 88.07 134.788 88.255 134.608 88.445L131.683 91.22L134.893 94.235C135.103 94.435 135.158 94.63 135.058 94.82C134.968 95.01 134.813 95.105 134.593 95.105C134.413 95.105 134.263 95.07 134.143 95C134.033 94.92 133.903 94.805 133.753 94.655L130.423 91.58H130.393V94.475C130.393 94.895 130.188 95.105 129.778 95.105ZM139.773 95.135C138.623 95.135 137.713 94.8 137.043 94.13C136.373 93.45 136.038 92.53 136.038 91.37C136.038 90.62 136.188 89.96 136.488 89.39C136.788 88.81 137.198 88.365 137.718 88.055C138.248 87.735 138.858 87.575 139.548 87.575C140.538 87.575 141.313 87.895 141.873 88.535C142.433 89.165 142.713 90.035 142.713 91.145C142.713 91.455 142.538 91.61 142.188 91.61H137.223C137.263 92.44 137.503 93.075 137.943 93.515C138.383 93.945 138.993 94.16 139.773 94.16C140.103 94.16 140.438 94.12 140.778 94.04C141.118 93.95 141.448 93.795 141.768 93.575C141.998 93.425 142.188 93.395 142.338 93.485C142.498 93.575 142.578 93.715 142.578 93.905C142.588 94.085 142.488 94.245 142.278 94.385C141.948 94.625 141.553 94.81 141.093 94.94C140.643 95.07 140.203 95.135 139.773 95.135ZM139.578 88.475C138.888 88.475 138.343 88.69 137.943 89.12C137.543 89.55 137.308 90.115 137.238 90.815H141.663C141.633 90.075 141.438 89.5 141.078 89.09C140.728 88.68 140.228 88.475 139.578 88.475ZM150.633 95.135C150.133 95.135 149.683 95.04 149.283 94.85C148.893 94.65 148.583 94.38 148.353 94.04C148.123 93.7 148.008 93.32 148.008 92.9C148.008 92.37 148.143 91.95 148.413 91.64C148.693 91.33 149.148 91.11 149.778 90.98C150.418 90.84 151.288 90.77 152.388 90.77H152.868V90.305C152.868 89.685 152.738 89.24 152.478 88.97C152.228 88.69 151.823 88.55 151.263 88.55C150.913 88.55 150.558 88.595 150.198 88.685C149.848 88.775 149.483 88.92 149.103 89.12C148.933 89.21 148.788 89.23 148.668 89.18C148.558 89.12 148.478 89.03 148.428 88.91C148.388 88.78 148.388 88.65 148.428 88.52C148.478 88.38 148.578 88.275 148.728 88.205C149.158 87.985 149.588 87.825 150.018 87.725C150.458 87.625 150.873 87.575 151.263 87.575C152.203 87.575 152.898 87.805 153.348 88.265C153.808 88.725 154.038 89.44 154.038 90.41V94.475C154.038 94.895 153.853 95.105 153.483 95.105C153.093 95.105 152.898 94.895 152.898 94.475V93.74C152.708 94.17 152.413 94.51 152.013 94.76C151.623 95.01 151.163 95.135 150.633 95.135ZM150.828 94.22C151.428 94.22 151.918 94.015 152.298 93.605C152.678 93.185 152.868 92.655 152.868 92.015V91.565H152.403C151.593 91.565 150.953 91.605 150.483 91.685C150.023 91.755 149.698 91.885 149.508 92.075C149.328 92.255 149.238 92.505 149.238 92.825C149.238 93.235 149.378 93.57 149.658 93.83C149.948 94.09 150.338 94.22 150.828 94.22ZM159.067 95.135C158.417 95.135 157.847 94.98 157.357 94.67C156.877 94.36 156.502 93.925 156.232 93.365C155.972 92.795 155.842 92.125 155.842 91.355C155.842 90.575 155.972 89.905 156.232 89.345C156.502 88.775 156.877 88.34 157.357 88.04C157.847 87.73 158.417 87.575 159.067 87.575C159.637 87.575 160.137 87.7 160.567 87.95C161.007 88.2 161.332 88.545 161.542 88.985V84.935C161.542 84.525 161.747 84.32 162.157 84.32C162.557 84.32 162.757 84.525 162.757 84.935V94.475C162.757 94.895 162.557 95.105 162.157 95.105C161.757 95.105 161.557 94.895 161.557 94.475V93.695C161.337 94.145 161.007 94.5 160.567 94.76C160.137 95.01 159.637 95.135 159.067 95.135ZM159.322 94.16C160.002 94.16 160.547 93.92 160.957 93.44C161.367 92.95 161.572 92.255 161.572 91.355C161.572 90.445 161.367 89.75 160.957 89.27C160.547 88.79 160.002 88.55 159.322 88.55C158.632 88.55 158.082 88.79 157.672 89.27C157.272 89.75 157.072 90.445 157.072 91.355C157.072 92.255 157.272 92.95 157.672 93.44C158.082 93.92 158.632 94.16 159.322 94.16ZM168.262 97.835C167.732 97.835 167.212 97.77 166.702 97.64C166.202 97.52 165.747 97.325 165.337 97.055C165.187 96.965 165.097 96.855 165.067 96.725C165.047 96.605 165.067 96.485 165.127 96.365C165.187 96.255 165.272 96.175 165.382 96.125C165.502 96.075 165.627 96.085 165.757 96.155C166.197 96.425 166.617 96.61 167.017 96.71C167.417 96.81 167.812 96.86 168.202 96.86C169.642 96.86 170.362 96.12 170.362 94.64V93.35C170.152 93.81 169.822 94.175 169.372 94.445C168.932 94.705 168.427 94.835 167.857 94.835C167.187 94.835 166.607 94.68 166.117 94.37C165.627 94.06 165.247 93.635 164.977 93.095C164.717 92.545 164.587 91.91 164.587 91.19C164.587 90.47 164.717 89.84 164.977 89.3C165.247 88.75 165.627 88.325 166.117 88.025C166.607 87.725 167.187 87.575 167.857 87.575C168.427 87.575 168.932 87.7 169.372 87.95C169.812 88.2 170.137 88.55 170.347 89V88.22C170.347 87.81 170.547 87.605 170.947 87.605C171.347 87.605 171.547 87.81 171.547 88.22V94.475C171.547 95.595 171.267 96.435 170.707 96.995C170.157 97.555 169.342 97.835 168.262 97.835ZM168.082 93.845C168.782 93.845 169.337 93.605 169.747 93.125C170.157 92.645 170.362 92 170.362 91.19C170.362 90.38 170.157 89.74 169.747 89.27C169.337 88.79 168.782 88.55 168.082 88.55C167.392 88.55 166.842 88.79 166.432 89.27C166.022 89.74 165.817 90.38 165.817 91.19C165.817 92 166.022 92.645 166.432 93.125C166.842 93.605 167.392 93.845 168.082 93.845ZM176.122 95.135C175.622 95.135 175.172 95.04 174.772 94.85C174.382 94.65 174.072 94.38 173.842 94.04C173.612 93.7 173.497 93.32 173.497 92.9C173.497 92.37 173.632 91.95 173.902 91.64C174.182 91.33 174.637 91.11 175.267 90.98C175.907 90.84 176.777 90.77 177.877 90.77H178.357V90.305C178.357 89.685 178.227 89.24 177.967 88.97C177.717 88.69 177.312 88.55 176.752 88.55C176.402 88.55 176.047 88.595 175.687 88.685C175.337 88.775 174.972 88.92 174.592 89.12C174.422 89.21 174.277 89.23 174.157 89.18C174.047 89.12 173.967 89.03 173.917 88.91C173.877 88.78 173.877 88.65 173.917 88.52C173.967 88.38 174.067 88.275 174.217 88.205C174.647 87.985 175.077 87.825 175.507 87.725C175.947 87.625 176.362 87.575 176.752 87.575C177.692 87.575 178.387 87.805 178.837 88.265C179.297 88.725 179.527 89.44 179.527 90.41V94.475C179.527 94.895 179.342 95.105 178.972 95.105C178.582 95.105 178.387 94.895 178.387 94.475V93.74C178.197 94.17 177.902 94.51 177.502 94.76C177.112 95.01 176.652 95.135 176.122 95.135ZM176.317 94.22C176.917 94.22 177.407 94.015 177.787 93.605C178.167 93.185 178.357 92.655 178.357 92.015V91.565H177.892C177.082 91.565 176.442 91.605 175.972 91.685C175.512 91.755 175.187 91.885 174.997 92.075C174.817 92.255 174.727 92.505 174.727 92.825C174.727 93.235 174.867 93.57 175.147 93.83C175.437 94.09 175.827 94.22 176.317 94.22ZM182.381 95.105C181.981 95.105 181.781 94.895 181.781 94.475V88.22C181.781 87.81 181.976 87.605 182.366 87.605C182.766 87.605 182.966 87.81 182.966 88.22V88.955C183.206 88.495 183.546 88.15 183.986 87.92C184.426 87.69 184.921 87.575 185.471 87.575C187.201 87.575 188.066 88.535 188.066 90.455V94.475C188.066 94.895 187.866 95.105 187.466 95.105C187.056 95.105 186.851 94.895 186.851 94.475V90.53C186.851 89.85 186.716 89.355 186.446 89.045C186.186 88.725 185.766 88.565 185.186 88.565C184.516 88.565 183.981 88.775 183.581 89.195C183.191 89.605 182.996 90.155 182.996 90.845V94.475C182.996 94.895 182.791 95.105 182.381 95.105ZM193.531 97.835C193.001 97.835 192.481 97.77 191.971 97.64C191.471 97.52 191.016 97.325 190.606 97.055C190.456 96.965 190.366 96.855 190.336 96.725C190.316 96.605 190.336 96.485 190.396 96.365C190.456 96.255 190.541 96.175 190.651 96.125C190.771 96.075 190.896 96.085 191.026 96.155C191.466 96.425 191.886 96.61 192.286 96.71C192.686 96.81 193.081 96.86 193.471 96.86C194.911 96.86 195.631 96.12 195.631 94.64V93.35C195.421 93.81 195.091 94.175 194.641 94.445C194.201 94.705 193.696 94.835 193.126 94.835C192.456 94.835 191.876 94.68 191.386 94.37C190.896 94.06 190.516 93.635 190.246 93.095C189.986 92.545 189.856 91.91 189.856 91.19C189.856 90.47 189.986 89.84 190.246 89.3C190.516 88.75 190.896 88.325 191.386 88.025C191.876 87.725 192.456 87.575 193.126 87.575C193.696 87.575 194.201 87.7 194.641 87.95C195.081 88.2 195.406 88.55 195.616 89V88.22C195.616 87.81 195.816 87.605 196.216 87.605C196.616 87.605 196.816 87.81 196.816 88.22V94.475C196.816 95.595 196.536 96.435 195.976 96.995C195.426 97.555 194.611 97.835 193.531 97.835ZM193.351 93.845C194.051 93.845 194.606 93.605 195.016 93.125C195.426 92.645 195.631 92 195.631 91.19C195.631 90.38 195.426 89.74 195.016 89.27C194.606 88.79 194.051 88.55 193.351 88.55C192.661 88.55 192.111 88.79 191.701 89.27C191.291 89.74 191.086 90.38 191.086 91.19C191.086 92 191.291 92.645 191.701 93.125C192.111 93.605 192.661 93.845 193.351 93.845ZM205.887 95.135C205.027 95.135 204.382 94.91 203.952 94.46C203.522 94 203.307 93.34 203.307 92.48V88.655H202.302C201.952 88.655 201.777 88.495 201.777 88.175C201.777 87.865 201.952 87.71 202.302 87.71H203.307V85.985C203.307 85.575 203.512 85.37 203.922 85.37C204.322 85.37 204.522 85.575 204.522 85.985V87.71H206.412C206.762 87.71 206.937 87.865 206.937 88.175C206.937 88.495 206.762 88.655 206.412 88.655H204.522V92.36C204.522 92.93 204.642 93.365 204.882 93.665C205.122 93.955 205.512 94.1 206.052 94.1C206.242 94.1 206.402 94.08 206.532 94.04C206.662 94 206.777 93.98 206.877 93.98C206.967 93.97 207.042 94 207.102 94.07C207.162 94.14 207.192 94.26 207.192 94.43C207.192 94.55 207.167 94.66 207.117 94.76C207.077 94.86 207.002 94.93 206.892 94.97C206.772 95.01 206.612 95.045 206.412 95.075C206.222 95.115 206.047 95.135 205.887 95.135ZM208.894 85.955C208.364 85.955 208.099 85.705 208.099 85.205C208.099 84.715 208.364 84.47 208.894 84.47C209.424 84.47 209.689 84.715 209.689 85.205C209.689 85.705 209.424 85.955 208.894 85.955ZM208.894 95.075C208.494 95.075 208.294 94.855 208.294 94.415V88.28C208.294 87.85 208.494 87.635 208.894 87.635C209.304 87.635 209.509 87.85 209.509 88.28V94.415C209.509 94.855 209.304 95.075 208.894 95.075ZM214.001 95.135C213.281 95.135 212.731 94.92 212.351 94.49C211.971 94.05 211.781 93.415 211.781 92.585V84.935C211.781 84.525 211.981 84.32 212.381 84.32C212.791 84.32 212.996 84.525 212.996 84.935V92.495C212.996 93.565 213.421 94.1 214.271 94.1C214.361 94.1 214.441 94.095 214.511 94.085C214.581 94.075 214.651 94.07 214.721 94.07C214.831 94.06 214.906 94.085 214.946 94.145C214.996 94.205 215.021 94.325 215.021 94.505C215.021 94.845 214.851 95.04 214.511 95.09C214.431 95.11 214.346 95.12 214.256 95.12C214.166 95.13 214.081 95.135 214.001 95.135ZM104.092 114.135C103.442 114.135 102.872 113.98 102.382 113.67C101.902 113.36 101.527 112.925 101.257 112.365C100.997 111.795 100.867 111.125 100.867 110.355C100.867 109.575 100.997 108.905 101.257 108.345C101.527 107.775 101.902 107.34 102.382 107.04C102.872 106.73 103.442 106.575 104.092 106.575C104.662 106.575 105.162 106.7 105.592 106.95C106.032 107.2 106.357 107.545 106.567 107.985V103.935C106.567 103.525 106.772 103.32 107.182 103.32C107.582 103.32 107.782 103.525 107.782 103.935V113.475C107.782 113.895 107.582 114.105 107.182 114.105C106.782 114.105 106.582 113.895 106.582 113.475V112.695C106.362 113.145 106.032 113.5 105.592 113.76C105.162 114.01 104.662 114.135 104.092 114.135ZM104.347 113.16C105.027 113.16 105.572 112.92 105.982 112.44C106.392 111.95 106.597 111.255 106.597 110.355C106.597 109.445 106.392 108.75 105.982 108.27C105.572 107.79 105.027 107.55 104.347 107.55C103.657 107.55 103.107 107.79 102.697 108.27C102.297 108.75 102.097 109.445 102.097 110.355C102.097 111.255 102.297 111.95 102.697 112.44C103.107 112.92 103.657 113.16 104.347 113.16ZM113.347 114.135C112.197 114.135 111.287 113.8 110.617 113.13C109.947 112.45 109.612 111.53 109.612 110.37C109.612 109.62 109.762 108.96 110.062 108.39C110.362 107.81 110.772 107.365 111.292 107.055C111.822 106.735 112.432 106.575 113.122 106.575C114.112 106.575 114.887 106.895 115.447 107.535C116.007 108.165 116.287 109.035 116.287 110.145C116.287 110.455 116.112 110.61 115.762 110.61H110.797C110.837 111.44 111.077 112.075 111.517 112.515C111.957 112.945 112.567 113.16 113.347 113.16C113.677 113.16 114.012 113.12 114.352 113.04C114.692 112.95 115.022 112.795 115.342 112.575C115.572 112.425 115.762 112.395 115.912 112.485C116.072 112.575 116.152 112.715 116.152 112.905C116.162 113.085 116.062 113.245 115.852 113.385C115.522 113.625 115.127 113.81 114.667 113.94C114.217 114.07 113.777 114.135 113.347 114.135ZM113.152 107.475C112.462 107.475 111.917 107.69 111.517 108.12C111.117 108.55 110.882 109.115 110.812 109.815H115.237C115.207 109.075 115.012 108.5 114.652 108.09C114.302 107.68 113.802 107.475 113.152 107.475ZM120.97 114.135C120.11 114.135 119.465 113.91 119.035 113.46C118.605 113 118.39 112.34 118.39 111.48V107.655H117.385C117.035 107.655 116.86 107.495 116.86 107.175C116.86 106.865 117.035 106.71 117.385 106.71H118.39V104.985C118.39 104.575 118.595 104.37 119.005 104.37C119.405 104.37 119.605 104.575 119.605 104.985V106.71H121.495C121.845 106.71 122.02 106.865 122.02 107.175C122.02 107.495 121.845 107.655 121.495 107.655H119.605V111.36C119.605 111.93 119.725 112.365 119.965 112.665C120.205 112.955 120.595 113.1 121.135 113.1C121.325 113.1 121.485 113.08 121.615 113.04C121.745 113 121.86 112.98 121.96 112.98C122.05 112.97 122.125 113 122.185 113.07C122.245 113.14 122.275 113.26 122.275 113.43C122.275 113.55 122.25 113.66 122.2 113.76C122.16 113.86 122.085 113.93 121.975 113.97C121.855 114.01 121.695 114.045 121.495 114.075C121.305 114.115 121.13 114.135 120.97 114.135ZM126.024 114.135C125.164 114.135 124.519 113.91 124.089 113.46C123.659 113 123.444 112.34 123.444 111.48V107.655H122.439C122.089 107.655 121.914 107.495 121.914 107.175C121.914 106.865 122.089 106.71 122.439 106.71H123.444V104.985C123.444 104.575 123.649 104.37 124.059 104.37C124.459 104.37 124.659 104.575 124.659 104.985V106.71H126.549C126.899 106.71 127.074 106.865 127.074 107.175C127.074 107.495 126.899 107.655 126.549 107.655H124.659V111.36C124.659 111.93 124.779 112.365 125.019 112.665C125.259 112.955 125.649 113.1 126.189 113.1C126.379 113.1 126.539 113.08 126.669 113.04C126.799 113 126.914 112.98 127.014 112.98C127.104 112.97 127.179 113 127.239 113.07C127.299 113.14 127.329 113.26 127.329 113.43C127.329 113.55 127.304 113.66 127.254 113.76C127.214 113.86 127.139 113.93 127.029 113.97C126.909 114.01 126.749 114.045 126.549 114.075C126.359 114.115 126.184 114.135 126.024 114.135ZM131.555 114.135C130.405 114.135 129.495 113.8 128.825 113.13C128.155 112.45 127.82 111.53 127.82 110.37C127.82 109.62 127.97 108.96 128.27 108.39C128.57 107.81 128.98 107.365 129.5 107.055C130.03 106.735 130.64 106.575 131.33 106.575C132.32 106.575 133.095 106.895 133.655 107.535C134.215 108.165 134.495 109.035 134.495 110.145C134.495 110.455 134.32 110.61 133.97 110.61H129.005C129.045 111.44 129.285 112.075 129.725 112.515C130.165 112.945 130.775 113.16 131.555 113.16C131.885 113.16 132.22 113.12 132.56 113.04C132.9 112.95 133.23 112.795 133.55 112.575C133.78 112.425 133.97 112.395 134.12 112.485C134.28 112.575 134.36 112.715 134.36 112.905C134.37 113.085 134.27 113.245 134.06 113.385C133.73 113.625 133.335 113.81 132.875 113.94C132.425 114.07 131.985 114.135 131.555 114.135ZM131.36 107.475C130.67 107.475 130.125 107.69 129.725 108.12C129.325 108.55 129.09 109.115 129.02 109.815H133.445C133.415 109.075 133.22 108.5 132.86 108.09C132.51 107.68 132.01 107.475 131.36 107.475ZM142.34 114.135C141.62 114.135 141.07 113.92 140.69 113.49C140.31 113.05 140.12 112.415 140.12 111.585V103.935C140.12 103.525 140.32 103.32 140.72 103.32C141.13 103.32 141.335 103.525 141.335 103.935V111.495C141.335 112.565 141.76 113.1 142.61 113.1C142.7 113.1 142.78 113.095 142.85 113.085C142.92 113.075 142.99 113.07 143.06 113.07C143.17 113.06 143.245 113.085 143.285 113.145C143.335 113.205 143.36 113.325 143.36 113.505C143.36 113.845 143.19 114.04 142.85 114.09C142.77 114.11 142.685 114.12 142.595 114.12C142.505 114.13 142.42 114.135 142.34 114.135ZM147.516 114.135C146.806 114.135 146.191 113.98 145.671 113.67C145.151 113.36 144.746 112.925 144.456 112.365C144.176 111.795 144.036 111.125 144.036 110.355C144.036 109.585 144.176 108.92 144.456 108.36C144.746 107.79 145.151 107.35 145.671 107.04C146.191 106.73 146.806 106.575 147.516 106.575C148.216 106.575 148.826 106.73 149.346 107.04C149.876 107.35 150.281 107.79 150.561 108.36C150.851 108.92 150.996 109.585 150.996 110.355C150.996 111.125 150.851 111.795 150.561 112.365C150.281 112.925 149.876 113.36 149.346 113.67C148.826 113.98 148.216 114.135 147.516 114.135ZM147.516 113.16C148.196 113.16 148.741 112.92 149.151 112.44C149.561 111.95 149.766 111.255 149.766 110.355C149.766 109.445 149.561 108.75 149.151 108.27C148.741 107.79 148.196 107.55 147.516 107.55C146.826 107.55 146.276 107.79 145.866 108.27C145.466 108.75 145.266 109.445 145.266 110.355C145.266 111.255 145.466 111.95 145.866 112.44C146.276 112.92 146.826 113.16 147.516 113.16ZM153.421 114.105C153.021 114.105 152.821 113.895 152.821 113.475V103.935C152.821 103.525 153.021 103.32 153.421 103.32C153.831 103.32 154.036 103.525 154.036 103.935V109.95H154.066L157.141 107.01C157.271 106.88 157.391 106.78 157.501 106.71C157.611 106.64 157.756 106.605 157.936 106.605C158.176 106.605 158.331 106.7 158.401 106.89C158.481 107.07 158.431 107.255 158.251 107.445L155.326 110.22L158.536 113.235C158.746 113.435 158.801 113.63 158.701 113.82C158.611 114.01 158.456 114.105 158.236 114.105C158.056 114.105 157.906 114.07 157.786 114C157.676 113.92 157.546 113.805 157.396 113.655L154.066 110.58H154.036V113.475C154.036 113.895 153.831 114.105 153.421 114.105ZM162.542 114.135C162.042 114.135 161.592 114.04 161.192 113.85C160.802 113.65 160.492 113.38 160.262 113.04C160.032 112.7 159.917 112.32 159.917 111.9C159.917 111.37 160.052 110.95 160.322 110.64C160.602 110.33 161.057 110.11 161.687 109.98C162.327 109.84 163.197 109.77 164.297 109.77H164.777V109.305C164.777 108.685 164.647 108.24 164.387 107.97C164.137 107.69 163.732 107.55 163.172 107.55C162.822 107.55 162.467 107.595 162.107 107.685C161.757 107.775 161.392 107.92 161.012 108.12C160.842 108.21 160.697 108.23 160.577 108.18C160.467 108.12 160.387 108.03 160.337 107.91C160.297 107.78 160.297 107.65 160.337 107.52C160.387 107.38 160.487 107.275 160.637 107.205C161.067 106.985 161.497 106.825 161.927 106.725C162.367 106.625 162.782 106.575 163.172 106.575C164.112 106.575 164.807 106.805 165.257 107.265C165.717 107.725 165.947 108.44 165.947 109.41V113.475C165.947 113.895 165.762 114.105 165.392 114.105C165.002 114.105 164.807 113.895 164.807 113.475V112.74C164.617 113.17 164.322 113.51 163.922 113.76C163.532 114.01 163.072 114.135 162.542 114.135ZM162.737 113.22C163.337 113.22 163.827 113.015 164.207 112.605C164.587 112.185 164.777 111.655 164.777 111.015V110.565H164.312C163.502 110.565 162.862 110.605 162.392 110.685C161.932 110.755 161.607 110.885 161.417 111.075C161.237 111.255 161.147 111.505 161.147 111.825C161.147 112.235 161.287 112.57 161.567 112.83C161.857 113.09 162.247 113.22 162.737 113.22ZM170.422 114.135C169.702 114.135 169.152 113.92 168.772 113.49C168.392 113.05 168.202 112.415 168.202 111.585V103.935C168.202 103.525 168.402 103.32 168.802 103.32C169.212 103.32 169.417 103.525 169.417 103.935V111.495C169.417 112.565 169.842 113.1 170.692 113.1C170.782 113.1 170.862 113.095 170.932 113.085C171.002 113.075 171.072 113.07 171.142 113.07C171.252 113.06 171.327 113.085 171.367 113.145C171.417 113.205 171.442 113.325 171.442 113.505C171.442 113.845 171.272 114.04 170.932 114.09C170.852 114.11 170.767 114.12 170.677 114.12C170.587 114.13 170.502 114.135 170.422 114.135ZM175.852 114.135C174.702 114.135 173.792 113.8 173.122 113.13C172.452 112.45 172.117 111.53 172.117 110.37C172.117 109.62 172.267 108.96 172.567 108.39C172.867 107.81 173.277 107.365 173.797 107.055C174.327 106.735 174.937 106.575 175.627 106.575C176.617 106.575 177.392 106.895 177.952 107.535C178.512 108.165 178.792 109.035 178.792 110.145C178.792 110.455 178.617 110.61 178.267 110.61H173.302C173.342 111.44 173.582 112.075 174.022 112.515C174.462 112.945 175.072 113.16 175.852 113.16C176.182 113.16 176.517 113.12 176.857 113.04C177.197 112.95 177.527 112.795 177.847 112.575C178.077 112.425 178.267 112.395 178.417 112.485C178.577 112.575 178.657 112.715 178.657 112.905C178.667 113.085 178.567 113.245 178.357 113.385C178.027 113.625 177.632 113.81 177.172 113.94C176.722 114.07 176.282 114.135 175.852 114.135ZM175.657 107.475C174.967 107.475 174.422 107.69 174.022 108.12C173.622 108.55 173.387 109.115 173.317 109.815H177.742C177.712 109.075 177.517 108.5 177.157 108.09C176.807 107.68 176.307 107.475 175.657 107.475ZM181.135 114.06C180.885 114.06 180.685 113.985 180.535 113.835C180.385 113.675 180.31 113.475 180.31 113.235C180.31 112.995 180.385 112.8 180.535 112.65C180.685 112.49 180.885 112.41 181.135 112.41C181.385 112.41 181.58 112.49 181.72 112.65C181.87 112.8 181.945 112.995 181.945 113.235C181.945 113.475 181.87 113.675 181.72 113.835C181.58 113.985 181.385 114.06 181.135 114.06Z" fill="black"/>
<path d="M79.82 64.16C78.9667 64.16 78.54 63.72 78.54 62.84V51.06C78.54 50.18 78.9667 49.74 79.82 49.74C80.6733 49.74 81.1 50.18 81.1 51.06V62.84C81.1 63.72 80.6733 64.16 79.82 64.16ZM85.1845 64.16C84.3579 64.16 83.9445 63.7333 83.9445 62.88V55.32C83.9445 54.48 84.3512 54.06 85.1645 54.06C85.9779 54.06 86.3845 54.48 86.3845 55.32V55.74C86.7179 55.18 87.1645 54.7533 87.7245 54.46C88.2979 54.1667 88.9379 54.02 89.6445 54.02C91.9512 54.02 93.1045 55.36 93.1045 58.04V62.88C93.1045 63.7333 92.6912 64.16 91.8645 64.16C91.0245 64.16 90.6045 63.7333 90.6045 62.88V58.16C90.6045 57.4 90.4579 56.8467 90.1645 56.5C89.8845 56.1533 89.4445 55.98 88.8445 55.98C88.1112 55.98 87.5245 56.2133 87.0845 56.68C86.6579 57.1333 86.4445 57.74 86.4445 58.5V62.88C86.4445 63.7333 86.0245 64.16 85.1845 64.16ZM100.204 67.8C99.4838 67.8 98.7838 67.7333 98.1038 67.6C97.4371 67.4667 96.8304 67.26 96.2838 66.98C95.9638 66.82 95.7704 66.6133 95.7038 66.36C95.6504 66.12 95.6771 65.8867 95.7838 65.66C95.8904 65.4333 96.0504 65.2667 96.2638 65.16C96.4904 65.0667 96.7304 65.08 96.9837 65.2C97.5704 65.4933 98.1238 65.68 98.6438 65.76C99.1771 65.8533 99.6304 65.9 100.004 65.9C101.79 65.9 102.684 65.04 102.684 63.32V61.98C102.404 62.5267 101.97 62.96 101.384 63.28C100.81 63.6 100.17 63.76 99.4638 63.76C98.5838 63.76 97.8171 63.56 97.1638 63.16C96.5104 62.7467 96.0038 62.1733 95.6438 61.44C95.2838 60.7067 95.1038 59.8533 95.1038 58.88C95.1038 57.9067 95.2838 57.06 95.6438 56.34C96.0038 55.6067 96.5104 55.04 97.1638 54.64C97.8171 54.2267 98.5838 54.02 99.4638 54.02C100.17 54.02 100.81 54.1733 101.384 54.48C101.957 54.7867 102.377 55.2067 102.644 55.74V55.32C102.644 54.9067 102.75 54.5933 102.964 54.38C103.19 54.1667 103.497 54.06 103.884 54.06C104.71 54.06 105.124 54.48 105.124 55.32V63.02C105.124 64.6067 104.704 65.8 103.864 66.6C103.024 67.4 101.804 67.8 100.204 67.8ZM100.144 61.86C100.917 61.86 101.53 61.5933 101.984 61.06C102.437 60.5267 102.664 59.8 102.664 58.88C102.664 57.96 102.437 57.24 101.984 56.72C101.53 56.1867 100.917 55.92 100.144 55.92C99.3704 55.92 98.7571 56.1867 98.3038 56.72C97.8504 57.24 97.6238 57.96 97.6238 58.88C97.6238 59.8 97.8504 60.5267 98.3038 61.06C98.7571 61.5933 99.3704 61.86 100.144 61.86ZM112.534 64.2C111.427 64.2 110.474 63.9933 109.674 63.58C108.874 63.1667 108.254 62.58 107.814 61.82C107.387 61.06 107.174 60.16 107.174 59.12C107.174 58.1067 107.381 57.22 107.794 56.46C108.221 55.7 108.801 55.1067 109.534 54.68C110.281 54.24 111.127 54.02 112.074 54.02C113.461 54.02 114.554 54.46 115.354 55.34C116.167 56.22 116.574 57.42 116.574 58.94C116.574 59.4333 116.254 59.68 115.614 59.68H109.574C109.761 61.4267 110.761 62.3 112.574 62.3C112.921 62.3 113.307 62.26 113.734 62.18C114.174 62.0867 114.587 61.9333 114.974 61.72C115.321 61.52 115.614 61.46 115.854 61.54C116.094 61.6067 116.261 61.7467 116.354 61.96C116.461 62.1733 116.474 62.4133 116.394 62.68C116.327 62.9333 116.141 63.1533 115.834 63.34C115.367 63.6333 114.827 63.8533 114.214 64C113.614 64.1333 113.054 64.2 112.534 64.2ZM112.174 55.72C111.441 55.72 110.847 55.9467 110.394 56.4C109.941 56.8533 109.667 57.4667 109.574 58.24H114.494C114.441 57.4267 114.214 56.8067 113.814 56.38C113.427 55.94 112.881 55.72 112.174 55.72ZM119.794 64.16C118.967 64.16 118.554 63.7333 118.554 62.88V55.32C118.554 54.48 118.961 54.06 119.774 54.06C120.587 54.06 120.994 54.48 120.994 55.32V55.74C121.327 55.18 121.774 54.7533 122.334 54.46C122.907 54.1667 123.547 54.02 124.254 54.02C126.561 54.02 127.714 55.36 127.714 58.04V62.88C127.714 63.7333 127.301 64.16 126.474 64.16C125.634 64.16 125.214 63.7333 125.214 62.88V58.16C125.214 57.4 125.067 56.8467 124.774 56.5C124.494 56.1533 124.054 55.98 123.454 55.98C122.721 55.98 122.134 56.2133 121.694 56.68C121.267 57.1333 121.054 57.74 121.054 58.5V62.88C121.054 63.7333 120.634 64.16 119.794 64.16ZM136.063 64.16C135.596 64.16 135.263 64 135.063 63.68C134.863 63.36 134.869 62.9733 135.083 62.52L140.363 50.82C140.536 50.4333 140.743 50.16 140.983 50C141.236 49.8267 141.523 49.74 141.843 49.74C142.149 49.74 142.423 49.8267 142.663 50C142.916 50.16 143.129 50.4333 143.303 50.82L148.603 62.52C148.816 62.9867 148.829 63.38 148.643 63.7C148.456 64.0067 148.136 64.16 147.683 64.16C147.309 64.16 147.016 64.0733 146.803 63.9C146.603 63.7133 146.423 63.4333 146.263 63.06L145.263 60.74H138.383L137.403 63.06C137.229 63.4467 137.049 63.7267 136.863 63.9C136.676 64.0733 136.409 64.16 136.063 64.16ZM141.803 52.68L139.263 58.7H144.383L141.843 52.68H141.803ZM154.228 64.2C153.375 64.2 152.621 63.9933 151.968 63.58C151.328 63.1667 150.828 62.58 150.468 61.82C150.108 61.0467 149.928 60.14 149.928 59.1C149.928 58.0467 150.108 57.1467 150.468 56.4C150.828 55.64 151.328 55.0533 151.968 54.64C152.621 54.2267 153.375 54.02 154.228 54.02C154.921 54.02 155.548 54.1733 156.108 54.48C156.668 54.7867 157.088 55.1933 157.368 55.7V51C157.368 50.16 157.781 49.74 158.608 49.74C159.448 49.74 159.868 50.16 159.868 51V62.88C159.868 63.7333 159.455 64.16 158.628 64.16C157.801 64.16 157.388 63.7333 157.388 62.88V62.46C157.108 62.9933 156.688 63.42 156.128 63.74C155.568 64.0467 154.935 64.2 154.228 64.2ZM154.928 62.3C155.675 62.3 156.275 62.0333 156.728 61.5C157.181 60.9533 157.408 60.1533 157.408 59.1C157.408 58.0333 157.181 57.24 156.728 56.72C156.275 56.1867 155.675 55.92 154.928 55.92C154.181 55.92 153.581 56.1867 153.128 56.72C152.675 57.24 152.448 58.0333 152.448 59.1C152.448 60.1533 152.675 60.9533 153.128 61.5C153.581 62.0333 154.181 62.3 154.928 62.3ZM167.02 67.8C166.3 67.8 165.6 67.7333 164.92 67.6C164.253 67.4667 163.647 67.26 163.1 66.98C162.78 66.82 162.587 66.6133 162.52 66.36C162.467 66.12 162.493 65.8867 162.6 65.66C162.707 65.4333 162.867 65.2667 163.08 65.16C163.307 65.0667 163.547 65.08 163.8 65.2C164.387 65.4933 164.94 65.68 165.46 65.76C165.993 65.8533 166.447 65.9 166.82 65.9C168.607 65.9 169.5 65.04 169.5 63.32V61.98C169.22 62.5267 168.787 62.96 168.2 63.28C167.627 63.6 166.987 63.76 166.28 63.76C165.4 63.76 164.633 63.56 163.98 63.16C163.327 62.7467 162.82 62.1733 162.46 61.44C162.1 60.7067 161.92 59.8533 161.92 58.88C161.92 57.9067 162.1 57.06 162.46 56.34C162.82 55.6067 163.327 55.04 163.98 54.64C164.633 54.2267 165.4 54.02 166.28 54.02C166.987 54.02 167.627 54.1733 168.2 54.48C168.773 54.7867 169.193 55.2067 169.46 55.74V55.32C169.46 54.9067 169.567 54.5933 169.78 54.38C170.007 54.1667 170.313 54.06 170.7 54.06C171.527 54.06 171.94 54.48 171.94 55.32V63.02C171.94 64.6067 171.52 65.8 170.68 66.6C169.84 67.4 168.62 67.8 167.02 67.8ZM166.96 61.86C167.733 61.86 168.347 61.5933 168.8 61.06C169.253 60.5267 169.48 59.8 169.48 58.88C169.48 57.96 169.253 57.24 168.8 56.72C168.347 56.1867 167.733 55.92 166.96 55.92C166.187 55.92 165.573 56.1867 165.12 56.72C164.667 57.24 164.44 57.96 164.44 58.88C164.44 59.8 164.667 60.5267 165.12 61.06C165.573 61.5933 166.187 61.86 166.96 61.86ZM177.75 64.2C177.044 64.2 176.41 64.0667 175.85 63.8C175.304 63.52 174.87 63.1467 174.55 62.68C174.244 62.2133 174.09 61.6867 174.09 61.1C174.09 60.38 174.277 59.8133 174.65 59.4C175.024 58.9733 175.63 58.6667 176.47 58.48C177.31 58.2933 178.437 58.2 179.85 58.2H180.55V57.78C180.55 57.1133 180.404 56.6333 180.11 56.34C179.817 56.0467 179.324 55.9 178.63 55.9C178.244 55.9 177.824 55.9467 177.37 56.04C176.93 56.1333 176.464 56.2933 175.97 56.52C175.65 56.6667 175.384 56.6867 175.17 56.58C174.957 56.46 174.81 56.28 174.73 56.04C174.664 55.7867 174.677 55.5333 174.77 55.28C174.877 55.0267 175.084 54.84 175.39 54.72C176.004 54.4667 176.59 54.2867 177.15 54.18C177.724 54.0733 178.244 54.02 178.71 54.02C180.137 54.02 181.197 54.3533 181.89 55.02C182.584 55.6733 182.93 56.6933 182.93 58.08V62.88C182.93 63.7333 182.544 64.16 181.77 64.16C180.984 64.16 180.59 63.7333 180.59 62.88V62.44C180.364 62.9867 180.004 63.42 179.51 63.74C179.017 64.0467 178.43 64.2 177.75 64.2ZM178.27 62.48C178.924 62.48 179.464 62.2533 179.89 61.8C180.33 61.3467 180.55 60.7733 180.55 60.08V59.64H179.87C178.617 59.64 177.744 59.74 177.25 59.94C176.77 60.1267 176.53 60.4733 176.53 60.98C176.53 61.42 176.684 61.78 176.99 62.06C177.297 62.34 177.724 62.48 178.27 62.48ZM186.708 64.16C185.881 64.16 185.468 63.7333 185.468 62.88V55.32C185.468 54.48 185.875 54.06 186.688 54.06C187.501 54.06 187.908 54.48 187.908 55.32V55.74C188.241 55.18 188.688 54.7533 189.248 54.46C189.821 54.1667 190.461 54.02 191.168 54.02C193.475 54.02 194.628 55.36 194.628 58.04V62.88C194.628 63.7333 194.215 64.16 193.388 64.16C192.548 64.16 192.128 63.7333 192.128 62.88V58.16C192.128 57.4 191.981 56.8467 191.688 56.5C191.408 56.1533 190.968 55.98 190.368 55.98C189.635 55.98 189.048 56.2133 188.608 56.68C188.181 57.1333 187.968 57.74 187.968 58.5V62.88C187.968 63.7333 187.548 64.16 186.708 64.16ZM201.727 67.8C201.007 67.8 200.307 67.7333 199.627 67.6C198.961 67.4667 198.354 67.26 197.807 66.98C197.487 66.82 197.294 66.6133 197.227 66.36C197.174 66.12 197.201 65.8867 197.307 65.66C197.414 65.4333 197.574 65.2667 197.787 65.16C198.014 65.0667 198.254 65.08 198.507 65.2C199.094 65.4933 199.647 65.68 200.167 65.76C200.701 65.8533 201.154 65.9 201.527 65.9C203.314 65.9 204.207 65.04 204.207 63.32V61.98C203.927 62.5267 203.494 62.96 202.907 63.28C202.334 63.6 201.694 63.76 200.987 63.76C200.107 63.76 199.341 63.56 198.687 63.16C198.034 62.7467 197.527 62.1733 197.167 61.44C196.807 60.7067 196.627 59.8533 196.627 58.88C196.627 57.9067 196.807 57.06 197.167 56.34C197.527 55.6067 198.034 55.04 198.687 54.64C199.341 54.2267 200.107 54.02 200.987 54.02C201.694 54.02 202.334 54.1733 202.907 54.48C203.481 54.7867 203.901 55.2067 204.167 55.74V55.32C204.167 54.9067 204.274 54.5933 204.487 54.38C204.714 54.1667 205.021 54.06 205.407 54.06C206.234 54.06 206.647 54.48 206.647 55.32V63.02C206.647 64.6067 206.227 65.8 205.387 66.6C204.547 67.4 203.327 67.8 201.727 67.8ZM201.667 61.86C202.441 61.86 203.054 61.5933 203.507 61.06C203.961 60.5267 204.187 59.8 204.187 58.88C204.187 57.96 203.961 57.24 203.507 56.72C203.054 56.1867 202.441 55.92 201.667 55.92C200.894 55.92 200.281 56.1867 199.827 56.72C199.374 57.24 199.147 57.96 199.147 58.88C199.147 59.8 199.374 60.5267 199.827 61.06C200.281 61.5933 200.894 61.86 201.667 61.86Z" fill="black"/>
<defs>
<filter id="filter0_dddd_257_806" x="0" y="0" width="284" height="191" filterUnits="userSpaceOnUse" color-interpolation-filters="sRGB">
<feFlood flood-opacity="0" result="BackgroundImageFix"/>
<feColorMatrix in="SourceAlpha" type="matrix" values="0 0 0 0 0 0 0 0 0 0 0 0 0 0 0 0 0 0 127 0" result="hardAlpha"/>
<feOffset dy="-4"/>
<feGaussianBlur stdDeviation="2"/>
<feComposite in2="hardAlpha" operator="out"/>
<feColorMatrix type="matrix" values="0 0 0 0 0 0 0 0 0 0 0 0 0 0 0 0 0 0 0.12 0"/>
<feBlend mode="normal" in2="BackgroundImageFix" result="effect1_dropShadow_257_806"/>
<feColorMatrix in="SourceAlpha" type="matrix" values="0 0 0 0 0 0 0 0 0 0 0 0 0 0 0 0 0 0 127 0" result="hardAlpha"/>
<feOffset dx="4"/>
<feGaussianBlur stdDeviation="2"/>
<feComposite in2="hardAlpha" operator="out"/>
<feColorMatrix type="matrix" values="0 0 0 0 0 0 0 0 0 0 0 0 0 0 0 0 0 0 0.12 0"/>
<feBlend mode="normal" in2="effect1_dropShadow_257_806" result="effect2_dropShadow_257_806"/>
<feColorMatrix in="SourceAlpha" type="matrix" values="0 0 0 0 0 0 0 0 0 0 0 0 0 0 0 0 0 0 127 0" result="hardAlpha"/>
<feOffset dy="4"/>
<feGaussianBlur stdDeviation="2"/>
<feComposite in2="hardAlpha" operator="out"/>
<feColorMatrix type="matrix" values="0 0 0 0 0 0 0 0 0 0 0 0 0 0 0 0 0 0 0.25 0"/>
<feBlend mode="normal" in2="effect2_dropShadow_257_806" result="effect3_dropShadow_257_806"/>
<feColorMatrix in="SourceAlpha" type="matrix" values="0 0 0 0 0 0 0 0 0 0 0 0 0 0 0 0 0 0 127 0" result="hardAlpha"/>
<feOffset dx="-4"/>
<feGaussianBlur stdDeviation="2"/>
<feComposite in2="hardAlpha" operator="out"/>
<feColorMatrix type="matrix" values="0 0 0 0 0 0 0 0 0 0 0 0 0 0 0 0 0 0 0.12 0"/>
<feBlend mode="normal" in2="effect3_dropShadow_257_806" result="effect4_dropShadow_257_806"/>
<feBlend mode="normal" in="SourceGraphic" in2="effect4_dropShadow_257_806" result="shape"/>
</filter>
</defs>
</svg>
