<svg width="156" height="31" viewBox="0 0 156 31" fill="none" xmlns="http://www.w3.org/2000/svg">
<rect width="156" height="31" rx="15" fill="black"/>
<path d="M22.1437 20C21.7917 20 21.5157 19.904 21.3157 19.712C21.1237 19.512 21.0277 19.236 21.0277 18.884V12.644C21.0277 12.284 21.1237 12.008 21.3157 11.816C21.5077 11.624 21.7797 11.528 22.1317 11.528C22.4917 11.528 22.7637 11.624 22.9477 11.816C23.1397 12.008 23.2357 12.284 23.2357 12.644V18.164H26.1637C26.4677 18.164 26.6997 18.244 26.8597 18.404C27.0277 18.556 27.1117 18.78 27.1117 19.076C27.1117 19.372 27.0277 19.6 26.8597 19.76C26.6997 19.92 26.4677 20 26.1637 20H22.1437ZM29.9941 20.132C29.4821 20.132 29.0621 20.04 28.7341 19.856C28.4061 19.664 28.1581 19.38 27.9901 19.004C27.8301 18.628 27.7501 18.152 27.7501 17.576V15.056C27.7501 14.704 27.8421 14.44 28.0261 14.264C28.2101 14.08 28.4741 13.988 28.8181 13.988C29.1621 13.988 29.4261 14.08 29.6101 14.264C29.7941 14.44 29.8861 14.704 29.8861 15.056V17.636C29.8861 17.924 29.9461 18.14 30.0661 18.284C30.1861 18.428 30.3741 18.5 30.6301 18.5C30.9181 18.5 31.1541 18.396 31.3381 18.188C31.5221 17.98 31.6141 17.704 31.6141 17.36V15.056C31.6141 14.704 31.7061 14.44 31.8901 14.264C32.0741 14.08 32.3381 13.988 32.6821 13.988C33.0261 13.988 33.2901 14.08 33.4741 14.264C33.6581 14.44 33.7501 14.704 33.7501 15.056V19.028C33.7501 19.748 33.4061 20.108 32.7181 20.108C32.3821 20.108 32.1221 20.016 31.9381 19.832C31.7541 19.648 31.6621 19.38 31.6621 19.028V18.332L31.8541 18.92C31.6781 19.312 31.4301 19.612 31.1101 19.82C30.7981 20.028 30.4261 20.132 29.9941 20.132ZM36.0491 20.108C35.7131 20.108 35.4531 20.016 35.2691 19.832C35.0851 19.648 34.9931 19.38 34.9931 19.028V12.512C34.9931 12.16 35.0851 11.892 35.2691 11.708C35.4531 11.524 35.7131 11.432 36.0491 11.432C36.3931 11.432 36.6571 11.524 36.8411 11.708C37.0331 11.892 37.1291 12.16 37.1291 12.512V16.472H37.1531L38.6171 14.696C38.8171 14.456 39.0011 14.28 39.1691 14.168C39.3451 14.048 39.5811 13.988 39.8771 13.988C40.1731 13.988 40.4011 14.06 40.5611 14.204C40.7211 14.348 40.8051 14.528 40.8131 14.744C40.8211 14.96 40.7331 15.176 40.5491 15.392L38.9651 17.264V16.52L40.7411 18.752C40.9171 18.976 40.9891 19.196 40.9571 19.412C40.9251 19.62 40.8211 19.788 40.6451 19.916C40.4771 20.044 40.2611 20.108 39.9971 20.108C39.6771 20.108 39.4211 20.052 39.2291 19.94C39.0371 19.82 38.8451 19.636 38.6531 19.388L37.1531 17.54H37.1291V19.028C37.1291 19.748 36.7691 20.108 36.0491 20.108ZM46.4436 20.108C46.1076 20.108 45.8476 20.016 45.6636 19.832C45.4796 19.648 45.3876 19.38 45.3876 19.028V15.056C45.3876 14.712 45.4756 14.448 45.6516 14.264C45.8356 14.08 46.0956 13.988 46.4316 13.988C46.7676 13.988 47.0236 14.08 47.1996 14.264C47.3756 14.448 47.4636 14.712 47.4636 15.056V15.62L47.3316 15.128C47.5236 14.752 47.7956 14.464 48.1476 14.264C48.5076 14.064 48.9156 13.964 49.3716 13.964C49.8436 13.964 50.2316 14.056 50.5356 14.24C50.8396 14.416 51.0676 14.696 51.2196 15.08C51.3716 15.456 51.4476 15.932 51.4476 16.508V19.028C51.4476 19.38 51.3556 19.648 51.1716 19.832C50.9876 20.016 50.7236 20.108 50.3796 20.108C50.0356 20.108 49.7716 20.016 49.5876 19.832C49.4036 19.648 49.3116 19.38 49.3116 19.028V16.592C49.3116 16.232 49.2476 15.976 49.1196 15.824C48.9996 15.672 48.8196 15.596 48.5796 15.596C48.2596 15.596 48.0036 15.7 47.8116 15.908C47.6196 16.108 47.5236 16.38 47.5236 16.724V19.028C47.5236 19.748 47.1636 20.108 46.4436 20.108ZM55.653 20.132C54.997 20.132 54.425 20.008 53.937 19.76C53.449 19.512 53.069 19.156 52.797 18.692C52.525 18.228 52.389 17.68 52.389 17.048C52.389 16.568 52.465 16.14 52.617 15.764C52.769 15.38 52.989 15.056 53.277 14.792C53.565 14.52 53.909 14.316 54.309 14.18C54.709 14.036 55.157 13.964 55.653 13.964C56.309 13.964 56.881 14.088 57.369 14.336C57.857 14.584 58.233 14.94 58.497 15.404C58.769 15.86 58.905 16.408 58.905 17.048C58.905 17.52 58.829 17.948 58.677 18.332C58.525 18.716 58.305 19.044 58.017 19.316C57.737 19.58 57.393 19.784 56.985 19.928C56.585 20.064 56.141 20.132 55.653 20.132ZM55.653 18.56C55.869 18.56 56.061 18.508 56.229 18.404C56.397 18.292 56.525 18.128 56.613 17.912C56.709 17.688 56.757 17.4 56.757 17.048C56.757 16.512 56.653 16.128 56.445 15.896C56.237 15.656 55.973 15.536 55.653 15.536C55.437 15.536 55.245 15.588 55.077 15.692C54.909 15.796 54.777 15.96 54.681 16.184C54.585 16.4 54.537 16.688 54.537 17.048C54.537 17.576 54.641 17.96 54.849 18.2C55.057 18.44 55.325 18.56 55.653 18.56ZM62.9211 20.132C62.3211 20.132 61.8251 20.04 61.4331 19.856C61.0491 19.672 60.7611 19.396 60.5691 19.028C60.3771 18.652 60.2811 18.184 60.2811 17.624V15.668H59.8731C59.6171 15.668 59.4171 15.6 59.2731 15.464C59.1371 15.328 59.0691 15.132 59.0691 14.876C59.0691 14.62 59.1371 14.428 59.2731 14.3C59.4171 14.164 59.6171 14.096 59.8731 14.096H60.2811V13.352C60.2811 13 60.3731 12.732 60.5571 12.548C60.7411 12.364 61.0051 12.272 61.3491 12.272C61.6931 12.272 61.9571 12.364 62.1411 12.548C62.3251 12.732 62.4171 13 62.4171 13.352V14.096H63.4011C63.6651 14.096 63.8651 14.164 64.0011 14.3C64.1451 14.428 64.2171 14.62 64.2171 14.876C64.2171 15.132 64.1451 15.328 64.0011 15.464C63.8651 15.6 63.6651 15.668 63.4011 15.668H62.4171V17.552C62.4171 17.848 62.4851 18.068 62.6211 18.212C62.7651 18.348 62.9891 18.416 63.2931 18.416C63.4051 18.416 63.5131 18.404 63.6171 18.38C63.7211 18.356 63.8171 18.344 63.9051 18.344C64.0331 18.336 64.1371 18.376 64.2171 18.464C64.2971 18.544 64.3371 18.732 64.3371 19.028C64.3371 19.268 64.3011 19.472 64.2291 19.64C64.1571 19.8 64.0291 19.916 63.8451 19.988C63.7331 20.028 63.5811 20.06 63.3891 20.084C63.1971 20.116 63.0411 20.132 62.9211 20.132ZM66.2015 20.108C65.8655 20.108 65.6055 20.008 65.4215 19.808C65.2375 19.608 65.1455 19.32 65.1455 18.944V15.152C65.1455 14.776 65.2375 14.488 65.4215 14.288C65.6055 14.088 65.8655 13.988 66.2015 13.988C66.5455 13.988 66.8095 14.088 66.9935 14.288C67.1855 14.488 67.2815 14.776 67.2815 15.152V18.944C67.2815 19.32 67.1895 19.608 67.0055 19.808C66.8215 20.008 66.5535 20.108 66.2015 20.108ZM66.2015 13.136C65.8255 13.136 65.5335 13.048 65.3255 12.872C65.1255 12.696 65.0255 12.44 65.0255 12.104C65.0255 11.776 65.1255 11.524 65.3255 11.348C65.5335 11.172 65.8255 11.084 66.2015 11.084C66.5935 11.084 66.8895 11.172 67.0895 11.348C67.2895 11.524 67.3895 11.776 67.3895 12.104C67.3895 12.44 67.2895 12.696 67.0895 12.872C66.8895 13.048 66.5935 13.136 66.2015 13.136ZM70.0925 20.108C69.7485 20.108 69.4845 20.016 69.3005 19.832C69.1165 19.648 69.0245 19.38 69.0245 19.028V15.668H68.7125C68.4565 15.668 68.2565 15.6 68.1125 15.464C67.9765 15.328 67.9085 15.132 67.9085 14.876C67.9085 14.62 67.9765 14.428 68.1125 14.3C68.2565 14.164 68.4565 14.096 68.7125 14.096H69.6365L69.0245 14.66V14.324C69.0245 13.444 69.2365 12.78 69.6605 12.332C70.0925 11.884 70.7325 11.616 71.5805 11.528L71.9165 11.492C72.1805 11.46 72.3885 11.492 72.5405 11.588C72.7005 11.676 72.8085 11.796 72.8645 11.948C72.9205 12.092 72.9325 12.244 72.9005 12.404C72.8765 12.564 72.8165 12.7 72.7205 12.812C72.6325 12.924 72.5125 12.988 72.3605 13.004L72.1445 13.016C71.7765 13.04 71.5205 13.128 71.3765 13.28C71.2325 13.424 71.1605 13.636 71.1605 13.916V14.312L70.8965 14.096H74.2925C74.6365 14.096 74.9005 14.196 75.0845 14.396C75.2685 14.588 75.3605 14.872 75.3605 15.248V18.944C75.3605 19.32 75.2685 19.608 75.0845 19.808C74.9085 20.008 74.6445 20.108 74.2925 20.108C73.9485 20.108 73.6845 20.008 73.5005 19.808C73.3165 19.608 73.2245 19.32 73.2245 18.944V15.668H71.1605V19.028C71.1605 19.748 70.8045 20.108 70.0925 20.108ZM74.3405 13.136C73.9725 13.136 73.6885 13.048 73.4885 12.872C73.2965 12.696 73.2005 12.44 73.2005 12.104C73.2005 11.776 73.2965 11.524 73.4885 11.348C73.6885 11.172 73.9725 11.084 74.3405 11.084C74.7085 11.084 74.9885 11.172 75.1805 11.348C75.3805 11.524 75.4805 11.776 75.4805 12.104C75.4805 12.44 75.3805 12.696 75.1805 12.872C74.9885 13.048 74.7085 13.136 74.3405 13.136ZM77.6624 20.108C77.3264 20.108 77.0664 20.016 76.8824 19.832C76.6984 19.648 76.6064 19.38 76.6064 19.028V12.512C76.6064 12.16 76.6984 11.892 76.8824 11.708C77.0664 11.524 77.3264 11.432 77.6624 11.432C78.0064 11.432 78.2704 11.524 78.4544 11.708C78.6464 11.892 78.7424 12.16 78.7424 12.512V16.472H78.7664L80.2304 14.696C80.4304 14.456 80.6144 14.28 80.7824 14.168C80.9584 14.048 81.1944 13.988 81.4904 13.988C81.7864 13.988 82.0144 14.06 82.1744 14.204C82.3344 14.348 82.4184 14.528 82.4264 14.744C82.4344 14.96 82.3464 15.176 82.1624 15.392L80.5784 17.264V16.52L82.3544 18.752C82.5304 18.976 82.6024 19.196 82.5704 19.412C82.5384 19.62 82.4344 19.788 82.2584 19.916C82.0904 20.044 81.8744 20.108 81.6104 20.108C81.2904 20.108 81.0344 20.052 80.8424 19.94C80.6504 19.82 80.4584 19.636 80.2664 19.388L78.7664 17.54H78.7424V19.028C78.7424 19.748 78.3824 20.108 77.6624 20.108ZM85.5607 20.132C85.1047 20.132 84.7007 20.048 84.3487 19.88C84.0047 19.712 83.7327 19.484 83.5327 19.196C83.3407 18.9 83.2447 18.564 83.2447 18.188C83.2447 17.756 83.3567 17.416 83.5807 17.168C83.8047 16.92 84.1647 16.744 84.6607 16.64C85.1567 16.528 85.8167 16.472 86.6407 16.472H87.3007V17.48H86.6407C86.3287 17.48 86.0687 17.504 85.8607 17.552C85.6607 17.592 85.5127 17.66 85.4167 17.756C85.3207 17.844 85.2727 17.96 85.2727 18.104C85.2727 18.288 85.3367 18.44 85.4647 18.56C85.6007 18.68 85.7927 18.74 86.0407 18.74C86.2407 18.74 86.4167 18.696 86.5687 18.608C86.7287 18.52 86.8567 18.4 86.9527 18.248C87.0487 18.088 87.0967 17.904 87.0967 17.696V16.304C87.0967 16.016 87.0207 15.812 86.8687 15.692C86.7247 15.572 86.4727 15.512 86.1127 15.512C85.9207 15.512 85.7047 15.536 85.4647 15.584C85.2247 15.624 84.9567 15.7 84.6607 15.812C84.4447 15.892 84.2607 15.904 84.1087 15.848C83.9567 15.792 83.8367 15.696 83.7487 15.56C83.6687 15.424 83.6287 15.276 83.6287 15.116C83.6367 14.956 83.6887 14.804 83.7847 14.66C83.8887 14.516 84.0447 14.404 84.2527 14.324C84.6367 14.18 84.9887 14.084 85.3087 14.036C85.6367 13.988 85.9367 13.964 86.2087 13.964C86.8647 13.964 87.4047 14.06 87.8287 14.252C88.2607 14.436 88.5807 14.724 88.7887 15.116C89.0047 15.5 89.1127 15.996 89.1127 16.604V19.028C89.1127 19.38 89.0287 19.648 88.8607 19.832C88.6927 20.016 88.4487 20.108 88.1287 20.108C87.8007 20.108 87.5487 20.016 87.3727 19.832C87.2047 19.648 87.1207 19.38 87.1207 19.028V18.716L87.1927 18.884C87.1527 19.14 87.0607 19.36 86.9167 19.544C86.7727 19.728 86.5847 19.872 86.3527 19.976C86.1207 20.08 85.8567 20.132 85.5607 20.132ZM93.425 20.132C92.825 20.132 92.329 20.04 91.937 19.856C91.553 19.672 91.265 19.396 91.073 19.028C90.881 18.652 90.785 18.184 90.785 17.624V15.668H90.377C90.121 15.668 89.921 15.6 89.777 15.464C89.641 15.328 89.573 15.132 89.573 14.876C89.573 14.62 89.641 14.428 89.777 14.3C89.921 14.164 90.121 14.096 90.377 14.096H90.785V13.352C90.785 13 90.877 12.732 91.061 12.548C91.245 12.364 91.509 12.272 91.853 12.272C92.197 12.272 92.461 12.364 92.645 12.548C92.829 12.732 92.921 13 92.921 13.352V14.096H93.905C94.169 14.096 94.369 14.164 94.505 14.3C94.649 14.428 94.721 14.62 94.721 14.876C94.721 15.132 94.649 15.328 94.505 15.464C94.369 15.6 94.169 15.668 93.905 15.668H92.921V17.552C92.921 17.848 92.989 18.068 93.125 18.212C93.269 18.348 93.493 18.416 93.797 18.416C93.909 18.416 94.017 18.404 94.121 18.38C94.225 18.356 94.321 18.344 94.409 18.344C94.537 18.336 94.641 18.376 94.721 18.464C94.801 18.544 94.841 18.732 94.841 19.028C94.841 19.268 94.805 19.472 94.733 19.64C94.661 19.8 94.533 19.916 94.349 19.988C94.237 20.028 94.085 20.06 93.893 20.084C93.701 20.116 93.545 20.132 93.425 20.132ZM96.7054 20.108C96.3694 20.108 96.1094 20.008 95.9254 19.808C95.7414 19.608 95.6494 19.32 95.6494 18.944V15.152C95.6494 14.776 95.7414 14.488 95.9254 14.288C96.1094 14.088 96.3694 13.988 96.7054 13.988C97.0494 13.988 97.3134 14.088 97.4974 14.288C97.6894 14.488 97.7854 14.776 97.7854 15.152V18.944C97.7854 19.32 97.6934 19.608 97.5094 19.808C97.3254 20.008 97.0574 20.108 96.7054 20.108ZM96.7054 13.136C96.3294 13.136 96.0374 13.048 95.8294 12.872C95.6294 12.696 95.5294 12.44 95.5294 12.104C95.5294 11.776 95.6294 11.524 95.8294 11.348C96.0374 11.172 96.3294 11.084 96.7054 11.084C97.0974 11.084 97.3934 11.172 97.5934 11.348C97.7934 11.524 97.8934 11.776 97.8934 12.104C97.8934 12.44 97.7934 12.696 97.5934 12.872C97.3934 13.048 97.0974 13.136 96.7054 13.136ZM102.012 20.132C101.356 20.132 100.784 20.008 100.296 19.76C99.8084 19.512 99.4284 19.156 99.1564 18.692C98.8844 18.228 98.7484 17.68 98.7484 17.048C98.7484 16.568 98.8244 16.14 98.9764 15.764C99.1284 15.38 99.3484 15.056 99.6364 14.792C99.9244 14.52 100.268 14.316 100.668 14.18C101.068 14.036 101.516 13.964 102.012 13.964C102.668 13.964 103.24 14.088 103.728 14.336C104.216 14.584 104.592 14.94 104.856 15.404C105.128 15.86 105.264 16.408 105.264 17.048C105.264 17.52 105.188 17.948 105.036 18.332C104.884 18.716 104.664 19.044 104.376 19.316C104.096 19.58 103.752 19.784 103.344 19.928C102.944 20.064 102.5 20.132 102.012 20.132ZM102.012 18.56C102.228 18.56 102.42 18.508 102.588 18.404C102.756 18.292 102.884 18.128 102.972 17.912C103.068 17.688 103.116 17.4 103.116 17.048C103.116 16.512 103.012 16.128 102.804 15.896C102.596 15.656 102.332 15.536 102.012 15.536C101.796 15.536 101.604 15.588 101.436 15.692C101.268 15.796 101.136 15.96 101.04 16.184C100.944 16.4 100.896 16.688 100.896 17.048C100.896 17.576 101 17.96 101.208 18.2C101.416 18.44 101.684 18.56 102.012 18.56ZM107.299 20.108C106.963 20.108 106.703 20.016 106.519 19.832C106.335 19.648 106.243 19.38 106.243 19.028V15.056C106.243 14.712 106.331 14.448 106.507 14.264C106.691 14.08 106.951 13.988 107.287 13.988C107.623 13.988 107.879 14.08 108.055 14.264C108.231 14.448 108.319 14.712 108.319 15.056V15.62L108.187 15.128C108.379 14.752 108.651 14.464 109.003 14.264C109.363 14.064 109.771 13.964 110.227 13.964C110.699 13.964 111.087 14.056 111.391 14.24C111.695 14.416 111.923 14.696 112.075 15.08C112.227 15.456 112.303 15.932 112.303 16.508V19.028C112.303 19.38 112.211 19.648 112.027 19.832C111.843 20.016 111.579 20.108 111.235 20.108C110.891 20.108 110.627 20.016 110.443 19.832C110.259 19.648 110.167 19.38 110.167 19.028V16.592C110.167 16.232 110.103 15.976 109.975 15.824C109.855 15.672 109.675 15.596 109.435 15.596C109.115 15.596 108.859 15.7 108.667 15.908C108.475 16.108 108.379 16.38 108.379 16.724V19.028C108.379 19.748 108.019 20.108 107.299 20.108Z" fill="#FFF6A4"/>
<path d="M135.25 11C132.325 11 130 13.325 130 16.25C130 19.175 132.325 21.5 135.25 21.5C138.175 21.5 140.5 19.175 140.5 16.25C140.5 13.325 138.175 11 135.25 11ZM137.275 18.875L135.25 16.85L133.225 18.875L132.625 18.275L134.65 16.25L132.625 14.225L133.225 13.625L135.25 15.65L137.275 13.625L137.875 14.225L135.85 16.25L137.875 18.275L137.275 18.875Z" fill="#FFF6A4"/>
</svg>
