<svg width="154" height="31" viewBox="0 0 154 31" fill="none" xmlns="http://www.w3.org/2000/svg">
<rect width="154" height="31" rx="15" fill="black"/>
<path d="M132 11C133.326 11 134.598 11.5268 135.536 12.4645C136.473 13.4021 137 14.6739 137 16C137 17.3261 136.473 18.5979 135.536 19.5355C134.598 20.4732 133.326 21 132 21C130.674 21 129.402 20.4732 128.464 19.5355C127.527 18.5979 127 17.3261 127 16C127 14.6739 127.527 13.4021 128.464 12.4645C129.402 11.5268 130.674 11 132 11ZM129.812 15.6875C129.73 15.6875 129.65 15.7204 129.592 15.779C129.533 15.8376 129.5 15.9171 129.5 16C129.5 16.0829 129.533 16.1624 129.592 16.221C129.65 16.2796 129.73 16.3125 129.812 16.3125H133.433L132.091 17.6537C132.033 17.7124 132 17.792 132 17.875C132 17.958 132.033 18.0376 132.091 18.0963C132.15 18.1549 132.23 18.1879 132.312 18.1879C132.395 18.1879 132.475 18.1549 132.534 18.0963L134.409 16.2213C134.438 16.1922 134.461 16.1577 134.477 16.1198C134.492 16.0818 134.501 16.0411 134.501 16C134.501 15.9589 134.492 15.9182 134.477 15.8802C134.461 15.8423 134.438 15.8078 134.409 15.7787L132.534 13.9037C132.475 13.8451 132.395 13.8121 132.312 13.8121C132.23 13.8121 132.15 13.8451 132.091 13.9037C132.033 13.9624 132 14.042 132 14.125C132 14.208 132.033 14.2876 132.091 14.3463L133.433 15.6875H129.812Z" fill="#FF8D8D"/>
<path d="M19.884 20C19.524 20 19.248 19.904 19.056 19.712C18.864 19.512 18.768 19.236 18.768 18.884V12.644C18.768 12.284 18.864 12.008 19.056 11.816C19.248 11.624 19.52 11.528 19.872 11.528C20.224 11.528 20.496 11.624 20.688 11.816C20.88 12.008 20.976 12.284 20.976 12.644V18.164H23.904C24.208 18.164 24.44 18.244 24.6 18.404C24.768 18.564 24.852 18.788 24.852 19.076C24.852 19.372 24.768 19.6 24.6 19.76C24.44 19.92 24.208 20 23.904 20H19.884ZM27.7343 20.132C26.9663 20.132 26.3983 19.924 26.0303 19.508C25.6703 19.084 25.4903 18.44 25.4903 17.576V15.056C25.4903 14.344 25.8463 13.988 26.5583 13.988C26.9023 13.988 27.1663 14.08 27.3503 14.264C27.5343 14.448 27.6263 14.712 27.6263 15.056V17.636C27.6263 18.212 27.8743 18.5 28.3703 18.5C28.6583 18.5 28.8943 18.396 29.0783 18.188C29.2623 17.98 29.3543 17.704 29.3543 17.36V15.056C29.3543 14.344 29.7103 13.988 30.4223 13.988C30.7663 13.988 31.0303 14.08 31.2143 14.264C31.3983 14.448 31.4903 14.712 31.4903 15.056V19.028C31.4903 19.748 31.1463 20.108 30.4583 20.108C29.8423 20.108 29.4943 19.82 29.4143 19.244C29.0303 19.836 28.4703 20.132 27.7343 20.132ZM33.7894 20.108C33.4454 20.108 33.1814 20.016 32.9974 19.832C32.8214 19.648 32.7334 19.38 32.7334 19.028V12.512C32.7334 11.792 33.0854 11.432 33.7894 11.432C34.1334 11.432 34.3974 11.524 34.5814 11.708C34.7734 11.892 34.8694 12.16 34.8694 12.512V16.472H34.8934L36.3574 14.696C36.5574 14.448 36.7414 14.268 36.9094 14.156C37.0854 14.044 37.3214 13.988 37.6174 13.988C37.9134 13.988 38.1414 14.06 38.3014 14.204C38.4614 14.348 38.5414 14.528 38.5414 14.744C38.5494 14.96 38.4654 15.176 38.2894 15.392L37.0174 16.904L38.4814 18.752C38.6494 18.984 38.7174 19.204 38.6854 19.412C38.6614 19.612 38.5614 19.78 38.3854 19.916C38.2174 20.044 38.0014 20.108 37.7374 20.108C37.4094 20.108 37.1494 20.052 36.9574 19.94C36.7734 19.82 36.5854 19.636 36.3934 19.388L34.8934 17.54H34.8694V19.028C34.8694 19.748 34.5094 20.108 33.7894 20.108ZM44.1839 20.108C43.8399 20.108 43.5759 20.016 43.3919 19.832C43.2159 19.648 43.1279 19.38 43.1279 19.028V15.056C43.1279 14.344 43.4759 13.988 44.1719 13.988C44.8039 13.988 45.1479 14.296 45.2039 14.912C45.4039 14.608 45.6679 14.376 45.9959 14.216C46.3319 14.048 46.7039 13.964 47.1119 13.964C47.8159 13.964 48.3359 14.172 48.6719 14.588C49.0159 15.004 49.1879 15.644 49.1879 16.508V19.028C49.1879 19.38 49.0959 19.648 48.9119 19.832C48.7279 20.016 48.4639 20.108 48.1199 20.108C47.7759 20.108 47.5119 20.016 47.3279 19.832C47.1439 19.648 47.0519 19.38 47.0519 19.028V16.592C47.0519 16.232 46.9879 15.976 46.8599 15.824C46.7399 15.672 46.5599 15.596 46.3199 15.596C45.9999 15.596 45.7439 15.7 45.5519 15.908C45.3599 16.108 45.2639 16.38 45.2639 16.724V19.028C45.2639 19.748 44.9039 20.108 44.1839 20.108ZM53.3933 20.132C52.7373 20.132 52.1653 20.008 51.6773 19.76C51.1893 19.512 50.8093 19.156 50.5373 18.692C50.2653 18.228 50.1293 17.68 50.1293 17.048C50.1293 16.408 50.2653 15.86 50.5373 15.404C50.8093 14.94 51.1893 14.584 51.6773 14.336C52.1653 14.088 52.7373 13.964 53.3933 13.964C54.0493 13.964 54.6213 14.088 55.1093 14.336C55.5973 14.584 55.9733 14.94 56.2373 15.404C56.5093 15.86 56.6453 16.408 56.6453 17.048C56.6453 17.68 56.5093 18.228 56.2373 18.692C55.9733 19.156 55.5973 19.512 55.1093 19.76C54.6213 20.008 54.0493 20.132 53.3933 20.132ZM53.3933 18.56C53.7133 18.56 53.9773 18.44 54.1853 18.2C54.3933 17.96 54.4973 17.576 54.4973 17.048C54.4973 16.512 54.3933 16.128 54.1853 15.896C53.9773 15.656 53.7133 15.536 53.3933 15.536C53.0653 15.536 52.7973 15.656 52.5893 15.896C52.3813 16.128 52.2773 16.512 52.2773 17.048C52.2773 17.576 52.3813 17.96 52.5893 18.2C52.7973 18.44 53.0653 18.56 53.3933 18.56ZM60.6614 20.132C59.7654 20.132 59.1014 19.924 58.6694 19.508C58.2374 19.092 58.0214 18.464 58.0214 17.624V15.668H57.6134C57.0774 15.668 56.8094 15.404 56.8094 14.876C56.8094 14.356 57.0774 14.096 57.6134 14.096H58.0214V13.352C58.0214 13 58.1134 12.732 58.2974 12.548C58.4814 12.364 58.7454 12.272 59.0894 12.272C59.8014 12.272 60.1574 12.632 60.1574 13.352V14.096H61.1414C61.6854 14.096 61.9574 14.356 61.9574 14.876C61.9574 15.404 61.6854 15.668 61.1414 15.668H60.1574V17.552C60.1574 18.128 60.4494 18.416 61.0334 18.416C61.1454 18.416 61.2534 18.404 61.3574 18.38C61.4614 18.356 61.5574 18.344 61.6454 18.344C61.7734 18.336 61.8774 18.376 61.9574 18.464C62.0374 18.544 62.0774 18.732 62.0774 19.028C62.0774 19.268 62.0414 19.472 61.9694 19.64C61.8974 19.8 61.7694 19.916 61.5854 19.988C61.4734 20.028 61.3214 20.06 61.1294 20.084C60.9374 20.116 60.7814 20.132 60.6614 20.132ZM63.93 13.136C63.554 13.136 63.262 13.048 63.054 12.872C62.854 12.696 62.754 12.44 62.754 12.104C62.754 11.776 62.854 11.524 63.054 11.348C63.262 11.172 63.554 11.084 63.93 11.084C64.722 11.084 65.118 11.424 65.118 12.104C65.118 12.44 65.014 12.696 64.806 12.872C64.606 13.048 64.314 13.136 63.93 13.136ZM63.93 20.108C63.586 20.108 63.322 20.008 63.138 19.808C62.962 19.608 62.874 19.32 62.874 18.944V15.152C62.874 14.776 62.962 14.488 63.138 14.288C63.322 14.088 63.586 13.988 63.93 13.988C64.274 13.988 64.538 14.088 64.722 14.288C64.914 14.488 65.01 14.776 65.01 15.152V18.944C65.01 19.32 64.918 19.608 64.734 19.808C64.55 20.008 64.282 20.108 63.93 20.108ZM72.069 13.136C71.309 13.136 70.929 12.792 70.929 12.104C70.929 11.424 71.309 11.084 72.069 11.084C72.437 11.084 72.717 11.172 72.909 11.348C73.109 11.524 73.209 11.776 73.209 12.104C73.209 12.44 73.109 12.696 72.909 12.872C72.717 13.048 72.437 13.136 72.069 13.136ZM67.821 20.108C67.477 20.108 67.213 20.016 67.029 19.832C66.845 19.648 66.753 19.38 66.753 19.028V15.668H66.441C65.905 15.668 65.637 15.404 65.637 14.876C65.637 14.356 65.905 14.096 66.441 14.096H66.753C66.785 13.288 67.013 12.68 67.437 12.272C67.869 11.864 68.493 11.616 69.309 11.528L69.645 11.492C69.909 11.46 70.117 11.492 70.269 11.588C70.429 11.676 70.537 11.796 70.593 11.948C70.649 12.092 70.665 12.244 70.641 12.404C70.617 12.564 70.557 12.7 70.461 12.812C70.365 12.924 70.241 12.988 70.089 13.004L69.873 13.016C69.505 13.04 69.249 13.128 69.105 13.28C68.961 13.424 68.889 13.636 68.889 13.916V14.096H72.021C72.365 14.096 72.629 14.196 72.813 14.396C72.997 14.596 73.089 14.88 73.089 15.248V18.944C73.089 19.32 72.997 19.608 72.813 19.808C72.637 20.008 72.373 20.108 72.021 20.108C71.677 20.108 71.413 20.008 71.229 19.808C71.045 19.608 70.953 19.32 70.953 18.944V15.668H68.889V19.028C68.889 19.748 68.533 20.108 67.821 20.108ZM75.3909 20.108C75.0469 20.108 74.7829 20.016 74.5989 19.832C74.4229 19.648 74.3349 19.38 74.3349 19.028V12.512C74.3349 11.792 74.6869 11.432 75.3909 11.432C75.7349 11.432 75.9989 11.524 76.1829 11.708C76.3749 11.892 76.4709 12.16 76.4709 12.512V16.472H76.4949L77.9589 14.696C78.1589 14.448 78.3429 14.268 78.5109 14.156C78.6869 14.044 78.9229 13.988 79.2189 13.988C79.5149 13.988 79.7429 14.06 79.9029 14.204C80.0629 14.348 80.1429 14.528 80.1429 14.744C80.1509 14.96 80.0669 15.176 79.8909 15.392L78.6189 16.904L80.0829 18.752C80.2509 18.984 80.3189 19.204 80.2869 19.412C80.2629 19.612 80.1629 19.78 79.9869 19.916C79.8189 20.044 79.6029 20.108 79.3389 20.108C79.0109 20.108 78.7509 20.052 78.5589 19.94C78.3749 19.82 78.1869 19.636 77.9949 19.388L76.4949 17.54H76.4709V19.028C76.4709 19.748 76.1109 20.108 75.3909 20.108ZM83.2893 20.132C82.8333 20.132 82.4293 20.048 82.0773 19.88C81.7333 19.712 81.4613 19.484 81.2613 19.196C81.0693 18.9 80.9733 18.564 80.9733 18.188C80.9733 17.764 81.0853 17.428 81.3093 17.18C81.5333 16.924 81.8933 16.744 82.3893 16.64C82.8853 16.528 83.5453 16.472 84.3693 16.472H84.8253V16.304C84.8253 16.016 84.7493 15.812 84.5973 15.692C84.4533 15.572 84.2013 15.512 83.8413 15.512C83.6413 15.512 83.4213 15.536 83.1813 15.584C82.9493 15.624 82.6853 15.7 82.3893 15.812C82.1253 15.908 81.9053 15.904 81.7293 15.8C81.5533 15.696 81.4373 15.548 81.3813 15.356C81.3333 15.156 81.3533 14.96 81.4413 14.768C81.5373 14.568 81.7173 14.42 81.9813 14.324C82.3653 14.188 82.7173 14.096 83.0373 14.048C83.3653 13.992 83.6653 13.964 83.9373 13.964C84.9213 13.964 85.6493 14.176 86.1213 14.6C86.6013 15.024 86.8413 15.692 86.8413 16.604V19.028C86.8413 19.748 86.5133 20.108 85.8573 20.108C85.2333 20.108 84.9013 19.788 84.8613 19.148C84.7493 19.452 84.5573 19.692 84.2853 19.868C84.0133 20.044 83.6813 20.132 83.2893 20.132ZM83.7693 18.74C84.0653 18.74 84.3133 18.644 84.5133 18.452C84.7213 18.26 84.8253 18.008 84.8253 17.696V17.48H84.3693C83.8973 17.48 83.5493 17.532 83.3253 17.636C83.1093 17.732 83.0013 17.888 83.0013 18.104C83.0013 18.288 83.0653 18.44 83.1933 18.56C83.3293 18.68 83.5213 18.74 83.7693 18.74ZM91.1536 20.132C90.2576 20.132 89.5936 19.924 89.1616 19.508C88.7296 19.092 88.5136 18.464 88.5136 17.624V15.668H88.1056C87.5696 15.668 87.3016 15.404 87.3016 14.876C87.3016 14.356 87.5696 14.096 88.1056 14.096H88.5136V13.352C88.5136 13 88.6056 12.732 88.7896 12.548C88.9736 12.364 89.2376 12.272 89.5816 12.272C90.2936 12.272 90.6496 12.632 90.6496 13.352V14.096H91.6336C92.1776 14.096 92.4496 14.356 92.4496 14.876C92.4496 15.404 92.1776 15.668 91.6336 15.668H90.6496V17.552C90.6496 18.128 90.9416 18.416 91.5256 18.416C91.6376 18.416 91.7456 18.404 91.8496 18.38C91.9536 18.356 92.0496 18.344 92.1376 18.344C92.2656 18.336 92.3696 18.376 92.4496 18.464C92.5296 18.544 92.5696 18.732 92.5696 19.028C92.5696 19.268 92.5336 19.472 92.4616 19.64C92.3896 19.8 92.2616 19.916 92.0776 19.988C91.9656 20.028 91.8136 20.06 91.6216 20.084C91.4296 20.116 91.2736 20.132 91.1536 20.132ZM94.4222 13.136C94.0462 13.136 93.7542 13.048 93.5462 12.872C93.3462 12.696 93.2462 12.44 93.2462 12.104C93.2462 11.776 93.3462 11.524 93.5462 11.348C93.7542 11.172 94.0462 11.084 94.4222 11.084C95.2142 11.084 95.6102 11.424 95.6102 12.104C95.6102 12.44 95.5062 12.696 95.2982 12.872C95.0982 13.048 94.8062 13.136 94.4222 13.136ZM94.4222 20.108C94.0782 20.108 93.8142 20.008 93.6302 19.808C93.4542 19.608 93.3662 19.32 93.3662 18.944V15.152C93.3662 14.776 93.4542 14.488 93.6302 14.288C93.8142 14.088 94.0782 13.988 94.4222 13.988C94.7662 13.988 95.0302 14.088 95.2142 14.288C95.4062 14.488 95.5022 14.776 95.5022 15.152V18.944C95.5022 19.32 95.4102 19.608 95.2262 19.808C95.0422 20.008 94.7742 20.108 94.4222 20.108ZM99.7292 20.132C99.0732 20.132 98.5012 20.008 98.0132 19.76C97.5252 19.512 97.1452 19.156 96.8732 18.692C96.6012 18.228 96.4652 17.68 96.4652 17.048C96.4652 16.408 96.6012 15.86 96.8732 15.404C97.1452 14.94 97.5252 14.584 98.0132 14.336C98.5012 14.088 99.0732 13.964 99.7292 13.964C100.385 13.964 100.957 14.088 101.445 14.336C101.933 14.584 102.309 14.94 102.573 15.404C102.845 15.86 102.981 16.408 102.981 17.048C102.981 17.68 102.845 18.228 102.573 18.692C102.309 19.156 101.933 19.512 101.445 19.76C100.957 20.008 100.385 20.132 99.7292 20.132ZM99.7292 18.56C100.049 18.56 100.313 18.44 100.521 18.2C100.729 17.96 100.833 17.576 100.833 17.048C100.833 16.512 100.729 16.128 100.521 15.896C100.313 15.656 100.049 15.536 99.7292 15.536C99.4012 15.536 99.1332 15.656 98.9252 15.896C98.7172 16.128 98.6132 16.512 98.6132 17.048C98.6132 17.576 98.7172 17.96 98.9252 18.2C99.1332 18.44 99.4012 18.56 99.7292 18.56ZM105.016 20.108C104.672 20.108 104.408 20.016 104.224 19.832C104.048 19.648 103.96 19.38 103.96 19.028V15.056C103.96 14.344 104.308 13.988 105.004 13.988C105.636 13.988 105.98 14.296 106.036 14.912C106.236 14.608 106.5 14.376 106.828 14.216C107.164 14.048 107.536 13.964 107.944 13.964C108.648 13.964 109.168 14.172 109.504 14.588C109.848 15.004 110.02 15.644 110.02 16.508V19.028C110.02 19.38 109.928 19.648 109.744 19.832C109.56 20.016 109.296 20.108 108.952 20.108C108.608 20.108 108.344 20.016 108.16 19.832C107.976 19.648 107.884 19.38 107.884 19.028V16.592C107.884 16.232 107.82 15.976 107.692 15.824C107.572 15.672 107.392 15.596 107.152 15.596C106.832 15.596 106.576 15.7 106.384 15.908C106.192 16.108 106.096 16.38 106.096 16.724V19.028C106.096 19.748 105.736 20.108 105.016 20.108Z" fill="#FF8D8D"/>
</svg>
