<svg width="154" height="31" viewBox="0 0 154 31" fill="none" xmlns="http://www.w3.org/2000/svg">
<rect width="154" height="31" rx="15" fill="black"/>
<path d="M129 11C130.326 11 131.598 11.5268 132.536 12.4645C133.473 13.4021 134 14.6739 134 16C134 17.3261 133.473 18.5979 132.536 19.5355C131.598 20.4732 130.326 21 129 21C127.674 21 126.402 20.4732 125.464 19.5355C124.527 18.5979 124 17.3261 124 16C124 14.6739 124.527 13.4021 125.464 12.4645C126.402 11.5268 127.674 11 129 11ZM126.812 15.6875C126.73 15.6875 126.65 15.7204 126.592 15.779C126.533 15.8376 126.5 15.9171 126.5 16C126.5 16.0829 126.533 16.1624 126.592 16.221C126.65 16.2796 126.73 16.3125 126.812 16.3125H130.433L129.091 17.6537C129.033 17.7124 129 17.792 129 17.875C129 17.958 129.033 18.0376 129.091 18.0963C129.15 18.1549 129.23 18.1879 129.312 18.1879C129.395 18.1879 129.475 18.1549 129.534 18.0963L131.409 16.2213C131.438 16.1922 131.461 16.1577 131.477 16.1198C131.492 16.0818 131.501 16.0411 131.501 16C131.501 15.9589 131.492 15.9182 131.477 15.8802C131.461 15.8423 131.438 15.8078 131.409 15.7787L129.534 13.9037C129.475 13.8451 129.395 13.8121 129.312 13.8121C129.23 13.8121 129.15 13.8451 129.091 13.9037C129.033 13.9624 129 14.042 129 14.125C129 14.208 129.033 14.2876 129.091 14.3463L130.433 15.6875H126.812Z" fill="#A5FFA4"/>
<path d="M21.884 20C21.524 20 21.248 19.904 21.056 19.712C20.864 19.512 20.768 19.236 20.768 18.884V12.644C20.768 12.284 20.864 12.008 21.056 11.816C21.248 11.624 21.52 11.528 21.872 11.528C22.224 11.528 22.496 11.624 22.688 11.816C22.88 12.008 22.976 12.284 22.976 12.644V18.164H25.904C26.208 18.164 26.44 18.244 26.6 18.404C26.768 18.564 26.852 18.788 26.852 19.076C26.852 19.372 26.768 19.6 26.6 19.76C26.44 19.92 26.208 20 25.904 20H21.884ZM29.7343 20.132C28.9663 20.132 28.3983 19.924 28.0303 19.508C27.6703 19.084 27.4903 18.44 27.4903 17.576V15.056C27.4903 14.344 27.8463 13.988 28.5583 13.988C28.9023 13.988 29.1663 14.08 29.3503 14.264C29.5343 14.448 29.6263 14.712 29.6263 15.056V17.636C29.6263 18.212 29.8743 18.5 30.3703 18.5C30.6583 18.5 30.8943 18.396 31.0783 18.188C31.2623 17.98 31.3543 17.704 31.3543 17.36V15.056C31.3543 14.344 31.7103 13.988 32.4223 13.988C32.7663 13.988 33.0303 14.08 33.2143 14.264C33.3983 14.448 33.4903 14.712 33.4903 15.056V19.028C33.4903 19.748 33.1463 20.108 32.4583 20.108C31.8423 20.108 31.4943 19.82 31.4143 19.244C31.0303 19.836 30.4703 20.132 29.7343 20.132ZM35.7894 20.108C35.4454 20.108 35.1814 20.016 34.9974 19.832C34.8214 19.648 34.7334 19.38 34.7334 19.028V12.512C34.7334 11.792 35.0854 11.432 35.7894 11.432C36.1334 11.432 36.3974 11.524 36.5814 11.708C36.7734 11.892 36.8694 12.16 36.8694 12.512V16.472H36.8934L38.3574 14.696C38.5574 14.448 38.7414 14.268 38.9094 14.156C39.0854 14.044 39.3214 13.988 39.6174 13.988C39.9134 13.988 40.1414 14.06 40.3014 14.204C40.4614 14.348 40.5414 14.528 40.5414 14.744C40.5494 14.96 40.4654 15.176 40.2894 15.392L39.0174 16.904L40.4814 18.752C40.6494 18.984 40.7174 19.204 40.6854 19.412C40.6614 19.612 40.5614 19.78 40.3854 19.916C40.2174 20.044 40.0014 20.108 39.7374 20.108C39.4094 20.108 39.1494 20.052 38.9574 19.94C38.7734 19.82 38.5854 19.636 38.3934 19.388L36.8934 17.54H36.8694V19.028C36.8694 19.748 36.5094 20.108 35.7894 20.108ZM46.1839 20.108C45.8399 20.108 45.5759 20.016 45.3919 19.832C45.2159 19.648 45.1279 19.38 45.1279 19.028V15.056C45.1279 14.344 45.4759 13.988 46.1719 13.988C46.8039 13.988 47.1479 14.296 47.2039 14.912C47.4039 14.608 47.6679 14.376 47.9959 14.216C48.3319 14.048 48.7039 13.964 49.1119 13.964C49.8159 13.964 50.3359 14.172 50.6719 14.588C51.0159 15.004 51.1879 15.644 51.1879 16.508V19.028C51.1879 19.38 51.0959 19.648 50.9119 19.832C50.7279 20.016 50.4639 20.108 50.1199 20.108C49.7759 20.108 49.5119 20.016 49.3279 19.832C49.1439 19.648 49.0519 19.38 49.0519 19.028V16.592C49.0519 16.232 48.9879 15.976 48.8599 15.824C48.7399 15.672 48.5599 15.596 48.3199 15.596C47.9999 15.596 47.7439 15.7 47.5519 15.908C47.3599 16.108 47.2639 16.38 47.2639 16.724V19.028C47.2639 19.748 46.9039 20.108 46.1839 20.108ZM55.3933 20.132C54.7373 20.132 54.1653 20.008 53.6773 19.76C53.1893 19.512 52.8093 19.156 52.5373 18.692C52.2653 18.228 52.1293 17.68 52.1293 17.048C52.1293 16.408 52.2653 15.86 52.5373 15.404C52.8093 14.94 53.1893 14.584 53.6773 14.336C54.1653 14.088 54.7373 13.964 55.3933 13.964C56.0493 13.964 56.6213 14.088 57.1093 14.336C57.5973 14.584 57.9733 14.94 58.2373 15.404C58.5093 15.86 58.6453 16.408 58.6453 17.048C58.6453 17.68 58.5093 18.228 58.2373 18.692C57.9733 19.156 57.5973 19.512 57.1093 19.76C56.6213 20.008 56.0493 20.132 55.3933 20.132ZM55.3933 18.56C55.7133 18.56 55.9773 18.44 56.1853 18.2C56.3933 17.96 56.4973 17.576 56.4973 17.048C56.4973 16.512 56.3933 16.128 56.1853 15.896C55.9773 15.656 55.7133 15.536 55.3933 15.536C55.0653 15.536 54.7973 15.656 54.5893 15.896C54.3813 16.128 54.2773 16.512 54.2773 17.048C54.2773 17.576 54.3813 17.96 54.5893 18.2C54.7973 18.44 55.0653 18.56 55.3933 18.56ZM62.6614 20.132C61.7654 20.132 61.1014 19.924 60.6694 19.508C60.2374 19.092 60.0214 18.464 60.0214 17.624V15.668H59.6134C59.0774 15.668 58.8094 15.404 58.8094 14.876C58.8094 14.356 59.0774 14.096 59.6134 14.096H60.0214V13.352C60.0214 13 60.1134 12.732 60.2974 12.548C60.4814 12.364 60.7454 12.272 61.0894 12.272C61.8014 12.272 62.1574 12.632 62.1574 13.352V14.096H63.1414C63.6854 14.096 63.9574 14.356 63.9574 14.876C63.9574 15.404 63.6854 15.668 63.1414 15.668H62.1574V17.552C62.1574 18.128 62.4494 18.416 63.0334 18.416C63.1454 18.416 63.2534 18.404 63.3574 18.38C63.4614 18.356 63.5574 18.344 63.6454 18.344C63.7734 18.336 63.8774 18.376 63.9574 18.464C64.0374 18.544 64.0774 18.732 64.0774 19.028C64.0774 19.268 64.0414 19.472 63.9694 19.64C63.8974 19.8 63.7694 19.916 63.5854 19.988C63.4734 20.028 63.3214 20.06 63.1294 20.084C62.9374 20.116 62.7814 20.132 62.6614 20.132ZM65.93 13.136C65.554 13.136 65.262 13.048 65.054 12.872C64.854 12.696 64.754 12.44 64.754 12.104C64.754 11.776 64.854 11.524 65.054 11.348C65.262 11.172 65.554 11.084 65.93 11.084C66.722 11.084 67.118 11.424 67.118 12.104C67.118 12.44 67.014 12.696 66.806 12.872C66.606 13.048 66.314 13.136 65.93 13.136ZM65.93 20.108C65.586 20.108 65.322 20.008 65.138 19.808C64.962 19.608 64.874 19.32 64.874 18.944V15.152C64.874 14.776 64.962 14.488 65.138 14.288C65.322 14.088 65.586 13.988 65.93 13.988C66.274 13.988 66.538 14.088 66.722 14.288C66.914 14.488 67.01 14.776 67.01 15.152V18.944C67.01 19.32 66.918 19.608 66.734 19.808C66.55 20.008 66.282 20.108 65.93 20.108ZM74.069 13.136C73.309 13.136 72.929 12.792 72.929 12.104C72.929 11.424 73.309 11.084 74.069 11.084C74.437 11.084 74.717 11.172 74.909 11.348C75.109 11.524 75.209 11.776 75.209 12.104C75.209 12.44 75.109 12.696 74.909 12.872C74.717 13.048 74.437 13.136 74.069 13.136ZM69.821 20.108C69.477 20.108 69.213 20.016 69.029 19.832C68.845 19.648 68.753 19.38 68.753 19.028V15.668H68.441C67.905 15.668 67.637 15.404 67.637 14.876C67.637 14.356 67.905 14.096 68.441 14.096H68.753C68.785 13.288 69.013 12.68 69.437 12.272C69.869 11.864 70.493 11.616 71.309 11.528L71.645 11.492C71.909 11.46 72.117 11.492 72.269 11.588C72.429 11.676 72.537 11.796 72.593 11.948C72.649 12.092 72.665 12.244 72.641 12.404C72.617 12.564 72.557 12.7 72.461 12.812C72.365 12.924 72.241 12.988 72.089 13.004L71.873 13.016C71.505 13.04 71.249 13.128 71.105 13.28C70.961 13.424 70.889 13.636 70.889 13.916V14.096H74.021C74.365 14.096 74.629 14.196 74.813 14.396C74.997 14.596 75.089 14.88 75.089 15.248V18.944C75.089 19.32 74.997 19.608 74.813 19.808C74.637 20.008 74.373 20.108 74.021 20.108C73.677 20.108 73.413 20.008 73.229 19.808C73.045 19.608 72.953 19.32 72.953 18.944V15.668H70.889V19.028C70.889 19.748 70.533 20.108 69.821 20.108ZM77.3909 20.108C77.0469 20.108 76.7829 20.016 76.5989 19.832C76.4229 19.648 76.3349 19.38 76.3349 19.028V12.512C76.3349 11.792 76.6869 11.432 77.3909 11.432C77.7349 11.432 77.9989 11.524 78.1829 11.708C78.3749 11.892 78.4709 12.16 78.4709 12.512V16.472H78.4949L79.9589 14.696C80.1589 14.448 80.3429 14.268 80.5109 14.156C80.6869 14.044 80.9229 13.988 81.2189 13.988C81.5149 13.988 81.7429 14.06 81.9029 14.204C82.0629 14.348 82.1429 14.528 82.1429 14.744C82.1509 14.96 82.0669 15.176 81.8909 15.392L80.6189 16.904L82.0829 18.752C82.2509 18.984 82.3189 19.204 82.2869 19.412C82.2629 19.612 82.1629 19.78 81.9869 19.916C81.8189 20.044 81.6029 20.108 81.3389 20.108C81.0109 20.108 80.7509 20.052 80.5589 19.94C80.3749 19.82 80.1869 19.636 79.9949 19.388L78.4949 17.54H78.4709V19.028C78.4709 19.748 78.1109 20.108 77.3909 20.108ZM85.2893 20.132C84.8333 20.132 84.4293 20.048 84.0773 19.88C83.7333 19.712 83.4613 19.484 83.2613 19.196C83.0693 18.9 82.9733 18.564 82.9733 18.188C82.9733 17.764 83.0853 17.428 83.3093 17.18C83.5333 16.924 83.8933 16.744 84.3893 16.64C84.8853 16.528 85.5453 16.472 86.3693 16.472H86.8253V16.304C86.8253 16.016 86.7493 15.812 86.5973 15.692C86.4533 15.572 86.2013 15.512 85.8413 15.512C85.6413 15.512 85.4213 15.536 85.1813 15.584C84.9493 15.624 84.6853 15.7 84.3893 15.812C84.1253 15.908 83.9053 15.904 83.7293 15.8C83.5533 15.696 83.4373 15.548 83.3813 15.356C83.3333 15.156 83.3533 14.96 83.4413 14.768C83.5373 14.568 83.7173 14.42 83.9813 14.324C84.3653 14.188 84.7173 14.096 85.0373 14.048C85.3653 13.992 85.6653 13.964 85.9373 13.964C86.9213 13.964 87.6493 14.176 88.1213 14.6C88.6013 15.024 88.8413 15.692 88.8413 16.604V19.028C88.8413 19.748 88.5133 20.108 87.8573 20.108C87.2333 20.108 86.9013 19.788 86.8613 19.148C86.7493 19.452 86.5573 19.692 86.2853 19.868C86.0133 20.044 85.6813 20.132 85.2893 20.132ZM85.7693 18.74C86.0653 18.74 86.3133 18.644 86.5133 18.452C86.7213 18.26 86.8253 18.008 86.8253 17.696V17.48H86.3693C85.8973 17.48 85.5493 17.532 85.3253 17.636C85.1093 17.732 85.0013 17.888 85.0013 18.104C85.0013 18.288 85.0653 18.44 85.1933 18.56C85.3293 18.68 85.5213 18.74 85.7693 18.74ZM93.1536 20.132C92.2576 20.132 91.5936 19.924 91.1616 19.508C90.7296 19.092 90.5136 18.464 90.5136 17.624V15.668H90.1056C89.5696 15.668 89.3016 15.404 89.3016 14.876C89.3016 14.356 89.5696 14.096 90.1056 14.096H90.5136V13.352C90.5136 13 90.6056 12.732 90.7896 12.548C90.9736 12.364 91.2376 12.272 91.5816 12.272C92.2936 12.272 92.6496 12.632 92.6496 13.352V14.096H93.6336C94.1776 14.096 94.4496 14.356 94.4496 14.876C94.4496 15.404 94.1776 15.668 93.6336 15.668H92.6496V17.552C92.6496 18.128 92.9416 18.416 93.5256 18.416C93.6376 18.416 93.7456 18.404 93.8496 18.38C93.9536 18.356 94.0496 18.344 94.1376 18.344C94.2656 18.336 94.3696 18.376 94.4496 18.464C94.5296 18.544 94.5696 18.732 94.5696 19.028C94.5696 19.268 94.5336 19.472 94.4616 19.64C94.3896 19.8 94.2616 19.916 94.0776 19.988C93.9656 20.028 93.8136 20.06 93.6216 20.084C93.4296 20.116 93.2736 20.132 93.1536 20.132ZM96.4222 13.136C96.0462 13.136 95.7542 13.048 95.5462 12.872C95.3462 12.696 95.2462 12.44 95.2462 12.104C95.2462 11.776 95.3462 11.524 95.5462 11.348C95.7542 11.172 96.0462 11.084 96.4222 11.084C97.2142 11.084 97.6102 11.424 97.6102 12.104C97.6102 12.44 97.5062 12.696 97.2982 12.872C97.0982 13.048 96.8062 13.136 96.4222 13.136ZM96.4222 20.108C96.0782 20.108 95.8142 20.008 95.6302 19.808C95.4542 19.608 95.3662 19.32 95.3662 18.944V15.152C95.3662 14.776 95.4542 14.488 95.6302 14.288C95.8142 14.088 96.0782 13.988 96.4222 13.988C96.7662 13.988 97.0302 14.088 97.2142 14.288C97.4062 14.488 97.5022 14.776 97.5022 15.152V18.944C97.5022 19.32 97.4102 19.608 97.2262 19.808C97.0422 20.008 96.7742 20.108 96.4222 20.108ZM101.729 20.132C101.073 20.132 100.501 20.008 100.013 19.76C99.5252 19.512 99.1452 19.156 98.8732 18.692C98.6012 18.228 98.4652 17.68 98.4652 17.048C98.4652 16.408 98.6012 15.86 98.8732 15.404C99.1452 14.94 99.5252 14.584 100.013 14.336C100.501 14.088 101.073 13.964 101.729 13.964C102.385 13.964 102.957 14.088 103.445 14.336C103.933 14.584 104.309 14.94 104.573 15.404C104.845 15.86 104.981 16.408 104.981 17.048C104.981 17.68 104.845 18.228 104.573 18.692C104.309 19.156 103.933 19.512 103.445 19.76C102.957 20.008 102.385 20.132 101.729 20.132ZM101.729 18.56C102.049 18.56 102.313 18.44 102.521 18.2C102.729 17.96 102.833 17.576 102.833 17.048C102.833 16.512 102.729 16.128 102.521 15.896C102.313 15.656 102.049 15.536 101.729 15.536C101.401 15.536 101.133 15.656 100.925 15.896C100.717 16.128 100.613 16.512 100.613 17.048C100.613 17.576 100.717 17.96 100.925 18.2C101.133 18.44 101.401 18.56 101.729 18.56ZM107.016 20.108C106.672 20.108 106.408 20.016 106.224 19.832C106.048 19.648 105.96 19.38 105.96 19.028V15.056C105.96 14.344 106.308 13.988 107.004 13.988C107.636 13.988 107.98 14.296 108.036 14.912C108.236 14.608 108.5 14.376 108.828 14.216C109.164 14.048 109.536 13.964 109.944 13.964C110.648 13.964 111.168 14.172 111.504 14.588C111.848 15.004 112.02 15.644 112.02 16.508V19.028C112.02 19.38 111.928 19.648 111.744 19.832C111.56 20.016 111.296 20.108 110.952 20.108C110.608 20.108 110.344 20.016 110.16 19.832C109.976 19.648 109.884 19.38 109.884 19.028V16.592C109.884 16.232 109.82 15.976 109.692 15.824C109.572 15.672 109.392 15.596 109.152 15.596C108.832 15.596 108.576 15.7 108.384 15.908C108.192 16.108 108.096 16.38 108.096 16.724V19.028C108.096 19.748 107.736 20.108 107.016 20.108Z" fill="#A5FFA4"/>
</svg>
