<svg width="148" height="132" viewBox="0 0 148 132" fill="none" xmlns="http://www.w3.org/2000/svg">
<rect width="148" height="132" rx="14" fill="#03266A"/>
<path d="M14.5703 64.2031V66.1719H8.67969V64.2031H14.5703ZM9.48438 59.625V71H6.9375V59.625H9.48438ZM16.3281 59.625V71H13.7891V59.625H16.3281ZM19.13 62.5469H21.5831V71.3906C21.5831 72.0417 21.4607 72.5911 21.2159 73.0391C20.9711 73.4922 20.617 73.8333 20.1534 74.0625C19.6951 74.2969 19.1456 74.4141 18.505 74.4141C18.2967 74.4141 18.0988 74.4036 17.9113 74.3828C17.7238 74.3672 17.5232 74.3333 17.3097 74.2812V72.4219C17.4399 72.4427 17.5649 72.4583 17.6847 72.4688C17.7993 72.4844 17.9217 72.4922 18.0519 72.4922C18.2863 72.4922 18.4816 72.4531 18.6378 72.375C18.7993 72.2969 18.9217 72.1745 19.005 72.0078C19.0883 71.8464 19.13 71.6406 19.13 71.3906V62.5469ZM18.9425 60.3594C18.9425 60.0052 19.0675 59.7161 19.3175 59.4922C19.5675 59.263 19.8982 59.1484 20.3097 59.1484C20.7159 59.1484 21.0441 59.263 21.2941 59.4922C21.5441 59.7161 21.6691 60.0052 21.6691 60.3594C21.6691 60.7083 21.5441 60.9974 21.2941 61.2266C21.0441 61.4505 20.7159 61.5625 20.3097 61.5625C19.8982 61.5625 19.5675 61.4505 19.3175 61.2266C19.0675 60.9974 18.9425 60.7083 18.9425 60.3594ZM28.9319 69.5703V65.5C28.9319 65.2448 28.8876 65.0286 28.7991 64.8516C28.7105 64.6693 28.5803 64.5312 28.4084 64.4375C28.2418 64.3385 28.036 64.2891 27.7913 64.2891C27.5204 64.2891 27.2913 64.3307 27.1038 64.4141C26.9163 64.4922 26.7704 64.599 26.6663 64.7344C26.5673 64.8698 26.5178 65.0234 26.5178 65.1953L24.0725 65.0469C24.0725 64.6615 24.161 64.3073 24.3381 63.9844C24.5152 63.6615 24.7678 63.3828 25.0959 63.1484C25.4241 62.9089 25.8173 62.724 26.2756 62.5938C26.7392 62.4583 27.2548 62.3906 27.8225 62.3906C28.5308 62.3906 29.1454 62.5078 29.6663 62.7422C30.1871 62.9714 30.5881 63.3177 30.8694 63.7812C31.1558 64.2448 31.2991 64.8229 31.2991 65.5156V69.2969L28.9319 69.5703ZM29.2756 65.9062L29.2913 67.4219H27.7756C27.4423 67.4219 27.161 67.474 26.9319 67.5781C26.7027 67.6823 26.5282 67.8177 26.4084 67.9844C26.2939 68.151 26.2366 68.3307 26.2366 68.5234C26.2366 68.7109 26.2808 68.875 26.3694 69.0156C26.4579 69.151 26.5933 69.2578 26.7756 69.3359C26.9579 69.4089 27.1923 69.4453 27.4788 69.4453C27.6871 69.4453 27.898 69.4089 28.1116 69.3359C28.3251 69.263 28.5204 69.1693 28.6975 69.0547C28.8798 68.9349 29.0256 68.8073 29.135 68.6719C29.2444 68.5365 29.2991 68.4089 29.2991 68.2891L30.4241 69.4922C30.2939 69.7422 30.0829 69.9974 29.7913 70.2578C29.4996 70.513 29.122 70.7266 28.6584 70.8984C28.2001 71.0703 27.6532 71.1562 27.0178 71.1562C26.3199 71.1562 25.7314 71.0469 25.2522 70.8281C24.773 70.6094 24.4084 70.2995 24.1584 69.8984C23.9136 69.4974 23.7913 69.0286 23.7913 68.4922C23.7913 68.0807 23.8746 67.7161 24.0413 67.3984C24.2131 67.0755 24.4657 66.8047 24.7991 66.5859C25.1324 66.362 25.5465 66.1927 26.0413 66.0781C26.536 65.9635 27.109 65.9062 27.76 65.9062H29.2756ZM32.9944 71.1562C32.3433 71.1562 31.7652 71.0599 31.26 70.8672C30.7548 70.6693 30.3277 70.3932 29.9788 70.0391C29.635 69.6797 29.3746 69.2578 29.1975 68.7734C29.0256 68.2839 28.9397 67.7474 28.9397 67.1641V66.5938C28.9397 65.974 29.023 65.4089 29.1897 64.8984C29.3564 64.3828 29.6038 63.9375 29.9319 63.5625C30.26 63.1875 30.6689 62.8984 31.1584 62.6953C31.6532 62.487 32.2235 62.3854 32.8694 62.3906C33.4215 62.3906 33.9163 62.4792 34.3538 62.6562C34.7913 62.8333 35.1636 63.0885 35.4709 63.4219C35.7834 63.7552 36.0204 64.1589 36.1819 64.6328C36.3485 65.1016 36.4319 65.6276 36.4319 66.2109V67.5234H29.9084V65.9609H34.0334V65.75C34.0334 65.4531 33.9892 65.1953 33.9006 64.9766C33.8173 64.7578 33.6897 64.5885 33.5178 64.4688C33.3459 64.349 33.1298 64.2891 32.8694 64.2891C32.5725 64.2891 32.3225 64.3464 32.1194 64.4609C31.9215 64.5755 31.7626 64.737 31.6428 64.9453C31.523 65.1536 31.4371 65.3984 31.385 65.6797C31.3329 65.9609 31.3069 66.2656 31.3069 66.5938V67.1641C31.3069 67.4661 31.3433 67.7448 31.4163 68C31.4944 68.25 31.6116 68.4714 31.7678 68.6641C31.9293 68.8516 32.135 69 32.385 69.1094C32.6402 69.2135 32.9449 69.2656 33.2991 69.2656C33.8251 69.2656 34.2548 69.2083 34.5881 69.0938C34.9215 68.974 35.2444 68.8385 35.5569 68.6875L36.1819 70.2109C35.984 70.362 35.7235 70.5104 35.4006 70.6562C35.0777 70.8021 34.7105 70.9219 34.2991 71.0156C33.8928 71.1094 33.4579 71.1562 32.9944 71.1562ZM41.0697 59V71H38.6244V59H41.0697ZM46.1528 64.1719V74.25H43.7153V62.5469H45.9888L46.1528 64.1719ZM51.4263 66.6797V66.8438C51.4263 67.4583 51.3559 68.0286 51.2153 68.5547C51.0747 69.0755 50.8638 69.5312 50.5825 69.9219C50.3065 70.3125 49.9653 70.6172 49.5591 70.8359C49.1528 71.0495 48.6815 71.1562 48.145 71.1562C47.6346 71.1562 47.1919 71.0495 46.8169 70.8359C46.4471 70.6172 46.1346 70.3151 45.8794 69.9297C45.6294 69.5391 45.4263 69.0938 45.27 68.5938C45.119 68.0885 45.0018 67.5495 44.9184 66.9766V66.6562C45.0018 66.0469 45.1216 65.4818 45.2778 64.9609C45.4341 64.4401 45.6372 63.9896 45.8872 63.6094C46.1372 63.224 46.4471 62.9245 46.8169 62.7109C47.1867 62.4974 47.6268 62.3906 48.1372 62.3906C48.6684 62.3906 49.1398 62.4922 49.5513 62.6953C49.9627 62.8984 50.3065 63.1901 50.5825 63.5703C50.8638 63.9453 51.0747 64.3958 51.2153 64.9219C51.3559 65.4479 51.4263 66.0339 51.4263 66.6797ZM48.9809 66.8438V66.6797C48.9809 66.3359 48.9549 66.0208 48.9028 65.7344C48.8507 65.4427 48.7674 65.1901 48.6528 64.9766C48.5382 64.7578 48.3872 64.5885 48.1997 64.4688C48.0122 64.349 47.783 64.2891 47.5122 64.2891C47.2205 64.2891 46.9731 64.3359 46.77 64.4297C46.5669 64.5234 46.4028 64.6615 46.2778 64.8438C46.1528 65.0208 46.0617 65.2396 46.0044 65.5C45.9523 65.7604 45.9236 66.0573 45.9184 66.3906V67.25C45.9236 67.6406 45.9783 67.9896 46.0825 68.2969C46.1919 68.599 46.3611 68.8359 46.5903 69.0078C46.8247 69.1745 47.1372 69.2578 47.5278 69.2578C47.8039 69.2578 48.033 69.1979 48.2153 69.0781C48.4028 68.9531 48.5513 68.7786 48.6606 68.5547C48.7752 68.3307 48.8559 68.0729 48.9028 67.7812C48.9549 67.4896 48.9809 67.1771 48.9809 66.8438ZM58.1159 66.8594V66.6953C58.1159 66.0755 58.2045 65.5052 58.3816 64.9844C58.5586 64.4583 58.8191 64.0026 59.1628 63.6172C59.5066 63.2318 59.9284 62.9323 60.4284 62.7188C60.9284 62.5 61.5014 62.3906 62.1472 62.3906C62.8034 62.3906 63.3816 62.5 63.8816 62.7188C64.3868 62.9323 64.8112 63.2318 65.155 63.6172C65.4987 64.0026 65.7592 64.4583 65.9362 64.9844C66.1133 65.5052 66.2019 66.0755 66.2019 66.6953V66.8594C66.2019 67.474 66.1133 68.0443 65.9362 68.5703C65.7592 69.0911 65.4987 69.5469 65.155 69.9375C64.8112 70.3229 64.3894 70.6224 63.8894 70.8359C63.3894 71.0495 62.8139 71.1562 62.1628 71.1562C61.517 71.1562 60.9415 71.0495 60.4362 70.8359C59.931 70.6224 59.5066 70.3229 59.1628 69.9375C58.8191 69.5469 58.5586 69.0911 58.3816 68.5703C58.2045 68.0443 58.1159 67.474 58.1159 66.8594ZM60.5612 66.6953V66.8594C60.5612 67.1927 60.5873 67.5052 60.6394 67.7969C60.6967 68.0885 60.7878 68.3438 60.9128 68.5625C61.0378 68.7812 61.2019 68.9531 61.405 69.0781C61.6133 69.1979 61.8659 69.2578 62.1628 69.2578C62.4597 69.2578 62.7097 69.1979 62.9128 69.0781C63.1159 68.9531 63.28 68.7812 63.405 68.5625C63.53 68.3438 63.6185 68.0885 63.6706 67.7969C63.7279 67.5052 63.7566 67.1927 63.7566 66.8594V66.6953C63.7566 66.3672 63.7279 66.0599 63.6706 65.7734C63.6185 65.4818 63.53 65.224 63.405 65C63.28 64.776 63.1133 64.6016 62.905 64.4766C62.7019 64.3516 62.4493 64.2891 62.1472 64.2891C61.8555 64.2891 61.6081 64.3516 61.405 64.4766C61.2019 64.6016 61.0378 64.776 60.9128 65C60.7878 65.224 60.6967 65.4818 60.6394 65.7734C60.5873 66.0599 60.5612 66.3672 60.5612 66.6953ZM73.6912 62.5469H75.91V70.6953C75.91 71.4714 75.7329 72.1302 75.3787 72.6719C75.0298 73.2135 74.5428 73.625 73.9178 73.9062C73.2928 74.1875 72.561 74.3281 71.7225 74.3281C71.3579 74.3281 70.9777 74.2786 70.5819 74.1797C70.186 74.0859 69.8136 73.9427 69.4647 73.75C69.1157 73.5625 68.8241 73.3229 68.5897 73.0312L69.6287 71.5938C69.8683 71.8646 70.1548 72.0833 70.4881 72.25C70.8215 72.4219 71.2017 72.5078 71.6287 72.5078C72.0194 72.5078 72.3501 72.4375 72.6209 72.2969C72.8918 72.1562 73.0975 71.9505 73.2381 71.6797C73.384 71.4089 73.4569 71.0807 73.4569 70.6953V64.5234L73.6912 62.5469ZM68.0428 66.875V66.7109C68.0428 66.0703 68.1209 65.487 68.2772 64.9609C68.4334 64.4297 68.66 63.974 68.9569 63.5938C69.259 63.2083 69.6209 62.9115 70.0428 62.7031C70.4699 62.4948 70.9491 62.3906 71.4803 62.3906C72.0532 62.3906 72.5272 62.5 72.9022 62.7188C73.2772 62.9323 73.5819 63.2344 73.8162 63.625C74.0506 64.0104 74.2355 64.4661 74.3709 64.9922C74.5064 65.513 74.6157 66.0781 74.6991 66.6875V66.9688C74.6157 67.5521 74.4959 68.0964 74.3397 68.6016C74.1834 69.1068 73.9803 69.5521 73.7303 69.9375C73.4803 70.3177 73.1678 70.6172 72.7928 70.8359C72.423 71.0495 71.9803 71.1562 71.4647 71.1562C70.9386 71.1562 70.4647 71.0495 70.0428 70.8359C69.6209 70.6224 69.259 70.3229 68.9569 69.9375C68.66 69.5521 68.4334 69.099 68.2772 68.5781C68.1209 68.0573 68.0428 67.4896 68.0428 66.875ZM70.4803 66.7109V66.875C70.4803 67.2083 70.5116 67.5182 70.5741 67.8047C70.6418 68.0911 70.7407 68.3438 70.8709 68.5625C71.0064 68.7812 71.173 68.9531 71.3709 69.0781C71.5741 69.1979 71.811 69.2578 72.0819 69.2578C72.4777 69.2578 72.798 69.1745 73.0428 69.0078C73.2928 68.8359 73.4751 68.599 73.5897 68.2969C73.7095 67.9948 73.772 67.6432 73.7772 67.2422V66.4219C73.7772 66.0885 73.7433 65.7891 73.6756 65.5234C73.6079 65.2578 73.5064 65.0339 73.3709 64.8516C73.2407 64.6693 73.0689 64.5312 72.8553 64.4375C72.647 64.3385 72.3944 64.2891 72.0975 64.2891C71.8319 64.2891 71.5975 64.3516 71.3944 64.4766C71.1912 64.5964 71.022 64.7656 70.8866 64.9844C70.7511 65.2031 70.6496 65.4609 70.5819 65.7578C70.5142 66.0495 70.4803 66.3672 70.4803 66.7109ZM87.7794 68.6484C87.7794 68.4922 87.7299 68.3542 87.6309 68.2344C87.5372 68.1146 87.3653 68.0052 87.1153 67.9062C86.8705 67.8073 86.5242 67.7083 86.0762 67.6094C85.6544 67.5208 85.2611 67.4062 84.8966 67.2656C84.532 67.1198 84.2143 66.9453 83.9434 66.7422C83.6726 66.5339 83.4617 66.2891 83.3106 66.0078C83.1596 65.7214 83.0841 65.3958 83.0841 65.0312C83.0841 64.6771 83.1596 64.3411 83.3106 64.0234C83.4669 63.7057 83.6908 63.4245 83.9825 63.1797C84.2794 62.9349 84.6387 62.7422 85.0606 62.6016C85.4877 62.4609 85.9721 62.3906 86.5137 62.3906C87.2585 62.3906 87.9018 62.5078 88.4434 62.7422C88.9851 62.9714 89.4018 63.2943 89.6934 63.7109C89.9851 64.1224 90.1309 64.5938 90.1309 65.125H87.6934C87.6934 64.9062 87.6518 64.7161 87.5684 64.5547C87.4851 64.3932 87.3575 64.2682 87.1856 64.1797C87.0137 64.0859 86.7872 64.0391 86.5059 64.0391C86.2872 64.0391 86.0945 64.0781 85.9278 64.1562C85.7664 64.2292 85.6387 64.3307 85.545 64.4609C85.4565 64.5911 85.4122 64.7422 85.4122 64.9141C85.4122 65.0339 85.4382 65.1432 85.4903 65.2422C85.5476 65.3359 85.6335 65.4245 85.7481 65.5078C85.8679 65.5859 86.0216 65.6562 86.2091 65.7188C86.4018 65.7812 86.6361 65.8411 86.9122 65.8984C87.5007 66.0078 88.0372 66.1615 88.5216 66.3594C89.0111 66.5573 89.4018 66.8307 89.6934 67.1797C89.9903 67.5286 90.1387 67.9896 90.1387 68.5625C90.1387 68.9375 90.0528 69.2812 89.8809 69.5938C89.7143 69.9062 89.4721 70.1797 89.1544 70.4141C88.8367 70.6484 88.4565 70.8307 88.0137 70.9609C87.571 71.0911 87.071 71.1562 86.5137 71.1562C85.7169 71.1562 85.0424 71.013 84.4903 70.7266C83.9382 70.4401 83.5216 70.0807 83.2403 69.6484C82.9643 69.2109 82.8262 68.763 82.8262 68.3047H85.1153C85.1257 68.5859 85.196 68.8151 85.3262 68.9922C85.4617 69.1693 85.6361 69.2995 85.8497 69.3828C86.0632 69.4609 86.3028 69.5 86.5684 69.5C86.8341 69.5 87.0554 69.4635 87.2325 69.3906C87.4096 69.3177 87.545 69.2188 87.6387 69.0938C87.7325 68.9635 87.7794 68.8151 87.7794 68.6484ZM97.3391 68.9609V62.5469H99.7922V71H97.4953L97.3391 68.9609ZM97.5969 67.2344L98.2688 67.2188C98.2688 67.7865 98.201 68.3099 98.0656 68.7891C97.9354 69.2682 97.7375 69.6849 97.4719 70.0391C97.2115 70.3932 96.8859 70.6693 96.4953 70.8672C96.1099 71.0599 95.6594 71.1562 95.1438 71.1562C94.7271 71.1562 94.3443 71.099 93.9953 70.9844C93.6516 70.8646 93.3547 70.6797 93.1047 70.4297C92.8547 70.1745 92.662 69.849 92.5266 69.4531C92.3911 69.0521 92.3234 68.5729 92.3234 68.0156V62.5469H94.7609V68.0312C94.7609 68.25 94.787 68.4375 94.8391 68.5938C94.8964 68.7448 94.9719 68.8698 95.0656 68.9688C95.1646 69.0677 95.2844 69.1406 95.425 69.1875C95.5708 69.2344 95.7297 69.2578 95.9016 69.2578C96.3339 69.2578 96.6724 69.1693 96.9172 68.9922C97.1672 68.8099 97.3417 68.5677 97.4406 68.2656C97.5448 67.9583 97.5969 67.6146 97.5969 67.2344ZM104.703 64.1719V74.25H102.266V62.5469H104.539L104.703 64.1719ZM109.977 66.6797V66.8438C109.977 67.4583 109.907 68.0286 109.766 68.5547C109.625 69.0755 109.414 69.5312 109.133 69.9219C108.857 70.3125 108.516 70.6172 108.11 70.8359C107.703 71.0495 107.232 71.1562 106.696 71.1562C106.185 71.1562 105.743 71.0495 105.368 70.8359C104.998 70.6172 104.685 70.3151 104.43 69.9297C104.18 69.5391 103.977 69.0938 103.821 68.5938C103.67 68.0885 103.552 67.5495 103.469 66.9766V66.6562C103.552 66.0469 103.672 65.4818 103.828 64.9609C103.985 64.4401 104.188 63.9896 104.438 63.6094C104.688 63.224 104.998 62.9245 105.368 62.7109C105.737 62.4974 106.177 62.3906 106.688 62.3906C107.219 62.3906 107.69 62.4922 108.102 62.6953C108.513 62.8984 108.857 63.1901 109.133 63.5703C109.414 63.9453 109.625 64.3958 109.766 64.9219C109.907 65.4479 109.977 66.0339 109.977 66.6797ZM107.532 66.8438V66.6797C107.532 66.3359 107.506 66.0208 107.453 65.7344C107.401 65.4427 107.318 65.1901 107.203 64.9766C107.089 64.7578 106.938 64.5885 106.75 64.4688C106.563 64.349 106.334 64.2891 106.063 64.2891C105.771 64.2891 105.524 64.3359 105.321 64.4297C105.118 64.5234 104.953 64.6615 104.828 64.8438C104.703 65.0208 104.612 65.2396 104.555 65.5C104.503 65.7604 104.474 66.0573 104.469 66.3906V67.25C104.474 67.6406 104.529 67.9896 104.633 68.2969C104.743 68.599 104.912 68.8359 105.141 69.0078C105.375 69.1745 105.688 69.2578 106.078 69.2578C106.354 69.2578 106.584 69.1979 106.766 69.0781C106.953 68.9531 107.102 68.7786 107.211 68.5547C107.326 68.3307 107.407 68.0729 107.453 67.7812C107.506 67.4896 107.532 67.1771 107.532 66.8438ZM114.599 64.1719V74.25H112.162V62.5469H114.435L114.599 64.1719ZM119.872 66.6797V66.8438C119.872 67.4583 119.802 68.0286 119.662 68.5547C119.521 69.0755 119.31 69.5312 119.029 69.9219C118.753 70.3125 118.412 70.6172 118.005 70.8359C117.599 71.0495 117.128 71.1562 116.591 71.1562C116.081 71.1562 115.638 71.0495 115.263 70.8359C114.893 70.6172 114.581 70.3151 114.326 69.9297C114.076 69.5391 113.872 69.0938 113.716 68.5938C113.565 68.0885 113.448 67.5495 113.365 66.9766V66.6562C113.448 66.0469 113.568 65.4818 113.724 64.9609C113.88 64.4401 114.083 63.9896 114.333 63.6094C114.583 63.224 114.893 62.9245 115.263 62.7109C115.633 62.4974 116.073 62.3906 116.583 62.3906C117.115 62.3906 117.586 62.4922 117.997 62.6953C118.409 62.8984 118.753 63.1901 119.029 63.5703C119.31 63.9453 119.521 64.3958 119.662 64.9219C119.802 65.4479 119.872 66.0339 119.872 66.6797ZM117.427 66.8438V66.6797C117.427 66.3359 117.401 66.0208 117.349 65.7344C117.297 65.4427 117.214 65.1901 117.099 64.9766C116.984 64.7578 116.833 64.5885 116.646 64.4688C116.458 64.349 116.229 64.2891 115.958 64.2891C115.667 64.2891 115.419 64.3359 115.216 64.4297C115.013 64.5234 114.849 64.6615 114.724 64.8438C114.599 65.0208 114.508 65.2396 114.451 65.5C114.399 65.7604 114.37 66.0573 114.365 66.3906V67.25C114.37 67.6406 114.425 67.9896 114.529 68.2969C114.638 68.599 114.807 68.8359 115.037 69.0078C115.271 69.1745 115.583 69.2578 115.974 69.2578C116.25 69.2578 116.479 69.1979 116.662 69.0781C116.849 68.9531 116.997 68.7786 117.107 68.5547C117.221 68.3307 117.302 68.0729 117.349 67.7812C117.401 67.4896 117.427 67.1771 117.427 66.8438ZM121.698 66.8594V66.6953C121.698 66.0755 121.786 65.5052 121.963 64.9844C122.141 64.4583 122.401 64.0026 122.745 63.6172C123.088 63.2318 123.51 62.9323 124.01 62.7188C124.51 62.5 125.083 62.3906 125.729 62.3906C126.385 62.3906 126.963 62.5 127.463 62.7188C127.969 62.9323 128.393 63.2318 128.737 63.6172C129.081 64.0026 129.341 64.4583 129.518 64.9844C129.695 65.5052 129.784 66.0755 129.784 66.6953V66.8594C129.784 67.474 129.695 68.0443 129.518 68.5703C129.341 69.0911 129.081 69.5469 128.737 69.9375C128.393 70.3229 127.971 70.6224 127.471 70.8359C126.971 71.0495 126.396 71.1562 125.745 71.1562C125.099 71.1562 124.523 71.0495 124.018 70.8359C123.513 70.6224 123.088 70.3229 122.745 69.9375C122.401 69.5469 122.141 69.0911 121.963 68.5703C121.786 68.0443 121.698 67.474 121.698 66.8594ZM124.143 66.6953V66.8594C124.143 67.1927 124.169 67.5052 124.221 67.7969C124.279 68.0885 124.37 68.3438 124.495 68.5625C124.62 68.7812 124.784 68.9531 124.987 69.0781C125.195 69.1979 125.448 69.2578 125.745 69.2578C126.042 69.2578 126.292 69.1979 126.495 69.0781C126.698 68.9531 126.862 68.7812 126.987 68.5625C127.112 68.3438 127.2 68.0885 127.253 67.7969C127.31 67.5052 127.338 67.1927 127.338 66.8594V66.6953C127.338 66.3672 127.31 66.0599 127.253 65.7734C127.2 65.4818 127.112 65.224 126.987 65C126.862 64.776 126.695 64.6016 126.487 64.4766C126.284 64.3516 126.031 64.2891 125.729 64.2891C125.437 64.2891 125.19 64.3516 124.987 64.4766C124.784 64.6016 124.62 64.776 124.495 65C124.37 65.224 124.279 65.4818 124.221 65.7734C124.169 66.0599 124.143 66.3672 124.143 66.6953ZM134.39 64.5156V71H131.953V62.5469H134.242L134.39 64.5156ZM136.914 62.4844L136.875 64.7578C136.771 64.7422 136.635 64.7292 136.468 64.7188C136.302 64.7031 136.159 64.6953 136.039 64.6953C135.726 64.6953 135.455 64.7344 135.226 64.8125C135.002 64.8854 134.815 64.9948 134.664 65.1406C134.518 65.2865 134.409 65.4688 134.336 65.6875C134.263 65.901 134.226 66.1484 134.226 66.4297L133.765 66.2031C133.765 65.6458 133.82 65.1354 133.929 64.6719C134.039 64.2083 134.198 63.8073 134.406 63.4688C134.614 63.125 134.869 62.8594 135.172 62.6719C135.474 62.4844 135.817 62.3906 136.203 62.3906C136.328 62.3906 136.455 62.3984 136.586 62.4141C136.716 62.4297 136.825 62.4531 136.914 62.4844ZM143.481 62.5469V64.2578H138.466V62.5469H143.481ZM139.614 60.4531H142.059V68.3516C142.059 68.5859 142.088 68.7656 142.145 68.8906C142.203 69.0156 142.296 69.1042 142.427 69.1562C142.557 69.2031 142.723 69.2266 142.927 69.2266C143.072 69.2266 143.197 69.2214 143.302 69.2109C143.406 69.2005 143.502 69.1875 143.591 69.1719V70.9375C143.382 71.0052 143.161 71.0573 142.927 71.0938C142.692 71.1354 142.437 71.1562 142.161 71.1562C141.635 71.1562 141.179 71.0703 140.794 70.8984C140.414 70.7266 140.122 70.4557 139.919 70.0859C139.716 69.7109 139.614 69.224 139.614 68.625V60.4531Z" fill="white"/>
<path d="M74.0001 28.6667C66.6163 28.6667 59.3982 30.8562 53.2588 34.9585C47.1194 39.0607 42.3343 44.8914 39.5086 51.7132C36.6829 58.5349 35.9436 66.0414 37.3841 73.2834C38.8246 80.5254 42.3803 87.1775 47.6014 92.3987C52.8226 97.6198 59.4748 101.175 66.7167 102.616C73.9587 104.057 81.4652 103.317 88.2869 100.492C95.1087 97.6659 100.939 92.8807 105.042 86.7413C109.144 80.6019 111.333 73.3839 111.333 66C111.333 56.0986 107.4 46.6027 100.399 39.6014C93.3974 32.6 83.9015 28.6667 74.0001 28.6667V28.6667ZM74.0001 98.6667C67.5392 98.6667 61.2235 96.7508 55.8515 93.1614C50.4795 89.5719 46.2925 84.4701 43.82 78.501C41.3476 72.532 40.7007 65.9638 41.9611 59.6271C43.2216 53.2904 46.3328 47.4697 50.9013 42.9012C55.4698 38.3327 61.2904 35.2215 67.6271 33.961C73.9639 32.7006 80.532 33.3475 86.5011 35.82C92.4701 38.2924 97.572 42.4794 101.161 47.8514C104.751 53.2234 106.667 59.5392 106.667 66C106.667 74.6638 103.225 82.9727 97.0989 89.0988C90.9727 95.225 82.6638 98.6667 74.0001 98.6667Z" fill="#FFFCFC" fill-opacity="0.33"/>
<path d="M74.0001 28.6667C66.6163 28.6667 59.3982 30.8562 53.2588 34.9585C47.1194 39.0607 42.3343 44.8914 39.5086 51.7132C36.6829 58.5349 35.9436 66.0414 37.3841 73.2834C38.8246 80.5254 42.3803 87.1775 47.6014 92.3987C52.8226 97.6198 59.4748 101.175 66.7167 102.616C73.9587 104.057 81.4652 103.317 88.2869 100.492C95.1087 97.6659 100.939 92.8807 105.042 86.7413C109.144 80.6019 111.333 73.3839 111.333 66C111.333 56.0986 107.4 46.6027 100.399 39.6014C93.3974 32.6 83.9015 28.6667 74.0001 28.6667V28.6667ZM74.0001 98.6667C67.5392 98.6667 61.2235 96.7508 55.8515 93.1614C50.4795 89.5719 46.2925 84.4701 43.82 78.501C41.3476 72.532 40.7007 65.9638 41.9611 59.6271C43.2216 53.2904 46.3328 47.4697 50.9013 42.9012C55.4698 38.3327 61.2904 35.2215 67.6271 33.961C73.9639 32.7006 80.532 33.3475 86.5011 35.82C92.4701 38.2924 97.572 42.4794 101.161 47.8514C104.751 53.2234 106.667 59.5392 106.667 66C106.667 74.6638 103.225 82.9727 97.0989 89.0988C90.9727 95.225 82.6638 98.6667 74.0001 98.6667Z" fill="#FFFCFC" fill-opacity="0.33"/>
<path d="M74.6766 44.8133C72.1481 44.7715 69.6414 45.2872 67.3347 46.3236C65.0279 47.36 62.9778 48.8917 61.3299 50.81C61.101 51.0222 60.9169 51.2781 60.7887 51.5627C60.6604 51.8472 60.5906 52.1546 60.5833 52.4667C60.5831 52.7546 60.6409 53.0395 60.7531 53.3046C60.8653 53.5698 61.0297 53.8096 61.2365 54.0099C61.4434 54.2102 61.6883 54.3668 61.9569 54.4705C62.2255 54.5741 62.5122 54.6227 62.7999 54.6133C63.4163 54.598 64.0057 54.3573 64.4566 53.9367C65.7037 52.4752 67.2526 51.3014 68.9967 50.4958C70.7408 49.6902 72.6387 49.272 74.5599 49.27C80.0666 49.27 83.4966 52.8167 83.4966 57.2267V57.3433C83.4966 62.5 79.3899 65.37 72.9033 65.86C72.6406 65.8701 72.383 65.9356 72.1474 66.0522C71.9119 66.1688 71.7035 66.3338 71.5361 66.5364C71.3687 66.7391 71.246 66.9748 71.176 67.2282C71.106 67.4815 71.0903 67.7468 71.1299 68.0067C71.1299 68.0067 71.1299 73.42 71.1299 74.4233C71.188 75.0009 71.4592 75.5361 71.8906 75.9244C72.3221 76.3127 72.8828 76.5262 73.4633 76.5233H73.7199C74.2975 76.4653 74.8327 76.1941 75.221 75.7626C75.6093 75.3311 75.8228 74.7704 75.8199 74.19V69.3833C82.8199 68.4033 88.4899 64.7167 88.4899 57.0633V56.9467C88.4199 49.9467 82.9599 44.8133 74.6766 44.8133V44.8133Z" fill="#FFFCFC" fill-opacity="0.33"/>
<path d="M73.4867 88.05C75.0976 88.05 76.4034 86.7442 76.4034 85.1333C76.4034 83.5225 75.0976 82.2167 73.4867 82.2167C71.8759 82.2167 70.5701 83.5225 70.5701 85.1333C70.5701 86.7442 71.8759 88.05 73.4867 88.05Z" fill="#FFFCFC" fill-opacity="0.33"/>
</svg>
