<svg width="148" height="132" viewBox="0 0 148 132" fill="none" xmlns="http://www.w3.org/2000/svg">
<rect width="148" height="132" rx="14" fill="#03266A"/>
<path d="M34.6484 59.625V71H32.1094V59.625H34.6484ZM39.8488 64.3516V71H37.4034V62.5469H39.7003L39.8488 64.3516ZM39.5284 66.4766L38.9191 66.4922C38.9191 65.8568 38.9972 65.2865 39.1534 64.7812C39.3097 64.276 39.531 63.8464 39.8175 63.4922C40.1092 63.1328 40.4555 62.8594 40.8566 62.6719C41.2628 62.4844 41.7107 62.3906 42.2003 62.3906C42.5961 62.3906 42.9581 62.4479 43.2863 62.5625C43.6144 62.6771 43.8956 62.862 44.13 63.1172C44.3696 63.3672 44.5519 63.7005 44.6769 64.1172C44.8019 64.5286 44.8644 65.0365 44.8644 65.6406V71H42.4113V65.6328C42.4113 65.2786 42.3618 65.0052 42.2628 64.8125C42.1639 64.6198 42.018 64.4844 41.8253 64.4062C41.6378 64.3281 41.4086 64.2891 41.1378 64.2891C40.8514 64.2891 40.6066 64.3464 40.4034 64.4609C40.2003 64.5703 40.0336 64.724 39.9034 64.9219C39.7732 65.1198 39.6769 65.3516 39.6144 65.6172C39.5571 65.8828 39.5284 66.1693 39.5284 66.4766ZM52.26 69.1094V59H54.7131V71H52.51L52.26 69.1094ZM46.9944 66.875V66.7109C46.9944 66.0703 47.0647 65.487 47.2053 64.9609C47.3511 64.4297 47.5621 63.974 47.8381 63.5938C48.1194 63.2083 48.4657 62.9115 48.8772 62.7031C49.2886 62.4948 49.76 62.3906 50.2913 62.3906C50.7808 62.3906 51.2079 62.5 51.5725 62.7188C51.9371 62.9323 52.247 63.2344 52.5022 63.625C52.7626 64.0104 52.9735 64.4661 53.135 64.9922C53.2965 65.513 53.4189 66.0781 53.5022 66.6875V66.9688C53.4241 67.5521 53.3017 68.0964 53.135 68.6016C52.9735 69.1068 52.7626 69.5521 52.5022 69.9375C52.247 70.3177 51.9345 70.6172 51.5647 70.8359C51.2001 71.0495 50.7704 71.1562 50.2756 71.1562C49.7444 71.1562 49.273 71.0495 48.8616 70.8359C48.4553 70.6224 48.1142 70.3229 47.8381 69.9375C47.5621 69.5521 47.3511 69.099 47.2053 68.5781C47.0647 68.0573 46.9944 67.4896 46.9944 66.875ZM49.4319 66.7109V66.875C49.4319 67.2083 49.4553 67.5182 49.5022 67.8047C49.5543 68.0911 49.6376 68.3438 49.7522 68.5625C49.8668 68.7812 50.0178 68.9531 50.2053 69.0781C50.3928 69.1979 50.622 69.2578 50.8928 69.2578C51.2574 69.2578 51.5569 69.1745 51.7913 69.0078C52.0256 68.8359 52.2027 68.599 52.3225 68.2969C52.4423 67.9948 52.5048 67.6432 52.51 67.2422V66.4219C52.51 66.0885 52.4761 65.7891 52.4084 65.5234C52.3407 65.2578 52.2392 65.0339 52.1038 64.8516C51.9735 64.6693 51.8095 64.5312 51.6116 64.4375C51.4136 64.3385 51.1793 64.2891 50.9084 64.2891C50.6428 64.2891 50.4163 64.3516 50.2288 64.4766C50.0413 64.5964 49.8876 64.7656 49.7678 64.9844C49.6532 65.2031 49.5673 65.4609 49.51 65.7578C49.4579 66.0495 49.4319 66.3672 49.4319 66.7109ZM61.7181 68.6484C61.7181 68.4922 61.6686 68.3542 61.5697 68.2344C61.4759 68.1146 61.3041 68.0052 61.0541 67.9062C60.8093 67.8073 60.4629 67.7083 60.015 67.6094C59.5931 67.5208 59.1999 67.4062 58.8353 67.2656C58.4707 67.1198 58.153 66.9453 57.8822 66.7422C57.6114 66.5339 57.4004 66.2891 57.2494 66.0078C57.0983 65.7214 57.0228 65.3958 57.0228 65.0312C57.0228 64.6771 57.0983 64.3411 57.2494 64.0234C57.4056 63.7057 57.6296 63.4245 57.9212 63.1797C58.2181 62.9349 58.5775 62.7422 58.9994 62.6016C59.4265 62.4609 59.9108 62.3906 60.4525 62.3906C61.1973 62.3906 61.8405 62.5078 62.3822 62.7422C62.9239 62.9714 63.3405 63.2943 63.6322 63.7109C63.9239 64.1224 64.0697 64.5938 64.0697 65.125H61.6322C61.6322 64.9062 61.5905 64.7161 61.5072 64.5547C61.4239 64.3932 61.2962 64.2682 61.1244 64.1797C60.9525 64.0859 60.7259 64.0391 60.4447 64.0391C60.2259 64.0391 60.0332 64.0781 59.8666 64.1562C59.7051 64.2292 59.5775 64.3307 59.4837 64.4609C59.3952 64.5911 59.3509 64.7422 59.3509 64.9141C59.3509 65.0339 59.377 65.1432 59.4291 65.2422C59.4864 65.3359 59.5723 65.4245 59.6869 65.5078C59.8067 65.5859 59.9603 65.6562 60.1478 65.7188C60.3405 65.7812 60.5749 65.8411 60.8509 65.8984C61.4395 66.0078 61.9759 66.1615 62.4603 66.3594C62.9499 66.5573 63.3405 66.8307 63.6322 67.1797C63.9291 67.5286 64.0775 67.9896 64.0775 68.5625C64.0775 68.9375 63.9916 69.2812 63.8197 69.5938C63.653 69.9062 63.4108 70.1797 63.0931 70.4141C62.7754 70.6484 62.3952 70.8307 61.9525 70.9609C61.5098 71.0911 61.0098 71.1562 60.4525 71.1562C59.6556 71.1562 58.9811 71.013 58.4291 70.7266C57.877 70.4401 57.4603 70.0807 57.1791 69.6484C56.903 69.2109 56.765 68.763 56.765 68.3047H59.0541C59.0645 68.5859 59.1348 68.8151 59.265 68.9922C59.4004 69.1693 59.5749 69.2995 59.7884 69.3828C60.002 69.4609 60.2416 69.5 60.5072 69.5C60.7728 69.5 60.9942 69.4635 61.1712 69.3906C61.3483 69.3177 61.4837 69.2188 61.5775 69.0938C61.6712 68.9635 61.7181 68.8151 61.7181 68.6484ZM70.6138 62.5469V64.2578H65.5981V62.5469H70.6138ZM66.7466 60.4531H69.1919V68.3516C69.1919 68.5859 69.2205 68.7656 69.2778 68.8906C69.3351 69.0156 69.4289 69.1042 69.5591 69.1562C69.6893 69.2031 69.8559 69.2266 70.0591 69.2266C70.2049 69.2266 70.3299 69.2214 70.4341 69.2109C70.5382 69.2005 70.6346 69.1875 70.7231 69.1719V70.9375C70.5148 71.0052 70.2934 71.0573 70.0591 71.0938C69.8247 71.1354 69.5695 71.1562 69.2934 71.1562C68.7674 71.1562 68.3117 71.0703 67.9263 70.8984C67.546 70.7266 67.2544 70.4557 67.0513 70.0859C66.8481 69.7109 66.7466 69.224 66.7466 68.625V60.4531ZM75.2359 62.5469V71H72.7906V62.5469H75.2359ZM72.6422 60.3594C72.6422 60.0052 72.7672 59.7161 73.0172 59.4922C73.2672 59.263 73.5953 59.1484 74.0016 59.1484C74.4078 59.1484 74.7359 59.263 74.9859 59.4922C75.2411 59.7161 75.3688 60.0052 75.3688 60.3594C75.3688 60.7083 75.2411 60.9974 74.9859 61.2266C74.7359 61.4505 74.4078 61.5625 74.0016 61.5625C73.5953 61.5625 73.2672 61.4505 73.0172 61.2266C72.7672 60.9974 72.6422 60.7083 72.6422 60.3594ZM80.4441 59V71H77.9987V59H80.4441ZM85.6522 59V71H83.2069V59H85.6522ZM90.8603 62.5469V71H88.415V62.5469H90.8603ZM88.2666 60.3594C88.2666 60.0052 88.3916 59.7161 88.6416 59.4922C88.8916 59.263 89.2197 59.1484 89.6259 59.1484C90.0322 59.1484 90.3603 59.263 90.6103 59.4922C90.8655 59.7161 90.9931 60.0052 90.9931 60.3594C90.9931 60.7083 90.8655 60.9974 90.6103 61.2266C90.3603 61.4505 90.0322 61.5625 89.6259 61.5625C89.2197 61.5625 88.8916 61.4505 88.6416 61.2266C88.3916 60.9974 88.2666 60.7083 88.2666 60.3594ZM95.8887 64.3516V71H93.4434V62.5469H95.7403L95.8887 64.3516ZM95.5684 66.4766L94.9591 66.4922C94.9591 65.8568 95.0372 65.2865 95.1934 64.7812C95.3497 64.276 95.571 63.8464 95.8575 63.4922C96.1492 63.1328 96.4955 62.8594 96.8966 62.6719C97.3028 62.4844 97.7507 62.3906 98.2403 62.3906C98.6361 62.3906 98.9981 62.4479 99.3262 62.5625C99.6544 62.6771 99.9356 62.862 100.17 63.1172C100.41 63.3672 100.592 63.7005 100.717 64.1172C100.842 64.5286 100.904 65.0365 100.904 65.6406V71H98.4512V65.6328C98.4512 65.2786 98.4018 65.0052 98.3028 64.8125C98.2039 64.6198 98.058 64.4844 97.8653 64.4062C97.6778 64.3281 97.4486 64.2891 97.1778 64.2891C96.8914 64.2891 96.6466 64.3464 96.4434 64.4609C96.2403 64.5703 96.0736 64.724 95.9434 64.9219C95.8132 65.1198 95.7169 65.3516 95.6544 65.6172C95.5971 65.8828 95.5684 66.1693 95.5684 66.4766ZM108.706 62.5469H110.925V70.6953C110.925 71.4714 110.748 72.1302 110.394 72.6719C110.045 73.2135 109.558 73.625 108.933 73.9062C108.308 74.1875 107.576 74.3281 106.738 74.3281C106.373 74.3281 105.993 74.2786 105.597 74.1797C105.201 74.0859 104.829 73.9427 104.48 73.75C104.131 73.5625 103.839 73.3229 103.605 73.0312L104.644 71.5938C104.883 71.8646 105.17 72.0833 105.503 72.25C105.836 72.4219 106.217 72.5078 106.644 72.5078C107.034 72.5078 107.365 72.4375 107.636 72.2969C107.907 72.1562 108.113 71.9505 108.253 71.6797C108.399 71.4089 108.472 71.0807 108.472 70.6953V64.5234L108.706 62.5469ZM103.058 66.875V66.7109C103.058 66.0703 103.136 65.487 103.292 64.9609C103.448 64.4297 103.675 63.974 103.972 63.5938C104.274 63.2083 104.636 62.9115 105.058 62.7031C105.485 62.4948 105.964 62.3906 106.495 62.3906C107.068 62.3906 107.542 62.5 107.917 62.7188C108.292 62.9323 108.597 63.2344 108.831 63.625C109.066 64.0104 109.251 64.4661 109.386 64.9922C109.521 65.513 109.631 66.0781 109.714 66.6875V66.9688C109.631 67.5521 109.511 68.0964 109.355 68.6016C109.198 69.1068 108.995 69.5521 108.745 69.9375C108.495 70.3177 108.183 70.6172 107.808 70.8359C107.438 71.0495 106.995 71.1562 106.48 71.1562C105.954 71.1562 105.48 71.0495 105.058 70.8359C104.636 70.6224 104.274 70.3229 103.972 69.9375C103.675 69.5521 103.448 69.099 103.292 68.5781C103.136 68.0573 103.058 67.4896 103.058 66.875ZM105.495 66.7109V66.875C105.495 67.2083 105.527 67.5182 105.589 67.8047C105.657 68.0911 105.756 68.3438 105.886 68.5625C106.021 68.7812 106.188 68.9531 106.386 69.0781C106.589 69.1979 106.826 69.2578 107.097 69.2578C107.493 69.2578 107.813 69.1745 108.058 69.0078C108.308 68.8359 108.49 68.599 108.605 68.2969C108.724 67.9948 108.787 67.6432 108.792 67.2422V66.4219C108.792 66.0885 108.758 65.7891 108.691 65.5234C108.623 65.2578 108.521 65.0339 108.386 64.8516C108.256 64.6693 108.084 64.5312 107.87 64.4375C107.662 64.3385 107.409 64.2891 107.113 64.2891C106.847 64.2891 106.613 64.3516 106.409 64.4766C106.206 64.5964 106.037 64.7656 105.902 64.9844C105.766 65.2031 105.665 65.4609 105.597 65.7578C105.529 66.0495 105.495 66.3672 105.495 66.7109ZM117.414 71.1562C116.743 71.1562 116.141 71.0495 115.61 70.8359C115.078 70.6224 114.628 70.3281 114.258 69.9531C113.894 69.5729 113.615 69.1354 113.422 68.6406C113.229 68.1458 113.133 67.6172 113.133 67.0547V66.7578C113.133 66.1276 113.222 65.5469 113.399 65.0156C113.576 64.4844 113.834 64.0234 114.172 63.6328C114.516 63.237 114.938 62.9323 115.438 62.7188C115.938 62.5 116.508 62.3906 117.149 62.3906C117.748 62.3906 118.282 62.4896 118.75 62.6875C119.219 62.8802 119.615 63.1589 119.938 63.5234C120.261 63.8828 120.506 64.3177 120.672 64.8281C120.844 65.3333 120.93 65.901 120.93 66.5312V67.5312H114.118V65.9609H118.539V65.7734C118.539 65.4766 118.485 65.2161 118.375 64.9922C118.271 64.7682 118.115 64.5964 117.907 64.4766C117.703 64.3516 117.446 64.2891 117.133 64.2891C116.836 64.2891 116.589 64.3516 116.391 64.4766C116.193 64.6016 116.034 64.7786 115.914 65.0078C115.8 65.2318 115.716 65.4948 115.664 65.7969C115.612 66.0938 115.586 66.4141 115.586 66.7578V67.0547C115.586 67.3828 115.631 67.6823 115.719 67.9531C115.808 68.224 115.938 68.4557 116.11 68.6484C116.282 68.8411 116.49 68.9922 116.735 69.1016C116.979 69.2109 117.258 69.2656 117.571 69.2656C117.956 69.2656 118.323 69.1927 118.672 69.0469C119.021 68.8958 119.323 68.6615 119.578 68.3438L120.719 69.6484C120.547 69.8984 120.305 70.1406 119.993 70.375C119.685 70.6042 119.315 70.7917 118.883 70.9375C118.451 71.0833 117.961 71.1562 117.414 71.1562ZM125.443 64.5156V71H123.005V62.5469H125.294L125.443 64.5156ZM127.966 62.4844L127.927 64.7578C127.823 64.7422 127.688 64.7292 127.521 64.7188C127.354 64.7031 127.211 64.6953 127.091 64.6953C126.779 64.6953 126.508 64.7344 126.279 64.8125C126.055 64.8854 125.867 64.9948 125.716 65.1406C125.57 65.2865 125.461 65.4688 125.388 65.6875C125.315 65.901 125.279 66.1484 125.279 66.4297L124.818 66.2031C124.818 65.6458 124.872 65.1354 124.982 64.6719C125.091 64.2083 125.25 63.8073 125.458 63.4688C125.667 63.125 125.922 62.8594 126.224 62.6719C126.526 62.4844 126.87 62.3906 127.255 62.3906C127.38 62.3906 127.508 62.3984 127.638 62.4141C127.768 62.4297 127.878 62.4531 127.966 62.4844Z" fill="white"/>
<path d="M64.6399 101C58.9337 99.2018 53.7658 95.875 49.6393 91.3433C50.967 89.6813 51.7946 87.639 52.0163 85.4777C52.238 83.3164 51.8437 81.1344 50.8838 79.211C49.9239 77.2876 48.4421 75.7102 46.6279 74.6807C44.8138 73.6511 42.7499 73.2163 40.7004 73.4319C40.2334 71.0179 39.9988 68.5603 40 66.0965C40 62.2914 40.552 58.6209 41.5801 55.1726H41.725C43.4841 55.1732 45.2143 54.7006 46.7522 53.7994C48.2902 52.8982 49.5851 51.5982 50.5148 50.022C51.4445 48.4459 51.9782 46.6457 52.0655 44.7914C52.1529 42.937 51.7911 41.0898 51.0141 39.4241C55.0585 35.4493 59.9497 32.56 65.2747 31C66.1413 32.7959 67.4617 34.3037 69.0899 35.3567C70.7181 36.4097 72.5905 36.9667 74.5 36.9662C76.4095 36.9667 78.2819 36.4097 79.9101 35.3567C81.5383 34.3037 82.8587 32.7959 83.7253 31C89.0503 32.56 93.9415 35.4493 97.9859 39.4241C97.2033 41.1015 96.8417 42.9628 96.9357 44.8299C97.0298 46.6969 97.5763 48.5073 98.523 50.0876C99.4697 51.668 100.785 52.9654 102.343 53.8558C103.9 54.7461 105.649 55.1995 107.42 55.1726C108.47 58.7078 109.003 62.3916 109 66.0965C109 68.609 108.758 71.0632 108.3 73.4319C106.25 73.2163 104.186 73.6511 102.372 74.6807C100.558 75.7102 99.0761 77.2876 98.1162 79.211C97.1563 81.1344 96.762 83.3164 96.9837 85.4777C97.2054 87.639 98.033 89.6813 99.3607 91.3433C95.2342 95.875 90.0663 99.2018 84.3601 101C83.69 98.7957 82.3741 96.873 80.6021 95.5088C78.83 94.1447 76.6933 93.4096 74.5 93.4096C72.3067 93.4096 70.17 94.1447 68.3979 95.5088C66.6259 96.873 65.31 98.7957 64.6399 101Z" stroke="white" stroke-opacity="0.33" stroke-width="4" stroke-linejoin="round"/>
<path d="M74.4998 78.841C76.0855 78.841 77.6557 78.5113 79.1207 77.8708C80.5857 77.2304 81.9168 76.2916 83.0381 75.1082C84.1594 73.9248 85.0488 72.5198 85.6556 70.9736C86.2625 69.4273 86.5748 67.7701 86.5748 66.0965C86.5748 64.4228 86.2625 62.7656 85.6556 61.2194C85.0488 59.6731 84.1594 58.2682 83.0381 57.0848C81.9168 55.9013 80.5857 54.9626 79.1207 54.3221C77.6557 53.6816 76.0855 53.352 74.4998 53.352C71.2973 53.352 68.226 54.6947 65.9615 57.0848C63.697 59.4748 62.4248 62.7164 62.4248 66.0965C62.4248 69.4765 63.697 72.7181 65.9615 75.1082C68.226 77.4982 71.2973 78.841 74.4998 78.841V78.841Z" stroke="white" stroke-opacity="0.33" stroke-width="4" stroke-linejoin="round"/>
</svg>
