<svg width="138" height="25" viewBox="0 0 138 25" fill="none" xmlns="http://www.w3.org/2000/svg">
<path d="M44.1345 20.16C43.2811 20.16 42.8545 19.72 42.8545 18.84V7.04C42.8545 6.17333 43.2811 5.74 44.1345 5.74C44.9878 5.74 45.4145 6.17333 45.4145 7.04V12.14H45.4545L51.1945 6.38C51.4078 6.16667 51.6211 6.00667 51.8345 5.9C52.0478 5.79333 52.2878 5.74 52.5545 5.74C52.9411 5.74 53.2145 5.84 53.3745 6.04C53.5478 6.24 53.6145 6.47333 53.5745 6.74C53.5478 7.00667 53.4211 7.25333 53.1945 7.48L47.9345 12.68L53.4745 18.3C53.7545 18.5667 53.9011 18.8467 53.9145 19.14C53.9278 19.4333 53.8345 19.68 53.6345 19.88C53.4478 20.0667 53.1678 20.16 52.7945 20.16C52.4745 20.16 52.2145 20.0933 52.0145 19.96C51.8278 19.8267 51.6078 19.6333 51.3545 19.38L45.4545 13.48H45.4145V18.84C45.4145 19.72 44.9878 20.16 44.1345 20.16ZM60.1213 20.2C59.108 20.2 58.228 19.9933 57.4813 19.58C56.7347 19.1667 56.1547 18.58 55.7413 17.82C55.328 17.0467 55.1213 16.14 55.1213 15.1C55.1213 14.06 55.328 13.16 55.7413 12.4C56.1547 11.64 56.7347 11.0533 57.4813 10.64C58.228 10.2267 59.108 10.02 60.1213 10.02C61.1347 10.02 62.0147 10.2267 62.7613 10.64C63.508 11.0533 64.088 11.64 64.5013 12.4C64.9147 13.16 65.1213 14.06 65.1213 15.1C65.1213 16.14 64.9147 17.0467 64.5013 17.82C64.088 18.58 63.508 19.1667 62.7613 19.58C62.0147 19.9933 61.1347 20.2 60.1213 20.2ZM60.1213 18.3C60.868 18.3 61.468 18.0333 61.9213 17.5C62.3747 16.9533 62.6013 16.1533 62.6013 15.1C62.6013 14.0333 62.3747 13.24 61.9213 12.72C61.468 12.1867 60.868 11.92 60.1213 11.92C59.3747 11.92 58.7747 12.1867 58.3213 12.72C57.868 13.24 57.6413 14.0333 57.6413 15.1C57.6413 16.1533 57.868 16.9533 58.3213 17.5C58.7747 18.0333 59.3747 18.3 60.1213 18.3ZM68.4248 20.16C67.5981 20.16 67.1848 19.7333 67.1848 18.88V11.32C67.1848 10.48 67.5914 10.06 68.4048 10.06C69.2181 10.06 69.6248 10.48 69.6248 11.32V11.74C69.9581 11.18 70.4048 10.7533 70.9648 10.46C71.5381 10.1667 72.1781 10.02 72.8848 10.02C75.1914 10.02 76.3448 11.36 76.3448 14.04V18.88C76.3448 19.7333 75.9314 20.16 75.1048 20.16C74.2648 20.16 73.8448 19.7333 73.8448 18.88V14.16C73.8448 13.4 73.6981 12.8467 73.4048 12.5C73.1248 12.1533 72.6848 11.98 72.0848 11.98C71.3514 11.98 70.7648 12.2133 70.3248 12.68C69.8981 13.1333 69.6848 13.74 69.6848 14.5V18.88C69.6848 19.7333 69.2648 20.16 68.4248 20.16ZM83.364 20.2C80.7773 20.2 79.484 18.92 79.484 16.36V12.1H78.444C77.7773 12.1 77.444 11.7867 77.444 11.16C77.444 10.5333 77.7773 10.22 78.444 10.22H79.484V8.4C79.484 7.56 79.904 7.14 80.744 7.14C81.5707 7.14 81.984 7.56 81.984 8.4V10.22H84.104C84.7707 10.22 85.104 10.5333 85.104 11.16C85.104 11.7867 84.7707 12.1 84.104 12.1H81.984V16.22C81.984 16.86 82.124 17.34 82.404 17.66C82.684 17.98 83.1373 18.14 83.764 18.14C83.9907 18.14 84.1907 18.12 84.364 18.08C84.5373 18.04 84.6907 18.0133 84.824 18C84.984 17.9867 85.1173 18.04 85.224 18.16C85.3307 18.2667 85.384 18.4933 85.384 18.84C85.384 19.1067 85.3373 19.3467 85.244 19.56C85.164 19.76 85.0107 19.9 84.784 19.98C84.6107 20.0333 84.384 20.08 84.104 20.12C83.824 20.1733 83.5773 20.2 83.364 20.2ZM90.9221 20.2C89.9088 20.2 89.0288 19.9933 88.2821 19.58C87.5354 19.1667 86.9554 18.58 86.5421 17.82C86.1288 17.0467 85.9221 16.14 85.9221 15.1C85.9221 14.06 86.1288 13.16 86.5421 12.4C86.9554 11.64 87.5354 11.0533 88.2821 10.64C89.0288 10.2267 89.9088 10.02 90.9221 10.02C91.9354 10.02 92.8154 10.2267 93.5621 10.64C94.3088 11.0533 94.8888 11.64 95.3021 12.4C95.7154 13.16 95.9221 14.06 95.9221 15.1C95.9221 16.14 95.7154 17.0467 95.3021 17.82C94.8888 18.58 94.3088 19.1667 93.5621 19.58C92.8154 19.9933 91.9354 20.2 90.9221 20.2ZM90.9221 18.3C91.6688 18.3 92.2688 18.0333 92.7221 17.5C93.1754 16.9533 93.4021 16.1533 93.4021 15.1C93.4021 14.0333 93.1754 13.24 92.7221 12.72C92.2688 12.1867 91.6688 11.92 90.9221 11.92C90.1754 11.92 89.5754 12.1867 89.1221 12.72C88.6688 13.24 88.4421 14.0333 88.4421 15.1C88.4421 16.1533 88.6688 16.9533 89.1221 17.5C89.5754 18.0333 90.1754 18.3 90.9221 18.3Z" fill="white"/>
<path d="M114 14.0435C116.735 14.0435 118.953 12.019 118.953 9.52174C118.953 7.02445 116.735 5 114 5C111.265 5 109.048 7.02445 109.048 9.52174C109.048 12.019 111.265 14.0435 114 14.0435Z" stroke="white" stroke-width="1.5" stroke-linecap="round" stroke-linejoin="round"/>
<path d="M106 21C106 17.5218 109.048 14.0435 114 14.0435C118.952 14.0435 122 17.5218 122 21" stroke="white" stroke-width="1.5" stroke-linecap="round" stroke-linejoin="round"/>
</svg>
