<svg width="319" height="67" viewBox="0 0 319 67" fill="none" xmlns="http://www.w3.org/2000/svg">
<rect width="319" height="67" rx="14" fill="#03266A"/>
<path d="M142.462 8H162.538C163.722 8 164.857 8.51625 165.693 9.43518C166.53 10.3541 167 11.6004 167 12.9V17.8H162.538V12.9H142.462V52.1H162.538V47.2H167V52.1C167 53.3996 166.53 54.6459 165.693 55.5648C164.857 56.4838 163.722 57 162.538 57H142.462C141.278 57 140.143 56.4838 139.307 55.5648C138.47 54.6459 138 53.3996 138 52.1V12.9C138 11.6004 138.47 10.3541 139.307 9.43518C140.143 8.51625 141.278 8 142.462 8Z" fill="white" fill-opacity="0.33"/>
<path d="M165.281 41.475L168.519 45L180 32.5L168.519 20L165.281 23.525L171.205 30H149V35H171.205L165.281 41.475Z" fill="white" fill-opacity="0.33"/>
<path d="M138.109 35.9231V37.8918H132.367V35.9231H138.109ZM133.234 26.5168V37.8918H130.688V26.5168H133.234ZM139.763 33.7512V33.5872C139.763 32.9674 139.851 32.3971 140.028 31.8762C140.206 31.3502 140.466 30.8944 140.81 30.509C141.153 30.1236 141.575 29.8241 142.075 29.6106C142.575 29.3918 143.148 29.2825 143.794 29.2825C144.45 29.2825 145.028 29.3918 145.528 29.6106C146.034 29.8241 146.458 30.1236 146.802 30.509C147.146 30.8944 147.406 31.3502 147.583 31.8762C147.76 32.3971 147.849 32.9674 147.849 33.5872V33.7512C147.849 34.3658 147.76 34.9361 147.583 35.4622C147.406 35.983 147.146 36.4387 146.802 36.8293C146.458 37.2148 146.036 37.5142 145.536 37.7278C145.036 37.9413 144.461 38.0481 143.81 38.0481C143.164 38.0481 142.588 37.9413 142.083 37.7278C141.578 37.5142 141.153 37.2148 140.81 36.8293C140.466 36.4387 140.206 35.983 140.028 35.4622C139.851 34.9361 139.763 34.3658 139.763 33.7512ZM142.208 33.5872V33.7512C142.208 34.0846 142.234 34.3971 142.286 34.6887C142.344 34.9804 142.435 35.2356 142.56 35.4543C142.685 35.6731 142.849 35.845 143.052 35.97C143.26 36.0898 143.513 36.1497 143.81 36.1497C144.107 36.1497 144.357 36.0898 144.56 35.97C144.763 35.845 144.927 35.6731 145.052 35.4543C145.177 35.2356 145.265 34.9804 145.318 34.6887C145.375 34.3971 145.403 34.0846 145.403 33.7512V33.5872C145.403 33.259 145.375 32.9517 145.318 32.6653C145.265 32.3736 145.177 32.1158 145.052 31.8918C144.927 31.6679 144.76 31.4934 144.552 31.3684C144.349 31.2434 144.096 31.1809 143.794 31.1809C143.502 31.1809 143.255 31.2434 143.052 31.3684C142.849 31.4934 142.685 31.6679 142.56 31.8918C142.435 32.1158 142.344 32.3736 142.286 32.6653C142.234 32.9517 142.208 33.259 142.208 33.5872ZM155.338 29.4387H157.557V37.5872C157.557 38.3632 157.38 39.0221 157.026 39.5637C156.677 40.1054 156.19 40.5168 155.565 40.7981C154.94 41.0793 154.208 41.22 153.369 41.22C153.005 41.22 152.625 41.1705 152.229 41.0715C151.833 40.9778 151.461 40.8346 151.112 40.6418C150.763 40.4543 150.471 40.2148 150.237 39.9231L151.276 38.4856C151.515 38.7564 151.802 38.9752 152.135 39.1418C152.468 39.3137 152.849 39.3997 153.276 39.3997C153.666 39.3997 153.997 39.3293 154.268 39.1887C154.539 39.0481 154.744 38.8424 154.885 38.5715C155.031 38.3007 155.104 37.9726 155.104 37.5872V31.4153L155.338 29.4387ZM149.69 33.7668V33.6028C149.69 32.9622 149.768 32.3788 149.924 31.8528C150.08 31.3215 150.307 30.8658 150.604 30.4856C150.906 30.1002 151.268 29.8033 151.69 29.595C152.117 29.3866 152.596 29.2825 153.127 29.2825C153.7 29.2825 154.174 29.3918 154.549 29.6106C154.924 29.8241 155.229 30.1262 155.463 30.5168C155.698 30.9023 155.882 31.358 156.018 31.884C156.153 32.4049 156.263 32.97 156.346 33.5793V33.8606C156.263 34.4439 156.143 34.9882 155.987 35.4934C155.83 35.9986 155.627 36.4439 155.377 36.8293C155.127 37.2096 154.815 37.509 154.44 37.7278C154.07 37.9413 153.627 38.0481 153.112 38.0481C152.586 38.0481 152.112 37.9413 151.69 37.7278C151.268 37.5142 150.906 37.2148 150.604 36.8293C150.307 36.4439 150.08 35.9908 149.924 35.47C149.768 34.9491 149.69 34.3814 149.69 33.7668ZM152.127 33.6028V33.7668C152.127 34.1002 152.158 34.4101 152.221 34.6965C152.289 34.983 152.388 35.2356 152.518 35.4543C152.653 35.6731 152.82 35.845 153.018 35.97C153.221 36.0898 153.458 36.1497 153.729 36.1497C154.125 36.1497 154.445 36.0663 154.69 35.8997C154.94 35.7278 155.122 35.4908 155.237 35.1887C155.356 34.8866 155.419 34.5351 155.424 34.134V33.3137C155.424 32.9804 155.39 32.6809 155.323 32.4153C155.255 32.1497 155.153 31.9257 155.018 31.7434C154.888 31.5611 154.716 31.4231 154.502 31.3293C154.294 31.2304 154.041 31.1809 153.744 31.1809C153.479 31.1809 153.244 31.2434 153.041 31.3684C152.838 31.4882 152.669 31.6575 152.533 31.8762C152.398 32.095 152.296 32.3528 152.229 32.6497C152.161 32.9413 152.127 33.259 152.127 33.6028ZM169.887 35.8528V29.4387H172.34V37.8918H170.043L169.887 35.8528ZM170.145 34.1262L170.817 34.1106C170.817 34.6783 170.749 35.2017 170.614 35.6809C170.484 36.1601 170.286 36.5767 170.02 36.9309C169.76 37.2851 169.434 37.5611 169.043 37.759C168.658 37.9517 168.208 38.0481 167.692 38.0481C167.275 38.0481 166.892 37.9908 166.543 37.8762C166.2 37.7564 165.903 37.5715 165.653 37.3215C165.403 37.0663 165.21 36.7408 165.075 36.345C164.939 35.9439 164.872 35.4648 164.872 34.9075V29.4387H167.309V34.9231C167.309 35.1418 167.335 35.3293 167.387 35.4856C167.444 35.6366 167.52 35.7616 167.614 35.8606C167.713 35.9596 167.833 36.0325 167.973 36.0793C168.119 36.1262 168.278 36.1497 168.45 36.1497C168.882 36.1497 169.221 36.0611 169.465 35.884C169.715 35.7017 169.89 35.4596 169.989 35.1575C170.093 34.8502 170.145 34.5064 170.145 34.1262ZM179.728 36.0012V25.8918H182.181V37.8918H179.978L179.728 36.0012ZM174.463 33.7668V33.6028C174.463 32.9622 174.533 32.3788 174.673 31.8528C174.819 31.3215 175.03 30.8658 175.306 30.4856C175.588 30.1002 175.934 29.8033 176.345 29.595C176.757 29.3866 177.228 29.2825 177.759 29.2825C178.249 29.2825 178.676 29.3918 179.041 29.6106C179.405 29.8241 179.715 30.1262 179.97 30.5168C180.231 30.9023 180.442 31.358 180.603 31.884C180.765 32.4049 180.887 32.97 180.97 33.5793V33.8606C180.892 34.4439 180.77 34.9882 180.603 35.4934C180.442 35.9986 180.231 36.4439 179.97 36.8293C179.715 37.2096 179.403 37.509 179.033 37.7278C178.668 37.9413 178.239 38.0481 177.744 38.0481C177.213 38.0481 176.741 37.9413 176.33 37.7278C175.923 37.5142 175.582 37.2148 175.306 36.8293C175.03 36.4439 174.819 35.9908 174.673 35.47C174.533 34.9491 174.463 34.3814 174.463 33.7668ZM176.9 33.6028V33.7668C176.9 34.1002 176.923 34.4101 176.97 34.6965C177.022 34.983 177.106 35.2356 177.22 35.4543C177.335 35.6731 177.486 35.845 177.673 35.97C177.861 36.0898 178.09 36.1497 178.361 36.1497C178.726 36.1497 179.025 36.0663 179.259 35.8997C179.494 35.7278 179.671 35.4908 179.791 35.1887C179.91 34.8866 179.973 34.5351 179.978 34.134V33.3137C179.978 32.9804 179.944 32.6809 179.877 32.4153C179.809 32.1497 179.707 31.9257 179.572 31.7434C179.442 31.5611 179.278 31.4231 179.08 31.3293C178.882 31.2304 178.647 31.1809 178.377 31.1809C178.111 31.1809 177.884 31.2434 177.697 31.3684C177.509 31.4882 177.356 31.6575 177.236 31.8762C177.121 32.095 177.035 32.3528 176.978 32.6497C176.926 32.9413 176.9 33.259 176.9 33.6028Z" fill="white"/>
</svg>
