<svg width="144" height="134" viewBox="0 0 144 134" fill="none" xmlns="http://www.w3.org/2000/svg">
<rect width="144" height="134" rx="14" fill="#03266A"/>
<path d="M48.3203 60.625V72H45.7812L41.4844 64.6484V72H38.9375V60.625H41.4844L45.7891 67.9766V60.625H48.3203ZM53.505 71.0234L55.7159 63.5469H58.3409L54.9425 73.2656C54.8696 73.4792 54.7706 73.7083 54.6456 73.9531C54.5258 74.1979 54.3618 74.4323 54.1534 74.6562C53.9503 74.8802 53.6899 75.0625 53.3722 75.2031C53.0545 75.3438 52.6639 75.4141 52.2003 75.4141C51.9659 75.4141 51.7836 75.401 51.6534 75.375C51.5284 75.3542 51.3618 75.3177 51.1534 75.2656L51.1456 73.4922C51.2133 73.4922 51.2732 73.4922 51.3253 73.4922C51.3826 73.4974 51.4399 73.5 51.4972 73.5C51.7889 73.5 52.0232 73.4688 52.2003 73.4062C52.3826 73.3438 52.5232 73.25 52.6222 73.125C52.7264 73.0052 52.8097 72.8516 52.8722 72.6641L53.505 71.0234ZM52.7628 63.5469L54.5128 69.5625L54.8097 72.1484L53.1613 72.2344L50.1378 63.5469H52.7628ZM62.3928 60V72H59.9553V60H62.3928ZM62.0725 67.4766L61.4631 67.4922C61.4631 66.8984 61.536 66.3542 61.6819 65.8594C61.8329 65.3594 62.0465 64.9245 62.3225 64.5547C62.5985 64.1849 62.9293 63.8984 63.3147 63.6953C63.7053 63.4922 64.135 63.3906 64.6038 63.3906C65.0204 63.3906 65.4006 63.4505 65.7444 63.5703C66.0881 63.6901 66.385 63.8802 66.635 64.1406C66.885 64.401 67.0777 64.7422 67.2131 65.1641C67.3485 65.5859 67.4163 66.099 67.4163 66.7031V72H64.9631V66.6875C64.9631 66.3281 64.911 66.0469 64.8069 65.8438C64.7079 65.6406 64.5621 65.4974 64.3694 65.4141C64.1819 65.3307 63.9527 65.2891 63.6819 65.2891C63.3642 65.2891 63.1011 65.3464 62.8928 65.4609C62.6845 65.5703 62.5204 65.724 62.4006 65.9219C62.2808 66.1198 62.1949 66.3516 62.1428 66.6172C62.0959 66.8828 62.0725 67.1693 62.0725 67.4766ZM73.8744 72.1562C73.2025 72.1562 72.6009 72.0495 72.0697 71.8359C71.5384 71.6224 71.0879 71.3281 70.7181 70.9531C70.3535 70.5729 70.0749 70.1354 69.8822 69.6406C69.6895 69.1458 69.5931 68.6172 69.5931 68.0547V67.7578C69.5931 67.1276 69.6817 66.5469 69.8587 66.0156C70.0358 65.4844 70.2936 65.0234 70.6322 64.6328C70.9759 64.237 71.3978 63.9323 71.8978 63.7188C72.3978 63.5 72.9681 63.3906 73.6087 63.3906C74.2077 63.3906 74.7416 63.4896 75.2103 63.6875C75.6791 63.8802 76.0749 64.1589 76.3978 64.5234C76.7207 64.8828 76.9655 65.3177 77.1322 65.8281C77.3041 66.3333 77.39 66.901 77.39 67.5312V68.5312H70.5775V66.9609H74.9994V66.7734C74.9994 66.4766 74.9447 66.2161 74.8353 65.9922C74.7311 65.7682 74.5749 65.5964 74.3666 65.4766C74.1634 65.3516 73.9056 65.2891 73.5931 65.2891C73.2962 65.2891 73.0489 65.3516 72.8509 65.4766C72.653 65.6016 72.4942 65.7786 72.3744 66.0078C72.2598 66.2318 72.1765 66.4948 72.1244 66.7969C72.0723 67.0938 72.0462 67.4141 72.0462 67.7578V68.0547C72.0462 68.3828 72.0905 68.6823 72.1791 68.9531C72.2676 69.224 72.3978 69.4557 72.5697 69.6484C72.7416 69.8411 72.9499 69.9922 73.1947 70.1016C73.4395 70.2109 73.7181 70.2656 74.0306 70.2656C74.416 70.2656 74.7832 70.1927 75.1322 70.0469C75.4811 69.8958 75.7832 69.6615 76.0384 69.3438L77.1791 70.6484C77.0072 70.8984 76.765 71.1406 76.4525 71.375C76.1452 71.6042 75.7754 71.7917 75.3431 71.9375C74.9108 72.0833 74.4212 72.1562 73.8744 72.1562ZM84.3794 70.1094V60H86.8325V72H84.6294L84.3794 70.1094ZM79.1138 67.875V67.7109C79.1138 67.0703 79.1841 66.487 79.3247 65.9609C79.4705 65.4297 79.6815 64.974 79.9575 64.5938C80.2388 64.2083 80.5851 63.9115 80.9966 63.7031C81.408 63.4948 81.8794 63.3906 82.4106 63.3906C82.9002 63.3906 83.3273 63.5 83.6919 63.7188C84.0565 63.9323 84.3664 64.2344 84.6216 64.625C84.882 65.0104 85.0929 65.4661 85.2544 65.9922C85.4158 66.513 85.5382 67.0781 85.6216 67.6875V67.9688C85.5434 68.5521 85.421 69.0964 85.2544 69.6016C85.0929 70.1068 84.882 70.5521 84.6216 70.9375C84.3664 71.3177 84.0539 71.6172 83.6841 71.8359C83.3195 72.0495 82.8898 72.1562 82.395 72.1562C81.8638 72.1562 81.3924 72.0495 80.9809 71.8359C80.5747 71.6224 80.2335 71.3229 79.9575 70.9375C79.6815 70.5521 79.4705 70.099 79.3247 69.5781C79.1841 69.0573 79.1138 68.4896 79.1138 67.875ZM81.5513 67.7109V67.875C81.5513 68.2083 81.5747 68.5182 81.6216 68.8047C81.6736 69.0911 81.757 69.3438 81.8716 69.5625C81.9861 69.7812 82.1372 69.9531 82.3247 70.0781C82.5122 70.1979 82.7414 70.2578 83.0122 70.2578C83.3768 70.2578 83.6763 70.1745 83.9106 70.0078C84.145 69.8359 84.3221 69.599 84.4419 69.2969C84.5617 68.9948 84.6242 68.6432 84.6294 68.2422V67.4219C84.6294 67.0885 84.5955 66.7891 84.5278 66.5234C84.4601 66.2578 84.3585 66.0339 84.2231 65.8516C84.0929 65.6693 83.9289 65.5312 83.7309 65.4375C83.533 65.3385 83.2986 65.2891 83.0278 65.2891C82.7622 65.2891 82.5356 65.3516 82.3481 65.4766C82.1606 65.5964 82.007 65.7656 81.8872 65.9844C81.7726 66.2031 81.6867 66.4609 81.6294 66.7578C81.5773 67.0495 81.5513 67.3672 81.5513 67.7109ZM93.3219 72.1562C92.65 72.1562 92.0484 72.0495 91.5172 71.8359C90.9859 71.6224 90.5354 71.3281 90.1656 70.9531C89.801 70.5729 89.5224 70.1354 89.3297 69.6406C89.137 69.1458 89.0406 68.6172 89.0406 68.0547V67.7578C89.0406 67.1276 89.1292 66.5469 89.3063 66.0156C89.4833 65.4844 89.7411 65.0234 90.0797 64.6328C90.4234 64.237 90.8453 63.9323 91.3453 63.7188C91.8453 63.5 92.4156 63.3906 93.0563 63.3906C93.6552 63.3906 94.1891 63.4896 94.6578 63.6875C95.1266 63.8802 95.5224 64.1589 95.8453 64.5234C96.1682 64.8828 96.413 65.3177 96.5797 65.8281C96.7516 66.3333 96.8375 66.901 96.8375 67.5312V68.5312H90.025V66.9609H94.4469V66.7734C94.4469 66.4766 94.3922 66.2161 94.2828 65.9922C94.1786 65.7682 94.0224 65.5964 93.8141 65.4766C93.6109 65.3516 93.3531 65.2891 93.0406 65.2891C92.7438 65.2891 92.4964 65.3516 92.2984 65.4766C92.1005 65.6016 91.9417 65.7786 91.8219 66.0078C91.7073 66.2318 91.624 66.4948 91.5719 66.7969C91.5198 67.0938 91.4938 67.4141 91.4938 67.7578V68.0547C91.4938 68.3828 91.538 68.6823 91.6266 68.9531C91.7151 69.224 91.8453 69.4557 92.0172 69.6484C92.1891 69.8411 92.3974 69.9922 92.6422 70.1016C92.887 70.2109 93.1656 70.2656 93.4781 70.2656C93.8635 70.2656 94.2307 70.1927 94.5797 70.0469C94.9286 69.8958 95.2307 69.6615 95.4859 69.3438L96.6266 70.6484C96.4547 70.8984 96.2125 71.1406 95.9 71.375C95.5927 71.6042 95.2229 71.7917 94.7906 71.9375C94.3583 72.0833 93.8688 72.1562 93.3219 72.1562ZM101.35 65.5156V72H98.9128V63.5469H101.202L101.35 65.5156ZM103.874 63.4844L103.835 65.7578C103.731 65.7422 103.595 65.7292 103.428 65.7188C103.262 65.7031 103.119 65.6953 102.999 65.6953C102.686 65.6953 102.415 65.7344 102.186 65.8125C101.962 65.8854 101.775 65.9948 101.624 66.1406C101.478 66.2865 101.369 66.4688 101.296 66.6875C101.223 66.901 101.186 67.1484 101.186 67.4297L100.725 67.2031C100.725 66.6458 100.78 66.1354 100.889 65.6719C100.999 65.2083 101.158 64.8073 101.366 64.4688C101.574 64.125 101.829 63.8594 102.132 63.6719C102.434 63.4844 102.777 63.3906 103.163 63.3906C103.288 63.3906 103.415 63.3984 103.546 63.4141C103.676 63.4297 103.785 63.4531 103.874 63.4844Z" fill="white"/>
<path d="M102.75 35H40.75C36.4488 35 33 38.1892 33 42.1667V92.3333C33 96.3108 36.4488 99.5 40.75 99.5H102.75C107.051 99.5 110.5 96.3108 110.5 92.3333V42.1667C110.5 38.1892 107.051 35 102.75 35ZM44.625 49.3333H64V70.8333H44.625V49.3333ZM98.875 85.1667H44.625V78H98.875V85.1667ZM98.875 70.8333H71.75V63.6667H98.875V70.8333ZM98.875 56.5H71.75V49.3333H98.875V56.5Z" fill="white" fill-opacity="0.33"/>
</svg>
