<svg width="148" height="132" viewBox="0 0 148 132" fill="none" xmlns="http://www.w3.org/2000/svg">
<rect width="148" height="132" rx="14" fill="#03266A"/>
<path d="M23.8359 68C23.8359 67.8073 23.8073 67.6354 23.75 67.4844C23.6927 67.3281 23.5885 67.1849 23.4375 67.0547C23.2865 66.9245 23.0729 66.7943 22.7969 66.6641C22.5208 66.5286 22.1589 66.3906 21.7109 66.25C21.2005 66.0833 20.7135 65.8958 20.25 65.6875C19.7917 65.474 19.3828 65.2266 19.0234 64.9453C18.6641 64.6641 18.3802 64.3359 18.1719 63.9609C17.9688 63.5859 17.8672 63.1484 17.8672 62.6484C17.8672 62.1641 17.974 61.7266 18.1875 61.3359C18.401 60.9453 18.7005 60.612 19.0859 60.3359C19.4714 60.0547 19.9245 59.8411 20.4453 59.6953C20.9661 59.5443 21.5391 59.4688 22.1641 59.4688C22.9974 59.4688 23.7292 59.6172 24.3594 59.9141C24.9948 60.2057 25.4896 60.6172 25.8438 61.1484C26.1979 61.6745 26.375 62.2865 26.375 62.9844H23.8438C23.8438 62.6771 23.7786 62.4062 23.6484 62.1719C23.5234 61.9323 23.3307 61.7448 23.0703 61.6094C22.8151 61.474 22.4948 61.4062 22.1094 61.4062C21.7344 61.4062 21.4193 61.4635 21.1641 61.5781C20.9141 61.6875 20.724 61.8385 20.5938 62.0312C20.4688 62.224 20.4062 62.4349 20.4062 62.6641C20.4062 62.8464 20.4531 63.013 20.5469 63.1641C20.6458 63.3099 20.7865 63.4479 20.9688 63.5781C21.1562 63.7031 21.3854 63.8229 21.6562 63.9375C21.9271 64.0521 22.237 64.1615 22.5859 64.2656C23.1953 64.4583 23.7344 64.6719 24.2031 64.9062C24.6771 65.1406 25.0755 65.4062 25.3984 65.7031C25.7214 66 25.9635 66.3359 26.125 66.7109C26.2917 67.0859 26.375 67.5104 26.375 67.9844C26.375 68.4896 26.276 68.9375 26.0781 69.3281C25.8854 69.7188 25.6042 70.0521 25.2344 70.3281C24.8698 70.599 24.4323 70.8047 23.9219 70.9453C23.4115 71.0859 22.8411 71.1562 22.2109 71.1562C21.638 71.1562 21.0729 71.0833 20.5156 70.9375C19.9583 70.7865 19.4531 70.5573 19 70.25C18.5521 69.9427 18.1927 69.5521 17.9219 69.0781C17.6562 68.599 17.5234 68.0312 17.5234 67.375H20.0703C20.0703 67.7188 20.1198 68.0104 20.2188 68.25C20.3177 68.4844 20.4583 68.6745 20.6406 68.8203C20.8281 68.9661 21.0547 69.0703 21.3203 69.1328C21.5859 69.1953 21.8828 69.2266 22.2109 69.2266C22.5911 69.2266 22.8984 69.1745 23.1328 69.0703C23.3724 68.9609 23.5495 68.8125 23.6641 68.625C23.7786 68.4375 23.8359 68.2292 23.8359 68ZM32.9269 62.5469V64.2578H27.9113V62.5469H32.9269ZM29.0597 60.4531H31.505V68.3516C31.505 68.5859 31.5336 68.7656 31.5909 68.8906C31.6482 69.0156 31.742 69.1042 31.8722 69.1562C32.0024 69.2031 32.1691 69.2266 32.3722 69.2266C32.518 69.2266 32.643 69.2214 32.7472 69.2109C32.8514 69.2005 32.9477 69.1875 33.0363 69.1719V70.9375C32.8279 71.0052 32.6066 71.0573 32.3722 71.0938C32.1378 71.1354 31.8826 71.1562 31.6066 71.1562C31.0805 71.1562 30.6248 71.0703 30.2394 70.8984C29.8592 70.7266 29.5675 70.4557 29.3644 70.0859C29.1613 69.7109 29.0597 69.224 29.0597 68.625V60.4531ZM39.9397 68.9609V62.5469H42.3928V71H40.0959L39.9397 68.9609ZM40.1975 67.2344L40.8694 67.2188C40.8694 67.7865 40.8017 68.3099 40.6663 68.7891C40.536 69.2682 40.3381 69.6849 40.0725 70.0391C39.8121 70.3932 39.4866 70.6693 39.0959 70.8672C38.7105 71.0599 38.26 71.1562 37.7444 71.1562C37.3277 71.1562 36.9449 71.099 36.5959 70.9844C36.2522 70.8646 35.9553 70.6797 35.7053 70.4297C35.4553 70.1745 35.2626 69.849 35.1272 69.4531C34.9918 69.0521 34.9241 68.5729 34.9241 68.0156V62.5469H37.3616V68.0312C37.3616 68.25 37.3876 68.4375 37.4397 68.5938C37.497 68.7448 37.5725 68.8698 37.6663 68.9688C37.7652 69.0677 37.885 69.1406 38.0256 69.1875C38.1715 69.2344 38.3303 69.2578 38.5022 69.2578C38.9345 69.2578 39.273 69.1693 39.5178 68.9922C39.7678 68.8099 39.9423 68.5677 40.0413 68.2656C40.1454 67.9583 40.1975 67.6146 40.1975 67.2344ZM49.7806 69.1094V59H52.2337V71H50.0306L49.7806 69.1094ZM44.515 66.875V66.7109C44.515 66.0703 44.5853 65.487 44.7259 64.9609C44.8718 64.4297 45.0827 63.974 45.3587 63.5938C45.64 63.2083 45.9864 62.9115 46.3978 62.7031C46.8093 62.4948 47.2806 62.3906 47.8119 62.3906C48.3015 62.3906 48.7285 62.5 49.0931 62.7188C49.4577 62.9323 49.7676 63.2344 50.0228 63.625C50.2832 64.0104 50.4942 64.4661 50.6556 64.9922C50.8171 65.513 50.9395 66.0781 51.0228 66.6875V66.9688C50.9447 67.5521 50.8223 68.0964 50.6556 68.6016C50.4942 69.1068 50.2832 69.5521 50.0228 69.9375C49.7676 70.3177 49.4551 70.6172 49.0853 70.8359C48.7207 71.0495 48.291 71.1562 47.7962 71.1562C47.265 71.1562 46.7936 71.0495 46.3822 70.8359C45.9759 70.6224 45.6348 70.3229 45.3587 69.9375C45.0827 69.5521 44.8718 69.099 44.7259 68.5781C44.5853 68.0573 44.515 67.4896 44.515 66.875ZM46.9525 66.7109V66.875C46.9525 67.2083 46.9759 67.5182 47.0228 67.8047C47.0749 68.0911 47.1582 68.3438 47.2728 68.5625C47.3874 68.7812 47.5384 68.9531 47.7259 69.0781C47.9134 69.1979 48.1426 69.2578 48.4134 69.2578C48.778 69.2578 49.0775 69.1745 49.3119 69.0078C49.5462 68.8359 49.7233 68.599 49.8431 68.2969C49.9629 67.9948 50.0254 67.6432 50.0306 67.2422V66.4219C50.0306 66.0885 49.9968 65.7891 49.9291 65.5234C49.8614 65.2578 49.7598 65.0339 49.6244 64.8516C49.4942 64.6693 49.3301 64.5312 49.1322 64.4375C48.9343 64.3385 48.6999 64.2891 48.4291 64.2891C48.1634 64.2891 47.9369 64.3516 47.7494 64.4766C47.5619 64.5964 47.4082 64.7656 47.2884 64.9844C47.1739 65.2031 47.0879 65.4609 47.0306 65.7578C46.9785 66.0495 46.9525 66.3672 46.9525 66.7109ZM57.3091 62.5469V71H54.8638V62.5469H57.3091ZM54.7153 60.3594C54.7153 60.0052 54.8403 59.7161 55.0903 59.4922C55.3403 59.263 55.6684 59.1484 56.0747 59.1484C56.4809 59.1484 56.8091 59.263 57.0591 59.4922C57.3143 59.7161 57.4419 60.0052 57.4419 60.3594C57.4419 60.7083 57.3143 60.9974 57.0591 61.2266C56.8091 61.4505 56.4809 61.5625 56.0747 61.5625C55.6684 61.5625 55.3403 61.4505 55.0903 61.2266C54.8403 60.9974 54.7153 60.7083 54.7153 60.3594ZM63.9313 71.1562C63.2594 71.1562 62.6578 71.0495 62.1266 70.8359C61.5953 70.6224 61.1448 70.3281 60.775 69.9531C60.4104 69.5729 60.1318 69.1354 59.9391 68.6406C59.7464 68.1458 59.65 67.6172 59.65 67.0547V66.7578C59.65 66.1276 59.7385 65.5469 59.9156 65.0156C60.0927 64.4844 60.3505 64.0234 60.6891 63.6328C61.0328 63.237 61.4547 62.9323 61.9547 62.7188C62.4547 62.5 63.025 62.3906 63.6656 62.3906C64.2646 62.3906 64.7984 62.4896 65.2672 62.6875C65.7359 62.8802 66.1318 63.1589 66.4547 63.5234C66.7776 63.8828 67.0224 64.3177 67.1891 64.8281C67.3609 65.3333 67.4469 65.901 67.4469 66.5312V67.5312H60.6344V65.9609H65.0563V65.7734C65.0563 65.4766 65.0016 65.2161 64.8922 64.9922C64.788 64.7682 64.6318 64.5964 64.4234 64.4766C64.2203 64.3516 63.9625 64.2891 63.65 64.2891C63.3531 64.2891 63.1057 64.3516 62.9078 64.4766C62.7099 64.6016 62.551 64.7786 62.4313 65.0078C62.3167 65.2318 62.2333 65.4948 62.1813 65.7969C62.1292 66.0938 62.1031 66.4141 62.1031 66.7578V67.0547C62.1031 67.3828 62.1474 67.6823 62.2359 67.9531C62.3245 68.224 62.4547 68.4557 62.6266 68.6484C62.7984 68.8411 63.0068 68.9922 63.2516 69.1016C63.4964 69.2109 63.775 69.2656 64.0875 69.2656C64.4729 69.2656 64.8401 69.1927 65.1891 69.0469C65.538 68.8958 65.8401 68.6615 66.0953 68.3438L67.2359 69.6484C67.0641 69.8984 66.8219 70.1406 66.5094 70.375C66.2021 70.6042 65.8323 70.7917 65.4 70.9375C64.9677 71.0833 64.4781 71.1562 63.9313 71.1562ZM76.8241 64.5156V71H74.3866V62.5469H76.6756L76.8241 64.5156ZM79.3475 62.4844L79.3084 64.7578C79.2043 64.7422 79.0689 64.7292 78.9022 64.7188C78.7355 64.7031 78.5923 64.6953 78.4725 64.6953C78.16 64.6953 77.8892 64.7344 77.66 64.8125C77.436 64.8854 77.2485 64.9948 77.0975 65.1406C76.9517 65.2865 76.8423 65.4688 76.7694 65.6875C76.6965 65.901 76.66 66.1484 76.66 66.4297L76.1991 66.2031C76.1991 65.6458 76.2537 65.1354 76.3631 64.6719C76.4725 64.2083 76.6314 63.8073 76.8397 63.4688C77.048 63.125 77.3032 62.8594 77.6053 62.6719C77.9074 62.4844 78.2511 62.3906 78.6366 62.3906C78.7616 62.3906 78.8892 62.3984 79.0194 62.4141C79.1496 62.4297 79.259 62.4531 79.3475 62.4844ZM85.4541 68.9844V65.3594C85.4541 65.1042 85.415 64.8854 85.3369 64.7031C85.2588 64.5208 85.1364 64.3776 84.9697 64.2734C84.803 64.1693 84.5869 64.1172 84.3213 64.1172C84.0973 64.1172 83.902 64.1562 83.7353 64.2344C83.5739 64.3125 83.4489 64.4245 83.3603 64.5703C83.277 64.7161 83.2353 64.8958 83.2353 65.1094H80.7978C80.7978 64.7292 80.8838 64.375 81.0556 64.0469C81.2275 63.7188 81.4723 63.4297 81.79 63.1797C82.1129 62.9297 82.4983 62.737 82.9463 62.6016C83.3942 62.4609 83.8968 62.3906 84.4541 62.3906C85.1155 62.3906 85.7041 62.5026 86.2197 62.7266C86.7405 62.9453 87.152 63.276 87.4541 63.7188C87.7561 64.1562 87.9072 64.7083 87.9072 65.375V68.9141C87.9072 69.4245 87.9358 69.8255 87.9931 70.1172C88.0556 70.4036 88.1442 70.6536 88.2588 70.8672V71H85.7978C85.6832 70.7552 85.5973 70.4531 85.54 70.0938C85.4827 69.7292 85.4541 69.3594 85.4541 68.9844ZM85.7588 65.8438L85.7744 67.1875H84.5634C84.2926 67.1875 84.0582 67.2214 83.8603 67.2891C83.6676 67.3568 83.5114 67.4505 83.3916 67.5703C83.2718 67.6849 83.1832 67.8203 83.1259 67.9766C83.0739 68.1276 83.0478 68.2943 83.0478 68.4766C83.0478 68.6484 83.0895 68.8047 83.1728 68.9453C83.2561 69.0807 83.3707 69.1875 83.5166 69.2656C83.6624 69.3438 83.8317 69.3828 84.0244 69.3828C84.3421 69.3828 84.6129 69.3203 84.8369 69.1953C85.066 69.0703 85.2431 68.9193 85.3681 68.7422C85.4931 68.5599 85.5556 68.3906 85.5556 68.2344L86.1416 69.25C86.0478 69.4583 85.9332 69.6745 85.7978 69.8984C85.6624 70.1172 85.4905 70.3229 85.2822 70.5156C85.0739 70.7031 84.8213 70.8568 84.5244 70.9766C84.2327 71.0964 83.8811 71.1562 83.4697 71.1562C82.9384 71.1562 82.4567 71.0495 82.0244 70.8359C81.5921 70.6172 81.2457 70.3177 80.9853 69.9375C80.7301 69.5573 80.6025 69.1198 80.6025 68.625C80.6025 68.1823 80.6832 67.7891 80.8447 67.4453C81.0061 67.1016 81.2483 66.8099 81.5713 66.5703C81.8994 66.3307 82.3108 66.151 82.8056 66.0312C83.3004 65.9062 83.8785 65.8438 84.54 65.8438H85.7588ZM90.3966 59H92.8341V68.9922L92.5841 71H90.3966V59ZM98.1075 66.6797V66.8438C98.1075 67.4844 98.0398 68.0677 97.9044 68.5938C97.7742 69.1198 97.5736 69.5755 97.3028 69.9609C97.032 70.3411 96.6908 70.6354 96.2794 70.8438C95.8679 71.0521 95.3835 71.1562 94.8262 71.1562C94.3106 71.1562 93.8679 71.0495 93.4981 70.8359C93.1283 70.6172 92.8184 70.3151 92.5684 69.9297C92.3184 69.5443 92.1153 69.0938 91.9591 68.5781C91.808 68.0625 91.6908 67.5078 91.6075 66.9141V66.6328C91.6908 66.0391 91.808 65.4844 91.9591 64.9688C92.1153 64.4531 92.3184 64.0026 92.5684 63.6172C92.8184 63.2318 93.1257 62.9323 93.4903 62.7188C93.8601 62.5 94.3002 62.3906 94.8106 62.3906C95.3731 62.3906 95.8601 62.4974 96.2716 62.7109C96.6882 62.9245 97.032 63.224 97.3028 63.6094C97.5736 63.9896 97.7742 64.4427 97.9044 64.9688C98.0398 65.4896 98.1075 66.0599 98.1075 66.6797ZM95.67 66.8438V66.6797C95.67 66.3568 95.6466 66.0521 95.5997 65.7656C95.558 65.4792 95.4825 65.2266 95.3731 65.0078C95.269 64.7839 95.1205 64.6094 94.9278 64.4844C94.7403 64.3542 94.4981 64.2891 94.2012 64.2891C93.9096 64.2891 93.6622 64.3385 93.4591 64.4375C93.2559 64.5365 93.0919 64.6771 92.9669 64.8594C92.8419 65.0365 92.7507 65.2526 92.6934 65.5078C92.6361 65.763 92.6049 66.0469 92.5997 66.3594V67.1875C92.6049 67.6042 92.6596 67.9688 92.7637 68.2812C92.8679 68.5938 93.0372 68.8359 93.2716 69.0078C93.5059 69.1745 93.821 69.2578 94.2169 69.2578C94.519 69.2578 94.7637 69.2005 94.9512 69.0859C95.144 68.9661 95.2898 68.7995 95.3887 68.5859C95.4929 68.3724 95.5658 68.1172 95.6075 67.8203C95.6492 67.5234 95.67 67.1979 95.67 66.8438ZM104.761 68.9844V65.3594C104.761 65.1042 104.722 64.8854 104.644 64.7031C104.566 64.5208 104.443 64.3776 104.277 64.2734C104.11 64.1693 103.894 64.1172 103.628 64.1172C103.404 64.1172 103.209 64.1562 103.042 64.2344C102.881 64.3125 102.756 64.4245 102.667 64.5703C102.584 64.7161 102.542 64.8958 102.542 65.1094H100.105C100.105 64.7292 100.191 64.375 100.363 64.0469C100.534 63.7188 100.779 63.4297 101.097 63.1797C101.42 62.9297 101.805 62.737 102.253 62.6016C102.701 62.4609 103.204 62.3906 103.761 62.3906C104.422 62.3906 105.011 62.5026 105.527 62.7266C106.047 62.9453 106.459 63.276 106.761 63.7188C107.063 64.1562 107.214 64.7083 107.214 65.375V68.9141C107.214 69.4245 107.243 69.8255 107.3 70.1172C107.363 70.4036 107.451 70.6536 107.566 70.8672V71H105.105C104.99 70.7552 104.904 70.4531 104.847 70.0938C104.79 69.7292 104.761 69.3594 104.761 68.9844ZM105.066 65.8438L105.081 67.1875H103.87C103.599 67.1875 103.365 67.2214 103.167 67.2891C102.974 67.3568 102.818 67.4505 102.698 67.5703C102.579 67.6849 102.49 67.8203 102.433 67.9766C102.381 68.1276 102.355 68.2943 102.355 68.4766C102.355 68.6484 102.396 68.8047 102.48 68.9453C102.563 69.0807 102.678 69.1875 102.823 69.2656C102.969 69.3438 103.139 69.3828 103.331 69.3828C103.649 69.3828 103.92 69.3203 104.144 69.1953C104.373 69.0703 104.55 68.9193 104.675 68.7422C104.8 68.5599 104.863 68.3906 104.863 68.2344L105.448 69.25C105.355 69.4583 105.24 69.6745 105.105 69.8984C104.969 70.1172 104.797 70.3229 104.589 70.5156C104.381 70.7031 104.128 70.8568 103.831 70.9766C103.54 71.0964 103.188 71.1562 102.777 71.1562C102.245 71.1562 101.764 71.0495 101.331 70.8359C100.899 70.6172 100.553 70.3177 100.292 69.9375C100.037 69.5573 99.9094 69.1198 99.9094 68.625C99.9094 68.1823 99.9901 67.7891 100.152 67.4453C100.313 67.1016 100.555 66.8099 100.878 66.5703C101.206 66.3307 101.618 66.151 102.113 66.0312C102.607 65.9062 103.185 65.8438 103.847 65.8438H105.066ZM113.993 62.5469V64.2578H108.977V62.5469H113.993ZM110.125 60.4531H112.571V68.3516C112.571 68.5859 112.599 68.7656 112.657 68.8906C112.714 69.0156 112.808 69.1042 112.938 69.1562C113.068 69.2031 113.235 69.2266 113.438 69.2266C113.584 69.2266 113.709 69.2214 113.813 69.2109C113.917 69.2005 114.013 69.1875 114.102 69.1719V70.9375C113.894 71.0052 113.672 71.0573 113.438 71.0938C113.203 71.1354 112.948 71.1562 112.672 71.1562C112.146 71.1562 111.69 71.0703 111.305 70.8984C110.925 70.7266 110.633 70.4557 110.43 70.0859C110.227 69.7109 110.125 69.224 110.125 68.625V60.4531ZM120.341 62.5469V64.2578H115.326V62.5469H120.341ZM116.474 60.4531H118.919V68.3516C118.919 68.5859 118.948 68.7656 119.005 68.8906C119.063 69.0156 119.156 69.1042 119.287 69.1562C119.417 69.2031 119.583 69.2266 119.787 69.2266C119.932 69.2266 120.057 69.2214 120.162 69.2109C120.266 69.2005 120.362 69.1875 120.451 69.1719V70.9375C120.242 71.0052 120.021 71.0573 119.787 71.0938C119.552 71.1354 119.297 71.1562 119.021 71.1562C118.495 71.1562 118.039 71.0703 117.654 70.8984C117.274 70.7266 116.982 70.4557 116.779 70.0859C116.576 69.7109 116.474 69.224 116.474 68.625V60.4531ZM126.378 71.1562C125.706 71.1562 125.104 71.0495 124.573 70.8359C124.042 70.6224 123.591 70.3281 123.221 69.9531C122.857 69.5729 122.578 69.1354 122.385 68.6406C122.193 68.1458 122.096 67.6172 122.096 67.0547V66.7578C122.096 66.1276 122.185 65.5469 122.362 65.0156C122.539 64.4844 122.797 64.0234 123.135 63.6328C123.479 63.237 123.901 62.9323 124.401 62.7188C124.901 62.5 125.471 62.3906 126.112 62.3906C126.711 62.3906 127.245 62.4896 127.713 62.6875C128.182 62.8802 128.578 63.1589 128.901 63.5234C129.224 63.8828 129.469 64.3177 129.635 64.8281C129.807 65.3333 129.893 65.901 129.893 66.5312V67.5312H123.081V65.9609H127.503V65.7734C127.503 65.4766 127.448 65.2161 127.338 64.9922C127.234 64.7682 127.078 64.5964 126.87 64.4766C126.667 64.3516 126.409 64.2891 126.096 64.2891C125.799 64.2891 125.552 64.3516 125.354 64.4766C125.156 64.6016 124.997 64.7786 124.878 65.0078C124.763 65.2318 124.68 65.4948 124.628 65.7969C124.575 66.0938 124.549 66.4141 124.549 66.7578V67.0547C124.549 67.3828 124.594 67.6823 124.682 67.9531C124.771 68.224 124.901 68.4557 125.073 68.6484C125.245 68.8411 125.453 68.9922 125.698 69.1016C125.943 69.2109 126.221 69.2656 126.534 69.2656C126.919 69.2656 127.286 69.1927 127.635 69.0469C127.984 68.8958 128.286 68.6615 128.542 68.3438L129.682 69.6484C129.51 69.8984 129.268 70.1406 128.956 70.375C128.648 70.6042 128.279 70.7917 127.846 70.9375C127.414 71.0833 126.924 71.1562 126.378 71.1562ZM134.406 64.5156V71H131.968V62.5469H134.257L134.406 64.5156ZM136.929 62.4844L136.89 64.7578C136.786 64.7422 136.651 64.7292 136.484 64.7188C136.317 64.7031 136.174 64.6953 136.054 64.6953C135.742 64.6953 135.471 64.7344 135.242 64.8125C135.018 64.8854 134.83 64.9948 134.679 65.1406C134.534 65.2865 134.424 65.4688 134.351 65.6875C134.278 65.901 134.242 66.1484 134.242 66.4297L133.781 66.2031C133.781 65.6458 133.836 65.1354 133.945 64.6719C134.054 64.2083 134.213 63.8073 134.422 63.4688C134.63 63.125 134.885 62.8594 135.187 62.6719C135.489 62.4844 135.833 62.3906 136.218 62.3906C136.343 62.3906 136.471 62.3984 136.601 62.4141C136.731 62.4297 136.841 62.4531 136.929 62.4844Z" fill="white"/>
<path d="M79.8371 95.125L50.875 66.1629V72.0796C50.875 73.6475 51.4962 75.1562 52.6204 76.2508L75.6658 99.2962C77.9733 101.604 81.7304 101.604 84.0379 99.2962L102.409 80.925C104.717 78.6175 104.717 74.8604 102.409 72.5529L79.8371 95.125Z" fill="white" fill-opacity="0.33"/>
<path d="M75.6658 84.5046C76.8196 85.6583 78.3283 86.25 79.8371 86.25C81.3458 86.25 82.8546 85.6583 84.0083 84.5046L102.38 66.1333C104.687 63.8258 104.687 60.0687 102.38 57.7612L79.3342 34.7158C78.2396 33.6212 76.7308 33 75.1629 33H56.7917C53.5375 33 50.875 35.6625 50.875 38.9167V57.2879C50.875 58.8558 51.4962 60.3646 52.6204 61.4592L75.6658 84.5046ZM56.7917 38.9167H75.1629L98.2083 61.9621L79.8371 80.3333L56.7917 57.2879V38.9167Z" fill="white" fill-opacity="0.33"/>
<path d="M63.4479 49.2708C65.4902 49.2708 67.1458 47.6152 67.1458 45.5729C67.1458 43.5306 65.4902 41.875 63.4479 41.875C61.4056 41.875 59.75 43.5306 59.75 45.5729C59.75 47.6152 61.4056 49.2708 63.4479 49.2708Z" fill="white" fill-opacity="0.33"/>
</svg>
