<svg width="159" height="25" viewBox="0 0 159 25" fill="none" xmlns="http://www.w3.org/2000/svg">
<path d="M12.9004 3.78125V18H9.72656L4.35547 8.81055V18H1.17188V3.78125H4.35547L9.73633 12.9707V3.78125H12.9004ZM19.3813 16.7793L22.1449 7.43359H25.4262L21.1781 19.582C21.087 19.849 20.9633 20.1354 20.807 20.4414C20.6573 20.7474 20.4522 21.0404 20.1918 21.3203C19.9379 21.6003 19.6124 21.8281 19.2152 22.0039C18.8181 22.1797 18.3298 22.2676 17.7504 22.2676C17.4574 22.2676 17.2296 22.2513 17.0668 22.2188C16.9105 22.1927 16.7022 22.1471 16.4418 22.082L16.432 19.8652C16.5167 19.8652 16.5915 19.8652 16.6566 19.8652C16.7283 19.8717 16.7999 19.875 16.8715 19.875C17.2361 19.875 17.529 19.8359 17.7504 19.7578C17.9783 19.6797 18.154 19.5625 18.2777 19.4062C18.4079 19.2565 18.5121 19.0645 18.5902 18.8301L19.3813 16.7793ZM18.4535 7.43359L20.641 14.9531L21.0121 18.1855L18.9516 18.293L15.1723 7.43359H18.4535ZM30.491 3V18H27.4441V3H30.491ZM30.0906 12.3457L29.3289 12.3652C29.3289 11.623 29.4201 10.9427 29.6023 10.3242C29.7911 9.69922 30.0581 9.1556 30.4031 8.69336C30.7482 8.23112 31.1616 7.87305 31.6434 7.61914C32.1316 7.36523 32.6688 7.23828 33.2547 7.23828C33.7755 7.23828 34.2508 7.31315 34.6805 7.46289C35.1102 7.61263 35.4813 7.85026 35.7938 8.17578C36.1063 8.5013 36.3471 8.92773 36.5164 9.45508C36.6857 9.98242 36.7703 10.6237 36.7703 11.3789V18H33.7039V11.3594C33.7039 10.9102 33.6388 10.5586 33.5086 10.3047C33.3849 10.0508 33.2026 9.87174 32.9617 9.76758C32.7273 9.66341 32.4409 9.61133 32.1023 9.61133C31.7052 9.61133 31.3764 9.68294 31.116 9.82617C30.8556 9.96289 30.6505 10.1549 30.5008 10.4023C30.351 10.6497 30.2436 10.9395 30.1785 11.2715C30.1199 11.6035 30.0906 11.9616 30.0906 12.3457ZM44.843 18.1953C44.0031 18.1953 43.2512 18.0618 42.5871 17.7949C41.923 17.528 41.3599 17.1602 40.8977 16.6914C40.4419 16.2161 40.0936 15.6693 39.8527 15.0508C39.6118 14.4323 39.4914 13.7715 39.4914 13.0684V12.6973C39.4914 11.9095 39.6021 11.1836 39.8234 10.5195C40.0448 9.85547 40.3671 9.2793 40.7902 8.79102C41.2199 8.29622 41.7473 7.91536 42.3723 7.64844C42.9973 7.375 43.7102 7.23828 44.5109 7.23828C45.2596 7.23828 45.927 7.36198 46.5129 7.60938C47.0988 7.85026 47.5936 8.19857 47.9973 8.6543C48.4009 9.10352 48.7069 9.64714 48.9152 10.2852C49.1301 10.9167 49.2375 11.6263 49.2375 12.4141V13.6641H40.7219V11.7012H46.2492V11.4668C46.2492 11.0957 46.1809 10.7702 46.0441 10.4902C45.9139 10.2103 45.7186 9.99544 45.4582 9.8457C45.2043 9.68945 44.882 9.61133 44.4914 9.61133C44.1203 9.61133 43.8111 9.68945 43.5637 9.8457C43.3163 10.002 43.1177 10.2233 42.968 10.5098C42.8247 10.7897 42.7206 11.1185 42.6555 11.4961C42.5904 11.8672 42.5578 12.2676 42.5578 12.6973V13.0684C42.5578 13.4785 42.6132 13.8529 42.7238 14.1914C42.8345 14.5299 42.9973 14.8197 43.2121 15.0605C43.427 15.3014 43.6874 15.4902 43.9934 15.627C44.2993 15.7637 44.6477 15.832 45.0383 15.832C45.5201 15.832 45.979 15.7409 46.4152 15.5586C46.8514 15.3698 47.229 15.0768 47.548 14.6797L48.9738 16.3105C48.759 16.623 48.4562 16.9258 48.0656 17.2188C47.6815 17.5052 47.2193 17.7396 46.6789 17.9219C46.1385 18.1042 45.5266 18.1953 44.843 18.1953ZM57.9742 15.6367V3H61.0406V18H58.2867L57.9742 15.6367ZM51.3922 12.8438V12.6387C51.3922 11.8379 51.4801 11.1087 51.6559 10.4512C51.8382 9.78711 52.1018 9.21745 52.4469 8.74219C52.7984 8.26042 53.2314 7.88932 53.7457 7.62891C54.26 7.36849 54.8492 7.23828 55.5133 7.23828C56.1253 7.23828 56.6591 7.375 57.1148 7.64844C57.5706 7.91536 57.9579 8.29297 58.277 8.78125C58.6025 9.26302 58.8661 9.83268 59.068 10.4902C59.2698 11.1413 59.4228 11.8477 59.527 12.6094V12.9609C59.4293 13.6901 59.2763 14.3704 59.068 15.002C58.8661 15.6335 58.6025 16.1901 58.277 16.6719C57.9579 17.1471 57.5673 17.5215 57.1051 17.7949C56.6494 18.0618 56.1122 18.1953 55.4938 18.1953C54.8297 18.1953 54.2405 18.0618 53.7262 17.7949C53.2184 17.528 52.7919 17.1536 52.4469 16.6719C52.1018 16.1901 51.8382 15.6237 51.6559 14.9727C51.4801 14.3216 51.3922 13.612 51.3922 12.8438ZM54.4391 12.6387V12.8438C54.4391 13.2604 54.4684 13.6478 54.527 14.0059C54.5921 14.3639 54.6962 14.6797 54.8395 14.9531C54.9827 15.2266 55.1715 15.4414 55.4059 15.5977C55.6402 15.7474 55.9267 15.8223 56.2652 15.8223C56.721 15.8223 57.0953 15.7181 57.3883 15.5098C57.6813 15.2949 57.9026 14.9987 58.0523 14.6211C58.2021 14.2435 58.2802 13.804 58.2867 13.3027V12.2773C58.2867 11.8607 58.2444 11.4863 58.1598 11.1543C58.0751 10.8223 57.9482 10.5423 57.7789 10.3145C57.6161 10.0866 57.4111 9.91406 57.1637 9.79688C56.9163 9.67318 56.6233 9.61133 56.2848 9.61133C55.9527 9.61133 55.6695 9.68945 55.4352 9.8457C55.2008 9.99544 55.0087 10.207 54.859 10.4805C54.7158 10.7539 54.6083 11.0762 54.5367 11.4473C54.4716 11.8118 54.4391 12.209 54.4391 12.6387ZM69.1523 18.1953C68.3125 18.1953 67.5605 18.0618 66.8965 17.7949C66.2324 17.528 65.6693 17.1602 65.207 16.6914C64.7513 16.2161 64.403 15.6693 64.1621 15.0508C63.9212 14.4323 63.8008 13.7715 63.8008 13.0684V12.6973C63.8008 11.9095 63.9115 11.1836 64.1328 10.5195C64.3542 9.85547 64.6764 9.2793 65.0996 8.79102C65.5293 8.29622 66.0566 7.91536 66.6816 7.64844C67.3066 7.375 68.0195 7.23828 68.8203 7.23828C69.569 7.23828 70.2363 7.36198 70.8223 7.60938C71.4082 7.85026 71.903 8.19857 72.3066 8.6543C72.7103 9.10352 73.0163 9.64714 73.2246 10.2852C73.4395 10.9167 73.5469 11.6263 73.5469 12.4141V13.6641H65.0312V11.7012H70.5586V11.4668C70.5586 11.0957 70.4902 10.7702 70.3535 10.4902C70.2233 10.2103 70.028 9.99544 69.7676 9.8457C69.5137 9.68945 69.1914 9.61133 68.8008 9.61133C68.4297 9.61133 68.1204 9.68945 67.873 9.8457C67.6257 10.002 67.4271 10.2233 67.2773 10.5098C67.1341 10.7897 67.0299 11.1185 66.9648 11.4961C66.8997 11.8672 66.8672 12.2676 66.8672 12.6973V13.0684C66.8672 13.4785 66.9225 13.8529 67.0332 14.1914C67.1439 14.5299 67.3066 14.8197 67.5215 15.0605C67.7363 15.3014 67.9967 15.4902 68.3027 15.627C68.6087 15.7637 68.957 15.832 69.3477 15.832C69.8294 15.832 70.2884 15.7409 70.7246 15.5586C71.1608 15.3698 71.5384 15.0768 71.8574 14.6797L73.2832 16.3105C73.0684 16.623 72.7656 16.9258 72.375 17.2188C71.9909 17.5052 71.5286 17.7396 70.9883 17.9219C70.4479 18.1042 69.8359 18.1953 69.1523 18.1953ZM79.1879 9.89453V18H76.141V7.43359H79.0023L79.1879 9.89453ZM82.3422 7.35547L82.2934 10.1973C82.1631 10.1777 81.9939 10.1615 81.7855 10.1484C81.5772 10.1289 81.3982 10.1191 81.2484 10.1191C80.8578 10.1191 80.5193 10.168 80.2328 10.2656C79.9529 10.3568 79.7185 10.4935 79.5297 10.6758C79.3474 10.8581 79.2107 11.0859 79.1195 11.3594C79.0284 11.6263 78.9828 11.9355 78.9828 12.2871L78.4066 12.0039C78.4066 11.3073 78.475 10.6693 78.6117 10.0898C78.7484 9.51042 78.947 9.00911 79.2074 8.58594C79.4678 8.15625 79.7868 7.82422 80.1645 7.58984C80.5421 7.35547 80.9717 7.23828 81.4535 7.23828C81.6098 7.23828 81.7693 7.24805 81.932 7.26758C82.0948 7.28711 82.2315 7.31641 82.3422 7.35547Z" fill="white"/>
<path d="M115.6 2H96.4C95.068 2 94 2.93944 94 4.11111V18.8889C94 20.0606 95.068 21 96.4 21H115.6C116.932 21 118 20.0606 118 18.8889V4.11111C118 2.93944 116.932 2 115.6 2ZM97.6 6.22222H103.6V12.5556H97.6V6.22222ZM114.4 16.7778H97.6V14.6667H114.4V16.7778ZM114.4 12.5556H106V10.4444H114.4V12.5556ZM114.4 8.33333H106V6.22222H114.4V8.33333Z" fill="white"/>
</svg>
