<svg width="129" height="28" viewBox="0 0 129 28" fill="none" xmlns="http://www.w3.org/2000/svg">
<g filter="url(#filter0_d_242_826)">
<path d="M17.0273 7.57812V8.21289C17.0273 9.29362 16.8776 10.2637 16.5781 11.123C16.2852 11.9824 15.8652 12.7148 15.3184 13.3203C14.778 13.9258 14.1335 14.3913 13.3848 14.7168C12.6426 15.0358 11.819 15.1953 10.9141 15.1953C10.0091 15.1953 9.18229 15.0358 8.43359 14.7168C7.6849 14.3913 7.03385 13.9258 6.48047 13.3203C5.93359 12.7148 5.51042 11.9824 5.21094 11.123C4.91146 10.2637 4.76172 9.29362 4.76172 8.21289V7.57812C4.76172 6.4974 4.91146 5.52734 5.21094 4.66797C5.51042 3.80208 5.93034 3.06641 6.4707 2.46094C7.01758 1.85547 7.66536 1.39323 8.41406 1.07422C9.16276 0.748698 9.98958 0.585938 10.8945 0.585938C11.7995 0.585938 12.6263 0.748698 13.375 1.07422C14.1237 1.39323 14.7682 1.85547 15.3086 2.46094C15.8555 3.06641 16.2786 3.80208 16.5781 4.66797C16.8776 5.52734 17.0273 6.4974 17.0273 7.57812ZM13.8145 8.21289V7.55859C13.8145 6.83594 13.7493 6.19792 13.6191 5.64453C13.4889 5.08464 13.3001 4.61589 13.0527 4.23828C12.8053 3.86068 12.4993 3.57747 12.1348 3.38867C11.7702 3.19336 11.3568 3.0957 10.8945 3.0957C10.4128 3.0957 9.99284 3.19336 9.63477 3.38867C9.27669 3.57747 8.97396 3.86068 8.72656 4.23828C8.48568 4.61589 8.30013 5.08464 8.16992 5.64453C8.04622 6.19792 7.98438 6.83594 7.98438 7.55859V8.21289C7.98438 8.92904 8.04622 9.56706 8.16992 10.127C8.30013 10.6803 8.48893 11.1491 8.73633 11.5332C8.98372 11.9173 9.28646 12.207 9.64453 12.4023C10.0091 12.5977 10.4323 12.6953 10.9141 12.6953C11.3763 12.6953 11.7865 12.5977 12.1445 12.4023C12.5091 12.207 12.8151 11.9173 13.0625 11.5332C13.3099 11.1491 13.4954 10.6803 13.6191 10.127C13.7493 9.56706 13.8145 8.92904 13.8145 8.21289ZM22.9809 6.65039V15H19.934V4.43359H22.7953L22.9809 6.65039ZM22.5902 9.3457L21.8188 9.36523C21.8188 8.62305 21.9066 7.94271 22.0824 7.32422C22.2647 6.69922 22.5284 6.1556 22.8734 5.69336C23.2185 5.23112 23.6449 4.87305 24.1527 4.61914C24.6671 4.36523 25.2595 4.23828 25.9301 4.23828C26.3988 4.23828 26.8253 4.3099 27.2094 4.45312C27.5935 4.58984 27.9223 4.80794 28.1957 5.10742C28.4757 5.40039 28.6905 5.78451 28.8402 6.25977C28.99 6.72852 29.0648 7.29167 29.0648 7.94922V15H26.018V8.32031C26.018 7.85156 25.9594 7.49674 25.8422 7.25586C25.7315 7.00846 25.5688 6.83919 25.3539 6.74805C25.1391 6.6569 24.8819 6.61133 24.5824 6.61133C24.2569 6.61133 23.9672 6.68294 23.7133 6.82617C23.4659 6.96289 23.2576 7.15495 23.0883 7.40234C22.919 7.64974 22.7921 7.93945 22.7074 8.27148C22.6293 8.60352 22.5902 8.96159 22.5902 9.3457ZM28.7523 9.18945L27.7855 9.26758C27.7855 8.55143 27.8702 7.88737 28.0395 7.27539C28.2087 6.66341 28.4626 6.13281 28.8012 5.68359C29.1397 5.22786 29.5596 4.87305 30.0609 4.61914C30.5688 4.36523 31.1579 4.23828 31.8285 4.23828C32.3233 4.23828 32.7725 4.3099 33.1762 4.45312C33.5863 4.59635 33.9379 4.82747 34.2309 5.14648C34.5303 5.46549 34.7615 5.88542 34.9242 6.40625C35.087 6.92057 35.1684 7.55208 35.1684 8.30078V15H32.102V8.30078C32.102 7.83854 32.0434 7.48698 31.9262 7.24609C31.8155 7.00521 31.6527 6.83919 31.4379 6.74805C31.2296 6.6569 30.9789 6.61133 30.6859 6.61133C30.3604 6.61133 30.0772 6.67969 29.8363 6.81641C29.5954 6.94661 29.3936 7.12891 29.2309 7.36328C29.0681 7.59115 28.9477 7.86133 28.8695 8.17383C28.7914 8.48633 28.7523 8.82487 28.7523 9.18945ZM38.4656 13.5547C38.4656 13.112 38.6219 12.7409 38.9344 12.4414C39.2534 12.1419 39.6668 11.9922 40.1746 11.9922C40.6889 11.9922 41.0991 12.1419 41.4051 12.4414C41.7176 12.7409 41.8738 13.112 41.8738 13.5547C41.8738 13.9909 41.7176 14.3587 41.4051 14.6582C41.0991 14.9577 40.6889 15.1074 40.1746 15.1074C39.6668 15.1074 39.2534 14.9577 38.9344 14.6582C38.6219 14.3587 38.4656 13.9909 38.4656 13.5547ZM38.4656 5.625C38.4656 5.18229 38.6219 4.8112 38.9344 4.51172C39.2534 4.21224 39.6668 4.0625 40.1746 4.0625C40.6889 4.0625 41.0991 4.21224 41.4051 4.51172C41.7176 4.8112 41.8738 5.18229 41.8738 5.625C41.8738 6.0612 41.7176 6.42904 41.4051 6.72852C41.0991 7.02799 40.6889 7.17773 40.1746 7.17773C39.6668 7.17773 39.2534 7.02799 38.9344 6.72852C38.6219 6.42904 38.4656 6.0612 38.4656 5.625ZM57.3746 3.48633L53.7027 15H50.3043L55.568 0.78125H57.7164L57.3746 3.48633ZM60.4215 15L56.7398 3.48633L56.359 0.78125H58.5367L63.8199 15H60.4215ZM60.2652 9.70703V12.168H52.8531V9.70703H60.2652ZM72.0977 12.6367V0H75.1641V15H72.4102L72.0977 12.6367ZM65.5156 9.84375V9.63867C65.5156 8.83789 65.6035 8.10872 65.7793 7.45117C65.9616 6.78711 66.2253 6.21745 66.5703 5.74219C66.9219 5.26042 67.3548 4.88932 67.8691 4.62891C68.3835 4.36849 68.9727 4.23828 69.6367 4.23828C70.2487 4.23828 70.7826 4.375 71.2383 4.64844C71.694 4.91536 72.0814 5.29297 72.4004 5.78125C72.7259 6.26302 72.9896 6.83268 73.1914 7.49023C73.3932 8.14128 73.5462 8.84766 73.6504 9.60938V9.96094C73.5527 10.6901 73.3997 11.3704 73.1914 12.002C72.9896 12.6335 72.7259 13.1901 72.4004 13.6719C72.0814 14.1471 71.6908 14.5215 71.2285 14.7949C70.7728 15.0618 70.2357 15.1953 69.6172 15.1953C68.9531 15.1953 68.3639 15.0618 67.8496 14.7949C67.3418 14.528 66.9154 14.1536 66.5703 13.6719C66.2253 13.1901 65.9616 12.6237 65.7793 11.9727C65.6035 11.3216 65.5156 10.612 65.5156 9.84375ZM68.5625 9.63867V9.84375C68.5625 10.2604 68.5918 10.6478 68.6504 11.0059C68.7155 11.3639 68.8197 11.6797 68.9629 11.9531C69.1061 12.2266 69.2949 12.4414 69.5293 12.5977C69.7637 12.7474 70.0501 12.8223 70.3887 12.8223C70.8444 12.8223 71.2188 12.7181 71.5117 12.5098C71.8047 12.2949 72.026 11.9987 72.1758 11.6211C72.3255 11.2435 72.4036 10.804 72.4102 10.3027V9.27734C72.4102 8.86068 72.3678 8.48633 72.2832 8.1543C72.1986 7.82227 72.0716 7.54232 71.9023 7.31445C71.7396 7.08659 71.5345 6.91406 71.2871 6.79688C71.0397 6.67318 70.7467 6.61133 70.4082 6.61133C70.0762 6.61133 69.793 6.68945 69.5586 6.8457C69.3242 6.99544 69.1322 7.20703 68.9824 7.48047C68.8392 7.75391 68.7318 8.07617 68.6602 8.44727C68.5951 8.81185 68.5625 9.20898 68.5625 9.63867ZM84.9555 4.43359H87.7289V14.6191C87.7289 15.5892 87.5076 16.4128 87.0648 17.0898C86.6286 17.7669 86.0199 18.2812 85.2387 18.6328C84.4574 18.9844 83.5427 19.1602 82.4945 19.1602C82.0388 19.1602 81.5635 19.0983 81.0687 18.9746C80.574 18.8574 80.1085 18.6784 79.6723 18.4375C79.2361 18.2031 78.8715 17.9036 78.5785 17.5391L79.8773 15.7422C80.1768 16.0807 80.5349 16.3542 80.9516 16.5625C81.3682 16.7773 81.8435 16.8848 82.3773 16.8848C82.8656 16.8848 83.279 16.7969 83.6176 16.6211C83.9561 16.4453 84.2133 16.1882 84.3891 15.8496C84.5714 15.5111 84.6625 15.1009 84.6625 14.6191V6.9043L84.9555 4.43359ZM77.8949 9.84375V9.63867C77.8949 8.83789 77.9926 8.10872 78.1879 7.45117C78.3832 6.78711 78.6664 6.21745 79.0375 5.74219C79.4151 5.26042 79.8676 4.88932 80.3949 4.62891C80.9288 4.36849 81.5277 4.23828 82.1918 4.23828C82.9079 4.23828 83.5004 4.375 83.9691 4.64844C84.4379 4.91536 84.8187 5.29297 85.1117 5.78125C85.4047 6.26302 85.6358 6.83268 85.8051 7.49023C85.9743 8.14128 86.1111 8.84766 86.2152 9.60938V9.96094C86.1111 10.6901 85.9613 11.3704 85.766 12.002C85.5707 12.6335 85.3168 13.1901 85.0043 13.6719C84.6918 14.1471 84.3012 14.5215 83.8324 14.7949C83.3702 15.0618 82.8168 15.1953 82.1723 15.1953C81.5147 15.1953 80.9223 15.0618 80.3949 14.7949C79.8676 14.528 79.4151 14.1536 79.0375 13.6719C78.6664 13.1901 78.3832 12.6237 78.1879 11.9727C77.9926 11.3216 77.8949 10.612 77.8949 9.84375ZM80.9418 9.63867V9.84375C80.9418 10.2604 80.9809 10.6478 81.059 11.0059C81.1436 11.3639 81.2673 11.6797 81.4301 11.9531C81.5993 12.2266 81.8077 12.4414 82.0551 12.5977C82.309 12.7474 82.6052 12.8223 82.9437 12.8223C83.4385 12.8223 83.8389 12.7181 84.1449 12.5098C84.4574 12.2949 84.6853 11.9987 84.8285 11.6211C84.9783 11.2435 85.0564 10.804 85.0629 10.3027V9.27734C85.0629 8.86068 85.0206 8.48633 84.9359 8.1543C84.8513 7.82227 84.7243 7.54232 84.5551 7.31445C84.3923 7.08659 84.1775 6.91406 83.9105 6.79688C83.6501 6.67318 83.3344 6.61133 82.9633 6.61133C82.6312 6.61133 82.3383 6.68945 82.0844 6.8457C81.8305 6.99544 81.6189 7.20703 81.4496 7.48047C81.2803 7.75391 81.1534 8.07617 81.0687 8.44727C80.9841 8.81185 80.9418 9.20898 80.9418 9.63867ZM96.4559 12.4805V7.94922C96.4559 7.63021 96.407 7.35677 96.3094 7.12891C96.2117 6.90104 96.0587 6.72201 95.8504 6.5918C95.6421 6.46159 95.3719 6.39648 95.0398 6.39648C94.7599 6.39648 94.5158 6.44531 94.3074 6.54297C94.1056 6.64062 93.9493 6.7806 93.8387 6.96289C93.7345 7.14518 93.6824 7.36979 93.6824 7.63672H90.6355C90.6355 7.16146 90.743 6.71875 90.9578 6.30859C91.1727 5.89844 91.4786 5.53711 91.8758 5.22461C92.2794 4.91211 92.7612 4.67122 93.3211 4.50195C93.881 4.32617 94.5092 4.23828 95.2059 4.23828C96.0327 4.23828 96.7684 4.37826 97.4129 4.6582C98.0639 4.93164 98.5783 5.34505 98.9559 5.89844C99.3335 6.44531 99.5223 7.13542 99.5223 7.96875V12.3926C99.5223 13.0306 99.5581 13.5319 99.6297 13.8965C99.7078 14.2546 99.8185 14.5671 99.9617 14.834V15H96.8855C96.7423 14.694 96.6349 14.3164 96.5633 13.8672C96.4917 13.4115 96.4559 12.9492 96.4559 12.4805ZM96.8367 8.55469L96.8562 10.2344H95.3426C95.004 10.2344 94.7111 10.2767 94.4637 10.3613C94.2228 10.446 94.0275 10.5632 93.8777 10.7129C93.728 10.8561 93.6173 11.0254 93.5457 11.2207C93.4806 11.4095 93.448 11.6178 93.448 11.8457C93.448 12.0605 93.5001 12.2559 93.6043 12.4316C93.7085 12.6009 93.8517 12.7344 94.034 12.832C94.2163 12.9297 94.4279 12.9785 94.6687 12.9785C95.0659 12.9785 95.4044 12.9004 95.6844 12.7441C95.9708 12.5879 96.1922 12.3991 96.3484 12.1777C96.5047 11.9499 96.5828 11.7383 96.5828 11.543L97.3152 12.8125C97.198 13.0729 97.0548 13.3431 96.8855 13.623C96.7163 13.8965 96.5014 14.1536 96.241 14.3945C95.9806 14.6289 95.6648 14.821 95.2937 14.9707C94.9292 15.1204 94.4897 15.1953 93.9754 15.1953C93.3113 15.1953 92.7091 15.0618 92.1687 14.7949C91.6284 14.5215 91.1954 14.1471 90.8699 13.6719C90.5509 13.1966 90.3914 12.6497 90.3914 12.0312C90.3914 11.4779 90.4923 10.9863 90.6941 10.5566C90.896 10.127 91.1987 9.76237 91.6023 9.46289C92.0125 9.16341 92.5268 8.9388 93.1453 8.78906C93.7638 8.63281 94.4865 8.55469 95.3133 8.55469H96.8367ZM105.613 6.68945V15H102.556V4.43359H105.427L105.613 6.68945ZM105.212 9.3457L104.45 9.36523C104.45 8.57096 104.548 7.85807 104.743 7.22656C104.939 6.59505 105.215 6.05794 105.573 5.61523C105.938 5.16602 106.371 4.82422 106.872 4.58984C107.38 4.35547 107.94 4.23828 108.552 4.23828C109.047 4.23828 109.499 4.3099 109.909 4.45312C110.32 4.59635 110.671 4.82747 110.964 5.14648C111.264 5.45898 111.491 5.87565 111.648 6.39648C111.804 6.91081 111.882 7.54557 111.882 8.30078V15H108.816V8.29102C108.816 7.84831 108.754 7.50651 108.63 7.26562C108.506 7.02474 108.324 6.85547 108.083 6.75781C107.849 6.66016 107.562 6.61133 107.224 6.61133C106.866 6.61133 106.56 6.68294 106.306 6.82617C106.052 6.96289 105.844 7.15495 105.681 7.40234C105.518 7.64974 105.398 7.93945 105.32 8.27148C105.248 8.60352 105.212 8.96159 105.212 9.3457ZM121.634 4.43359H124.408V14.6191C124.408 15.5892 124.186 16.4128 123.744 17.0898C123.308 17.7669 122.699 18.2812 121.918 18.6328C121.136 18.9844 120.222 19.1602 119.173 19.1602C118.718 19.1602 118.242 19.0983 117.748 18.9746C117.253 18.8574 116.787 18.6784 116.351 18.4375C115.915 18.2031 115.55 17.9036 115.257 17.5391L116.556 15.7422C116.856 16.0807 117.214 16.3542 117.63 16.5625C118.047 16.7773 118.522 16.8848 119.056 16.8848C119.545 16.8848 119.958 16.7969 120.296 16.6211C120.635 16.4453 120.892 16.1882 121.068 15.8496C121.25 15.5111 121.341 15.1009 121.341 14.6191V6.9043L121.634 4.43359ZM114.574 9.84375V9.63867C114.574 8.83789 114.671 8.10872 114.867 7.45117C115.062 6.78711 115.345 6.21745 115.716 5.74219C116.094 5.26042 116.546 4.88932 117.074 4.62891C117.608 4.36849 118.207 4.23828 118.871 4.23828C119.587 4.23828 120.179 4.375 120.648 4.64844C121.117 4.91536 121.498 5.29297 121.791 5.78125C122.084 6.26302 122.315 6.83268 122.484 7.49023C122.653 8.14128 122.79 8.84766 122.894 9.60938V9.96094C122.79 10.6901 122.64 11.3704 122.445 12.002C122.25 12.6335 121.996 13.1901 121.683 13.6719C121.371 14.1471 120.98 14.5215 120.511 14.7949C120.049 15.0618 119.496 15.1953 118.851 15.1953C118.194 15.1953 117.601 15.0618 117.074 14.7949C116.546 14.528 116.094 14.1536 115.716 13.6719C115.345 13.1901 115.062 12.6237 114.867 11.9727C114.671 11.3216 114.574 10.612 114.574 9.84375ZM117.621 9.63867V9.84375C117.621 10.2604 117.66 10.6478 117.738 11.0059C117.823 11.3639 117.946 11.6797 118.109 11.9531C118.278 12.2266 118.487 12.4414 118.734 12.5977C118.988 12.7474 119.284 12.8223 119.623 12.8223C120.117 12.8223 120.518 12.7181 120.824 12.5098C121.136 12.2949 121.364 11.9987 121.507 11.6211C121.657 11.2435 121.735 10.804 121.742 10.3027V9.27734C121.742 8.86068 121.699 8.48633 121.615 8.1543C121.53 7.82227 121.403 7.54232 121.234 7.31445C121.071 7.08659 120.856 6.91406 120.589 6.79688C120.329 6.67318 120.013 6.61133 119.642 6.61133C119.31 6.61133 119.017 6.68945 118.763 6.8457C118.509 6.99544 118.298 7.20703 118.129 7.48047C117.959 7.75391 117.832 8.07617 117.748 8.44727C117.663 8.81185 117.621 9.20898 117.621 9.63867Z" fill="white"/>
</g>
<defs>
<filter id="filter0_d_242_826" x="0.761719" y="0" width="127.646" height="27.1602" filterUnits="userSpaceOnUse" color-interpolation-filters="sRGB">
<feFlood flood-opacity="0" result="BackgroundImageFix"/>
<feColorMatrix in="SourceAlpha" type="matrix" values="0 0 0 0 0 0 0 0 0 0 0 0 0 0 0 0 0 0 127 0" result="hardAlpha"/>
<feOffset dy="4"/>
<feGaussianBlur stdDeviation="2"/>
<feComposite in2="hardAlpha" operator="out"/>
<feColorMatrix type="matrix" values="0 0 0 0 0 0 0 0 0 0 0 0 0 0 0 0 0 0 0.25 0"/>
<feBlend mode="normal" in2="BackgroundImageFix" result="effect1_dropShadow_242_826"/>
<feBlend mode="normal" in="SourceGraphic" in2="effect1_dropShadow_242_826" result="shape"/>
</filter>
</defs>
</svg>
