<svg width="17" height="17" viewBox="0 0 17 17" fill="none" xmlns="http://www.w3.org/2000/svg">
<path fill-rule="evenodd" clip-rule="evenodd" d="M8.50004 0.708328C4.19692 0.708328 0.708374 4.19687 0.708374 8.5C0.708374 12.8031 4.19692 16.2917 8.50004 16.2917C12.8032 16.2917 16.2917 12.8031 16.2917 8.5C16.2917 4.19687 12.8032 0.708328 8.50004 0.708328ZM8.14587 4.25C7.95801 4.25 7.77785 4.32462 7.64501 4.45746C7.51217 4.5903 7.43754 4.77047 7.43754 4.95833C7.43754 5.14619 7.51217 5.32636 7.64501 5.4592C7.77785 5.59203 7.95801 5.66666 8.14587 5.66666H8.50004C8.6879 5.66666 8.86807 5.59203 9.00091 5.4592C9.13375 5.32636 9.20837 5.14619 9.20837 4.95833C9.20837 4.77047 9.13375 4.5903 9.00091 4.45746C8.86807 4.32462 8.6879 4.25 8.50004 4.25H8.14587ZM7.08337 7.08333C6.89551 7.08333 6.71535 7.15796 6.58251 7.29079C6.44967 7.42363 6.37504 7.6038 6.37504 7.79166C6.37504 7.97952 6.44967 8.15969 6.58251 8.29253C6.71535 8.42537 6.89551 8.5 7.08337 8.5H7.79171V10.625H7.08337C6.89551 10.625 6.71535 10.6996 6.58251 10.8325C6.44967 10.9653 6.37504 11.1455 6.37504 11.3333C6.37504 11.5212 6.44967 11.7014 6.58251 11.8342C6.71535 11.967 6.89551 12.0417 7.08337 12.0417H9.91671C10.1046 12.0417 10.2847 11.967 10.4176 11.8342C10.5504 11.7014 10.625 11.5212 10.625 11.3333C10.625 11.1455 10.5504 10.9653 10.4176 10.8325C10.2847 10.6996 10.1046 10.625 9.91671 10.625H9.20837V7.79166C9.20837 7.6038 9.13375 7.42363 9.00091 7.29079C8.86807 7.15796 8.6879 7.08333 8.50004 7.08333H7.08337Z" fill="#F8F8F8"/>
</svg>
