<svg width="158" height="25" viewBox="0 0 158 25" fill="none" xmlns="http://www.w3.org/2000/svg">
<path d="M156.25 17.6278L156.061 17.4611C155.525 16.9837 155.056 16.4361 154.667 15.8333C154.241 15.0014 153.986 14.0929 153.917 13.1611V10.4167C153.92 8.95312 153.389 7.5386 152.424 6.43888C151.458 5.33915 150.124 4.62993 148.672 4.44445V3.72778C148.672 3.53108 148.594 3.34243 148.455 3.20334C148.316 3.06425 148.127 2.98611 147.93 2.98611C147.734 2.98611 147.545 3.06425 147.406 3.20334C147.267 3.34243 147.189 3.53108 147.189 3.72778V4.45556C145.75 4.65441 144.432 5.36792 143.479 6.46395C142.526 7.55998 142.003 8.96425 142.005 10.4167V13.1611C141.936 14.0929 141.681 15.0014 141.255 15.8333C140.873 16.4346 140.411 16.9821 139.883 17.4611L139.694 17.6278V19.1944H156.25V17.6278Z" fill="white"/>
<path d="M146.511 19.7778C146.56 20.1299 146.734 20.4526 147.003 20.6861C147.271 20.9196 147.614 21.0482 147.97 21.0482C148.325 21.0482 148.669 20.9196 148.937 20.6861C149.205 20.4526 149.379 20.1299 149.428 19.7778H146.511Z" fill="white"/>
<path d="M7.6775 20.16C6.8775 20.16 6.4775 19.7467 6.4775 18.92V7.02C6.4775 6.60667 6.5775 6.29333 6.7775 6.08C6.99083 5.85333 7.26417 5.74 7.5975 5.74C7.90417 5.74 8.13083 5.8 8.2775 5.92C8.4375 6.02667 8.62417 6.21333 8.8375 6.48L15.9775 15.74V6.96C15.9775 6.14667 16.3775 5.74 17.1775 5.74C17.9642 5.74 18.3575 6.14667 18.3575 6.96V18.96C18.3575 19.3333 18.2642 19.6267 18.0775 19.84C17.8908 20.0533 17.6375 20.16 17.3175 20.16C17.0108 20.16 16.7642 20.1 16.5775 19.98C16.4042 19.86 16.2108 19.6667 15.9975 19.4L8.8575 10.12V18.92C8.8575 19.7467 8.46417 20.16 7.6775 20.16ZM25.6584 20.2C24.6451 20.2 23.7651 19.9933 23.0184 19.58C22.2718 19.1667 21.6918 18.58 21.2784 17.82C20.8651 17.0467 20.6584 16.14 20.6584 15.1C20.6584 14.06 20.8651 13.16 21.2784 12.4C21.6918 11.64 22.2718 11.0533 23.0184 10.64C23.7651 10.2267 24.6451 10.02 25.6584 10.02C26.6718 10.02 27.5518 10.2267 28.2984 10.64C29.0451 11.0533 29.6251 11.64 30.0384 12.4C30.4518 13.16 30.6584 14.06 30.6584 15.1C30.6584 16.14 30.4518 17.0467 30.0384 17.82C29.6251 18.58 29.0451 19.1667 28.2984 19.58C27.5518 19.9933 26.6718 20.2 25.6584 20.2ZM25.6584 18.3C26.4051 18.3 27.0051 18.0333 27.4584 17.5C27.9118 16.9533 28.1384 16.1533 28.1384 15.1C28.1384 14.0333 27.9118 13.24 27.4584 12.72C27.0051 12.1867 26.4051 11.92 25.6584 11.92C24.9118 11.92 24.3118 12.1867 23.8584 12.72C23.4051 13.24 23.1784 14.0333 23.1784 15.1C23.1784 16.1533 23.4051 16.9533 23.8584 17.5C24.3118 18.0333 24.9118 18.3 25.6584 18.3ZM37.1042 20.2C34.5176 20.2 33.2242 18.92 33.2242 16.36V12.1H32.1842C31.5176 12.1 31.1842 11.7867 31.1842 11.16C31.1842 10.5333 31.5176 10.22 32.1842 10.22H33.2242V8.4C33.2242 7.56 33.6442 7.14 34.4842 7.14C35.3109 7.14 35.7242 7.56 35.7242 8.4V10.22H37.8442C38.5109 10.22 38.8442 10.5333 38.8442 11.16C38.8442 11.7867 38.5109 12.1 37.8442 12.1H35.7242V16.22C35.7242 16.86 35.8642 17.34 36.1442 17.66C36.4242 17.98 36.8776 18.14 37.5042 18.14C37.7309 18.14 37.9309 18.12 38.1042 18.08C38.2776 18.04 38.4309 18.0133 38.5642 18C38.7242 17.9867 38.8576 18.04 38.9642 18.16C39.0709 18.2667 39.1242 18.4933 39.1242 18.84C39.1242 19.1067 39.0776 19.3467 38.9842 19.56C38.9042 19.76 38.7509 19.9 38.5242 19.98C38.3509 20.0333 38.1242 20.08 37.8442 20.12C37.5642 20.1733 37.3176 20.2 37.1042 20.2ZM41.7939 8.22C41.3272 8.22 40.9606 8.10667 40.6939 7.88C40.4406 7.64 40.3139 7.31333 40.3139 6.9C40.3139 6.47333 40.4406 6.14667 40.6939 5.92C40.9606 5.69333 41.3272 5.58 41.7939 5.58C42.7806 5.58 43.2739 6.02 43.2739 6.9C43.2739 7.78 42.7806 8.22 41.7939 8.22ZM41.7939 20.14C41.3939 20.14 41.0872 20.02 40.8739 19.78C40.6606 19.54 40.5539 19.2067 40.5539 18.78V11.44C40.5539 10.5333 40.9672 10.08 41.7939 10.08C42.6339 10.08 43.0539 10.5333 43.0539 11.44V18.78C43.0539 19.2067 42.9472 19.54 42.7339 19.78C42.5206 20.02 42.2072 20.14 41.7939 20.14ZM54.0716 8.22C53.1249 8.22 52.6516 7.78 52.6516 6.9C52.6516 6.02 53.1249 5.58 54.0716 5.58C55.0316 5.58 55.5116 6.02 55.5116 6.9C55.5116 7.31333 55.3849 7.64 55.1316 7.88C54.8916 8.10667 54.5382 8.22 54.0716 8.22ZM47.5716 20.16C46.7316 20.16 46.3116 19.7333 46.3116 18.88V12.1H45.3916C44.7249 12.1 44.3916 11.7867 44.3916 11.16C44.3916 10.5333 44.7249 10.22 45.3916 10.22H46.3116V10.2C46.3116 8.85333 46.6516 7.83333 47.3316 7.14C48.0116 6.44667 48.9982 6.03333 50.2916 5.9L50.8916 5.84C51.2782 5.8 51.5582 5.86667 51.7316 6.04C51.9182 6.21333 52.0182 6.42667 52.0316 6.68C52.0449 6.92 51.9849 7.14 51.8516 7.34C51.7316 7.54 51.5516 7.65333 51.3116 7.68L50.8316 7.72C50.1249 7.77333 49.6116 7.96667 49.2916 8.3C48.9716 8.63333 48.8116 9.13333 48.8116 9.8V10.22H54.0316C54.8582 10.22 55.2716 10.6667 55.2716 11.56V18.78C55.2716 19.2067 55.1649 19.54 54.9516 19.78C54.7516 20.02 54.4449 20.14 54.0316 20.14C53.6316 20.14 53.3182 20.02 53.0916 19.78C52.8782 19.54 52.7716 19.2067 52.7716 18.78V12.1H48.8116V18.88C48.8116 19.7333 48.3982 20.16 47.5716 20.16ZM59.1181 20.16C58.2915 20.16 57.8781 19.7333 57.8781 18.88V7C57.8781 6.16 58.2915 5.74 59.1181 5.74C59.9581 5.74 60.3781 6.16 60.3781 7V14.38H60.4181L63.7181 10.9C63.9848 10.6333 64.2181 10.4267 64.4181 10.28C64.6181 10.1333 64.8915 10.06 65.2381 10.06C65.5848 10.06 65.8448 10.1533 66.0181 10.34C66.2048 10.5133 66.2981 10.7267 66.2981 10.98C66.2981 11.2333 66.1781 11.4867 65.9381 11.74L62.9381 14.9L66.2781 18.5C66.5181 18.7533 66.6248 19.0133 66.5981 19.28C66.5848 19.5333 66.4781 19.7467 66.2781 19.92C66.0781 20.08 65.8248 20.16 65.5181 20.16C65.1448 20.16 64.8448 20.0867 64.6181 19.94C64.4048 19.7933 64.1648 19.5733 63.8981 19.28L60.4181 15.64H60.3781V18.88C60.3781 19.7333 59.9581 20.16 59.1181 20.16ZM71.7231 20.2C71.0165 20.2 70.3831 20.0667 69.8231 19.8C69.2765 19.52 68.8431 19.1467 68.5231 18.68C68.2165 18.2133 68.0631 17.6867 68.0631 17.1C68.0631 16.38 68.2498 15.8133 68.6231 15.4C68.9965 14.9733 69.6031 14.6667 70.4431 14.48C71.2831 14.2933 72.4098 14.2 73.8231 14.2H74.5231V13.78C74.5231 13.1133 74.3765 12.6333 74.0831 12.34C73.7898 12.0467 73.2965 11.9 72.6031 11.9C72.2165 11.9 71.7965 11.9467 71.3431 12.04C70.9031 12.1333 70.4365 12.2933 69.9431 12.52C69.6231 12.6667 69.3565 12.6867 69.1431 12.58C68.9298 12.46 68.7831 12.28 68.7031 12.04C68.6365 11.7867 68.6498 11.5333 68.7431 11.28C68.8498 11.0267 69.0565 10.84 69.3631 10.72C69.9765 10.4667 70.5631 10.2867 71.1231 10.18C71.6965 10.0733 72.2165 10.02 72.6831 10.02C74.1098 10.02 75.1698 10.3533 75.8631 11.02C76.5565 11.6733 76.9031 12.6933 76.9031 14.08V18.88C76.9031 19.7333 76.5165 20.16 75.7431 20.16C74.9565 20.16 74.5631 19.7333 74.5631 18.88V18.44C74.3365 18.9867 73.9765 19.42 73.4831 19.74C72.9898 20.0467 72.4031 20.2 71.7231 20.2ZM72.2431 18.48C72.8965 18.48 73.4365 18.2533 73.8631 17.8C74.3031 17.3467 74.5231 16.7733 74.5231 16.08V15.64H73.8431C72.5898 15.64 71.7165 15.74 71.2231 15.94C70.7431 16.1267 70.5031 16.4733 70.5031 16.98C70.5031 17.42 70.6565 17.78 70.9631 18.06C71.2698 18.34 71.6965 18.48 72.2431 18.48ZM83.9206 20.2C81.334 20.2 80.0406 18.92 80.0406 16.36V12.1H79.0006C78.334 12.1 78.0006 11.7867 78.0006 11.16C78.0006 10.5333 78.334 10.22 79.0006 10.22H80.0406V8.4C80.0406 7.56 80.4606 7.14 81.3006 7.14C82.1273 7.14 82.5406 7.56 82.5406 8.4V10.22H84.6606C85.3273 10.22 85.6606 10.5333 85.6606 11.16C85.6606 11.7867 85.3273 12.1 84.6606 12.1H82.5406V16.22C82.5406 16.86 82.6806 17.34 82.9606 17.66C83.2406 17.98 83.694 18.14 84.3206 18.14C84.5473 18.14 84.7473 18.12 84.9206 18.08C85.094 18.04 85.2473 18.0133 85.3806 18C85.5406 17.9867 85.674 18.04 85.7806 18.16C85.8873 18.2667 85.9406 18.4933 85.9406 18.84C85.9406 19.1067 85.894 19.3467 85.8006 19.56C85.7206 19.76 85.5673 19.9 85.3406 19.98C85.1673 20.0333 84.9406 20.08 84.6606 20.12C84.3806 20.1733 84.134 20.2 83.9206 20.2ZM88.6103 8.22C88.1436 8.22 87.777 8.10667 87.5103 7.88C87.257 7.64 87.1303 7.31333 87.1303 6.9C87.1303 6.47333 87.257 6.14667 87.5103 5.92C87.777 5.69333 88.1436 5.58 88.6103 5.58C89.597 5.58 90.0903 6.02 90.0903 6.9C90.0903 7.78 89.597 8.22 88.6103 8.22ZM88.6103 20.14C88.2103 20.14 87.9036 20.02 87.6903 19.78C87.477 19.54 87.3703 19.2067 87.3703 18.78V11.44C87.3703 10.5333 87.7836 10.08 88.6103 10.08C89.4503 10.08 89.8703 10.5333 89.8703 11.44V18.78C89.8703 19.2067 89.7636 19.54 89.5503 19.78C89.337 20.02 89.0236 20.14 88.6103 20.14ZM96.928 20.2C95.9146 20.2 95.0346 19.9933 94.288 19.58C93.5413 19.1667 92.9613 18.58 92.548 17.82C92.1346 17.0467 91.928 16.14 91.928 15.1C91.928 14.06 92.1346 13.16 92.548 12.4C92.9613 11.64 93.5413 11.0533 94.288 10.64C95.0346 10.2267 95.9146 10.02 96.928 10.02C97.9413 10.02 98.8213 10.2267 99.568 10.64C100.315 11.0533 100.895 11.64 101.308 12.4C101.721 13.16 101.928 14.06 101.928 15.1C101.928 16.14 101.721 17.0467 101.308 17.82C100.895 18.58 100.315 19.1667 99.568 19.58C98.8213 19.9933 97.9413 20.2 96.928 20.2ZM96.928 18.3C97.6746 18.3 98.2746 18.0333 98.728 17.5C99.1813 16.9533 99.408 16.1533 99.408 15.1C99.408 14.0333 99.1813 13.24 98.728 12.72C98.2746 12.1867 97.6746 11.92 96.928 11.92C96.1813 11.92 95.5813 12.1867 95.128 12.72C94.6746 13.24 94.448 14.0333 94.448 15.1C94.448 16.1533 94.6746 16.9533 95.128 17.5C95.5813 18.0333 96.1813 18.3 96.928 18.3ZM105.231 20.16C104.405 20.16 103.991 19.7333 103.991 18.88V11.32C103.991 10.48 104.398 10.06 105.211 10.06C106.025 10.06 106.431 10.48 106.431 11.32V11.74C106.765 11.18 107.211 10.7533 107.771 10.46C108.345 10.1667 108.985 10.02 109.691 10.02C111.998 10.02 113.151 11.36 113.151 14.04V18.88C113.151 19.7333 112.738 20.16 111.911 20.16C111.071 20.16 110.651 19.7333 110.651 18.88V14.16C110.651 13.4 110.505 12.8467 110.211 12.5C109.931 12.1533 109.491 11.98 108.891 11.98C108.158 11.98 107.571 12.2133 107.131 12.68C106.705 13.1333 106.491 13.74 106.491 14.5V18.88C106.491 19.7333 106.071 20.16 105.231 20.16ZM120.511 20.2C119.404 20.2 118.451 19.9933 117.651 19.58C116.851 19.1667 116.231 18.58 115.791 17.82C115.364 17.06 115.151 16.16 115.151 15.12C115.151 14.1067 115.357 13.22 115.771 12.46C116.197 11.7 116.777 11.1067 117.511 10.68C118.257 10.24 119.104 10.02 120.051 10.02C121.437 10.02 122.531 10.46 123.331 11.34C124.144 12.22 124.551 13.42 124.551 14.94C124.551 15.4333 124.231 15.68 123.591 15.68H117.551C117.737 17.4267 118.737 18.3 120.551 18.3C120.897 18.3 121.284 18.26 121.711 18.18C122.151 18.0867 122.564 17.9333 122.951 17.72C123.297 17.52 123.591 17.46 123.831 17.54C124.071 17.6067 124.237 17.7467 124.331 17.96C124.437 18.1733 124.451 18.4133 124.371 18.68C124.304 18.9333 124.117 19.1533 123.811 19.34C123.344 19.6333 122.804 19.8533 122.191 20C121.591 20.1333 121.031 20.2 120.511 20.2ZM120.151 11.72C119.417 11.72 118.824 11.9467 118.371 12.4C117.917 12.8533 117.644 13.4667 117.551 14.24H122.471C122.417 13.4267 122.191 12.8067 121.791 12.38C121.404 11.94 120.857 11.72 120.151 11.72ZM127.81 20.16C126.957 20.16 126.53 19.7333 126.53 18.88V11.32C126.53 10.48 126.937 10.06 127.75 10.06C128.564 10.06 128.97 10.48 128.97 11.32V11.94C129.45 10.7933 130.477 10.1533 132.05 10.02C132.624 9.95333 132.944 10.28 133.01 11C133.077 11.7067 132.73 12.1 131.97 12.18L131.53 12.22C129.89 12.38 129.07 13.22 129.07 14.74V18.88C129.07 19.7333 128.65 20.16 127.81 20.16Z" fill="white"/>
</svg>
