<svg width="284" height="140" viewBox="0 0 284 140" fill="none" xmlns="http://www.w3.org/2000/svg">
<g filter="url(#filter0_dddd_342_933)">
<rect x="8" y="8" width="268" height="124" rx="15" fill="white"/>
</g>
<path d="M28.352 57.1947C27.904 57.1947 27.54 57.092 27.26 56.8867C26.9987 56.6814 26.84 56.4107 26.784 56.0747C26.728 55.72 26.7933 55.328 26.98 54.8987L34.372 38.5187C34.6147 37.9774 34.904 37.5947 35.24 37.3707C35.5947 37.128 35.996 37.0067 36.444 37.0067C36.8733 37.0067 37.256 37.128 37.592 37.3707C37.9467 37.5947 38.2453 37.9774 38.488 38.5187L45.908 54.8987C46.1133 55.328 46.188 55.72 46.132 56.0747C46.076 56.4294 45.9173 56.7094 45.656 56.9147C45.3947 57.1014 45.0493 57.1947 44.62 57.1947C44.0973 57.1947 43.6867 57.0734 43.388 56.8307C43.108 56.5694 42.856 56.1774 42.632 55.6547L40.812 51.4267L42.324 52.4067H30.508L32.02 51.4267L30.228 55.6547C29.9853 56.196 29.7333 56.588 29.472 56.8307C29.2107 57.0734 28.8373 57.1947 28.352 57.1947ZM36.388 41.1227L32.468 50.4467L31.74 49.5507H41.092L40.392 50.4467L36.444 41.1227H36.388ZM53.7832 57.2507C52.5886 57.2507 51.5339 56.9614 50.6192 56.3827C49.7232 55.804 49.0232 54.9827 48.5192 53.9187C48.0152 52.836 47.7632 51.5667 47.7632 50.1107C47.7632 48.636 48.0152 47.376 48.5192 46.3307C49.0232 45.2667 49.7232 44.4454 50.6192 43.8667C51.5339 43.288 52.5886 42.9987 53.7832 42.9987C54.9219 42.9987 55.9112 43.2787 56.7512 43.8387C57.6099 44.3987 58.1886 45.136 58.4872 46.0507H58.1792V38.7707C58.1792 38.192 58.3286 37.7534 58.6272 37.4547C58.9259 37.156 59.3552 37.0067 59.9152 37.0067C60.4752 37.0067 60.9046 37.156 61.2032 37.4547C61.5206 37.7534 61.6792 38.192 61.6792 38.7707V55.4027C61.6792 55.9814 61.5299 56.4294 61.2312 56.7467C60.9326 57.0454 60.5032 57.1947 59.9432 57.1947C59.3832 57.1947 58.9539 57.0454 58.6552 56.7467C58.3566 56.4294 58.2072 55.9814 58.2072 55.4027V53.2187L58.5152 54.0587C58.2352 55.0294 57.6659 55.804 56.8072 56.3827C55.9486 56.9614 54.9406 57.2507 53.7832 57.2507ZM54.7632 54.5907C55.4539 54.5907 56.0606 54.4227 56.5832 54.0867C57.1059 53.7507 57.5072 53.256 57.7872 52.6027C58.0859 51.9307 58.2352 51.1 58.2352 50.1107C58.2352 48.6174 57.9179 47.5067 57.2832 46.7787C56.6486 46.032 55.8086 45.6587 54.7632 45.6587C54.0726 45.6587 53.4659 45.8267 52.9432 46.1627C52.4206 46.48 52.0099 46.9747 51.7112 47.6467C51.4312 48.3 51.2912 49.1214 51.2912 50.1107C51.2912 51.5854 51.6086 52.7054 52.2432 53.4707C52.8779 54.2174 53.7179 54.5907 54.7632 54.5907ZM71.6923 62.2907C70.6843 62.2907 69.7043 62.1974 68.7523 62.0107C67.8189 61.824 66.9696 61.5347 66.2043 61.1427C65.8496 60.956 65.6069 60.732 65.4763 60.4707C65.3643 60.2094 65.3269 59.9387 65.3643 59.6587C65.4203 59.3974 65.5323 59.164 65.7003 58.9587C65.8869 58.7534 66.1109 58.6134 66.3723 58.5387C66.6336 58.464 66.9043 58.5014 67.1843 58.6507C68.0056 59.0614 68.7803 59.3227 69.5083 59.4347C70.2549 59.5654 70.8896 59.6307 71.4123 59.6307C72.6629 59.6307 73.5963 59.3227 74.2123 58.7067C74.8469 58.1094 75.1643 57.2134 75.1643 56.0187V53.4987H75.4163C75.1363 54.4507 74.5483 55.216 73.6523 55.7947C72.7749 56.3547 71.7763 56.6347 70.6563 56.6347C69.4243 56.6347 68.3509 56.3547 67.4363 55.7947C66.5216 55.216 65.8123 54.4134 65.3083 53.3867C64.8043 52.36 64.5523 51.1654 64.5523 49.8027C64.5523 48.776 64.6923 47.852 64.9723 47.0307C65.2709 46.1907 65.6816 45.472 66.2043 44.8747C66.7456 44.2774 67.3896 43.82 68.1363 43.5027C68.9016 43.1667 69.7416 42.9987 70.6563 42.9987C71.8136 42.9987 72.8216 43.288 73.6803 43.8667C74.5576 44.4267 75.1269 45.1734 75.3883 46.1067L75.1083 46.8067V44.8187C75.1083 44.24 75.2576 43.8014 75.5563 43.5027C75.8736 43.204 76.3029 43.0547 76.8443 43.0547C77.4043 43.0547 77.8336 43.204 78.1323 43.5027C78.4309 43.8014 78.5803 44.24 78.5803 44.8187V55.5987C78.5803 57.82 77.9923 59.4907 76.8163 60.6107C75.6403 61.7307 73.9323 62.2907 71.6923 62.2907ZM71.6083 53.9747C72.3363 53.9747 72.9616 53.8067 73.4843 53.4707C74.0069 53.1347 74.4083 52.6587 74.6883 52.0427C74.9869 51.408 75.1363 50.6614 75.1363 49.8027C75.1363 48.5147 74.8189 47.5067 74.1843 46.7787C73.5496 46.032 72.6909 45.6587 71.6083 45.6587C70.8803 45.6587 70.2549 45.8267 69.7323 46.1627C69.2096 46.4987 68.7989 46.9747 68.5003 47.5907C68.2203 48.2067 68.0803 48.944 68.0803 49.8027C68.0803 51.0907 68.3976 52.108 69.0323 52.8547C69.6669 53.6014 70.5256 53.9747 71.6083 53.9747ZM86.7147 57.2507C85.7254 57.2507 84.8387 57.064 84.0547 56.6907C83.2894 56.2987 82.6827 55.776 82.2347 55.1227C81.8054 54.4694 81.5907 53.732 81.5907 52.9107C81.5907 51.9027 81.8521 51.1094 82.3747 50.5307C82.8974 49.9334 83.7467 49.504 84.9227 49.2427C86.0987 48.9814 87.6761 48.8507 89.6547 48.8507H91.0547V50.8667H89.6827C88.5254 50.8667 87.6014 50.9227 86.9107 51.0347C86.2201 51.1467 85.7254 51.3427 85.4267 51.6227C85.1467 51.884 85.0067 52.2574 85.0067 52.7427C85.0067 53.3587 85.2214 53.8627 85.6507 54.2547C86.0801 54.6467 86.6774 54.8427 87.4427 54.8427C88.0587 54.8427 88.6001 54.7027 89.0667 54.4227C89.5521 54.124 89.9347 53.7227 90.2147 53.2187C90.4947 52.7147 90.6347 52.136 90.6347 51.4827V48.2627C90.6347 47.3294 90.4294 46.6574 90.0187 46.2467C89.6081 45.836 88.9174 45.6307 87.9467 45.6307C87.4054 45.6307 86.8174 45.696 86.1827 45.8267C85.5667 45.9574 84.9134 46.1814 84.2227 46.4987C83.8681 46.6667 83.5507 46.7134 83.2707 46.6387C83.0094 46.564 82.8041 46.4147 82.6547 46.1907C82.5054 45.948 82.4307 45.6867 82.4307 45.4067C82.4307 45.1267 82.5054 44.856 82.6547 44.5947C82.8041 44.3147 83.0561 44.1094 83.4107 43.9787C84.2694 43.624 85.0907 43.372 85.8747 43.2227C86.6774 43.0734 87.4054 42.9987 88.0587 42.9987C89.4027 42.9987 90.5041 43.204 91.3627 43.6147C92.2401 44.0254 92.8934 44.6507 93.3227 45.4907C93.7521 46.312 93.9667 47.376 93.9667 48.6827V55.4027C93.9667 55.9814 93.8267 56.4294 93.5467 56.7467C93.2667 57.0454 92.8654 57.1947 92.3427 57.1947C91.8201 57.1947 91.4094 57.0454 91.1107 56.7467C90.8307 56.4294 90.6907 55.9814 90.6907 55.4027V54.0587H90.9147C90.7841 54.712 90.5227 55.2814 90.1307 55.7667C89.7574 56.2334 89.2814 56.5974 88.7027 56.8587C88.1241 57.12 87.4614 57.2507 86.7147 57.2507ZM99.2552 57.1947C98.6952 57.1947 98.2659 57.0454 97.9672 56.7467C97.6686 56.4294 97.5192 55.9814 97.5192 55.4027V44.8187C97.5192 44.24 97.6686 43.8014 97.9672 43.5027C98.2659 43.204 98.6859 43.0547 99.2272 43.0547C99.7686 43.0547 100.189 43.204 100.487 43.5027C100.786 43.8014 100.935 44.24 100.935 44.8187V46.7227L100.627 46.0227C101.038 45.0334 101.673 44.2867 102.531 43.7827C103.409 43.26 104.398 42.9987 105.499 42.9987C106.601 42.9987 107.506 43.204 108.215 43.6147C108.925 44.0254 109.457 44.6507 109.811 45.4907C110.166 46.312 110.343 47.3574 110.343 48.6267V55.4027C110.343 55.9814 110.194 56.4294 109.895 56.7467C109.597 57.0454 109.167 57.1947 108.607 57.1947C108.047 57.1947 107.609 57.0454 107.291 56.7467C106.993 56.4294 106.843 55.9814 106.843 55.4027V48.7947C106.843 47.7307 106.638 46.956 106.227 46.4707C105.835 45.9854 105.219 45.7427 104.379 45.7427C103.353 45.7427 102.531 46.0694 101.915 46.7227C101.318 47.3574 101.019 48.2067 101.019 49.2707V55.4027C101.019 56.5974 100.431 57.1947 99.2552 57.1947ZM120.282 62.2907C119.274 62.2907 118.294 62.1974 117.342 62.0107C116.409 61.824 115.559 61.5347 114.794 61.1427C114.439 60.956 114.197 60.732 114.066 60.4707C113.954 60.2094 113.917 59.9387 113.954 59.6587C114.01 59.3974 114.122 59.164 114.29 58.9587C114.477 58.7534 114.701 58.6134 114.962 58.5387C115.223 58.464 115.494 58.5014 115.774 58.6507C116.595 59.0614 117.37 59.3227 118.098 59.4347C118.845 59.5654 119.479 59.6307 120.002 59.6307C121.253 59.6307 122.186 59.3227 122.802 58.7067C123.437 58.1094 123.754 57.2134 123.754 56.0187V53.4987H124.006C123.726 54.4507 123.138 55.216 122.242 55.7947C121.365 56.3547 120.366 56.6347 119.246 56.6347C118.014 56.6347 116.941 56.3547 116.026 55.7947C115.111 55.216 114.402 54.4134 113.898 53.3867C113.394 52.36 113.142 51.1654 113.142 49.8027C113.142 48.776 113.282 47.852 113.562 47.0307C113.861 46.1907 114.271 45.472 114.794 44.8747C115.335 44.2774 115.979 43.82 116.726 43.5027C117.491 43.1667 118.331 42.9987 119.246 42.9987C120.403 42.9987 121.411 43.288 122.27 43.8667C123.147 44.4267 123.717 45.1734 123.978 46.1067L123.698 46.8067V44.8187C123.698 44.24 123.847 43.8014 124.146 43.5027C124.463 43.204 124.893 43.0547 125.434 43.0547C125.994 43.0547 126.423 43.204 126.722 43.5027C127.021 43.8014 127.17 44.24 127.17 44.8187V55.5987C127.17 57.82 126.582 59.4907 125.406 60.6107C124.23 61.7307 122.522 62.2907 120.282 62.2907ZM120.198 53.9747C120.926 53.9747 121.551 53.8067 122.074 53.4707C122.597 53.1347 122.998 52.6587 123.278 52.0427C123.577 51.408 123.726 50.6614 123.726 49.8027C123.726 48.5147 123.409 47.5067 122.774 46.7787C122.139 46.032 121.281 45.6587 120.198 45.6587C119.47 45.6587 118.845 45.8267 118.322 46.1627C117.799 46.4987 117.389 46.9747 117.09 47.5907C116.81 48.2067 116.67 48.944 116.67 49.8027C116.67 51.0907 116.987 52.108 117.622 52.8547C118.257 53.6014 119.115 53.9747 120.198 53.9747ZM142.906 57.2507C141.917 57.2507 141.03 57.064 140.246 56.6907C139.481 56.2987 138.874 55.776 138.426 55.1227C137.997 54.4694 137.782 53.732 137.782 52.9107C137.782 51.9027 138.043 51.1094 138.566 50.5307C139.089 49.9334 139.938 49.504 141.114 49.2427C142.29 48.9814 143.867 48.8507 145.846 48.8507H147.246V50.8667H145.874C144.717 50.8667 143.793 50.9227 143.102 51.0347C142.411 51.1467 141.917 51.3427 141.618 51.6227C141.338 51.884 141.198 52.2574 141.198 52.7427C141.198 53.3587 141.413 53.8627 141.842 54.2547C142.271 54.6467 142.869 54.8427 143.634 54.8427C144.25 54.8427 144.791 54.7027 145.258 54.4227C145.743 54.124 146.126 53.7227 146.406 53.2187C146.686 52.7147 146.826 52.136 146.826 51.4827V48.2627C146.826 47.3294 146.621 46.6574 146.21 46.2467C145.799 45.836 145.109 45.6307 144.138 45.6307C143.597 45.6307 143.009 45.696 142.374 45.8267C141.758 45.9574 141.105 46.1814 140.414 46.4987C140.059 46.6667 139.742 46.7134 139.462 46.6387C139.201 46.564 138.995 46.4147 138.846 46.1907C138.697 45.948 138.622 45.6867 138.622 45.4067C138.622 45.1267 138.697 44.856 138.846 44.5947C138.995 44.3147 139.247 44.1094 139.602 43.9787C140.461 43.624 141.282 43.372 142.066 43.2227C142.869 43.0734 143.597 42.9987 144.25 42.9987C145.594 42.9987 146.695 43.204 147.554 43.6147C148.431 44.0254 149.085 44.6507 149.514 45.4907C149.943 46.312 150.158 47.376 150.158 48.6827V55.4027C150.158 55.9814 150.018 56.4294 149.738 56.7467C149.458 57.0454 149.057 57.1947 148.534 57.1947C148.011 57.1947 147.601 57.0454 147.302 56.7467C147.022 56.4294 146.882 55.9814 146.882 55.4027V54.0587H147.106C146.975 54.712 146.714 55.2814 146.322 55.7667C145.949 56.2334 145.473 56.5974 144.894 56.8587C144.315 57.12 143.653 57.2507 142.906 57.2507ZM155.447 57.1947C154.887 57.1947 154.457 57.0454 154.159 56.7467C153.86 56.4294 153.711 55.9814 153.711 55.4027V44.8187C153.711 44.24 153.86 43.8014 154.159 43.5027C154.457 43.204 154.877 43.0547 155.419 43.0547C155.96 43.0547 156.38 43.204 156.679 43.5027C156.977 43.8014 157.127 44.24 157.127 44.8187V46.7227L156.819 46.0227C157.229 45.0334 157.864 44.2867 158.723 43.7827C159.6 43.26 160.589 42.9987 161.691 42.9987C162.792 42.9987 163.697 43.204 164.407 43.6147C165.116 44.0254 165.648 44.6507 166.003 45.4907C166.357 46.312 166.535 47.3574 166.535 48.6267V55.4027C166.535 55.9814 166.385 56.4294 166.087 56.7467C165.788 57.0454 165.359 57.1947 164.799 57.1947C164.239 57.1947 163.8 57.0454 163.483 56.7467C163.184 56.4294 163.035 55.9814 163.035 55.4027V48.7947C163.035 47.7307 162.829 46.956 162.419 46.4707C162.027 45.9854 161.411 45.7427 160.571 45.7427C159.544 45.7427 158.723 46.0694 158.107 46.7227C157.509 47.3574 157.211 48.2067 157.211 49.2707V55.4027C157.211 56.5974 156.623 57.1947 155.447 57.1947ZM171.882 57.1947C171.322 57.1947 170.892 57.0454 170.594 56.7467C170.295 56.4294 170.146 55.9814 170.146 55.4027V44.8187C170.146 44.24 170.295 43.8014 170.594 43.5027C170.892 43.204 171.312 43.0547 171.854 43.0547C172.395 43.0547 172.815 43.204 173.114 43.5027C173.412 43.8014 173.562 44.24 173.562 44.8187V46.8627L173.254 46.0227C173.627 45.0894 174.206 44.352 174.99 43.8107C175.774 43.2694 176.707 42.9987 177.79 42.9987C178.891 42.9987 179.796 43.26 180.506 43.7827C181.215 44.3054 181.71 45.108 181.99 46.1907H181.598C181.971 45.2014 182.587 44.4267 183.446 43.8667C184.304 43.288 185.294 42.9987 186.414 42.9987C187.459 42.9987 188.318 43.204 188.99 43.6147C189.68 44.0254 190.194 44.6507 190.53 45.4907C190.866 46.312 191.034 47.3574 191.034 48.6267V55.4027C191.034 55.9814 190.875 56.4294 190.558 56.7467C190.259 57.0454 189.83 57.1947 189.27 57.1947C188.71 57.1947 188.28 57.0454 187.982 56.7467C187.683 56.4294 187.534 55.9814 187.534 55.4027V48.7667C187.534 47.7214 187.356 46.956 187.002 46.4707C186.666 45.9854 186.087 45.7427 185.266 45.7427C184.351 45.7427 183.632 46.0694 183.11 46.7227C182.587 47.3574 182.326 48.244 182.326 49.3827V55.4027C182.326 55.9814 182.176 56.4294 181.878 56.7467C181.579 57.0454 181.15 57.1947 180.59 57.1947C180.03 57.1947 179.591 57.0454 179.274 56.7467C178.975 56.4294 178.826 55.9814 178.826 55.4027V48.7667C178.826 47.7214 178.648 46.956 178.294 46.4707C177.958 45.9854 177.388 45.7427 176.586 45.7427C175.671 45.7427 174.952 46.0694 174.43 46.7227C173.907 47.3574 173.646 48.244 173.646 49.3827V55.4027C173.646 56.5974 173.058 57.1947 171.882 57.1947ZM200.888 57.2507C199.47 57.2507 198.238 56.9614 197.192 56.3827C196.147 55.804 195.335 54.9827 194.756 53.9187C194.178 52.836 193.888 51.5667 193.888 50.1107C193.888 49.0094 194.047 48.0294 194.364 47.1707C194.7 46.2934 195.176 45.5467 195.792 44.9307C196.408 44.296 197.146 43.82 198.004 43.5027C198.863 43.1667 199.824 42.9987 200.888 42.9987C202.307 42.9987 203.539 43.288 204.584 43.8667C205.63 44.4454 206.442 45.2667 207.02 46.3307C207.599 47.3947 207.888 48.6547 207.888 50.1107C207.888 51.212 207.72 52.2014 207.384 53.0787C207.067 53.956 206.6 54.712 205.984 55.3467C205.368 55.9627 204.631 56.4387 203.772 56.7747C202.914 57.092 201.952 57.2507 200.888 57.2507ZM200.888 54.5907C201.579 54.5907 202.186 54.4227 202.708 54.0867C203.231 53.7507 203.632 53.256 203.912 52.6027C204.211 51.9307 204.36 51.1 204.36 50.1107C204.36 48.6174 204.043 47.5067 203.408 46.7787C202.774 46.032 201.934 45.6587 200.888 45.6587C200.198 45.6587 199.591 45.8267 199.068 46.1627C198.546 46.48 198.135 46.9747 197.836 47.6467C197.556 48.3 197.416 49.1214 197.416 50.1107C197.416 51.5854 197.734 52.7054 198.368 53.4707C199.003 54.2174 199.843 54.5907 200.888 54.5907ZM216.041 57.2507C214.846 57.2507 213.792 56.9614 212.877 56.3827C211.981 55.804 211.281 54.9827 210.777 53.9187C210.273 52.836 210.021 51.5667 210.021 50.1107C210.021 48.636 210.273 47.376 210.777 46.3307C211.281 45.2667 211.981 44.4454 212.877 43.8667C213.792 43.288 214.846 42.9987 216.041 42.9987C217.18 42.9987 218.169 43.2787 219.009 43.8387C219.868 44.3987 220.446 45.136 220.745 46.0507H220.437V38.7707C220.437 38.192 220.586 37.7534 220.885 37.4547C221.184 37.156 221.613 37.0067 222.173 37.0067C222.733 37.0067 223.162 37.156 223.461 37.4547C223.778 37.7534 223.937 38.192 223.937 38.7707V55.4027C223.937 55.9814 223.788 56.4294 223.489 56.7467C223.19 57.0454 222.761 57.1947 222.201 57.1947C221.641 57.1947 221.212 57.0454 220.913 56.7467C220.614 56.4294 220.465 55.9814 220.465 55.4027V53.2187L220.773 54.0587C220.493 55.0294 219.924 55.804 219.065 56.3827C218.206 56.9614 217.198 57.2507 216.041 57.2507ZM217.021 54.5907C217.712 54.5907 218.318 54.4227 218.841 54.0867C219.364 53.7507 219.765 53.256 220.045 52.6027C220.344 51.9307 220.493 51.1 220.493 50.1107C220.493 48.6174 220.176 47.5067 219.541 46.7787C218.906 46.032 218.066 45.6587 217.021 45.6587C216.33 45.6587 215.724 45.8267 215.201 46.1627C214.678 46.48 214.268 46.9747 213.969 47.6467C213.689 48.3 213.549 49.1214 213.549 50.1107C213.549 51.5854 213.866 52.7054 214.501 53.4707C215.136 54.2174 215.976 54.5907 217.021 54.5907ZM234.314 57.2507C232.765 57.2507 231.43 56.9614 230.31 56.3827C229.19 55.804 228.322 54.9827 227.706 53.9187C227.109 52.8547 226.81 51.5947 226.81 50.1387C226.81 48.72 227.099 47.4787 227.678 46.4147C228.275 45.3507 229.087 44.52 230.114 43.9227C231.159 43.3067 232.345 42.9987 233.67 42.9987C234.641 42.9987 235.509 43.1574 236.274 43.4747C237.058 43.792 237.721 44.2494 238.262 44.8467C238.822 45.444 239.242 46.172 239.522 47.0307C239.821 47.8707 239.97 48.8227 239.97 49.8867C239.97 50.2227 239.849 50.484 239.606 50.6707C239.382 50.8387 239.055 50.9227 238.626 50.9227H229.638V48.9067H237.506L237.058 49.3267C237.058 48.468 236.927 47.7494 236.666 47.1707C236.423 46.592 236.059 46.1534 235.574 45.8547C235.107 45.5374 234.519 45.3787 233.81 45.3787C233.026 45.3787 232.354 45.5654 231.794 45.9387C231.253 46.2934 230.833 46.8067 230.534 47.4787C230.254 48.132 230.114 48.916 230.114 49.8307V50.0267C230.114 51.5574 230.469 52.7054 231.178 53.4707C231.906 54.2174 232.97 54.5907 234.37 54.5907C234.855 54.5907 235.397 54.5347 235.994 54.4227C236.61 54.292 237.189 54.0774 237.73 53.7787C238.122 53.5547 238.467 53.4614 238.766 53.4987C239.065 53.5174 239.298 53.62 239.466 53.8067C239.653 53.9934 239.765 54.2267 239.802 54.5067C239.839 54.768 239.783 55.0387 239.634 55.3187C239.503 55.5987 239.27 55.8414 238.934 56.0467C238.281 56.4574 237.525 56.7654 236.666 56.9707C235.826 57.1574 235.042 57.2507 234.314 57.2507ZM248.959 57.2507C247.746 57.2507 246.729 57.0454 245.907 56.6347C245.105 56.224 244.507 55.6267 244.115 54.8427C243.723 54.04 243.527 53.0507 243.527 51.8747V45.9107H242.071C241.623 45.9107 241.278 45.7987 241.035 45.5747C240.793 45.332 240.671 45.0054 240.671 44.5947C240.671 44.1654 240.793 43.8387 241.035 43.6147C241.278 43.3907 241.623 43.2787 242.071 43.2787H243.527V40.7307C243.527 40.152 243.677 39.7134 243.975 39.4147C244.293 39.116 244.731 38.9667 245.291 38.9667C245.851 38.9667 246.281 39.116 246.579 39.4147C246.878 39.7134 247.027 40.152 247.027 40.7307V43.2787H249.995C250.443 43.2787 250.789 43.3907 251.031 43.6147C251.274 43.8387 251.395 44.1654 251.395 44.5947C251.395 45.0054 251.274 45.332 251.031 45.5747C250.789 45.7987 250.443 45.9107 249.995 45.9107H247.027V51.6787C247.027 52.5747 247.223 53.2467 247.615 53.6947C248.007 54.1427 248.642 54.3667 249.519 54.3667C249.837 54.3667 250.117 54.3387 250.359 54.2827C250.602 54.2267 250.817 54.1894 251.003 54.1707C251.227 54.152 251.414 54.2267 251.563 54.3947C251.713 54.544 251.787 54.8614 251.787 55.3467C251.787 55.72 251.722 56.056 251.591 56.3547C251.479 56.6347 251.265 56.8307 250.947 56.9427C250.705 57.0174 250.387 57.0827 249.995 57.1387C249.603 57.2134 249.258 57.2507 248.959 57.2507ZM255.168 51.2867C254.813 51.2867 254.533 51.1747 254.328 50.9507C254.141 50.7267 254.029 50.4094 253.992 49.9987L253.152 39.3027C253.096 38.612 253.245 38.0614 253.6 37.6507C253.955 37.2214 254.477 37.0067 255.168 37.0067C255.84 37.0067 256.344 37.2214 256.68 37.6507C257.035 38.0614 257.184 38.612 257.128 39.3027L256.288 49.9987C256.269 50.4094 256.157 50.7267 255.952 50.9507C255.765 51.1747 255.504 51.2867 255.168 51.2867ZM255.168 57.1107C254.533 57.1107 254.02 56.9147 253.628 56.5227C253.255 56.1307 253.068 55.6267 253.068 55.0107C253.068 54.4134 253.255 53.928 253.628 53.5547C254.02 53.1627 254.533 52.9667 255.168 52.9667C255.821 52.9667 256.325 53.1627 256.68 53.5547C257.053 53.928 257.24 54.4134 257.24 55.0107C257.24 55.6267 257.053 56.1307 256.68 56.5227C256.325 56.9147 255.821 57.1107 255.168 57.1107Z" fill="black"/>
<defs>
<filter id="filter0_dddd_342_933" x="0" y="0" width="284" height="140" filterUnits="userSpaceOnUse" color-interpolation-filters="sRGB">
<feFlood flood-opacity="0" result="BackgroundImageFix"/>
<feColorMatrix in="SourceAlpha" type="matrix" values="0 0 0 0 0 0 0 0 0 0 0 0 0 0 0 0 0 0 127 0" result="hardAlpha"/>
<feOffset dy="-4"/>
<feGaussianBlur stdDeviation="2"/>
<feComposite in2="hardAlpha" operator="out"/>
<feColorMatrix type="matrix" values="0 0 0 0 0 0 0 0 0 0 0 0 0 0 0 0 0 0 0.12 0"/>
<feBlend mode="normal" in2="BackgroundImageFix" result="effect1_dropShadow_342_933"/>
<feColorMatrix in="SourceAlpha" type="matrix" values="0 0 0 0 0 0 0 0 0 0 0 0 0 0 0 0 0 0 127 0" result="hardAlpha"/>
<feOffset dx="4"/>
<feGaussianBlur stdDeviation="2"/>
<feComposite in2="hardAlpha" operator="out"/>
<feColorMatrix type="matrix" values="0 0 0 0 0 0 0 0 0 0 0 0 0 0 0 0 0 0 0.12 0"/>
<feBlend mode="normal" in2="effect1_dropShadow_342_933" result="effect2_dropShadow_342_933"/>
<feColorMatrix in="SourceAlpha" type="matrix" values="0 0 0 0 0 0 0 0 0 0 0 0 0 0 0 0 0 0 127 0" result="hardAlpha"/>
<feOffset dy="4"/>
<feGaussianBlur stdDeviation="2"/>
<feComposite in2="hardAlpha" operator="out"/>
<feColorMatrix type="matrix" values="0 0 0 0 0 0 0 0 0 0 0 0 0 0 0 0 0 0 0.25 0"/>
<feBlend mode="normal" in2="effect2_dropShadow_342_933" result="effect3_dropShadow_342_933"/>
<feColorMatrix in="SourceAlpha" type="matrix" values="0 0 0 0 0 0 0 0 0 0 0 0 0 0 0 0 0 0 127 0" result="hardAlpha"/>
<feOffset dx="-4"/>
<feGaussianBlur stdDeviation="2"/>
<feComposite in2="hardAlpha" operator="out"/>
<feColorMatrix type="matrix" values="0 0 0 0 0 0 0 0 0 0 0 0 0 0 0 0 0 0 0.12 0"/>
<feBlend mode="normal" in2="effect3_dropShadow_342_933" result="effect4_dropShadow_342_933"/>
<feBlend mode="normal" in="SourceGraphic" in2="effect4_dropShadow_342_933" result="shape"/>
</filter>
</defs>
</svg>
