<svg width="284" height="140" viewBox="0 0 284 140" fill="none" xmlns="http://www.w3.org/2000/svg">
<g filter="url(#filter0_d_342_948)">
<g filter="url(#filter1_dddd_342_948)">
<rect x="8" y="8" width="268" height="124" rx="15" fill="white"/>
</g>
<path d="M28.352 57.1947C27.904 57.1947 27.54 57.092 27.26 56.8867C26.9987 56.6814 26.84 56.4107 26.784 56.0747C26.728 55.72 26.7933 55.328 26.98 54.8987L34.372 38.5187C34.6147 37.9774 34.904 37.5947 35.24 37.3707C35.5947 37.128 35.996 37.0067 36.444 37.0067C36.8733 37.0067 37.256 37.128 37.592 37.3707C37.9467 37.5947 38.2453 37.9774 38.488 38.5187L45.908 54.8987C46.1133 55.328 46.188 55.72 46.132 56.0747C46.076 56.4294 45.9173 56.7094 45.656 56.9147C45.3947 57.1014 45.0493 57.1947 44.62 57.1947C44.0973 57.1947 43.6867 57.0734 43.388 56.8307C43.108 56.5694 42.856 56.1774 42.632 55.6547L40.812 51.4267L42.324 52.4067H30.508L32.02 51.4267L30.228 55.6547C29.9853 56.196 29.7333 56.588 29.472 56.8307C29.2107 57.0734 28.8373 57.1947 28.352 57.1947ZM36.388 41.1227L32.468 50.4467L31.74 49.5507H41.092L40.392 50.4467L36.444 41.1227H36.388ZM53.7832 57.2507C52.5886 57.2507 51.5339 56.9614 50.6192 56.3827C49.7232 55.804 49.0232 54.9827 48.5192 53.9187C48.0152 52.836 47.7632 51.5667 47.7632 50.1107C47.7632 48.636 48.0152 47.376 48.5192 46.3307C49.0232 45.2667 49.7232 44.4454 50.6192 43.8667C51.5339 43.288 52.5886 42.9987 53.7832 42.9987C54.9219 42.9987 55.9112 43.2787 56.7512 43.8387C57.6099 44.3987 58.1886 45.136 58.4872 46.0507H58.1792V38.7707C58.1792 38.192 58.3286 37.7534 58.6272 37.4547C58.9259 37.156 59.3552 37.0067 59.9152 37.0067C60.4752 37.0067 60.9046 37.156 61.2032 37.4547C61.5206 37.7534 61.6792 38.192 61.6792 38.7707V55.4027C61.6792 55.9814 61.5299 56.4294 61.2312 56.7467C60.9326 57.0454 60.5032 57.1947 59.9432 57.1947C59.3832 57.1947 58.9539 57.0454 58.6552 56.7467C58.3566 56.4294 58.2072 55.9814 58.2072 55.4027V53.2187L58.5152 54.0587C58.2352 55.0294 57.6659 55.804 56.8072 56.3827C55.9486 56.9614 54.9406 57.2507 53.7832 57.2507ZM54.7632 54.5907C55.4539 54.5907 56.0606 54.4227 56.5832 54.0867C57.1059 53.7507 57.5072 53.256 57.7872 52.6027C58.0859 51.9307 58.2352 51.1 58.2352 50.1107C58.2352 48.6174 57.9179 47.5067 57.2832 46.7787C56.6486 46.032 55.8086 45.6587 54.7632 45.6587C54.0726 45.6587 53.4659 45.8267 52.9432 46.1627C52.4206 46.48 52.0099 46.9747 51.7112 47.6467C51.4312 48.3 51.2912 49.1214 51.2912 50.1107C51.2912 51.5854 51.6086 52.7054 52.2432 53.4707C52.8779 54.2174 53.7179 54.5907 54.7632 54.5907ZM71.6923 62.2907C70.6843 62.2907 69.7043 62.1974 68.7523 62.0107C67.8189 61.824 66.9696 61.5347 66.2043 61.1427C65.8496 60.956 65.6069 60.732 65.4763 60.4707C65.3643 60.2094 65.3269 59.9387 65.3643 59.6587C65.4203 59.3974 65.5323 59.164 65.7003 58.9587C65.8869 58.7534 66.1109 58.6134 66.3723 58.5387C66.6336 58.464 66.9043 58.5014 67.1843 58.6507C68.0056 59.0614 68.7803 59.3227 69.5083 59.4347C70.2549 59.5654 70.8896 59.6307 71.4123 59.6307C72.6629 59.6307 73.5963 59.3227 74.2123 58.7067C74.8469 58.1094 75.1643 57.2134 75.1643 56.0187V53.4987H75.4163C75.1363 54.4507 74.5483 55.216 73.6523 55.7947C72.7749 56.3547 71.7763 56.6347 70.6563 56.6347C69.4243 56.6347 68.3509 56.3547 67.4363 55.7947C66.5216 55.216 65.8123 54.4134 65.3083 53.3867C64.8043 52.36 64.5523 51.1654 64.5523 49.8027C64.5523 48.776 64.6923 47.852 64.9723 47.0307C65.2709 46.1907 65.6816 45.472 66.2043 44.8747C66.7456 44.2774 67.3896 43.82 68.1363 43.5027C68.9016 43.1667 69.7416 42.9987 70.6563 42.9987C71.8136 42.9987 72.8216 43.288 73.6803 43.8667C74.5576 44.4267 75.1269 45.1734 75.3883 46.1067L75.1083 46.8067V44.8187C75.1083 44.24 75.2576 43.8014 75.5563 43.5027C75.8736 43.204 76.3029 43.0547 76.8443 43.0547C77.4043 43.0547 77.8336 43.204 78.1323 43.5027C78.4309 43.8014 78.5803 44.24 78.5803 44.8187V55.5987C78.5803 57.82 77.9923 59.4907 76.8163 60.6107C75.6403 61.7307 73.9323 62.2907 71.6923 62.2907ZM71.6083 53.9747C72.3363 53.9747 72.9616 53.8067 73.4843 53.4707C74.0069 53.1347 74.4083 52.6587 74.6883 52.0427C74.9869 51.408 75.1363 50.6614 75.1363 49.8027C75.1363 48.5147 74.8189 47.5067 74.1843 46.7787C73.5496 46.032 72.6909 45.6587 71.6083 45.6587C70.8803 45.6587 70.2549 45.8267 69.7323 46.1627C69.2096 46.4987 68.7989 46.9747 68.5003 47.5907C68.2203 48.2067 68.0803 48.944 68.0803 49.8027C68.0803 51.0907 68.3976 52.108 69.0323 52.8547C69.6669 53.6014 70.5256 53.9747 71.6083 53.9747ZM86.7147 57.2507C85.7254 57.2507 84.8387 57.064 84.0547 56.6907C83.2894 56.2987 82.6827 55.776 82.2347 55.1227C81.8054 54.4694 81.5907 53.732 81.5907 52.9107C81.5907 51.9027 81.8521 51.1094 82.3747 50.5307C82.8974 49.9334 83.7467 49.504 84.9227 49.2427C86.0987 48.9814 87.6761 48.8507 89.6547 48.8507H91.0547V50.8667H89.6827C88.5254 50.8667 87.6014 50.9227 86.9107 51.0347C86.2201 51.1467 85.7254 51.3427 85.4267 51.6227C85.1467 51.884 85.0067 52.2574 85.0067 52.7427C85.0067 53.3587 85.2214 53.8627 85.6507 54.2547C86.0801 54.6467 86.6774 54.8427 87.4427 54.8427C88.0587 54.8427 88.6001 54.7027 89.0667 54.4227C89.5521 54.124 89.9347 53.7227 90.2147 53.2187C90.4947 52.7147 90.6347 52.136 90.6347 51.4827V48.2627C90.6347 47.3294 90.4294 46.6574 90.0187 46.2467C89.6081 45.836 88.9174 45.6307 87.9467 45.6307C87.4054 45.6307 86.8174 45.696 86.1827 45.8267C85.5667 45.9574 84.9134 46.1814 84.2227 46.4987C83.8681 46.6667 83.5507 46.7134 83.2707 46.6387C83.0094 46.564 82.8041 46.4147 82.6547 46.1907C82.5054 45.948 82.4307 45.6867 82.4307 45.4067C82.4307 45.1267 82.5054 44.856 82.6547 44.5947C82.8041 44.3147 83.0561 44.1094 83.4107 43.9787C84.2694 43.624 85.0907 43.372 85.8747 43.2227C86.6774 43.0734 87.4054 42.9987 88.0587 42.9987C89.4027 42.9987 90.5041 43.204 91.3627 43.6147C92.2401 44.0254 92.8934 44.6507 93.3227 45.4907C93.7521 46.312 93.9667 47.376 93.9667 48.6827V55.4027C93.9667 55.9814 93.8267 56.4294 93.5467 56.7467C93.2667 57.0454 92.8654 57.1947 92.3427 57.1947C91.8201 57.1947 91.4094 57.0454 91.1107 56.7467C90.8307 56.4294 90.6907 55.9814 90.6907 55.4027V54.0587H90.9147C90.7841 54.712 90.5227 55.2814 90.1307 55.7667C89.7574 56.2334 89.2814 56.5974 88.7027 56.8587C88.1241 57.12 87.4614 57.2507 86.7147 57.2507ZM99.2552 57.1947C98.6952 57.1947 98.2659 57.0454 97.9672 56.7467C97.6686 56.4294 97.5192 55.9814 97.5192 55.4027V44.8187C97.5192 44.24 97.6686 43.8014 97.9672 43.5027C98.2659 43.204 98.6859 43.0547 99.2272 43.0547C99.7686 43.0547 100.189 43.204 100.487 43.5027C100.786 43.8014 100.935 44.24 100.935 44.8187V46.7227L100.627 46.0227C101.038 45.0334 101.673 44.2867 102.531 43.7827C103.409 43.26 104.398 42.9987 105.499 42.9987C106.601 42.9987 107.506 43.204 108.215 43.6147C108.925 44.0254 109.457 44.6507 109.811 45.4907C110.166 46.312 110.343 47.3574 110.343 48.6267V55.4027C110.343 55.9814 110.194 56.4294 109.895 56.7467C109.597 57.0454 109.167 57.1947 108.607 57.1947C108.047 57.1947 107.609 57.0454 107.291 56.7467C106.993 56.4294 106.843 55.9814 106.843 55.4027V48.7947C106.843 47.7307 106.638 46.956 106.227 46.4707C105.835 45.9854 105.219 45.7427 104.379 45.7427C103.353 45.7427 102.531 46.0694 101.915 46.7227C101.318 47.3574 101.019 48.2067 101.019 49.2707V55.4027C101.019 56.5974 100.431 57.1947 99.2552 57.1947ZM120.282 62.2907C119.274 62.2907 118.294 62.1974 117.342 62.0107C116.409 61.824 115.559 61.5347 114.794 61.1427C114.439 60.956 114.197 60.732 114.066 60.4707C113.954 60.2094 113.917 59.9387 113.954 59.6587C114.01 59.3974 114.122 59.164 114.29 58.9587C114.477 58.7534 114.701 58.6134 114.962 58.5387C115.223 58.464 115.494 58.5014 115.774 58.6507C116.595 59.0614 117.37 59.3227 118.098 59.4347C118.845 59.5654 119.479 59.6307 120.002 59.6307C121.253 59.6307 122.186 59.3227 122.802 58.7067C123.437 58.1094 123.754 57.2134 123.754 56.0187V53.4987H124.006C123.726 54.4507 123.138 55.216 122.242 55.7947C121.365 56.3547 120.366 56.6347 119.246 56.6347C118.014 56.6347 116.941 56.3547 116.026 55.7947C115.111 55.216 114.402 54.4134 113.898 53.3867C113.394 52.36 113.142 51.1654 113.142 49.8027C113.142 48.776 113.282 47.852 113.562 47.0307C113.861 46.1907 114.271 45.472 114.794 44.8747C115.335 44.2774 115.979 43.82 116.726 43.5027C117.491 43.1667 118.331 42.9987 119.246 42.9987C120.403 42.9987 121.411 43.288 122.27 43.8667C123.147 44.4267 123.717 45.1734 123.978 46.1067L123.698 46.8067V44.8187C123.698 44.24 123.847 43.8014 124.146 43.5027C124.463 43.204 124.893 43.0547 125.434 43.0547C125.994 43.0547 126.423 43.204 126.722 43.5027C127.021 43.8014 127.17 44.24 127.17 44.8187V55.5987C127.17 57.82 126.582 59.4907 125.406 60.6107C124.23 61.7307 122.522 62.2907 120.282 62.2907ZM120.198 53.9747C120.926 53.9747 121.551 53.8067 122.074 53.4707C122.597 53.1347 122.998 52.6587 123.278 52.0427C123.577 51.408 123.726 50.6614 123.726 49.8027C123.726 48.5147 123.409 47.5067 122.774 46.7787C122.139 46.032 121.281 45.6587 120.198 45.6587C119.47 45.6587 118.845 45.8267 118.322 46.1627C117.799 46.4987 117.389 46.9747 117.09 47.5907C116.81 48.2067 116.67 48.944 116.67 49.8027C116.67 51.0907 116.987 52.108 117.622 52.8547C118.257 53.6014 119.115 53.9747 120.198 53.9747ZM142.906 57.2507C141.917 57.2507 141.03 57.064 140.246 56.6907C139.481 56.2987 138.874 55.776 138.426 55.1227C137.997 54.4694 137.782 53.732 137.782 52.9107C137.782 51.9027 138.043 51.1094 138.566 50.5307C139.089 49.9334 139.938 49.504 141.114 49.2427C142.29 48.9814 143.867 48.8507 145.846 48.8507H147.246V50.8667H145.874C144.717 50.8667 143.793 50.9227 143.102 51.0347C142.411 51.1467 141.917 51.3427 141.618 51.6227C141.338 51.884 141.198 52.2574 141.198 52.7427C141.198 53.3587 141.413 53.8627 141.842 54.2547C142.271 54.6467 142.869 54.8427 143.634 54.8427C144.25 54.8427 144.791 54.7027 145.258 54.4227C145.743 54.124 146.126 53.7227 146.406 53.2187C146.686 52.7147 146.826 52.136 146.826 51.4827V48.2627C146.826 47.3294 146.621 46.6574 146.21 46.2467C145.799 45.836 145.109 45.6307 144.138 45.6307C143.597 45.6307 143.009 45.696 142.374 45.8267C141.758 45.9574 141.105 46.1814 140.414 46.4987C140.059 46.6667 139.742 46.7134 139.462 46.6387C139.201 46.564 138.995 46.4147 138.846 46.1907C138.697 45.948 138.622 45.6867 138.622 45.4067C138.622 45.1267 138.697 44.856 138.846 44.5947C138.995 44.3147 139.247 44.1094 139.602 43.9787C140.461 43.624 141.282 43.372 142.066 43.2227C142.869 43.0734 143.597 42.9987 144.25 42.9987C145.594 42.9987 146.695 43.204 147.554 43.6147C148.431 44.0254 149.085 44.6507 149.514 45.4907C149.943 46.312 150.158 47.376 150.158 48.6827V55.4027C150.158 55.9814 150.018 56.4294 149.738 56.7467C149.458 57.0454 149.057 57.1947 148.534 57.1947C148.011 57.1947 147.601 57.0454 147.302 56.7467C147.022 56.4294 146.882 55.9814 146.882 55.4027V54.0587H147.106C146.975 54.712 146.714 55.2814 146.322 55.7667C145.949 56.2334 145.473 56.5974 144.894 56.8587C144.315 57.12 143.653 57.2507 142.906 57.2507ZM155.447 57.1947C154.887 57.1947 154.457 57.0454 154.159 56.7467C153.86 56.4294 153.711 55.9814 153.711 55.4027V44.8187C153.711 44.24 153.86 43.8014 154.159 43.5027C154.457 43.204 154.877 43.0547 155.419 43.0547C155.96 43.0547 156.38 43.204 156.679 43.5027C156.977 43.8014 157.127 44.24 157.127 44.8187V46.7227L156.819 46.0227C157.229 45.0334 157.864 44.2867 158.723 43.7827C159.6 43.26 160.589 42.9987 161.691 42.9987C162.792 42.9987 163.697 43.204 164.407 43.6147C165.116 44.0254 165.648 44.6507 166.003 45.4907C166.357 46.312 166.535 47.3574 166.535 48.6267V55.4027C166.535 55.9814 166.385 56.4294 166.087 56.7467C165.788 57.0454 165.359 57.1947 164.799 57.1947C164.239 57.1947 163.8 57.0454 163.483 56.7467C163.184 56.4294 163.035 55.9814 163.035 55.4027V48.7947C163.035 47.7307 162.829 46.956 162.419 46.4707C162.027 45.9854 161.411 45.7427 160.571 45.7427C159.544 45.7427 158.723 46.0694 158.107 46.7227C157.509 47.3574 157.211 48.2067 157.211 49.2707V55.4027C157.211 56.5974 156.623 57.1947 155.447 57.1947ZM171.882 57.1947C171.322 57.1947 170.892 57.0454 170.594 56.7467C170.295 56.4294 170.146 55.9814 170.146 55.4027V44.8187C170.146 44.24 170.295 43.8014 170.594 43.5027C170.892 43.204 171.312 43.0547 171.854 43.0547C172.395 43.0547 172.815 43.204 173.114 43.5027C173.412 43.8014 173.562 44.24 173.562 44.8187V46.8627L173.254 46.0227C173.627 45.0894 174.206 44.352 174.99 43.8107C175.774 43.2694 176.707 42.9987 177.79 42.9987C178.891 42.9987 179.796 43.26 180.506 43.7827C181.215 44.3054 181.71 45.108 181.99 46.1907H181.598C181.971 45.2014 182.587 44.4267 183.446 43.8667C184.304 43.288 185.294 42.9987 186.414 42.9987C187.459 42.9987 188.318 43.204 188.99 43.6147C189.68 44.0254 190.194 44.6507 190.53 45.4907C190.866 46.312 191.034 47.3574 191.034 48.6267V55.4027C191.034 55.9814 190.875 56.4294 190.558 56.7467C190.259 57.0454 189.83 57.1947 189.27 57.1947C188.71 57.1947 188.28 57.0454 187.982 56.7467C187.683 56.4294 187.534 55.9814 187.534 55.4027V48.7667C187.534 47.7214 187.356 46.956 187.002 46.4707C186.666 45.9854 186.087 45.7427 185.266 45.7427C184.351 45.7427 183.632 46.0694 183.11 46.7227C182.587 47.3574 182.326 48.244 182.326 49.3827V55.4027C182.326 55.9814 182.176 56.4294 181.878 56.7467C181.579 57.0454 181.15 57.1947 180.59 57.1947C180.03 57.1947 179.591 57.0454 179.274 56.7467C178.975 56.4294 178.826 55.9814 178.826 55.4027V48.7667C178.826 47.7214 178.648 46.956 178.294 46.4707C177.958 45.9854 177.388 45.7427 176.586 45.7427C175.671 45.7427 174.952 46.0694 174.43 46.7227C173.907 47.3574 173.646 48.244 173.646 49.3827V55.4027C173.646 56.5974 173.058 57.1947 171.882 57.1947ZM200.888 57.2507C199.47 57.2507 198.238 56.9614 197.192 56.3827C196.147 55.804 195.335 54.9827 194.756 53.9187C194.178 52.836 193.888 51.5667 193.888 50.1107C193.888 49.0094 194.047 48.0294 194.364 47.1707C194.7 46.2934 195.176 45.5467 195.792 44.9307C196.408 44.296 197.146 43.82 198.004 43.5027C198.863 43.1667 199.824 42.9987 200.888 42.9987C202.307 42.9987 203.539 43.288 204.584 43.8667C205.63 44.4454 206.442 45.2667 207.02 46.3307C207.599 47.3947 207.888 48.6547 207.888 50.1107C207.888 51.212 207.72 52.2014 207.384 53.0787C207.067 53.956 206.6 54.712 205.984 55.3467C205.368 55.9627 204.631 56.4387 203.772 56.7747C202.914 57.092 201.952 57.2507 200.888 57.2507ZM200.888 54.5907C201.579 54.5907 202.186 54.4227 202.708 54.0867C203.231 53.7507 203.632 53.256 203.912 52.6027C204.211 51.9307 204.36 51.1 204.36 50.1107C204.36 48.6174 204.043 47.5067 203.408 46.7787C202.774 46.032 201.934 45.6587 200.888 45.6587C200.198 45.6587 199.591 45.8267 199.068 46.1627C198.546 46.48 198.135 46.9747 197.836 47.6467C197.556 48.3 197.416 49.1214 197.416 50.1107C197.416 51.5854 197.734 52.7054 198.368 53.4707C199.003 54.2174 199.843 54.5907 200.888 54.5907ZM216.041 57.2507C214.846 57.2507 213.792 56.9614 212.877 56.3827C211.981 55.804 211.281 54.9827 210.777 53.9187C210.273 52.836 210.021 51.5667 210.021 50.1107C210.021 48.636 210.273 47.376 210.777 46.3307C211.281 45.2667 211.981 44.4454 212.877 43.8667C213.792 43.288 214.846 42.9987 216.041 42.9987C217.18 42.9987 218.169 43.2787 219.009 43.8387C219.868 44.3987 220.446 45.136 220.745 46.0507H220.437V38.7707C220.437 38.192 220.586 37.7534 220.885 37.4547C221.184 37.156 221.613 37.0067 222.173 37.0067C222.733 37.0067 223.162 37.156 223.461 37.4547C223.778 37.7534 223.937 38.192 223.937 38.7707V55.4027C223.937 55.9814 223.788 56.4294 223.489 56.7467C223.19 57.0454 222.761 57.1947 222.201 57.1947C221.641 57.1947 221.212 57.0454 220.913 56.7467C220.614 56.4294 220.465 55.9814 220.465 55.4027V53.2187L220.773 54.0587C220.493 55.0294 219.924 55.804 219.065 56.3827C218.206 56.9614 217.198 57.2507 216.041 57.2507ZM217.021 54.5907C217.712 54.5907 218.318 54.4227 218.841 54.0867C219.364 53.7507 219.765 53.256 220.045 52.6027C220.344 51.9307 220.493 51.1 220.493 50.1107C220.493 48.6174 220.176 47.5067 219.541 46.7787C218.906 46.032 218.066 45.6587 217.021 45.6587C216.33 45.6587 215.724 45.8267 215.201 46.1627C214.678 46.48 214.268 46.9747 213.969 47.6467C213.689 48.3 213.549 49.1214 213.549 50.1107C213.549 51.5854 213.866 52.7054 214.501 53.4707C215.136 54.2174 215.976 54.5907 217.021 54.5907ZM234.314 57.2507C232.765 57.2507 231.43 56.9614 230.31 56.3827C229.19 55.804 228.322 54.9827 227.706 53.9187C227.109 52.8547 226.81 51.5947 226.81 50.1387C226.81 48.72 227.099 47.4787 227.678 46.4147C228.275 45.3507 229.087 44.52 230.114 43.9227C231.159 43.3067 232.345 42.9987 233.67 42.9987C234.641 42.9987 235.509 43.1574 236.274 43.4747C237.058 43.792 237.721 44.2494 238.262 44.8467C238.822 45.444 239.242 46.172 239.522 47.0307C239.821 47.8707 239.97 48.8227 239.97 49.8867C239.97 50.2227 239.849 50.484 239.606 50.6707C239.382 50.8387 239.055 50.9227 238.626 50.9227H229.638V48.9067H237.506L237.058 49.3267C237.058 48.468 236.927 47.7494 236.666 47.1707C236.423 46.592 236.059 46.1534 235.574 45.8547C235.107 45.5374 234.519 45.3787 233.81 45.3787C233.026 45.3787 232.354 45.5654 231.794 45.9387C231.253 46.2934 230.833 46.8067 230.534 47.4787C230.254 48.132 230.114 48.916 230.114 49.8307V50.0267C230.114 51.5574 230.469 52.7054 231.178 53.4707C231.906 54.2174 232.97 54.5907 234.37 54.5907C234.855 54.5907 235.397 54.5347 235.994 54.4227C236.61 54.292 237.189 54.0774 237.73 53.7787C238.122 53.5547 238.467 53.4614 238.766 53.4987C239.065 53.5174 239.298 53.62 239.466 53.8067C239.653 53.9934 239.765 54.2267 239.802 54.5067C239.839 54.768 239.783 55.0387 239.634 55.3187C239.503 55.5987 239.27 55.8414 238.934 56.0467C238.281 56.4574 237.525 56.7654 236.666 56.9707C235.826 57.1574 235.042 57.2507 234.314 57.2507ZM248.959 57.2507C247.746 57.2507 246.729 57.0454 245.907 56.6347C245.105 56.224 244.507 55.6267 244.115 54.8427C243.723 54.04 243.527 53.0507 243.527 51.8747V45.9107H242.071C241.623 45.9107 241.278 45.7987 241.035 45.5747C240.793 45.332 240.671 45.0054 240.671 44.5947C240.671 44.1654 240.793 43.8387 241.035 43.6147C241.278 43.3907 241.623 43.2787 242.071 43.2787H243.527V40.7307C243.527 40.152 243.677 39.7134 243.975 39.4147C244.293 39.116 244.731 38.9667 245.291 38.9667C245.851 38.9667 246.281 39.116 246.579 39.4147C246.878 39.7134 247.027 40.152 247.027 40.7307V43.2787H249.995C250.443 43.2787 250.789 43.3907 251.031 43.6147C251.274 43.8387 251.395 44.1654 251.395 44.5947C251.395 45.0054 251.274 45.332 251.031 45.5747C250.789 45.7987 250.443 45.9107 249.995 45.9107H247.027V51.6787C247.027 52.5747 247.223 53.2467 247.615 53.6947C248.007 54.1427 248.642 54.3667 249.519 54.3667C249.837 54.3667 250.117 54.3387 250.359 54.2827C250.602 54.2267 250.817 54.1894 251.003 54.1707C251.227 54.152 251.414 54.2267 251.563 54.3947C251.713 54.544 251.787 54.8614 251.787 55.3467C251.787 55.72 251.722 56.056 251.591 56.3547C251.479 56.6347 251.265 56.8307 250.947 56.9427C250.705 57.0174 250.387 57.0827 249.995 57.1387C249.603 57.2134 249.258 57.2507 248.959 57.2507ZM255.168 51.2867C254.813 51.2867 254.533 51.1747 254.328 50.9507C254.141 50.7267 254.029 50.4094 253.992 49.9987L253.152 39.3027C253.096 38.612 253.245 38.0614 253.6 37.6507C253.955 37.2214 254.477 37.0067 255.168 37.0067C255.84 37.0067 256.344 37.2214 256.68 37.6507C257.035 38.0614 257.184 38.612 257.128 39.3027L256.288 49.9987C256.269 50.4094 256.157 50.7267 255.952 50.9507C255.765 51.1747 255.504 51.2867 255.168 51.2867ZM255.168 57.1107C254.533 57.1107 254.02 56.9147 253.628 56.5227C253.255 56.1307 253.068 55.6267 253.068 55.0107C253.068 54.4134 253.255 53.928 253.628 53.5547C254.02 53.1627 254.533 52.9667 255.168 52.9667C255.821 52.9667 256.325 53.1627 256.68 53.5547C257.053 53.928 257.24 54.4134 257.24 55.0107C257.24 55.6267 257.053 56.1307 256.68 56.5227C256.325 56.9147 255.821 57.1107 255.168 57.1107Z" fill="black"/>
<rect x="64" y="80" width="156" height="31" rx="15" fill="black"/>
<path d="M86.1437 100C85.7917 100 85.5157 99.904 85.3157 99.712C85.1237 99.512 85.0277 99.236 85.0277 98.884V92.644C85.0277 92.284 85.1237 92.008 85.3157 91.816C85.5077 91.624 85.7797 91.528 86.1317 91.528C86.4917 91.528 86.7637 91.624 86.9477 91.816C87.1397 92.008 87.2357 92.284 87.2357 92.644V98.164H90.1637C90.4677 98.164 90.6997 98.244 90.8597 98.404C91.0277 98.556 91.1117 98.78 91.1117 99.076C91.1117 99.372 91.0277 99.6 90.8597 99.76C90.6997 99.92 90.4677 100 90.1637 100H86.1437ZM93.9941 100.132C93.4821 100.132 93.0621 100.04 92.7341 99.856C92.4061 99.664 92.1581 99.38 91.9901 99.004C91.8301 98.628 91.7501 98.152 91.7501 97.576V95.056C91.7501 94.704 91.8421 94.44 92.0261 94.264C92.2101 94.08 92.4741 93.988 92.8181 93.988C93.1621 93.988 93.4261 94.08 93.6101 94.264C93.7941 94.44 93.8861 94.704 93.8861 95.056V97.636C93.8861 97.924 93.9461 98.14 94.0661 98.284C94.1861 98.428 94.3741 98.5 94.6301 98.5C94.9181 98.5 95.1541 98.396 95.3381 98.188C95.5221 97.98 95.6141 97.704 95.6141 97.36V95.056C95.6141 94.704 95.7061 94.44 95.8901 94.264C96.0741 94.08 96.3381 93.988 96.6821 93.988C97.0261 93.988 97.2901 94.08 97.4741 94.264C97.6581 94.44 97.7501 94.704 97.7501 95.056V99.028C97.7501 99.748 97.4061 100.108 96.7181 100.108C96.3821 100.108 96.1221 100.016 95.9381 99.832C95.7541 99.648 95.6621 99.38 95.6621 99.028V98.332L95.8541 98.92C95.6781 99.312 95.4301 99.612 95.1101 99.82C94.7981 100.028 94.4261 100.132 93.9941 100.132ZM100.049 100.108C99.7131 100.108 99.4531 100.016 99.2691 99.832C99.0851 99.648 98.9931 99.38 98.9931 99.028V92.512C98.9931 92.16 99.0851 91.892 99.2691 91.708C99.4531 91.524 99.7131 91.432 100.049 91.432C100.393 91.432 100.657 91.524 100.841 91.708C101.033 91.892 101.129 92.16 101.129 92.512V96.472H101.153L102.617 94.696C102.817 94.456 103.001 94.28 103.169 94.168C103.345 94.048 103.581 93.988 103.877 93.988C104.173 93.988 104.401 94.06 104.561 94.204C104.721 94.348 104.805 94.528 104.813 94.744C104.821 94.96 104.733 95.176 104.549 95.392L102.965 97.264V96.52L104.741 98.752C104.917 98.976 104.989 99.196 104.957 99.412C104.925 99.62 104.821 99.788 104.645 99.916C104.477 100.044 104.261 100.108 103.997 100.108C103.677 100.108 103.421 100.052 103.229 99.94C103.037 99.82 102.845 99.636 102.653 99.388L101.153 97.54H101.129V99.028C101.129 99.748 100.769 100.108 100.049 100.108ZM110.444 100.108C110.108 100.108 109.848 100.016 109.664 99.832C109.48 99.648 109.388 99.38 109.388 99.028V95.056C109.388 94.712 109.476 94.448 109.652 94.264C109.836 94.08 110.096 93.988 110.432 93.988C110.768 93.988 111.024 94.08 111.2 94.264C111.376 94.448 111.464 94.712 111.464 95.056V95.62L111.332 95.128C111.524 94.752 111.796 94.464 112.148 94.264C112.508 94.064 112.916 93.964 113.372 93.964C113.844 93.964 114.232 94.056 114.536 94.24C114.84 94.416 115.068 94.696 115.22 95.08C115.372 95.456 115.448 95.932 115.448 96.508V99.028C115.448 99.38 115.356 99.648 115.172 99.832C114.988 100.016 114.724 100.108 114.38 100.108C114.036 100.108 113.772 100.016 113.588 99.832C113.404 99.648 113.312 99.38 113.312 99.028V96.592C113.312 96.232 113.248 95.976 113.12 95.824C113 95.672 112.82 95.596 112.58 95.596C112.26 95.596 112.004 95.7 111.812 95.908C111.62 96.108 111.524 96.38 111.524 96.724V99.028C111.524 99.748 111.164 100.108 110.444 100.108ZM119.653 100.132C118.997 100.132 118.425 100.008 117.937 99.76C117.449 99.512 117.069 99.156 116.797 98.692C116.525 98.228 116.389 97.68 116.389 97.048C116.389 96.568 116.465 96.14 116.617 95.764C116.769 95.38 116.989 95.056 117.277 94.792C117.565 94.52 117.909 94.316 118.309 94.18C118.709 94.036 119.157 93.964 119.653 93.964C120.309 93.964 120.881 94.088 121.369 94.336C121.857 94.584 122.233 94.94 122.497 95.404C122.769 95.86 122.905 96.408 122.905 97.048C122.905 97.52 122.829 97.948 122.677 98.332C122.525 98.716 122.305 99.044 122.017 99.316C121.737 99.58 121.393 99.784 120.985 99.928C120.585 100.064 120.141 100.132 119.653 100.132ZM119.653 98.56C119.869 98.56 120.061 98.508 120.229 98.404C120.397 98.292 120.525 98.128 120.613 97.912C120.709 97.688 120.757 97.4 120.757 97.048C120.757 96.512 120.653 96.128 120.445 95.896C120.237 95.656 119.973 95.536 119.653 95.536C119.437 95.536 119.245 95.588 119.077 95.692C118.909 95.796 118.777 95.96 118.681 96.184C118.585 96.4 118.537 96.688 118.537 97.048C118.537 97.576 118.641 97.96 118.849 98.2C119.057 98.44 119.325 98.56 119.653 98.56ZM126.921 100.132C126.321 100.132 125.825 100.04 125.433 99.856C125.049 99.672 124.761 99.396 124.569 99.028C124.377 98.652 124.281 98.184 124.281 97.624V95.668H123.873C123.617 95.668 123.417 95.6 123.273 95.464C123.137 95.328 123.069 95.132 123.069 94.876C123.069 94.62 123.137 94.428 123.273 94.3C123.417 94.164 123.617 94.096 123.873 94.096H124.281V93.352C124.281 93 124.373 92.732 124.557 92.548C124.741 92.364 125.005 92.272 125.349 92.272C125.693 92.272 125.957 92.364 126.141 92.548C126.325 92.732 126.417 93 126.417 93.352V94.096H127.401C127.665 94.096 127.865 94.164 128.001 94.3C128.145 94.428 128.217 94.62 128.217 94.876C128.217 95.132 128.145 95.328 128.001 95.464C127.865 95.6 127.665 95.668 127.401 95.668H126.417V97.552C126.417 97.848 126.485 98.068 126.621 98.212C126.765 98.348 126.989 98.416 127.293 98.416C127.405 98.416 127.513 98.404 127.617 98.38C127.721 98.356 127.817 98.344 127.905 98.344C128.033 98.336 128.137 98.376 128.217 98.464C128.297 98.544 128.337 98.732 128.337 99.028C128.337 99.268 128.301 99.472 128.229 99.64C128.157 99.8 128.029 99.916 127.845 99.988C127.733 100.028 127.581 100.06 127.389 100.084C127.197 100.116 127.041 100.132 126.921 100.132ZM130.201 100.108C129.865 100.108 129.605 100.008 129.421 99.808C129.237 99.608 129.145 99.32 129.145 98.944V95.152C129.145 94.776 129.237 94.488 129.421 94.288C129.605 94.088 129.865 93.988 130.201 93.988C130.545 93.988 130.809 94.088 130.993 94.288C131.185 94.488 131.281 94.776 131.281 95.152V98.944C131.281 99.32 131.189 99.608 131.005 99.808C130.821 100.008 130.553 100.108 130.201 100.108ZM130.201 93.136C129.825 93.136 129.533 93.048 129.325 92.872C129.125 92.696 129.025 92.44 129.025 92.104C129.025 91.776 129.125 91.524 129.325 91.348C129.533 91.172 129.825 91.084 130.201 91.084C130.593 91.084 130.889 91.172 131.089 91.348C131.289 91.524 131.389 91.776 131.389 92.104C131.389 92.44 131.289 92.696 131.089 92.872C130.889 93.048 130.593 93.136 130.201 93.136ZM134.092 100.108C133.748 100.108 133.484 100.016 133.3 99.832C133.116 99.648 133.024 99.38 133.024 99.028V95.668H132.712C132.456 95.668 132.256 95.6 132.112 95.464C131.976 95.328 131.908 95.132 131.908 94.876C131.908 94.62 131.976 94.428 132.112 94.3C132.256 94.164 132.456 94.096 132.712 94.096H133.636L133.024 94.66V94.324C133.024 93.444 133.236 92.78 133.66 92.332C134.092 91.884 134.732 91.616 135.58 91.528L135.916 91.492C136.18 91.46 136.388 91.492 136.54 91.588C136.7 91.676 136.808 91.796 136.864 91.948C136.92 92.092 136.932 92.244 136.9 92.404C136.876 92.564 136.816 92.7 136.72 92.812C136.632 92.924 136.512 92.988 136.36 93.004L136.144 93.016C135.776 93.04 135.52 93.128 135.376 93.28C135.232 93.424 135.16 93.636 135.16 93.916V94.312L134.896 94.096H138.292C138.636 94.096 138.9 94.196 139.084 94.396C139.268 94.588 139.36 94.872 139.36 95.248V98.944C139.36 99.32 139.268 99.608 139.084 99.808C138.908 100.008 138.644 100.108 138.292 100.108C137.948 100.108 137.684 100.008 137.5 99.808C137.316 99.608 137.224 99.32 137.224 98.944V95.668H135.16V99.028C135.16 99.748 134.804 100.108 134.092 100.108ZM138.34 93.136C137.972 93.136 137.688 93.048 137.488 92.872C137.296 92.696 137.2 92.44 137.2 92.104C137.2 91.776 137.296 91.524 137.488 91.348C137.688 91.172 137.972 91.084 138.34 91.084C138.708 91.084 138.988 91.172 139.18 91.348C139.38 91.524 139.48 91.776 139.48 92.104C139.48 92.44 139.38 92.696 139.18 92.872C138.988 93.048 138.708 93.136 138.34 93.136ZM141.662 100.108C141.326 100.108 141.066 100.016 140.882 99.832C140.698 99.648 140.606 99.38 140.606 99.028V92.512C140.606 92.16 140.698 91.892 140.882 91.708C141.066 91.524 141.326 91.432 141.662 91.432C142.006 91.432 142.27 91.524 142.454 91.708C142.646 91.892 142.742 92.16 142.742 92.512V96.472H142.766L144.23 94.696C144.43 94.456 144.614 94.28 144.782 94.168C144.958 94.048 145.194 93.988 145.49 93.988C145.786 93.988 146.014 94.06 146.174 94.204C146.334 94.348 146.418 94.528 146.426 94.744C146.434 94.96 146.346 95.176 146.162 95.392L144.578 97.264V96.52L146.354 98.752C146.53 98.976 146.602 99.196 146.57 99.412C146.538 99.62 146.434 99.788 146.258 99.916C146.09 100.044 145.874 100.108 145.61 100.108C145.29 100.108 145.034 100.052 144.842 99.94C144.65 99.82 144.458 99.636 144.266 99.388L142.766 97.54H142.742V99.028C142.742 99.748 142.382 100.108 141.662 100.108ZM149.561 100.132C149.105 100.132 148.701 100.048 148.349 99.88C148.005 99.712 147.733 99.484 147.533 99.196C147.341 98.9 147.245 98.564 147.245 98.188C147.245 97.756 147.357 97.416 147.581 97.168C147.805 96.92 148.165 96.744 148.661 96.64C149.157 96.528 149.817 96.472 150.641 96.472H151.301V97.48H150.641C150.329 97.48 150.069 97.504 149.861 97.552C149.661 97.592 149.513 97.66 149.417 97.756C149.321 97.844 149.273 97.96 149.273 98.104C149.273 98.288 149.337 98.44 149.465 98.56C149.601 98.68 149.793 98.74 150.041 98.74C150.241 98.74 150.417 98.696 150.569 98.608C150.729 98.52 150.857 98.4 150.953 98.248C151.049 98.088 151.097 97.904 151.097 97.696V96.304C151.097 96.016 151.021 95.812 150.869 95.692C150.725 95.572 150.473 95.512 150.113 95.512C149.921 95.512 149.705 95.536 149.465 95.584C149.225 95.624 148.957 95.7 148.661 95.812C148.445 95.892 148.261 95.904 148.109 95.848C147.957 95.792 147.837 95.696 147.749 95.56C147.669 95.424 147.629 95.276 147.629 95.116C147.637 94.956 147.689 94.804 147.785 94.66C147.889 94.516 148.045 94.404 148.253 94.324C148.637 94.18 148.989 94.084 149.309 94.036C149.637 93.988 149.937 93.964 150.209 93.964C150.865 93.964 151.405 94.06 151.829 94.252C152.261 94.436 152.581 94.724 152.789 95.116C153.005 95.5 153.113 95.996 153.113 96.604V99.028C153.113 99.38 153.029 99.648 152.861 99.832C152.693 100.016 152.449 100.108 152.129 100.108C151.801 100.108 151.549 100.016 151.373 99.832C151.205 99.648 151.121 99.38 151.121 99.028V98.716L151.193 98.884C151.153 99.14 151.061 99.36 150.917 99.544C150.773 99.728 150.585 99.872 150.353 99.976C150.121 100.08 149.857 100.132 149.561 100.132ZM157.425 100.132C156.825 100.132 156.329 100.04 155.937 99.856C155.553 99.672 155.265 99.396 155.073 99.028C154.881 98.652 154.785 98.184 154.785 97.624V95.668H154.377C154.121 95.668 153.921 95.6 153.777 95.464C153.641 95.328 153.573 95.132 153.573 94.876C153.573 94.62 153.641 94.428 153.777 94.3C153.921 94.164 154.121 94.096 154.377 94.096H154.785V93.352C154.785 93 154.877 92.732 155.061 92.548C155.245 92.364 155.509 92.272 155.853 92.272C156.197 92.272 156.461 92.364 156.645 92.548C156.829 92.732 156.921 93 156.921 93.352V94.096H157.905C158.169 94.096 158.369 94.164 158.505 94.3C158.649 94.428 158.721 94.62 158.721 94.876C158.721 95.132 158.649 95.328 158.505 95.464C158.369 95.6 158.169 95.668 157.905 95.668H156.921V97.552C156.921 97.848 156.989 98.068 157.125 98.212C157.269 98.348 157.493 98.416 157.797 98.416C157.909 98.416 158.017 98.404 158.121 98.38C158.225 98.356 158.321 98.344 158.409 98.344C158.537 98.336 158.641 98.376 158.721 98.464C158.801 98.544 158.841 98.732 158.841 99.028C158.841 99.268 158.805 99.472 158.733 99.64C158.661 99.8 158.533 99.916 158.349 99.988C158.237 100.028 158.085 100.06 157.893 100.084C157.701 100.116 157.545 100.132 157.425 100.132ZM160.705 100.108C160.369 100.108 160.109 100.008 159.925 99.808C159.741 99.608 159.649 99.32 159.649 98.944V95.152C159.649 94.776 159.741 94.488 159.925 94.288C160.109 94.088 160.369 93.988 160.705 93.988C161.049 93.988 161.313 94.088 161.497 94.288C161.689 94.488 161.785 94.776 161.785 95.152V98.944C161.785 99.32 161.693 99.608 161.509 99.808C161.325 100.008 161.057 100.108 160.705 100.108ZM160.705 93.136C160.329 93.136 160.037 93.048 159.829 92.872C159.629 92.696 159.529 92.44 159.529 92.104C159.529 91.776 159.629 91.524 159.829 91.348C160.037 91.172 160.329 91.084 160.705 91.084C161.097 91.084 161.393 91.172 161.593 91.348C161.793 91.524 161.893 91.776 161.893 92.104C161.893 92.44 161.793 92.696 161.593 92.872C161.393 93.048 161.097 93.136 160.705 93.136ZM166.012 100.132C165.356 100.132 164.784 100.008 164.296 99.76C163.808 99.512 163.428 99.156 163.156 98.692C162.884 98.228 162.748 97.68 162.748 97.048C162.748 96.568 162.824 96.14 162.976 95.764C163.128 95.38 163.348 95.056 163.636 94.792C163.924 94.52 164.268 94.316 164.668 94.18C165.068 94.036 165.516 93.964 166.012 93.964C166.668 93.964 167.24 94.088 167.728 94.336C168.216 94.584 168.592 94.94 168.856 95.404C169.128 95.86 169.264 96.408 169.264 97.048C169.264 97.52 169.188 97.948 169.036 98.332C168.884 98.716 168.664 99.044 168.376 99.316C168.096 99.58 167.752 99.784 167.344 99.928C166.944 100.064 166.5 100.132 166.012 100.132ZM166.012 98.56C166.228 98.56 166.42 98.508 166.588 98.404C166.756 98.292 166.884 98.128 166.972 97.912C167.068 97.688 167.116 97.4 167.116 97.048C167.116 96.512 167.012 96.128 166.804 95.896C166.596 95.656 166.332 95.536 166.012 95.536C165.796 95.536 165.604 95.588 165.436 95.692C165.268 95.796 165.136 95.96 165.04 96.184C164.944 96.4 164.896 96.688 164.896 97.048C164.896 97.576 165 97.96 165.208 98.2C165.416 98.44 165.684 98.56 166.012 98.56ZM171.299 100.108C170.963 100.108 170.703 100.016 170.519 99.832C170.335 99.648 170.243 99.38 170.243 99.028V95.056C170.243 94.712 170.331 94.448 170.507 94.264C170.691 94.08 170.951 93.988 171.287 93.988C171.623 93.988 171.879 94.08 172.055 94.264C172.231 94.448 172.319 94.712 172.319 95.056V95.62L172.187 95.128C172.379 94.752 172.651 94.464 173.003 94.264C173.363 94.064 173.771 93.964 174.227 93.964C174.699 93.964 175.087 94.056 175.391 94.24C175.695 94.416 175.923 94.696 176.075 95.08C176.227 95.456 176.303 95.932 176.303 96.508V99.028C176.303 99.38 176.211 99.648 176.027 99.832C175.843 100.016 175.579 100.108 175.235 100.108C174.891 100.108 174.627 100.016 174.443 99.832C174.259 99.648 174.167 99.38 174.167 99.028V96.592C174.167 96.232 174.103 95.976 173.975 95.824C173.855 95.672 173.675 95.596 173.435 95.596C173.115 95.596 172.859 95.7 172.667 95.908C172.475 96.108 172.379 96.38 172.379 96.724V99.028C172.379 99.748 172.019 100.108 171.299 100.108Z" fill="white"/>
<path d="M199.25 91C196.325 91 194 93.325 194 96.25C194 99.175 196.325 101.5 199.25 101.5C202.175 101.5 204.5 99.175 204.5 96.25C204.5 93.325 202.175 91 199.25 91ZM201.275 98.875L199.25 96.85L197.225 98.875L196.625 98.275L198.65 96.25L196.625 94.225L197.225 93.625L199.25 95.65L201.275 93.625L201.875 94.225L199.85 96.25L201.875 98.275L201.275 98.875Z" fill="white"/>
</g>
<defs>
<filter id="filter0_d_342_948" x="4" y="8" width="276" height="132" filterUnits="userSpaceOnUse" color-interpolation-filters="sRGB">
<feFlood flood-opacity="0" result="BackgroundImageFix"/>
<feColorMatrix in="SourceAlpha" type="matrix" values="0 0 0 0 0 0 0 0 0 0 0 0 0 0 0 0 0 0 127 0" result="hardAlpha"/>
<feOffset dy="4"/>
<feGaussianBlur stdDeviation="2"/>
<feComposite in2="hardAlpha" operator="out"/>
<feColorMatrix type="matrix" values="0 0 0 0 0 0 0 0 0 0 0 0 0 0 0 0 0 0 0.25 0"/>
<feBlend mode="normal" in2="BackgroundImageFix" result="effect1_dropShadow_342_948"/>
<feBlend mode="normal" in="SourceGraphic" in2="effect1_dropShadow_342_948" result="shape"/>
</filter>
<filter id="filter1_dddd_342_948" x="0" y="0" width="284" height="140" filterUnits="userSpaceOnUse" color-interpolation-filters="sRGB">
<feFlood flood-opacity="0" result="BackgroundImageFix"/>
<feColorMatrix in="SourceAlpha" type="matrix" values="0 0 0 0 0 0 0 0 0 0 0 0 0 0 0 0 0 0 127 0" result="hardAlpha"/>
<feOffset dy="-4"/>
<feGaussianBlur stdDeviation="2"/>
<feComposite in2="hardAlpha" operator="out"/>
<feColorMatrix type="matrix" values="0 0 0 0 0 0 0 0 0 0 0 0 0 0 0 0 0 0 0.12 0"/>
<feBlend mode="normal" in2="BackgroundImageFix" result="effect1_dropShadow_342_948"/>
<feColorMatrix in="SourceAlpha" type="matrix" values="0 0 0 0 0 0 0 0 0 0 0 0 0 0 0 0 0 0 127 0" result="hardAlpha"/>
<feOffset dx="4"/>
<feGaussianBlur stdDeviation="2"/>
<feComposite in2="hardAlpha" operator="out"/>
<feColorMatrix type="matrix" values="0 0 0 0 0 0 0 0 0 0 0 0 0 0 0 0 0 0 0.12 0"/>
<feBlend mode="normal" in2="effect1_dropShadow_342_948" result="effect2_dropShadow_342_948"/>
<feColorMatrix in="SourceAlpha" type="matrix" values="0 0 0 0 0 0 0 0 0 0 0 0 0 0 0 0 0 0 127 0" result="hardAlpha"/>
<feOffset dy="4"/>
<feGaussianBlur stdDeviation="2"/>
<feComposite in2="hardAlpha" operator="out"/>
<feColorMatrix type="matrix" values="0 0 0 0 0 0 0 0 0 0 0 0 0 0 0 0 0 0 0.25 0"/>
<feBlend mode="normal" in2="effect2_dropShadow_342_948" result="effect3_dropShadow_342_948"/>
<feColorMatrix in="SourceAlpha" type="matrix" values="0 0 0 0 0 0 0 0 0 0 0 0 0 0 0 0 0 0 127 0" result="hardAlpha"/>
<feOffset dx="-4"/>
<feGaussianBlur stdDeviation="2"/>
<feComposite in2="hardAlpha" operator="out"/>
<feColorMatrix type="matrix" values="0 0 0 0 0 0 0 0 0 0 0 0 0 0 0 0 0 0 0.12 0"/>
<feBlend mode="normal" in2="effect3_dropShadow_342_948" result="effect4_dropShadow_342_948"/>
<feBlend mode="normal" in="SourceGraphic" in2="effect4_dropShadow_342_948" result="shape"/>
</filter>
</defs>
</svg>
