<svg width="371" height="50" viewBox="0 0 371 50" fill="none" xmlns="http://www.w3.org/2000/svg">
<g filter="url(#filter0_d_264_759)">
<path d="M17.5558 38.126C16.8958 38.126 16.5658 37.796 16.5658 37.136V26.318C16.5658 25.646 16.9018 25.31 17.5738 25.31H23.9818C24.4978 25.31 24.7558 25.556 24.7558 26.048C24.7558 26.564 24.4978 26.822 23.9818 26.822H18.4378V30.872H23.6218C24.1378 30.872 24.3958 31.118 24.3958 31.61C24.3958 32.126 24.1378 32.384 23.6218 32.384H18.4378V37.136C18.4378 37.796 18.1438 38.126 17.5558 38.126ZM29.8167 38.162C28.9287 38.162 28.1607 37.976 27.5127 37.604C26.8647 37.232 26.3607 36.71 26.0007 36.038C25.6527 35.354 25.4787 34.544 25.4787 33.608C25.4787 32.672 25.6527 31.868 26.0007 31.196C26.3607 30.512 26.8647 29.984 27.5127 29.612C28.1607 29.24 28.9287 29.054 29.8167 29.054C30.6807 29.054 31.4367 29.24 32.0847 29.612C32.7327 29.984 33.2367 30.512 33.5967 31.196C33.9567 31.868 34.1367 32.672 34.1367 33.608C34.1367 34.544 33.9567 35.354 33.5967 36.038C33.2367 36.71 32.7327 37.232 32.0847 37.604C31.4367 37.976 30.6807 38.162 29.8167 38.162ZM29.8167 36.758C30.5607 36.758 31.1607 36.488 31.6167 35.948C32.0727 35.408 32.3007 34.628 32.3007 33.608C32.3007 32.588 32.0727 31.814 31.6167 31.286C31.1607 30.746 30.5607 30.476 29.8167 30.476C29.0607 30.476 28.4547 30.746 27.9987 31.286C27.5427 31.814 27.3147 32.588 27.3147 33.608C27.3147 34.628 27.5427 35.408 27.9987 35.948C28.4547 36.488 29.0607 36.758 29.8167 36.758ZM37.0964 38.126C36.4844 38.126 36.1784 37.82 36.1784 37.208V30.008C36.1784 29.396 36.4724 29.09 37.0604 29.09C37.6484 29.09 37.9424 29.396 37.9424 30.008V30.782C38.1824 30.242 38.5424 29.828 39.0224 29.54C39.5144 29.252 40.1084 29.084 40.8044 29.036C41.2484 29 41.4884 29.24 41.5244 29.756C41.5724 30.284 41.3144 30.572 40.7504 30.62L40.4084 30.656C38.8124 30.812 38.0144 31.634 38.0144 33.122V37.208C38.0144 37.82 37.7084 38.126 37.0964 38.126ZM50.4473 38.162C49.8353 38.162 49.2893 38.042 48.8093 37.802C48.3293 37.562 47.9453 37.238 47.6573 36.83C47.3813 36.422 47.2433 35.96 47.2433 35.444C47.2433 34.796 47.4053 34.286 47.7293 33.914C48.0653 33.542 48.6113 33.272 49.3673 33.104C50.1353 32.936 51.1673 32.852 52.4633 32.852H53.0753V32.384C53.0753 31.7 52.9313 31.208 52.6433 30.908C52.3553 30.608 51.8813 30.458 51.2213 30.458C50.8373 30.458 50.4353 30.506 50.0153 30.602C49.6073 30.698 49.1813 30.86 48.7373 31.088C48.4853 31.208 48.2753 31.226 48.1073 31.142C47.9513 31.058 47.8433 30.926 47.7833 30.746C47.7233 30.566 47.7293 30.38 47.8013 30.188C47.8733 29.996 48.0233 29.852 48.2513 29.756C48.7793 29.516 49.3013 29.342 49.8173 29.234C50.3333 29.114 50.8193 29.054 51.2753 29.054C52.4753 29.054 53.3633 29.342 53.9393 29.918C54.5153 30.482 54.8033 31.37 54.8033 32.582V37.208C54.8033 37.82 54.5213 38.126 53.9573 38.126C53.3813 38.126 53.0933 37.82 53.0933 37.208V36.542C52.8773 37.046 52.5413 37.442 52.0853 37.73C51.6293 38.018 51.0833 38.162 50.4473 38.162ZM50.8073 36.866C51.4553 36.866 51.9953 36.638 52.4273 36.182C52.8593 35.726 53.0753 35.15 53.0753 34.454V33.968H52.4813C51.6053 33.968 50.9153 34.01 50.4113 34.094C49.9193 34.178 49.5653 34.322 49.3493 34.526C49.1453 34.718 49.0433 34.988 49.0433 35.336C49.0433 35.792 49.1993 36.164 49.5113 36.452C49.8233 36.728 50.2553 36.866 50.8073 36.866ZM61.0513 38.162C59.9473 38.162 59.1253 37.88 58.5853 37.316C58.0453 36.752 57.7753 35.936 57.7753 34.868V30.62H56.6953C56.1913 30.62 55.9393 30.386 55.9393 29.918C55.9393 29.45 56.1913 29.216 56.6953 29.216H57.7753V27.362C57.7753 26.75 58.0813 26.444 58.6933 26.444C59.2933 26.444 59.5933 26.75 59.5933 27.362V29.216H61.6993C62.2033 29.216 62.4553 29.45 62.4553 29.918C62.4553 30.386 62.2033 30.62 61.6993 30.62H59.5933V34.724C59.5933 35.36 59.7253 35.84 59.9893 36.164C60.2653 36.488 60.7093 36.65 61.3213 36.65C61.5373 36.65 61.7233 36.632 61.8793 36.596C62.0353 36.548 62.1733 36.518 62.2933 36.506C62.4253 36.506 62.5333 36.554 62.6173 36.65C62.7013 36.734 62.7433 36.902 62.7433 37.154C62.7433 37.346 62.7073 37.52 62.6353 37.676C62.5753 37.82 62.4613 37.916 62.2933 37.964C62.1493 38.024 61.9513 38.072 61.6993 38.108C61.4593 38.144 61.2433 38.162 61.0513 38.162ZM70.0676 38.126C69.4556 38.126 69.1496 37.82 69.1496 37.208V30.62H68.1416C67.6496 30.62 67.4036 30.386 67.4036 29.918C67.4036 29.45 67.6496 29.216 68.1416 29.216H69.1496V29.054C69.1496 27.866 69.4436 26.972 70.0316 26.372C70.6196 25.76 71.4776 25.4 72.6056 25.292L73.1636 25.256C73.4156 25.232 73.6016 25.286 73.7216 25.418C73.8536 25.538 73.9196 25.694 73.9196 25.886C73.9196 26.066 73.8716 26.228 73.7756 26.372C73.6796 26.516 73.5356 26.6 73.3436 26.624L73.0016 26.642C72.2936 26.69 71.7776 26.888 71.4536 27.236C71.1296 27.584 70.9676 28.106 70.9676 28.802V29.216H72.7136C73.2176 29.216 73.4696 29.45 73.4696 29.918C73.4696 30.386 73.2176 30.62 72.7136 30.62H70.9676V37.208C70.9676 37.82 70.6676 38.126 70.0676 38.126ZM77.6758 38.162C77.0638 38.162 76.5178 38.042 76.0378 37.802C75.5578 37.562 75.1738 37.238 74.8858 36.83C74.6098 36.422 74.4718 35.96 74.4718 35.444C74.4718 34.796 74.6338 34.286 74.9578 33.914C75.2938 33.542 75.8398 33.272 76.5958 33.104C77.3638 32.936 78.3958 32.852 79.6918 32.852H80.3038V32.384C80.3038 31.7 80.1598 31.208 79.8718 30.908C79.5838 30.608 79.1098 30.458 78.4498 30.458C78.0658 30.458 77.6638 30.506 77.2438 30.602C76.8358 30.698 76.4098 30.86 75.9658 31.088C75.7138 31.208 75.5038 31.226 75.3358 31.142C75.1798 31.058 75.0718 30.926 75.0118 30.746C74.9518 30.566 74.9578 30.38 75.0298 30.188C75.1018 29.996 75.2518 29.852 75.4798 29.756C76.0078 29.516 76.5298 29.342 77.0458 29.234C77.5618 29.114 78.0478 29.054 78.5038 29.054C79.7038 29.054 80.5918 29.342 81.1678 29.918C81.7438 30.482 82.0318 31.37 82.0318 32.582V37.208C82.0318 37.82 81.7498 38.126 81.1858 38.126C80.6098 38.126 80.3218 37.82 80.3218 37.208V36.542C80.1058 37.046 79.7698 37.442 79.3138 37.73C78.8578 38.018 78.3118 38.162 77.6758 38.162ZM78.0358 36.866C78.6838 36.866 79.2238 36.638 79.6558 36.182C80.0878 35.726 80.3038 35.15 80.3038 34.454V33.968H79.7098C78.8338 33.968 78.1438 34.01 77.6398 34.094C77.1478 34.178 76.7938 34.322 76.5778 34.526C76.3738 34.718 76.2718 34.988 76.2718 35.336C76.2718 35.792 76.4278 36.164 76.7398 36.452C77.0518 36.728 77.4838 36.866 78.0358 36.866ZM78.5398 28.172C77.9158 28.172 77.3938 27.962 76.9738 27.542C76.5538 27.122 76.3438 26.612 76.3438 26.012C76.3438 25.412 76.5538 24.908 76.9738 24.5C77.3938 24.092 77.9158 23.888 78.5398 23.888C79.1638 23.888 79.6858 24.092 80.1058 24.5C80.5258 24.908 80.7358 25.412 80.7358 26.012C80.7358 26.612 80.5258 27.122 80.1058 27.542C79.6858 27.962 79.1638 28.172 78.5398 28.172ZM78.5398 27.272C78.8998 27.272 79.1938 27.152 79.4218 26.912C79.6618 26.672 79.7818 26.372 79.7818 26.012C79.7818 25.664 79.6618 25.376 79.4218 25.148C79.1938 24.908 78.8998 24.788 78.5398 24.788C78.1798 24.788 77.8798 24.908 77.6398 25.148C77.4118 25.376 77.2978 25.664 77.2978 26.012C77.2978 26.372 77.4118 26.672 77.6398 26.912C77.8798 27.152 78.1798 27.272 78.5398 27.272ZM92.0899 38.162C91.4779 38.162 90.9319 38.042 90.4519 37.802C89.9719 37.562 89.5879 37.238 89.2999 36.83C89.0239 36.422 88.8859 35.96 88.8859 35.444C88.8859 34.796 89.0479 34.286 89.3719 33.914C89.7079 33.542 90.2539 33.272 91.0099 33.104C91.7779 32.936 92.8099 32.852 94.1059 32.852H94.7179V32.384C94.7179 31.7 94.5739 31.208 94.2859 30.908C93.9979 30.608 93.5239 30.458 92.8639 30.458C92.4799 30.458 92.0779 30.506 91.6579 30.602C91.2499 30.698 90.8239 30.86 90.3799 31.088C90.1279 31.208 89.9179 31.226 89.7499 31.142C89.5939 31.058 89.4859 30.926 89.4259 30.746C89.3659 30.566 89.3719 30.38 89.4439 30.188C89.5159 29.996 89.6659 29.852 89.8939 29.756C90.4219 29.516 90.9439 29.342 91.4599 29.234C91.9759 29.114 92.4619 29.054 92.9179 29.054C94.1179 29.054 95.0059 29.342 95.5819 29.918C96.1579 30.482 96.4459 31.37 96.4459 32.582V37.208C96.4459 37.82 96.1639 38.126 95.5999 38.126C95.0239 38.126 94.7359 37.82 94.7359 37.208V36.542C94.5199 37.046 94.1839 37.442 93.7279 37.73C93.2719 38.018 92.7259 38.162 92.0899 38.162ZM92.4499 36.866C93.0979 36.866 93.6379 36.638 94.0699 36.182C94.5019 35.726 94.7179 35.15 94.7179 34.454V33.968H94.1239C93.2479 33.968 92.5579 34.01 92.0539 34.094C91.5619 34.178 91.2079 34.322 90.9919 34.526C90.7879 34.718 90.6859 34.988 90.6859 35.336C90.6859 35.792 90.8419 36.164 91.1539 36.452C91.4659 36.728 91.8979 36.866 92.4499 36.866ZM102.298 38.162C101.53 38.162 100.852 37.982 100.264 37.622C99.6879 37.25 99.2379 36.722 98.9139 36.038C98.5899 35.354 98.4279 34.544 98.4279 33.608C98.4279 32.672 98.5899 31.868 98.9139 31.196C99.2379 30.512 99.6879 29.984 100.264 29.612C100.84 29.24 101.518 29.054 102.298 29.054C102.958 29.054 103.546 29.198 104.062 29.486C104.578 29.774 104.962 30.164 105.214 30.656V26.102C105.214 25.49 105.514 25.184 106.114 25.184C106.726 25.184 107.032 25.49 107.032 26.102V37.208C107.032 37.82 106.732 38.126 106.132 38.126C105.532 38.126 105.232 37.82 105.232 37.208V36.524C104.968 37.028 104.578 37.43 104.062 37.73C103.546 38.018 102.958 38.162 102.298 38.162ZM102.766 36.758C103.51 36.758 104.11 36.488 104.566 35.948C105.022 35.408 105.25 34.628 105.25 33.608C105.25 32.588 105.022 31.814 104.566 31.286C104.11 30.746 103.51 30.476 102.766 30.476C102.01 30.476 101.404 30.746 100.948 31.286C100.492 31.814 100.264 32.588 100.264 33.608C100.264 34.628 100.492 35.408 100.948 35.948C101.404 36.488 102.01 36.758 102.766 36.758ZM113.563 41.402C112.915 41.402 112.285 41.336 111.673 41.204C111.073 41.072 110.527 40.856 110.035 40.556C109.819 40.436 109.687 40.286 109.639 40.106C109.591 39.926 109.609 39.752 109.693 39.584C109.789 39.416 109.915 39.29 110.071 39.206C110.239 39.134 110.419 39.152 110.611 39.26C111.139 39.548 111.637 39.74 112.105 39.836C112.585 39.944 113.029 39.998 113.437 39.998C115.117 39.998 115.957 39.158 115.957 37.478V36.092C115.705 36.62 115.309 37.034 114.769 37.334C114.241 37.634 113.647 37.784 112.987 37.784C112.195 37.784 111.505 37.604 110.917 37.244C110.329 36.872 109.873 36.362 109.549 35.714C109.225 35.054 109.063 34.286 109.063 33.41C109.063 32.546 109.225 31.79 109.549 31.142C109.873 30.482 110.329 29.972 110.917 29.612C111.505 29.24 112.195 29.054 112.987 29.054C113.647 29.054 114.235 29.204 114.751 29.504C115.279 29.792 115.669 30.188 115.921 30.692V30.008C115.921 29.396 116.221 29.09 116.821 29.09C117.421 29.09 117.721 29.396 117.721 30.008V37.262C117.721 38.642 117.367 39.674 116.659 40.358C115.951 41.054 114.919 41.402 113.563 41.402ZM113.419 36.362C114.187 36.362 114.799 36.098 115.255 35.57C115.711 35.042 115.939 34.322 115.939 33.41C115.939 32.498 115.711 31.784 115.255 31.268C114.799 30.74 114.187 30.476 113.419 30.476C112.651 30.476 112.039 30.74 111.583 31.268C111.127 31.784 110.899 32.498 110.899 33.41C110.899 34.322 111.127 35.042 111.583 35.57C112.039 36.098 112.651 36.362 113.419 36.362ZM123.08 38.162C122.468 38.162 121.922 38.042 121.442 37.802C120.962 37.562 120.578 37.238 120.29 36.83C120.014 36.422 119.876 35.96 119.876 35.444C119.876 34.796 120.038 34.286 120.362 33.914C120.698 33.542 121.244 33.272 122 33.104C122.768 32.936 123.8 32.852 125.096 32.852H125.708V32.384C125.708 31.7 125.564 31.208 125.276 30.908C124.988 30.608 124.514 30.458 123.854 30.458C123.47 30.458 123.068 30.506 122.648 30.602C122.24 30.698 121.814 30.86 121.37 31.088C121.118 31.208 120.908 31.226 120.74 31.142C120.584 31.058 120.476 30.926 120.416 30.746C120.356 30.566 120.362 30.38 120.434 30.188C120.506 29.996 120.656 29.852 120.884 29.756C121.412 29.516 121.934 29.342 122.45 29.234C122.966 29.114 123.452 29.054 123.908 29.054C125.108 29.054 125.996 29.342 126.572 29.918C127.148 30.482 127.436 31.37 127.436 32.582V37.208C127.436 37.82 127.154 38.126 126.59 38.126C126.014 38.126 125.726 37.82 125.726 37.208V36.542C125.51 37.046 125.174 37.442 124.718 37.73C124.262 38.018 123.716 38.162 123.08 38.162ZM123.44 36.866C124.088 36.866 124.628 36.638 125.06 36.182C125.492 35.726 125.708 35.15 125.708 34.454V33.968H125.114C124.238 33.968 123.548 34.01 123.044 34.094C122.552 34.178 122.198 34.322 121.982 34.526C121.778 34.718 121.676 34.988 121.676 35.336C121.676 35.792 121.832 36.164 122.144 36.452C122.456 36.728 122.888 36.866 123.44 36.866ZM130.84 38.126C130.24 38.126 129.94 37.82 129.94 37.208V30.008C129.94 29.396 130.234 29.09 130.822 29.09C131.41 29.09 131.704 29.396 131.704 30.008V30.674C132.004 30.146 132.412 29.744 132.928 29.468C133.456 29.192 134.044 29.054 134.692 29.054C136.768 29.054 137.806 30.23 137.806 32.582V37.208C137.806 37.82 137.506 38.126 136.906 38.126C136.294 38.126 135.988 37.82 135.988 37.208V32.69C135.988 31.934 135.838 31.382 135.538 31.034C135.25 30.686 134.794 30.512 134.17 30.512C133.438 30.512 132.85 30.746 132.406 31.214C131.974 31.67 131.758 32.276 131.758 33.032V37.208C131.758 37.82 131.452 38.126 130.84 38.126ZM144.289 41.402C143.641 41.402 143.011 41.336 142.399 41.204C141.799 41.072 141.253 40.856 140.761 40.556C140.545 40.436 140.413 40.286 140.365 40.106C140.317 39.926 140.335 39.752 140.419 39.584C140.515 39.416 140.641 39.29 140.797 39.206C140.965 39.134 141.145 39.152 141.337 39.26C141.865 39.548 142.363 39.74 142.831 39.836C143.311 39.944 143.755 39.998 144.163 39.998C145.843 39.998 146.683 39.158 146.683 37.478V36.092C146.431 36.62 146.035 37.034 145.495 37.334C144.967 37.634 144.373 37.784 143.713 37.784C142.921 37.784 142.231 37.604 141.643 37.244C141.055 36.872 140.599 36.362 140.275 35.714C139.951 35.054 139.789 34.286 139.789 33.41C139.789 32.546 139.951 31.79 140.275 31.142C140.599 30.482 141.055 29.972 141.643 29.612C142.231 29.24 142.921 29.054 143.713 29.054C144.373 29.054 144.961 29.204 145.477 29.504C146.005 29.792 146.395 30.188 146.647 30.692V30.008C146.647 29.396 146.947 29.09 147.547 29.09C148.147 29.09 148.447 29.396 148.447 30.008V37.262C148.447 38.642 148.093 39.674 147.385 40.358C146.677 41.054 145.645 41.402 144.289 41.402ZM144.145 36.362C144.913 36.362 145.525 36.098 145.981 35.57C146.437 35.042 146.665 34.322 146.665 33.41C146.665 32.498 146.437 31.784 145.981 31.268C145.525 30.74 144.913 30.476 144.145 30.476C143.377 30.476 142.765 30.74 142.309 31.268C141.853 31.784 141.625 32.498 141.625 33.41C141.625 34.322 141.853 35.042 142.309 35.57C142.765 36.098 143.377 36.362 144.145 36.362ZM151.881 31.43C151.521 31.43 151.233 31.322 151.017 31.106C150.813 30.89 150.711 30.62 150.711 30.296C150.711 29.948 150.813 29.672 151.017 29.468C151.233 29.252 151.521 29.144 151.881 29.144C152.229 29.144 152.505 29.252 152.709 29.468C152.913 29.672 153.015 29.948 153.015 30.296C153.015 30.62 152.913 30.89 152.709 31.106C152.505 31.322 152.229 31.43 151.881 31.43ZM151.881 38.072C151.521 38.072 151.233 37.964 151.017 37.748C150.813 37.532 150.711 37.256 150.711 36.92C150.711 36.584 150.813 36.314 151.017 36.11C151.233 35.894 151.521 35.786 151.881 35.786C152.229 35.786 152.505 35.894 152.709 36.11C152.913 36.314 153.015 36.584 153.015 36.92C153.015 37.256 152.913 37.532 152.709 37.748C152.505 37.964 152.229 38.072 151.881 38.072ZM166.154 38.162C164.774 38.162 163.61 37.904 162.662 37.388C161.714 36.86 160.994 36.11 160.502 35.138C160.022 34.166 159.782 33.008 159.782 31.664C159.782 30.332 160.028 29.18 160.52 28.208C161.012 27.224 161.726 26.468 162.662 25.94C163.598 25.412 164.72 25.148 166.028 25.148C166.748 25.148 167.45 25.244 168.134 25.436C168.83 25.616 169.472 25.916 170.06 26.336C170.264 26.48 170.378 26.66 170.402 26.876C170.438 27.08 170.402 27.278 170.294 27.47C170.198 27.65 170.054 27.776 169.862 27.848C169.67 27.908 169.454 27.866 169.214 27.722C168.746 27.398 168.254 27.164 167.738 27.02C167.222 26.864 166.652 26.786 166.028 26.786C164.624 26.786 163.556 27.212 162.824 28.064C162.092 28.904 161.726 30.104 161.726 31.664C161.726 33.26 162.098 34.472 162.842 35.3C163.598 36.128 164.726 36.542 166.226 36.542C167.138 36.542 168.044 36.392 168.944 36.092V32.69H166.622C166.106 32.69 165.848 32.45 165.848 31.97C165.848 31.514 166.106 31.286 166.622 31.286H169.736C170.252 31.286 170.51 31.544 170.51 32.06V36.596C170.51 37.052 170.342 37.346 170.006 37.478C169.49 37.682 168.884 37.85 168.188 37.982C167.492 38.102 166.814 38.162 166.154 38.162ZM174.802 38.576C174.694 38.744 174.562 38.84 174.406 38.864C174.25 38.9 174.1 38.876 173.956 38.792C173.824 38.708 173.734 38.588 173.686 38.432C173.638 38.288 173.674 38.12 173.794 37.928L174.172 37.244C173.692 36.86 173.32 36.356 173.056 35.732C172.792 35.108 172.66 34.4 172.66 33.608C172.66 32.672 172.834 31.868 173.182 31.196C173.542 30.512 174.046 29.984 174.694 29.612C175.342 29.24 176.11 29.054 176.998 29.054C177.646 29.054 178.234 29.162 178.762 29.378L179.194 28.64C179.29 28.472 179.416 28.376 179.572 28.352C179.728 28.328 179.872 28.358 180.004 28.442C180.148 28.526 180.244 28.646 180.292 28.802C180.352 28.946 180.328 29.108 180.22 29.288L179.806 29.99C180.286 30.386 180.658 30.89 180.922 31.502C181.186 32.114 181.318 32.816 181.318 33.608C181.318 34.544 181.138 35.354 180.778 36.038C180.418 36.71 179.914 37.232 179.266 37.604C178.618 37.976 177.862 38.162 176.998 38.162C176.338 38.162 175.744 38.06 175.216 37.856L174.802 38.576ZM174.496 33.608C174.496 34.508 174.682 35.228 175.054 35.768L178.006 30.674C177.706 30.542 177.37 30.476 176.998 30.476C176.242 30.476 175.636 30.746 175.18 31.286C174.724 31.814 174.496 32.588 174.496 33.608ZM176.998 36.758C177.742 36.758 178.342 36.488 178.798 35.948C179.254 35.408 179.482 34.628 179.482 33.608C179.482 32.72 179.302 32.006 178.942 31.466L175.972 36.56C176.272 36.692 176.614 36.758 176.998 36.758ZM184.278 38.126C183.666 38.126 183.36 37.82 183.36 37.208V30.008C183.36 29.396 183.654 29.09 184.242 29.09C184.83 29.09 185.124 29.396 185.124 30.008V30.782C185.364 30.242 185.724 29.828 186.204 29.54C186.696 29.252 187.29 29.084 187.986 29.036C188.43 29 188.67 29.24 188.706 29.756C188.754 30.284 188.496 30.572 187.932 30.62L187.59 30.656C185.994 30.812 185.196 31.634 185.196 33.122V37.208C185.196 37.82 184.89 38.126 184.278 38.126ZM198.943 38.162C197.503 38.162 196.369 37.76 195.541 36.956C194.713 36.14 194.299 35.03 194.299 33.626C194.299 32.726 194.479 31.934 194.839 31.25C195.211 30.554 195.721 30.014 196.369 29.63C197.017 29.246 197.761 29.054 198.601 29.054C199.813 29.054 200.767 29.444 201.463 30.224C202.159 30.992 202.507 32.054 202.507 33.41C202.507 33.818 202.267 34.022 201.787 34.022H196.063C196.195 35.846 197.161 36.758 198.961 36.758C199.321 36.758 199.699 36.716 200.095 36.632C200.491 36.536 200.875 36.368 201.247 36.128C201.499 35.984 201.715 35.936 201.895 35.984C202.087 36.02 202.225 36.122 202.309 36.29C202.393 36.446 202.405 36.626 202.345 36.83C202.297 37.022 202.159 37.19 201.931 37.334C201.523 37.61 201.043 37.82 200.491 37.964C199.951 38.096 199.435 38.162 198.943 38.162ZM198.673 30.332C197.917 30.332 197.317 30.566 196.873 31.034C196.429 31.502 196.159 32.126 196.063 32.906H200.977C200.941 32.09 200.725 31.46 200.329 31.016C199.933 30.56 199.381 30.332 198.673 30.332ZM205.389 38.126C204.789 38.126 204.489 37.82 204.489 37.208V30.008C204.489 29.396 204.783 29.09 205.371 29.09C205.959 29.09 206.253 29.396 206.253 30.008V30.674C206.553 30.146 206.961 29.744 207.477 29.468C208.005 29.192 208.593 29.054 209.241 29.054C211.317 29.054 212.355 30.23 212.355 32.582V37.208C212.355 37.82 212.055 38.126 211.455 38.126C210.843 38.126 210.537 37.82 210.537 37.208V32.69C210.537 31.934 210.387 31.382 210.087 31.034C209.799 30.686 209.343 30.512 208.719 30.512C207.987 30.512 207.399 30.746 206.955 31.214C206.523 31.67 206.307 32.276 206.307 33.032V37.208C206.307 37.82 206.001 38.126 205.389 38.126ZM222.414 38.162C221.802 38.162 221.256 38.042 220.776 37.802C220.296 37.562 219.912 37.238 219.624 36.83C219.348 36.422 219.21 35.96 219.21 35.444C219.21 34.796 219.372 34.286 219.696 33.914C220.032 33.542 220.578 33.272 221.334 33.104C222.102 32.936 223.134 32.852 224.43 32.852H225.042V32.384C225.042 31.7 224.898 31.208 224.61 30.908C224.322 30.608 223.848 30.458 223.188 30.458C222.804 30.458 222.402 30.506 221.982 30.602C221.574 30.698 221.148 30.86 220.704 31.088C220.452 31.208 220.242 31.226 220.074 31.142C219.918 31.058 219.81 30.926 219.75 30.746C219.69 30.566 219.696 30.38 219.768 30.188C219.84 29.996 219.99 29.852 220.218 29.756C220.746 29.516 221.268 29.342 221.784 29.234C222.3 29.114 222.786 29.054 223.242 29.054C224.442 29.054 225.33 29.342 225.906 29.918C226.482 30.482 226.77 31.37 226.77 32.582V37.208C226.77 37.82 226.488 38.126 225.924 38.126C225.348 38.126 225.06 37.82 225.06 37.208V36.542C224.844 37.046 224.508 37.442 224.052 37.73C223.596 38.018 223.05 38.162 222.414 38.162ZM222.774 36.866C223.422 36.866 223.962 36.638 224.394 36.182C224.826 35.726 225.042 35.15 225.042 34.454V33.968H224.448C223.572 33.968 222.882 34.01 222.378 34.094C221.886 34.178 221.532 34.322 221.316 34.526C221.112 34.718 221.01 34.988 221.01 35.336C221.01 35.792 221.166 36.164 221.478 36.452C221.79 36.728 222.222 36.866 222.774 36.866ZM230.714 38.126C230.102 38.126 229.796 37.82 229.796 37.208V30.62H228.788C228.296 30.62 228.05 30.386 228.05 29.918C228.05 29.45 228.296 29.216 228.788 29.216H229.796V29.054C229.796 27.866 230.09 26.972 230.678 26.372C231.266 25.76 232.124 25.4 233.252 25.292L233.81 25.256C234.062 25.232 234.248 25.286 234.368 25.418C234.5 25.538 234.566 25.694 234.566 25.886C234.566 26.066 234.518 26.228 234.422 26.372C234.326 26.516 234.182 26.6 233.99 26.624L233.648 26.642C232.94 26.69 232.424 26.888 232.1 27.236C231.776 27.584 231.614 28.106 231.614 28.802V29.216H233.36C233.864 29.216 234.116 29.45 234.116 29.918C234.116 30.386 233.864 30.62 233.36 30.62H231.614V37.208C231.614 37.82 231.314 38.126 230.714 38.126ZM241.16 38.126C240.56 38.126 240.26 37.82 240.26 37.208V30.008C240.26 29.396 240.554 29.09 241.142 29.09C241.73 29.09 242.024 29.396 242.024 30.008V30.674C242.324 30.146 242.732 29.744 243.248 29.468C243.776 29.192 244.364 29.054 245.012 29.054C247.088 29.054 248.126 30.23 248.126 32.582V37.208C248.126 37.82 247.826 38.126 247.226 38.126C246.614 38.126 246.308 37.82 246.308 37.208V32.69C246.308 31.934 246.158 31.382 245.858 31.034C245.57 30.686 245.114 30.512 244.49 30.512C243.758 30.512 243.17 30.746 242.726 31.214C242.294 31.67 242.078 32.276 242.078 33.032V37.208C242.078 37.82 241.772 38.126 241.16 38.126ZM254.754 38.162C253.314 38.162 252.18 37.76 251.352 36.956C250.524 36.14 250.11 35.03 250.11 33.626C250.11 32.726 250.29 31.934 250.65 31.25C251.022 30.554 251.532 30.014 252.18 29.63C252.828 29.246 253.572 29.054 254.412 29.054C255.624 29.054 256.578 29.444 257.274 30.224C257.97 30.992 258.318 32.054 258.318 33.41C258.318 33.818 258.078 34.022 257.598 34.022H251.874C252.006 35.846 252.972 36.758 254.772 36.758C255.132 36.758 255.51 36.716 255.906 36.632C256.302 36.536 256.686 36.368 257.058 36.128C257.31 35.984 257.526 35.936 257.706 35.984C257.898 36.02 258.036 36.122 258.12 36.29C258.204 36.446 258.216 36.626 258.156 36.83C258.108 37.022 257.97 37.19 257.742 37.334C257.334 37.61 256.854 37.82 256.302 37.964C255.762 38.096 255.246 38.162 254.754 38.162ZM254.484 30.332C253.728 30.332 253.128 30.566 252.684 31.034C252.24 31.502 251.97 32.126 251.874 32.906H256.788C256.752 32.09 256.536 31.46 256.14 31.016C255.744 30.56 255.192 30.332 254.484 30.332ZM263.647 38.162C262.879 38.162 262.201 37.982 261.613 37.622C261.037 37.25 260.587 36.722 260.263 36.038C259.939 35.354 259.777 34.544 259.777 33.608C259.777 32.672 259.939 31.868 260.263 31.196C260.587 30.512 261.037 29.984 261.613 29.612C262.189 29.24 262.867 29.054 263.647 29.054C264.307 29.054 264.895 29.198 265.411 29.486C265.927 29.774 266.311 30.164 266.563 30.656V26.102C266.563 25.49 266.863 25.184 267.463 25.184C268.075 25.184 268.381 25.49 268.381 26.102V37.208C268.381 37.82 268.081 38.126 267.481 38.126C266.881 38.126 266.581 37.82 266.581 37.208V36.524C266.317 37.028 265.927 37.43 265.411 37.73C264.895 38.018 264.307 38.162 263.647 38.162ZM264.115 36.758C264.859 36.758 265.459 36.488 265.915 35.948C266.371 35.408 266.599 34.628 266.599 33.608C266.599 32.588 266.371 31.814 265.915 31.286C265.459 30.746 264.859 30.476 264.115 30.476C263.359 30.476 262.753 30.746 262.297 31.286C261.841 31.814 261.613 32.588 261.613 33.608C261.613 34.628 261.841 35.408 262.297 35.948C262.753 36.488 263.359 36.758 264.115 36.758ZM275.056 38.162C273.616 38.162 272.482 37.76 271.654 36.956C270.826 36.14 270.412 35.03 270.412 33.626C270.412 32.726 270.592 31.934 270.952 31.25C271.324 30.554 271.834 30.014 272.482 29.63C273.13 29.246 273.874 29.054 274.714 29.054C275.926 29.054 276.88 29.444 277.576 30.224C278.272 30.992 278.62 32.054 278.62 33.41C278.62 33.818 278.38 34.022 277.9 34.022H272.176C272.308 35.846 273.274 36.758 275.074 36.758C275.434 36.758 275.812 36.716 276.208 36.632C276.604 36.536 276.988 36.368 277.36 36.128C277.612 35.984 277.828 35.936 278.008 35.984C278.2 36.02 278.338 36.122 278.422 36.29C278.506 36.446 278.518 36.626 278.458 36.83C278.41 37.022 278.272 37.19 278.044 37.334C277.636 37.61 277.156 37.82 276.604 37.964C276.064 38.096 275.548 38.162 275.056 38.162ZM274.786 30.332C274.03 30.332 273.43 30.566 272.986 31.034C272.542 31.502 272.272 32.126 272.176 32.906H277.09C277.054 32.09 276.838 31.46 276.442 31.016C276.046 30.56 275.494 30.332 274.786 30.332ZM281.502 38.126C280.902 38.126 280.602 37.82 280.602 37.208V30.008C280.602 29.396 280.896 29.09 281.484 29.09C282.072 29.09 282.366 29.396 282.366 30.008V30.674C282.666 30.146 283.074 29.744 283.59 29.468C284.118 29.192 284.706 29.054 285.354 29.054C287.43 29.054 288.468 30.23 288.468 32.582V37.208C288.468 37.82 288.168 38.126 287.568 38.126C286.956 38.126 286.65 37.82 286.65 37.208V32.69C286.65 31.934 286.5 31.382 286.2 31.034C285.912 30.686 285.456 30.512 284.832 30.512C284.1 30.512 283.512 30.746 283.068 31.214C282.636 31.67 282.42 32.276 282.42 33.032V37.208C282.42 37.82 282.114 38.126 281.502 38.126ZM294.051 38.162C293.523 38.162 292.977 38.102 292.413 37.982C291.849 37.862 291.339 37.658 290.883 37.37C290.679 37.25 290.553 37.1 290.505 36.92C290.457 36.74 290.469 36.572 290.541 36.416C290.613 36.26 290.727 36.152 290.883 36.092C291.051 36.02 291.237 36.038 291.441 36.146C291.909 36.398 292.359 36.578 292.791 36.686C293.223 36.794 293.649 36.848 294.069 36.848C294.705 36.848 295.185 36.734 295.509 36.506C295.833 36.278 295.995 35.972 295.995 35.588C295.995 35.276 295.887 35.036 295.671 34.868C295.455 34.688 295.131 34.55 294.699 34.454L292.989 34.112C291.477 33.8 290.721 33.02 290.721 31.772C290.721 30.944 291.051 30.284 291.711 29.792C292.371 29.3 293.235 29.054 294.303 29.054C295.383 29.054 296.313 29.318 297.093 29.846C297.285 29.966 297.399 30.116 297.435 30.296C297.471 30.464 297.447 30.626 297.363 30.782C297.279 30.926 297.153 31.028 296.985 31.088C296.829 31.148 296.643 31.124 296.427 31.016C296.067 30.8 295.707 30.644 295.347 30.548C294.987 30.44 294.639 30.386 294.303 30.386C293.679 30.386 293.205 30.506 292.881 30.746C292.557 30.974 292.395 31.286 292.395 31.682C292.395 32.282 292.791 32.666 293.583 32.834L295.293 33.176C296.073 33.332 296.661 33.596 297.057 33.968C297.465 34.34 297.669 34.844 297.669 35.48C297.669 36.32 297.339 36.98 296.679 37.46C296.019 37.928 295.143 38.162 294.051 38.162ZM303.348 38.162C302.244 38.162 301.422 37.88 300.882 37.316C300.342 36.752 300.072 35.936 300.072 34.868V30.62H298.992C298.488 30.62 298.236 30.386 298.236 29.918C298.236 29.45 298.488 29.216 298.992 29.216H300.072V27.362C300.072 26.75 300.378 26.444 300.99 26.444C301.59 26.444 301.89 26.75 301.89 27.362V29.216H303.996C304.5 29.216 304.752 29.45 304.752 29.918C304.752 30.386 304.5 30.62 303.996 30.62H301.89V34.724C301.89 35.36 302.022 35.84 302.286 36.164C302.562 36.488 303.006 36.65 303.618 36.65C303.834 36.65 304.02 36.632 304.176 36.596C304.332 36.548 304.47 36.518 304.59 36.506C304.722 36.506 304.83 36.554 304.914 36.65C304.998 36.734 305.04 36.902 305.04 37.154C305.04 37.346 305.004 37.52 304.932 37.676C304.872 37.82 304.758 37.916 304.59 37.964C304.446 38.024 304.248 38.072 303.996 38.108C303.756 38.144 303.54 38.162 303.348 38.162ZM308.986 38.162C308.374 38.162 307.828 38.042 307.348 37.802C306.868 37.562 306.484 37.238 306.196 36.83C305.92 36.422 305.782 35.96 305.782 35.444C305.782 34.796 305.944 34.286 306.268 33.914C306.604 33.542 307.15 33.272 307.906 33.104C308.674 32.936 309.706 32.852 311.002 32.852H311.614V32.384C311.614 31.7 311.47 31.208 311.182 30.908C310.894 30.608 310.42 30.458 309.76 30.458C309.376 30.458 308.974 30.506 308.554 30.602C308.146 30.698 307.72 30.86 307.276 31.088C307.024 31.208 306.814 31.226 306.646 31.142C306.49 31.058 306.382 30.926 306.322 30.746C306.262 30.566 306.268 30.38 306.34 30.188C306.412 29.996 306.562 29.852 306.79 29.756C307.318 29.516 307.84 29.342 308.356 29.234C308.872 29.114 309.358 29.054 309.814 29.054C311.014 29.054 311.902 29.342 312.478 29.918C313.054 30.482 313.342 31.37 313.342 32.582V37.208C313.342 37.82 313.06 38.126 312.496 38.126C311.92 38.126 311.632 37.82 311.632 37.208V36.542C311.416 37.046 311.08 37.442 310.624 37.73C310.168 38.018 309.622 38.162 308.986 38.162ZM309.346 36.866C309.994 36.866 310.534 36.638 310.966 36.182C311.398 35.726 311.614 35.15 311.614 34.454V33.968H311.02C310.144 33.968 309.454 34.01 308.95 34.094C308.458 34.178 308.104 34.322 307.888 34.526C307.684 34.718 307.582 34.988 307.582 35.336C307.582 35.792 307.738 36.164 308.05 36.452C308.362 36.728 308.794 36.866 309.346 36.866ZM309.85 28.172C309.226 28.172 308.704 27.962 308.284 27.542C307.864 27.122 307.654 26.612 307.654 26.012C307.654 25.412 307.864 24.908 308.284 24.5C308.704 24.092 309.226 23.888 309.85 23.888C310.474 23.888 310.996 24.092 311.416 24.5C311.836 24.908 312.046 25.412 312.046 26.012C312.046 26.612 311.836 27.122 311.416 27.542C310.996 27.962 310.474 28.172 309.85 28.172ZM309.85 27.272C310.21 27.272 310.504 27.152 310.732 26.912C310.972 26.672 311.092 26.372 311.092 26.012C311.092 25.664 310.972 25.376 310.732 25.148C310.504 24.908 310.21 24.788 309.85 24.788C309.49 24.788 309.19 24.908 308.95 25.148C308.722 25.376 308.608 25.664 308.608 26.012C308.608 26.372 308.722 26.672 308.95 26.912C309.19 27.152 309.49 27.272 309.85 27.272ZM319.968 38.162C318.528 38.162 317.394 37.76 316.566 36.956C315.738 36.14 315.324 35.03 315.324 33.626C315.324 32.726 315.504 31.934 315.864 31.25C316.236 30.554 316.746 30.014 317.394 29.63C318.042 29.246 318.786 29.054 319.626 29.054C320.838 29.054 321.792 29.444 322.488 30.224C323.184 30.992 323.532 32.054 323.532 33.41C323.532 33.818 323.292 34.022 322.812 34.022H317.088C317.22 35.846 318.186 36.758 319.986 36.758C320.346 36.758 320.724 36.716 321.12 36.632C321.516 36.536 321.9 36.368 322.272 36.128C322.524 35.984 322.74 35.936 322.92 35.984C323.112 36.02 323.25 36.122 323.334 36.29C323.418 36.446 323.43 36.626 323.37 36.83C323.322 37.022 323.184 37.19 322.956 37.334C322.548 37.61 322.068 37.82 321.516 37.964C320.976 38.096 320.46 38.162 319.968 38.162ZM319.698 30.332C318.942 30.332 318.342 30.566 317.898 31.034C317.454 31.502 317.184 32.126 317.088 32.906H322.002C321.966 32.09 321.75 31.46 321.354 31.016C320.958 30.56 320.406 30.332 319.698 30.332ZM326.414 38.126C325.814 38.126 325.514 37.82 325.514 37.208V30.008C325.514 29.396 325.808 29.09 326.396 29.09C326.984 29.09 327.278 29.396 327.278 30.008V30.674C327.578 30.146 327.986 29.744 328.502 29.468C329.03 29.192 329.618 29.054 330.266 29.054C332.342 29.054 333.38 30.23 333.38 32.582V37.208C333.38 37.82 333.08 38.126 332.48 38.126C331.868 38.126 331.562 37.82 331.562 37.208V32.69C331.562 31.934 331.412 31.382 331.112 31.034C330.824 30.686 330.368 30.512 329.744 30.512C329.012 30.512 328.424 30.746 327.98 31.214C327.548 31.67 327.332 32.276 327.332 33.032V37.208C327.332 37.82 327.026 38.126 326.414 38.126ZM339.233 38.162C338.465 38.162 337.787 37.982 337.199 37.622C336.623 37.25 336.173 36.722 335.849 36.038C335.525 35.354 335.363 34.544 335.363 33.608C335.363 32.672 335.525 31.868 335.849 31.196C336.173 30.512 336.623 29.984 337.199 29.612C337.775 29.24 338.453 29.054 339.233 29.054C339.893 29.054 340.481 29.198 340.997 29.486C341.513 29.774 341.897 30.164 342.149 30.656V26.102C342.149 25.49 342.449 25.184 343.049 25.184C343.661 25.184 343.967 25.49 343.967 26.102V37.208C343.967 37.82 343.667 38.126 343.067 38.126C342.467 38.126 342.167 37.82 342.167 37.208V36.524C341.903 37.028 341.513 37.43 340.997 37.73C340.481 38.018 339.893 38.162 339.233 38.162ZM339.701 36.758C340.445 36.758 341.045 36.488 341.501 35.948C341.957 35.408 342.185 34.628 342.185 33.608C342.185 32.588 341.957 31.814 341.501 31.286C341.045 30.746 340.445 30.476 339.701 30.476C338.945 30.476 338.339 30.746 337.883 31.286C337.427 31.814 337.199 32.588 337.199 33.608C337.199 34.628 337.427 35.408 337.883 35.948C338.339 36.488 338.945 36.758 339.701 36.758ZM350.642 38.162C349.202 38.162 348.068 37.76 347.24 36.956C346.412 36.14 345.998 35.03 345.998 33.626C345.998 32.726 346.178 31.934 346.538 31.25C346.91 30.554 347.42 30.014 348.068 29.63C348.716 29.246 349.46 29.054 350.3 29.054C351.512 29.054 352.466 29.444 353.162 30.224C353.858 30.992 354.206 32.054 354.206 33.41C354.206 33.818 353.966 34.022 353.486 34.022H347.762C347.894 35.846 348.86 36.758 350.66 36.758C351.02 36.758 351.398 36.716 351.794 36.632C352.19 36.536 352.574 36.368 352.946 36.128C353.198 35.984 353.414 35.936 353.594 35.984C353.786 36.02 353.924 36.122 354.008 36.29C354.092 36.446 354.104 36.626 354.044 36.83C353.996 37.022 353.858 37.19 353.63 37.334C353.222 37.61 352.742 37.82 352.19 37.964C351.65 38.096 351.134 38.162 350.642 38.162ZM350.372 30.332C349.616 30.332 349.016 30.566 348.572 31.034C348.128 31.502 347.858 32.126 347.762 32.906H352.676C352.64 32.09 352.424 31.46 352.028 31.016C351.632 30.56 351.08 30.332 350.372 30.332Z" fill="white"/>
</g>
<g filter="url(#filter1_d_264_759)">
<path d="M5.78673 18C5.11473 18 4.77873 17.664 4.77873 16.992V6.318C4.77873 5.646 5.11473 5.31 5.78673 5.31H9.26073C11.3487 5.31 12.9567 5.856 14.0847 6.948C15.2247 8.04 15.7947 9.606 15.7947 11.646C15.7947 13.686 15.2247 15.258 14.0847 16.362C12.9567 17.454 11.3487 18 9.26073 18H5.78673ZM6.65073 16.434H9.15273C12.2847 16.434 13.8507 14.838 13.8507 11.646C13.8507 8.466 12.2847 6.876 9.15273 6.876H6.65073V16.434ZM21.2303 18.162C19.1063 18.162 18.0443 16.98 18.0443 14.616V10.008C18.0443 9.396 18.3443 9.09 18.9443 9.09C19.5563 9.09 19.8623 9.396 19.8623 10.008V14.634C19.8623 15.342 20.0063 15.864 20.2943 16.2C20.5823 16.536 21.0383 16.704 21.6623 16.704C22.3463 16.704 22.8983 16.476 23.3183 16.02C23.7503 15.564 23.9663 14.952 23.9663 14.184V10.008C23.9663 9.396 24.2723 9.09 24.8843 9.09C25.4843 9.09 25.7843 9.396 25.7843 10.008V17.208C25.7843 17.82 25.4903 18.126 24.9023 18.126C24.3143 18.126 24.0203 17.82 24.0203 17.208V16.596C23.7323 17.112 23.3483 17.502 22.8683 17.766C22.3883 18.03 21.8423 18.162 21.2303 18.162ZM33.9925 18.126C33.3925 18.126 33.0925 17.82 33.0925 17.208V6.102C33.0925 5.49 33.3925 5.184 33.9925 5.184C34.6045 5.184 34.9105 5.49 34.9105 6.102V10.584C35.2105 10.08 35.6125 9.702 36.1165 9.45C36.6325 9.186 37.2085 9.054 37.8445 9.054C39.9205 9.054 40.9585 10.23 40.9585 12.582V17.208C40.9585 17.82 40.6585 18.126 40.0585 18.126C39.4465 18.126 39.1405 17.82 39.1405 17.208V12.69C39.1405 11.934 38.9905 11.382 38.6905 11.034C38.4025 10.686 37.9465 10.512 37.3225 10.512C36.5905 10.512 36.0025 10.746 35.5585 11.214C35.1265 11.67 34.9105 12.276 34.9105 13.032V17.208C34.9105 17.82 34.6045 18.126 33.9925 18.126ZM46.2715 18.162C45.6595 18.162 45.1135 18.042 44.6335 17.802C44.1535 17.562 43.7695 17.238 43.4815 16.83C43.2055 16.422 43.0675 15.96 43.0675 15.444C43.0675 14.796 43.2295 14.286 43.5535 13.914C43.8895 13.542 44.4355 13.272 45.1915 13.104C45.9595 12.936 46.9915 12.852 48.2875 12.852H48.8995V12.384C48.8995 11.7 48.7555 11.208 48.4675 10.908C48.1795 10.608 47.7055 10.458 47.0455 10.458C46.6615 10.458 46.2595 10.506 45.8395 10.602C45.4315 10.698 45.0055 10.86 44.5615 11.088C44.3095 11.208 44.0995 11.226 43.9315 11.142C43.7755 11.058 43.6675 10.926 43.6075 10.746C43.5475 10.566 43.5535 10.38 43.6255 10.188C43.6975 9.996 43.8475 9.852 44.0755 9.756C44.6035 9.516 45.1255 9.342 45.6415 9.234C46.1575 9.114 46.6435 9.054 47.0995 9.054C48.2995 9.054 49.1875 9.342 49.7635 9.918C50.3395 10.482 50.6275 11.37 50.6275 12.582V17.208C50.6275 17.82 50.3455 18.126 49.7815 18.126C49.2055 18.126 48.9175 17.82 48.9175 17.208V16.542C48.7015 17.046 48.3655 17.442 47.9095 17.73C47.4535 18.018 46.9075 18.162 46.2715 18.162ZM46.6315 16.866C47.2795 16.866 47.8195 16.638 48.2515 16.182C48.6835 15.726 48.8995 15.15 48.8995 14.454V13.968H48.3055C47.4295 13.968 46.7395 14.01 46.2355 14.094C45.7435 14.178 45.3895 14.322 45.1735 14.526C44.9695 14.718 44.8675 14.988 44.8675 15.336C44.8675 15.792 45.0235 16.164 45.3355 16.452C45.6475 16.728 46.0795 16.866 46.6315 16.866ZM54.0495 18.126C53.4375 18.126 53.1315 17.82 53.1315 17.208V10.008C53.1315 9.396 53.4255 9.09 54.0135 9.09C54.6015 9.09 54.8955 9.396 54.8955 10.008V10.782C55.1355 10.242 55.4955 9.828 55.9755 9.54C56.4675 9.252 57.0615 9.084 57.7575 9.036C58.2015 9 58.4415 9.24 58.4775 9.756C58.5255 10.284 58.2675 10.572 57.7035 10.62L57.3615 10.656C55.7655 10.812 54.9675 11.634 54.9675 13.122V17.208C54.9675 17.82 54.6615 18.126 54.0495 18.126ZM67.4185 18.162C66.4825 18.162 65.7745 17.892 65.2945 17.352C64.8265 16.812 64.5925 16.02 64.5925 14.976V6.102C64.5925 5.49 64.8925 5.184 65.4925 5.184C66.1045 5.184 66.4105 5.49 66.4105 6.102V14.868C66.4105 16.056 66.8905 16.65 67.8505 16.65C67.9585 16.65 68.0545 16.644 68.1385 16.632C68.2225 16.62 68.3065 16.614 68.3905 16.614C68.5345 16.602 68.6365 16.644 68.6965 16.74C68.7565 16.824 68.7865 17.004 68.7865 17.28C68.7865 17.772 68.5585 18.054 68.1025 18.126C67.9825 18.138 67.8625 18.144 67.7425 18.144C67.6345 18.156 67.5265 18.162 67.4185 18.162ZM70.9944 7.254C70.6344 7.254 70.3524 7.164 70.1484 6.984C69.9564 6.804 69.8604 6.552 69.8604 6.228C69.8604 5.544 70.2384 5.202 70.9944 5.202C71.7504 5.202 72.1284 5.544 72.1284 6.228C72.1284 6.912 71.7504 7.254 70.9944 7.254ZM70.9944 18.108C70.3944 18.108 70.0944 17.778 70.0944 17.118V10.098C70.0944 9.45 70.3944 9.126 70.9944 9.126C71.6064 9.126 71.9124 9.45 71.9124 10.098V17.118C71.9124 17.778 71.6064 18.108 70.9944 18.108ZM78.4494 21.402C77.8014 21.402 77.1714 21.336 76.5594 21.204C75.9594 21.072 75.4134 20.856 74.9214 20.556C74.7054 20.436 74.5734 20.286 74.5254 20.106C74.4774 19.926 74.4954 19.752 74.5794 19.584C74.6754 19.416 74.8014 19.29 74.9574 19.206C75.1254 19.134 75.3054 19.152 75.4974 19.26C76.0254 19.548 76.5234 19.74 76.9914 19.836C77.4714 19.944 77.9154 19.998 78.3234 19.998C80.0034 19.998 80.8434 19.158 80.8434 17.478V16.092C80.5914 16.62 80.1954 17.034 79.6554 17.334C79.1274 17.634 78.5334 17.784 77.8734 17.784C77.0814 17.784 76.3914 17.604 75.8034 17.244C75.2154 16.872 74.7594 16.362 74.4354 15.714C74.1114 15.054 73.9494 14.286 73.9494 13.41C73.9494 12.546 74.1114 11.79 74.4354 11.142C74.7594 10.482 75.2154 9.972 75.8034 9.612C76.3914 9.24 77.0814 9.054 77.8734 9.054C78.5334 9.054 79.1214 9.204 79.6374 9.504C80.1654 9.792 80.5554 10.188 80.8074 10.692V10.008C80.8074 9.396 81.1074 9.09 81.7074 9.09C82.3074 9.09 82.6074 9.396 82.6074 10.008V17.262C82.6074 18.642 82.2534 19.674 81.5454 20.358C80.8374 21.054 79.8054 21.402 78.4494 21.402ZM78.3054 16.362C79.0734 16.362 79.6854 16.098 80.1414 15.57C80.5974 15.042 80.8254 14.322 80.8254 13.41C80.8254 12.498 80.5974 11.784 80.1414 11.268C79.6854 10.74 79.0734 10.476 78.3054 10.476C77.5374 10.476 76.9254 10.74 76.4694 11.268C76.0134 11.784 75.7854 12.498 75.7854 13.41C75.7854 14.322 76.0134 15.042 76.4694 15.57C76.9254 16.098 77.5374 16.362 78.3054 16.362ZM89.2809 18.162C87.8409 18.162 86.7069 17.76 85.8789 16.956C85.0509 16.14 84.6369 15.03 84.6369 13.626C84.6369 12.726 84.8169 11.934 85.1769 11.25C85.5489 10.554 86.0589 10.014 86.7069 9.63C87.3549 9.246 88.0989 9.054 88.9389 9.054C90.1509 9.054 91.1049 9.444 91.8009 10.224C92.4969 10.992 92.8449 12.054 92.8449 13.41C92.8449 13.818 92.6049 14.022 92.1249 14.022H86.4009C86.5329 15.846 87.4989 16.758 89.2989 16.758C89.6589 16.758 90.0369 16.716 90.4329 16.632C90.8289 16.536 91.2129 16.368 91.5849 16.128C91.8369 15.984 92.0529 15.936 92.2329 15.984C92.4249 16.02 92.5629 16.122 92.6469 16.29C92.7309 16.446 92.7429 16.626 92.6829 16.83C92.6349 17.022 92.4969 17.19 92.2689 17.334C91.8609 17.61 91.3809 17.82 90.8289 17.964C90.2889 18.096 89.7729 18.162 89.2809 18.162ZM89.0109 10.332C88.2549 10.332 87.6549 10.566 87.2109 11.034C86.7669 11.502 86.4969 12.126 86.4009 12.906H91.3149C91.2789 12.09 91.0629 11.46 90.6669 11.016C90.2709 10.56 89.7189 10.332 89.0109 10.332ZM100.473 18.126C99.8729 18.126 99.5729 17.82 99.5729 17.208V10.008C99.5729 9.396 99.8669 9.09 100.455 9.09C101.043 9.09 101.337 9.396 101.337 10.008V10.674C101.637 10.146 102.045 9.744 102.561 9.468C103.089 9.192 103.677 9.054 104.325 9.054C106.401 9.054 107.439 10.23 107.439 12.582V17.208C107.439 17.82 107.139 18.126 106.539 18.126C105.927 18.126 105.621 17.82 105.621 17.208V12.69C105.621 11.934 105.471 11.382 105.171 11.034C104.883 10.686 104.427 10.512 103.803 10.512C103.071 10.512 102.483 10.746 102.039 11.214C101.607 11.67 101.391 12.276 101.391 13.032V17.208C101.391 17.82 101.085 18.126 100.473 18.126ZM113.076 18.162C110.952 18.162 109.89 16.98 109.89 14.616V10.008C109.89 9.396 110.19 9.09 110.79 9.09C111.402 9.09 111.708 9.396 111.708 10.008V14.634C111.708 15.342 111.852 15.864 112.14 16.2C112.428 16.536 112.884 16.704 113.508 16.704C114.192 16.704 114.744 16.476 115.164 16.02C115.596 15.564 115.812 14.952 115.812 14.184V10.008C115.812 9.396 116.118 9.09 116.73 9.09C117.33 9.09 117.63 9.396 117.63 10.008V17.208C117.63 17.82 117.336 18.126 116.748 18.126C116.16 18.126 115.866 17.82 115.866 17.208V16.596C115.578 17.112 115.194 17.502 114.714 17.766C114.234 18.03 113.688 18.162 113.076 18.162ZM125.838 7.254C125.478 7.254 125.196 7.164 124.992 6.984C124.8 6.804 124.704 6.552 124.704 6.228C124.704 5.544 125.082 5.202 125.838 5.202C126.594 5.202 126.972 5.544 126.972 6.228C126.972 6.912 126.594 7.254 125.838 7.254ZM125.838 18.108C125.238 18.108 124.938 17.778 124.938 17.118V10.098C124.938 9.45 125.238 9.126 125.838 9.126C126.45 9.126 126.756 9.45 126.756 10.098V17.118C126.756 17.778 126.45 18.108 125.838 18.108ZM130.215 18.126C129.615 18.126 129.315 17.82 129.315 17.208V10.008C129.315 9.396 129.609 9.09 130.197 9.09C130.785 9.09 131.079 9.396 131.079 10.008V10.674C131.379 10.146 131.787 9.744 132.303 9.468C132.831 9.192 133.419 9.054 134.067 9.054C136.143 9.054 137.181 10.23 137.181 12.582V17.208C137.181 17.82 136.881 18.126 136.281 18.126C135.669 18.126 135.363 17.82 135.363 17.208V12.69C135.363 11.934 135.213 11.382 134.913 11.034C134.625 10.686 134.169 10.512 133.545 10.512C132.813 10.512 132.225 10.746 131.781 11.214C131.349 11.67 131.133 12.276 131.133 13.032V17.208C131.133 17.82 130.827 18.126 130.215 18.126ZM143.664 21.402C143.016 21.402 142.386 21.336 141.774 21.204C141.174 21.072 140.628 20.856 140.136 20.556C139.92 20.436 139.788 20.286 139.74 20.106C139.692 19.926 139.71 19.752 139.794 19.584C139.89 19.416 140.016 19.29 140.172 19.206C140.34 19.134 140.52 19.152 140.712 19.26C141.24 19.548 141.738 19.74 142.206 19.836C142.686 19.944 143.13 19.998 143.538 19.998C145.218 19.998 146.058 19.158 146.058 17.478V16.092C145.806 16.62 145.41 17.034 144.87 17.334C144.342 17.634 143.748 17.784 143.088 17.784C142.296 17.784 141.606 17.604 141.018 17.244C140.43 16.872 139.974 16.362 139.65 15.714C139.326 15.054 139.164 14.286 139.164 13.41C139.164 12.546 139.326 11.79 139.65 11.142C139.974 10.482 140.43 9.972 141.018 9.612C141.606 9.24 142.296 9.054 143.088 9.054C143.748 9.054 144.336 9.204 144.852 9.504C145.38 9.792 145.77 10.188 146.022 10.692V10.008C146.022 9.396 146.322 9.09 146.922 9.09C147.522 9.09 147.822 9.396 147.822 10.008V17.262C147.822 18.642 147.468 19.674 146.76 20.358C146.052 21.054 145.02 21.402 143.664 21.402ZM143.52 16.362C144.288 16.362 144.9 16.098 145.356 15.57C145.812 15.042 146.04 14.322 146.04 13.41C146.04 12.498 145.812 11.784 145.356 11.268C144.9 10.74 144.288 10.476 143.52 10.476C142.752 10.476 142.14 10.74 141.684 11.268C141.228 11.784 141 12.498 141 13.41C141 14.322 141.228 15.042 141.684 15.57C142.14 16.098 142.752 16.362 143.52 16.362ZM154.496 18.162C153.056 18.162 151.922 17.76 151.094 16.956C150.266 16.14 149.852 15.03 149.852 13.626C149.852 12.726 150.032 11.934 150.392 11.25C150.764 10.554 151.274 10.014 151.922 9.63C152.57 9.246 153.314 9.054 154.154 9.054C155.366 9.054 156.32 9.444 157.016 10.224C157.712 10.992 158.06 12.054 158.06 13.41C158.06 13.818 157.82 14.022 157.34 14.022H151.616C151.748 15.846 152.714 16.758 154.514 16.758C154.874 16.758 155.252 16.716 155.648 16.632C156.044 16.536 156.428 16.368 156.8 16.128C157.052 15.984 157.268 15.936 157.448 15.984C157.64 16.02 157.778 16.122 157.862 16.29C157.946 16.446 157.958 16.626 157.898 16.83C157.85 17.022 157.712 17.19 157.484 17.334C157.076 17.61 156.596 17.82 156.044 17.964C155.504 18.096 154.988 18.162 154.496 18.162ZM154.226 10.332C153.47 10.332 152.87 10.566 152.426 11.034C151.982 11.502 151.712 12.126 151.616 12.906H156.53C156.494 12.09 156.278 11.46 155.882 11.016C155.486 10.56 154.934 10.332 154.226 10.332ZM160.942 18.126C160.342 18.126 160.042 17.82 160.042 17.208V10.008C160.042 9.396 160.336 9.09 160.924 9.09C161.512 9.09 161.806 9.396 161.806 10.008V10.674C162.106 10.146 162.514 9.744 163.03 9.468C163.558 9.192 164.146 9.054 164.794 9.054C166.87 9.054 167.908 10.23 167.908 12.582V17.208C167.908 17.82 167.608 18.126 167.008 18.126C166.396 18.126 166.09 17.82 166.09 17.208V12.69C166.09 11.934 165.94 11.382 165.64 11.034C165.352 10.686 164.896 10.512 164.272 10.512C163.54 10.512 162.952 10.746 162.508 11.214C162.076 11.67 161.86 12.276 161.86 13.032V17.208C161.86 17.82 161.554 18.126 160.942 18.126ZM177.967 18.162C177.355 18.162 176.809 18.042 176.329 17.802C175.849 17.562 175.465 17.238 175.177 16.83C174.901 16.422 174.763 15.96 174.763 15.444C174.763 14.796 174.925 14.286 175.249 13.914C175.585 13.542 176.131 13.272 176.887 13.104C177.655 12.936 178.687 12.852 179.983 12.852H180.595V12.384C180.595 11.7 180.451 11.208 180.163 10.908C179.875 10.608 179.401 10.458 178.741 10.458C178.357 10.458 177.955 10.506 177.535 10.602C177.127 10.698 176.701 10.86 176.257 11.088C176.005 11.208 175.795 11.226 175.627 11.142C175.471 11.058 175.363 10.926 175.303 10.746C175.243 10.566 175.249 10.38 175.321 10.188C175.393 9.996 175.543 9.852 175.771 9.756C176.299 9.516 176.821 9.342 177.337 9.234C177.853 9.114 178.339 9.054 178.795 9.054C179.995 9.054 180.883 9.342 181.459 9.918C182.035 10.482 182.323 11.37 182.323 12.582V17.208C182.323 17.82 182.041 18.126 181.477 18.126C180.901 18.126 180.613 17.82 180.613 17.208V16.542C180.397 17.046 180.061 17.442 179.605 17.73C179.149 18.018 178.603 18.162 177.967 18.162ZM178.327 16.866C178.975 16.866 179.515 16.638 179.947 16.182C180.379 15.726 180.595 15.15 180.595 14.454V13.968H180.001C179.125 13.968 178.435 14.01 177.931 14.094C177.439 14.178 177.085 14.322 176.869 14.526C176.665 14.718 176.563 14.988 176.563 15.336C176.563 15.792 176.719 16.164 177.031 16.452C177.343 16.728 177.775 16.866 178.327 16.866ZM188.175 18.162C187.407 18.162 186.729 17.982 186.141 17.622C185.565 17.25 185.115 16.722 184.791 16.038C184.467 15.354 184.305 14.544 184.305 13.608C184.305 12.672 184.467 11.868 184.791 11.196C185.115 10.512 185.565 9.984 186.141 9.612C186.717 9.24 187.395 9.054 188.175 9.054C188.835 9.054 189.423 9.198 189.939 9.486C190.455 9.774 190.839 10.164 191.091 10.656V6.102C191.091 5.49 191.391 5.184 191.991 5.184C192.603 5.184 192.909 5.49 192.909 6.102V17.208C192.909 17.82 192.609 18.126 192.009 18.126C191.409 18.126 191.109 17.82 191.109 17.208V16.524C190.845 17.028 190.455 17.43 189.939 17.73C189.423 18.018 188.835 18.162 188.175 18.162ZM188.643 16.758C189.387 16.758 189.987 16.488 190.443 15.948C190.899 15.408 191.127 14.628 191.127 13.608C191.127 12.588 190.899 11.814 190.443 11.286C189.987 10.746 189.387 10.476 188.643 10.476C187.887 10.476 187.281 10.746 186.825 11.286C186.369 11.814 186.141 12.588 186.141 13.608C186.141 14.628 186.369 15.408 186.825 15.948C187.281 16.488 187.887 16.758 188.643 16.758ZM199.44 21.402C198.792 21.402 198.162 21.336 197.55 21.204C196.95 21.072 196.404 20.856 195.912 20.556C195.696 20.436 195.564 20.286 195.516 20.106C195.468 19.926 195.486 19.752 195.57 19.584C195.666 19.416 195.792 19.29 195.948 19.206C196.116 19.134 196.296 19.152 196.488 19.26C197.016 19.548 197.514 19.74 197.982 19.836C198.462 19.944 198.906 19.998 199.314 19.998C200.994 19.998 201.834 19.158 201.834 17.478V16.092C201.582 16.62 201.186 17.034 200.646 17.334C200.118 17.634 199.524 17.784 198.864 17.784C198.072 17.784 197.382 17.604 196.794 17.244C196.206 16.872 195.75 16.362 195.426 15.714C195.102 15.054 194.94 14.286 194.94 13.41C194.94 12.546 195.102 11.79 195.426 11.142C195.75 10.482 196.206 9.972 196.794 9.612C197.382 9.24 198.072 9.054 198.864 9.054C199.524 9.054 200.112 9.204 200.628 9.504C201.156 9.792 201.546 10.188 201.798 10.692V10.008C201.798 9.396 202.098 9.09 202.698 9.09C203.298 9.09 203.598 9.396 203.598 10.008V17.262C203.598 18.642 203.244 19.674 202.536 20.358C201.828 21.054 200.796 21.402 199.44 21.402ZM199.296 16.362C200.064 16.362 200.676 16.098 201.132 15.57C201.588 15.042 201.816 14.322 201.816 13.41C201.816 12.498 201.588 11.784 201.132 11.268C200.676 10.74 200.064 10.476 199.296 10.476C198.528 10.476 197.916 10.74 197.46 11.268C197.004 11.784 196.776 12.498 196.776 13.41C196.776 14.322 197.004 15.042 197.46 15.57C197.916 16.098 198.528 16.362 199.296 16.362ZM208.957 18.162C208.345 18.162 207.799 18.042 207.319 17.802C206.839 17.562 206.455 17.238 206.167 16.83C205.891 16.422 205.753 15.96 205.753 15.444C205.753 14.796 205.915 14.286 206.239 13.914C206.575 13.542 207.121 13.272 207.877 13.104C208.645 12.936 209.677 12.852 210.973 12.852H211.585V12.384C211.585 11.7 211.441 11.208 211.153 10.908C210.865 10.608 210.391 10.458 209.731 10.458C209.347 10.458 208.945 10.506 208.525 10.602C208.117 10.698 207.691 10.86 207.247 11.088C206.995 11.208 206.785 11.226 206.617 11.142C206.461 11.058 206.353 10.926 206.293 10.746C206.233 10.566 206.239 10.38 206.311 10.188C206.383 9.996 206.533 9.852 206.761 9.756C207.289 9.516 207.811 9.342 208.327 9.234C208.843 9.114 209.329 9.054 209.785 9.054C210.985 9.054 211.873 9.342 212.449 9.918C213.025 10.482 213.313 11.37 213.313 12.582V17.208C213.313 17.82 213.031 18.126 212.467 18.126C211.891 18.126 211.603 17.82 211.603 17.208V16.542C211.387 17.046 211.051 17.442 210.595 17.73C210.139 18.018 209.593 18.162 208.957 18.162ZM209.317 16.866C209.965 16.866 210.505 16.638 210.937 16.182C211.369 15.726 211.585 15.15 211.585 14.454V13.968H210.991C210.115 13.968 209.425 14.01 208.921 14.094C208.429 14.178 208.075 14.322 207.859 14.526C207.655 14.718 207.553 14.988 207.553 15.336C207.553 15.792 207.709 16.164 208.021 16.452C208.333 16.728 208.765 16.866 209.317 16.866ZM216.717 18.126C216.117 18.126 215.817 17.82 215.817 17.208V10.008C215.817 9.396 216.111 9.09 216.699 9.09C217.287 9.09 217.581 9.396 217.581 10.008V10.674C217.881 10.146 218.289 9.744 218.805 9.468C219.333 9.192 219.921 9.054 220.569 9.054C222.645 9.054 223.683 10.23 223.683 12.582V17.208C223.683 17.82 223.383 18.126 222.783 18.126C222.171 18.126 221.865 17.82 221.865 17.208V12.69C221.865 11.934 221.715 11.382 221.415 11.034C221.127 10.686 220.671 10.512 220.047 10.512C219.315 10.512 218.727 10.746 218.283 11.214C217.851 11.67 217.635 12.276 217.635 13.032V17.208C217.635 17.82 217.329 18.126 216.717 18.126ZM230.166 21.402C229.518 21.402 228.888 21.336 228.276 21.204C227.676 21.072 227.13 20.856 226.638 20.556C226.422 20.436 226.29 20.286 226.242 20.106C226.194 19.926 226.212 19.752 226.296 19.584C226.392 19.416 226.518 19.29 226.674 19.206C226.842 19.134 227.022 19.152 227.214 19.26C227.742 19.548 228.24 19.74 228.708 19.836C229.188 19.944 229.632 19.998 230.04 19.998C231.72 19.998 232.56 19.158 232.56 17.478V16.092C232.308 16.62 231.912 17.034 231.372 17.334C230.844 17.634 230.25 17.784 229.59 17.784C228.798 17.784 228.108 17.604 227.52 17.244C226.932 16.872 226.476 16.362 226.152 15.714C225.828 15.054 225.666 14.286 225.666 13.41C225.666 12.546 225.828 11.79 226.152 11.142C226.476 10.482 226.932 9.972 227.52 9.612C228.108 9.24 228.798 9.054 229.59 9.054C230.25 9.054 230.838 9.204 231.354 9.504C231.882 9.792 232.272 10.188 232.524 10.692V10.008C232.524 9.396 232.824 9.09 233.424 9.09C234.024 9.09 234.324 9.396 234.324 10.008V17.262C234.324 18.642 233.97 19.674 233.262 20.358C232.554 21.054 231.522 21.402 230.166 21.402ZM230.022 16.362C230.79 16.362 231.402 16.098 231.858 15.57C232.314 15.042 232.542 14.322 232.542 13.41C232.542 12.498 232.314 11.784 231.858 11.268C231.402 10.74 230.79 10.476 230.022 10.476C229.254 10.476 228.642 10.74 228.186 11.268C227.73 11.784 227.502 12.498 227.502 13.41C227.502 14.322 227.73 15.042 228.186 15.57C228.642 16.098 229.254 16.362 230.022 16.362ZM245.366 18.162C244.262 18.162 243.44 17.88 242.9 17.316C242.36 16.752 242.09 15.936 242.09 14.868V10.62H241.01C240.506 10.62 240.254 10.386 240.254 9.918C240.254 9.45 240.506 9.216 241.01 9.216H242.09V7.362C242.09 6.75 242.396 6.444 243.008 6.444C243.608 6.444 243.908 6.75 243.908 7.362V9.216H246.014C246.518 9.216 246.77 9.45 246.77 9.918C246.77 10.386 246.518 10.62 246.014 10.62H243.908V14.724C243.908 15.36 244.04 15.84 244.304 16.164C244.58 16.488 245.024 16.65 245.636 16.65C245.852 16.65 246.038 16.632 246.194 16.596C246.35 16.548 246.488 16.518 246.608 16.506C246.74 16.506 246.848 16.554 246.932 16.65C247.016 16.734 247.058 16.902 247.058 17.154C247.058 17.346 247.022 17.52 246.95 17.676C246.89 17.82 246.776 17.916 246.608 17.964C246.464 18.024 246.266 18.072 246.014 18.108C245.774 18.144 245.558 18.162 245.366 18.162ZM249.254 7.254C248.894 7.254 248.612 7.164 248.408 6.984C248.216 6.804 248.12 6.552 248.12 6.228C248.12 5.544 248.498 5.202 249.254 5.202C250.01 5.202 250.388 5.544 250.388 6.228C250.388 6.912 250.01 7.254 249.254 7.254ZM249.254 18.108C248.654 18.108 248.354 17.778 248.354 17.118V10.098C248.354 9.45 248.654 9.126 249.254 9.126C249.866 9.126 250.172 9.45 250.172 10.098V17.118C250.172 17.778 249.866 18.108 249.254 18.108ZM255.557 18.162C254.621 18.162 253.913 17.892 253.433 17.352C252.965 16.812 252.731 16.02 252.731 14.976V6.102C252.731 5.49 253.031 5.184 253.631 5.184C254.243 5.184 254.549 5.49 254.549 6.102V14.868C254.549 16.056 255.029 16.65 255.989 16.65C256.097 16.65 256.193 16.644 256.277 16.632C256.361 16.62 256.445 16.614 256.529 16.614C256.673 16.602 256.775 16.644 256.835 16.74C256.895 16.824 256.925 17.004 256.925 17.28C256.925 17.772 256.697 18.054 256.241 18.126C256.121 18.138 256.001 18.144 255.881 18.144C255.773 18.156 255.665 18.162 255.557 18.162ZM265.805 18.162C264.869 18.162 264.161 17.892 263.681 17.352C263.213 16.812 262.979 16.02 262.979 14.976V6.102C262.979 5.49 263.279 5.184 263.879 5.184C264.491 5.184 264.797 5.49 264.797 6.102V14.868C264.797 16.056 265.277 16.65 266.237 16.65C266.345 16.65 266.441 16.644 266.525 16.632C266.609 16.62 266.693 16.614 266.777 16.614C266.921 16.602 267.023 16.644 267.083 16.74C267.143 16.824 267.173 17.004 267.173 17.28C267.173 17.772 266.945 18.054 266.489 18.126C266.369 18.138 266.249 18.144 266.129 18.144C266.021 18.156 265.913 18.162 265.805 18.162ZM272.209 18.162C271.321 18.162 270.553 17.976 269.905 17.604C269.257 17.232 268.753 16.71 268.393 16.038C268.045 15.354 267.871 14.544 267.871 13.608C267.871 12.672 268.045 11.868 268.393 11.196C268.753 10.512 269.257 9.984 269.905 9.612C270.553 9.24 271.321 9.054 272.209 9.054C273.073 9.054 273.829 9.24 274.477 9.612C275.125 9.984 275.629 10.512 275.989 11.196C276.349 11.868 276.529 12.672 276.529 13.608C276.529 14.544 276.349 15.354 275.989 16.038C275.629 16.71 275.125 17.232 274.477 17.604C273.829 17.976 273.073 18.162 272.209 18.162ZM272.209 16.758C272.953 16.758 273.553 16.488 274.009 15.948C274.465 15.408 274.693 14.628 274.693 13.608C274.693 12.588 274.465 11.814 274.009 11.286C273.553 10.746 272.953 10.476 272.209 10.476C271.453 10.476 270.847 10.746 270.391 11.286C269.935 11.814 269.707 12.588 269.707 13.608C269.707 14.628 269.935 15.408 270.391 15.948C270.847 16.488 271.453 16.758 272.209 16.758ZM279.471 18.126C278.871 18.126 278.571 17.82 278.571 17.208V6.102C278.571 5.49 278.871 5.184 279.471 5.184C280.083 5.184 280.389 5.49 280.389 6.102V13.05H280.425L283.791 9.702C283.983 9.51 284.157 9.36 284.313 9.252C284.469 9.144 284.673 9.09 284.925 9.09C285.297 9.09 285.537 9.228 285.645 9.504C285.765 9.78 285.693 10.056 285.429 10.332L282.279 13.446L285.753 16.884C285.945 17.076 286.035 17.268 286.023 17.46C286.011 17.652 285.933 17.814 285.789 17.946C285.645 18.066 285.465 18.126 285.249 18.126C284.973 18.126 284.751 18.072 284.583 17.964C284.427 17.856 284.241 17.694 284.025 17.478L280.425 13.986H280.389V17.208C280.389 17.82 280.083 18.126 279.471 18.126ZM290.572 18.162C289.96 18.162 289.414 18.042 288.934 17.802C288.454 17.562 288.07 17.238 287.782 16.83C287.506 16.422 287.368 15.96 287.368 15.444C287.368 14.796 287.53 14.286 287.854 13.914C288.19 13.542 288.736 13.272 289.492 13.104C290.26 12.936 291.292 12.852 292.588 12.852H293.2V12.384C293.2 11.7 293.056 11.208 292.768 10.908C292.48 10.608 292.006 10.458 291.346 10.458C290.962 10.458 290.56 10.506 290.14 10.602C289.732 10.698 289.306 10.86 288.862 11.088C288.61 11.208 288.4 11.226 288.232 11.142C288.076 11.058 287.968 10.926 287.908 10.746C287.848 10.566 287.854 10.38 287.926 10.188C287.998 9.996 288.148 9.852 288.376 9.756C288.904 9.516 289.426 9.342 289.942 9.234C290.458 9.114 290.944 9.054 291.4 9.054C292.6 9.054 293.488 9.342 294.064 9.918C294.64 10.482 294.928 11.37 294.928 12.582V17.208C294.928 17.82 294.646 18.126 294.082 18.126C293.506 18.126 293.218 17.82 293.218 17.208V16.542C293.002 17.046 292.666 17.442 292.21 17.73C291.754 18.018 291.208 18.162 290.572 18.162ZM290.932 16.866C291.58 16.866 292.12 16.638 292.552 16.182C292.984 15.726 293.2 15.15 293.2 14.454V13.968H292.606C291.73 13.968 291.04 14.01 290.536 14.094C290.044 14.178 289.69 14.322 289.474 14.526C289.27 14.718 289.168 14.988 289.168 15.336C289.168 15.792 289.324 16.164 289.636 16.452C289.948 16.728 290.38 16.866 290.932 16.866ZM300.258 18.162C299.322 18.162 298.614 17.892 298.134 17.352C297.666 16.812 297.432 16.02 297.432 14.976V6.102C297.432 5.49 297.732 5.184 298.332 5.184C298.944 5.184 299.25 5.49 299.25 6.102V14.868C299.25 16.056 299.73 16.65 300.69 16.65C300.798 16.65 300.894 16.644 300.978 16.632C301.062 16.62 301.146 16.614 301.23 16.614C301.374 16.602 301.476 16.644 301.536 16.74C301.596 16.824 301.626 17.004 301.626 17.28C301.626 17.772 301.398 18.054 300.942 18.126C300.822 18.138 300.702 18.144 300.582 18.144C300.474 18.156 300.366 18.162 300.258 18.162ZM306.968 18.162C305.528 18.162 304.394 17.76 303.566 16.956C302.738 16.14 302.324 15.03 302.324 13.626C302.324 12.726 302.504 11.934 302.864 11.25C303.236 10.554 303.746 10.014 304.394 9.63C305.042 9.246 305.786 9.054 306.626 9.054C307.838 9.054 308.792 9.444 309.488 10.224C310.184 10.992 310.532 12.054 310.532 13.41C310.532 13.818 310.292 14.022 309.812 14.022H304.088C304.22 15.846 305.186 16.758 306.986 16.758C307.346 16.758 307.724 16.716 308.12 16.632C308.516 16.536 308.9 16.368 309.272 16.128C309.524 15.984 309.74 15.936 309.92 15.984C310.112 16.02 310.25 16.122 310.334 16.29C310.418 16.446 310.43 16.626 310.37 16.83C310.322 17.022 310.184 17.19 309.956 17.334C309.548 17.61 309.068 17.82 308.516 17.964C307.976 18.096 307.46 18.162 306.968 18.162ZM306.698 10.332C305.942 10.332 305.342 10.566 304.898 11.034C304.454 11.502 304.184 12.126 304.088 12.906H309.002C308.966 12.09 308.75 11.46 308.354 11.016C307.958 10.56 307.406 10.332 306.698 10.332ZM313.396 11.43C313.036 11.43 312.748 11.322 312.532 11.106C312.328 10.89 312.226 10.62 312.226 10.296C312.226 9.948 312.328 9.672 312.532 9.468C312.748 9.252 313.036 9.144 313.396 9.144C313.744 9.144 314.02 9.252 314.224 9.468C314.428 9.672 314.53 9.948 314.53 10.296C314.53 10.62 314.428 10.89 314.224 11.106C314.02 11.322 313.744 11.43 313.396 11.43ZM313.396 18.072C313.036 18.072 312.748 17.964 312.532 17.748C312.328 17.532 312.226 17.256 312.226 16.92C312.226 16.584 312.328 16.314 312.532 16.11C312.748 15.894 313.036 15.786 313.396 15.786C313.744 15.786 314.02 15.894 314.224 16.11C314.428 16.314 314.53 16.584 314.53 16.92C314.53 17.256 314.428 17.532 314.224 17.748C314.02 17.964 313.744 18.072 313.396 18.072ZM325.654 18.162C324.178 18.162 323.05 17.604 322.27 16.488C321.502 15.36 321.118 13.746 321.118 11.646C321.118 9.51 321.502 7.896 322.27 6.804C323.05 5.7 324.178 5.148 325.654 5.148C327.142 5.148 328.27 5.7 329.038 6.804C329.806 7.896 330.19 9.504 330.19 11.628C330.19 13.74 329.8 15.36 329.02 16.488C328.252 17.604 327.13 18.162 325.654 18.162ZM325.654 16.614C326.566 16.614 327.244 16.212 327.688 15.408C328.132 14.592 328.354 13.332 328.354 11.628C328.354 9.912 328.132 8.664 327.688 7.884C327.256 7.092 326.578 6.696 325.654 6.696C324.742 6.696 324.064 7.092 323.62 7.884C323.176 8.676 322.954 9.924 322.954 11.628C322.954 13.332 323.176 14.592 323.62 15.408C324.064 16.212 324.742 16.614 325.654 16.614ZM333.207 18.072C332.847 18.072 332.559 17.964 332.343 17.748C332.139 17.532 332.037 17.256 332.037 16.92C332.037 16.584 332.139 16.314 332.343 16.11C332.559 15.894 332.847 15.786 333.207 15.786C333.555 15.786 333.831 15.894 334.035 16.11C334.239 16.314 334.341 16.584 334.341 16.92C334.341 17.256 334.239 17.532 334.035 17.748C333.831 17.964 333.555 18.072 333.207 18.072ZM340.718 18.162C339.242 18.162 338.114 17.604 337.334 16.488C336.566 15.36 336.182 13.746 336.182 11.646C336.182 9.51 336.566 7.896 337.334 6.804C338.114 5.7 339.242 5.148 340.718 5.148C342.206 5.148 343.334 5.7 344.102 6.804C344.87 7.896 345.254 9.504 345.254 11.628C345.254 13.74 344.864 15.36 344.084 16.488C343.316 17.604 342.194 18.162 340.718 18.162ZM340.718 16.614C341.63 16.614 342.308 16.212 342.752 15.408C343.196 14.592 343.418 13.332 343.418 11.628C343.418 9.912 343.196 8.664 342.752 7.884C342.32 7.092 341.642 6.696 340.718 6.696C339.806 6.696 339.128 7.092 338.684 7.884C338.24 8.676 338.018 9.924 338.018 11.628C338.018 13.332 338.24 14.592 338.684 15.408C339.128 16.212 339.806 16.614 340.718 16.614ZM351.511 18.162C350.035 18.162 348.907 17.604 348.127 16.488C347.359 15.36 346.975 13.746 346.975 11.646C346.975 9.51 347.359 7.896 348.127 6.804C348.907 5.7 350.035 5.148 351.511 5.148C352.999 5.148 354.127 5.7 354.895 6.804C355.663 7.896 356.047 9.504 356.047 11.628C356.047 13.74 355.657 15.36 354.877 16.488C354.109 17.604 352.987 18.162 351.511 18.162ZM351.511 16.614C352.423 16.614 353.101 16.212 353.545 15.408C353.989 14.592 354.211 13.332 354.211 11.628C354.211 9.912 353.989 8.664 353.545 7.884C353.113 7.092 352.435 6.696 351.511 6.696C350.599 6.696 349.921 7.092 349.477 7.884C349.033 8.676 348.811 9.924 348.811 11.628C348.811 13.332 349.033 14.592 349.477 15.408C349.921 16.212 350.599 16.614 351.511 16.614ZM362.754 18.162C361.218 18.162 360.03 17.616 359.19 16.524C358.362 15.432 357.948 13.902 357.948 11.934C357.948 9.762 358.416 8.088 359.352 6.912C360.288 5.736 361.584 5.148 363.24 5.148C363.768 5.148 364.314 5.244 364.878 5.436C365.454 5.616 365.976 5.892 366.444 6.264C366.636 6.396 366.744 6.57 366.768 6.786C366.792 6.99 366.756 7.182 366.66 7.362C366.564 7.53 366.42 7.644 366.228 7.704C366.048 7.764 365.844 7.716 365.616 7.56C365.208 7.26 364.8 7.05 364.392 6.93C363.996 6.798 363.6 6.732 363.204 6.732C362.088 6.732 361.23 7.14 360.63 7.956C360.042 8.76 359.748 9.966 359.748 11.574V12.294C359.988 11.562 360.402 10.992 360.99 10.584C361.59 10.164 362.28 9.954 363.06 9.954C363.804 9.954 364.458 10.128 365.022 10.476C365.598 10.824 366.048 11.304 366.372 11.916C366.696 12.516 366.858 13.206 366.858 13.986C366.858 14.802 366.684 15.528 366.336 16.164C365.988 16.788 365.502 17.28 364.878 17.64C364.266 17.988 363.558 18.162 362.754 18.162ZM362.646 16.65C363.378 16.65 363.972 16.41 364.428 15.93C364.884 15.45 365.112 14.826 365.112 14.058C365.112 13.29 364.884 12.666 364.428 12.186C363.972 11.706 363.378 11.466 362.646 11.466C361.914 11.466 361.32 11.706 360.864 12.186C360.408 12.666 360.18 13.29 360.18 14.058C360.18 14.826 360.408 15.45 360.864 15.93C361.32 16.41 361.914 16.65 362.646 16.65Z" fill="white"/>
</g>
<defs>
<filter id="filter0_d_264_759" x="12.5659" y="23.888" width="345.64" height="25.514" filterUnits="userSpaceOnUse" color-interpolation-filters="sRGB">
<feFlood flood-opacity="0" result="BackgroundImageFix"/>
<feColorMatrix in="SourceAlpha" type="matrix" values="0 0 0 0 0 0 0 0 0 0 0 0 0 0 0 0 0 0 127 0" result="hardAlpha"/>
<feOffset dy="4"/>
<feGaussianBlur stdDeviation="2"/>
<feComposite in2="hardAlpha" operator="out"/>
<feColorMatrix type="matrix" values="0 0 0 0 0 0 0 0 0 0 0 0 0 0 0 0 0 0 0.25 0"/>
<feBlend mode="normal" in2="BackgroundImageFix" result="effect1_dropShadow_264_759"/>
<feBlend mode="normal" in="SourceGraphic" in2="effect1_dropShadow_264_759" result="shape"/>
</filter>
<filter id="filter1_d_264_759" x="0.778809" y="5.14801" width="370.08" height="24.254" filterUnits="userSpaceOnUse" color-interpolation-filters="sRGB">
<feFlood flood-opacity="0" result="BackgroundImageFix"/>
<feColorMatrix in="SourceAlpha" type="matrix" values="0 0 0 0 0 0 0 0 0 0 0 0 0 0 0 0 0 0 127 0" result="hardAlpha"/>
<feOffset dy="4"/>
<feGaussianBlur stdDeviation="2"/>
<feComposite in2="hardAlpha" operator="out"/>
<feColorMatrix type="matrix" values="0 0 0 0 0 0 0 0 0 0 0 0 0 0 0 0 0 0 0.25 0"/>
<feBlend mode="normal" in2="BackgroundImageFix" result="effect1_dropShadow_264_759"/>
<feBlend mode="normal" in="SourceGraphic" in2="effect1_dropShadow_264_759" result="shape"/>
</filter>
</defs>
</svg>
