<svg width="116" height="16" viewBox="0 0 116 16" fill="none" xmlns="http://www.w3.org/2000/svg">
<path d="M2.11461 15C1.51461 15 1.05461 14.84 0.73461 14.52C0.414609 14.1867 0.254609 13.7267 0.254609 13.14V2.74C0.254609 2.14 0.414609 1.68 0.73461 1.36C1.05461 1.04 1.50794 0.879999 2.09461 0.879999C2.68128 0.879999 3.13461 1.04 3.45461 1.36C3.77461 1.68 3.93461 2.14 3.93461 2.74V11.94H8.81461C9.32128 11.94 9.70794 12.0733 9.97461 12.34C10.2546 12.6067 10.3946 12.98 10.3946 13.46C10.3946 13.9533 10.2546 14.3333 9.97461 14.6C9.70794 14.8667 9.32128 15 8.81461 15H2.11461ZM16.5962 15.22C15.5028 15.22 14.5495 15.0133 13.7362 14.6C12.9228 14.1867 12.2895 13.5933 11.8362 12.82C11.3828 12.0467 11.1562 11.1333 11.1562 10.08C11.1562 9.01333 11.3828 8.1 11.8362 7.34C12.2895 6.56667 12.9228 5.97333 13.7362 5.56C14.5495 5.14667 15.5028 4.94 16.5962 4.94C17.6895 4.94 18.6428 5.14667 19.4562 5.56C20.2695 5.97333 20.8962 6.56667 21.3362 7.34C21.7895 8.1 22.0162 9.01333 22.0162 10.08C22.0162 11.1333 21.7895 12.0467 21.3362 12.82C20.8962 13.5933 20.2695 14.1867 19.4562 14.6C18.6428 15.0133 17.6895 15.22 16.5962 15.22ZM16.5962 12.6C17.1295 12.6 17.5695 12.4 17.9162 12C18.2628 11.6 18.4362 10.96 18.4362 10.08C18.4362 9.18667 18.2628 8.54667 17.9162 8.16C17.5695 7.76 17.1295 7.56 16.5962 7.56C16.0495 7.56 15.6028 7.76 15.2562 8.16C14.9095 8.54667 14.7362 9.18667 14.7362 10.08C14.7362 10.96 14.9095 11.6 15.2562 12C15.6028 12.4 16.0495 12.6 16.5962 12.6ZM25.4074 15.18C24.8341 15.18 24.3941 15.0267 24.0874 14.72C23.7941 14.4133 23.6474 13.9667 23.6474 13.38V2.52C23.6474 1.32 24.2341 0.719999 25.4074 0.719999C25.9808 0.719999 26.4208 0.873332 26.7274 1.18C27.0474 1.48667 27.2074 1.93333 27.2074 2.52V9.12H27.2474L29.6874 6.16C30.0208 5.74667 30.3274 5.44667 30.6074 5.26C30.9008 5.07333 31.2941 4.98 31.7874 4.98C32.2808 4.98 32.6608 5.1 32.9274 5.34C33.1941 5.58 33.3274 5.88 33.3274 6.24C33.3408 6.6 33.2008 6.96 32.9074 7.32L30.7874 9.84L33.2274 12.92C33.5074 13.3067 33.6208 13.6733 33.5674 14.02C33.5274 14.3533 33.3608 14.6333 33.0674 14.86C32.7874 15.0733 32.4274 15.18 31.9874 15.18C31.4408 15.18 31.0074 15.0867 30.6874 14.9C30.3808 14.7 30.0674 14.3933 29.7474 13.98L27.2474 10.9H27.2074V13.38C27.2074 14.58 26.6074 15.18 25.4074 15.18ZM38.5713 15.22C37.8113 15.22 37.138 15.08 36.5513 14.8C35.978 14.52 35.5247 14.14 35.1913 13.66C34.8713 13.1667 34.7113 12.6067 34.7113 11.98C34.7113 11.2733 34.898 10.7133 35.2713 10.3C35.6447 9.87333 36.2447 9.57333 37.0713 9.4C37.898 9.21333 38.998 9.12 40.3713 9.12H41.1313V8.84C41.1313 8.36 41.0047 8.02 40.7513 7.82C40.5113 7.62 40.0913 7.52 39.4913 7.52C39.158 7.52 38.7913 7.56 38.3913 7.64C38.0047 7.70667 37.5647 7.83333 37.0713 8.02C36.6313 8.18 36.2647 8.17333 35.9713 8C35.678 7.82667 35.4847 7.58 35.3913 7.26C35.3113 6.92667 35.3447 6.6 35.4913 6.28C35.6513 5.94667 35.9513 5.7 36.3913 5.54C37.0313 5.31333 37.618 5.16 38.1513 5.08C38.698 4.98667 39.198 4.94 39.6513 4.94C41.2913 4.94 42.5047 5.29333 43.2913 6C44.0913 6.70667 44.4913 7.82 44.4913 9.34V13.38C44.4913 14.58 43.9447 15.18 42.8513 15.18C41.8113 15.18 41.258 14.6467 41.1913 13.58C41.0047 14.0867 40.6847 14.4867 40.2313 14.78C39.778 15.0733 39.2247 15.22 38.5713 15.22ZM39.3713 12.9C39.8647 12.9 40.278 12.74 40.6113 12.42C40.958 12.1 41.1313 11.68 41.1313 11.16V10.8H40.3713C39.5847 10.8 39.0047 10.8867 38.6313 11.06C38.2713 11.22 38.0913 11.48 38.0913 11.84C38.0913 12.1467 38.198 12.4 38.4113 12.6C38.638 12.8 38.958 12.9 39.3713 12.9ZM50.2585 15.22C48.9652 15.22 48.0185 14.88 47.4185 14.2C46.8185 13.5067 46.5185 12.4667 46.5185 11.08V2.52C46.5185 1.32 47.1052 0.719999 48.2785 0.719999C48.8518 0.719999 49.2918 0.873332 49.5985 1.18C49.9185 1.48667 50.0785 1.93333 50.0785 2.52V10.96C50.0785 11.4533 50.1718 11.8133 50.3585 12.04C50.5585 12.2667 50.8118 12.38 51.1185 12.38C51.2118 12.38 51.3052 12.3733 51.3985 12.36C51.5052 12.3333 51.6185 12.3133 51.7385 12.3C51.9785 12.3 52.1518 12.3867 52.2585 12.56C52.3652 12.7333 52.4185 13.0867 52.4185 13.62C52.4185 14.0867 52.3252 14.44 52.1385 14.68C51.9518 14.9067 51.6652 15.0533 51.2785 15.12C51.1718 15.1467 51.0185 15.1667 50.8185 15.18C50.6185 15.2067 50.4318 15.22 50.2585 15.22ZM58.734 15.22C57.534 15.22 56.494 15.0133 55.614 14.6C54.7473 14.1733 54.0807 13.5733 53.614 12.8C53.1473 12.0267 52.914 11.1133 52.914 10.06C52.914 9.06 53.134 8.17333 53.574 7.4C54.0273 6.62667 54.6407 6.02667 55.414 5.6C56.2007 5.16 57.094 4.94 58.094 4.94C59.0807 4.94 59.934 5.14667 60.654 5.56C61.3873 5.97333 61.9473 6.56667 62.334 7.34C62.734 8.1 62.934 8.99333 62.934 10.02C62.934 10.54 62.6273 10.8 62.014 10.8H56.314C56.434 11.44 56.7007 11.9 57.114 12.18C57.5273 12.46 58.1007 12.6 58.834 12.6C59.114 12.6 59.4473 12.5667 59.834 12.5C60.2207 12.4333 60.5873 12.3267 60.934 12.18C61.3607 12.02 61.7207 12.02 62.014 12.18C62.3073 12.3267 62.5007 12.56 62.594 12.88C62.7007 13.1867 62.6873 13.5067 62.554 13.84C62.434 14.16 62.1873 14.4067 61.814 14.58C61.3473 14.8067 60.8473 14.9667 60.314 15.06C59.794 15.1667 59.2673 15.22 58.734 15.22ZM58.254 7.24C57.7207 7.24 57.2807 7.4 56.934 7.72C56.6007 8.04 56.3873 8.50667 56.294 9.12H60.014C59.974 8.49333 59.8007 8.02667 59.494 7.72C59.2007 7.4 58.7873 7.24 58.254 7.24ZM66.1477 8.92C65.5477 8.92 65.0677 8.74 64.7077 8.38C64.3611 8.00667 64.1877 7.54 64.1877 6.98C64.1877 6.39333 64.3611 5.92667 64.7077 5.58C65.0677 5.22 65.5477 5.04 66.1477 5.04C66.7611 5.04 67.2411 5.22 67.5877 5.58C67.9344 5.92667 68.1077 6.39333 68.1077 6.98C68.1077 7.54 67.9344 8.00667 67.5877 8.38C67.2411 8.74 66.7611 8.92 66.1477 8.92ZM66.1477 15.12C65.5477 15.12 65.0677 14.94 64.7077 14.58C64.3611 14.2067 64.1877 13.7333 64.1877 13.16C64.1877 12.6 64.3611 12.14 64.7077 11.78C65.0677 11.42 65.5477 11.24 66.1477 11.24C66.7611 11.24 67.2411 11.42 67.5877 11.78C67.9344 12.14 68.1077 12.6 68.1077 13.16C68.1077 13.7333 67.9344 14.2067 67.5877 14.58C67.2411 14.94 66.7611 15.12 66.1477 15.12ZM77.7396 15C76.7263 15 76.2196 14.5 76.2196 13.5C76.2196 12.5133 76.7263 12.02 77.7396 12.02H79.5396V4.88L78.3196 5.62C77.9729 5.83333 77.6463 5.92 77.3396 5.88C77.0329 5.82667 76.7729 5.69333 76.5596 5.48C76.3463 5.26667 76.2063 5.00667 76.1396 4.7C76.0729 4.39333 76.0996 4.08667 76.2196 3.78C76.3396 3.47333 76.5796 3.21333 76.9396 3L79.6996 1.28C80.2996 0.906666 80.9329 0.719999 81.5996 0.719999C82.1063 0.719999 82.4996 0.853333 82.7796 1.12C83.0596 1.37333 83.1996 1.74667 83.1996 2.24V12.02H84.7996C85.8129 12.02 86.3196 12.5133 86.3196 13.5C86.3196 14.5 85.8129 15 84.7996 15H77.7396ZM89.3118 15.12C88.7118 15.12 88.2318 14.94 87.8718 14.58C87.5251 14.2067 87.3518 13.7333 87.3518 13.16C87.3518 12.6 87.5251 12.14 87.8718 11.78C88.2318 11.42 88.7118 11.24 89.3118 11.24C89.9251 11.24 90.4051 11.42 90.7518 11.78C91.0985 12.14 91.2718 12.6 91.2718 13.16C91.2718 13.7333 91.0985 14.2067 90.7518 14.58C90.4051 14.94 89.9251 15.12 89.3118 15.12ZM94.921 15C94.3343 15 93.9077 14.8667 93.641 14.6C93.3877 14.32 93.261 13.9133 93.261 13.38C93.261 13.0067 93.341 12.6733 93.501 12.38C93.661 12.0867 93.881 11.8 94.161 11.52L97.661 7.86C98.181 7.31333 98.5477 6.84 98.761 6.44C98.9877 6.02667 99.101 5.62 99.101 5.22C99.101 4.20667 98.4543 3.7 97.161 3.7C96.841 3.7 96.4943 3.74667 96.121 3.84C95.761 3.92 95.381 4.06667 94.981 4.28C94.621 4.45333 94.2943 4.50667 94.001 4.44C93.7077 4.36 93.4677 4.20667 93.281 3.98C93.0943 3.75333 92.9743 3.49333 92.921 3.2C92.881 2.90667 92.9277 2.62 93.061 2.34C93.1943 2.04667 93.4343 1.80667 93.781 1.62C94.3943 1.3 95.0277 1.06667 95.681 0.919999C96.3477 0.759999 97.0143 0.68 97.681 0.68C99.3077 0.68 100.548 1.03333 101.401 1.74C102.268 2.44667 102.701 3.46667 102.701 4.8C102.701 5.65333 102.508 6.46667 102.121 7.24C101.734 8.01333 101.088 8.84667 100.181 9.74L97.901 12.02H101.881C102.894 12.02 103.401 12.5133 103.401 13.5C103.401 14.5 102.894 15 101.881 15H94.921ZM109.613 15.22C108.92 15.22 108.233 15.1533 107.553 15.02C106.887 14.8867 106.307 14.7 105.813 14.46C105.4 14.26 105.107 14.0133 104.933 13.72C104.76 13.4267 104.687 13.1267 104.713 12.82C104.74 12.5133 104.847 12.24 105.033 12C105.233 11.76 105.487 11.6 105.793 11.52C106.113 11.4267 106.473 11.4667 106.873 11.64C107.367 11.8533 107.82 12 108.233 12.08C108.647 12.16 109.06 12.2 109.473 12.2C110.913 12.2 111.633 11.7067 111.633 10.72C111.633 9.81333 110.993 9.36 109.713 9.36H108.633C108.127 9.36 107.74 9.23333 107.473 8.98C107.207 8.72667 107.073 8.36667 107.073 7.9C107.073 7.43333 107.207 7.07333 107.473 6.82C107.74 6.56667 108.127 6.44 108.633 6.44H109.353C109.927 6.44 110.373 6.32 110.693 6.08C111.027 5.84 111.193 5.49333 111.193 5.04C111.193 4.14667 110.573 3.7 109.333 3.7C108.96 3.7 108.58 3.74 108.193 3.82C107.807 3.9 107.393 4.04 106.953 4.24C106.607 4.38667 106.287 4.42 105.993 4.34C105.713 4.26 105.48 4.10667 105.293 3.88C105.107 3.65333 104.993 3.39333 104.953 3.1C104.913 2.79333 104.967 2.50667 105.113 2.24C105.26 1.96 105.513 1.72667 105.873 1.54C107.02 0.966666 108.293 0.68 109.693 0.68C111.267 0.68 112.493 1.02667 113.373 1.72C114.253 2.4 114.693 3.34667 114.693 4.56C114.693 5.28 114.513 5.91333 114.153 6.46C113.793 7.00667 113.293 7.40667 112.653 7.66C113.44 7.88667 114.047 8.3 114.473 8.9C114.913 9.5 115.133 10.2267 115.133 11.08C115.133 12.36 114.64 13.3733 113.653 14.12C112.68 14.8533 111.333 15.22 109.613 15.22Z" fill="#DDE036"/>
</svg>
