<svg width="353" height="85" viewBox="0 0 353 85" fill="none" xmlns="http://www.w3.org/2000/svg">
<g filter="url(#filter0_d_264_762)">
<rect x="9" width="344" height="77" rx="14" fill="#03266A"/>
</g>
<path d="M112.779 45.2C111.886 45.2 111.012 45.1 110.159 44.9C109.319 44.7 108.586 44.4 107.959 44C107.652 43.8 107.466 43.5533 107.399 43.26C107.332 42.9667 107.352 42.6933 107.459 42.44C107.579 42.1733 107.759 41.9933 107.999 41.9C108.252 41.7933 108.539 41.84 108.859 42.04C109.446 42.3867 110.066 42.64 110.719 42.8C111.372 42.96 112.059 43.04 112.779 43.04C113.832 43.04 114.599 42.8667 115.079 42.52C115.559 42.16 115.799 41.7 115.799 41.14C115.799 40.6733 115.626 40.3067 115.279 40.04C114.946 39.7733 114.366 39.5533 113.539 39.38L111.339 38.92C108.832 38.3867 107.579 37.1 107.579 35.06C107.579 34.18 107.812 33.4133 108.279 32.76C108.746 32.1067 109.392 31.6 110.219 31.24C111.046 30.88 111.999 30.7 113.079 30.7C113.879 30.7 114.639 30.8 115.359 31C116.079 31.2 116.726 31.4933 117.299 31.88C117.566 32.0667 117.726 32.3 117.779 32.58C117.832 32.8467 117.799 33.1 117.679 33.34C117.559 33.5667 117.366 33.7267 117.099 33.82C116.846 33.9 116.546 33.84 116.199 33.64C115.706 33.36 115.206 33.16 114.699 33.04C114.192 32.92 113.646 32.86 113.059 32.86C112.139 32.86 111.419 33.0533 110.899 33.44C110.379 33.8267 110.119 34.3333 110.119 34.96C110.119 35.44 110.279 35.8267 110.599 36.12C110.919 36.4 111.466 36.62 112.239 36.78L114.419 37.24C115.739 37.52 116.719 37.96 117.359 38.56C118.012 39.16 118.339 39.96 118.339 40.96C118.339 41.8 118.112 42.54 117.659 43.18C117.206 43.82 116.559 44.32 115.719 44.68C114.892 45.0267 113.912 45.2 112.779 45.2ZM125.116 45.2C124.009 45.2 123.056 44.9933 122.256 44.58C121.456 44.1667 120.836 43.58 120.396 42.82C119.969 42.06 119.756 41.16 119.756 40.12C119.756 39.1067 119.963 38.22 120.376 37.46C120.803 36.7 121.383 36.1067 122.116 35.68C122.863 35.24 123.709 35.02 124.656 35.02C126.043 35.02 127.136 35.46 127.936 36.34C128.749 37.22 129.156 38.42 129.156 39.94C129.156 40.4333 128.836 40.68 128.196 40.68H122.156C122.343 42.4267 123.343 43.3 125.156 43.3C125.503 43.3 125.889 43.26 126.316 43.18C126.756 43.0867 127.169 42.9333 127.556 42.72C127.903 42.52 128.196 42.46 128.436 42.54C128.676 42.6067 128.843 42.7467 128.936 42.96C129.043 43.1733 129.056 43.4133 128.976 43.68C128.909 43.9333 128.723 44.1533 128.416 44.34C127.949 44.6333 127.409 44.8533 126.796 45C126.196 45.1333 125.636 45.2 125.116 45.2ZM124.756 36.72C124.023 36.72 123.429 36.9467 122.976 37.4C122.523 37.8533 122.249 38.4667 122.156 39.24H127.076C127.023 38.4267 126.796 37.8067 126.396 37.38C126.009 36.94 125.463 36.72 124.756 36.72ZM132.376 45.16C131.549 45.16 131.136 44.7333 131.136 43.88V36.32C131.136 35.48 131.543 35.06 132.356 35.06C133.169 35.06 133.576 35.48 133.576 36.32V36.74C133.909 36.18 134.356 35.7533 134.916 35.46C135.489 35.1667 136.129 35.02 136.836 35.02C139.143 35.02 140.296 36.36 140.296 39.04V43.88C140.296 44.7333 139.883 45.16 139.056 45.16C138.216 45.16 137.796 44.7333 137.796 43.88V39.16C137.796 38.4 137.649 37.8467 137.356 37.5C137.076 37.1533 136.636 36.98 136.036 36.98C135.303 36.98 134.716 37.2133 134.276 37.68C133.849 38.1333 133.636 38.74 133.636 39.5V43.88C133.636 44.7333 133.216 45.16 132.376 45.16ZM146.595 45.2C145.742 45.2 144.988 44.9933 144.335 44.58C143.695 44.1667 143.195 43.58 142.835 42.82C142.475 42.0467 142.295 41.14 142.295 40.1C142.295 39.0467 142.475 38.1467 142.835 37.4C143.195 36.64 143.695 36.0533 144.335 35.64C144.988 35.2267 145.742 35.02 146.595 35.02C147.288 35.02 147.915 35.1733 148.475 35.48C149.035 35.7867 149.455 36.1933 149.735 36.7V32C149.735 31.16 150.148 30.74 150.975 30.74C151.815 30.74 152.235 31.16 152.235 32V43.88C152.235 44.7333 151.822 45.16 150.995 45.16C150.168 45.16 149.755 44.7333 149.755 43.88V43.46C149.475 43.9933 149.055 44.42 148.495 44.74C147.935 45.0467 147.302 45.2 146.595 45.2ZM147.295 43.3C148.042 43.3 148.642 43.0333 149.095 42.5C149.548 41.9533 149.775 41.1533 149.775 40.1C149.775 39.0333 149.548 38.24 149.095 37.72C148.642 37.1867 148.042 36.92 147.295 36.92C146.548 36.92 145.948 37.1867 145.495 37.72C145.042 38.24 144.815 39.0333 144.815 40.1C144.815 41.1533 145.042 41.9533 145.495 42.5C145.948 43.0333 146.548 43.3 147.295 43.3ZM162.177 45.16C161.337 45.16 160.917 44.7333 160.917 43.88V37.1H159.997C159.33 37.1 158.997 36.7867 158.997 36.16C158.997 35.5333 159.33 35.22 159.997 35.22H160.917V35.2C160.917 33.8267 161.264 32.8 161.957 32.12C162.65 31.4267 163.65 31.02 164.957 30.9L165.637 30.84C165.984 30.8133 166.237 30.8867 166.397 31.06C166.557 31.2333 166.637 31.4467 166.637 31.7C166.65 31.94 166.59 32.16 166.457 32.36C166.324 32.5467 166.13 32.6533 165.877 32.68L165.597 32.7C164.837 32.7533 164.284 32.9467 163.937 33.28C163.59 33.6133 163.417 34.12 163.417 34.8V35.22H165.117C165.784 35.22 166.117 35.5333 166.117 36.16C166.117 36.7867 165.784 37.1 165.117 37.1H163.417V43.88C163.417 44.7333 163.004 45.16 162.177 45.16ZM171.748 45.2C170.735 45.2 169.855 44.9933 169.108 44.58C168.362 44.1667 167.782 43.58 167.368 42.82C166.955 42.0467 166.748 41.14 166.748 40.1C166.748 39.06 166.955 38.16 167.368 37.4C167.782 36.64 168.362 36.0533 169.108 35.64C169.855 35.2267 170.735 35.02 171.748 35.02C172.762 35.02 173.642 35.2267 174.388 35.64C175.135 36.0533 175.715 36.64 176.128 37.4C176.542 38.16 176.748 39.06 176.748 40.1C176.748 41.14 176.542 42.0467 176.128 42.82C175.715 43.58 175.135 44.1667 174.388 44.58C173.642 44.9933 172.762 45.2 171.748 45.2ZM171.748 43.3C172.495 43.3 173.095 43.0333 173.548 42.5C174.002 41.9533 174.228 41.1533 174.228 40.1C174.228 39.0333 174.002 38.24 173.548 37.72C173.095 37.1867 172.495 36.92 171.748 36.92C171.002 36.92 170.402 37.1867 169.948 37.72C169.495 38.24 169.268 39.0333 169.268 40.1C169.268 41.1533 169.495 41.9533 169.948 42.5C170.402 43.0333 171.002 43.3 171.748 43.3ZM180.092 45.16C179.238 45.16 178.812 44.7333 178.812 43.88V36.32C178.812 35.48 179.218 35.06 180.032 35.06C180.845 35.06 181.252 35.48 181.252 36.32V36.94C181.732 35.7933 182.758 35.1533 184.332 35.02C184.905 34.9533 185.225 35.28 185.292 36C185.358 36.7067 185.012 37.1 184.252 37.18L183.812 37.22C182.172 37.38 181.352 38.22 181.352 39.74V43.88C181.352 44.7333 180.932 45.16 180.092 45.16ZM187.924 45.16C187.097 45.16 186.684 44.7333 186.684 43.88V36.32C186.684 35.48 187.09 35.06 187.904 35.06C188.717 35.06 189.124 35.48 189.124 36.32V36.72C189.417 36.1867 189.824 35.7733 190.344 35.48C190.864 35.1733 191.464 35.02 192.144 35.02C193.61 35.02 194.57 35.66 195.024 36.94C195.33 36.34 195.77 35.8733 196.344 35.54C196.917 35.1933 197.57 35.02 198.304 35.02C200.504 35.02 201.604 36.36 201.604 39.04V43.88C201.604 44.7333 201.184 45.16 200.344 45.16C199.517 45.16 199.104 44.7333 199.104 43.88V39.14C199.104 38.3933 198.977 37.8467 198.724 37.5C198.484 37.1533 198.07 36.98 197.484 36.98C196.83 36.98 196.317 37.2133 195.944 37.68C195.57 38.1333 195.384 38.7667 195.384 39.58V43.88C195.384 44.7333 194.97 45.16 194.144 45.16C193.304 45.16 192.884 44.7333 192.884 43.88V39.14C192.884 38.3933 192.757 37.8467 192.504 37.5C192.264 37.1533 191.857 36.98 191.284 36.98C190.63 36.98 190.117 37.2133 189.744 37.68C189.37 38.1333 189.184 38.7667 189.184 39.58V43.88C189.184 44.7333 188.764 45.16 187.924 45.16ZM207.723 45.2C205.323 45.2 204.123 43.8533 204.123 41.16V36.32C204.123 35.48 204.536 35.06 205.363 35.06C206.203 35.06 206.623 35.48 206.623 36.32V41.2C206.623 41.8933 206.763 42.4067 207.043 42.74C207.323 43.0733 207.769 43.24 208.383 43.24C209.049 43.24 209.596 43.0133 210.023 42.56C210.449 42.0933 210.663 41.48 210.663 40.72V36.32C210.663 35.48 211.076 35.06 211.903 35.06C212.743 35.06 213.163 35.48 213.163 36.32V43.88C213.163 44.7333 212.756 45.16 211.943 45.16C211.129 45.16 210.723 44.7333 210.723 43.88V43.54C210.069 44.6467 209.069 45.2 207.723 45.2ZM219.105 45.2C216.878 45.2 215.765 43.9533 215.765 41.46V32C215.765 31.16 216.178 30.74 217.005 30.74C217.845 30.74 218.265 31.16 218.265 32V41.34C218.265 42.54 218.765 43.14 219.765 43.14C219.872 43.14 219.972 43.14 220.065 43.14C220.158 43.1267 220.252 43.1133 220.345 43.1C220.532 43.0733 220.658 43.1267 220.725 43.26C220.792 43.38 220.825 43.6333 220.825 44.02C220.825 44.3533 220.758 44.6133 220.625 44.8C220.492 44.9867 220.272 45.1 219.965 45.14C219.685 45.18 219.398 45.2 219.105 45.2ZM225.372 45.2C224.665 45.2 224.032 45.0667 223.472 44.8C222.925 44.52 222.492 44.1467 222.172 43.68C221.865 43.2133 221.712 42.6867 221.712 42.1C221.712 41.38 221.898 40.8133 222.272 40.4C222.645 39.9733 223.252 39.6667 224.092 39.48C224.932 39.2933 226.058 39.2 227.472 39.2H228.172V38.78C228.172 38.1133 228.025 37.6333 227.732 37.34C227.438 37.0467 226.945 36.9 226.252 36.9C225.865 36.9 225.445 36.9467 224.992 37.04C224.552 37.1333 224.085 37.2933 223.592 37.52C223.272 37.6667 223.005 37.6867 222.792 37.58C222.578 37.46 222.432 37.28 222.352 37.04C222.285 36.7867 222.298 36.5333 222.392 36.28C222.498 36.0267 222.705 35.84 223.012 35.72C223.625 35.4667 224.212 35.2867 224.772 35.18C225.345 35.0733 225.865 35.02 226.332 35.02C227.758 35.02 228.818 35.3533 229.512 36.02C230.205 36.6733 230.552 37.6933 230.552 39.08V43.88C230.552 44.7333 230.165 45.16 229.392 45.16C228.605 45.16 228.212 44.7333 228.212 43.88V43.44C227.985 43.9867 227.625 44.42 227.132 44.74C226.638 45.0467 226.052 45.2 225.372 45.2ZM225.892 43.48C226.545 43.48 227.085 43.2533 227.512 42.8C227.952 42.3467 228.172 41.7733 228.172 41.08V40.64H227.492C226.238 40.64 225.365 40.74 224.872 40.94C224.392 41.1267 224.152 41.4733 224.152 41.98C224.152 42.42 224.305 42.78 224.612 43.06C224.918 43.34 225.345 43.48 225.892 43.48ZM234.369 45.16C233.516 45.16 233.089 44.7333 233.089 43.88V36.32C233.089 35.48 233.496 35.06 234.309 35.06C235.122 35.06 235.529 35.48 235.529 36.32V36.94C236.009 35.7933 237.036 35.1533 238.609 35.02C239.182 34.9533 239.502 35.28 239.569 36C239.636 36.7067 239.289 37.1 238.529 37.18L238.089 37.22C236.449 37.38 235.629 38.22 235.629 39.74V43.88C235.629 44.7333 235.209 45.16 234.369 45.16Z" fill="white"/>
<path d="M154.125 20.75C153.512 20.75 152.923 20.9969 152.49 21.4365C152.056 21.876 151.812 22.4721 151.812 23.0938C151.812 23.7154 152.056 24.3115 152.49 24.751C152.923 25.1906 153.512 25.4375 154.125 25.4375V20.75ZM163.375 25.4375C163.988 25.4375 164.577 25.1906 165.01 24.751C165.444 24.3115 165.688 23.7154 165.688 23.0938C165.688 22.4721 165.444 21.876 165.01 21.4365C164.577 20.9969 163.988 20.75 163.375 20.75V25.4375ZM154.125 37.1562C153.512 37.1562 152.923 37.4032 152.49 37.8427C152.056 38.2823 151.812 38.8784 151.812 39.5C151.812 40.1216 152.056 40.7177 152.49 41.1573C152.923 41.5968 153.512 41.8438 154.125 41.8438V37.1562ZM181.875 41.8438C182.488 41.8438 183.077 41.5968 183.51 41.1573C183.944 40.7177 184.188 40.1216 184.188 39.5C184.188 38.8784 183.944 38.2823 183.51 37.8427C183.077 37.4032 182.488 37.1562 181.875 37.1562V41.8438ZM154.125 46.5312C153.512 46.5312 152.923 46.7782 152.49 47.2177C152.056 47.6573 151.812 48.2534 151.812 48.875C151.812 49.4966 152.056 50.0927 152.49 50.5323C152.923 50.9718 153.512 51.2188 154.125 51.2188V46.5312ZM181.875 51.2188C182.488 51.2188 183.077 50.9718 183.51 50.5323C183.944 50.0927 184.188 49.4966 184.188 48.875C184.188 48.2534 183.944 47.6573 183.51 47.2177C183.077 46.7782 182.488 46.5312 181.875 46.5312V51.2188ZM154.125 55.9062C153.512 55.9062 152.923 56.1532 152.49 56.5927C152.056 57.0323 151.812 57.6284 151.812 58.25C151.812 58.8716 152.056 59.4677 152.49 59.9073C152.923 60.3468 153.512 60.5938 154.125 60.5938V55.9062ZM163.375 60.5938C163.988 60.5938 164.577 60.3468 165.01 59.9073C165.444 59.4677 165.688 58.8716 165.688 58.25C165.688 57.6284 165.444 57.0323 165.01 56.5927C164.577 56.1532 163.988 55.9062 163.375 55.9062V60.5938ZM149.5 11.375H186.5V6.6875H149.5V11.375ZM188.812 13.7188V65.2812H193.438V13.7188H188.812ZM186.5 67.625H149.5V72.3125H186.5V67.625ZM147.188 65.2812V13.7188H142.562V65.2812H147.188ZM149.5 67.625C148.887 67.625 148.298 67.3781 147.865 66.9385C147.431 66.499 147.188 65.9029 147.188 65.2812H142.562C142.562 67.1461 143.293 68.9345 144.594 70.2531C145.895 71.5717 147.66 72.3125 149.5 72.3125V67.625ZM188.812 65.2812C188.812 65.9029 188.569 66.499 188.135 66.9385C187.702 67.3781 187.113 67.625 186.5 67.625V72.3125C188.34 72.3125 190.105 71.5717 191.406 70.2531C192.707 68.9345 193.438 67.1461 193.438 65.2812H188.812ZM186.5 11.375C187.113 11.375 187.702 11.6219 188.135 12.0615C188.569 12.501 188.812 13.0971 188.812 13.7188H193.438C193.438 11.8539 192.707 10.0655 191.406 8.74691C190.105 7.42829 188.34 6.6875 186.5 6.6875V11.375ZM149.5 6.6875C147.66 6.6875 145.895 7.42829 144.594 8.74691C143.293 10.0655 142.562 11.8539 142.562 13.7188H147.188C147.188 13.0971 147.431 12.501 147.865 12.0615C148.298 11.6219 148.887 11.375 149.5 11.375V6.6875ZM154.125 25.4375H163.375V20.75H154.125V25.4375ZM154.125 41.8438H181.875V37.1562H154.125V41.8438ZM154.125 51.2188H181.875V46.5312H154.125V51.2188ZM154.125 60.5938H163.375V55.9062H154.125V60.5938Z" fill="white" fill-opacity="0.34"/>
<path d="M181.875 24.2656C182.514 24.2656 183.031 23.741 183.031 23.0938C183.031 22.4465 182.514 21.9219 181.875 21.9219C181.236 21.9219 180.719 22.4465 180.719 23.0938C180.719 23.741 181.236 24.2656 181.875 24.2656Z" fill="white" fill-opacity="0.34" stroke="white" stroke-opacity="0.34" stroke-width="1.5625"/>
<defs>
<filter id="filter0_d_264_762" x="0" y="0" width="353" height="85" filterUnits="userSpaceOnUse" color-interpolation-filters="sRGB">
<feFlood flood-opacity="0" result="BackgroundImageFix"/>
<feColorMatrix in="SourceAlpha" type="matrix" values="0 0 0 0 0 0 0 0 0 0 0 0 0 0 0 0 0 0 127 0" result="hardAlpha"/>
<feOffset dx="-5" dy="4"/>
<feGaussianBlur stdDeviation="2"/>
<feComposite in2="hardAlpha" operator="out"/>
<feColorMatrix type="matrix" values="0 0 0 0 0 0 0 0 0 0 0 0 0 0 0 0 0 0 0.33 0"/>
<feBlend mode="normal" in2="BackgroundImageFix" result="effect1_dropShadow_264_762"/>
<feBlend mode="normal" in="SourceGraphic" in2="effect1_dropShadow_264_762" result="shape"/>
</filter>
</defs>
</svg>
