<svg width="353" height="90" viewBox="0 0 353 90" fill="none" xmlns="http://www.w3.org/2000/svg">
<g filter="url(#filter0_d_264_760)">
<rect x="9" y="5" width="344" height="77" rx="14" fill="#03266A"/>
</g>
<path d="M111.742 50.2C110.848 50.2 109.975 50.1 109.122 49.9C108.282 49.7 107.548 49.4 106.922 49C106.615 48.8 106.428 48.5533 106.362 48.26C106.295 47.9667 106.315 47.6933 106.422 47.44C106.542 47.1733 106.722 46.9933 106.962 46.9C107.215 46.7933 107.502 46.84 107.822 47.04C108.408 47.3867 109.028 47.64 109.682 47.8C110.335 47.96 111.022 48.04 111.742 48.04C112.795 48.04 113.562 47.8667 114.042 47.52C114.522 47.16 114.762 46.7 114.762 46.14C114.762 45.6733 114.588 45.3067 114.242 45.04C113.908 44.7733 113.328 44.5533 112.502 44.38L110.302 43.92C107.795 43.3867 106.542 42.1 106.542 40.06C106.542 39.18 106.775 38.4133 107.242 37.76C107.708 37.1067 108.355 36.6 109.182 36.24C110.008 35.88 110.962 35.7 112.042 35.7C112.842 35.7 113.602 35.8 114.322 36C115.042 36.2 115.688 36.4933 116.262 36.88C116.528 37.0667 116.688 37.3 116.742 37.58C116.795 37.8467 116.762 38.1 116.642 38.34C116.522 38.5667 116.328 38.7267 116.062 38.82C115.808 38.9 115.508 38.84 115.162 38.64C114.668 38.36 114.168 38.16 113.662 38.04C113.155 37.92 112.608 37.86 112.022 37.86C111.102 37.86 110.382 38.0533 109.862 38.44C109.342 38.8267 109.082 39.3333 109.082 39.96C109.082 40.44 109.242 40.8267 109.562 41.12C109.882 41.4 110.428 41.62 111.202 41.78L113.382 42.24C114.702 42.52 115.682 42.96 116.322 43.56C116.975 44.16 117.302 44.96 117.302 45.96C117.302 46.8 117.075 47.54 116.622 48.18C116.168 48.82 115.522 49.32 114.682 49.68C113.855 50.0267 112.875 50.2 111.742 50.2ZM120.499 53.76C119.672 53.76 119.259 53.34 119.259 52.5V41.32C119.259 40.48 119.666 40.06 120.479 40.06C121.306 40.06 121.719 40.48 121.719 41.32V41.74C121.999 41.22 122.419 40.8067 122.979 40.5C123.539 40.18 124.179 40.02 124.899 40.02C125.752 40.02 126.499 40.2267 127.139 40.64C127.792 41.0533 128.299 41.64 128.659 42.4C129.019 43.1467 129.199 44.0467 129.199 45.1C129.199 46.14 129.019 47.0467 128.659 47.82C128.299 48.58 127.799 49.1667 127.159 49.58C126.519 49.9933 125.766 50.2 124.899 50.2C124.206 50.2 123.579 50.0533 123.019 49.76C122.472 49.4533 122.052 49.0467 121.759 48.54V52.5C121.759 53.34 121.339 53.76 120.499 53.76ZM124.199 48.3C124.946 48.3 125.546 48.0333 125.999 47.5C126.452 46.9533 126.679 46.1533 126.679 45.1C126.679 44.0333 126.452 43.24 125.999 42.72C125.546 42.1867 124.946 41.92 124.199 41.92C123.452 41.92 122.852 42.1867 122.399 42.72C121.946 43.24 121.719 44.0333 121.719 45.1C121.719 46.1533 121.946 46.9533 122.399 47.5C122.852 48.0333 123.452 48.3 124.199 48.3ZM133.371 50.68C133.238 50.9067 133.065 51.0333 132.851 51.06C132.651 51.1 132.458 51.0667 132.271 50.96C132.098 50.8533 131.978 50.7 131.911 50.5C131.845 50.3 131.885 50.08 132.031 49.84L132.431 49.16C131.885 48.72 131.458 48.16 131.151 47.48C130.858 46.7867 130.711 45.9933 130.711 45.1C130.711 44.06 130.918 43.16 131.331 42.4C131.745 41.64 132.325 41.0533 133.071 40.64C133.818 40.2267 134.698 40.02 135.711 40.02C136.391 40.02 137.025 40.12 137.611 40.32L138.071 39.52C138.205 39.2933 138.371 39.1667 138.571 39.14C138.785 39.1133 138.978 39.1533 139.151 39.26C139.338 39.3667 139.465 39.52 139.531 39.72C139.611 39.92 139.578 40.14 139.431 40.38L139.011 41.1C139.545 41.5267 139.958 42.08 140.251 42.76C140.558 43.44 140.711 44.22 140.711 45.1C140.711 46.14 140.505 47.0467 140.091 47.82C139.678 48.58 139.098 49.1667 138.351 49.58C137.605 49.9933 136.725 50.2 135.711 50.2C135.031 50.2 134.405 50.1 133.831 49.9L133.371 50.68ZM133.231 45.1C133.231 45.9 133.371 46.56 133.651 47.08L136.591 42.06C136.325 41.9667 136.031 41.92 135.711 41.92C134.965 41.92 134.365 42.1867 133.911 42.72C133.458 43.24 133.231 44.0333 133.231 45.1ZM135.711 48.3C136.458 48.3 137.058 48.0333 137.511 47.5C137.965 46.9533 138.191 46.1533 138.191 45.1C138.191 44.3267 138.058 43.68 137.791 43.16L134.851 48.16C135.118 48.2533 135.405 48.3 135.711 48.3ZM144.055 50.16C143.201 50.16 142.775 49.7333 142.775 48.88V41.32C142.775 40.48 143.181 40.06 143.995 40.06C144.808 40.06 145.215 40.48 145.215 41.32V41.94C145.695 40.7933 146.721 40.1533 148.295 40.02C148.868 39.9533 149.188 40.28 149.255 41C149.321 41.7067 148.975 42.1 148.215 42.18L147.775 42.22C146.135 42.38 145.315 43.22 145.315 44.74V48.88C145.315 49.7333 144.895 50.16 144.055 50.16ZM155.01 53.8C154.29 53.8 153.59 53.7333 152.91 53.6C152.244 53.4667 151.637 53.26 151.09 52.98C150.77 52.82 150.577 52.6133 150.51 52.36C150.457 52.12 150.484 51.8867 150.59 51.66C150.697 51.4333 150.857 51.2667 151.07 51.16C151.297 51.0667 151.537 51.08 151.79 51.2C152.377 51.4933 152.93 51.68 153.45 51.76C153.984 51.8533 154.437 51.9 154.81 51.9C156.597 51.9 157.49 51.04 157.49 49.32V47.98C157.21 48.5267 156.777 48.96 156.19 49.28C155.617 49.6 154.977 49.76 154.27 49.76C153.39 49.76 152.624 49.56 151.97 49.16C151.317 48.7467 150.81 48.1733 150.45 47.44C150.09 46.7067 149.91 45.8533 149.91 44.88C149.91 43.9067 150.09 43.06 150.45 42.34C150.81 41.6067 151.317 41.04 151.97 40.64C152.624 40.2267 153.39 40.02 154.27 40.02C154.977 40.02 155.617 40.1733 156.19 40.48C156.764 40.7867 157.184 41.2067 157.45 41.74V41.32C157.45 40.9067 157.557 40.5933 157.77 40.38C157.997 40.1667 158.304 40.06 158.69 40.06C159.517 40.06 159.93 40.48 159.93 41.32V49.02C159.93 50.6067 159.51 51.8 158.67 52.6C157.83 53.4 156.61 53.8 155.01 53.8ZM154.95 47.86C155.724 47.86 156.337 47.5933 156.79 47.06C157.244 46.5267 157.47 45.8 157.47 44.88C157.47 43.96 157.244 43.24 156.79 42.72C156.337 42.1867 155.724 41.92 154.95 41.92C154.177 41.92 153.564 42.1867 153.11 42.72C152.657 43.24 152.43 43.96 152.43 44.88C152.43 45.8 152.657 46.5267 153.11 47.06C153.564 47.5933 154.177 47.86 154.95 47.86ZM171.29 50.2C169.064 50.2 167.95 48.9533 167.95 46.46V37C167.95 36.16 168.364 35.74 169.19 35.74C170.03 35.74 170.45 36.16 170.45 37V46.34C170.45 47.54 170.95 48.14 171.95 48.14C172.057 48.14 172.157 48.14 172.25 48.14C172.344 48.1267 172.437 48.1133 172.53 48.1C172.717 48.0733 172.844 48.1267 172.91 48.26C172.977 48.38 173.01 48.6333 173.01 49.02C173.01 49.3533 172.944 49.6133 172.81 49.8C172.677 49.9867 172.457 50.1 172.15 50.14C171.87 50.18 171.584 50.2 171.29 50.2ZM179.059 50.2C177.953 50.2 176.999 49.9933 176.199 49.58C175.399 49.1667 174.779 48.58 174.339 47.82C173.913 47.06 173.699 46.16 173.699 45.12C173.699 44.1067 173.906 43.22 174.319 42.46C174.746 41.7 175.326 41.1067 176.059 40.68C176.806 40.24 177.653 40.02 178.599 40.02C179.986 40.02 181.079 40.46 181.879 41.34C182.693 42.22 183.099 43.42 183.099 44.94C183.099 45.4333 182.779 45.68 182.139 45.68H176.099C176.286 47.4267 177.286 48.3 179.099 48.3C179.446 48.3 179.833 48.26 180.259 48.18C180.699 48.0867 181.113 47.9333 181.499 47.72C181.846 47.52 182.139 47.46 182.379 47.54C182.619 47.6067 182.786 47.7467 182.879 47.96C182.986 48.1733 182.999 48.4133 182.919 48.68C182.853 48.9333 182.666 49.1533 182.359 49.34C181.893 49.6333 181.353 49.8533 180.739 50C180.139 50.1333 179.579 50.2 179.059 50.2ZM178.699 41.72C177.966 41.72 177.373 41.9467 176.919 42.4C176.466 42.8533 176.193 43.4667 176.099 44.24H181.019C180.966 43.4267 180.739 42.8067 180.339 42.38C179.953 41.94 179.406 41.72 178.699 41.72ZM186.319 50.16C185.493 50.16 185.079 49.7333 185.079 48.88V37C185.079 36.16 185.493 35.74 186.319 35.74C187.159 35.74 187.579 36.16 187.579 37V44.38H187.619L190.919 40.9C191.186 40.6333 191.419 40.4267 191.619 40.28C191.819 40.1333 192.093 40.06 192.439 40.06C192.786 40.06 193.046 40.1533 193.219 40.34C193.406 40.5133 193.499 40.7267 193.499 40.98C193.499 41.2333 193.379 41.4867 193.139 41.74L190.139 44.9L193.479 48.5C193.719 48.7533 193.826 49.0133 193.799 49.28C193.786 49.5333 193.679 49.7467 193.479 49.92C193.279 50.08 193.026 50.16 192.719 50.16C192.346 50.16 192.046 50.0867 191.819 49.94C191.606 49.7933 191.366 49.5733 191.099 49.28L187.619 45.64H187.579V48.88C187.579 49.7333 187.159 50.16 186.319 50.16ZM199.989 50.2C197.402 50.2 196.109 48.92 196.109 46.36V42.1H195.069C194.402 42.1 194.069 41.7867 194.069 41.16C194.069 40.5333 194.402 40.22 195.069 40.22H196.109V38.4C196.109 37.56 196.529 37.14 197.369 37.14C198.196 37.14 198.609 37.56 198.609 38.4V40.22H200.729C201.396 40.22 201.729 40.5333 201.729 41.16C201.729 41.7867 201.396 42.1 200.729 42.1H198.609V46.22C198.609 46.86 198.749 47.34 199.029 47.66C199.309 47.98 199.762 48.14 200.389 48.14C200.616 48.14 200.816 48.12 200.989 48.08C201.162 48.04 201.316 48.0133 201.449 48C201.609 47.9867 201.742 48.04 201.849 48.16C201.956 48.2667 202.009 48.4933 202.009 48.84C202.009 49.1067 201.962 49.3467 201.869 49.56C201.789 49.76 201.636 49.9 201.409 49.98C201.236 50.0333 201.009 50.08 200.729 50.12C200.449 50.1733 200.202 50.2 199.989 50.2ZM207.547 50.2C206.534 50.2 205.654 49.9933 204.907 49.58C204.16 49.1667 203.58 48.58 203.167 47.82C202.754 47.0467 202.547 46.14 202.547 45.1C202.547 44.06 202.754 43.16 203.167 42.4C203.58 41.64 204.16 41.0533 204.907 40.64C205.654 40.2267 206.534 40.02 207.547 40.02C208.56 40.02 209.44 40.2267 210.187 40.64C210.934 41.0533 211.514 41.64 211.927 42.4C212.34 43.16 212.547 44.06 212.547 45.1C212.547 46.14 212.34 47.0467 211.927 47.82C211.514 48.58 210.934 49.1667 210.187 49.58C209.44 49.9933 208.56 50.2 207.547 50.2ZM207.547 48.3C208.294 48.3 208.894 48.0333 209.347 47.5C209.8 46.9533 210.027 46.1533 210.027 45.1C210.027 44.0333 209.8 43.24 209.347 42.72C208.894 42.1867 208.294 41.92 207.547 41.92C206.8 41.92 206.2 42.1867 205.747 42.72C205.294 43.24 205.067 44.0333 205.067 45.1C205.067 46.1533 205.294 46.9533 205.747 47.5C206.2 48.0333 206.8 48.3 207.547 48.3ZM215.891 50.16C215.037 50.16 214.611 49.7333 214.611 48.88V41.32C214.611 40.48 215.017 40.06 215.831 40.06C216.644 40.06 217.051 40.48 217.051 41.32V41.94C217.531 40.7933 218.557 40.1533 220.131 40.02C220.704 39.9533 221.024 40.28 221.091 41C221.157 41.7067 220.811 42.1 220.051 42.18L219.611 42.22C217.971 42.38 217.151 43.22 217.151 44.74V48.88C217.151 49.7333 216.731 50.16 215.891 50.16ZM227.106 50.2C226 50.2 225.046 49.9933 224.246 49.58C223.446 49.1667 222.826 48.58 222.386 47.82C221.96 47.06 221.746 46.16 221.746 45.12C221.746 44.1067 221.953 43.22 222.366 42.46C222.793 41.7 223.373 41.1067 224.106 40.68C224.853 40.24 225.7 40.02 226.646 40.02C228.033 40.02 229.126 40.46 229.926 41.34C230.74 42.22 231.146 43.42 231.146 44.94C231.146 45.4333 230.826 45.68 230.186 45.68H224.146C224.333 47.4267 225.333 48.3 227.146 48.3C227.493 48.3 227.88 48.26 228.306 48.18C228.746 48.0867 229.16 47.9333 229.546 47.72C229.893 47.52 230.186 47.46 230.426 47.54C230.666 47.6067 230.833 47.7467 230.926 47.96C231.033 48.1733 231.046 48.4133 230.966 48.68C230.9 48.9333 230.713 49.1533 230.406 49.34C229.94 49.6333 229.4 49.8533 228.786 50C228.186 50.1333 227.626 50.2 227.106 50.2ZM226.746 41.72C226.013 41.72 225.42 41.9467 224.966 42.4C224.513 42.8533 224.24 43.4667 224.146 44.24H229.066C229.013 43.4267 228.786 42.8067 228.386 42.38C228 41.94 227.453 41.72 226.746 41.72ZM234.406 50.16C233.553 50.16 233.126 49.7333 233.126 48.88V41.32C233.126 40.48 233.533 40.06 234.346 40.06C235.16 40.06 235.566 40.48 235.566 41.32V41.94C236.046 40.7933 237.073 40.1533 238.646 40.02C239.22 39.9533 239.54 40.28 239.606 41C239.673 41.7067 239.326 42.1 238.566 42.18L238.126 42.22C236.486 42.38 235.666 43.22 235.666 44.74V48.88C235.666 49.7333 235.246 50.16 234.406 50.16Z" fill="white"/>
<path d="M133 16.5V22H193.5V66H155V71.5H204.5V66H199V16.5H133ZM144.005 24.75C141.091 24.7601 138.298 25.9221 136.237 27.9827C134.175 30.0432 133.012 32.8352 133 35.75C133 41.7972 137.961 46.75 144.005 46.75C146.919 46.7384 149.709 45.5756 151.769 43.515C153.828 41.4545 154.99 38.6633 155 35.75C155 29.7083 150.045 24.75 144.005 24.75ZM160.5 27.5V33H174.25V27.5H160.5ZM179.75 27.5V33H188V27.5H179.75ZM144.005 30.25C147.069 30.25 149.5 32.6782 149.5 35.75C149.5 38.83 147.072 41.25 144.005 41.25C140.925 41.25 138.5 38.83 138.5 35.75C138.5 32.6782 140.928 30.25 144.005 30.25ZM160.5 38.5V44H188V38.5H160.5ZM133 49.5V71.5H138.5V55H146.75V71.5H152.25V56.8095L157.926 59.8125C159.535 60.665 161.468 60.6623 163.074 59.8125V59.818L172.781 54.6838L170.216 49.8162L160.505 54.9505L151.992 50.457C150.803 49.8293 149.48 49.5008 148.136 49.5H133Z" fill="white" fill-opacity="0.33"/>
<defs>
<filter id="filter0_d_264_760" x="0" y="5" width="353" height="85" filterUnits="userSpaceOnUse" color-interpolation-filters="sRGB">
<feFlood flood-opacity="0" result="BackgroundImageFix"/>
<feColorMatrix in="SourceAlpha" type="matrix" values="0 0 0 0 0 0 0 0 0 0 0 0 0 0 0 0 0 0 127 0" result="hardAlpha"/>
<feOffset dx="-5" dy="4"/>
<feGaussianBlur stdDeviation="2"/>
<feComposite in2="hardAlpha" operator="out"/>
<feColorMatrix type="matrix" values="0 0 0 0 0 0 0 0 0 0 0 0 0 0 0 0 0 0 0.33 0"/>
<feBlend mode="normal" in2="BackgroundImageFix" result="effect1_dropShadow_264_760"/>
<feBlend mode="normal" in="SourceGraphic" in2="effect1_dropShadow_264_760" result="shape"/>
</filter>
</defs>
</svg>
