<svg width="360" height="50" viewBox="0 0 360 50" fill="none" xmlns="http://www.w3.org/2000/svg">
<g filter="url(#filter0_d_264_759)">
<path d="M12.5558 38.126C11.8958 38.126 11.5658 37.796 11.5658 37.136V26.318C11.5658 25.646 11.9018 25.31 12.5738 25.31H18.9818C19.4978 25.31 19.7558 25.556 19.7558 26.048C19.7558 26.564 19.4978 26.822 18.9818 26.822H13.4378V30.872H18.6218C19.1378 30.872 19.3958 31.118 19.3958 31.61C19.3958 32.126 19.1378 32.384 18.6218 32.384H13.4378V37.136C13.4378 37.796 13.1438 38.126 12.5558 38.126ZM24.8167 38.162C23.9287 38.162 23.1607 37.976 22.5127 37.604C21.8647 37.232 21.3607 36.71 21.0007 36.038C20.6527 35.354 20.4787 34.544 20.4787 33.608C20.4787 32.672 20.6527 31.868 21.0007 31.196C21.3607 30.512 21.8647 29.984 22.5127 29.612C23.1607 29.24 23.9287 29.054 24.8167 29.054C25.6807 29.054 26.4367 29.24 27.0847 29.612C27.7327 29.984 28.2367 30.512 28.5967 31.196C28.9567 31.868 29.1367 32.672 29.1367 33.608C29.1367 34.544 28.9567 35.354 28.5967 36.038C28.2367 36.71 27.7327 37.232 27.0847 37.604C26.4367 37.976 25.6807 38.162 24.8167 38.162ZM24.8167 36.758C25.5607 36.758 26.1607 36.488 26.6167 35.948C27.0727 35.408 27.3007 34.628 27.3007 33.608C27.3007 32.588 27.0727 31.814 26.6167 31.286C26.1607 30.746 25.5607 30.476 24.8167 30.476C24.0607 30.476 23.4547 30.746 22.9987 31.286C22.5427 31.814 22.3147 32.588 22.3147 33.608C22.3147 34.628 22.5427 35.408 22.9987 35.948C23.4547 36.488 24.0607 36.758 24.8167 36.758ZM32.0964 38.126C31.4844 38.126 31.1784 37.82 31.1784 37.208V30.008C31.1784 29.396 31.4724 29.09 32.0604 29.09C32.6484 29.09 32.9424 29.396 32.9424 30.008V30.782C33.1824 30.242 33.5424 29.828 34.0224 29.54C34.5144 29.252 35.1084 29.084 35.8044 29.036C36.2484 29 36.4884 29.24 36.5244 29.756C36.5724 30.284 36.3144 30.572 35.7504 30.62L35.4084 30.656C33.8124 30.812 33.0144 31.634 33.0144 33.122V37.208C33.0144 37.82 32.7084 38.126 32.0964 38.126ZM45.4473 38.162C44.8353 38.162 44.2893 38.042 43.8093 37.802C43.3293 37.562 42.9453 37.238 42.6573 36.83C42.3813 36.422 42.2433 35.96 42.2433 35.444C42.2433 34.796 42.4053 34.286 42.7293 33.914C43.0653 33.542 43.6113 33.272 44.3673 33.104C45.1353 32.936 46.1673 32.852 47.4633 32.852H48.0753V32.384C48.0753 31.7 47.9313 31.208 47.6433 30.908C47.3553 30.608 46.8813 30.458 46.2213 30.458C45.8373 30.458 45.4353 30.506 45.0153 30.602C44.6073 30.698 44.1813 30.86 43.7373 31.088C43.4853 31.208 43.2753 31.226 43.1073 31.142C42.9513 31.058 42.8433 30.926 42.7833 30.746C42.7233 30.566 42.7293 30.38 42.8013 30.188C42.8733 29.996 43.0233 29.852 43.2513 29.756C43.7793 29.516 44.3013 29.342 44.8173 29.234C45.3333 29.114 45.8193 29.054 46.2753 29.054C47.4753 29.054 48.3633 29.342 48.9393 29.918C49.5153 30.482 49.8033 31.37 49.8033 32.582V37.208C49.8033 37.82 49.5213 38.126 48.9573 38.126C48.3813 38.126 48.0933 37.82 48.0933 37.208V36.542C47.8773 37.046 47.5413 37.442 47.0853 37.73C46.6293 38.018 46.0833 38.162 45.4473 38.162ZM45.8073 36.866C46.4553 36.866 46.9953 36.638 47.4273 36.182C47.8593 35.726 48.0753 35.15 48.0753 34.454V33.968H47.4813C46.6053 33.968 45.9153 34.01 45.4113 34.094C44.9193 34.178 44.5653 34.322 44.3493 34.526C44.1453 34.718 44.0433 34.988 44.0433 35.336C44.0433 35.792 44.1993 36.164 44.5113 36.452C44.8233 36.728 45.2553 36.866 45.8073 36.866ZM56.0513 38.162C54.9473 38.162 54.1253 37.88 53.5853 37.316C53.0453 36.752 52.7753 35.936 52.7753 34.868V30.62H51.6953C51.1913 30.62 50.9393 30.386 50.9393 29.918C50.9393 29.45 51.1913 29.216 51.6953 29.216H52.7753V27.362C52.7753 26.75 53.0813 26.444 53.6933 26.444C54.2933 26.444 54.5933 26.75 54.5933 27.362V29.216H56.6993C57.2033 29.216 57.4553 29.45 57.4553 29.918C57.4553 30.386 57.2033 30.62 56.6993 30.62H54.5933V34.724C54.5933 35.36 54.7253 35.84 54.9893 36.164C55.2653 36.488 55.7093 36.65 56.3213 36.65C56.5373 36.65 56.7233 36.632 56.8793 36.596C57.0353 36.548 57.1733 36.518 57.2933 36.506C57.4253 36.506 57.5333 36.554 57.6173 36.65C57.7013 36.734 57.7433 36.902 57.7433 37.154C57.7433 37.346 57.7073 37.52 57.6353 37.676C57.5753 37.82 57.4613 37.916 57.2933 37.964C57.1493 38.024 56.9513 38.072 56.6993 38.108C56.4593 38.144 56.2433 38.162 56.0513 38.162ZM65.0676 38.126C64.4556 38.126 64.1496 37.82 64.1496 37.208V30.62H63.1416C62.6496 30.62 62.4036 30.386 62.4036 29.918C62.4036 29.45 62.6496 29.216 63.1416 29.216H64.1496V29.054C64.1496 27.866 64.4436 26.972 65.0316 26.372C65.6196 25.76 66.4776 25.4 67.6056 25.292L68.1636 25.256C68.4156 25.232 68.6016 25.286 68.7216 25.418C68.8536 25.538 68.9196 25.694 68.9196 25.886C68.9196 26.066 68.8716 26.228 68.7756 26.372C68.6796 26.516 68.5356 26.6 68.3436 26.624L68.0016 26.642C67.2936 26.69 66.7776 26.888 66.4536 27.236C66.1296 27.584 65.9676 28.106 65.9676 28.802V29.216H67.7136C68.2176 29.216 68.4696 29.45 68.4696 29.918C68.4696 30.386 68.2176 30.62 67.7136 30.62H65.9676V37.208C65.9676 37.82 65.6676 38.126 65.0676 38.126ZM72.6758 38.162C72.0638 38.162 71.5178 38.042 71.0378 37.802C70.5578 37.562 70.1738 37.238 69.8858 36.83C69.6098 36.422 69.4718 35.96 69.4718 35.444C69.4718 34.796 69.6338 34.286 69.9578 33.914C70.2938 33.542 70.8398 33.272 71.5958 33.104C72.3638 32.936 73.3958 32.852 74.6918 32.852H75.3038V32.384C75.3038 31.7 75.1598 31.208 74.8718 30.908C74.5838 30.608 74.1098 30.458 73.4498 30.458C73.0658 30.458 72.6638 30.506 72.2438 30.602C71.8358 30.698 71.4098 30.86 70.9658 31.088C70.7138 31.208 70.5038 31.226 70.3358 31.142C70.1798 31.058 70.0718 30.926 70.0118 30.746C69.9518 30.566 69.9578 30.38 70.0298 30.188C70.1018 29.996 70.2518 29.852 70.4798 29.756C71.0078 29.516 71.5298 29.342 72.0458 29.234C72.5618 29.114 73.0478 29.054 73.5038 29.054C74.7038 29.054 75.5918 29.342 76.1678 29.918C76.7438 30.482 77.0318 31.37 77.0318 32.582V37.208C77.0318 37.82 76.7498 38.126 76.1858 38.126C75.6098 38.126 75.3218 37.82 75.3218 37.208V36.542C75.1058 37.046 74.7698 37.442 74.3138 37.73C73.8578 38.018 73.3118 38.162 72.6758 38.162ZM73.0358 36.866C73.6838 36.866 74.2238 36.638 74.6558 36.182C75.0878 35.726 75.3038 35.15 75.3038 34.454V33.968H74.7098C73.8338 33.968 73.1438 34.01 72.6398 34.094C72.1478 34.178 71.7938 34.322 71.5778 34.526C71.3738 34.718 71.2718 34.988 71.2718 35.336C71.2718 35.792 71.4278 36.164 71.7398 36.452C72.0518 36.728 72.4838 36.866 73.0358 36.866ZM73.5398 28.172C72.9158 28.172 72.3938 27.962 71.9738 27.542C71.5538 27.122 71.3438 26.612 71.3438 26.012C71.3438 25.412 71.5538 24.908 71.9738 24.5C72.3938 24.092 72.9158 23.888 73.5398 23.888C74.1638 23.888 74.6858 24.092 75.1058 24.5C75.5258 24.908 75.7358 25.412 75.7358 26.012C75.7358 26.612 75.5258 27.122 75.1058 27.542C74.6858 27.962 74.1638 28.172 73.5398 28.172ZM73.5398 27.272C73.8998 27.272 74.1938 27.152 74.4218 26.912C74.6618 26.672 74.7818 26.372 74.7818 26.012C74.7818 25.664 74.6618 25.376 74.4218 25.148C74.1938 24.908 73.8998 24.788 73.5398 24.788C73.1798 24.788 72.8798 24.908 72.6398 25.148C72.4118 25.376 72.2978 25.664 72.2978 26.012C72.2978 26.372 72.4118 26.672 72.6398 26.912C72.8798 27.152 73.1798 27.272 73.5398 27.272ZM87.0899 38.162C86.4779 38.162 85.9319 38.042 85.4519 37.802C84.9719 37.562 84.5879 37.238 84.2999 36.83C84.0239 36.422 83.8859 35.96 83.8859 35.444C83.8859 34.796 84.0479 34.286 84.3719 33.914C84.7079 33.542 85.2539 33.272 86.0099 33.104C86.7779 32.936 87.8099 32.852 89.1059 32.852H89.7179V32.384C89.7179 31.7 89.5739 31.208 89.2859 30.908C88.9979 30.608 88.5239 30.458 87.8639 30.458C87.4799 30.458 87.0779 30.506 86.6579 30.602C86.2499 30.698 85.8239 30.86 85.3799 31.088C85.1279 31.208 84.9179 31.226 84.7499 31.142C84.5939 31.058 84.4859 30.926 84.4259 30.746C84.3659 30.566 84.3719 30.38 84.4439 30.188C84.5159 29.996 84.6659 29.852 84.8939 29.756C85.4219 29.516 85.9439 29.342 86.4599 29.234C86.9759 29.114 87.4619 29.054 87.9179 29.054C89.1179 29.054 90.0059 29.342 90.5819 29.918C91.1579 30.482 91.4459 31.37 91.4459 32.582V37.208C91.4459 37.82 91.1639 38.126 90.5999 38.126C90.0239 38.126 89.7359 37.82 89.7359 37.208V36.542C89.5199 37.046 89.1839 37.442 88.7279 37.73C88.2719 38.018 87.7259 38.162 87.0899 38.162ZM87.4499 36.866C88.0979 36.866 88.6379 36.638 89.0699 36.182C89.5019 35.726 89.7179 35.15 89.7179 34.454V33.968H89.1239C88.2479 33.968 87.5579 34.01 87.0539 34.094C86.5619 34.178 86.2079 34.322 85.9919 34.526C85.7879 34.718 85.6859 34.988 85.6859 35.336C85.6859 35.792 85.8419 36.164 86.1539 36.452C86.4659 36.728 86.8979 36.866 87.4499 36.866ZM97.2979 38.162C96.5299 38.162 95.8519 37.982 95.2639 37.622C94.6879 37.25 94.2379 36.722 93.9139 36.038C93.5899 35.354 93.4279 34.544 93.4279 33.608C93.4279 32.672 93.5899 31.868 93.9139 31.196C94.2379 30.512 94.6879 29.984 95.2639 29.612C95.8399 29.24 96.5179 29.054 97.2979 29.054C97.9579 29.054 98.5459 29.198 99.0619 29.486C99.5779 29.774 99.9619 30.164 100.214 30.656V26.102C100.214 25.49 100.514 25.184 101.114 25.184C101.726 25.184 102.032 25.49 102.032 26.102V37.208C102.032 37.82 101.732 38.126 101.132 38.126C100.532 38.126 100.232 37.82 100.232 37.208V36.524C99.9679 37.028 99.5779 37.43 99.0619 37.73C98.5459 38.018 97.9579 38.162 97.2979 38.162ZM97.7659 36.758C98.5099 36.758 99.1099 36.488 99.5659 35.948C100.022 35.408 100.25 34.628 100.25 33.608C100.25 32.588 100.022 31.814 99.5659 31.286C99.1099 30.746 98.5099 30.476 97.7659 30.476C97.0099 30.476 96.4039 30.746 95.9479 31.286C95.4919 31.814 95.2639 32.588 95.2639 33.608C95.2639 34.628 95.4919 35.408 95.9479 35.948C96.4039 36.488 97.0099 36.758 97.7659 36.758ZM108.563 41.402C107.915 41.402 107.285 41.336 106.673 41.204C106.073 41.072 105.527 40.856 105.035 40.556C104.819 40.436 104.687 40.286 104.639 40.106C104.591 39.926 104.609 39.752 104.693 39.584C104.789 39.416 104.915 39.29 105.071 39.206C105.239 39.134 105.419 39.152 105.611 39.26C106.139 39.548 106.637 39.74 107.105 39.836C107.585 39.944 108.029 39.998 108.437 39.998C110.117 39.998 110.957 39.158 110.957 37.478V36.092C110.705 36.62 110.309 37.034 109.769 37.334C109.241 37.634 108.647 37.784 107.987 37.784C107.195 37.784 106.505 37.604 105.917 37.244C105.329 36.872 104.873 36.362 104.549 35.714C104.225 35.054 104.063 34.286 104.063 33.41C104.063 32.546 104.225 31.79 104.549 31.142C104.873 30.482 105.329 29.972 105.917 29.612C106.505 29.24 107.195 29.054 107.987 29.054C108.647 29.054 109.235 29.204 109.751 29.504C110.279 29.792 110.669 30.188 110.921 30.692V30.008C110.921 29.396 111.221 29.09 111.821 29.09C112.421 29.09 112.721 29.396 112.721 30.008V37.262C112.721 38.642 112.367 39.674 111.659 40.358C110.951 41.054 109.919 41.402 108.563 41.402ZM108.419 36.362C109.187 36.362 109.799 36.098 110.255 35.57C110.711 35.042 110.939 34.322 110.939 33.41C110.939 32.498 110.711 31.784 110.255 31.268C109.799 30.74 109.187 30.476 108.419 30.476C107.651 30.476 107.039 30.74 106.583 31.268C106.127 31.784 105.899 32.498 105.899 33.41C105.899 34.322 106.127 35.042 106.583 35.57C107.039 36.098 107.651 36.362 108.419 36.362ZM118.08 38.162C117.468 38.162 116.922 38.042 116.442 37.802C115.962 37.562 115.578 37.238 115.29 36.83C115.014 36.422 114.876 35.96 114.876 35.444C114.876 34.796 115.038 34.286 115.362 33.914C115.698 33.542 116.244 33.272 117 33.104C117.768 32.936 118.8 32.852 120.096 32.852H120.708V32.384C120.708 31.7 120.564 31.208 120.276 30.908C119.988 30.608 119.514 30.458 118.854 30.458C118.47 30.458 118.068 30.506 117.648 30.602C117.24 30.698 116.814 30.86 116.37 31.088C116.118 31.208 115.908 31.226 115.74 31.142C115.584 31.058 115.476 30.926 115.416 30.746C115.356 30.566 115.362 30.38 115.434 30.188C115.506 29.996 115.656 29.852 115.884 29.756C116.412 29.516 116.934 29.342 117.45 29.234C117.966 29.114 118.452 29.054 118.908 29.054C120.108 29.054 120.996 29.342 121.572 29.918C122.148 30.482 122.436 31.37 122.436 32.582V37.208C122.436 37.82 122.154 38.126 121.59 38.126C121.014 38.126 120.726 37.82 120.726 37.208V36.542C120.51 37.046 120.174 37.442 119.718 37.73C119.262 38.018 118.716 38.162 118.08 38.162ZM118.44 36.866C119.088 36.866 119.628 36.638 120.06 36.182C120.492 35.726 120.708 35.15 120.708 34.454V33.968H120.114C119.238 33.968 118.548 34.01 118.044 34.094C117.552 34.178 117.198 34.322 116.982 34.526C116.778 34.718 116.676 34.988 116.676 35.336C116.676 35.792 116.832 36.164 117.144 36.452C117.456 36.728 117.888 36.866 118.44 36.866ZM125.84 38.126C125.24 38.126 124.94 37.82 124.94 37.208V30.008C124.94 29.396 125.234 29.09 125.822 29.09C126.41 29.09 126.704 29.396 126.704 30.008V30.674C127.004 30.146 127.412 29.744 127.928 29.468C128.456 29.192 129.044 29.054 129.692 29.054C131.768 29.054 132.806 30.23 132.806 32.582V37.208C132.806 37.82 132.506 38.126 131.906 38.126C131.294 38.126 130.988 37.82 130.988 37.208V32.69C130.988 31.934 130.838 31.382 130.538 31.034C130.25 30.686 129.794 30.512 129.17 30.512C128.438 30.512 127.85 30.746 127.406 31.214C126.974 31.67 126.758 32.276 126.758 33.032V37.208C126.758 37.82 126.452 38.126 125.84 38.126ZM139.289 41.402C138.641 41.402 138.011 41.336 137.399 41.204C136.799 41.072 136.253 40.856 135.761 40.556C135.545 40.436 135.413 40.286 135.365 40.106C135.317 39.926 135.335 39.752 135.419 39.584C135.515 39.416 135.641 39.29 135.797 39.206C135.965 39.134 136.145 39.152 136.337 39.26C136.865 39.548 137.363 39.74 137.831 39.836C138.311 39.944 138.755 39.998 139.163 39.998C140.843 39.998 141.683 39.158 141.683 37.478V36.092C141.431 36.62 141.035 37.034 140.495 37.334C139.967 37.634 139.373 37.784 138.713 37.784C137.921 37.784 137.231 37.604 136.643 37.244C136.055 36.872 135.599 36.362 135.275 35.714C134.951 35.054 134.789 34.286 134.789 33.41C134.789 32.546 134.951 31.79 135.275 31.142C135.599 30.482 136.055 29.972 136.643 29.612C137.231 29.24 137.921 29.054 138.713 29.054C139.373 29.054 139.961 29.204 140.477 29.504C141.005 29.792 141.395 30.188 141.647 30.692V30.008C141.647 29.396 141.947 29.09 142.547 29.09C143.147 29.09 143.447 29.396 143.447 30.008V37.262C143.447 38.642 143.093 39.674 142.385 40.358C141.677 41.054 140.645 41.402 139.289 41.402ZM139.145 36.362C139.913 36.362 140.525 36.098 140.981 35.57C141.437 35.042 141.665 34.322 141.665 33.41C141.665 32.498 141.437 31.784 140.981 31.268C140.525 30.74 139.913 30.476 139.145 30.476C138.377 30.476 137.765 30.74 137.309 31.268C136.853 31.784 136.625 32.498 136.625 33.41C136.625 34.322 136.853 35.042 137.309 35.57C137.765 36.098 138.377 36.362 139.145 36.362ZM146.881 31.43C146.521 31.43 146.233 31.322 146.017 31.106C145.813 30.89 145.711 30.62 145.711 30.296C145.711 29.948 145.813 29.672 146.017 29.468C146.233 29.252 146.521 29.144 146.881 29.144C147.229 29.144 147.505 29.252 147.709 29.468C147.913 29.672 148.015 29.948 148.015 30.296C148.015 30.62 147.913 30.89 147.709 31.106C147.505 31.322 147.229 31.43 146.881 31.43ZM146.881 38.072C146.521 38.072 146.233 37.964 146.017 37.748C145.813 37.532 145.711 37.256 145.711 36.92C145.711 36.584 145.813 36.314 146.017 36.11C146.233 35.894 146.521 35.786 146.881 35.786C147.229 35.786 147.505 35.894 147.709 36.11C147.913 36.314 148.015 36.584 148.015 36.92C148.015 37.256 147.913 37.532 147.709 37.748C147.505 37.964 147.229 38.072 146.881 38.072ZM161.154 38.162C159.774 38.162 158.61 37.904 157.662 37.388C156.714 36.86 155.994 36.11 155.502 35.138C155.022 34.166 154.782 33.008 154.782 31.664C154.782 30.332 155.028 29.18 155.52 28.208C156.012 27.224 156.726 26.468 157.662 25.94C158.598 25.412 159.72 25.148 161.028 25.148C161.748 25.148 162.45 25.244 163.134 25.436C163.83 25.616 164.472 25.916 165.06 26.336C165.264 26.48 165.378 26.66 165.402 26.876C165.438 27.08 165.402 27.278 165.294 27.47C165.198 27.65 165.054 27.776 164.862 27.848C164.67 27.908 164.454 27.866 164.214 27.722C163.746 27.398 163.254 27.164 162.738 27.02C162.222 26.864 161.652 26.786 161.028 26.786C159.624 26.786 158.556 27.212 157.824 28.064C157.092 28.904 156.726 30.104 156.726 31.664C156.726 33.26 157.098 34.472 157.842 35.3C158.598 36.128 159.726 36.542 161.226 36.542C162.138 36.542 163.044 36.392 163.944 36.092V32.69H161.622C161.106 32.69 160.848 32.45 160.848 31.97C160.848 31.514 161.106 31.286 161.622 31.286H164.736C165.252 31.286 165.51 31.544 165.51 32.06V36.596C165.51 37.052 165.342 37.346 165.006 37.478C164.49 37.682 163.884 37.85 163.188 37.982C162.492 38.102 161.814 38.162 161.154 38.162ZM169.802 38.576C169.694 38.744 169.562 38.84 169.406 38.864C169.25 38.9 169.1 38.876 168.956 38.792C168.824 38.708 168.734 38.588 168.686 38.432C168.638 38.288 168.674 38.12 168.794 37.928L169.172 37.244C168.692 36.86 168.32 36.356 168.056 35.732C167.792 35.108 167.66 34.4 167.66 33.608C167.66 32.672 167.834 31.868 168.182 31.196C168.542 30.512 169.046 29.984 169.694 29.612C170.342 29.24 171.11 29.054 171.998 29.054C172.646 29.054 173.234 29.162 173.762 29.378L174.194 28.64C174.29 28.472 174.416 28.376 174.572 28.352C174.728 28.328 174.872 28.358 175.004 28.442C175.148 28.526 175.244 28.646 175.292 28.802C175.352 28.946 175.328 29.108 175.22 29.288L174.806 29.99C175.286 30.386 175.658 30.89 175.922 31.502C176.186 32.114 176.318 32.816 176.318 33.608C176.318 34.544 176.138 35.354 175.778 36.038C175.418 36.71 174.914 37.232 174.266 37.604C173.618 37.976 172.862 38.162 171.998 38.162C171.338 38.162 170.744 38.06 170.216 37.856L169.802 38.576ZM169.496 33.608C169.496 34.508 169.682 35.228 170.054 35.768L173.006 30.674C172.706 30.542 172.37 30.476 171.998 30.476C171.242 30.476 170.636 30.746 170.18 31.286C169.724 31.814 169.496 32.588 169.496 33.608ZM171.998 36.758C172.742 36.758 173.342 36.488 173.798 35.948C174.254 35.408 174.482 34.628 174.482 33.608C174.482 32.72 174.302 32.006 173.942 31.466L170.972 36.56C171.272 36.692 171.614 36.758 171.998 36.758ZM179.278 38.126C178.666 38.126 178.36 37.82 178.36 37.208V30.008C178.36 29.396 178.654 29.09 179.242 29.09C179.83 29.09 180.124 29.396 180.124 30.008V30.782C180.364 30.242 180.724 29.828 181.204 29.54C181.696 29.252 182.29 29.084 182.986 29.036C183.43 29 183.67 29.24 183.706 29.756C183.754 30.284 183.496 30.572 182.932 30.62L182.59 30.656C180.994 30.812 180.196 31.634 180.196 33.122V37.208C180.196 37.82 179.89 38.126 179.278 38.126ZM193.943 38.162C192.503 38.162 191.369 37.76 190.541 36.956C189.713 36.14 189.299 35.03 189.299 33.626C189.299 32.726 189.479 31.934 189.839 31.25C190.211 30.554 190.721 30.014 191.369 29.63C192.017 29.246 192.761 29.054 193.601 29.054C194.813 29.054 195.767 29.444 196.463 30.224C197.159 30.992 197.507 32.054 197.507 33.41C197.507 33.818 197.267 34.022 196.787 34.022H191.063C191.195 35.846 192.161 36.758 193.961 36.758C194.321 36.758 194.699 36.716 195.095 36.632C195.491 36.536 195.875 36.368 196.247 36.128C196.499 35.984 196.715 35.936 196.895 35.984C197.087 36.02 197.225 36.122 197.309 36.29C197.393 36.446 197.405 36.626 197.345 36.83C197.297 37.022 197.159 37.19 196.931 37.334C196.523 37.61 196.043 37.82 195.491 37.964C194.951 38.096 194.435 38.162 193.943 38.162ZM193.673 30.332C192.917 30.332 192.317 30.566 191.873 31.034C191.429 31.502 191.159 32.126 191.063 32.906H195.977C195.941 32.09 195.725 31.46 195.329 31.016C194.933 30.56 194.381 30.332 193.673 30.332ZM200.389 38.126C199.789 38.126 199.489 37.82 199.489 37.208V30.008C199.489 29.396 199.783 29.09 200.371 29.09C200.959 29.09 201.253 29.396 201.253 30.008V30.674C201.553 30.146 201.961 29.744 202.477 29.468C203.005 29.192 203.593 29.054 204.241 29.054C206.317 29.054 207.355 30.23 207.355 32.582V37.208C207.355 37.82 207.055 38.126 206.455 38.126C205.843 38.126 205.537 37.82 205.537 37.208V32.69C205.537 31.934 205.387 31.382 205.087 31.034C204.799 30.686 204.343 30.512 203.719 30.512C202.987 30.512 202.399 30.746 201.955 31.214C201.523 31.67 201.307 32.276 201.307 33.032V37.208C201.307 37.82 201.001 38.126 200.389 38.126ZM217.414 38.162C216.802 38.162 216.256 38.042 215.776 37.802C215.296 37.562 214.912 37.238 214.624 36.83C214.348 36.422 214.21 35.96 214.21 35.444C214.21 34.796 214.372 34.286 214.696 33.914C215.032 33.542 215.578 33.272 216.334 33.104C217.102 32.936 218.134 32.852 219.43 32.852H220.042V32.384C220.042 31.7 219.898 31.208 219.61 30.908C219.322 30.608 218.848 30.458 218.188 30.458C217.804 30.458 217.402 30.506 216.982 30.602C216.574 30.698 216.148 30.86 215.704 31.088C215.452 31.208 215.242 31.226 215.074 31.142C214.918 31.058 214.81 30.926 214.75 30.746C214.69 30.566 214.696 30.38 214.768 30.188C214.84 29.996 214.99 29.852 215.218 29.756C215.746 29.516 216.268 29.342 216.784 29.234C217.3 29.114 217.786 29.054 218.242 29.054C219.442 29.054 220.33 29.342 220.906 29.918C221.482 30.482 221.77 31.37 221.77 32.582V37.208C221.77 37.82 221.488 38.126 220.924 38.126C220.348 38.126 220.06 37.82 220.06 37.208V36.542C219.844 37.046 219.508 37.442 219.052 37.73C218.596 38.018 218.05 38.162 217.414 38.162ZM217.774 36.866C218.422 36.866 218.962 36.638 219.394 36.182C219.826 35.726 220.042 35.15 220.042 34.454V33.968H219.448C218.572 33.968 217.882 34.01 217.378 34.094C216.886 34.178 216.532 34.322 216.316 34.526C216.112 34.718 216.01 34.988 216.01 35.336C216.01 35.792 216.166 36.164 216.478 36.452C216.79 36.728 217.222 36.866 217.774 36.866ZM225.714 38.126C225.102 38.126 224.796 37.82 224.796 37.208V30.62H223.788C223.296 30.62 223.05 30.386 223.05 29.918C223.05 29.45 223.296 29.216 223.788 29.216H224.796V29.054C224.796 27.866 225.09 26.972 225.678 26.372C226.266 25.76 227.124 25.4 228.252 25.292L228.81 25.256C229.062 25.232 229.248 25.286 229.368 25.418C229.5 25.538 229.566 25.694 229.566 25.886C229.566 26.066 229.518 26.228 229.422 26.372C229.326 26.516 229.182 26.6 228.99 26.624L228.648 26.642C227.94 26.69 227.424 26.888 227.1 27.236C226.776 27.584 226.614 28.106 226.614 28.802V29.216H228.36C228.864 29.216 229.116 29.45 229.116 29.918C229.116 30.386 228.864 30.62 228.36 30.62H226.614V37.208C226.614 37.82 226.314 38.126 225.714 38.126ZM236.16 38.126C235.56 38.126 235.26 37.82 235.26 37.208V30.008C235.26 29.396 235.554 29.09 236.142 29.09C236.73 29.09 237.024 29.396 237.024 30.008V30.674C237.324 30.146 237.732 29.744 238.248 29.468C238.776 29.192 239.364 29.054 240.012 29.054C242.088 29.054 243.126 30.23 243.126 32.582V37.208C243.126 37.82 242.826 38.126 242.226 38.126C241.614 38.126 241.308 37.82 241.308 37.208V32.69C241.308 31.934 241.158 31.382 240.858 31.034C240.57 30.686 240.114 30.512 239.49 30.512C238.758 30.512 238.17 30.746 237.726 31.214C237.294 31.67 237.078 32.276 237.078 33.032V37.208C237.078 37.82 236.772 38.126 236.16 38.126ZM249.754 38.162C248.314 38.162 247.18 37.76 246.352 36.956C245.524 36.14 245.11 35.03 245.11 33.626C245.11 32.726 245.29 31.934 245.65 31.25C246.022 30.554 246.532 30.014 247.18 29.63C247.828 29.246 248.572 29.054 249.412 29.054C250.624 29.054 251.578 29.444 252.274 30.224C252.97 30.992 253.318 32.054 253.318 33.41C253.318 33.818 253.078 34.022 252.598 34.022H246.874C247.006 35.846 247.972 36.758 249.772 36.758C250.132 36.758 250.51 36.716 250.906 36.632C251.302 36.536 251.686 36.368 252.058 36.128C252.31 35.984 252.526 35.936 252.706 35.984C252.898 36.02 253.036 36.122 253.12 36.29C253.204 36.446 253.216 36.626 253.156 36.83C253.108 37.022 252.97 37.19 252.742 37.334C252.334 37.61 251.854 37.82 251.302 37.964C250.762 38.096 250.246 38.162 249.754 38.162ZM249.484 30.332C248.728 30.332 248.128 30.566 247.684 31.034C247.24 31.502 246.97 32.126 246.874 32.906H251.788C251.752 32.09 251.536 31.46 251.14 31.016C250.744 30.56 250.192 30.332 249.484 30.332ZM258.647 38.162C257.879 38.162 257.201 37.982 256.613 37.622C256.037 37.25 255.587 36.722 255.263 36.038C254.939 35.354 254.777 34.544 254.777 33.608C254.777 32.672 254.939 31.868 255.263 31.196C255.587 30.512 256.037 29.984 256.613 29.612C257.189 29.24 257.867 29.054 258.647 29.054C259.307 29.054 259.895 29.198 260.411 29.486C260.927 29.774 261.311 30.164 261.563 30.656V26.102C261.563 25.49 261.863 25.184 262.463 25.184C263.075 25.184 263.381 25.49 263.381 26.102V37.208C263.381 37.82 263.081 38.126 262.481 38.126C261.881 38.126 261.581 37.82 261.581 37.208V36.524C261.317 37.028 260.927 37.43 260.411 37.73C259.895 38.018 259.307 38.162 258.647 38.162ZM259.115 36.758C259.859 36.758 260.459 36.488 260.915 35.948C261.371 35.408 261.599 34.628 261.599 33.608C261.599 32.588 261.371 31.814 260.915 31.286C260.459 30.746 259.859 30.476 259.115 30.476C258.359 30.476 257.753 30.746 257.297 31.286C256.841 31.814 256.613 32.588 256.613 33.608C256.613 34.628 256.841 35.408 257.297 35.948C257.753 36.488 258.359 36.758 259.115 36.758ZM270.056 38.162C268.616 38.162 267.482 37.76 266.654 36.956C265.826 36.14 265.412 35.03 265.412 33.626C265.412 32.726 265.592 31.934 265.952 31.25C266.324 30.554 266.834 30.014 267.482 29.63C268.13 29.246 268.874 29.054 269.714 29.054C270.926 29.054 271.88 29.444 272.576 30.224C273.272 30.992 273.62 32.054 273.62 33.41C273.62 33.818 273.38 34.022 272.9 34.022H267.176C267.308 35.846 268.274 36.758 270.074 36.758C270.434 36.758 270.812 36.716 271.208 36.632C271.604 36.536 271.988 36.368 272.36 36.128C272.612 35.984 272.828 35.936 273.008 35.984C273.2 36.02 273.338 36.122 273.422 36.29C273.506 36.446 273.518 36.626 273.458 36.83C273.41 37.022 273.272 37.19 273.044 37.334C272.636 37.61 272.156 37.82 271.604 37.964C271.064 38.096 270.548 38.162 270.056 38.162ZM269.786 30.332C269.03 30.332 268.43 30.566 267.986 31.034C267.542 31.502 267.272 32.126 267.176 32.906H272.09C272.054 32.09 271.838 31.46 271.442 31.016C271.046 30.56 270.494 30.332 269.786 30.332ZM276.502 38.126C275.902 38.126 275.602 37.82 275.602 37.208V30.008C275.602 29.396 275.896 29.09 276.484 29.09C277.072 29.09 277.366 29.396 277.366 30.008V30.674C277.666 30.146 278.074 29.744 278.59 29.468C279.118 29.192 279.706 29.054 280.354 29.054C282.43 29.054 283.468 30.23 283.468 32.582V37.208C283.468 37.82 283.168 38.126 282.568 38.126C281.956 38.126 281.65 37.82 281.65 37.208V32.69C281.65 31.934 281.5 31.382 281.2 31.034C280.912 30.686 280.456 30.512 279.832 30.512C279.1 30.512 278.512 30.746 278.068 31.214C277.636 31.67 277.42 32.276 277.42 33.032V37.208C277.42 37.82 277.114 38.126 276.502 38.126ZM289.051 38.162C288.523 38.162 287.977 38.102 287.413 37.982C286.849 37.862 286.339 37.658 285.883 37.37C285.679 37.25 285.553 37.1 285.505 36.92C285.457 36.74 285.469 36.572 285.541 36.416C285.613 36.26 285.727 36.152 285.883 36.092C286.051 36.02 286.237 36.038 286.441 36.146C286.909 36.398 287.359 36.578 287.791 36.686C288.223 36.794 288.649 36.848 289.069 36.848C289.705 36.848 290.185 36.734 290.509 36.506C290.833 36.278 290.995 35.972 290.995 35.588C290.995 35.276 290.887 35.036 290.671 34.868C290.455 34.688 290.131 34.55 289.699 34.454L287.989 34.112C286.477 33.8 285.721 33.02 285.721 31.772C285.721 30.944 286.051 30.284 286.711 29.792C287.371 29.3 288.235 29.054 289.303 29.054C290.383 29.054 291.313 29.318 292.093 29.846C292.285 29.966 292.399 30.116 292.435 30.296C292.471 30.464 292.447 30.626 292.363 30.782C292.279 30.926 292.153 31.028 291.985 31.088C291.829 31.148 291.643 31.124 291.427 31.016C291.067 30.8 290.707 30.644 290.347 30.548C289.987 30.44 289.639 30.386 289.303 30.386C288.679 30.386 288.205 30.506 287.881 30.746C287.557 30.974 287.395 31.286 287.395 31.682C287.395 32.282 287.791 32.666 288.583 32.834L290.293 33.176C291.073 33.332 291.661 33.596 292.057 33.968C292.465 34.34 292.669 34.844 292.669 35.48C292.669 36.32 292.339 36.98 291.679 37.46C291.019 37.928 290.143 38.162 289.051 38.162ZM298.348 38.162C297.244 38.162 296.422 37.88 295.882 37.316C295.342 36.752 295.072 35.936 295.072 34.868V30.62H293.992C293.488 30.62 293.236 30.386 293.236 29.918C293.236 29.45 293.488 29.216 293.992 29.216H295.072V27.362C295.072 26.75 295.378 26.444 295.99 26.444C296.59 26.444 296.89 26.75 296.89 27.362V29.216H298.996C299.5 29.216 299.752 29.45 299.752 29.918C299.752 30.386 299.5 30.62 298.996 30.62H296.89V34.724C296.89 35.36 297.022 35.84 297.286 36.164C297.562 36.488 298.006 36.65 298.618 36.65C298.834 36.65 299.02 36.632 299.176 36.596C299.332 36.548 299.47 36.518 299.59 36.506C299.722 36.506 299.83 36.554 299.914 36.65C299.998 36.734 300.04 36.902 300.04 37.154C300.04 37.346 300.004 37.52 299.932 37.676C299.872 37.82 299.758 37.916 299.59 37.964C299.446 38.024 299.248 38.072 298.996 38.108C298.756 38.144 298.54 38.162 298.348 38.162ZM303.986 38.162C303.374 38.162 302.828 38.042 302.348 37.802C301.868 37.562 301.484 37.238 301.196 36.83C300.92 36.422 300.782 35.96 300.782 35.444C300.782 34.796 300.944 34.286 301.268 33.914C301.604 33.542 302.15 33.272 302.906 33.104C303.674 32.936 304.706 32.852 306.002 32.852H306.614V32.384C306.614 31.7 306.47 31.208 306.182 30.908C305.894 30.608 305.42 30.458 304.76 30.458C304.376 30.458 303.974 30.506 303.554 30.602C303.146 30.698 302.72 30.86 302.276 31.088C302.024 31.208 301.814 31.226 301.646 31.142C301.49 31.058 301.382 30.926 301.322 30.746C301.262 30.566 301.268 30.38 301.34 30.188C301.412 29.996 301.562 29.852 301.79 29.756C302.318 29.516 302.84 29.342 303.356 29.234C303.872 29.114 304.358 29.054 304.814 29.054C306.014 29.054 306.902 29.342 307.478 29.918C308.054 30.482 308.342 31.37 308.342 32.582V37.208C308.342 37.82 308.06 38.126 307.496 38.126C306.92 38.126 306.632 37.82 306.632 37.208V36.542C306.416 37.046 306.08 37.442 305.624 37.73C305.168 38.018 304.622 38.162 303.986 38.162ZM304.346 36.866C304.994 36.866 305.534 36.638 305.966 36.182C306.398 35.726 306.614 35.15 306.614 34.454V33.968H306.02C305.144 33.968 304.454 34.01 303.95 34.094C303.458 34.178 303.104 34.322 302.888 34.526C302.684 34.718 302.582 34.988 302.582 35.336C302.582 35.792 302.738 36.164 303.05 36.452C303.362 36.728 303.794 36.866 304.346 36.866ZM304.85 28.172C304.226 28.172 303.704 27.962 303.284 27.542C302.864 27.122 302.654 26.612 302.654 26.012C302.654 25.412 302.864 24.908 303.284 24.5C303.704 24.092 304.226 23.888 304.85 23.888C305.474 23.888 305.996 24.092 306.416 24.5C306.836 24.908 307.046 25.412 307.046 26.012C307.046 26.612 306.836 27.122 306.416 27.542C305.996 27.962 305.474 28.172 304.85 28.172ZM304.85 27.272C305.21 27.272 305.504 27.152 305.732 26.912C305.972 26.672 306.092 26.372 306.092 26.012C306.092 25.664 305.972 25.376 305.732 25.148C305.504 24.908 305.21 24.788 304.85 24.788C304.49 24.788 304.19 24.908 303.95 25.148C303.722 25.376 303.608 25.664 303.608 26.012C303.608 26.372 303.722 26.672 303.95 26.912C304.19 27.152 304.49 27.272 304.85 27.272ZM314.968 38.162C313.528 38.162 312.394 37.76 311.566 36.956C310.738 36.14 310.324 35.03 310.324 33.626C310.324 32.726 310.504 31.934 310.864 31.25C311.236 30.554 311.746 30.014 312.394 29.63C313.042 29.246 313.786 29.054 314.626 29.054C315.838 29.054 316.792 29.444 317.488 30.224C318.184 30.992 318.532 32.054 318.532 33.41C318.532 33.818 318.292 34.022 317.812 34.022H312.088C312.22 35.846 313.186 36.758 314.986 36.758C315.346 36.758 315.724 36.716 316.12 36.632C316.516 36.536 316.9 36.368 317.272 36.128C317.524 35.984 317.74 35.936 317.92 35.984C318.112 36.02 318.25 36.122 318.334 36.29C318.418 36.446 318.43 36.626 318.37 36.83C318.322 37.022 318.184 37.19 317.956 37.334C317.548 37.61 317.068 37.82 316.516 37.964C315.976 38.096 315.46 38.162 314.968 38.162ZM314.698 30.332C313.942 30.332 313.342 30.566 312.898 31.034C312.454 31.502 312.184 32.126 312.088 32.906H317.002C316.966 32.09 316.75 31.46 316.354 31.016C315.958 30.56 315.406 30.332 314.698 30.332ZM321.414 38.126C320.814 38.126 320.514 37.82 320.514 37.208V30.008C320.514 29.396 320.808 29.09 321.396 29.09C321.984 29.09 322.278 29.396 322.278 30.008V30.674C322.578 30.146 322.986 29.744 323.502 29.468C324.03 29.192 324.618 29.054 325.266 29.054C327.342 29.054 328.38 30.23 328.38 32.582V37.208C328.38 37.82 328.08 38.126 327.48 38.126C326.868 38.126 326.562 37.82 326.562 37.208V32.69C326.562 31.934 326.412 31.382 326.112 31.034C325.824 30.686 325.368 30.512 324.744 30.512C324.012 30.512 323.424 30.746 322.98 31.214C322.548 31.67 322.332 32.276 322.332 33.032V37.208C322.332 37.82 322.026 38.126 321.414 38.126ZM334.233 38.162C333.465 38.162 332.787 37.982 332.199 37.622C331.623 37.25 331.173 36.722 330.849 36.038C330.525 35.354 330.363 34.544 330.363 33.608C330.363 32.672 330.525 31.868 330.849 31.196C331.173 30.512 331.623 29.984 332.199 29.612C332.775 29.24 333.453 29.054 334.233 29.054C334.893 29.054 335.481 29.198 335.997 29.486C336.513 29.774 336.897 30.164 337.149 30.656V26.102C337.149 25.49 337.449 25.184 338.049 25.184C338.661 25.184 338.967 25.49 338.967 26.102V37.208C338.967 37.82 338.667 38.126 338.067 38.126C337.467 38.126 337.167 37.82 337.167 37.208V36.524C336.903 37.028 336.513 37.43 335.997 37.73C335.481 38.018 334.893 38.162 334.233 38.162ZM334.701 36.758C335.445 36.758 336.045 36.488 336.501 35.948C336.957 35.408 337.185 34.628 337.185 33.608C337.185 32.588 336.957 31.814 336.501 31.286C336.045 30.746 335.445 30.476 334.701 30.476C333.945 30.476 333.339 30.746 332.883 31.286C332.427 31.814 332.199 32.588 332.199 33.608C332.199 34.628 332.427 35.408 332.883 35.948C333.339 36.488 333.945 36.758 334.701 36.758ZM345.642 38.162C344.202 38.162 343.068 37.76 342.24 36.956C341.412 36.14 340.998 35.03 340.998 33.626C340.998 32.726 341.178 31.934 341.538 31.25C341.91 30.554 342.42 30.014 343.068 29.63C343.716 29.246 344.46 29.054 345.3 29.054C346.512 29.054 347.466 29.444 348.162 30.224C348.858 30.992 349.206 32.054 349.206 33.41C349.206 33.818 348.966 34.022 348.486 34.022H342.762C342.894 35.846 343.86 36.758 345.66 36.758C346.02 36.758 346.398 36.716 346.794 36.632C347.19 36.536 347.574 36.368 347.946 36.128C348.198 35.984 348.414 35.936 348.594 35.984C348.786 36.02 348.924 36.122 349.008 36.29C349.092 36.446 349.104 36.626 349.044 36.83C348.996 37.022 348.858 37.19 348.63 37.334C348.222 37.61 347.742 37.82 347.19 37.964C346.65 38.096 346.134 38.162 345.642 38.162ZM345.372 30.332C344.616 30.332 344.016 30.566 343.572 31.034C343.128 31.502 342.858 32.126 342.762 32.906H347.676C347.64 32.09 347.424 31.46 347.028 31.016C346.632 30.56 346.08 30.332 345.372 30.332Z" fill="white"/>
</g>
<g filter="url(#filter1_d_264_759)">
<path d="M5.68322 18C5.35922 18 5.10722 17.916 4.92722 17.748C4.75922 17.568 4.67522 17.316 4.67522 16.992V6.318C4.67522 5.994 4.75922 5.748 4.92722 5.58C5.10722 5.4 5.35922 5.31 5.68322 5.31H9.15722C11.2452 5.31 12.8532 5.856 13.9812 6.948C15.1212 8.028 15.6912 9.594 15.6912 11.646C15.6912 12.666 15.5472 13.572 15.2592 14.364C14.9712 15.156 14.5452 15.822 13.9812 16.362C13.4292 16.89 12.7512 17.298 11.9472 17.586C11.1432 17.862 10.2132 18 9.15722 18H5.68322ZM6.54722 16.434H9.04922C9.84122 16.434 10.5252 16.338 11.1012 16.146C11.6892 15.942 12.1812 15.642 12.5772 15.246C12.9732 14.85 13.2672 14.352 13.4592 13.752C13.6512 13.152 13.7472 12.45 13.7472 11.646C13.7472 10.05 13.3512 8.856 12.5592 8.064C11.7792 7.272 10.6092 6.876 9.04922 6.876H6.54722V16.434ZM21.1268 18.162C20.4188 18.162 19.8248 18.03 19.3448 17.766C18.8768 17.502 18.5228 17.112 18.2828 16.596C18.0548 16.068 17.9408 15.408 17.9408 14.616V10.008C17.9408 9.696 18.0188 9.468 18.1748 9.324C18.3308 9.168 18.5528 9.09 18.8408 9.09C19.1288 9.09 19.3508 9.168 19.5068 9.324C19.6748 9.468 19.7588 9.696 19.7588 10.008V14.634C19.7588 15.342 19.9028 15.864 20.1908 16.2C20.4788 16.536 20.9348 16.704 21.5588 16.704C22.2428 16.704 22.7948 16.476 23.2148 16.02C23.6468 15.552 23.8628 14.94 23.8628 14.184V10.008C23.8628 9.696 23.9408 9.468 24.0968 9.324C24.2528 9.168 24.4808 9.09 24.7808 9.09C25.0688 9.09 25.2908 9.168 25.4468 9.324C25.6028 9.468 25.6808 9.696 25.6808 10.008V17.208C25.6808 17.82 25.3868 18.126 24.7988 18.126C24.5228 18.126 24.3068 18.048 24.1508 17.892C23.9948 17.724 23.9168 17.496 23.9168 17.208V15.678L24.1508 16.074C23.9108 16.746 23.5268 17.262 22.9988 17.622C22.4708 17.982 21.8468 18.162 21.1268 18.162ZM33.8889 18.126C33.6009 18.126 33.3789 18.048 33.2229 17.892C33.0669 17.724 32.9889 17.496 32.9889 17.208V6.102C32.9889 5.802 33.0669 5.574 33.2229 5.418C33.3789 5.262 33.6009 5.184 33.8889 5.184C34.1769 5.184 34.3989 5.262 34.5549 5.418C34.7229 5.574 34.8069 5.802 34.8069 6.102V11.088H34.5549C34.8189 10.416 35.2329 9.912 35.7969 9.576C36.3609 9.228 37.0089 9.054 37.7409 9.054C38.4369 9.054 39.0129 9.186 39.4689 9.45C39.9369 9.702 40.2849 10.092 40.5129 10.62C40.7409 11.136 40.8549 11.79 40.8549 12.582V17.208C40.8549 17.496 40.7769 17.724 40.6209 17.892C40.4649 18.048 40.2429 18.126 39.9549 18.126C39.6549 18.126 39.4269 18.048 39.2709 17.892C39.1149 17.724 39.0369 17.496 39.0369 17.208V12.69C39.0369 11.934 38.8869 11.382 38.5869 11.034C38.2989 10.686 37.8429 10.512 37.2189 10.512C36.4869 10.512 35.8989 10.74 35.4549 11.196C35.0229 11.652 34.8069 12.264 34.8069 13.032V17.208C34.8069 17.82 34.5009 18.126 33.8889 18.126ZM46.168 18.162C45.556 18.162 45.004 18.042 44.512 17.802C44.032 17.562 43.654 17.238 43.378 16.83C43.102 16.422 42.964 15.96 42.964 15.444C42.964 14.796 43.126 14.286 43.45 13.914C43.786 13.53 44.332 13.26 45.088 13.104C45.856 12.936 46.888 12.852 48.184 12.852H49.03V13.968H48.202C47.338 13.968 46.654 14.01 46.15 14.094C45.646 14.178 45.286 14.322 45.07 14.526C44.866 14.718 44.764 14.988 44.764 15.336C44.764 15.792 44.92 16.164 45.232 16.452C45.544 16.728 45.976 16.866 46.528 16.866C46.972 16.866 47.362 16.764 47.698 16.56C48.034 16.344 48.298 16.056 48.49 15.696C48.694 15.336 48.796 14.922 48.796 14.454V12.384C48.796 11.7 48.652 11.208 48.364 10.908C48.076 10.608 47.602 10.458 46.942 10.458C46.558 10.458 46.156 10.506 45.736 10.602C45.328 10.698 44.902 10.86 44.458 11.088C44.254 11.184 44.08 11.214 43.936 11.178C43.792 11.142 43.678 11.064 43.594 10.944C43.51 10.812 43.462 10.674 43.45 10.53C43.45 10.374 43.486 10.224 43.558 10.08C43.642 9.936 43.78 9.828 43.972 9.756C44.5 9.504 45.022 9.324 45.538 9.216C46.054 9.108 46.54 9.054 46.996 9.054C47.8 9.054 48.46 9.18 48.976 9.432C49.504 9.684 49.894 10.068 50.146 10.584C50.398 11.1 50.524 11.766 50.524 12.582V17.208C50.524 17.496 50.452 17.724 50.308 17.892C50.164 18.048 49.954 18.126 49.678 18.126C49.414 18.126 49.204 18.048 49.048 17.892C48.892 17.724 48.814 17.496 48.814 17.208V16.038H48.976C48.88 16.482 48.7 16.866 48.436 17.19C48.184 17.502 47.866 17.742 47.482 17.91C47.098 18.078 46.66 18.162 46.168 18.162ZM53.946 18.126C53.646 18.126 53.418 18.048 53.262 17.892C53.106 17.724 53.028 17.496 53.028 17.208V10.008C53.028 9.708 53.106 9.48 53.262 9.324C53.418 9.168 53.634 9.09 53.91 9.09C54.198 9.09 54.414 9.168 54.558 9.324C54.714 9.48 54.792 9.708 54.792 10.008V11.322H54.612C54.804 10.602 55.158 10.056 55.674 9.684C56.19 9.312 56.85 9.096 57.654 9.036C57.87 9.024 58.038 9.078 58.158 9.198C58.29 9.318 58.362 9.504 58.374 9.756C58.398 10.008 58.344 10.212 58.212 10.368C58.08 10.512 57.876 10.596 57.6 10.62L57.258 10.656C56.478 10.728 55.884 10.974 55.476 11.394C55.068 11.814 54.864 12.39 54.864 13.122V17.208C54.864 17.496 54.786 17.724 54.63 17.892C54.486 18.048 54.258 18.126 53.946 18.126ZM67.3149 18.162C66.3789 18.162 65.6709 17.892 65.1909 17.352C64.7229 16.8 64.4889 16.008 64.4889 14.976V6.102C64.4889 5.802 64.5669 5.574 64.7229 5.418C64.8789 5.262 65.1009 5.184 65.3889 5.184C65.6769 5.184 65.8989 5.262 66.0549 5.418C66.2229 5.574 66.3069 5.802 66.3069 6.102V14.868C66.3069 15.468 66.4269 15.918 66.6669 16.218C66.9189 16.506 67.2789 16.65 67.7469 16.65C67.8549 16.65 67.9509 16.65 68.0349 16.65C68.1189 16.638 68.2029 16.626 68.2869 16.614C68.4309 16.602 68.5329 16.644 68.5929 16.74C68.6529 16.824 68.6829 17.004 68.6829 17.28C68.6829 17.532 68.6289 17.73 68.5209 17.874C68.4129 18.006 68.2389 18.09 67.9989 18.126C67.8909 18.138 67.7769 18.144 67.6569 18.144C67.5369 18.156 67.4229 18.162 67.3149 18.162ZM70.8909 18.108C70.6029 18.108 70.3809 18.024 70.2249 17.856C70.0689 17.676 69.9909 17.43 69.9909 17.118V10.098C69.9909 9.786 70.0689 9.546 70.2249 9.378C70.3809 9.21 70.6029 9.126 70.8909 9.126C71.1789 9.126 71.4009 9.21 71.5569 9.378C71.7249 9.546 71.8089 9.786 71.8089 10.098V17.118C71.8089 17.43 71.7309 17.676 71.5749 17.856C71.4189 18.024 71.1909 18.108 70.8909 18.108ZM70.8909 7.254C70.5309 7.254 70.2489 7.164 70.0449 6.984C69.8529 6.804 69.7569 6.552 69.7569 6.228C69.7569 5.892 69.8529 5.64 70.0449 5.472C70.2489 5.292 70.5309 5.202 70.8909 5.202C71.2509 5.202 71.5269 5.292 71.7189 5.472C71.9229 5.64 72.0249 5.892 72.0249 6.228C72.0249 6.552 71.9229 6.804 71.7189 6.984C71.5269 7.164 71.2509 7.254 70.8909 7.254ZM78.3458 21.402C77.6978 21.402 77.0678 21.336 76.4558 21.204C75.8558 21.072 75.3098 20.856 74.8178 20.556C74.6378 20.46 74.5178 20.34 74.4578 20.196C74.3978 20.064 74.3798 19.926 74.4038 19.782C74.4398 19.638 74.5058 19.512 74.6018 19.404C74.6978 19.296 74.8118 19.224 74.9438 19.188C75.0878 19.152 75.2378 19.176 75.3938 19.26C75.9218 19.548 76.4198 19.74 76.8878 19.836C77.3678 19.944 77.8118 19.998 78.2198 19.998C79.0598 19.998 79.6898 19.782 80.1098 19.35C80.5298 18.93 80.7398 18.306 80.7398 17.478V15.642H80.9018C80.7218 16.302 80.3438 16.824 79.7678 17.208C79.1918 17.592 78.5258 17.784 77.7698 17.784C76.9778 17.784 76.2878 17.604 75.6998 17.244C75.1118 16.872 74.6558 16.362 74.3318 15.714C74.0078 15.054 73.8458 14.286 73.8458 13.41C73.8458 12.75 73.9358 12.156 74.1158 11.628C74.3078 11.1 74.5718 10.644 74.9078 10.26C75.2558 9.876 75.6698 9.582 76.1498 9.378C76.6418 9.162 77.1818 9.054 77.7698 9.054C78.5378 9.054 79.2038 9.246 79.7678 9.63C80.3438 10.014 80.7158 10.536 80.8838 11.196L80.7038 11.502V10.008C80.7038 9.708 80.7818 9.48 80.9378 9.324C81.1058 9.168 81.3278 9.09 81.6038 9.09C81.8918 9.09 82.1138 9.168 82.2698 9.324C82.4258 9.48 82.5038 9.708 82.5038 10.008V17.262C82.5038 18.63 82.1498 19.662 81.4418 20.358C80.7338 21.054 79.7018 21.402 78.3458 21.402ZM78.2018 16.362C78.7298 16.362 79.1798 16.242 79.5518 16.002C79.9238 15.762 80.2118 15.42 80.4158 14.976C80.6198 14.532 80.7218 14.01 80.7218 13.41C80.7218 12.51 80.4938 11.796 80.0378 11.268C79.5938 10.74 78.9818 10.476 78.2018 10.476C77.6858 10.476 77.2418 10.596 76.8698 10.836C76.4978 11.076 76.2038 11.418 75.9878 11.862C75.7838 12.294 75.6818 12.81 75.6818 13.41C75.6818 14.322 75.9098 15.042 76.3658 15.57C76.8218 16.098 77.4338 16.362 78.2018 16.362ZM89.1773 18.162C88.2173 18.162 87.3893 17.982 86.6933 17.622C86.0093 17.25 85.4753 16.728 85.0913 16.056C84.7193 15.372 84.5333 14.562 84.5333 13.626C84.5333 12.714 84.7193 11.916 85.0913 11.232C85.4633 10.548 85.9733 10.014 86.6213 9.63C87.2693 9.246 88.0073 9.054 88.8353 9.054C89.4473 9.054 89.9933 9.156 90.4733 9.36C90.9533 9.552 91.3613 9.84 91.6973 10.224C92.0453 10.596 92.3033 11.052 92.4713 11.592C92.6513 12.132 92.7413 12.738 92.7413 13.41C92.7413 13.614 92.6813 13.77 92.5613 13.878C92.4413 13.974 92.2613 14.022 92.0213 14.022H85.9733V12.906H91.5173L91.2113 13.158C91.2113 12.558 91.1213 12.048 90.9413 11.628C90.7733 11.208 90.5153 10.89 90.1673 10.674C89.8313 10.446 89.4113 10.332 88.9073 10.332C88.3433 10.332 87.8633 10.464 87.4673 10.728C87.0833 10.992 86.7893 11.358 86.5853 11.826C86.3813 12.294 86.2793 12.84 86.2793 13.464V13.572C86.2793 14.628 86.5253 15.426 87.0173 15.966C87.5213 16.494 88.2473 16.758 89.1953 16.758C89.5553 16.758 89.9333 16.71 90.3293 16.614C90.7373 16.518 91.1213 16.356 91.4813 16.128C91.6853 16.008 91.8653 15.954 92.0213 15.966C92.1893 15.978 92.3213 16.032 92.4173 16.128C92.5253 16.224 92.5913 16.344 92.6153 16.488C92.6393 16.632 92.6153 16.782 92.5433 16.938C92.4713 17.082 92.3453 17.214 92.1653 17.334C91.7573 17.61 91.2833 17.82 90.7433 17.964C90.2033 18.096 89.6813 18.162 89.1773 18.162ZM100.369 18.126C100.081 18.126 99.8594 18.048 99.7034 17.892C99.5474 17.724 99.4694 17.496 99.4694 17.208V10.008C99.4694 9.708 99.5474 9.48 99.7034 9.324C99.8594 9.168 100.075 9.09 100.351 9.09C100.639 9.09 100.855 9.168 100.999 9.324C101.155 9.48 101.233 9.708 101.233 10.008V11.412L101.035 11.088C101.299 10.416 101.713 9.912 102.277 9.576C102.841 9.228 103.489 9.054 104.221 9.054C104.917 9.054 105.493 9.186 105.949 9.45C106.417 9.702 106.765 10.092 106.993 10.62C107.221 11.136 107.335 11.79 107.335 12.582V17.208C107.335 17.496 107.257 17.724 107.101 17.892C106.945 18.048 106.723 18.126 106.435 18.126C106.135 18.126 105.907 18.048 105.751 17.892C105.595 17.724 105.517 17.496 105.517 17.208V12.69C105.517 11.934 105.367 11.382 105.067 11.034C104.779 10.686 104.323 10.512 103.699 10.512C102.967 10.512 102.379 10.74 101.935 11.196C101.503 11.652 101.287 12.264 101.287 13.032V17.208C101.287 17.82 100.981 18.126 100.369 18.126ZM112.973 18.162C112.265 18.162 111.671 18.03 111.191 17.766C110.723 17.502 110.369 17.112 110.129 16.596C109.901 16.068 109.787 15.408 109.787 14.616V10.008C109.787 9.696 109.865 9.468 110.021 9.324C110.177 9.168 110.399 9.09 110.687 9.09C110.975 9.09 111.197 9.168 111.353 9.324C111.521 9.468 111.605 9.696 111.605 10.008V14.634C111.605 15.342 111.749 15.864 112.037 16.2C112.325 16.536 112.781 16.704 113.405 16.704C114.089 16.704 114.641 16.476 115.061 16.02C115.493 15.552 115.709 14.94 115.709 14.184V10.008C115.709 9.696 115.787 9.468 115.943 9.324C116.099 9.168 116.327 9.09 116.627 9.09C116.915 9.09 117.137 9.168 117.293 9.324C117.449 9.468 117.527 9.696 117.527 10.008V17.208C117.527 17.82 117.233 18.126 116.645 18.126C116.369 18.126 116.153 18.048 115.997 17.892C115.841 17.724 115.763 17.496 115.763 17.208V15.678L115.997 16.074C115.757 16.746 115.373 17.262 114.845 17.622C114.317 17.982 113.693 18.162 112.973 18.162ZM125.735 18.108C125.447 18.108 125.225 18.024 125.069 17.856C124.913 17.676 124.835 17.43 124.835 17.118V10.098C124.835 9.786 124.913 9.546 125.069 9.378C125.225 9.21 125.447 9.126 125.735 9.126C126.023 9.126 126.245 9.21 126.401 9.378C126.569 9.546 126.653 9.786 126.653 10.098V17.118C126.653 17.43 126.575 17.676 126.419 17.856C126.263 18.024 126.035 18.108 125.735 18.108ZM125.735 7.254C125.375 7.254 125.093 7.164 124.889 6.984C124.697 6.804 124.601 6.552 124.601 6.228C124.601 5.892 124.697 5.64 124.889 5.472C125.093 5.292 125.375 5.202 125.735 5.202C126.095 5.202 126.371 5.292 126.563 5.472C126.767 5.64 126.869 5.892 126.869 6.228C126.869 6.552 126.767 6.804 126.563 6.984C126.371 7.164 126.095 7.254 125.735 7.254ZM130.112 18.126C129.824 18.126 129.602 18.048 129.446 17.892C129.29 17.724 129.212 17.496 129.212 17.208V10.008C129.212 9.708 129.29 9.48 129.446 9.324C129.602 9.168 129.818 9.09 130.094 9.09C130.382 9.09 130.598 9.168 130.742 9.324C130.898 9.48 130.976 9.708 130.976 10.008V11.412L130.778 11.088C131.042 10.416 131.456 9.912 132.02 9.576C132.584 9.228 133.232 9.054 133.964 9.054C134.66 9.054 135.236 9.186 135.692 9.45C136.16 9.702 136.508 10.092 136.736 10.62C136.964 11.136 137.078 11.79 137.078 12.582V17.208C137.078 17.496 137 17.724 136.844 17.892C136.688 18.048 136.466 18.126 136.178 18.126C135.878 18.126 135.65 18.048 135.494 17.892C135.338 17.724 135.26 17.496 135.26 17.208V12.69C135.26 11.934 135.11 11.382 134.81 11.034C134.522 10.686 134.066 10.512 133.442 10.512C132.71 10.512 132.122 10.74 131.678 11.196C131.246 11.652 131.03 12.264 131.03 13.032V17.208C131.03 17.82 130.724 18.126 130.112 18.126ZM143.561 21.402C142.913 21.402 142.283 21.336 141.671 21.204C141.071 21.072 140.525 20.856 140.033 20.556C139.853 20.46 139.733 20.34 139.673 20.196C139.613 20.064 139.595 19.926 139.619 19.782C139.655 19.638 139.721 19.512 139.817 19.404C139.913 19.296 140.027 19.224 140.159 19.188C140.303 19.152 140.453 19.176 140.609 19.26C141.137 19.548 141.635 19.74 142.103 19.836C142.583 19.944 143.027 19.998 143.435 19.998C144.275 19.998 144.905 19.782 145.325 19.35C145.745 18.93 145.955 18.306 145.955 17.478V15.642H146.117C145.937 16.302 145.559 16.824 144.983 17.208C144.407 17.592 143.741 17.784 142.985 17.784C142.193 17.784 141.503 17.604 140.915 17.244C140.327 16.872 139.871 16.362 139.547 15.714C139.223 15.054 139.061 14.286 139.061 13.41C139.061 12.75 139.151 12.156 139.331 11.628C139.523 11.1 139.787 10.644 140.123 10.26C140.471 9.876 140.885 9.582 141.365 9.378C141.857 9.162 142.397 9.054 142.985 9.054C143.753 9.054 144.419 9.246 144.983 9.63C145.559 10.014 145.931 10.536 146.099 11.196L145.919 11.502V10.008C145.919 9.708 145.997 9.48 146.153 9.324C146.321 9.168 146.543 9.09 146.819 9.09C147.107 9.09 147.329 9.168 147.485 9.324C147.641 9.48 147.719 9.708 147.719 10.008V17.262C147.719 18.63 147.365 19.662 146.657 20.358C145.949 21.054 144.917 21.402 143.561 21.402ZM143.417 16.362C143.945 16.362 144.395 16.242 144.767 16.002C145.139 15.762 145.427 15.42 145.631 14.976C145.835 14.532 145.937 14.01 145.937 13.41C145.937 12.51 145.709 11.796 145.253 11.268C144.809 10.74 144.197 10.476 143.417 10.476C142.901 10.476 142.457 10.596 142.085 10.836C141.713 11.076 141.419 11.418 141.203 11.862C140.999 12.294 140.897 12.81 140.897 13.41C140.897 14.322 141.125 15.042 141.581 15.57C142.037 16.098 142.649 16.362 143.417 16.362ZM154.392 18.162C153.432 18.162 152.604 17.982 151.908 17.622C151.224 17.25 150.69 16.728 150.306 16.056C149.934 15.372 149.748 14.562 149.748 13.626C149.748 12.714 149.934 11.916 150.306 11.232C150.678 10.548 151.188 10.014 151.836 9.63C152.484 9.246 153.222 9.054 154.05 9.054C154.662 9.054 155.208 9.156 155.688 9.36C156.168 9.552 156.576 9.84 156.912 10.224C157.26 10.596 157.518 11.052 157.686 11.592C157.866 12.132 157.956 12.738 157.956 13.41C157.956 13.614 157.896 13.77 157.776 13.878C157.656 13.974 157.476 14.022 157.236 14.022H151.188V12.906H156.732L156.426 13.158C156.426 12.558 156.336 12.048 156.156 11.628C155.988 11.208 155.73 10.89 155.382 10.674C155.046 10.446 154.626 10.332 154.122 10.332C153.558 10.332 153.078 10.464 152.682 10.728C152.298 10.992 152.004 11.358 151.8 11.826C151.596 12.294 151.494 12.84 151.494 13.464V13.572C151.494 14.628 151.74 15.426 152.232 15.966C152.736 16.494 153.462 16.758 154.41 16.758C154.77 16.758 155.148 16.71 155.544 16.614C155.952 16.518 156.336 16.356 156.696 16.128C156.9 16.008 157.08 15.954 157.236 15.966C157.404 15.978 157.536 16.032 157.632 16.128C157.74 16.224 157.806 16.344 157.83 16.488C157.854 16.632 157.83 16.782 157.758 16.938C157.686 17.082 157.56 17.214 157.38 17.334C156.972 17.61 156.498 17.82 155.958 17.964C155.418 18.096 154.896 18.162 154.392 18.162ZM160.838 18.126C160.55 18.126 160.328 18.048 160.172 17.892C160.016 17.724 159.938 17.496 159.938 17.208V10.008C159.938 9.708 160.016 9.48 160.172 9.324C160.328 9.168 160.544 9.09 160.82 9.09C161.108 9.09 161.324 9.168 161.468 9.324C161.624 9.48 161.702 9.708 161.702 10.008V11.412L161.504 11.088C161.768 10.416 162.182 9.912 162.746 9.576C163.31 9.228 163.958 9.054 164.69 9.054C165.386 9.054 165.962 9.186 166.418 9.45C166.886 9.702 167.234 10.092 167.462 10.62C167.69 11.136 167.804 11.79 167.804 12.582V17.208C167.804 17.496 167.726 17.724 167.57 17.892C167.414 18.048 167.192 18.126 166.904 18.126C166.604 18.126 166.376 18.048 166.22 17.892C166.064 17.724 165.986 17.496 165.986 17.208V12.69C165.986 11.934 165.836 11.382 165.536 11.034C165.248 10.686 164.792 10.512 164.168 10.512C163.436 10.512 162.848 10.74 162.404 11.196C161.972 11.652 161.756 12.264 161.756 13.032V17.208C161.756 17.82 161.45 18.126 160.838 18.126ZM177.863 18.162C177.251 18.162 176.699 18.042 176.207 17.802C175.727 17.562 175.349 17.238 175.073 16.83C174.797 16.422 174.659 15.96 174.659 15.444C174.659 14.796 174.821 14.286 175.145 13.914C175.481 13.53 176.027 13.26 176.783 13.104C177.551 12.936 178.583 12.852 179.879 12.852H180.725V13.968H179.897C179.033 13.968 178.349 14.01 177.845 14.094C177.341 14.178 176.981 14.322 176.765 14.526C176.561 14.718 176.459 14.988 176.459 15.336C176.459 15.792 176.615 16.164 176.927 16.452C177.239 16.728 177.671 16.866 178.223 16.866C178.667 16.866 179.057 16.764 179.393 16.56C179.729 16.344 179.993 16.056 180.185 15.696C180.389 15.336 180.491 14.922 180.491 14.454V12.384C180.491 11.7 180.347 11.208 180.059 10.908C179.771 10.608 179.297 10.458 178.637 10.458C178.253 10.458 177.851 10.506 177.431 10.602C177.023 10.698 176.597 10.86 176.153 11.088C175.949 11.184 175.775 11.214 175.631 11.178C175.487 11.142 175.373 11.064 175.289 10.944C175.205 10.812 175.157 10.674 175.145 10.53C175.145 10.374 175.181 10.224 175.253 10.08C175.337 9.936 175.475 9.828 175.667 9.756C176.195 9.504 176.717 9.324 177.233 9.216C177.749 9.108 178.235 9.054 178.691 9.054C179.495 9.054 180.155 9.18 180.671 9.432C181.199 9.684 181.589 10.068 181.841 10.584C182.093 11.1 182.219 11.766 182.219 12.582V17.208C182.219 17.496 182.147 17.724 182.003 17.892C181.859 18.048 181.649 18.126 181.373 18.126C181.109 18.126 180.899 18.048 180.743 17.892C180.587 17.724 180.509 17.496 180.509 17.208V16.038H180.671C180.575 16.482 180.395 16.866 180.131 17.19C179.879 17.502 179.561 17.742 179.177 17.91C178.793 18.078 178.355 18.162 177.863 18.162ZM188.071 18.162C187.303 18.162 186.625 17.982 186.037 17.622C185.461 17.25 185.011 16.722 184.687 16.038C184.363 15.342 184.201 14.532 184.201 13.608C184.201 12.66 184.363 11.85 184.687 11.178C185.011 10.506 185.461 9.984 186.037 9.612C186.625 9.24 187.303 9.054 188.071 9.054C188.839 9.054 189.499 9.246 190.051 9.63C190.615 10.002 190.993 10.506 191.185 11.142H190.987V6.102C190.987 5.802 191.065 5.574 191.221 5.418C191.377 5.262 191.599 5.184 191.887 5.184C192.175 5.184 192.397 5.262 192.553 5.418C192.721 5.574 192.805 5.802 192.805 6.102V17.208C192.805 17.496 192.727 17.724 192.571 17.892C192.415 18.048 192.193 18.126 191.905 18.126C191.617 18.126 191.395 18.048 191.239 17.892C191.083 17.724 191.005 17.496 191.005 17.208V15.624L191.203 16.02C191.011 16.668 190.633 17.19 190.069 17.586C189.517 17.97 188.851 18.162 188.071 18.162ZM188.539 16.758C189.031 16.758 189.463 16.638 189.835 16.398C190.207 16.158 190.495 15.804 190.699 15.336C190.915 14.868 191.023 14.292 191.023 13.608C191.023 12.576 190.795 11.796 190.339 11.268C189.883 10.74 189.283 10.476 188.539 10.476C188.035 10.476 187.597 10.596 187.225 10.836C186.853 11.064 186.559 11.412 186.343 11.88C186.139 12.348 186.037 12.924 186.037 13.608C186.037 14.628 186.265 15.408 186.721 15.948C187.177 16.488 187.783 16.758 188.539 16.758ZM199.336 21.402C198.688 21.402 198.058 21.336 197.446 21.204C196.846 21.072 196.3 20.856 195.808 20.556C195.628 20.46 195.508 20.34 195.448 20.196C195.388 20.064 195.37 19.926 195.394 19.782C195.43 19.638 195.496 19.512 195.592 19.404C195.688 19.296 195.802 19.224 195.934 19.188C196.078 19.152 196.228 19.176 196.384 19.26C196.912 19.548 197.41 19.74 197.878 19.836C198.358 19.944 198.802 19.998 199.21 19.998C200.05 19.998 200.68 19.782 201.1 19.35C201.52 18.93 201.73 18.306 201.73 17.478V15.642H201.892C201.712 16.302 201.334 16.824 200.758 17.208C200.182 17.592 199.516 17.784 198.76 17.784C197.968 17.784 197.278 17.604 196.69 17.244C196.102 16.872 195.646 16.362 195.322 15.714C194.998 15.054 194.836 14.286 194.836 13.41C194.836 12.75 194.926 12.156 195.106 11.628C195.298 11.1 195.562 10.644 195.898 10.26C196.246 9.876 196.66 9.582 197.14 9.378C197.632 9.162 198.172 9.054 198.76 9.054C199.528 9.054 200.194 9.246 200.758 9.63C201.334 10.014 201.706 10.536 201.874 11.196L201.694 11.502V10.008C201.694 9.708 201.772 9.48 201.928 9.324C202.096 9.168 202.318 9.09 202.594 9.09C202.882 9.09 203.104 9.168 203.26 9.324C203.416 9.48 203.494 9.708 203.494 10.008V17.262C203.494 18.63 203.14 19.662 202.432 20.358C201.724 21.054 200.692 21.402 199.336 21.402ZM199.192 16.362C199.72 16.362 200.17 16.242 200.542 16.002C200.914 15.762 201.202 15.42 201.406 14.976C201.61 14.532 201.712 14.01 201.712 13.41C201.712 12.51 201.484 11.796 201.028 11.268C200.584 10.74 199.972 10.476 199.192 10.476C198.676 10.476 198.232 10.596 197.86 10.836C197.488 11.076 197.194 11.418 196.978 11.862C196.774 12.294 196.672 12.81 196.672 13.41C196.672 14.322 196.9 15.042 197.356 15.57C197.812 16.098 198.424 16.362 199.192 16.362ZM208.854 18.162C208.242 18.162 207.69 18.042 207.198 17.802C206.718 17.562 206.34 17.238 206.064 16.83C205.788 16.422 205.65 15.96 205.65 15.444C205.65 14.796 205.812 14.286 206.136 13.914C206.472 13.53 207.018 13.26 207.774 13.104C208.542 12.936 209.574 12.852 210.87 12.852H211.716V13.968H210.888C210.024 13.968 209.34 14.01 208.836 14.094C208.332 14.178 207.972 14.322 207.756 14.526C207.552 14.718 207.45 14.988 207.45 15.336C207.45 15.792 207.606 16.164 207.918 16.452C208.23 16.728 208.662 16.866 209.214 16.866C209.658 16.866 210.048 16.764 210.384 16.56C210.72 16.344 210.984 16.056 211.176 15.696C211.38 15.336 211.482 14.922 211.482 14.454V12.384C211.482 11.7 211.338 11.208 211.05 10.908C210.762 10.608 210.288 10.458 209.628 10.458C209.244 10.458 208.842 10.506 208.422 10.602C208.014 10.698 207.588 10.86 207.144 11.088C206.94 11.184 206.766 11.214 206.622 11.178C206.478 11.142 206.364 11.064 206.28 10.944C206.196 10.812 206.148 10.674 206.136 10.53C206.136 10.374 206.172 10.224 206.244 10.08C206.328 9.936 206.466 9.828 206.658 9.756C207.186 9.504 207.708 9.324 208.224 9.216C208.74 9.108 209.226 9.054 209.682 9.054C210.486 9.054 211.146 9.18 211.662 9.432C212.19 9.684 212.58 10.068 212.832 10.584C213.084 11.1 213.21 11.766 213.21 12.582V17.208C213.21 17.496 213.138 17.724 212.994 17.892C212.85 18.048 212.64 18.126 212.364 18.126C212.1 18.126 211.89 18.048 211.734 17.892C211.578 17.724 211.5 17.496 211.5 17.208V16.038H211.662C211.566 16.482 211.386 16.866 211.122 17.19C210.87 17.502 210.552 17.742 210.168 17.91C209.784 18.078 209.346 18.162 208.854 18.162ZM216.614 18.126C216.326 18.126 216.104 18.048 215.948 17.892C215.792 17.724 215.714 17.496 215.714 17.208V10.008C215.714 9.708 215.792 9.48 215.948 9.324C216.104 9.168 216.32 9.09 216.596 9.09C216.884 9.09 217.1 9.168 217.244 9.324C217.4 9.48 217.478 9.708 217.478 10.008V11.412L217.28 11.088C217.544 10.416 217.958 9.912 218.522 9.576C219.086 9.228 219.734 9.054 220.466 9.054C221.162 9.054 221.738 9.186 222.194 9.45C222.662 9.702 223.01 10.092 223.238 10.62C223.466 11.136 223.58 11.79 223.58 12.582V17.208C223.58 17.496 223.502 17.724 223.346 17.892C223.19 18.048 222.968 18.126 222.68 18.126C222.38 18.126 222.152 18.048 221.996 17.892C221.84 17.724 221.762 17.496 221.762 17.208V12.69C221.762 11.934 221.612 11.382 221.312 11.034C221.024 10.686 220.568 10.512 219.944 10.512C219.212 10.512 218.624 10.74 218.18 11.196C217.748 11.652 217.532 12.264 217.532 13.032V17.208C217.532 17.82 217.226 18.126 216.614 18.126ZM230.063 21.402C229.415 21.402 228.785 21.336 228.173 21.204C227.573 21.072 227.027 20.856 226.535 20.556C226.355 20.46 226.235 20.34 226.175 20.196C226.115 20.064 226.097 19.926 226.121 19.782C226.157 19.638 226.223 19.512 226.319 19.404C226.415 19.296 226.529 19.224 226.661 19.188C226.805 19.152 226.955 19.176 227.111 19.26C227.639 19.548 228.137 19.74 228.605 19.836C229.085 19.944 229.529 19.998 229.937 19.998C230.777 19.998 231.407 19.782 231.827 19.35C232.247 18.93 232.457 18.306 232.457 17.478V15.642H232.619C232.439 16.302 232.061 16.824 231.485 17.208C230.909 17.592 230.243 17.784 229.487 17.784C228.695 17.784 228.005 17.604 227.417 17.244C226.829 16.872 226.373 16.362 226.049 15.714C225.725 15.054 225.563 14.286 225.563 13.41C225.563 12.75 225.653 12.156 225.833 11.628C226.025 11.1 226.289 10.644 226.625 10.26C226.973 9.876 227.387 9.582 227.867 9.378C228.359 9.162 228.899 9.054 229.487 9.054C230.255 9.054 230.921 9.246 231.485 9.63C232.061 10.014 232.433 10.536 232.601 11.196L232.421 11.502V10.008C232.421 9.708 232.499 9.48 232.655 9.324C232.823 9.168 233.045 9.09 233.321 9.09C233.609 9.09 233.831 9.168 233.987 9.324C234.143 9.48 234.221 9.708 234.221 10.008V17.262C234.221 18.63 233.867 19.662 233.159 20.358C232.451 21.054 231.419 21.402 230.063 21.402ZM229.919 16.362C230.447 16.362 230.897 16.242 231.269 16.002C231.641 15.762 231.929 15.42 232.133 14.976C232.337 14.532 232.439 14.01 232.439 13.41C232.439 12.51 232.211 11.796 231.755 11.268C231.311 10.74 230.699 10.476 229.919 10.476C229.403 10.476 228.959 10.596 228.587 10.836C228.215 11.076 227.921 11.418 227.705 11.862C227.501 12.294 227.399 12.81 227.399 13.41C227.399 14.322 227.627 15.042 228.083 15.57C228.539 16.098 229.151 16.362 229.919 16.362ZM245.262 18.162C244.542 18.162 243.936 18.036 243.444 17.784C242.952 17.532 242.586 17.16 242.346 16.668C242.106 16.176 241.986 15.576 241.986 14.868V10.62H240.906C240.666 10.62 240.48 10.56 240.348 10.44C240.216 10.308 240.15 10.134 240.15 9.918C240.15 9.69 240.216 9.516 240.348 9.396C240.48 9.276 240.666 9.216 240.906 9.216H241.986V7.362C241.986 7.062 242.064 6.834 242.22 6.678C242.388 6.522 242.616 6.444 242.904 6.444C243.192 6.444 243.414 6.522 243.57 6.678C243.726 6.834 243.804 7.062 243.804 7.362V9.216H245.91C246.15 9.216 246.336 9.276 246.468 9.396C246.6 9.516 246.666 9.69 246.666 9.918C246.666 10.134 246.6 10.308 246.468 10.44C246.336 10.56 246.15 10.62 245.91 10.62H243.804V14.724C243.804 15.36 243.936 15.84 244.2 16.164C244.476 16.488 244.92 16.65 245.532 16.65C245.748 16.65 245.934 16.632 246.09 16.596C246.258 16.548 246.396 16.518 246.504 16.506C246.636 16.506 246.744 16.554 246.828 16.65C246.912 16.734 246.954 16.902 246.954 17.154C246.954 17.334 246.918 17.502 246.846 17.658C246.786 17.814 246.672 17.916 246.504 17.964C246.36 18.012 246.162 18.054 245.91 18.09C245.67 18.138 245.454 18.162 245.262 18.162ZM249.151 18.108C248.863 18.108 248.641 18.024 248.485 17.856C248.329 17.676 248.251 17.43 248.251 17.118V10.098C248.251 9.786 248.329 9.546 248.485 9.378C248.641 9.21 248.863 9.126 249.151 9.126C249.439 9.126 249.661 9.21 249.817 9.378C249.985 9.546 250.069 9.786 250.069 10.098V17.118C250.069 17.43 249.991 17.676 249.835 17.856C249.679 18.024 249.451 18.108 249.151 18.108ZM249.151 7.254C248.791 7.254 248.509 7.164 248.305 6.984C248.113 6.804 248.017 6.552 248.017 6.228C248.017 5.892 248.113 5.64 248.305 5.472C248.509 5.292 248.791 5.202 249.151 5.202C249.511 5.202 249.787 5.292 249.979 5.472C250.183 5.64 250.285 5.892 250.285 6.228C250.285 6.552 250.183 6.804 249.979 6.984C249.787 7.164 249.511 7.254 249.151 7.254ZM255.454 18.162C254.518 18.162 253.81 17.892 253.33 17.352C252.862 16.8 252.628 16.008 252.628 14.976V6.102C252.628 5.802 252.706 5.574 252.862 5.418C253.018 5.262 253.24 5.184 253.528 5.184C253.816 5.184 254.038 5.262 254.194 5.418C254.362 5.574 254.446 5.802 254.446 6.102V14.868C254.446 15.468 254.566 15.918 254.806 16.218C255.058 16.506 255.418 16.65 255.886 16.65C255.994 16.65 256.09 16.65 256.174 16.65C256.258 16.638 256.342 16.626 256.426 16.614C256.57 16.602 256.672 16.644 256.732 16.74C256.792 16.824 256.822 17.004 256.822 17.28C256.822 17.532 256.768 17.73 256.66 17.874C256.552 18.006 256.378 18.09 256.138 18.126C256.03 18.138 255.916 18.144 255.796 18.144C255.676 18.156 255.562 18.162 255.454 18.162ZM265.702 18.162C264.766 18.162 264.058 17.892 263.578 17.352C263.11 16.8 262.876 16.008 262.876 14.976V6.102C262.876 5.802 262.954 5.574 263.11 5.418C263.266 5.262 263.488 5.184 263.776 5.184C264.064 5.184 264.286 5.262 264.442 5.418C264.61 5.574 264.694 5.802 264.694 6.102V14.868C264.694 15.468 264.814 15.918 265.054 16.218C265.306 16.506 265.666 16.65 266.134 16.65C266.242 16.65 266.338 16.65 266.422 16.65C266.506 16.638 266.59 16.626 266.674 16.614C266.818 16.602 266.92 16.644 266.98 16.74C267.04 16.824 267.07 17.004 267.07 17.28C267.07 17.532 267.016 17.73 266.908 17.874C266.8 18.006 266.626 18.09 266.386 18.126C266.278 18.138 266.164 18.144 266.044 18.144C265.924 18.156 265.81 18.162 265.702 18.162ZM272.106 18.162C271.218 18.162 270.45 17.976 269.802 17.604C269.166 17.232 268.668 16.704 268.308 16.02C267.948 15.336 267.768 14.532 267.768 13.608C267.768 12.9 267.87 12.27 268.074 11.718C268.278 11.166 268.566 10.692 268.938 10.296C269.322 9.888 269.778 9.582 270.306 9.378C270.846 9.162 271.446 9.054 272.106 9.054C272.982 9.054 273.738 9.24 274.374 9.612C275.022 9.984 275.526 10.512 275.886 11.196C276.246 11.868 276.426 12.672 276.426 13.608C276.426 14.304 276.324 14.934 276.12 15.498C275.916 16.062 275.622 16.542 275.238 16.938C274.866 17.334 274.41 17.64 273.87 17.856C273.342 18.06 272.754 18.162 272.106 18.162ZM272.106 16.758C272.598 16.758 273.03 16.638 273.402 16.398C273.774 16.158 274.062 15.804 274.266 15.336C274.482 14.868 274.59 14.292 274.59 13.608C274.59 12.576 274.362 11.796 273.906 11.268C273.45 10.74 272.85 10.476 272.106 10.476C271.602 10.476 271.164 10.596 270.792 10.836C270.42 11.064 270.126 11.412 269.91 11.88C269.706 12.348 269.604 12.924 269.604 13.608C269.604 14.628 269.832 15.408 270.288 15.948C270.744 16.488 271.35 16.758 272.106 16.758ZM279.367 18.126C279.079 18.126 278.857 18.048 278.701 17.892C278.545 17.724 278.467 17.496 278.467 17.208V6.102C278.467 5.802 278.545 5.574 278.701 5.418C278.857 5.262 279.079 5.184 279.367 5.184C279.655 5.184 279.877 5.262 280.033 5.418C280.201 5.574 280.285 5.802 280.285 6.102V13.05H280.321L283.687 9.702C283.879 9.51 284.053 9.36 284.209 9.252C284.365 9.144 284.569 9.09 284.821 9.09C285.073 9.09 285.265 9.156 285.397 9.288C285.529 9.42 285.595 9.582 285.595 9.774C285.595 9.954 285.505 10.14 285.325 10.332L281.761 13.86V13.014L285.649 16.884C285.841 17.076 285.931 17.268 285.919 17.46C285.907 17.652 285.829 17.814 285.685 17.946C285.541 18.066 285.361 18.126 285.145 18.126C284.869 18.126 284.647 18.072 284.479 17.964C284.323 17.856 284.137 17.694 283.921 17.478L280.321 13.986H280.285V17.208C280.285 17.82 279.979 18.126 279.367 18.126ZM290.469 18.162C289.857 18.162 289.305 18.042 288.813 17.802C288.333 17.562 287.955 17.238 287.679 16.83C287.403 16.422 287.265 15.96 287.265 15.444C287.265 14.796 287.427 14.286 287.751 13.914C288.087 13.53 288.633 13.26 289.389 13.104C290.157 12.936 291.189 12.852 292.485 12.852H293.331V13.968H292.503C291.639 13.968 290.955 14.01 290.451 14.094C289.947 14.178 289.587 14.322 289.371 14.526C289.167 14.718 289.065 14.988 289.065 15.336C289.065 15.792 289.221 16.164 289.533 16.452C289.845 16.728 290.277 16.866 290.829 16.866C291.273 16.866 291.663 16.764 291.999 16.56C292.335 16.344 292.599 16.056 292.791 15.696C292.995 15.336 293.097 14.922 293.097 14.454V12.384C293.097 11.7 292.953 11.208 292.665 10.908C292.377 10.608 291.903 10.458 291.243 10.458C290.859 10.458 290.457 10.506 290.037 10.602C289.629 10.698 289.203 10.86 288.759 11.088C288.555 11.184 288.381 11.214 288.237 11.178C288.093 11.142 287.979 11.064 287.895 10.944C287.811 10.812 287.763 10.674 287.751 10.53C287.751 10.374 287.787 10.224 287.859 10.08C287.943 9.936 288.081 9.828 288.273 9.756C288.801 9.504 289.323 9.324 289.839 9.216C290.355 9.108 290.841 9.054 291.297 9.054C292.101 9.054 292.761 9.18 293.277 9.432C293.805 9.684 294.195 10.068 294.447 10.584C294.699 11.1 294.825 11.766 294.825 12.582V17.208C294.825 17.496 294.753 17.724 294.609 17.892C294.465 18.048 294.255 18.126 293.979 18.126C293.715 18.126 293.505 18.048 293.349 17.892C293.193 17.724 293.115 17.496 293.115 17.208V16.038H293.277C293.181 16.482 293.001 16.866 292.737 17.19C292.485 17.502 292.167 17.742 291.783 17.91C291.399 18.078 290.961 18.162 290.469 18.162ZM300.155 18.162C299.219 18.162 298.511 17.892 298.031 17.352C297.563 16.8 297.329 16.008 297.329 14.976V6.102C297.329 5.802 297.407 5.574 297.563 5.418C297.719 5.262 297.941 5.184 298.229 5.184C298.517 5.184 298.739 5.262 298.895 5.418C299.063 5.574 299.147 5.802 299.147 6.102V14.868C299.147 15.468 299.267 15.918 299.507 16.218C299.759 16.506 300.119 16.65 300.587 16.65C300.695 16.65 300.791 16.65 300.875 16.65C300.959 16.638 301.043 16.626 301.127 16.614C301.271 16.602 301.373 16.644 301.433 16.74C301.493 16.824 301.523 17.004 301.523 17.28C301.523 17.532 301.469 17.73 301.361 17.874C301.253 18.006 301.079 18.09 300.839 18.126C300.731 18.138 300.617 18.144 300.497 18.144C300.377 18.156 300.263 18.162 300.155 18.162ZM306.865 18.162C305.905 18.162 305.077 17.982 304.381 17.622C303.697 17.25 303.163 16.728 302.779 16.056C302.407 15.372 302.221 14.562 302.221 13.626C302.221 12.714 302.407 11.916 302.779 11.232C303.151 10.548 303.661 10.014 304.309 9.63C304.957 9.246 305.695 9.054 306.523 9.054C307.135 9.054 307.681 9.156 308.161 9.36C308.641 9.552 309.049 9.84 309.385 10.224C309.733 10.596 309.991 11.052 310.159 11.592C310.339 12.132 310.429 12.738 310.429 13.41C310.429 13.614 310.369 13.77 310.249 13.878C310.129 13.974 309.949 14.022 309.709 14.022H303.661V12.906H309.205L308.899 13.158C308.899 12.558 308.809 12.048 308.629 11.628C308.461 11.208 308.203 10.89 307.855 10.674C307.519 10.446 307.099 10.332 306.595 10.332C306.031 10.332 305.551 10.464 305.155 10.728C304.771 10.992 304.477 11.358 304.273 11.826C304.069 12.294 303.967 12.84 303.967 13.464V13.572C303.967 14.628 304.213 15.426 304.705 15.966C305.209 16.494 305.935 16.758 306.883 16.758C307.243 16.758 307.621 16.71 308.017 16.614C308.425 16.518 308.809 16.356 309.169 16.128C309.373 16.008 309.553 15.954 309.709 15.966C309.877 15.978 310.009 16.032 310.105 16.128C310.213 16.224 310.279 16.344 310.303 16.488C310.327 16.632 310.303 16.782 310.231 16.938C310.159 17.082 310.033 17.214 309.853 17.334C309.445 17.61 308.971 17.82 308.431 17.964C307.891 18.096 307.369 18.162 306.865 18.162ZM313.293 18.072C312.945 18.072 312.663 17.964 312.447 17.748C312.231 17.532 312.123 17.256 312.123 16.92C312.123 16.584 312.231 16.314 312.447 16.11C312.663 15.894 312.945 15.786 313.293 15.786C313.641 15.786 313.917 15.894 314.121 16.11C314.325 16.314 314.427 16.584 314.427 16.92C314.427 17.256 314.325 17.532 314.121 17.748C313.917 17.964 313.641 18.072 313.293 18.072ZM313.293 11.43C312.945 11.43 312.663 11.322 312.447 11.106C312.231 10.89 312.123 10.62 312.123 10.296C312.123 9.948 312.231 9.672 312.447 9.468C312.663 9.252 312.945 9.144 313.293 9.144C313.641 9.144 313.917 9.252 314.121 9.468C314.325 9.672 314.427 9.948 314.427 10.296C314.427 10.62 314.325 10.89 314.121 11.106C313.917 11.322 313.641 11.43 313.293 11.43ZM322.94 18C322.688 18 322.49 17.928 322.346 17.784C322.202 17.64 322.13 17.448 322.13 17.208C322.13 16.956 322.202 16.764 322.346 16.632C322.49 16.5 322.688 16.434 322.94 16.434H325.136V6.858H326.072L323.444 8.532C323.252 8.64 323.072 8.682 322.904 8.658C322.748 8.634 322.61 8.568 322.49 8.46C322.382 8.352 322.304 8.22 322.256 8.064C322.22 7.908 322.232 7.746 322.292 7.578C322.364 7.41 322.49 7.272 322.67 7.164L325.154 5.598C325.358 5.478 325.55 5.382 325.73 5.31C325.922 5.226 326.102 5.184 326.27 5.184C326.474 5.184 326.642 5.244 326.774 5.364C326.918 5.472 326.99 5.658 326.99 5.922V16.434H329.006C329.27 16.434 329.474 16.5 329.618 16.632C329.762 16.764 329.834 16.956 329.834 17.208C329.834 17.46 329.762 17.658 329.618 17.802C329.474 17.934 329.27 18 329.006 18H322.94ZM333.103 18.072C332.755 18.072 332.473 17.964 332.257 17.748C332.041 17.532 331.933 17.256 331.933 16.92C331.933 16.584 332.041 16.314 332.257 16.11C332.473 15.894 332.755 15.786 333.103 15.786C333.451 15.786 333.727 15.894 333.931 16.11C334.135 16.314 334.237 16.584 334.237 16.92C334.237 17.256 334.135 17.532 333.931 17.748C333.727 17.964 333.451 18.072 333.103 18.072ZM337.573 18C337.249 18 337.015 17.928 336.871 17.784C336.727 17.628 336.655 17.418 336.655 17.154C336.655 16.986 336.697 16.824 336.781 16.668C336.865 16.512 336.985 16.35 337.141 16.182L340.975 12.078C341.563 11.454 341.983 10.884 342.235 10.368C342.499 9.84 342.631 9.312 342.631 8.784C342.631 8.112 342.427 7.602 342.019 7.254C341.611 6.906 341.011 6.732 340.219 6.732C339.739 6.732 339.277 6.804 338.833 6.948C338.389 7.092 337.945 7.326 337.501 7.65C337.321 7.77 337.153 7.824 336.997 7.812C336.841 7.8 336.703 7.74 336.583 7.632C336.475 7.524 336.403 7.392 336.367 7.236C336.331 7.08 336.337 6.918 336.385 6.75C336.433 6.582 336.547 6.438 336.727 6.318C337.219 5.946 337.789 5.658 338.437 5.454C339.085 5.25 339.745 5.148 340.417 5.148C341.293 5.148 342.031 5.286 342.631 5.562C343.243 5.826 343.705 6.216 344.017 6.732C344.329 7.248 344.485 7.878 344.485 8.622C344.485 9.126 344.401 9.618 344.233 10.098C344.077 10.578 343.831 11.07 343.495 11.574C343.171 12.066 342.745 12.588 342.217 13.14L338.581 16.956V16.434H344.305C344.569 16.434 344.773 16.5 344.917 16.632C345.061 16.764 345.133 16.956 345.133 17.208C345.133 17.46 345.061 17.658 344.917 17.802C344.773 17.934 344.569 18 344.305 18H337.573ZM351.21 18.162C350.538 18.162 349.854 18.072 349.158 17.892C348.462 17.7 347.856 17.418 347.34 17.046C347.148 16.926 347.016 16.782 346.944 16.614C346.884 16.434 346.872 16.272 346.908 16.128C346.944 15.972 347.016 15.84 347.124 15.732C347.244 15.624 347.388 15.564 347.556 15.552C347.724 15.528 347.91 15.576 348.114 15.696C348.63 16.008 349.134 16.236 349.626 16.38C350.118 16.512 350.628 16.578 351.156 16.578C351.732 16.578 352.218 16.494 352.614 16.326C353.01 16.158 353.304 15.912 353.496 15.588C353.7 15.264 353.802 14.874 353.802 14.418C353.802 13.734 353.574 13.224 353.118 12.888C352.674 12.54 352.026 12.366 351.174 12.366H349.95C349.674 12.366 349.464 12.3 349.32 12.168C349.176 12.024 349.104 11.826 349.104 11.574C349.104 11.334 349.176 11.148 349.32 11.016C349.464 10.872 349.674 10.8 349.95 10.8H350.994C351.51 10.8 351.948 10.716 352.308 10.548C352.668 10.368 352.944 10.122 353.136 9.81C353.34 9.486 353.442 9.096 353.442 8.64C353.442 8.028 353.238 7.56 352.83 7.236C352.434 6.9 351.852 6.732 351.084 6.732C350.592 6.732 350.124 6.798 349.68 6.93C349.248 7.062 348.798 7.296 348.33 7.632C348.15 7.752 347.976 7.806 347.808 7.794C347.652 7.77 347.514 7.71 347.394 7.614C347.286 7.506 347.208 7.374 347.16 7.218C347.124 7.062 347.136 6.9 347.196 6.732C347.256 6.564 347.376 6.42 347.556 6.3C348.06 5.928 348.63 5.646 349.266 5.454C349.902 5.25 350.556 5.148 351.228 5.148C352.068 5.148 352.788 5.28 353.388 5.544C354 5.808 354.462 6.186 354.774 6.678C355.098 7.17 355.26 7.758 355.26 8.442C355.26 8.958 355.164 9.426 354.972 9.846C354.78 10.266 354.504 10.626 354.144 10.926C353.796 11.214 353.37 11.418 352.866 11.538V11.34C353.742 11.484 354.42 11.844 354.9 12.42C355.38 12.984 355.62 13.692 355.62 14.544C355.62 15.288 355.44 15.936 355.08 16.488C354.732 17.028 354.228 17.442 353.568 17.73C352.908 18.018 352.122 18.162 351.21 18.162Z" fill="white"/>
</g>
<defs>
<filter id="filter0_d_264_759" x="7.5658" y="23.888" width="345.64" height="25.514" filterUnits="userSpaceOnUse" color-interpolation-filters="sRGB">
<feFlood flood-opacity="0" result="BackgroundImageFix"/>
<feColorMatrix in="SourceAlpha" type="matrix" values="0 0 0 0 0 0 0 0 0 0 0 0 0 0 0 0 0 0 127 0" result="hardAlpha"/>
<feOffset dy="4"/>
<feGaussianBlur stdDeviation="2"/>
<feComposite in2="hardAlpha" operator="out"/>
<feColorMatrix type="matrix" values="0 0 0 0 0 0 0 0 0 0 0 0 0 0 0 0 0 0 0.25 0"/>
<feBlend mode="normal" in2="BackgroundImageFix" result="effect1_dropShadow_264_759"/>
<feBlend mode="normal" in="SourceGraphic" in2="effect1_dropShadow_264_759" result="shape"/>
</filter>
<filter id="filter1_d_264_759" x="0.675171" y="5.14801" width="358.945" height="24.254" filterUnits="userSpaceOnUse" color-interpolation-filters="sRGB">
<feFlood flood-opacity="0" result="BackgroundImageFix"/>
<feColorMatrix in="SourceAlpha" type="matrix" values="0 0 0 0 0 0 0 0 0 0 0 0 0 0 0 0 0 0 127 0" result="hardAlpha"/>
<feOffset dy="4"/>
<feGaussianBlur stdDeviation="2"/>
<feComposite in2="hardAlpha" operator="out"/>
<feColorMatrix type="matrix" values="0 0 0 0 0 0 0 0 0 0 0 0 0 0 0 0 0 0 0.25 0"/>
<feBlend mode="normal" in2="BackgroundImageFix" result="effect1_dropShadow_264_759"/>
<feBlend mode="normal" in="SourceGraphic" in2="effect1_dropShadow_264_759" result="shape"/>
</filter>
</defs>
</svg>
