<svg width="33" height="33" viewBox="0 0 33 33" fill="none" xmlns="http://www.w3.org/2000/svg">
<g filter="url(#filter0_d_136_772)">
<path fill-rule="evenodd" clip-rule="evenodd" d="M5.5625 12.5C5.5625 15.4008 6.71484 18.1828 8.76602 20.234C10.8172 22.2852 13.5992 23.4375 16.5 23.4375C19.4008 23.4375 22.1828 22.2852 24.234 20.234C26.2852 18.1828 27.4375 15.4008 27.4375 12.5C27.4375 9.59919 26.2852 6.8172 24.234 4.76602C22.1828 2.71484 19.4008 1.5625 16.5 1.5625C13.5992 1.5625 10.8172 2.71484 8.76602 4.76602C6.71484 6.8172 5.5625 9.59919 5.5625 12.5ZM29 12.5C29 15.8152 27.683 18.9946 25.3388 21.3388C22.9946 23.683 19.8152 25 16.5 25C13.1848 25 10.0054 23.683 7.66117 21.3388C5.31696 18.9946 4 15.8152 4 12.5C4 9.18479 5.31696 6.00537 7.66117 3.66117C10.0054 1.31696 13.1848 0 16.5 0C19.8152 0 22.9946 1.31696 25.3388 3.66117C27.683 6.00537 29 9.18479 29 12.5ZM21.9688 11.7188C22.176 11.7188 22.3747 11.8011 22.5212 11.9476C22.6677 12.0941 22.75 12.2928 22.75 12.5C22.75 12.7072 22.6677 12.9059 22.5212 13.0524C22.3747 13.1989 22.176 13.2812 21.9688 13.2812H12.9172L16.2719 16.6344C16.3445 16.707 16.4021 16.7932 16.4414 16.8882C16.4808 16.9831 16.501 17.0848 16.501 17.1875C16.501 17.2902 16.4808 17.3919 16.4414 17.4868C16.4021 17.5818 16.3445 17.668 16.2719 17.7406C16.1992 17.8133 16.113 17.8709 16.0181 17.9102C15.9232 17.9495 15.8215 17.9697 15.7188 17.9697C15.616 17.9697 15.5143 17.9495 15.4194 17.9102C15.3245 17.8709 15.2383 17.8133 15.1656 17.7406L10.4781 13.0531C10.4054 12.9806 10.3476 12.8943 10.3083 12.7994C10.2689 12.7045 10.2486 12.6028 10.2486 12.5C10.2486 12.3972 10.2689 12.2955 10.3083 12.2006C10.3476 12.1057 10.4054 12.0194 10.4781 11.9469L15.1656 7.25937C15.3123 7.11268 15.5113 7.03026 15.7188 7.03026C15.9262 7.03026 16.1252 7.11268 16.2719 7.25937C16.4186 7.40607 16.501 7.60504 16.501 7.8125C16.501 8.01996 16.4186 8.21893 16.2719 8.36563L12.9172 11.7188H21.9688Z" fill="white"/>
</g>
<defs>
<filter id="filter0_d_136_772" x="0" y="0" width="33" height="33" filterUnits="userSpaceOnUse" color-interpolation-filters="sRGB">
<feFlood flood-opacity="0" result="BackgroundImageFix"/>
<feColorMatrix in="SourceAlpha" type="matrix" values="0 0 0 0 0 0 0 0 0 0 0 0 0 0 0 0 0 0 127 0" result="hardAlpha"/>
<feOffset dy="4"/>
<feGaussianBlur stdDeviation="2"/>
<feComposite in2="hardAlpha" operator="out"/>
<feColorMatrix type="matrix" values="0 0 0 0 0 0 0 0 0 0 0 0 0 0 0 0 0 0 0.25 0"/>
<feBlend mode="normal" in2="BackgroundImageFix" result="effect1_dropShadow_136_772"/>
<feBlend mode="normal" in="SourceGraphic" in2="effect1_dropShadow_136_772" result="shape"/>
</filter>
</defs>
</svg>
