<svg width="100" height="28" viewBox="0 0 100 28" fill="none" xmlns="http://www.w3.org/2000/svg">
<rect width="100" height="28" rx="10" fill="#03266A"/>
<path d="M23.2666 8.33594V19H20.8789V8.33594H23.2666ZM27.4634 12.833V14.6787H22.6001V12.833H27.4634ZM27.9321 8.33594V10.189H22.6001V8.33594H27.9321ZM32.2142 11.0752V19H29.9217V11.0752H32.2142ZM29.7825 9.02441C29.7825 8.69238 29.8997 8.42139 30.1341 8.21143C30.3685 7.99658 30.6761 7.88916 31.0569 7.88916C31.4378 7.88916 31.7454 7.99658 31.9798 8.21143C32.219 8.42139 32.3387 8.69238 32.3387 9.02441C32.3387 9.35156 32.219 9.62256 31.9798 9.8374C31.7454 10.0474 31.4378 10.1523 31.0569 10.1523C30.6761 10.1523 30.3685 10.0474 30.1341 9.8374C29.8997 9.62256 29.7825 9.35156 29.7825 9.02441ZM37.0968 7.75V19H34.8043V7.75H37.0968ZM43.598 11.0752V12.6792H38.8959V11.0752H43.598ZM39.9726 9.1123H42.265V16.5171C42.265 16.7368 42.2919 16.9053 42.3456 17.0225C42.3993 17.1396 42.4872 17.2227 42.6093 17.2715C42.7313 17.3154 42.8876 17.3374 43.078 17.3374C43.2147 17.3374 43.3319 17.3325 43.4296 17.3228C43.5272 17.313 43.6176 17.3008 43.7006 17.2861V18.9414C43.5053 19.0049 43.2978 19.0537 43.078 19.0879C42.8583 19.127 42.619 19.1465 42.3603 19.1465C41.8671 19.1465 41.4398 19.0659 41.0785 18.9048C40.7221 18.7437 40.4486 18.4897 40.2582 18.1431C40.0678 17.7915 39.9726 17.335 39.9726 16.7734V9.1123ZM49.257 19.1465C48.6271 19.1465 48.0632 19.0464 47.5651 18.8462C47.0671 18.646 46.6447 18.3701 46.298 18.0186C45.9562 17.6621 45.695 17.252 45.5144 16.7881C45.3337 16.3242 45.2434 15.8286 45.2434 15.3013V15.0229C45.2434 14.4321 45.3264 13.8877 45.4924 13.3896C45.6584 12.8916 45.9001 12.4595 46.2175 12.0933C46.5397 11.7222 46.9353 11.4365 47.404 11.2363C47.8728 11.0312 48.4074 10.9287 49.008 10.9287C49.5695 10.9287 50.07 11.0215 50.5095 11.207C50.9489 11.3877 51.32 11.6489 51.6228 11.9907C51.9255 12.3276 52.155 12.7354 52.3112 13.2139C52.4724 13.6875 52.5529 14.2197 52.5529 14.8105V15.748H46.1662V14.2759H50.3117V14.1001C50.3117 13.8218 50.2604 13.5776 50.1579 13.3677C50.0603 13.1577 49.9138 12.9966 49.7185 12.8843C49.528 12.7671 49.2863 12.7085 48.9934 12.7085C48.715 12.7085 48.4831 12.7671 48.2976 12.8843C48.112 13.0015 47.9631 13.1675 47.8508 13.3823C47.7434 13.5923 47.6652 13.8389 47.6164 14.1221C47.5676 14.4004 47.5432 14.7007 47.5432 15.0229V15.3013C47.5432 15.6089 47.5847 15.8896 47.6677 16.1436C47.7507 16.3975 47.8728 16.6147 48.0339 16.7954C48.195 16.9761 48.3903 17.1177 48.6198 17.2202C48.8493 17.3228 49.1105 17.374 49.4035 17.374C49.7648 17.374 50.1091 17.3057 50.4362 17.1689C50.7634 17.0273 51.0466 16.8076 51.2858 16.5098L52.3552 17.7329C52.194 17.9673 51.967 18.1943 51.674 18.4141C51.3859 18.6289 51.0393 18.8047 50.634 18.9414C50.2287 19.0781 49.7697 19.1465 49.257 19.1465ZM56.7837 12.9209V19H54.4985V11.0752H56.6445L56.7837 12.9209ZM59.1494 11.0166L59.1128 13.1479C59.0151 13.1333 58.8882 13.1211 58.7319 13.1113C58.5757 13.0967 58.4414 13.0894 58.3291 13.0894C58.0361 13.0894 57.7822 13.126 57.5674 13.1992C57.3574 13.2676 57.1816 13.3701 57.04 13.5068C56.9033 13.6436 56.8008 13.8145 56.7324 14.0195C56.6641 14.2197 56.6299 14.4517 56.6299 14.7153L56.1978 14.5029C56.1978 13.9805 56.249 13.502 56.3516 13.0674C56.4541 12.6328 56.603 12.2568 56.7983 11.9395C56.9937 11.6172 57.2329 11.3682 57.5161 11.1924C57.7993 11.0166 58.1216 10.9287 58.4829 10.9287C58.6001 10.9287 58.7197 10.936 58.8418 10.9507C58.9639 10.9653 59.0664 10.9873 59.1494 11.0166Z" fill="white"/>
<path d="M79.5002 6.5H66.1668C65.9458 6.5 65.7339 6.5878 65.5776 6.74408C65.4213 6.90036 65.3335 7.11232 65.3335 7.33333V9.49167C65.3335 9.9275 65.511 10.3558 65.8193 10.6642L70.3335 15.1783V21.5C70.3337 21.642 70.3701 21.7816 70.4392 21.9055C70.5084 22.0295 70.6081 22.1338 70.7289 22.2085C70.8496 22.2832 70.9874 22.3258 71.1292 22.3323C71.2711 22.3389 71.4122 22.3091 71.5393 22.2458L74.8727 20.5792C75.1552 20.4375 75.3335 20.1492 75.3335 19.8333V15.1783L79.8477 10.6642C80.156 10.3558 80.3335 9.9275 80.3335 9.49167V7.33333C80.3335 7.11232 80.2457 6.90036 80.0894 6.74408C79.9331 6.5878 79.7212 6.5 79.5002 6.5V6.5ZM73.911 14.2442C73.8335 14.3214 73.772 14.4132 73.7301 14.5144C73.6882 14.6155 73.6667 14.7239 73.6668 14.8333V19.3183L72.0002 20.1517V14.8333C72.0003 14.7239 71.9788 14.6155 71.9369 14.5144C71.895 14.4132 71.8335 14.3214 71.756 14.2442L67.0002 9.49167V8.16667H78.6677L78.6693 9.48583L73.911 14.2442V14.2442Z" fill="#FFFEFE"/>
</svg>
