<svg width="217" height="31" viewBox="0 0 217 31" fill="none" xmlns="http://www.w3.org/2000/svg">
<g filter="url(#filter0_d_238_819)">
<rect x="4" y="1" width="209" height="22" rx="10" fill="#FCFDFF"/>
<path d="M16.1348 13.9316C16.1348 13.6777 16.0918 13.4512 16.0059 13.252C15.9199 13.0488 15.7773 12.8691 15.5781 12.7129C15.3828 12.5527 15.125 12.4043 14.8047 12.2676C14.4844 12.1309 14.0898 11.998 13.6211 11.8691C13.1914 11.752 12.8027 11.625 12.4551 11.4883C12.1113 11.3477 11.8164 11.1875 11.5703 11.0078C11.3281 10.8281 11.1426 10.6152 11.0137 10.3691C10.8848 10.1191 10.8203 9.82422 10.8203 9.48438C10.8203 9.15625 10.8906 8.86133 11.0312 8.59961C11.1719 8.33789 11.3691 8.11523 11.623 7.93164C11.8809 7.74414 12.1816 7.60156 12.5254 7.50391C12.873 7.40234 13.252 7.35156 13.6621 7.35156C14.2363 7.35156 14.7383 7.46094 15.168 7.67969C15.5977 7.89453 15.9336 8.19336 16.1758 8.57617C16.418 8.95508 16.5391 9.39062 16.5391 9.88281H16.0645C16.0645 9.48047 15.9648 9.12109 15.7656 8.80469C15.5703 8.48828 15.293 8.24023 14.9336 8.06055C14.5781 7.87695 14.1543 7.78516 13.6621 7.78516C13.1543 7.78516 12.7227 7.86328 12.3672 8.01953C12.0156 8.17578 11.748 8.38281 11.5645 8.64062C11.3848 8.89453 11.2949 9.17188 11.2949 9.47266C11.2949 9.6875 11.334 9.88867 11.4121 10.0762C11.4941 10.2637 11.627 10.4355 11.8105 10.5918C11.998 10.748 12.25 10.8965 12.5664 11.0371C12.8867 11.1738 13.2852 11.3066 13.7617 11.4355C14.1992 11.5488 14.5918 11.6777 14.9395 11.8223C15.291 11.9629 15.5918 12.1289 15.8418 12.3203C16.0918 12.5117 16.2832 12.7383 16.416 13C16.5488 13.2617 16.6152 13.5684 16.6152 13.9199C16.6152 14.2676 16.541 14.5781 16.3926 14.8516C16.2441 15.1211 16.0371 15.3516 15.7715 15.543C15.5098 15.7305 15.2012 15.873 14.8457 15.9707C14.4941 16.0684 14.1152 16.1172 13.709 16.1172C13.3379 16.1172 12.9648 16.0723 12.5898 15.9824C12.2188 15.8926 11.8789 15.748 11.5703 15.5488C11.2617 15.3496 11.0137 15.0879 10.8262 14.7637C10.6387 14.4395 10.5449 14.0449 10.5449 13.5801H11.0195C11.0195 13.9785 11.1016 14.3145 11.2656 14.5879C11.4297 14.8574 11.6445 15.0723 11.9102 15.2324C12.1758 15.3926 12.4648 15.5078 12.7773 15.5781C13.0938 15.6484 13.4043 15.6836 13.709 15.6836C14.1855 15.6836 14.6055 15.6113 14.9688 15.4668C15.3359 15.3184 15.6211 15.1133 15.8242 14.8516C16.0312 14.5859 16.1348 14.2793 16.1348 13.9316ZM23.2752 8.86914L19.3905 16.8379H18.951L22.8358 8.86914H23.2752ZM18.2772 12.9414V12.7188C18.2772 12.2539 18.3436 11.8281 18.4764 11.4414C18.6131 11.0547 18.8026 10.7207 19.0448 10.4395C19.2909 10.1543 19.5858 9.93359 19.9295 9.77734C20.2733 9.62109 20.6522 9.54297 21.0662 9.54297C21.4881 9.54297 21.8709 9.62109 22.2147 9.77734C22.5584 9.93359 22.8534 10.1543 23.0995 10.4395C23.3455 10.7207 23.535 11.0547 23.6678 11.4414C23.8006 11.8281 23.867 12.2539 23.867 12.7188V12.9414C23.867 13.4062 23.8006 13.832 23.6678 14.2188C23.535 14.6055 23.3455 14.9414 23.0995 15.2266C22.8573 15.5078 22.5643 15.7266 22.2205 15.8828C21.8768 16.0391 21.4959 16.1172 21.078 16.1172C20.66 16.1172 20.2791 16.0391 19.9354 15.8828C19.5916 15.7266 19.2967 15.5078 19.0506 15.2266C18.8045 14.9414 18.6131 14.6055 18.4764 14.2188C18.3436 13.832 18.2772 13.4062 18.2772 12.9414ZM18.7401 12.7188V12.9414C18.7401 13.3086 18.7928 13.6582 18.8983 13.9902C19.0037 14.3184 19.1561 14.6113 19.3553 14.8691C19.5545 15.123 19.7987 15.3242 20.0877 15.4727C20.3768 15.6172 20.7069 15.6895 21.078 15.6895C21.4491 15.6895 21.7772 15.6172 22.0623 15.4727C22.3514 15.3242 22.5955 15.123 22.7948 14.8691C22.994 14.6113 23.1444 14.3184 23.2459 13.9902C23.3514 13.6582 23.4041 13.3086 23.4041 12.9414V12.7188C23.4041 12.3594 23.3514 12.0156 23.2459 11.6875C23.1444 11.3594 22.992 11.0664 22.7889 10.8086C22.5897 10.5508 22.3455 10.3477 22.0565 10.1992C21.7674 10.0469 21.4373 9.9707 21.0662 9.9707C20.6991 9.9707 20.3709 10.0469 20.0819 10.1992C19.7967 10.3477 19.5526 10.5508 19.3495 10.8086C19.1502 11.0664 18.9979 11.3594 18.8924 11.6875C18.7909 12.0156 18.7401 12.3594 18.7401 12.7188ZM30.2282 9.66016H30.6794V15.9004C30.6794 16.4434 30.5798 16.9121 30.3805 17.3066C30.1813 17.7051 29.8981 18.0098 29.5309 18.2207C29.1677 18.4355 28.7321 18.543 28.2243 18.543C27.9352 18.543 27.6579 18.5 27.3923 18.4141C27.1305 18.3281 26.8884 18.2031 26.6657 18.0391C26.447 17.8789 26.2575 17.6895 26.0973 17.4707L26.3845 17.1777C26.6345 17.4863 26.9059 17.7207 27.1989 17.8809C27.4958 18.041 27.8298 18.1211 28.2009 18.1211C28.6384 18.1211 29.0055 18.0312 29.3024 17.8516C29.5993 17.6719 29.8239 17.416 29.9762 17.084C30.1286 16.7559 30.2048 16.3652 30.2048 15.9121V11.0547L30.2282 9.66016ZM25.7223 12.8887V12.7656C25.7223 12.2695 25.777 11.8242 25.8864 11.4297C25.9958 11.0312 26.154 10.6934 26.361 10.416C26.568 10.1348 26.82 9.91992 27.1169 9.77148C27.4177 9.61914 27.7575 9.54297 28.1364 9.54297C28.4919 9.54297 28.8063 9.59961 29.0798 9.71289C29.3571 9.82227 29.5973 9.98047 29.8005 10.1875C30.0075 10.3906 30.1755 10.6309 30.3044 10.9082C30.4372 11.1816 30.5368 11.4844 30.6032 11.8164V14.002C30.5524 14.2949 30.4645 14.5703 30.3395 14.8281C30.2145 15.082 30.0485 15.3066 29.8415 15.502C29.6345 15.6934 29.3884 15.8438 29.1032 15.9531C28.818 16.0625 28.4919 16.1172 28.1247 16.1172C27.7497 16.1172 27.4137 16.0391 27.1169 15.8828C26.82 15.7266 26.568 15.5059 26.361 15.2207C26.154 14.9355 25.9958 14.5957 25.8864 14.2012C25.777 13.8066 25.7223 13.3691 25.7223 12.8887ZM26.197 12.7656V12.8887C26.197 13.291 26.236 13.6621 26.3141 14.002C26.3962 14.3418 26.5173 14.6367 26.6774 14.8867C26.8415 15.1367 27.0485 15.332 27.2985 15.4727C27.5485 15.6133 27.8395 15.6836 28.1716 15.6836C28.6012 15.6836 28.9626 15.6055 29.2555 15.4492C29.5485 15.293 29.7829 15.0859 29.9587 14.8281C30.1345 14.5703 30.2575 14.2852 30.3278 13.9727V11.9043C30.2848 11.7051 30.2184 11.4941 30.1286 11.2715C30.0387 11.0449 29.9118 10.834 29.7477 10.6387C29.5876 10.4434 29.3805 10.2852 29.1266 10.1641C28.8727 10.0391 28.5583 9.97656 28.1833 9.97656C27.8473 9.97656 27.5524 10.0469 27.2985 10.1875C27.0485 10.3281 26.8415 10.5234 26.6774 10.7734C26.5173 11.0234 26.3962 11.3184 26.3141 11.6582C26.236 11.998 26.197 12.3672 26.197 12.7656ZM33.1675 15.6543C33.1675 15.5488 33.2046 15.459 33.2788 15.3848C33.353 15.3066 33.4468 15.2676 33.5601 15.2676C33.6773 15.2676 33.773 15.3047 33.8472 15.3789C33.9214 15.4531 33.9585 15.5449 33.9585 15.6543C33.9585 15.7637 33.9214 15.8555 33.8472 15.9297C33.773 16.0039 33.6773 16.041 33.5601 16.041C33.4468 16.041 33.353 16.0039 33.2788 15.9297C33.2046 15.8555 33.1675 15.7637 33.1675 15.6543ZM36.5228 15.6543C36.5228 15.5488 36.5599 15.459 36.6341 15.3848C36.7084 15.3066 36.8021 15.2676 36.9154 15.2676C37.0326 15.2676 37.1283 15.3047 37.2025 15.3789C37.2767 15.4531 37.3138 15.5449 37.3138 15.6543C37.3138 15.7637 37.2767 15.8555 37.2025 15.9297C37.1283 16.0039 37.0326 16.041 36.9154 16.041C36.8021 16.041 36.7084 16.0039 36.6341 15.9297C36.5599 15.8555 36.5228 15.7637 36.5228 15.6543ZM39.8781 15.6543C39.8781 15.5488 39.9152 15.459 39.9895 15.3848C40.0637 15.3066 40.1574 15.2676 40.2707 15.2676C40.3879 15.2676 40.4836 15.3047 40.5578 15.3789C40.632 15.4531 40.6691 15.5449 40.6691 15.6543C40.6691 15.7637 40.632 15.8555 40.5578 15.9297C40.4836 16.0039 40.3879 16.041 40.2707 16.041C40.1574 16.041 40.0637 16.0039 39.9895 15.9297C39.9152 15.8555 39.8781 15.7637 39.8781 15.6543ZM43.2334 15.6543C43.2334 15.5488 43.2705 15.459 43.3448 15.3848C43.419 15.3066 43.5127 15.2676 43.626 15.2676C43.7432 15.2676 43.8389 15.3047 43.9131 15.3789C43.9873 15.4531 44.0245 15.5449 44.0245 15.6543C44.0245 15.7637 43.9873 15.8555 43.9131 15.9297C43.8389 16.0039 43.7432 16.041 43.626 16.041C43.5127 16.041 43.419 16.0039 43.3448 15.9297C43.2705 15.8555 43.2334 15.7637 43.2334 15.6543ZM46.5887 15.6543C46.5887 15.5488 46.6259 15.459 46.7001 15.3848C46.7743 15.3066 46.868 15.2676 46.9813 15.2676C47.0985 15.2676 47.1942 15.3047 47.2684 15.3789C47.3427 15.4531 47.3798 15.5449 47.3798 15.6543C47.3798 15.7637 47.3427 15.8555 47.2684 15.9297C47.1942 16.0039 47.0985 16.041 46.9813 16.041C46.868 16.041 46.7743 16.0039 46.7001 15.9297C46.6259 15.8555 46.5887 15.7637 46.5887 15.6543ZM49.9441 15.6543C49.9441 15.5488 49.9812 15.459 50.0554 15.3848C50.1296 15.3066 50.2234 15.2676 50.3366 15.2676C50.4538 15.2676 50.5495 15.3047 50.6237 15.3789C50.698 15.4531 50.7351 15.5449 50.7351 15.6543C50.7351 15.7637 50.698 15.8555 50.6237 15.9297C50.5495 16.0039 50.4538 16.041 50.3366 16.041C50.2234 16.041 50.1296 16.0039 50.0554 15.9297C49.9812 15.8555 49.9441 15.7637 49.9441 15.6543ZM53.2994 15.6543C53.2994 15.5488 53.3365 15.459 53.4107 15.3848C53.4849 15.3066 53.5787 15.2676 53.692 15.2676C53.8091 15.2676 53.9048 15.3047 53.9791 15.3789C54.0533 15.4531 54.0904 15.5449 54.0904 15.6543C54.0904 15.7637 54.0533 15.8555 53.9791 15.9297C53.9048 16.0039 53.8091 16.041 53.692 16.041C53.5787 16.041 53.4849 16.0039 53.4107 15.9297C53.3365 15.8555 53.2994 15.7637 53.2994 15.6543ZM56.6547 15.6543C56.6547 15.5488 56.6918 15.459 56.766 15.3848C56.8402 15.3066 56.934 15.2676 57.0473 15.2676C57.1645 15.2676 57.2602 15.3047 57.3344 15.3789C57.4086 15.4531 57.4457 15.5449 57.4457 15.6543C57.4457 15.7637 57.4086 15.8555 57.3344 15.9297C57.2602 16.0039 57.1645 16.041 57.0473 16.041C56.934 16.041 56.8402 16.0039 56.766 15.9297C56.6918 15.8555 56.6547 15.7637 56.6547 15.6543ZM60.01 15.6543C60.01 15.5488 60.0471 15.459 60.1213 15.3848C60.1955 15.3066 60.2893 15.2676 60.4026 15.2676C60.5198 15.2676 60.6155 15.3047 60.6897 15.3789C60.7639 15.4531 60.801 15.5449 60.801 15.6543C60.801 15.7637 60.7639 15.8555 60.6897 15.9297C60.6155 16.0039 60.5198 16.041 60.4026 16.041C60.2893 16.041 60.1955 16.0039 60.1213 15.9297C60.0471 15.8555 60.01 15.7637 60.01 15.6543Z" fill="black"/>
<path d="M198.58 16.56C195.268 16.56 192.6 13.892 192.6 10.58C192.6 7.26798 195.268 4.59998 198.58 4.59998C201.892 4.59998 204.56 7.26798 204.56 10.58C204.56 13.892 201.892 16.56 198.58 16.56ZM198.58 5.51998C195.774 5.51998 193.52 7.77398 193.52 10.58C193.52 13.386 195.774 15.64 198.58 15.64C201.386 15.64 203.64 13.386 203.64 10.58C203.64 7.77398 201.386 5.51998 198.58 5.51998Z" fill="black"/>
<path d="M203.034 14.3828L207.165 18.5136L206.514 19.1641L202.383 15.0333L203.034 14.3828Z" fill="black"/>
</g>
<defs>
<filter id="filter0_d_238_819" x="0" y="0" width="217" height="31" filterUnits="userSpaceOnUse" color-interpolation-filters="sRGB">
<feFlood flood-opacity="0" result="BackgroundImageFix"/>
<feColorMatrix in="SourceAlpha" type="matrix" values="0 0 0 0 0 0 0 0 0 0 0 0 0 0 0 0 0 0 127 0" result="hardAlpha"/>
<feOffset dy="4"/>
<feGaussianBlur stdDeviation="2"/>
<feComposite in2="hardAlpha" operator="out"/>
<feColorMatrix type="matrix" values="0 0 0 0 0 0 0 0 0 0 0 0 0 0 0 0 0 0 0.25 0"/>
<feBlend mode="normal" in2="BackgroundImageFix" result="effect1_dropShadow_238_819"/>
<feBlend mode="normal" in="SourceGraphic" in2="effect1_dropShadow_238_819" result="shape"/>
</filter>
</defs>
</svg>
