<svg width="194" height="26" viewBox="0 0 194 26" fill="none" xmlns="http://www.w3.org/2000/svg">
<path d="M6.46 20.22C5.60667 20.22 4.75333 20.1267 3.9 19.94C3.04667 19.7533 2.30667 19.48 1.68 19.12C1.30667 18.92 1.07333 18.6533 0.98 18.32C0.886667 17.9733 0.906667 17.64 1.04 17.32C1.17333 17 1.38667 16.7733 1.68 16.64C1.97333 16.5067 2.32667 16.54 2.74 16.74C3.27333 17.0467 3.86667 17.2733 4.52 17.42C5.17333 17.5667 5.82 17.64 6.46 17.64C7.42 17.64 8.10667 17.4933 8.52 17.2C8.94667 16.8933 9.16 16.5133 9.16 16.06C9.16 15.6733 9.01333 15.3667 8.72 15.14C8.42667 14.9133 7.91333 14.72 7.18 14.56L4.92 14.08C2.4 13.5467 1.14 12.24 1.14 10.16C1.14 9.26667 1.38 8.48667 1.86 7.82C2.34 7.14 3.00667 6.61333 3.86 6.24C4.72667 5.86667 5.72667 5.68 6.86 5.68C7.60667 5.68 8.34 5.77333 9.06 5.96C9.78 6.13333 10.4133 6.39333 10.96 6.74C11.2933 6.94 11.5 7.2 11.58 7.52C11.66 7.84 11.6333 8.14667 11.5 8.44C11.38 8.73333 11.1667 8.94 10.86 9.06C10.5667 9.18 10.2 9.13333 9.76 8.92C9.32 8.69333 8.85333 8.52667 8.36 8.42C7.86667 8.31333 7.36 8.26 6.84 8.26C6 8.26 5.34667 8.42667 4.88 8.76C4.42667 9.08 4.2 9.5 4.2 10.02C4.2 10.4067 4.34 10.72 4.62 10.96C4.9 11.2 5.38667 11.3933 6.08 11.54L8.34 12.02C10.9267 12.58 12.22 13.8467 12.22 15.82C12.22 16.7 11.98 17.4733 11.5 18.14C11.0333 18.7933 10.3667 19.3067 9.5 19.68C8.64667 20.04 7.63333 20.22 6.46 20.22ZM19.7558 20.22C16.9958 20.22 15.6158 18.88 15.6158 16.2V12.44H14.7758C13.9891 12.44 13.5958 12.0667 13.5958 11.32C13.5958 10.56 13.9891 10.18 14.7758 10.18H15.6158V8.66C15.6158 7.63333 16.1224 7.12 17.1358 7.12C18.1358 7.12 18.6358 7.63333 18.6358 8.66V10.18H20.5358C21.3091 10.18 21.6958 10.56 21.6958 11.32C21.6958 12.0667 21.3091 12.44 20.5358 12.44H18.6358V16.08C18.6358 16.64 18.7624 17.06 19.0158 17.34C19.2824 17.62 19.7024 17.76 20.2758 17.76C20.4758 17.76 20.6624 17.74 20.8358 17.7C21.0091 17.66 21.1691 17.6333 21.3158 17.62C21.5024 17.6067 21.6558 17.6667 21.7758 17.8C21.8958 17.9333 21.9558 18.2067 21.9558 18.62C21.9558 18.9533 21.9024 19.24 21.7958 19.48C21.6891 19.7067 21.5024 19.8733 21.2358 19.98C21.0624 20.0467 20.8224 20.1 20.5158 20.14C20.2224 20.1933 19.9691 20.22 19.7558 20.22ZM27.7417 20.22C26.4884 20.22 25.5617 19.8733 24.9617 19.18C24.3751 18.4867 24.0817 17.4467 24.0817 16.06V11.54C24.0817 10.5267 24.5817 10.02 25.5817 10.02C26.5951 10.02 27.1017 10.5267 27.1017 11.54V16.14C27.1017 17.3 27.6017 17.88 28.6017 17.88C29.1751 17.88 29.6417 17.68 30.0017 17.28C30.3751 16.8667 30.5617 16.3267 30.5617 15.66V11.54C30.5617 10.5267 31.0617 10.02 32.0617 10.02C33.0751 10.02 33.5817 10.5267 33.5817 11.54V18.64C33.5817 19.6667 33.0951 20.18 32.1217 20.18C31.6417 20.18 31.2751 20.0467 31.0217 19.78C30.7684 19.5133 30.6417 19.14 30.6417 18.66C29.9884 19.7 29.0217 20.22 27.7417 20.22ZM40.8386 20.22C39.9853 20.22 39.2319 20.0133 38.5786 19.6C37.9386 19.1733 37.4386 18.58 37.0786 17.82C36.7186 17.0467 36.5386 16.1333 36.5386 15.08C36.5386 14.0267 36.7186 13.12 37.0786 12.36C37.4386 11.6 37.9386 11.0133 38.5786 10.6C39.2319 10.1867 39.9853 9.98 40.8386 9.98C41.4919 9.98 42.0919 10.12 42.6386 10.4C43.1853 10.68 43.5986 11.0533 43.8786 11.52V7.26C43.8786 6.23333 44.3786 5.72 45.3786 5.72C46.3919 5.72 46.8986 6.23333 46.8986 7.26V18.64C46.8986 19.6667 46.3986 20.18 45.3986 20.18C44.3986 20.18 43.8986 19.6667 43.8986 18.64V18.58C43.6319 19.0867 43.2186 19.4867 42.6586 19.78C42.1119 20.0733 41.5053 20.22 40.8386 20.22ZM41.7386 17.96C42.3786 17.96 42.8986 17.7267 43.2986 17.26C43.7119 16.7933 43.9186 16.0667 43.9186 15.08C43.9186 14.1067 43.7119 13.3933 43.2986 12.94C42.8986 12.4733 42.3786 12.24 41.7386 12.24C41.0986 12.24 40.5786 12.4733 40.1786 12.94C39.7786 13.3933 39.5786 14.1067 39.5786 15.08C39.5786 16.0667 39.7786 16.7933 40.1786 17.26C40.5786 17.7267 41.0986 17.96 41.7386 17.96ZM51.8456 8.38C51.2856 8.38 50.8523 8.25333 50.5456 8C50.2523 7.73333 50.1056 7.36 50.1056 6.88C50.1056 6.38667 50.2523 6.01333 50.5456 5.76C50.8523 5.49333 51.2856 5.36 51.8456 5.36C52.9923 5.36 53.5656 5.86667 53.5656 6.88C53.5656 7.88 52.9923 8.38 51.8456 8.38ZM51.8456 20.16C51.3523 20.16 50.9723 20.02 50.7056 19.74C50.4523 19.4467 50.3256 19.04 50.3256 18.52V11.68C50.3256 10.5733 50.8323 10.02 51.8456 10.02C52.3256 10.02 52.6923 10.1667 52.9456 10.46C53.2123 10.74 53.3456 11.1467 53.3456 11.68V18.52C53.3456 19.04 53.219 19.4467 52.9656 19.74C52.7123 20.02 52.339 20.16 51.8456 20.16ZM61.8772 20.22C60.7172 20.22 59.7172 20.0133 58.8772 19.6C58.0505 19.1733 57.4105 18.58 56.9572 17.82C56.5172 17.0467 56.2972 16.14 56.2972 15.1C56.2972 14.0867 56.5105 13.2 56.9372 12.44C57.3772 11.6667 57.9705 11.0667 58.7172 10.64C59.4772 10.2 60.3505 9.98 61.3372 9.98C62.7639 9.98 63.8972 10.4333 64.7372 11.34C65.5772 12.2333 65.9972 13.4467 65.9972 14.98C65.9972 15.4867 65.6839 15.74 65.0572 15.74H59.1772C59.2839 16.5133 59.5639 17.08 60.0172 17.44C60.4839 17.7867 61.1239 17.96 61.9372 17.96C62.2572 17.96 62.6172 17.9267 63.0172 17.86C63.4305 17.78 63.8239 17.6467 64.1972 17.46C64.5839 17.2733 64.9105 17.24 65.1772 17.36C65.4439 17.4667 65.6239 17.6533 65.7172 17.92C65.8239 18.1867 65.8239 18.4667 65.7172 18.76C65.6239 19.04 65.4039 19.2733 65.0572 19.46C64.5905 19.7133 64.0705 19.9 63.4972 20.02C62.9372 20.1533 62.3972 20.22 61.8772 20.22ZM61.4572 11.98C60.8172 11.98 60.2972 12.1733 59.8972 12.56C59.5105 12.9467 59.2705 13.4867 59.1772 14.18H63.4972C63.4172 12.7133 62.7372 11.98 61.4572 11.98ZM77.0997 20.18C76.0597 20.18 75.5397 19.6667 75.5397 18.64V11.54C75.5397 10.5267 76.033 10.02 77.0197 10.02C78.0064 10.02 78.4997 10.5267 78.4997 11.54V11.9C78.9797 10.7133 79.973 10.0733 81.4797 9.98C81.813 9.95333 82.0664 10.04 82.2397 10.24C82.4264 10.4267 82.5264 10.74 82.5397 11.18C82.5664 11.5933 82.4797 11.92 82.2797 12.16C82.093 12.4 81.773 12.5467 81.3197 12.6L80.8597 12.64C79.3664 12.7867 78.6197 13.5467 78.6197 14.92V18.64C78.6197 19.6667 78.113 20.18 77.0997 20.18ZM88.1042 20.22C87.3709 20.22 86.7242 20.08 86.1642 19.8C85.6042 19.52 85.1576 19.14 84.8242 18.66C84.5042 18.18 84.3442 17.64 84.3442 17.04C84.3442 16.3333 84.5309 15.7667 84.9042 15.34C85.2776 14.9133 85.8842 14.6133 86.7242 14.44C87.5642 14.2533 88.6776 14.16 90.0642 14.16H90.7842V13.82C90.7842 13.2333 90.6509 12.82 90.3842 12.58C90.1176 12.3267 89.6642 12.2 89.0242 12.2C88.6642 12.2 88.2709 12.2467 87.8442 12.34C87.4176 12.42 86.9576 12.56 86.4642 12.76C86.0909 12.92 85.7776 12.9333 85.5242 12.8C85.2709 12.6533 85.1042 12.44 85.0242 12.16C84.9442 11.8667 84.9642 11.5733 85.0842 11.28C85.2176 10.9867 85.4709 10.7733 85.8442 10.64C86.4709 10.4 87.0576 10.2333 87.6042 10.14C88.1642 10.0333 88.6776 9.98 89.1442 9.98C90.6642 9.98 91.7976 10.3267 92.5442 11.02C93.2909 11.7 93.6642 12.76 93.6642 14.2V18.64C93.6642 19.6667 93.1976 20.18 92.2642 20.18C91.3176 20.18 90.8442 19.6667 90.8442 18.64V18.52C90.6442 19.04 90.3042 19.4533 89.8242 19.76C89.3576 20.0667 88.7842 20.22 88.1042 20.22ZM88.7842 18.2C89.3442 18.2 89.8176 18.0067 90.2042 17.62C90.5909 17.2333 90.7842 16.7333 90.7842 16.12V15.72H90.0842C89.0576 15.72 88.3309 15.8133 87.9042 16C87.4776 16.1733 87.2642 16.48 87.2642 16.92C87.2642 17.2933 87.3909 17.6 87.6442 17.84C87.9109 18.08 88.2909 18.2 88.7842 18.2ZM103.077 20.22C102.397 20.22 101.784 20.0733 101.237 19.78C100.69 19.4867 100.277 19.0867 99.997 18.58V18.64C99.997 19.6667 99.5037 20.18 98.517 20.18C97.517 20.18 97.017 19.6667 97.017 18.64V7.26C97.017 6.23333 97.5237 5.72 98.537 5.72C99.537 5.72 100.037 6.23333 100.037 7.26V11.5C100.33 11.0333 100.744 10.6667 101.277 10.4C101.824 10.12 102.424 9.98 103.077 9.98C103.93 9.98 104.677 10.1867 105.317 10.6C105.97 11.0133 106.477 11.6 106.837 12.36C107.197 13.12 107.377 14.0267 107.377 15.08C107.377 16.1333 107.197 17.0467 106.837 17.82C106.477 18.58 105.97 19.1733 105.317 19.6C104.677 20.0133 103.93 20.22 103.077 20.22ZM102.177 17.96C102.817 17.96 103.337 17.7267 103.737 17.26C104.137 16.7933 104.337 16.0667 104.337 15.08C104.337 14.1067 104.137 13.3933 103.737 12.94C103.337 12.4733 102.817 12.24 102.177 12.24C101.524 12.24 100.997 12.4733 100.597 12.94C100.197 13.3933 99.997 14.1067 99.997 15.08C99.997 16.0667 100.197 16.7933 100.597 17.26C100.997 17.7267 101.524 17.96 102.177 17.96ZM113.644 20.22C112.911 20.22 112.264 20.08 111.704 19.8C111.144 19.52 110.697 19.14 110.364 18.66C110.044 18.18 109.884 17.64 109.884 17.04C109.884 16.3333 110.071 15.7667 110.444 15.34C110.817 14.9133 111.424 14.6133 112.264 14.44C113.104 14.2533 114.217 14.16 115.604 14.16H116.324V13.82C116.324 13.2333 116.191 12.82 115.924 12.58C115.657 12.3267 115.204 12.2 114.564 12.2C114.204 12.2 113.811 12.2467 113.384 12.34C112.957 12.42 112.497 12.56 112.004 12.76C111.631 12.92 111.317 12.9333 111.064 12.8C110.811 12.6533 110.644 12.44 110.564 12.16C110.484 11.8667 110.504 11.5733 110.624 11.28C110.757 10.9867 111.011 10.7733 111.384 10.64C112.011 10.4 112.597 10.2333 113.144 10.14C113.704 10.0333 114.217 9.98 114.684 9.98C116.204 9.98 117.337 10.3267 118.084 11.02C118.831 11.7 119.204 12.76 119.204 14.2V18.64C119.204 19.6667 118.737 20.18 117.804 20.18C116.857 20.18 116.384 19.6667 116.384 18.64V18.52C116.184 19.04 115.844 19.4533 115.364 19.76C114.897 20.0667 114.324 20.22 113.644 20.22ZM114.324 18.2C114.884 18.2 115.357 18.0067 115.744 17.62C116.131 17.2333 116.324 16.7333 116.324 16.12V15.72H115.624C114.597 15.72 113.871 15.8133 113.444 16C113.017 16.1733 112.804 16.48 112.804 16.92C112.804 17.2933 112.931 17.6 113.184 17.84C113.451 18.08 113.831 18.2 114.324 18.2ZM127.377 20.22C124.617 20.22 123.237 18.88 123.237 16.2V12.44H122.397C121.61 12.44 121.217 12.0667 121.217 11.32C121.217 10.56 121.61 10.18 122.397 10.18H123.237V8.66C123.237 7.63333 123.744 7.12 124.757 7.12C125.757 7.12 126.257 7.63333 126.257 8.66V10.18H128.157C128.93 10.18 129.317 10.56 129.317 11.32C129.317 12.0667 128.93 12.44 128.157 12.44H126.257V16.08C126.257 16.64 126.384 17.06 126.637 17.34C126.904 17.62 127.324 17.76 127.897 17.76C128.097 17.76 128.284 17.74 128.457 17.7C128.63 17.66 128.79 17.6333 128.937 17.62C129.124 17.6067 129.277 17.6667 129.397 17.8C129.517 17.9333 129.577 18.2067 129.577 18.62C129.577 18.9533 129.524 19.24 129.417 19.48C129.31 19.7067 129.124 19.8733 128.857 19.98C128.684 20.0467 128.444 20.1 128.137 20.14C127.844 20.1933 127.59 20.22 127.377 20.22ZM135.84 20.22C133.08 20.22 131.7 18.88 131.7 16.2V12.44H130.86C130.073 12.44 129.68 12.0667 129.68 11.32C129.68 10.56 130.073 10.18 130.86 10.18H131.7V8.66C131.7 7.63333 132.207 7.12 133.22 7.12C134.22 7.12 134.72 7.63333 134.72 8.66V10.18H136.62C137.393 10.18 137.78 10.56 137.78 11.32C137.78 12.0667 137.393 12.44 136.62 12.44H134.72V16.08C134.72 16.64 134.847 17.06 135.1 17.34C135.367 17.62 135.787 17.76 136.36 17.76C136.56 17.76 136.747 17.74 136.92 17.7C137.093 17.66 137.253 17.6333 137.4 17.62C137.587 17.6067 137.74 17.6667 137.86 17.8C137.98 17.9333 138.04 18.2067 138.04 18.62C138.04 18.9533 137.987 19.24 137.88 19.48C137.773 19.7067 137.587 19.8733 137.32 19.98C137.147 20.0467 136.907 20.1 136.6 20.14C136.307 20.1933 136.053 20.22 135.84 20.22ZM145.208 20.22C144.048 20.22 143.048 20.0133 142.208 19.6C141.382 19.1733 140.742 18.58 140.288 17.82C139.848 17.0467 139.628 16.14 139.628 15.1C139.628 14.0867 139.842 13.2 140.268 12.44C140.708 11.6667 141.302 11.0667 142.048 10.64C142.808 10.2 143.682 9.98 144.668 9.98C146.095 9.98 147.228 10.4333 148.068 11.34C148.908 12.2333 149.328 13.4467 149.328 14.98C149.328 15.4867 149.015 15.74 148.388 15.74H142.508C142.615 16.5133 142.895 17.08 143.348 17.44C143.815 17.7867 144.455 17.96 145.268 17.96C145.588 17.96 145.948 17.9267 146.348 17.86C146.762 17.78 147.155 17.6467 147.528 17.46C147.915 17.2733 148.242 17.24 148.508 17.36C148.775 17.4667 148.955 17.6533 149.048 17.92C149.155 18.1867 149.155 18.4667 149.048 18.76C148.955 19.04 148.735 19.2733 148.388 19.46C147.922 19.7133 147.402 19.9 146.828 20.02C146.268 20.1533 145.728 20.22 145.208 20.22ZM144.788 11.98C144.148 11.98 143.628 12.1733 143.228 12.56C142.842 12.9467 142.602 13.4867 142.508 14.18H146.828C146.748 12.7133 146.068 11.98 144.788 11.98ZM153.745 20.18C152.705 20.18 152.185 19.6667 152.185 18.64V11.54C152.185 10.5267 152.678 10.02 153.665 10.02C154.652 10.02 155.145 10.5267 155.145 11.54V11.9C155.625 10.7133 156.618 10.0733 158.125 9.98C158.458 9.95333 158.712 10.04 158.885 10.24C159.072 10.4267 159.172 10.74 159.185 11.18C159.212 11.5933 159.125 11.92 158.925 12.16C158.738 12.4 158.418 12.5467 157.965 12.6L157.505 12.64C156.012 12.7867 155.265 13.5467 155.265 14.92V18.64C155.265 19.6667 154.758 20.18 153.745 20.18Z" fill="white"/>
<path d="M181.389 22.75L170.375 12.1442V14.3108C170.375 14.885 170.611 15.4375 171.039 15.8383L179.803 24.2775C180.68 25.1225 182.109 25.1225 182.986 24.2775L189.973 17.55C190.85 16.705 190.85 15.3292 189.973 14.4842L181.389 22.75Z" fill="white"/>
<path d="M179.803 18.8608C180.241 19.2833 180.815 19.5 181.389 19.5C181.962 19.5 182.536 19.2833 182.975 18.8608L189.961 12.1333C190.839 11.2883 190.839 9.9125 189.961 9.0675L181.197 0.628333C180.781 0.2275 180.208 0 179.611 0H172.625C171.387 0 170.375 0.975 170.375 2.16667V8.89417C170.375 9.46833 170.611 10.0208 171.039 10.4217L179.803 18.8608V18.8608ZM172.625 2.16667H179.611L188.375 10.6058L181.389 17.3333L172.625 8.89417V2.16667Z" fill="white"/>
<path d="M175.156 5.95833C175.933 5.95833 176.562 5.35205 176.562 4.60417C176.562 3.85628 175.933 3.25 175.156 3.25C174.38 3.25 173.75 3.85628 173.75 4.60417C173.75 5.35205 174.38 5.95833 175.156 5.95833Z" fill="white"/>
</svg>
