<svg width="751" height="169" viewBox="0 0 751 169" fill="none" xmlns="http://www.w3.org/2000/svg">
<rect y="0.498535" width="750.455" height="167.98" rx="14" fill="#03266A"/>
<path d="M121.889 92.4005C120.438 92.4005 119.713 91.6752 119.713 90.2245V72.0165C119.713 70.5659 120.438 69.8405 121.889 69.8405H129.569C131.937 69.8405 133.772 70.3632 135.073 71.4085C136.374 72.4325 137.025 73.8619 137.025 75.6965C137.025 76.9125 136.716 77.9579 136.097 78.8325C135.478 79.7072 134.625 80.3472 133.537 80.7525C134.817 81.1152 135.809 81.7552 136.513 82.6725C137.238 83.5685 137.601 84.7099 137.601 86.0965C137.601 88.1019 136.918 89.6592 135.553 90.7685C134.209 91.8565 132.332 92.4005 129.921 92.4005H121.889ZM123.649 79.4085H128.865C131.66 79.4085 133.057 78.3312 133.057 76.1765C133.057 74.0219 131.66 72.9445 128.865 72.9445H123.649V79.4085ZM123.649 89.2965H129.409C132.225 89.2965 133.633 88.1659 133.633 85.9045C133.633 83.6432 132.225 82.5125 129.409 82.5125H123.649V89.2965ZM149.072 92.7205C147.302 92.7205 145.776 92.3899 144.496 91.7285C143.216 91.0672 142.224 90.1285 141.52 88.9125C140.838 87.6965 140.496 86.2565 140.496 84.5925C140.496 82.9712 140.827 81.5525 141.488 80.3365C142.171 79.1205 143.099 78.1712 144.272 77.4885C145.467 76.7845 146.822 76.4325 148.336 76.4325C150.555 76.4325 152.304 77.1365 153.584 78.5445C154.886 79.9525 155.536 81.8725 155.536 84.3045C155.536 85.0939 155.024 85.4885 154 85.4885H144.336C144.635 88.2832 146.235 89.6805 149.136 89.6805C149.691 89.6805 150.31 89.6165 150.992 89.4885C151.696 89.3392 152.358 89.0939 152.976 88.7525C153.531 88.4325 154 88.3365 154.384 88.4645C154.768 88.5712 155.035 88.7952 155.184 89.1365C155.355 89.4779 155.376 89.8619 155.248 90.2885C155.142 90.6939 154.843 91.0459 154.352 91.3445C153.606 91.8139 152.742 92.1659 151.76 92.4005C150.8 92.6139 149.904 92.7205 149.072 92.7205ZM148.496 79.1525C147.323 79.1525 146.374 79.5152 145.648 80.2405C144.923 80.9659 144.486 81.9472 144.336 83.1845H152.208C152.123 81.8832 151.76 80.8912 151.12 80.2085C150.502 79.5045 149.627 79.1525 148.496 79.1525ZM166 98.4805C164.848 98.4805 163.728 98.3739 162.64 98.1605C161.573 97.9472 160.603 97.6165 159.728 97.1685C159.216 96.9125 158.907 96.5819 158.8 96.1765C158.715 95.7925 158.757 95.4192 158.928 95.0565C159.099 94.6939 159.355 94.4272 159.696 94.2565C160.059 94.1072 160.443 94.1285 160.848 94.3205C161.787 94.7899 162.672 95.0885 163.504 95.2165C164.357 95.3659 165.083 95.4405 165.68 95.4405C168.539 95.4405 169.968 94.0645 169.968 91.3125V89.1685C169.52 90.0432 168.827 90.7365 167.888 91.2485C166.971 91.7605 165.947 92.0165 164.816 92.0165C163.408 92.0165 162.181 91.6965 161.136 91.0565C160.091 90.3952 159.28 89.4779 158.704 88.3045C158.128 87.1312 157.84 85.7659 157.84 84.2085C157.84 82.6512 158.128 81.2965 158.704 80.1445C159.28 78.9712 160.091 78.0645 161.136 77.4245C162.181 76.7632 163.408 76.4325 164.816 76.4325C165.947 76.4325 166.971 76.6779 167.888 77.1685C168.805 77.6592 169.477 78.3312 169.904 79.1845V78.5125C169.904 77.8512 170.075 77.3499 170.416 77.0085C170.779 76.6672 171.269 76.4965 171.888 76.4965C173.211 76.4965 173.872 77.1685 173.872 78.5125V90.8325C173.872 93.3712 173.2 95.2805 171.856 96.5605C170.512 97.8405 168.56 98.4805 166 98.4805ZM165.904 88.9765C167.141 88.9765 168.123 88.5499 168.848 87.6965C169.573 86.8432 169.936 85.6805 169.936 84.2085C169.936 82.7365 169.573 81.5845 168.848 80.7525C168.123 79.8992 167.141 79.4725 165.904 79.4725C164.667 79.4725 163.685 79.8992 162.96 80.7525C162.235 81.5845 161.872 82.7365 161.872 84.2085C161.872 85.6805 162.235 86.8432 162.96 87.6965C163.685 88.5499 164.667 88.9765 165.904 88.9765ZM180.065 92.6565C178.699 92.6565 178.017 91.9739 178.017 90.6085V78.5125C178.017 77.1685 178.667 76.4965 179.969 76.4965C181.27 76.4965 181.921 77.1685 181.921 78.5125V79.5045C182.689 77.6699 184.331 76.6459 186.849 76.4325C187.766 76.3259 188.278 76.8485 188.385 78.0005C188.491 79.1312 187.937 79.7605 186.721 79.8885L186.017 79.9525C183.393 80.2085 182.081 81.5525 182.081 83.9845V90.6085C182.081 91.9739 181.409 92.6565 180.065 92.6565ZM195.864 92.7205C194.626 92.7205 193.538 92.5072 192.6 92.0805C191.682 91.6325 190.968 91.0352 190.456 90.2885C189.944 89.5419 189.688 88.6992 189.688 87.7605C189.688 86.6085 189.986 85.7019 190.584 85.0405C191.181 84.3579 192.152 83.8672 193.496 83.5685C194.861 83.2699 196.696 83.1205 199 83.1205H200.024V82.4485C200.024 81.3819 199.778 80.6139 199.288 80.1445C198.818 79.6752 198.05 79.4405 196.984 79.4405C196.365 79.4405 195.693 79.5152 194.968 79.6645C194.264 79.8139 193.517 80.0699 192.728 80.4325C192.216 80.6672 191.789 80.6992 191.448 80.5285C191.106 80.3365 190.872 80.0485 190.744 79.6645C190.637 79.2592 190.658 78.8539 190.808 78.4485C190.978 78.0432 191.309 77.7445 191.8 77.5525C192.781 77.1472 193.72 76.8592 194.616 76.6885C195.533 76.5179 196.365 76.4325 197.112 76.4325C199.736 76.4325 201.517 77.2539 202.456 78.8965C203.074 78.0859 203.864 77.4779 204.824 77.0725C205.805 76.6459 206.797 76.4325 207.8 76.4325C209.976 76.4325 211.704 77.1365 212.984 78.5445C214.264 79.9312 214.904 81.8405 214.904 84.2725V84.3365C214.904 85.0619 214.392 85.4245 213.368 85.4245H203.896C204.173 88.2619 205.73 89.6805 208.568 89.6805C209.122 89.6805 209.741 89.6165 210.424 89.4885C211.128 89.3392 211.789 89.0939 212.408 88.7525C212.962 88.4325 213.432 88.3365 213.816 88.4645C214.2 88.5712 214.466 88.7952 214.616 89.1365C214.786 89.4779 214.808 89.8619 214.68 90.2885C214.573 90.6939 214.274 91.0459 213.784 91.3445C213.037 91.8139 212.173 92.1659 211.192 92.4005C210.232 92.6139 209.336 92.7205 208.504 92.7205C206.925 92.7205 205.538 92.4325 204.344 91.8565C203.149 91.2805 202.242 90.4059 201.624 89.2325C201.154 90.3419 200.418 91.2059 199.416 91.8245C198.434 92.4219 197.25 92.7205 195.864 92.7205ZM207.896 79.1525C206.786 79.1525 205.88 79.4939 205.176 80.1765C204.493 80.8592 204.077 81.8405 203.928 83.1205H211.576C211.49 81.8405 211.138 80.8592 210.52 80.1765C209.901 79.4939 209.026 79.1525 207.896 79.1525ZM196.408 89.9685C197.474 89.9685 198.338 89.6059 199 88.8805C199.682 88.1339 200.024 87.1739 200.024 86.0005V85.4245H198.936C196.93 85.4245 195.533 85.5845 194.744 85.9045C193.976 86.2032 193.592 86.7579 193.592 87.5685C193.592 88.2725 193.837 88.8485 194.328 89.2965C194.818 89.7445 195.512 89.9685 196.408 89.9685ZM220.063 92.6565C218.74 92.6565 218.079 91.9739 218.079 90.6085V78.5125C218.079 77.1685 218.73 76.4965 220.031 76.4965C221.332 76.4965 221.983 77.1685 221.983 78.5125V79.1845C222.516 78.2885 223.231 77.6059 224.127 77.1365C225.044 76.6672 226.068 76.4325 227.199 76.4325C230.89 76.4325 232.735 78.5765 232.735 82.8645V90.6085C232.735 91.9739 232.074 92.6565 230.751 92.6565C229.407 92.6565 228.735 91.9739 228.735 90.6085V83.0565C228.735 81.8405 228.5 80.9552 228.031 80.4005C227.583 79.8459 226.879 79.5685 225.919 79.5685C224.746 79.5685 223.807 79.9419 223.103 80.6885C222.42 81.4139 222.079 82.3845 222.079 83.6005V90.6085C222.079 91.9739 221.407 92.6565 220.063 92.6565ZM242.526 92.7205C241.609 92.7205 240.638 92.6245 239.614 92.4325C238.59 92.2405 237.673 91.9099 236.862 91.4405C236.414 91.1845 236.137 90.8752 236.03 90.5125C235.923 90.1285 235.934 89.7765 236.062 89.4565C236.211 89.1152 236.446 88.8699 236.766 88.7205C237.107 88.5712 237.502 88.6032 237.95 88.8165C238.803 89.2219 239.603 89.5099 240.35 89.6805C241.097 89.8299 241.833 89.9045 242.558 89.9045C243.582 89.9045 244.339 89.7339 244.83 89.3925C245.342 89.0299 245.598 88.5605 245.598 87.9845C245.598 87.0885 244.937 86.5125 243.614 86.2565L240.414 85.6485C237.705 85.1365 236.35 83.7285 236.35 81.4245C236.35 80.4005 236.627 79.5152 237.182 78.7685C237.758 78.0219 238.547 77.4459 239.55 77.0405C240.553 76.6352 241.705 76.4325 243.006 76.4325C244.883 76.4325 246.558 76.8485 248.03 77.6805C248.435 77.8939 248.67 78.1925 248.734 78.5765C248.819 78.9392 248.777 79.2912 248.606 79.6325C248.457 79.9525 248.211 80.1872 247.87 80.3365C247.529 80.4645 247.134 80.4219 246.686 80.2085C246.025 79.8672 245.385 79.6219 244.766 79.4725C244.169 79.3232 243.593 79.2485 243.038 79.2485C241.993 79.2485 241.214 79.4299 240.702 79.7925C240.211 80.1552 239.966 80.6352 239.966 81.2325C239.966 82.1712 240.574 82.7472 241.79 82.9605L244.99 83.5685C246.377 83.8245 247.422 84.2939 248.126 84.9765C248.851 85.6592 249.214 86.5765 249.214 87.7285C249.214 89.2859 248.606 90.5125 247.39 91.4085C246.174 92.2832 244.553 92.7205 242.526 92.7205ZM260.135 92.7205C258.364 92.7205 256.839 92.3899 255.559 91.7285C254.279 91.0672 253.287 90.1285 252.583 88.9125C251.9 87.6965 251.559 86.2565 251.559 84.5925C251.559 82.9712 251.89 81.5525 252.551 80.3365C253.234 79.1205 254.162 78.1712 255.335 77.4885C256.53 76.7845 257.884 76.4325 259.399 76.4325C261.618 76.4325 263.367 77.1365 264.647 78.5445C265.948 79.9525 266.599 81.8725 266.599 84.3045C266.599 85.0939 266.087 85.4885 265.063 85.4885H255.399C255.698 88.2832 257.298 89.6805 260.199 89.6805C260.754 89.6805 261.372 89.6165 262.055 89.4885C262.759 89.3392 263.42 89.0939 264.039 88.7525C264.594 88.4325 265.063 88.3365 265.447 88.4645C265.831 88.5712 266.098 88.7952 266.247 89.1365C266.418 89.4779 266.439 89.8619 266.311 90.2885C266.204 90.6939 265.906 91.0459 265.415 91.3445C264.668 91.8139 263.804 92.1659 262.823 92.4005C261.863 92.6139 260.967 92.7205 260.135 92.7205ZM259.559 79.1525C258.386 79.1525 257.436 79.5152 256.711 80.2405C255.986 80.9659 255.548 81.9472 255.399 83.1845H263.271C263.186 81.8832 262.823 80.8912 262.183 80.2085C261.564 79.5045 260.69 79.1525 259.559 79.1525ZM276.872 92.7205C272.733 92.7205 270.664 90.6725 270.664 86.5765V79.7605H269C267.933 79.7605 267.4 79.2592 267.4 78.2565C267.4 77.2539 267.933 76.7525 269 76.7525H270.664V73.8405C270.664 72.4965 271.336 71.8245 272.68 71.8245C274.003 71.8245 274.664 72.4965 274.664 73.8405V76.7525H278.056C279.123 76.7525 279.656 77.2539 279.656 78.2565C279.656 79.2592 279.123 79.7605 278.056 79.7605H274.664V86.3525C274.664 87.3765 274.888 88.1445 275.336 88.6565C275.784 89.1685 276.509 89.4245 277.512 89.4245C277.875 89.4245 278.195 89.3925 278.472 89.3285C278.749 89.2645 278.995 89.2219 279.208 89.2005C279.464 89.1792 279.677 89.2645 279.848 89.4565C280.019 89.6272 280.104 89.9899 280.104 90.5445C280.104 90.9712 280.029 91.3552 279.88 91.6965C279.752 92.0165 279.507 92.2405 279.144 92.3685C278.867 92.4539 278.504 92.5285 278.056 92.5925C277.608 92.6779 277.213 92.7205 276.872 92.7205ZM295.825 92.7205C294.694 92.7205 293.681 92.5072 292.785 92.0805C291.91 91.6325 291.217 91.0352 290.705 90.2885C290.214 89.5419 289.969 88.6992 289.969 87.7605C289.969 86.6085 290.268 85.7019 290.865 85.0405C291.462 84.3579 292.433 83.8672 293.777 83.5685C295.121 83.2699 296.924 83.1205 299.185 83.1205H300.305V82.4485C300.305 81.3819 300.07 80.6139 299.601 80.1445C299.132 79.6752 298.342 79.4405 297.233 79.4405C296.614 79.4405 295.942 79.5152 295.217 79.6645C294.513 79.8139 293.766 80.0699 292.977 80.4325C292.465 80.6672 292.038 80.6992 291.697 80.5285C291.356 80.3365 291.121 80.0485 290.993 79.6645C290.886 79.2592 290.908 78.8539 291.057 78.4485C291.228 78.0432 291.558 77.7445 292.049 77.5525C293.03 77.1472 293.969 76.8592 294.865 76.6885C295.782 76.5179 296.614 76.4325 297.361 76.4325C299.644 76.4325 301.34 76.9659 302.449 78.0325C303.558 79.0779 304.113 80.7099 304.113 82.9285V90.6085C304.113 91.9739 303.494 92.6565 302.257 92.6565C300.998 92.6565 300.369 91.9739 300.369 90.6085V89.9045C300.006 90.7792 299.43 91.4725 298.641 91.9845C297.852 92.4752 296.913 92.7205 295.825 92.7205ZM296.657 89.9685C297.702 89.9685 298.566 89.6059 299.249 88.8805C299.953 88.1552 300.305 87.2379 300.305 86.1285V85.4245H299.217C297.212 85.4245 295.814 85.5845 295.025 85.9045C294.257 86.2032 293.873 86.7579 293.873 87.5685C293.873 88.2725 294.118 88.8485 294.609 89.2965C295.1 89.7445 295.782 89.9685 296.657 89.9685ZM314.189 92.7205C312.824 92.7205 311.618 92.3899 310.573 91.7285C309.549 91.0672 308.749 90.1285 308.173 88.9125C307.597 87.6752 307.309 86.2245 307.309 84.5605C307.309 82.8752 307.597 81.4352 308.173 80.2405C308.749 79.0245 309.549 78.0859 310.573 77.4245C311.618 76.7632 312.824 76.4325 314.189 76.4325C315.298 76.4325 316.301 76.6779 317.197 77.1685C318.093 77.6592 318.765 78.3099 319.213 79.1205V71.6005C319.213 70.2565 319.874 69.5845 321.197 69.5845C322.541 69.5845 323.213 70.2565 323.213 71.6005V90.6085C323.213 91.9739 322.552 92.6565 321.229 92.6565C319.906 92.6565 319.245 91.9739 319.245 90.6085V89.9365C318.797 90.7899 318.125 91.4725 317.229 91.9845C316.333 92.4752 315.32 92.7205 314.189 92.7205ZM315.309 89.6805C316.504 89.6805 317.464 89.2539 318.189 88.4005C318.914 87.5259 319.277 86.2459 319.277 84.5605C319.277 82.8539 318.914 81.5845 318.189 80.7525C317.464 79.8992 316.504 79.4725 315.309 79.4725C314.114 79.4725 313.154 79.8992 312.429 80.7525C311.704 81.5845 311.341 82.8539 311.341 84.5605C311.341 86.2459 311.704 87.5259 312.429 88.4005C313.154 89.2539 314.114 89.6805 315.309 89.6805ZM334.656 98.4805C333.504 98.4805 332.384 98.3739 331.296 98.1605C330.23 97.9472 329.259 97.6165 328.384 97.1685C327.872 96.9125 327.563 96.5819 327.456 96.1765C327.371 95.7925 327.414 95.4192 327.584 95.0565C327.755 94.6939 328.011 94.4272 328.352 94.2565C328.715 94.1072 329.099 94.1285 329.504 94.3205C330.443 94.7899 331.328 95.0885 332.16 95.2165C333.014 95.3659 333.739 95.4405 334.336 95.4405C337.195 95.4405 338.624 94.0645 338.624 91.3125V89.1685C338.176 90.0432 337.483 90.7365 336.544 91.2485C335.627 91.7605 334.603 92.0165 333.472 92.0165C332.064 92.0165 330.838 91.6965 329.792 91.0565C328.747 90.3952 327.936 89.4779 327.36 88.3045C326.784 87.1312 326.496 85.7659 326.496 84.2085C326.496 82.6512 326.784 81.2965 327.36 80.1445C327.936 78.9712 328.747 78.0645 329.792 77.4245C330.838 76.7632 332.064 76.4325 333.472 76.4325C334.603 76.4325 335.627 76.6779 336.544 77.1685C337.462 77.6592 338.134 78.3312 338.56 79.1845V78.5125C338.56 77.8512 338.731 77.3499 339.072 77.0085C339.435 76.6672 339.926 76.4965 340.544 76.4965C341.867 76.4965 342.528 77.1685 342.528 78.5125V90.8325C342.528 93.3712 341.856 95.2805 340.512 96.5605C339.168 97.8405 337.216 98.4805 334.656 98.4805ZM334.56 88.9765C335.798 88.9765 336.779 88.5499 337.504 87.6965C338.23 86.8432 338.592 85.6805 338.592 84.2085C338.592 82.7365 338.23 81.5845 337.504 80.7525C336.779 79.8992 335.798 79.4725 334.56 79.4725C333.323 79.4725 332.342 79.8992 331.616 80.7525C330.891 81.5845 330.528 82.7365 330.528 84.2085C330.528 85.6805 330.891 86.8432 331.616 87.6965C332.342 88.5499 333.323 88.9765 334.56 88.9765ZM351.825 92.7205C350.694 92.7205 349.681 92.5072 348.785 92.0805C347.91 91.6325 347.217 91.0352 346.705 90.2885C346.214 89.5419 345.969 88.6992 345.969 87.7605C345.969 86.6085 346.268 85.7019 346.865 85.0405C347.462 84.3579 348.433 83.8672 349.777 83.5685C351.121 83.2699 352.924 83.1205 355.185 83.1205H356.305V82.4485C356.305 81.3819 356.07 80.6139 355.601 80.1445C355.132 79.6752 354.342 79.4405 353.233 79.4405C352.614 79.4405 351.942 79.5152 351.217 79.6645C350.513 79.8139 349.766 80.0699 348.977 80.4325C348.465 80.6672 348.038 80.6992 347.697 80.5285C347.356 80.3365 347.121 80.0485 346.993 79.6645C346.886 79.2592 346.908 78.8539 347.057 78.4485C347.228 78.0432 347.558 77.7445 348.049 77.5525C349.03 77.1472 349.969 76.8592 350.865 76.6885C351.782 76.5179 352.614 76.4325 353.361 76.4325C355.644 76.4325 357.34 76.9659 358.449 78.0325C359.558 79.0779 360.113 80.7099 360.113 82.9285V90.6085C360.113 91.9739 359.494 92.6565 358.257 92.6565C356.998 92.6565 356.369 91.9739 356.369 90.6085V89.9045C356.006 90.7792 355.43 91.4725 354.641 91.9845C353.852 92.4752 352.913 92.7205 351.825 92.7205ZM352.657 89.9685C353.702 89.9685 354.566 89.6059 355.249 88.8805C355.953 88.1552 356.305 87.2379 356.305 86.1285V85.4245H355.217C353.212 85.4245 351.814 85.5845 351.025 85.9045C350.257 86.2032 349.873 86.7579 349.873 87.5685C349.873 88.2725 350.118 88.8485 350.609 89.2965C351.1 89.7445 351.782 89.9685 352.657 89.9685ZM366.157 92.6565C364.834 92.6565 364.173 91.9739 364.173 90.6085V78.5125C364.173 77.1685 364.824 76.4965 366.125 76.4965C367.426 76.4965 368.077 77.1685 368.077 78.5125V79.1845C368.61 78.2885 369.325 77.6059 370.221 77.1365C371.138 76.6672 372.162 76.4325 373.293 76.4325C376.984 76.4325 378.829 78.5765 378.829 82.8645V90.6085C378.829 91.9739 378.168 92.6565 376.845 92.6565C375.501 92.6565 374.829 91.9739 374.829 90.6085V83.0565C374.829 81.8405 374.594 80.9552 374.125 80.4005C373.677 79.8459 372.973 79.5685 372.013 79.5685C370.84 79.5685 369.901 79.9419 369.197 80.6885C368.514 81.4139 368.173 82.3845 368.173 83.6005V90.6085C368.173 91.9739 367.501 92.6565 366.157 92.6565ZM390.188 98.4805C389.036 98.4805 387.916 98.3739 386.828 98.1605C385.761 97.9472 384.79 97.6165 383.916 97.1685C383.404 96.9125 383.094 96.5819 382.988 96.1765C382.902 95.7925 382.945 95.4192 383.116 95.0565C383.286 94.6939 383.542 94.4272 383.884 94.2565C384.246 94.1072 384.63 94.1285 385.036 94.3205C385.974 94.7899 386.86 95.0885 387.692 95.2165C388.545 95.3659 389.27 95.4405 389.868 95.4405C392.726 95.4405 394.156 94.0645 394.156 91.3125V89.1685C393.708 90.0432 393.014 90.7365 392.076 91.2485C391.158 91.7605 390.134 92.0165 389.004 92.0165C387.596 92.0165 386.369 91.6965 385.324 91.0565C384.278 90.3952 383.468 89.4779 382.892 88.3045C382.316 87.1312 382.028 85.7659 382.028 84.2085C382.028 82.6512 382.316 81.2965 382.892 80.1445C383.468 78.9712 384.278 78.0645 385.324 77.4245C386.369 76.7632 387.596 76.4325 389.004 76.4325C390.134 76.4325 391.158 76.6779 392.076 77.1685C392.993 77.6592 393.665 78.3312 394.092 79.1845V78.5125C394.092 77.8512 394.262 77.3499 394.604 77.0085C394.966 76.6672 395.457 76.4965 396.076 76.4965C397.398 76.4965 398.06 77.1685 398.06 78.5125V90.8325C398.06 93.3712 397.388 95.2805 396.044 96.5605C394.7 97.8405 392.748 98.4805 390.188 98.4805ZM390.092 88.9765C391.329 88.9765 392.31 88.5499 393.036 87.6965C393.761 86.8432 394.124 85.6805 394.124 84.2085C394.124 82.7365 393.761 81.5845 393.036 80.7525C392.31 79.8992 391.329 79.4725 390.092 79.4725C388.854 79.4725 387.873 79.8992 387.148 80.7525C386.422 81.5845 386.06 82.7365 386.06 84.2085C386.06 85.6805 386.422 86.8432 387.148 87.6965C387.873 88.5499 388.854 88.9765 390.092 88.9765Z" fill="#DDE036"/>
<path d="M418.06 92.7205C413.921 92.7205 411.852 90.6725 411.852 86.5765V79.7605H410.188C409.121 79.7605 408.588 79.2592 408.588 78.2565C408.588 77.2539 409.121 76.7525 410.188 76.7525H411.852V73.8405C411.852 72.4965 412.524 71.8245 413.868 71.8245C415.19 71.8245 415.852 72.4965 415.852 73.8405V76.7525H419.244C420.31 76.7525 420.844 77.2539 420.844 78.2565C420.844 79.2592 420.31 79.7605 419.244 79.7605H415.852V86.3525C415.852 87.3765 416.076 88.1445 416.524 88.6565C416.972 89.1685 417.697 89.4245 418.7 89.4245C419.062 89.4245 419.382 89.3925 419.66 89.3285C419.937 89.2645 420.182 89.2219 420.396 89.2005C420.652 89.1792 420.865 89.2645 421.036 89.4565C421.206 89.6272 421.292 89.9899 421.292 90.5445C421.292 90.9712 421.217 91.3552 421.068 91.6965C420.94 92.0165 420.694 92.2405 420.332 92.3685C420.054 92.4539 419.692 92.5285 419.244 92.5925C418.796 92.6779 418.401 92.7205 418.06 92.7205ZM425.563 73.5525C424.816 73.5525 424.23 73.3712 423.803 73.0085C423.398 72.6245 423.195 72.1019 423.195 71.4405C423.195 70.7579 423.398 70.2352 423.803 69.8725C424.23 69.5099 424.816 69.3285 425.563 69.3285C427.142 69.3285 427.931 70.0325 427.931 71.4405C427.931 72.8485 427.142 73.5525 425.563 73.5525ZM425.563 92.6245C424.923 92.6245 424.432 92.4325 424.091 92.0485C423.75 91.6645 423.579 91.1312 423.579 90.4485V78.7045C423.579 77.2539 424.24 76.5285 425.563 76.5285C426.907 76.5285 427.579 77.2539 427.579 78.7045V90.4485C427.579 91.1312 427.408 91.6645 427.067 92.0485C426.726 92.4325 426.224 92.6245 425.563 92.6245ZM437.079 92.7205C433.517 92.7205 431.735 90.7259 431.735 86.7365V71.6005C431.735 70.2565 432.397 69.5845 433.719 69.5845C435.063 69.5845 435.735 70.2565 435.735 71.6005V86.5445C435.735 88.4645 436.535 89.4245 438.135 89.4245C438.306 89.4245 438.466 89.4245 438.615 89.4245C438.765 89.4032 438.914 89.3819 439.063 89.3605C439.362 89.3179 439.565 89.4032 439.671 89.6165C439.778 89.8085 439.831 90.2139 439.831 90.8325C439.831 91.3659 439.725 91.7819 439.511 92.0805C439.298 92.3792 438.946 92.5605 438.455 92.6245C438.007 92.6885 437.549 92.7205 437.079 92.7205ZM453.106 92.4005C451.719 92.4005 451.026 91.6965 451.026 90.2885V71.8245C451.026 70.4379 451.708 69.7445 453.074 69.7445C454.439 69.7445 455.122 70.4379 455.122 71.8245V88.9125H464.402C465.596 88.9125 466.194 89.4885 466.194 90.6405C466.194 91.8139 465.596 92.4005 464.402 92.4005H453.106ZM475.59 92.7205C473.969 92.7205 472.561 92.3899 471.366 91.7285C470.171 91.0672 469.243 90.1285 468.582 88.9125C467.921 87.6752 467.59 86.2245 467.59 84.5605C467.59 82.8965 467.921 81.4565 468.582 80.2405C469.243 79.0245 470.171 78.0859 471.366 77.4245C472.561 76.7632 473.969 76.4325 475.59 76.4325C477.211 76.4325 478.619 76.7632 479.814 77.4245C481.009 78.0859 481.937 79.0245 482.598 80.2405C483.259 81.4565 483.59 82.8965 483.59 84.5605C483.59 86.2245 483.259 87.6752 482.598 88.9125C481.937 90.1285 481.009 91.0672 479.814 91.7285C478.619 92.3899 477.211 92.7205 475.59 92.7205ZM475.59 89.6805C476.785 89.6805 477.745 89.2539 478.47 88.4005C479.195 87.5259 479.558 86.2459 479.558 84.5605C479.558 82.8539 479.195 81.5845 478.47 80.7525C477.745 79.8992 476.785 79.4725 475.59 79.4725C474.395 79.4725 473.435 79.8992 472.71 80.7525C471.985 81.5845 471.622 82.8539 471.622 84.5605C471.622 86.2459 471.985 87.5259 472.71 88.4005C473.435 89.2539 474.395 89.6805 475.59 89.6805ZM488.876 92.6565C487.553 92.6565 486.892 91.9739 486.892 90.6085V71.6005C486.892 70.2565 487.553 69.5845 488.876 69.5845C490.22 69.5845 490.892 70.2565 490.892 71.6005V83.4085H490.956L496.236 77.8405C496.662 77.4139 497.036 77.0832 497.356 76.8485C497.676 76.6139 498.113 76.4965 498.668 76.4965C499.222 76.4965 499.638 76.6459 499.916 76.9445C500.214 77.2219 500.364 77.5632 500.364 77.9685C500.364 78.3739 500.172 78.7792 499.788 79.1845L494.988 84.2405L500.332 90.0005C500.716 90.4059 500.886 90.8219 500.844 91.2485C500.822 91.6539 500.652 91.9952 500.332 92.2725C500.012 92.5285 499.606 92.6565 499.116 92.6565C498.518 92.6565 498.038 92.5392 497.676 92.3045C497.334 92.0699 496.95 91.7179 496.524 91.2485L490.956 85.4245H490.892V90.6085C490.892 91.9739 490.22 92.6565 488.876 92.6565ZM509.044 92.7205C507.913 92.7205 506.9 92.5072 506.004 92.0805C505.129 91.6325 504.436 91.0352 503.924 90.2885C503.433 89.5419 503.188 88.6992 503.188 87.7605C503.188 86.6085 503.486 85.7019 504.084 85.0405C504.681 84.3579 505.652 83.8672 506.996 83.5685C508.34 83.2699 510.142 83.1205 512.404 83.1205H513.524V82.4485C513.524 81.3819 513.289 80.6139 512.82 80.1445C512.35 79.6752 511.561 79.4405 510.452 79.4405C509.833 79.4405 509.161 79.5152 508.436 79.6645C507.732 79.8139 506.985 80.0699 506.196 80.4325C505.684 80.6672 505.257 80.6992 504.916 80.5285C504.574 80.3365 504.34 80.0485 504.212 79.6645C504.105 79.2592 504.126 78.8539 504.276 78.4485C504.446 78.0432 504.777 77.7445 505.268 77.5525C506.249 77.1472 507.188 76.8592 508.084 76.6885C509.001 76.5179 509.833 76.4325 510.58 76.4325C512.862 76.4325 514.558 76.9659 515.668 78.0325C516.777 79.0779 517.332 80.7099 517.332 82.9285V90.6085C517.332 91.9739 516.713 92.6565 515.476 92.6565C514.217 92.6565 513.588 91.9739 513.588 90.6085V89.9045C513.225 90.7792 512.649 91.4725 511.86 91.9845C511.07 92.4752 510.132 92.7205 509.044 92.7205ZM509.876 89.9685C510.921 89.9685 511.785 89.6059 512.468 88.8805C513.172 88.1552 513.524 87.2379 513.524 86.1285V85.4245H512.436C510.43 85.4245 509.033 85.5845 508.244 85.9045C507.476 86.2032 507.092 86.7579 507.092 87.5685C507.092 88.2725 507.337 88.8485 507.828 89.2965C508.318 89.7445 509.001 89.9685 509.876 89.9685ZM526.736 92.7205C523.173 92.7205 521.392 90.7259 521.392 86.7365V71.6005C521.392 70.2565 522.053 69.5845 523.376 69.5845C524.72 69.5845 525.392 70.2565 525.392 71.6005V86.5445C525.392 88.4645 526.192 89.4245 527.792 89.4245C527.962 89.4245 528.122 89.4245 528.272 89.4245C528.421 89.4032 528.57 89.3819 528.72 89.3605C529.018 89.3179 529.221 89.4032 529.328 89.6165C529.434 89.8085 529.488 90.2139 529.488 90.8325C529.488 91.3659 529.381 91.7819 529.168 92.0805C528.954 92.3792 528.602 92.5605 528.112 92.6245C527.664 92.6885 527.205 92.7205 526.736 92.7205ZM539.166 92.7205C537.395 92.7205 535.87 92.3899 534.59 91.7285C533.31 91.0672 532.318 90.1285 531.614 88.9125C530.931 87.6965 530.59 86.2565 530.59 84.5925C530.59 82.9712 530.921 81.5525 531.582 80.3365C532.265 79.1205 533.193 78.1712 534.366 77.4885C535.561 76.7845 536.915 76.4325 538.43 76.4325C540.649 76.4325 542.398 77.1365 543.678 78.5445C544.979 79.9525 545.63 81.8725 545.63 84.3045C545.63 85.0939 545.118 85.4885 544.094 85.4885H534.43C534.729 88.2832 536.329 89.6805 539.23 89.6805C539.785 89.6805 540.403 89.6165 541.086 89.4885C541.79 89.3392 542.451 89.0939 543.07 88.7525C543.625 88.4325 544.094 88.3365 544.478 88.4645C544.862 88.5712 545.129 88.7952 545.278 89.1365C545.449 89.4779 545.47 89.8619 545.342 90.2885C545.235 90.6939 544.937 91.0459 544.446 91.3445C543.699 91.8139 542.835 92.1659 541.854 92.4005C540.894 92.6139 539.998 92.7205 539.166 92.7205ZM538.59 79.1525C537.417 79.1525 536.467 79.5152 535.742 80.2405C535.017 80.9659 534.579 81.9472 534.43 83.1845H542.302C542.217 81.8832 541.854 80.8912 541.214 80.2085C540.595 79.5045 539.721 79.1525 538.59 79.1525ZM550.718 81.3285C549.993 81.3285 549.406 81.1045 548.958 80.6565C548.531 80.2085 548.318 79.6432 548.318 78.9605C548.318 78.2565 548.531 77.6912 548.958 77.2645C549.406 76.8165 549.993 76.5925 550.718 76.5925C551.465 76.5925 552.041 76.8165 552.446 77.2645C552.873 77.6912 553.086 78.2565 553.086 78.9605C553.086 79.6432 552.873 80.2085 552.446 80.6565C552.041 81.1045 551.465 81.3285 550.718 81.3285ZM550.718 92.5605C549.993 92.5605 549.406 92.3365 548.958 91.8885C548.531 91.4405 548.318 90.8645 548.318 90.1605C548.318 89.4779 548.531 88.9232 548.958 88.4965C549.406 88.0485 549.993 87.8245 550.718 87.8245C551.465 87.8245 552.041 88.0485 552.446 88.4965C552.873 88.9232 553.086 89.4779 553.086 90.1605C553.086 90.8645 552.873 91.4405 552.446 91.8885C552.041 92.3365 551.465 92.5605 550.718 92.5605ZM568.335 92.4005C567.162 92.4005 566.575 91.8245 566.575 90.6725C566.575 89.5632 567.162 89.0085 568.335 89.0085H571.919V74.5125L569.199 76.1445C568.687 76.4432 568.218 76.5179 567.791 76.3685C567.386 76.2192 567.076 75.9525 566.863 75.5685C566.65 75.1845 566.586 74.7685 566.671 74.3205C566.756 73.8512 567.055 73.4672 567.567 73.1685L571.983 70.5125C572.41 70.2565 572.836 70.0432 573.263 69.8725C573.69 69.6805 574.084 69.5845 574.447 69.5845C574.895 69.5845 575.268 69.7125 575.567 69.9685C575.866 70.2032 576.015 70.5979 576.015 71.1525V89.0085H579.279C580.452 89.0085 581.039 89.5632 581.039 90.6725C581.039 91.8245 580.452 92.4005 579.279 92.4005H568.335ZM586.53 92.5605C585.805 92.5605 585.218 92.3365 584.77 91.8885C584.344 91.4405 584.13 90.8645 584.13 90.1605C584.13 89.4779 584.344 88.9232 584.77 88.4965C585.218 88.0485 585.805 87.8245 586.53 87.8245C587.277 87.8245 587.853 88.0485 588.258 88.4965C588.685 88.9232 588.898 89.4779 588.898 90.1605C588.898 90.8645 588.685 91.4405 588.258 91.8885C587.853 92.3365 587.277 92.5605 586.53 92.5605ZM594.724 92.4005C594.041 92.4005 593.54 92.2512 593.22 91.9525C592.921 91.6325 592.772 91.1739 592.772 90.5765C592.772 90.2139 592.868 89.8619 593.06 89.5205C593.252 89.1792 593.529 88.8165 593.892 88.4325L600.324 81.5845C601.305 80.5605 602.009 79.6325 602.436 78.8005C602.863 77.9472 603.076 77.0939 603.076 76.2405C603.076 74.0645 601.764 72.9765 599.14 72.9765C598.415 72.9765 597.689 73.0832 596.964 73.2965C596.239 73.4885 595.503 73.8299 594.756 74.3205C594.287 74.6405 593.849 74.7365 593.444 74.6085C593.039 74.4805 592.729 74.2245 592.516 73.8405C592.303 73.4352 592.228 73.0085 592.292 72.5605C592.377 72.1125 592.655 71.7285 593.124 71.4085C594.041 70.7899 595.065 70.3205 596.196 70.0005C597.348 69.6805 598.5 69.5205 599.652 69.5205C602.063 69.5205 603.908 70.0645 605.188 71.1525C606.489 72.2405 607.14 73.7979 607.14 75.8245C607.14 77.1899 606.809 78.5019 606.148 79.7605C605.508 81.0192 604.495 82.3739 603.108 83.8245L598.148 89.0085H606.5C607.673 89.0085 608.26 89.5632 608.26 90.6725C608.26 91.8245 607.673 92.4005 606.5 92.4005H594.724ZM618.807 92.7205C617.655 92.7205 616.461 92.5712 615.223 92.2725C613.986 91.9739 612.909 91.5259 611.991 90.9285C611.458 90.5659 611.138 90.1605 611.031 89.7125C610.925 89.2432 610.978 88.8272 611.191 88.4645C611.405 88.0805 611.725 87.8245 612.151 87.6965C612.599 87.5685 613.101 87.6539 613.655 87.9525C614.53 88.4219 615.373 88.7632 616.183 88.9765C616.994 89.1685 617.826 89.2645 618.679 89.2645C621.559 89.2645 622.999 88.1339 622.999 85.8725C622.999 84.8059 622.637 84.0165 621.911 83.5045C621.207 82.9712 620.173 82.7045 618.807 82.7045H616.759C616.162 82.7045 615.703 82.5552 615.383 82.2565C615.085 81.9579 614.935 81.5419 614.935 81.0085C614.935 80.4752 615.085 80.0592 615.383 79.7605C615.703 79.4619 616.162 79.3125 616.759 79.3125H618.423C619.618 79.3125 620.567 79.0245 621.271 78.4485C621.975 77.8512 622.327 77.0299 622.327 75.9845C622.327 75.0032 621.997 74.2565 621.335 73.7445C620.695 73.2325 619.757 72.9765 618.519 72.9765C617.73 72.9765 616.983 73.0725 616.279 73.2645C615.597 73.4352 614.839 73.7659 614.007 74.2565C613.517 74.5552 613.069 74.6405 612.663 74.5125C612.258 74.3632 611.938 74.1072 611.703 73.7445C611.49 73.3605 611.426 72.9445 611.511 72.4965C611.597 72.0485 611.895 71.6645 612.407 71.3445C614.285 70.1285 616.439 69.5205 618.871 69.5205C621.218 69.5205 623.042 70.0539 624.343 71.1205C625.645 72.1659 626.295 73.6272 626.295 75.5045C626.295 76.7205 625.986 77.7872 625.367 78.7045C624.749 79.6219 623.906 80.2832 622.839 80.6885C624.141 81.0512 625.154 81.7232 625.879 82.7045C626.605 83.6645 626.967 84.8379 626.967 86.2245C626.967 88.2299 626.242 89.8192 624.791 90.9925C623.341 92.1445 621.346 92.7205 618.807 92.7205Z" fill="white"/>
<path d="M254.449 131.878C254.036 131.878 253.829 131.665 253.829 131.238V118.758H249.049C248.649 118.758 248.449 118.571 248.449 118.198C248.449 117.838 248.649 117.658 249.049 117.658H259.869C260.256 117.658 260.449 117.838 260.449 118.198C260.449 118.571 260.256 118.758 259.869 118.758H255.069V131.238C255.069 131.665 254.862 131.878 254.449 131.878ZM262.858 119.558C262.271 119.558 261.978 119.278 261.978 118.718C261.978 118.171 262.271 117.898 262.858 117.898C263.445 117.898 263.738 118.171 263.738 118.718C263.738 119.278 263.445 119.558 262.858 119.558ZM262.858 131.838C262.445 131.838 262.238 131.618 262.238 131.178V122.618C262.238 122.191 262.445 121.978 262.858 121.978C263.258 121.978 263.458 122.191 263.458 122.618V131.178C263.458 131.618 263.258 131.838 262.858 131.838ZM270.372 131.918C269.492 131.918 268.732 131.718 268.092 131.318C267.452 130.905 266.952 130.325 266.592 129.578C266.245 128.818 266.072 127.925 266.072 126.898C266.072 125.365 266.458 124.145 267.232 123.238C268.005 122.331 269.052 121.878 270.372 121.878C271.145 121.878 271.825 122.058 272.412 122.418C273.012 122.765 273.458 123.245 273.752 123.858V118.158C273.752 117.745 273.952 117.538 274.352 117.538C274.765 117.538 274.972 117.745 274.972 118.158V131.258C274.972 131.671 274.772 131.878 274.372 131.878C273.958 131.878 273.752 131.671 273.752 131.258V129.938C273.458 130.551 273.012 131.038 272.412 131.398C271.825 131.745 271.145 131.918 270.372 131.918ZM270.532 130.898C271.518 130.898 272.305 130.551 272.892 129.858C273.478 129.151 273.772 128.165 273.772 126.898C273.772 125.631 273.478 124.651 272.892 123.958C272.305 123.265 271.518 122.918 270.532 122.918C269.545 122.918 268.758 123.265 268.172 123.958C267.598 124.651 267.312 125.631 267.312 126.898C267.312 128.165 267.598 129.151 268.172 129.858C268.758 130.551 269.545 130.898 270.532 130.898ZM281.336 131.918C280.736 131.918 280.136 131.838 279.536 131.678C278.949 131.518 278.389 131.245 277.856 130.858C277.682 130.751 277.602 130.605 277.616 130.418C277.629 130.218 277.702 130.065 277.836 129.958C277.982 129.851 278.162 129.865 278.376 129.998C278.896 130.345 279.402 130.585 279.896 130.718C280.389 130.851 280.882 130.918 281.376 130.918C282.202 130.918 282.822 130.771 283.236 130.478C283.662 130.171 283.876 129.751 283.876 129.218C283.876 128.805 283.736 128.478 283.456 128.238C283.176 127.998 282.736 127.805 282.136 127.658L280.396 127.258C278.756 126.885 277.936 126.038 277.936 124.718C277.936 123.865 278.269 123.178 278.936 122.658C279.602 122.138 280.482 121.878 281.576 121.878C282.149 121.878 282.702 121.965 283.236 122.138C283.782 122.311 284.256 122.578 284.656 122.938C284.829 123.071 284.902 123.231 284.876 123.418C284.849 123.605 284.756 123.745 284.596 123.838C284.449 123.931 284.276 123.905 284.076 123.758C283.689 123.465 283.282 123.251 282.856 123.118C282.429 122.971 281.996 122.898 281.556 122.898C280.782 122.898 280.182 123.058 279.756 123.378C279.342 123.698 279.136 124.131 279.136 124.678C279.136 125.091 279.262 125.425 279.516 125.678C279.769 125.931 280.182 126.125 280.756 126.258L282.496 126.658C283.362 126.858 284.009 127.158 284.436 127.558C284.862 127.945 285.076 128.471 285.076 129.138C285.076 130.005 284.736 130.685 284.056 131.178C283.376 131.671 282.469 131.918 281.336 131.918ZM288.346 131.878C287.933 131.878 287.726 131.671 287.726 131.258V122.558C287.726 122.131 287.933 121.918 288.346 121.918C288.733 121.918 288.926 122.131 288.926 122.558V123.818C289.22 123.191 289.653 122.711 290.226 122.378C290.813 122.045 291.486 121.871 292.246 121.858C292.406 121.845 292.54 121.878 292.646 121.958C292.753 122.038 292.806 122.165 292.806 122.338C292.82 122.711 292.626 122.918 292.226 122.958L291.946 122.978C291 123.058 290.266 123.371 289.746 123.918C289.226 124.451 288.966 125.171 288.966 126.078V131.258C288.966 131.671 288.76 131.878 288.346 131.878ZM297.982 131.918C295.676 131.918 294.522 130.665 294.522 128.158V122.558C294.522 122.131 294.729 121.918 295.142 121.918C295.542 121.918 295.742 122.131 295.742 122.558V128.098C295.742 129.045 295.936 129.745 296.322 130.198C296.709 130.651 297.316 130.878 298.142 130.878C299.036 130.878 299.762 130.578 300.322 129.978C300.896 129.378 301.182 128.578 301.182 127.578V122.558C301.182 122.131 301.389 121.918 301.802 121.918C302.202 121.918 302.402 122.131 302.402 122.558V131.258C302.402 131.671 302.209 131.878 301.822 131.878C301.422 131.878 301.222 131.671 301.222 131.258V130.038C300.902 130.651 300.456 131.118 299.882 131.438C299.322 131.758 298.689 131.918 297.982 131.918ZM306.277 131.878C305.864 131.878 305.657 131.671 305.657 131.258V122.558C305.657 122.131 305.864 121.918 306.277 121.918C306.664 121.918 306.857 122.131 306.857 122.558V123.758C307.457 122.505 308.477 121.878 309.917 121.878C311.464 121.878 312.444 122.551 312.857 123.898C313.137 123.271 313.564 122.778 314.137 122.418C314.71 122.058 315.377 121.878 316.137 121.878C318.284 121.878 319.357 123.131 319.357 125.638V131.258C319.357 131.671 319.15 131.878 318.737 131.878C318.337 131.878 318.137 131.671 318.137 131.258V125.738C318.137 124.778 317.964 124.071 317.617 123.618C317.284 123.165 316.717 122.938 315.917 122.938C315.064 122.938 314.384 123.238 313.877 123.838C313.37 124.425 313.117 125.225 313.117 126.238V131.258C313.117 131.671 312.917 131.878 312.517 131.878C312.104 131.878 311.897 131.671 311.897 131.258V125.738C311.897 124.778 311.724 124.071 311.377 123.618C311.044 123.165 310.484 122.938 309.697 122.938C308.83 122.938 308.144 123.238 307.637 123.838C307.13 124.425 306.877 125.225 306.877 126.238V131.258C306.877 131.671 306.677 131.878 306.277 131.878ZM323.151 123.838C322.884 123.838 322.664 123.751 322.491 123.578C322.317 123.405 322.231 123.185 322.231 122.918C322.231 122.638 322.317 122.411 322.491 122.238C322.664 122.065 322.884 121.978 323.151 121.978C323.431 121.978 323.651 122.065 323.811 122.238C323.984 122.411 324.071 122.638 324.071 122.918C324.071 123.185 323.984 123.405 323.811 123.578C323.651 123.751 323.431 123.838 323.151 123.838ZM323.151 131.818C322.884 131.818 322.664 131.731 322.491 131.558C322.317 131.385 322.231 131.165 322.231 130.898C322.231 130.631 322.317 130.411 322.491 130.238C322.664 130.065 322.884 129.978 323.151 129.978C323.431 129.978 323.651 130.065 323.811 130.238C323.984 130.411 324.071 130.631 324.071 130.898C324.071 131.165 323.984 131.385 323.811 131.558C323.651 131.731 323.431 131.818 323.151 131.818ZM333.445 131.758C333.058 131.758 332.865 131.571 332.865 131.198C332.865 130.851 333.058 130.678 333.445 130.678H336.225V119.118L334.025 120.618C333.811 120.765 333.618 120.791 333.445 120.698C333.271 120.591 333.171 120.438 333.145 120.238C333.118 120.025 333.218 119.845 333.445 119.698L336.205 117.778C336.338 117.698 336.458 117.638 336.565 117.598C336.685 117.558 336.805 117.538 336.925 117.538C337.071 117.538 337.191 117.585 337.285 117.678C337.391 117.771 337.445 117.911 337.445 118.098V130.678H340.025C340.411 130.678 340.605 130.851 340.605 131.198C340.605 131.571 340.411 131.758 340.025 131.758H333.445ZM347.437 131.918C346.81 131.918 346.163 131.785 345.497 131.518C344.83 131.251 344.257 130.871 343.777 130.378C343.603 130.231 343.53 130.051 343.557 129.838C343.597 129.625 343.697 129.471 343.857 129.378C344.03 129.285 344.223 129.331 344.437 129.518C344.89 129.958 345.377 130.285 345.897 130.498C346.417 130.698 346.937 130.798 347.457 130.798C348.83 130.798 349.89 130.278 350.637 129.238C351.383 128.185 351.757 126.625 351.757 124.558V123.378C351.503 124.325 351.017 125.071 350.297 125.618C349.59 126.151 348.75 126.418 347.777 126.418C346.937 126.418 346.19 126.231 345.537 125.858C344.897 125.471 344.39 124.945 344.017 124.278C343.657 123.611 343.477 122.851 343.477 121.998C343.477 121.118 343.663 120.345 344.037 119.678C344.423 118.998 344.943 118.465 345.597 118.078C346.263 117.691 347.023 117.498 347.877 117.498C349.517 117.498 350.777 118.098 351.657 119.298C352.537 120.485 352.977 122.158 352.977 124.318C352.977 126.771 352.49 128.651 351.517 129.958C350.543 131.265 349.183 131.918 347.437 131.918ZM347.977 125.318C348.95 125.318 349.737 125.005 350.337 124.378C350.95 123.751 351.257 122.945 351.257 121.958C351.257 120.958 350.95 120.145 350.337 119.518C349.737 118.891 348.95 118.578 347.977 118.578C347.017 118.578 346.23 118.891 345.617 119.518C345.017 120.145 344.717 120.958 344.717 121.958C344.717 122.945 345.017 123.751 345.617 124.378C346.23 125.005 347.017 125.318 347.977 125.318ZM355.129 132.498C355.062 132.725 354.929 132.851 354.729 132.878C354.542 132.905 354.376 132.851 354.229 132.718C354.082 132.598 354.049 132.425 354.129 132.198L358.949 117.258C359.029 117.018 359.162 116.885 359.349 116.858C359.549 116.831 359.716 116.885 359.849 117.018C359.996 117.138 360.029 117.311 359.949 117.538L355.129 132.498ZM365.72 131.918C364.133 131.918 362.927 131.305 362.1 130.078C361.287 128.851 360.88 127.065 360.88 124.718C360.88 122.345 361.287 120.551 362.1 119.338C362.927 118.111 364.133 117.498 365.72 117.498C367.32 117.498 368.527 118.105 369.34 119.318C370.153 120.531 370.56 122.325 370.56 124.698C370.56 127.045 370.147 128.838 369.32 130.078C368.493 131.305 367.293 131.918 365.72 131.918ZM365.72 130.818C366.933 130.818 367.833 130.318 368.42 129.318C369.007 128.318 369.3 126.778 369.3 124.698C369.3 122.591 369.007 121.051 368.42 120.078C367.847 119.091 366.947 118.598 365.72 118.598C364.507 118.598 363.607 119.091 363.02 120.078C362.433 121.065 362.14 122.605 362.14 124.698C362.14 126.778 362.433 128.318 363.02 129.318C363.607 130.318 364.507 130.818 365.72 130.818ZM380.132 131.878C379.719 131.878 379.512 131.671 379.512 131.258V128.578H373.412C372.986 128.578 372.772 128.385 372.772 127.998C372.772 127.811 372.872 127.565 373.072 127.258L379.452 117.938C379.639 117.671 379.872 117.538 380.152 117.538C380.326 117.538 380.466 117.591 380.572 117.698C380.692 117.805 380.752 117.958 380.752 118.158V127.498H382.432C382.832 127.498 383.032 127.678 383.032 128.038C383.032 128.398 382.832 128.578 382.432 128.578H380.752V131.258C380.752 131.671 380.546 131.878 380.132 131.878ZM379.512 127.498V119.718L374.172 127.498H379.512ZM384.484 132.498C384.418 132.725 384.284 132.851 384.084 132.878C383.898 132.905 383.731 132.851 383.584 132.718C383.438 132.598 383.404 132.425 383.484 132.198L388.304 117.258C388.384 117.018 388.518 116.885 388.704 116.858C388.904 116.831 389.071 116.885 389.204 117.018C389.351 117.138 389.384 117.311 389.304 117.538L384.484 132.498ZM391.616 131.758C391.376 131.758 391.196 131.705 391.076 131.598C390.969 131.478 390.916 131.325 390.916 131.138C390.916 130.925 391.016 130.718 391.216 130.518L395.896 125.458C396.602 124.685 397.116 123.971 397.436 123.318C397.769 122.651 397.936 121.971 397.936 121.278C397.936 120.411 397.676 119.751 397.156 119.298C396.636 118.845 395.876 118.618 394.876 118.618C393.596 118.618 392.436 119.051 391.396 119.918C391.169 120.091 390.976 120.131 390.816 120.038C390.656 119.931 390.562 119.771 390.536 119.558C390.509 119.345 390.589 119.165 390.776 119.018C391.282 118.565 391.902 118.198 392.636 117.918C393.382 117.638 394.149 117.498 394.936 117.498C396.296 117.498 397.342 117.825 398.076 118.478C398.822 119.118 399.196 120.031 399.196 121.218C399.196 122.058 398.989 122.891 398.576 123.718C398.162 124.531 397.529 125.391 396.676 126.298L392.536 130.678H399.316C399.702 130.678 399.896 130.851 399.896 131.198C399.896 131.571 399.702 131.758 399.316 131.758H391.616ZM407.068 131.918C405.481 131.918 404.274 131.305 403.448 130.078C402.634 128.851 402.228 127.065 402.228 124.718C402.228 122.345 402.634 120.551 403.448 119.338C404.274 118.111 405.481 117.498 407.068 117.498C408.668 117.498 409.874 118.105 410.688 119.318C411.501 120.531 411.908 122.325 411.908 124.698C411.908 127.045 411.494 128.838 410.668 130.078C409.841 131.305 408.641 131.918 407.068 131.918ZM407.068 130.818C408.281 130.818 409.181 130.318 409.768 129.318C410.354 128.318 410.648 126.778 410.648 124.698C410.648 122.591 410.354 121.051 409.768 120.078C409.194 119.091 408.294 118.598 407.068 118.598C405.854 118.598 404.954 119.091 404.368 120.078C403.781 121.065 403.488 122.605 403.488 124.698C403.488 126.778 403.781 128.318 404.368 129.318C404.954 130.318 405.854 130.818 407.068 130.818ZM415.6 131.758C415.36 131.758 415.18 131.705 415.06 131.598C414.953 131.478 414.9 131.325 414.9 131.138C414.9 130.925 415 130.718 415.2 130.518L419.88 125.458C420.587 124.685 421.1 123.971 421.42 123.318C421.753 122.651 421.92 121.971 421.92 121.278C421.92 120.411 421.66 119.751 421.14 119.298C420.62 118.845 419.86 118.618 418.86 118.618C417.58 118.618 416.42 119.051 415.38 119.918C415.153 120.091 414.96 120.131 414.8 120.038C414.64 119.931 414.547 119.771 414.52 119.558C414.493 119.345 414.573 119.165 414.76 119.018C415.267 118.565 415.887 118.198 416.62 117.918C417.367 117.638 418.133 117.498 418.92 117.498C420.28 117.498 421.327 117.825 422.06 118.478C422.807 119.118 423.18 120.031 423.18 121.218C423.18 122.058 422.973 122.891 422.56 123.718C422.147 124.531 421.513 125.391 420.66 126.298L416.52 130.678H423.3C423.687 130.678 423.88 130.851 423.88 131.198C423.88 131.571 423.687 131.758 423.3 131.758H415.6ZM431.052 131.918C429.465 131.918 428.259 131.305 427.432 130.078C426.619 128.851 426.212 127.065 426.212 124.718C426.212 122.345 426.619 120.551 427.432 119.338C428.259 118.111 429.465 117.498 431.052 117.498C432.652 117.498 433.859 118.105 434.672 119.318C435.485 120.531 435.892 122.325 435.892 124.698C435.892 127.045 435.479 128.838 434.652 130.078C433.825 131.305 432.625 131.918 431.052 131.918ZM431.052 130.818C432.265 130.818 433.165 130.318 433.752 129.318C434.339 128.318 434.632 126.778 434.632 124.698C434.632 122.591 434.339 121.051 433.752 120.078C433.179 119.091 432.279 118.598 431.052 118.598C429.839 118.598 428.939 119.091 428.352 120.078C427.765 121.065 427.472 122.605 427.472 124.698C427.472 126.778 427.765 128.318 428.352 129.318C428.939 130.318 429.839 130.818 431.052 130.818ZM438.944 126.958C438.784 126.958 438.651 126.911 438.544 126.818C438.451 126.711 438.404 126.585 438.404 126.438C438.404 126.291 438.451 126.171 438.544 126.078C438.651 125.971 438.784 125.918 438.944 125.918H443.564C443.711 125.918 443.831 125.971 443.924 126.078C444.031 126.171 444.084 126.291 444.084 126.438C444.084 126.585 444.031 126.711 443.924 126.818C443.831 126.911 443.711 126.958 443.564 126.958H438.944ZM448.523 131.758C448.136 131.758 447.943 131.571 447.943 131.198C447.943 130.851 448.136 130.678 448.523 130.678H451.303V119.118L449.103 120.618C448.889 120.765 448.696 120.791 448.523 120.698C448.349 120.591 448.249 120.438 448.223 120.238C448.196 120.025 448.296 119.845 448.523 119.698L451.283 117.778C451.416 117.698 451.536 117.638 451.643 117.598C451.763 117.558 451.883 117.538 452.003 117.538C452.149 117.538 452.269 117.585 452.363 117.678C452.469 117.771 452.523 117.911 452.523 118.098V130.678H455.103C455.489 130.678 455.683 130.851 455.683 131.198C455.683 131.571 455.489 131.758 455.103 131.758H448.523ZM462.515 131.918C461.888 131.918 461.242 131.785 460.575 131.518C459.908 131.251 459.335 130.871 458.855 130.378C458.682 130.231 458.608 130.051 458.635 129.838C458.675 129.625 458.775 129.471 458.935 129.378C459.108 129.285 459.302 129.331 459.515 129.518C459.968 129.958 460.455 130.285 460.975 130.498C461.495 130.698 462.015 130.798 462.535 130.798C463.908 130.798 464.968 130.278 465.715 129.238C466.462 128.185 466.835 126.625 466.835 124.558V123.378C466.582 124.325 466.095 125.071 465.375 125.618C464.668 126.151 463.828 126.418 462.855 126.418C462.015 126.418 461.268 126.231 460.615 125.858C459.975 125.471 459.468 124.945 459.095 124.278C458.735 123.611 458.555 122.851 458.555 121.998C458.555 121.118 458.742 120.345 459.115 119.678C459.502 118.998 460.022 118.465 460.675 118.078C461.342 117.691 462.102 117.498 462.955 117.498C464.595 117.498 465.855 118.098 466.735 119.298C467.615 120.485 468.055 122.158 468.055 124.318C468.055 126.771 467.568 128.651 466.595 129.958C465.622 131.265 464.262 131.918 462.515 131.918ZM463.055 125.318C464.028 125.318 464.815 125.005 465.415 124.378C466.028 123.751 466.335 122.945 466.335 121.958C466.335 120.958 466.028 120.145 465.415 119.518C464.815 118.891 464.028 118.578 463.055 118.578C462.095 118.578 461.308 118.891 460.695 119.518C460.095 120.145 459.795 120.958 459.795 121.958C459.795 122.945 460.095 123.751 460.695 124.378C461.308 125.005 462.095 125.318 463.055 125.318ZM470.207 132.498C470.14 132.725 470.007 132.851 469.807 132.878C469.62 132.905 469.454 132.851 469.307 132.718C469.16 132.598 469.127 132.425 469.207 132.198L474.027 117.258C474.107 117.018 474.24 116.885 474.427 116.858C474.627 116.831 474.794 116.885 474.927 117.018C475.074 117.138 475.107 117.311 475.027 117.538L470.207 132.498ZM480.798 131.918C479.211 131.918 478.005 131.305 477.178 130.078C476.365 128.851 475.958 127.065 475.958 124.718C475.958 122.345 476.365 120.551 477.178 119.338C478.005 118.111 479.211 117.498 480.798 117.498C482.398 117.498 483.605 118.105 484.418 119.318C485.231 120.531 485.638 122.325 485.638 124.698C485.638 127.045 485.225 128.838 484.398 130.078C483.571 131.305 482.371 131.918 480.798 131.918ZM480.798 130.818C482.011 130.818 482.911 130.318 483.498 129.318C484.085 128.318 484.378 126.778 484.378 124.698C484.378 122.591 484.085 121.051 483.498 120.078C482.925 119.091 482.025 118.598 480.798 118.598C479.585 118.598 478.685 119.091 478.098 120.078C477.511 121.065 477.218 122.605 477.218 124.698C477.218 126.778 477.511 128.318 478.098 129.318C478.685 130.318 479.585 130.818 480.798 130.818ZM491.87 131.918C491.244 131.918 490.597 131.785 489.93 131.518C489.264 131.251 488.69 130.871 488.21 130.378C488.037 130.231 487.964 130.051 487.99 129.838C488.03 129.625 488.13 129.471 488.29 129.378C488.464 129.285 488.657 129.331 488.87 129.518C489.324 129.958 489.81 130.285 490.33 130.498C490.85 130.698 491.37 130.798 491.89 130.798C493.264 130.798 494.324 130.278 495.07 129.238C495.817 128.185 496.19 126.625 496.19 124.558V123.378C495.937 124.325 495.45 125.071 494.73 125.618C494.024 126.151 493.184 126.418 492.21 126.418C491.37 126.418 490.624 126.231 489.97 125.858C489.33 125.471 488.824 124.945 488.45 124.278C488.09 123.611 487.91 122.851 487.91 121.998C487.91 121.118 488.097 120.345 488.47 119.678C488.857 118.998 489.377 118.465 490.03 118.078C490.697 117.691 491.457 117.498 492.31 117.498C493.95 117.498 495.21 118.098 496.09 119.298C496.97 120.485 497.41 122.158 497.41 124.318C497.41 126.771 496.924 128.651 495.95 129.958C494.977 131.265 493.617 131.918 491.87 131.918ZM492.41 125.318C493.384 125.318 494.17 125.005 494.77 124.378C495.384 123.751 495.69 122.945 495.69 121.958C495.69 120.958 495.384 120.145 494.77 119.518C494.17 118.891 493.384 118.578 492.41 118.578C491.45 118.578 490.664 118.891 490.05 119.518C489.45 120.145 489.15 120.958 489.15 121.958C489.15 122.945 489.45 123.751 490.05 124.378C490.664 125.005 491.45 125.318 492.41 125.318ZM499.563 132.498C499.496 132.725 499.363 132.851 499.163 132.878C498.976 132.905 498.809 132.851 498.663 132.718C498.516 132.598 498.483 132.425 498.563 132.198L503.383 117.258C503.463 117.018 503.596 116.885 503.783 116.858C503.983 116.831 504.149 116.885 504.283 117.018C504.429 117.138 504.463 117.311 504.383 117.538L499.563 132.498ZM506.694 131.758C506.454 131.758 506.274 131.705 506.154 131.598C506.047 131.478 505.994 131.325 505.994 131.138C505.994 130.925 506.094 130.718 506.294 130.518L510.974 125.458C511.68 124.685 512.194 123.971 512.514 123.318C512.847 122.651 513.014 121.971 513.014 121.278C513.014 120.411 512.754 119.751 512.234 119.298C511.714 118.845 510.954 118.618 509.954 118.618C508.674 118.618 507.514 119.051 506.474 119.918C506.247 120.091 506.054 120.131 505.894 120.038C505.734 119.931 505.64 119.771 505.614 119.558C505.587 119.345 505.667 119.165 505.854 119.018C506.36 118.565 506.98 118.198 507.714 117.918C508.46 117.638 509.227 117.498 510.014 117.498C511.374 117.498 512.42 117.825 513.154 118.478C513.9 119.118 514.274 120.031 514.274 121.218C514.274 122.058 514.067 122.891 513.654 123.718C513.24 124.531 512.607 125.391 511.754 126.298L507.614 130.678H514.394C514.78 130.678 514.974 130.851 514.974 131.198C514.974 131.571 514.78 131.758 514.394 131.758H506.694ZM522.146 131.918C520.559 131.918 519.352 131.305 518.526 130.078C517.712 128.851 517.306 127.065 517.306 124.718C517.306 122.345 517.712 120.551 518.526 119.338C519.352 118.111 520.559 117.498 522.146 117.498C523.746 117.498 524.952 118.105 525.766 119.318C526.579 120.531 526.986 122.325 526.986 124.698C526.986 127.045 526.572 128.838 525.746 130.078C524.919 131.305 523.719 131.918 522.146 131.918ZM522.146 130.818C523.359 130.818 524.259 130.318 524.846 129.318C525.432 128.318 525.726 126.778 525.726 124.698C525.726 122.591 525.432 121.051 524.846 120.078C524.272 119.091 523.372 118.598 522.146 118.598C520.932 118.598 520.032 119.091 519.446 120.078C518.859 121.065 518.566 122.605 518.566 124.698C518.566 126.778 518.859 128.318 519.446 129.318C520.032 130.318 520.932 130.818 522.146 130.818ZM530.678 131.758C530.438 131.758 530.258 131.705 530.138 131.598C530.031 131.478 529.978 131.325 529.978 131.138C529.978 130.925 530.078 130.718 530.278 130.518L534.958 125.458C535.665 124.685 536.178 123.971 536.498 123.318C536.831 122.651 536.998 121.971 536.998 121.278C536.998 120.411 536.738 119.751 536.218 119.298C535.698 118.845 534.938 118.618 533.938 118.618C532.658 118.618 531.498 119.051 530.458 119.918C530.231 120.091 530.038 120.131 529.878 120.038C529.718 119.931 529.625 119.771 529.598 119.558C529.571 119.345 529.651 119.165 529.838 119.018C530.345 118.565 530.965 118.198 531.698 117.918C532.445 117.638 533.211 117.498 533.998 117.498C535.358 117.498 536.405 117.825 537.138 118.478C537.885 119.118 538.258 120.031 538.258 121.218C538.258 122.058 538.051 122.891 537.638 123.718C537.225 124.531 536.591 125.391 535.738 126.298L531.598 130.678H538.378C538.765 130.678 538.958 130.851 538.958 131.198C538.958 131.571 538.765 131.758 538.378 131.758H530.678ZM546.13 131.918C544.544 131.918 543.337 131.305 542.51 130.078C541.697 128.851 541.29 127.065 541.29 124.718C541.29 122.345 541.697 120.551 542.51 119.338C543.337 118.111 544.544 117.498 546.13 117.498C547.73 117.498 548.937 118.105 549.75 119.318C550.564 120.531 550.97 122.325 550.97 124.698C550.97 127.045 550.557 128.838 549.73 130.078C548.904 131.305 547.704 131.918 546.13 131.918ZM546.13 130.818C547.344 130.818 548.244 130.318 548.83 129.318C549.417 128.318 549.71 126.778 549.71 124.698C549.71 122.591 549.417 121.051 548.83 120.078C548.257 119.091 547.357 118.598 546.13 118.598C544.917 118.598 544.017 119.091 543.43 120.078C542.844 121.065 542.55 122.605 542.55 124.698C542.55 126.778 542.844 128.318 543.43 129.318C544.017 130.318 544.917 130.818 546.13 130.818Z" fill="white"/>
<path d="M520.387 31C519.64 31 519.267 30.6267 519.267 29.88V18.02C519.267 17.2733 519.64 16.9 520.387 16.9H524.247C526.567 16.9 528.354 17.5067 529.607 18.72C530.874 19.9333 531.507 21.6733 531.507 23.94C531.507 26.2067 530.874 27.9533 529.607 29.18C528.354 30.3933 526.567 31 524.247 31H520.387ZM521.347 29.26H524.127C527.607 29.26 529.347 27.4867 529.347 23.94C529.347 20.4067 527.607 18.64 524.127 18.64H521.347V29.26ZM534.304 31.08C533.904 31.08 533.584 30.96 533.344 30.72C533.118 30.48 533.004 30.1733 533.004 29.8C533.004 29.4267 533.118 29.1267 533.344 28.9C533.584 28.66 533.904 28.54 534.304 28.54C534.691 28.54 534.998 28.66 535.224 28.9C535.451 29.1267 535.564 29.4267 535.564 29.8C535.564 30.1733 535.451 30.48 535.224 30.72C534.998 30.96 534.691 31.08 534.304 31.08ZM545.024 31C544.424 31 544.124 30.7067 544.124 30.12C544.124 29.5467 544.424 29.26 545.024 29.26H547.464V19.28L545.584 20.48C545.33 20.64 545.09 20.6867 544.864 20.62C544.65 20.54 544.484 20.4 544.364 20.2C544.257 20 544.224 19.7867 544.264 19.56C544.317 19.32 544.47 19.12 544.724 18.96L547.484 17.22C547.71 17.0867 547.924 16.98 548.124 16.9C548.337 16.8067 548.537 16.76 548.724 16.76C548.95 16.76 549.137 16.8267 549.284 16.96C549.444 17.0933 549.524 17.3 549.524 17.58V29.26H551.764C552.377 29.26 552.684 29.5467 552.684 30.12C552.684 30.7067 552.377 31 551.764 31H545.024ZM558.876 31.18C558.289 31.18 557.676 31.0733 557.036 30.86C556.409 30.6467 555.836 30.34 555.316 29.94C555.103 29.78 554.983 29.5867 554.956 29.36C554.929 29.1333 554.969 28.9267 555.076 28.74C555.183 28.54 555.336 28.4067 555.536 28.34C555.749 28.2733 555.983 28.32 556.236 28.48C556.689 28.8133 557.136 29.0533 557.576 29.2C558.029 29.3467 558.476 29.42 558.916 29.42C560.156 29.42 561.103 28.9733 561.756 28.08C562.423 27.1733 562.756 25.8267 562.756 24.04V23.24C562.489 24.0533 562.023 24.6933 561.356 25.16C560.703 25.6133 559.943 25.84 559.076 25.84C558.249 25.84 557.516 25.6467 556.876 25.26C556.249 24.8733 555.756 24.3467 555.396 23.68C555.036 23 554.856 22.2267 554.856 21.36C554.856 20.4533 555.049 19.6533 555.436 18.96C555.823 18.2533 556.356 17.7067 557.036 17.32C557.729 16.92 558.523 16.72 559.416 16.72C561.123 16.72 562.436 17.3267 563.356 18.54C564.289 19.7533 564.756 21.4533 564.756 23.64C564.756 26.0533 564.236 27.9133 563.196 29.22C562.156 30.5267 560.716 31.18 558.876 31.18ZM559.556 24.14C560.369 24.14 561.029 23.8733 561.536 23.34C562.043 22.8067 562.296 22.1133 562.296 21.26C562.296 20.4067 562.043 19.7133 561.536 19.18C561.029 18.6467 560.369 18.38 559.556 18.38C558.743 18.38 558.083 18.6467 557.576 19.18C557.069 19.7133 556.816 20.4067 556.816 21.26C556.816 22.1133 557.069 22.8067 557.576 23.34C558.083 23.8733 558.743 24.14 559.556 24.14ZM567.308 31.64C567.215 31.9067 567.068 32.08 566.868 32.16C566.682 32.2533 566.482 32.2667 566.268 32.2C566.068 32.1467 565.915 32.0267 565.808 31.84C565.688 31.6667 565.668 31.44 565.748 31.16L570.448 16.6C570.528 16.3333 570.668 16.16 570.868 16.08C571.068 15.9867 571.268 15.9733 571.468 16.04C571.682 16.0933 571.842 16.2133 571.948 16.4C572.068 16.5733 572.088 16.7933 572.008 17.06L567.308 31.64ZM580.166 31.14C579.846 31.14 579.592 31.0533 579.406 30.88C579.219 30.6933 579.126 30.44 579.126 30.12V28.14H573.766C573.432 28.14 573.166 28.0667 572.966 27.92C572.766 27.7733 572.666 27.5533 572.666 27.26C572.666 27.0733 572.712 26.88 572.806 26.68C572.899 26.48 573.052 26.22 573.266 25.9L579.086 17.44C579.232 17.2133 579.399 17.0467 579.586 16.94C579.772 16.82 579.986 16.76 580.226 16.76C580.506 16.76 580.732 16.8467 580.906 17.02C581.092 17.18 581.186 17.4333 581.186 17.78V26.4H582.446C583.072 26.4 583.386 26.6867 583.386 27.26C583.386 27.8467 583.072 28.14 582.446 28.14H581.186V30.12C581.186 30.8 580.846 31.14 580.166 31.14ZM579.126 26.4V20.12L574.826 26.4H579.126ZM585.238 31.64C585.145 31.9067 584.998 32.08 584.798 32.16C584.611 32.2533 584.411 32.2667 584.198 32.2C583.998 32.1467 583.845 32.0267 583.738 31.84C583.618 31.6667 583.598 31.44 583.678 31.16L588.378 16.6C588.458 16.3333 588.598 16.16 588.798 16.08C588.998 15.9867 589.198 15.9733 589.398 16.04C589.611 16.0933 589.771 16.2133 589.878 16.4C589.998 16.5733 590.018 16.7933 589.938 17.06L585.238 31.64ZM592.395 31C591.715 31 591.375 30.6867 591.375 30.06C591.375 29.7267 591.555 29.3667 591.915 28.98L596.175 24.42C596.829 23.7267 597.295 23.0933 597.575 22.52C597.869 21.9333 598.015 21.3467 598.015 20.76C598.015 19.24 597.122 18.48 595.335 18.48C594.802 18.48 594.282 18.56 593.775 18.72C593.282 18.88 592.795 19.14 592.315 19.5C592.075 19.6733 591.849 19.7333 591.635 19.68C591.435 19.6133 591.275 19.48 591.155 19.28C591.049 19.08 591.009 18.8667 591.035 18.64C591.075 18.4 591.215 18.1933 591.455 18.02C592.002 17.6067 592.635 17.2867 593.355 17.06C594.075 16.8333 594.809 16.72 595.555 16.72C597.009 16.72 598.122 17.0533 598.895 17.72C599.682 18.3867 600.075 19.34 600.075 20.58C600.075 21.42 599.869 22.24 599.455 23.04C599.055 23.84 598.422 24.6933 597.555 25.6L594.055 29.26H599.875C600.489 29.26 600.795 29.5467 600.795 30.12C600.795 30.7067 600.489 31 599.875 31H592.395ZM607.768 31.18C606.128 31.18 604.874 30.56 604.008 29.32C603.154 28.0667 602.728 26.2733 602.728 23.94C602.728 21.5667 603.154 19.7733 604.008 18.56C604.874 17.3333 606.128 16.72 607.768 16.72C609.421 16.72 610.674 17.3333 611.528 18.56C612.381 19.7733 612.808 21.56 612.808 23.92C612.808 26.2667 612.374 28.0667 611.508 29.32C610.654 30.56 609.408 31.18 607.768 31.18ZM607.768 29.46C608.781 29.46 609.534 29.0133 610.028 28.12C610.521 27.2133 610.768 25.8133 610.768 23.92C610.768 22.0133 610.521 20.6267 610.028 19.76C609.548 18.88 608.794 18.44 607.768 18.44C606.754 18.44 606.001 18.88 605.508 19.76C605.014 20.64 604.768 22.0267 604.768 23.92C604.768 25.8133 605.014 27.2133 605.508 28.12C606.001 29.0133 606.754 29.46 607.768 29.46ZM616.38 31C615.7 31 615.36 30.6867 615.36 30.06C615.36 29.7267 615.54 29.3667 615.9 28.98L620.16 24.42C620.813 23.7267 621.28 23.0933 621.56 22.52C621.853 21.9333 622 21.3467 622 20.76C622 19.24 621.106 18.48 619.32 18.48C618.786 18.48 618.266 18.56 617.76 18.72C617.266 18.88 616.78 19.14 616.3 19.5C616.06 19.6733 615.833 19.7333 615.62 19.68C615.42 19.6133 615.26 19.48 615.14 19.28C615.033 19.08 614.993 18.8667 615.02 18.64C615.06 18.4 615.2 18.1933 615.44 18.02C615.986 17.6067 616.62 17.2867 617.34 17.06C618.06 16.8333 618.793 16.72 619.54 16.72C620.993 16.72 622.106 17.0533 622.88 17.72C623.666 18.3867 624.06 19.34 624.06 20.58C624.06 21.42 623.853 22.24 623.44 23.04C623.04 23.84 622.406 24.6933 621.54 25.6L618.04 29.26H623.86C624.473 29.26 624.78 29.5467 624.78 30.12C624.78 30.7067 624.473 31 623.86 31H616.38ZM631.752 31.18C630.112 31.18 628.859 30.56 627.992 29.32C627.139 28.0667 626.712 26.2733 626.712 23.94C626.712 21.5667 627.139 19.7733 627.992 18.56C628.859 17.3333 630.112 16.72 631.752 16.72C633.405 16.72 634.659 17.3333 635.512 18.56C636.365 19.7733 636.792 21.56 636.792 23.92C636.792 26.2667 636.359 28.0667 635.492 29.32C634.639 30.56 633.392 31.18 631.752 31.18ZM631.752 29.46C632.765 29.46 633.519 29.0133 634.012 28.12C634.505 27.2133 634.752 25.8133 634.752 23.92C634.752 22.0133 634.505 20.6267 634.012 19.76C633.532 18.88 632.779 18.44 631.752 18.44C630.739 18.44 629.985 18.88 629.492 19.76C628.999 20.64 628.752 22.0267 628.752 23.92C628.752 25.8133 628.999 27.2133 629.492 28.12C629.985 29.0133 630.739 29.46 631.752 29.46ZM645.438 31.14C644.771 31.14 644.438 30.8 644.438 30.12V17.78C644.438 17.1 644.771 16.76 645.438 16.76C646.118 16.76 646.458 17.1 646.458 17.78V25.5H646.498L650.238 21.78C650.451 21.5667 650.644 21.4 650.818 21.28C650.991 21.16 651.218 21.1 651.498 21.1C651.911 21.1 652.178 21.2533 652.298 21.56C652.431 21.8667 652.351 22.1733 652.058 22.48L648.558 25.94L652.418 29.76C652.631 29.9733 652.731 30.1867 652.718 30.4C652.704 30.6133 652.618 30.7933 652.458 30.94C652.298 31.0733 652.098 31.14 651.858 31.14C651.551 31.14 651.304 31.08 651.118 30.96C650.944 30.84 650.738 30.66 650.498 30.42L646.498 26.54H646.458V30.12C646.458 30.8 646.118 31.14 645.438 31.14ZM657.89 31.18C656.85 31.18 656.063 30.88 655.53 30.28C655.01 29.68 654.75 28.8 654.75 27.64V17.78C654.75 17.1 655.083 16.76 655.75 16.76C656.43 16.76 656.77 17.1 656.77 17.78V27.52C656.77 28.84 657.303 29.5 658.37 29.5C658.49 29.5 658.597 29.4933 658.69 29.48C658.783 29.4667 658.877 29.46 658.97 29.46C659.13 29.4467 659.243 29.4933 659.31 29.6C659.377 29.6933 659.41 29.8933 659.41 30.2C659.41 30.7467 659.157 31.06 658.65 31.14C658.517 31.1533 658.383 31.16 658.25 31.16C658.13 31.1733 658.01 31.18 657.89 31.18ZM662.039 31.08C661.639 31.08 661.319 30.96 661.079 30.72C660.852 30.48 660.739 30.1733 660.739 29.8C660.739 29.4267 660.852 29.1267 661.079 28.9C661.319 28.66 661.639 28.54 662.039 28.54C662.425 28.54 662.732 28.66 662.959 28.9C663.185 29.1267 663.299 29.4267 663.299 29.8C663.299 30.1733 663.185 30.48 662.959 30.72C662.732 30.96 662.425 31.08 662.039 31.08ZM672.758 31C672.158 31 671.858 30.7067 671.858 30.12C671.858 29.5467 672.158 29.26 672.758 29.26H675.198V19.28L673.318 20.48C673.065 20.64 672.825 20.6867 672.598 20.62C672.385 20.54 672.218 20.4 672.098 20.2C671.992 20 671.958 19.7867 671.998 19.56C672.052 19.32 672.205 19.12 672.458 18.96L675.218 17.22C675.445 17.0867 675.658 16.98 675.858 16.9C676.072 16.8067 676.272 16.76 676.458 16.76C676.685 16.76 676.872 16.8267 677.018 16.96C677.178 17.0933 677.258 17.3 677.258 17.58V29.26H679.498C680.112 29.26 680.418 29.5467 680.418 30.12C680.418 30.7067 680.112 31 679.498 31H672.758ZM684.75 31C684.15 31 683.85 30.7067 683.85 30.12C683.85 29.5467 684.15 29.26 684.75 29.26H687.19V19.28L685.31 20.48C685.057 20.64 684.817 20.6867 684.59 20.62C684.377 20.54 684.21 20.4 684.09 20.2C683.984 20 683.95 19.7867 683.99 19.56C684.044 19.32 684.197 19.12 684.45 18.96L687.21 17.22C687.437 17.0867 687.65 16.98 687.85 16.9C688.064 16.8067 688.264 16.76 688.45 16.76C688.677 16.76 688.864 16.8267 689.01 16.96C689.17 17.0933 689.25 17.3 689.25 17.58V29.26H691.49C692.104 29.26 692.41 29.5467 692.41 30.12C692.41 30.7067 692.104 31 691.49 31H684.75ZM696.043 23.7C695.643 23.7 695.323 23.58 695.083 23.34C694.856 23.1 694.743 22.8 694.743 22.44C694.743 22.0533 694.856 21.7467 695.083 21.52C695.323 21.28 695.643 21.16 696.043 21.16C696.429 21.16 696.736 21.28 696.963 21.52C697.189 21.7467 697.303 22.0533 697.303 22.44C697.303 22.8 697.189 23.1 696.963 23.34C696.736 23.58 696.429 23.7 696.043 23.7ZM696.043 31.08C695.643 31.08 695.323 30.96 695.083 30.72C694.856 30.48 694.743 30.1733 694.743 29.8C694.743 29.4267 694.856 29.1267 695.083 28.9C695.323 28.66 695.643 28.54 696.043 28.54C696.429 28.54 696.736 28.66 696.963 28.9C697.189 29.1267 697.303 29.4267 697.303 29.8C697.303 30.1733 697.189 30.48 696.963 30.72C696.736 30.96 696.429 31.08 696.043 31.08ZM704.169 31.18C703.422 31.18 702.655 31.08 701.869 30.88C701.095 30.68 700.429 30.3667 699.869 29.94C699.602 29.7667 699.442 29.56 699.389 29.32C699.335 29.08 699.362 28.8667 699.469 28.68C699.575 28.48 699.742 28.3467 699.969 28.28C700.195 28.2133 700.449 28.2667 700.729 28.44C701.302 28.7867 701.862 29.04 702.409 29.2C702.955 29.3467 703.522 29.42 704.109 29.42C705.069 29.42 705.795 29.2133 706.289 28.8C706.795 28.3867 707.049 27.7933 707.049 27.02C707.049 26.2467 706.795 25.6733 706.289 25.3C705.795 24.9267 705.075 24.74 704.129 24.74H702.769C702.142 24.74 701.829 24.4467 701.829 23.86C701.829 23.2867 702.142 23 702.769 23H703.929C704.769 23 705.429 22.7867 705.909 22.36C706.402 21.9333 706.649 21.3467 706.649 20.6C706.649 19.92 706.422 19.4 705.969 19.04C705.515 18.6667 704.869 18.48 704.029 18.48C703.469 18.48 702.949 18.5533 702.469 18.7C701.989 18.8467 701.489 19.1067 700.969 19.48C700.715 19.64 700.482 19.6933 700.269 19.64C700.055 19.5733 699.889 19.4467 699.769 19.26C699.662 19.06 699.629 18.8467 699.669 18.62C699.709 18.38 699.855 18.1733 700.109 18C700.669 17.5867 701.295 17.2733 701.989 17.06C702.695 16.8333 703.429 16.72 704.189 16.72C705.602 16.72 706.702 17.0467 707.489 17.7C708.275 18.34 708.669 19.2333 708.669 20.38C708.669 21.1533 708.469 21.8333 708.069 22.42C707.682 23.0067 707.142 23.4333 706.449 23.7C707.289 23.9133 707.935 24.3267 708.389 24.94C708.842 25.54 709.069 26.28 709.069 27.16C709.069 28.4 708.629 29.38 707.749 30.1C706.882 30.82 705.689 31.18 704.169 31.18ZM718.701 31.14C718.381 31.14 718.128 31.0533 717.941 30.88C717.754 30.6933 717.661 30.44 717.661 30.12V28.14H712.301C711.968 28.14 711.701 28.0667 711.501 27.92C711.301 27.7733 711.201 27.5533 711.201 27.26C711.201 27.0733 711.248 26.88 711.341 26.68C711.434 26.48 711.588 26.22 711.801 25.9L717.621 17.44C717.768 17.2133 717.934 17.0467 718.121 16.94C718.308 16.82 718.521 16.76 718.761 16.76C719.041 16.76 719.268 16.8467 719.441 17.02C719.628 17.18 719.721 17.4333 719.721 17.78V26.4H720.981C721.608 26.4 721.921 26.6867 721.921 27.26C721.921 27.8467 721.608 28.14 720.981 28.14H719.721V30.12C719.721 30.8 719.381 31.14 718.701 31.14ZM717.661 26.4V20.12L713.361 26.4H717.661Z" fill="white" fill-opacity="0.56"/>
<path d="M499.999 35.1556C493.364 35.1556 488 29.7915 488 23.157C488 16.5225 493.364 11.1584 499.999 11.1584C506.633 11.1584 511.997 16.5225 511.997 23.157C511.997 29.7915 506.633 35.1556 499.999 35.1556ZM499.999 12.57C494.14 12.57 489.412 17.2989 489.412 23.157C489.412 29.0151 494.14 33.744 499.999 33.744C505.857 33.744 510.586 29.0151 510.586 23.157C510.586 17.2989 505.857 12.57 499.999 12.57Z" fill="white" fill-opacity="0.57"/>
<path d="M504.262 28.6109L498.908 24.7285V17.7031H500.608V24.2355L505.452 27.7481L504.262 28.6109Z" fill="white" fill-opacity="0.57"/>
</svg>
