<svg width="35" height="50" viewBox="0 0 35 50" fill="none" xmlns="http://www.w3.org/2000/svg">
<path d="M26.1514 22.3711C25.5987 21.062 24.7967 19.873 23.79 18.8701C22.7864 17.8644 21.5975 17.0625 20.2891 16.5088C20.2773 16.5029 20.2656 16.5 20.2539 16.4941C22.0791 15.1758 23.2656 13.0283 23.2656 10.6055C23.2656 6.5918 20.0137 3.33984 16 3.33984C11.9863 3.33984 8.73437 6.5918 8.73437 10.6055C8.73437 13.0283 9.92089 15.1758 11.7461 16.4971C11.7344 16.5029 11.7227 16.5059 11.7109 16.5117C10.3984 17.0654 9.2207 17.8594 8.20996 18.873C7.20422 19.8767 6.40235 21.0655 5.84863 22.374C5.30465 23.655 5.01127 25.0285 4.98437 26.4199C4.98359 26.4512 4.98907 26.4823 5.0005 26.5114C5.01193 26.5405 5.02907 26.5671 5.05091 26.5895C5.07275 26.6118 5.09886 26.6296 5.12768 26.6418C5.15651 26.6539 5.18747 26.6602 5.21875 26.6602H6.97656C7.10547 26.6602 7.208 26.5576 7.21093 26.4316C7.26953 24.1699 8.17773 22.0518 9.7832 20.4463C11.4443 18.7852 13.6504 17.8711 16 17.8711C18.3496 17.8711 20.5557 18.7852 22.2168 20.4463C23.8223 22.0518 24.7305 24.1699 24.7891 26.4316C24.792 26.5605 24.8945 26.6602 25.0234 26.6602H26.7812C26.8125 26.6602 26.8435 26.6539 26.8723 26.6418C26.9011 26.6296 26.9272 26.6118 26.9491 26.5895C26.9709 26.5671 26.9881 26.5405 26.9995 26.5114C27.0109 26.4823 27.0164 26.4512 27.0156 26.4199C26.9863 25.0195 26.6963 23.6572 26.1514 22.3711V22.3711ZM16 15.6445C14.6553 15.6445 13.3896 15.1201 12.4375 14.168C11.4853 13.2158 10.9609 11.9502 10.9609 10.6055C10.9609 9.26074 11.4853 7.99512 12.4375 7.04297C13.3896 6.09082 14.6553 5.56641 16 5.56641C17.3447 5.56641 18.6103 6.09082 19.5625 7.04297C20.5146 7.99512 21.0391 9.26074 21.0391 10.6055C21.0391 11.9502 20.5146 13.2158 19.5625 14.168C18.6103 15.1201 17.3447 15.6445 16 15.6445Z" fill="black"/>
<path d="M2.61328 38.4688V47H0.703125V38.4688H2.61328ZM7.71094 38.4688L4.37109 42.7344L2.42578 44.8438L2.08008 43.0684L3.36328 41.2285L5.36719 38.4688H7.71094ZM5.49609 47L3.14062 43.1035L4.59375 41.9727L7.75781 47H5.49609ZM8.49398 43.8945V43.7715C8.49398 43.3066 8.56039 42.8789 8.6932 42.4883C8.82602 42.0938 9.02133 41.752 9.27914 41.4629C9.53695 41.1738 9.85336 40.9492 10.2284 40.7891C10.6034 40.625 11.033 40.543 11.5174 40.543C12.0096 40.543 12.4432 40.625 12.8182 40.7891C13.1971 40.9492 13.5155 41.1738 13.7733 41.4629C14.0311 41.752 14.2264 42.0938 14.3592 42.4883C14.492 42.8789 14.5584 43.3066 14.5584 43.7715V43.8945C14.5584 44.3555 14.492 44.7832 14.3592 45.1777C14.2264 45.5684 14.0311 45.9102 13.7733 46.2031C13.5155 46.4922 13.1991 46.7168 12.8241 46.877C12.4491 47.0371 12.0174 47.1172 11.5291 47.1172C11.0448 47.1172 10.6131 47.0371 10.2342 46.877C9.85531 46.7168 9.53695 46.4922 9.27914 46.2031C9.02133 45.9102 8.82602 45.5684 8.6932 45.1777C8.56039 44.7832 8.49398 44.3555 8.49398 43.8945ZM10.328 43.7715V43.8945C10.328 44.1445 10.3475 44.3789 10.3866 44.5977C10.4295 44.8164 10.4979 45.0078 10.5916 45.1719C10.6854 45.3359 10.8084 45.4648 10.9608 45.5586C11.117 45.6484 11.3065 45.6934 11.5291 45.6934C11.7518 45.6934 11.9393 45.6484 12.0916 45.5586C12.244 45.4648 12.367 45.3359 12.4608 45.1719C12.5545 45.0078 12.6209 44.8164 12.66 44.5977C12.703 44.3789 12.7245 44.1445 12.7245 43.8945V43.7715C12.7245 43.5254 12.703 43.2949 12.66 43.0801C12.6209 42.8613 12.5545 42.668 12.4608 42.5C12.367 42.332 12.242 42.2012 12.0858 42.1074C11.9334 42.0137 11.744 41.9668 11.5174 41.9668C11.2987 41.9668 11.1131 42.0137 10.9608 42.1074C10.8084 42.2012 10.6854 42.332 10.5916 42.5C10.4979 42.668 10.4295 42.8613 10.3866 43.0801C10.3475 43.2949 10.328 43.5254 10.328 43.7715ZM17.9723 42.0137V47H16.1384V40.6602H17.861L17.9723 42.0137ZM17.7321 43.6074L17.2751 43.6191C17.2751 43.1426 17.3337 42.7148 17.4509 42.3359C17.568 41.957 17.7341 41.6348 17.9489 41.3691C18.1677 41.0996 18.4274 40.8945 18.7282 40.7539C19.0329 40.6133 19.3688 40.543 19.736 40.543C20.0329 40.543 20.3044 40.5859 20.5505 40.6719C20.7966 40.7578 21.0075 40.8965 21.1833 41.0879C21.363 41.2754 21.4997 41.5254 21.5934 41.8379C21.6872 42.1465 21.7341 42.5273 21.7341 42.9805V47H19.8942V42.9746C19.8942 42.709 19.8571 42.5039 19.7829 42.3594C19.7087 42.2148 19.5993 42.1133 19.4548 42.0547C19.3141 41.9961 19.1423 41.9668 18.9391 41.9668C18.7243 41.9668 18.5407 42.0098 18.3884 42.0957C18.236 42.1777 18.111 42.293 18.0134 42.4414C17.9157 42.5898 17.8434 42.7637 17.7966 42.9629C17.7536 43.1621 17.7321 43.377 17.7321 43.6074ZM26.812 40.6602V41.9434H23.0503V40.6602H26.812ZM23.9116 39.0898H25.7456V45.0137C25.7456 45.1895 25.7671 45.3242 25.8101 45.418C25.853 45.5117 25.9234 45.5781 26.021 45.6172C26.1187 45.6523 26.2437 45.6699 26.396 45.6699C26.5054 45.6699 26.5991 45.666 26.6773 45.6582C26.7554 45.6504 26.8277 45.6406 26.8941 45.6289V46.9531C26.7378 47.0039 26.5718 47.043 26.396 47.0703C26.2202 47.1016 26.0288 47.1172 25.8218 47.1172C25.4273 47.1172 25.0855 47.0527 24.7964 46.9238C24.5112 46.7949 24.2925 46.5918 24.1402 46.3145C23.9878 46.0332 23.9116 45.668 23.9116 45.2188V39.0898ZM27.9232 43.8945V43.7715C27.9232 43.3066 27.9896 42.8789 28.1224 42.4883C28.2552 42.0938 28.4505 41.752 28.7084 41.4629C28.9662 41.1738 29.2826 40.9492 29.6576 40.7891C30.0326 40.625 30.4623 40.543 30.9466 40.543C31.4388 40.543 31.8724 40.625 32.2474 40.7891C32.6263 40.9492 32.9447 41.1738 33.2025 41.4629C33.4603 41.752 33.6556 42.0938 33.7884 42.4883C33.9212 42.8789 33.9877 43.3066 33.9877 43.7715V43.8945C33.9877 44.3555 33.9212 44.7832 33.7884 45.1777C33.6556 45.5684 33.4603 45.9102 33.2025 46.2031C32.9447 46.4922 32.6283 46.7168 32.2533 46.877C31.8783 47.0371 31.4466 47.1172 30.9584 47.1172C30.474 47.1172 30.0423 47.0371 29.6634 46.877C29.2845 46.7168 28.9662 46.4922 28.7084 46.2031C28.4505 45.9102 28.2552 45.5684 28.1224 45.1777C27.9896 44.7832 27.9232 44.3555 27.9232 43.8945ZM29.7572 43.7715V43.8945C29.7572 44.1445 29.7767 44.3789 29.8158 44.5977C29.8587 44.8164 29.9271 45.0078 30.0209 45.1719C30.1146 45.3359 30.2377 45.4648 30.39 45.5586C30.5462 45.6484 30.7357 45.6934 30.9584 45.6934C31.181 45.6934 31.3685 45.6484 31.5209 45.5586C31.6732 45.4648 31.7962 45.3359 31.89 45.1719C31.9837 45.0078 32.0502 44.8164 32.0892 44.5977C32.1322 44.3789 32.1537 44.1445 32.1537 43.8945V43.7715C32.1537 43.5254 32.1322 43.2949 32.0892 43.0801C32.0502 42.8613 31.9837 42.668 31.89 42.5C31.7962 42.332 31.6712 42.2012 31.515 42.1074C31.3627 42.0137 31.1732 41.9668 30.9466 41.9668C30.7279 41.9668 30.5423 42.0137 30.39 42.1074C30.2377 42.2012 30.1146 42.332 30.0209 42.5C29.9271 42.668 29.8587 42.8613 29.8158 43.0801C29.7767 43.2949 29.7572 43.5254 29.7572 43.7715Z" fill="black"/>
</svg>
