<svg width="325" height="555" viewBox="0 0 325 555" fill="none" xmlns="http://www.w3.org/2000/svg">
<rect x="1" y="170" width="148" height="132" rx="14" fill="#03266A"/>
<rect x="177" y="170" width="148" height="132" rx="14" fill="#03266A"/>
<rect y="488" width="319" height="67" rx="14" fill="#03266A"/>
<rect x="3" width="144" height="134" rx="14" fill="#03266A"/>
<path d="M211.648 229.625V241H209.109V229.625H211.648ZM216.849 234.352V241H214.403V232.547H216.7L216.849 234.352ZM216.528 236.477L215.919 236.492C215.919 235.857 215.997 235.286 216.153 234.781C216.31 234.276 216.531 233.846 216.818 233.492C217.109 233.133 217.456 232.859 217.857 232.672C218.263 232.484 218.711 232.391 219.2 232.391C219.596 232.391 219.958 232.448 220.286 232.562C220.614 232.677 220.896 232.862 221.13 233.117C221.37 233.367 221.552 233.701 221.677 234.117C221.802 234.529 221.864 235.036 221.864 235.641V241H219.411V235.633C219.411 235.279 219.362 235.005 219.263 234.812C219.164 234.62 219.018 234.484 218.825 234.406C218.638 234.328 218.409 234.289 218.138 234.289C217.851 234.289 217.607 234.346 217.403 234.461C217.2 234.57 217.034 234.724 216.903 234.922C216.773 235.12 216.677 235.352 216.614 235.617C216.557 235.883 216.528 236.169 216.528 236.477ZM229.26 239.109V229H231.713V241H229.51L229.26 239.109ZM223.994 236.875V236.711C223.994 236.07 224.065 235.487 224.205 234.961C224.351 234.43 224.562 233.974 224.838 233.594C225.119 233.208 225.466 232.911 225.877 232.703C226.289 232.495 226.76 232.391 227.291 232.391C227.781 232.391 228.208 232.5 228.573 232.719C228.937 232.932 229.247 233.234 229.502 233.625C229.763 234.01 229.974 234.466 230.135 234.992C230.296 235.513 230.419 236.078 230.502 236.688V236.969C230.424 237.552 230.302 238.096 230.135 238.602C229.974 239.107 229.763 239.552 229.502 239.938C229.247 240.318 228.934 240.617 228.565 240.836C228.2 241.049 227.77 241.156 227.276 241.156C226.744 241.156 226.273 241.049 225.862 240.836C225.455 240.622 225.114 240.323 224.838 239.938C224.562 239.552 224.351 239.099 224.205 238.578C224.065 238.057 223.994 237.49 223.994 236.875ZM226.432 236.711V236.875C226.432 237.208 226.455 237.518 226.502 237.805C226.554 238.091 226.638 238.344 226.752 238.562C226.867 238.781 227.018 238.953 227.205 239.078C227.393 239.198 227.622 239.258 227.893 239.258C228.257 239.258 228.557 239.174 228.791 239.008C229.026 238.836 229.203 238.599 229.323 238.297C229.442 237.995 229.505 237.643 229.51 237.242V236.422C229.51 236.089 229.476 235.789 229.408 235.523C229.341 235.258 229.239 235.034 229.104 234.852C228.974 234.669 228.809 234.531 228.612 234.438C228.414 234.339 228.179 234.289 227.908 234.289C227.643 234.289 227.416 234.352 227.229 234.477C227.041 234.596 226.888 234.766 226.768 234.984C226.653 235.203 226.567 235.461 226.51 235.758C226.458 236.049 226.432 236.367 226.432 236.711ZM238.718 238.648C238.718 238.492 238.669 238.354 238.57 238.234C238.476 238.115 238.304 238.005 238.054 237.906C237.809 237.807 237.463 237.708 237.015 237.609C236.593 237.521 236.2 237.406 235.835 237.266C235.471 237.12 235.153 236.945 234.882 236.742C234.611 236.534 234.4 236.289 234.249 236.008C234.098 235.721 234.023 235.396 234.023 235.031C234.023 234.677 234.098 234.341 234.249 234.023C234.406 233.706 234.63 233.424 234.921 233.18C235.218 232.935 235.577 232.742 235.999 232.602C236.426 232.461 236.911 232.391 237.452 232.391C238.197 232.391 238.841 232.508 239.382 232.742C239.924 232.971 240.341 233.294 240.632 233.711C240.924 234.122 241.07 234.594 241.07 235.125H238.632C238.632 234.906 238.591 234.716 238.507 234.555C238.424 234.393 238.296 234.268 238.124 234.18C237.952 234.086 237.726 234.039 237.445 234.039C237.226 234.039 237.033 234.078 236.867 234.156C236.705 234.229 236.577 234.331 236.484 234.461C236.395 234.591 236.351 234.742 236.351 234.914C236.351 235.034 236.377 235.143 236.429 235.242C236.486 235.336 236.572 235.424 236.687 235.508C236.807 235.586 236.96 235.656 237.148 235.719C237.341 235.781 237.575 235.841 237.851 235.898C238.439 236.008 238.976 236.161 239.46 236.359C239.95 236.557 240.341 236.831 240.632 237.18C240.929 237.529 241.077 237.99 241.077 238.562C241.077 238.938 240.992 239.281 240.82 239.594C240.653 239.906 240.411 240.18 240.093 240.414C239.775 240.648 239.395 240.831 238.952 240.961C238.51 241.091 238.01 241.156 237.452 241.156C236.656 241.156 235.981 241.013 235.429 240.727C234.877 240.44 234.46 240.081 234.179 239.648C233.903 239.211 233.765 238.763 233.765 238.305H236.054C236.064 238.586 236.135 238.815 236.265 238.992C236.4 239.169 236.575 239.299 236.788 239.383C237.002 239.461 237.242 239.5 237.507 239.5C237.773 239.5 237.994 239.464 238.171 239.391C238.348 239.318 238.484 239.219 238.577 239.094C238.671 238.964 238.718 238.815 238.718 238.648ZM247.614 232.547V234.258H242.598V232.547H247.614ZM243.747 230.453H246.192V238.352C246.192 238.586 246.221 238.766 246.278 238.891C246.335 239.016 246.429 239.104 246.559 239.156C246.689 239.203 246.856 239.227 247.059 239.227C247.205 239.227 247.33 239.221 247.434 239.211C247.538 239.201 247.635 239.188 247.723 239.172V240.938C247.515 241.005 247.293 241.057 247.059 241.094C246.825 241.135 246.569 241.156 246.293 241.156C245.767 241.156 245.312 241.07 244.926 240.898C244.546 240.727 244.254 240.456 244.051 240.086C243.848 239.711 243.747 239.224 243.747 238.625V230.453ZM252.236 232.547V241H249.791V232.547H252.236ZM249.642 230.359C249.642 230.005 249.767 229.716 250.017 229.492C250.267 229.263 250.595 229.148 251.002 229.148C251.408 229.148 251.736 229.263 251.986 229.492C252.241 229.716 252.369 230.005 252.369 230.359C252.369 230.708 252.241 230.997 251.986 231.227C251.736 231.451 251.408 231.562 251.002 231.562C250.595 231.562 250.267 231.451 250.017 231.227C249.767 230.997 249.642 230.708 249.642 230.359ZM257.444 229V241H254.999V229H257.444ZM262.652 229V241H260.207V229H262.652ZM267.86 232.547V241H265.415V232.547H267.86ZM265.267 230.359C265.267 230.005 265.392 229.716 265.642 229.492C265.892 229.263 266.22 229.148 266.626 229.148C267.032 229.148 267.36 229.263 267.61 229.492C267.866 229.716 267.993 230.005 267.993 230.359C267.993 230.708 267.866 230.997 267.61 231.227C267.36 231.451 267.032 231.562 266.626 231.562C266.22 231.562 265.892 231.451 265.642 231.227C265.392 230.997 265.267 230.708 265.267 230.359ZM272.889 234.352V241H270.443V232.547H272.74L272.889 234.352ZM272.568 236.477L271.959 236.492C271.959 235.857 272.037 235.286 272.193 234.781C272.35 234.276 272.571 233.846 272.857 233.492C273.149 233.133 273.496 232.859 273.897 232.672C274.303 232.484 274.751 232.391 275.24 232.391C275.636 232.391 275.998 232.448 276.326 232.562C276.654 232.677 276.936 232.862 277.17 233.117C277.41 233.367 277.592 233.701 277.717 234.117C277.842 234.529 277.904 235.036 277.904 235.641V241H275.451V235.633C275.451 235.279 275.402 235.005 275.303 234.812C275.204 234.62 275.058 234.484 274.865 234.406C274.678 234.328 274.449 234.289 274.178 234.289C273.891 234.289 273.647 234.346 273.443 234.461C273.24 234.57 273.074 234.724 272.943 234.922C272.813 235.12 272.717 235.352 272.654 235.617C272.597 235.883 272.568 236.169 272.568 236.477ZM285.706 232.547H287.925V240.695C287.925 241.471 287.748 242.13 287.394 242.672C287.045 243.214 286.558 243.625 285.933 243.906C285.308 244.188 284.576 244.328 283.738 244.328C283.373 244.328 282.993 244.279 282.597 244.18C282.201 244.086 281.829 243.943 281.48 243.75C281.131 243.562 280.839 243.323 280.605 243.031L281.644 241.594C281.883 241.865 282.17 242.083 282.503 242.25C282.836 242.422 283.217 242.508 283.644 242.508C284.034 242.508 284.365 242.438 284.636 242.297C284.907 242.156 285.113 241.951 285.253 241.68C285.399 241.409 285.472 241.081 285.472 240.695V234.523L285.706 232.547ZM280.058 236.875V236.711C280.058 236.07 280.136 235.487 280.292 234.961C280.448 234.43 280.675 233.974 280.972 233.594C281.274 233.208 281.636 232.911 282.058 232.703C282.485 232.495 282.964 232.391 283.495 232.391C284.068 232.391 284.542 232.5 284.917 232.719C285.292 232.932 285.597 233.234 285.831 233.625C286.066 234.01 286.251 234.466 286.386 234.992C286.521 235.513 286.631 236.078 286.714 236.688V236.969C286.631 237.552 286.511 238.096 286.355 238.602C286.198 239.107 285.995 239.552 285.745 239.938C285.495 240.318 285.183 240.617 284.808 240.836C284.438 241.049 283.995 241.156 283.48 241.156C282.954 241.156 282.48 241.049 282.058 240.836C281.636 240.622 281.274 240.323 280.972 239.938C280.675 239.552 280.448 239.099 280.292 238.578C280.136 238.057 280.058 237.49 280.058 236.875ZM282.495 236.711V236.875C282.495 237.208 282.527 237.518 282.589 237.805C282.657 238.091 282.756 238.344 282.886 238.562C283.021 238.781 283.188 238.953 283.386 239.078C283.589 239.198 283.826 239.258 284.097 239.258C284.493 239.258 284.813 239.174 285.058 239.008C285.308 238.836 285.49 238.599 285.605 238.297C285.724 237.995 285.787 237.643 285.792 237.242V236.422C285.792 236.089 285.758 235.789 285.691 235.523C285.623 235.258 285.521 235.034 285.386 234.852C285.256 234.669 285.084 234.531 284.87 234.438C284.662 234.339 284.409 234.289 284.113 234.289C283.847 234.289 283.613 234.352 283.409 234.477C283.206 234.596 283.037 234.766 282.902 234.984C282.766 235.203 282.665 235.461 282.597 235.758C282.529 236.049 282.495 236.367 282.495 236.711ZM294.414 241.156C293.743 241.156 293.141 241.049 292.61 240.836C292.078 240.622 291.628 240.328 291.258 239.953C290.894 239.573 290.615 239.135 290.422 238.641C290.229 238.146 290.133 237.617 290.133 237.055V236.758C290.133 236.128 290.222 235.547 290.399 235.016C290.576 234.484 290.834 234.023 291.172 233.633C291.516 233.237 291.938 232.932 292.438 232.719C292.938 232.5 293.508 232.391 294.149 232.391C294.748 232.391 295.282 232.49 295.75 232.688C296.219 232.88 296.615 233.159 296.938 233.523C297.261 233.883 297.506 234.318 297.672 234.828C297.844 235.333 297.93 235.901 297.93 236.531V237.531H291.118V235.961H295.539V235.773C295.539 235.477 295.485 235.216 295.375 234.992C295.271 234.768 295.115 234.596 294.907 234.477C294.703 234.352 294.446 234.289 294.133 234.289C293.836 234.289 293.589 234.352 293.391 234.477C293.193 234.602 293.034 234.779 292.914 235.008C292.8 235.232 292.716 235.495 292.664 235.797C292.612 236.094 292.586 236.414 292.586 236.758V237.055C292.586 237.383 292.631 237.682 292.719 237.953C292.808 238.224 292.938 238.456 293.11 238.648C293.282 238.841 293.49 238.992 293.735 239.102C293.979 239.211 294.258 239.266 294.571 239.266C294.956 239.266 295.323 239.193 295.672 239.047C296.021 238.896 296.323 238.661 296.578 238.344L297.719 239.648C297.547 239.898 297.305 240.141 296.993 240.375C296.685 240.604 296.315 240.792 295.883 240.938C295.451 241.083 294.961 241.156 294.414 241.156ZM302.443 234.516V241H300.005V232.547H302.294L302.443 234.516ZM304.966 232.484L304.927 234.758C304.823 234.742 304.688 234.729 304.521 234.719C304.354 234.703 304.211 234.695 304.091 234.695C303.779 234.695 303.508 234.734 303.279 234.812C303.055 234.885 302.867 234.995 302.716 235.141C302.57 235.286 302.461 235.469 302.388 235.688C302.315 235.901 302.279 236.148 302.279 236.43L301.818 236.203C301.818 235.646 301.872 235.135 301.982 234.672C302.091 234.208 302.25 233.807 302.458 233.469C302.667 233.125 302.922 232.859 303.224 232.672C303.526 232.484 303.87 232.391 304.255 232.391C304.38 232.391 304.508 232.398 304.638 232.414C304.768 232.43 304.878 232.453 304.966 232.484Z" fill="white"/>
<rect x="177" width="148" height="132" rx="14" fill="#03266A"/>
<path d="M200.836 68C200.836 67.8073 200.807 67.6354 200.75 67.4844C200.693 67.3281 200.589 67.1849 200.438 67.0547C200.286 66.9245 200.073 66.7943 199.797 66.6641C199.521 66.5286 199.159 66.3906 198.711 66.25C198.201 66.0833 197.714 65.8958 197.25 65.6875C196.792 65.474 196.383 65.2266 196.023 64.9453C195.664 64.6641 195.38 64.3359 195.172 63.9609C194.969 63.5859 194.867 63.1484 194.867 62.6484C194.867 62.1641 194.974 61.7266 195.188 61.3359C195.401 60.9453 195.701 60.612 196.086 60.3359C196.471 60.0547 196.924 59.8411 197.445 59.6953C197.966 59.5443 198.539 59.4688 199.164 59.4688C199.997 59.4688 200.729 59.6172 201.359 59.9141C201.995 60.2057 202.49 60.6172 202.844 61.1484C203.198 61.6745 203.375 62.2865 203.375 62.9844H200.844C200.844 62.6771 200.779 62.4062 200.648 62.1719C200.523 61.9323 200.331 61.7448 200.07 61.6094C199.815 61.474 199.495 61.4062 199.109 61.4062C198.734 61.4062 198.419 61.4635 198.164 61.5781C197.914 61.6875 197.724 61.8385 197.594 62.0312C197.469 62.224 197.406 62.4349 197.406 62.6641C197.406 62.8464 197.453 63.013 197.547 63.1641C197.646 63.3099 197.786 63.4479 197.969 63.5781C198.156 63.7031 198.385 63.8229 198.656 63.9375C198.927 64.0521 199.237 64.1615 199.586 64.2656C200.195 64.4583 200.734 64.6719 201.203 64.9062C201.677 65.1406 202.076 65.4062 202.398 65.7031C202.721 66 202.964 66.3359 203.125 66.7109C203.292 67.0859 203.375 67.5104 203.375 67.9844C203.375 68.4896 203.276 68.9375 203.078 69.3281C202.885 69.7188 202.604 70.0521 202.234 70.3281C201.87 70.599 201.432 70.8047 200.922 70.9453C200.411 71.0859 199.841 71.1562 199.211 71.1562C198.638 71.1562 198.073 71.0833 197.516 70.9375C196.958 70.7865 196.453 70.5573 196 70.25C195.552 69.9427 195.193 69.5521 194.922 69.0781C194.656 68.599 194.523 68.0312 194.523 67.375H197.07C197.07 67.7188 197.12 68.0104 197.219 68.25C197.318 68.4844 197.458 68.6745 197.641 68.8203C197.828 68.9661 198.055 69.0703 198.32 69.1328C198.586 69.1953 198.883 69.2266 199.211 69.2266C199.591 69.2266 199.898 69.1745 200.133 69.0703C200.372 68.9609 200.549 68.8125 200.664 68.625C200.779 68.4375 200.836 68.2292 200.836 68ZM209.927 62.5469V64.2578H204.911V62.5469H209.927ZM206.06 60.4531H208.505V68.3516C208.505 68.5859 208.534 68.7656 208.591 68.8906C208.648 69.0156 208.742 69.1042 208.872 69.1562C209.002 69.2031 209.169 69.2266 209.372 69.2266C209.518 69.2266 209.643 69.2214 209.747 69.2109C209.851 69.2005 209.948 69.1875 210.036 69.1719V70.9375C209.828 71.0052 209.607 71.0573 209.372 71.0938C209.138 71.1354 208.883 71.1562 208.607 71.1562C208.081 71.1562 207.625 71.0703 207.239 70.8984C206.859 70.7266 206.568 70.4557 206.364 70.0859C206.161 69.7109 206.06 69.224 206.06 68.625V60.4531ZM216.94 68.9609V62.5469H219.393V71H217.096L216.94 68.9609ZM217.198 67.2344L217.869 67.2188C217.869 67.7865 217.802 68.3099 217.666 68.7891C217.536 69.2682 217.338 69.6849 217.073 70.0391C216.812 70.3932 216.487 70.6693 216.096 70.8672C215.711 71.0599 215.26 71.1562 214.744 71.1562C214.328 71.1562 213.945 71.099 213.596 70.9844C213.252 70.8646 212.955 70.6797 212.705 70.4297C212.455 70.1745 212.263 69.849 212.127 69.4531C211.992 69.0521 211.924 68.5729 211.924 68.0156V62.5469H214.362V68.0312C214.362 68.25 214.388 68.4375 214.44 68.5938C214.497 68.7448 214.573 68.8698 214.666 68.9688C214.765 69.0677 214.885 69.1406 215.026 69.1875C215.171 69.2344 215.33 69.2578 215.502 69.2578C215.934 69.2578 216.273 69.1693 216.518 68.9922C216.768 68.8099 216.942 68.5677 217.041 68.2656C217.145 67.9583 217.198 67.6146 217.198 67.2344ZM226.781 69.1094V59H229.234V71H227.031L226.781 69.1094ZM221.515 66.875V66.7109C221.515 66.0703 221.585 65.487 221.726 64.9609C221.872 64.4297 222.083 63.974 222.359 63.5938C222.64 63.2083 222.986 62.9115 223.398 62.7031C223.809 62.4948 224.281 62.3906 224.812 62.3906C225.301 62.3906 225.729 62.5 226.093 62.7188C226.458 62.9323 226.768 63.2344 227.023 63.625C227.283 64.0104 227.494 64.4661 227.656 64.9922C227.817 65.513 227.939 66.0781 228.023 66.6875V66.9688C227.945 67.5521 227.822 68.0964 227.656 68.6016C227.494 69.1068 227.283 69.5521 227.023 69.9375C226.768 70.3177 226.455 70.6172 226.085 70.8359C225.721 71.0495 225.291 71.1562 224.796 71.1562C224.265 71.1562 223.794 71.0495 223.382 70.8359C222.976 70.6224 222.635 70.3229 222.359 69.9375C222.083 69.5521 221.872 69.099 221.726 68.5781C221.585 68.0573 221.515 67.4896 221.515 66.875ZM223.952 66.7109V66.875C223.952 67.2083 223.976 67.5182 224.023 67.8047C224.075 68.0911 224.158 68.3438 224.273 68.5625C224.387 68.7812 224.538 68.9531 224.726 69.0781C224.913 69.1979 225.143 69.2578 225.413 69.2578C225.778 69.2578 226.077 69.1745 226.312 69.0078C226.546 68.8359 226.723 68.599 226.843 68.2969C226.963 67.9948 227.025 67.6432 227.031 67.2422V66.4219C227.031 66.0885 226.997 65.7891 226.929 65.5234C226.861 65.2578 226.76 65.0339 226.624 64.8516C226.494 64.6693 226.33 64.5312 226.132 64.4375C225.934 64.3385 225.7 64.2891 225.429 64.2891C225.163 64.2891 224.937 64.3516 224.749 64.4766C224.562 64.5964 224.408 64.7656 224.288 64.9844C224.174 65.2031 224.088 65.4609 224.031 65.7578C223.979 66.0495 223.952 66.3672 223.952 66.7109ZM234.309 62.5469V71H231.864V62.5469H234.309ZM231.715 60.3594C231.715 60.0052 231.84 59.7161 232.09 59.4922C232.34 59.263 232.668 59.1484 233.075 59.1484C233.481 59.1484 233.809 59.263 234.059 59.4922C234.314 59.7161 234.442 60.0052 234.442 60.3594C234.442 60.7083 234.314 60.9974 234.059 61.2266C233.809 61.4505 233.481 61.5625 233.075 61.5625C232.668 61.5625 232.34 61.4505 232.09 61.2266C231.84 60.9974 231.715 60.7083 231.715 60.3594ZM240.931 71.1562C240.259 71.1562 239.658 71.0495 239.127 70.8359C238.595 70.6224 238.145 70.3281 237.775 69.9531C237.41 69.5729 237.132 69.1354 236.939 68.6406C236.746 68.1458 236.65 67.6172 236.65 67.0547V66.7578C236.65 66.1276 236.739 65.5469 236.916 65.0156C237.093 64.4844 237.351 64.0234 237.689 63.6328C238.033 63.237 238.455 62.9323 238.955 62.7188C239.455 62.5 240.025 62.3906 240.666 62.3906C241.265 62.3906 241.798 62.4896 242.267 62.6875C242.736 62.8802 243.132 63.1589 243.455 63.5234C243.778 63.8828 244.022 64.3177 244.189 64.8281C244.361 65.3333 244.447 65.901 244.447 66.5312V67.5312H237.634V65.9609H242.056V65.7734C242.056 65.4766 242.002 65.2161 241.892 64.9922C241.788 64.7682 241.632 64.5964 241.423 64.4766C241.22 64.3516 240.963 64.2891 240.65 64.2891C240.353 64.2891 240.106 64.3516 239.908 64.4766C239.71 64.6016 239.551 64.7786 239.431 65.0078C239.317 65.2318 239.233 65.4948 239.181 65.7969C239.129 66.0938 239.103 66.4141 239.103 66.7578V67.0547C239.103 67.3828 239.147 67.6823 239.236 67.9531C239.324 68.224 239.455 68.4557 239.627 68.6484C239.798 68.8411 240.007 68.9922 240.252 69.1016C240.496 69.2109 240.775 69.2656 241.088 69.2656C241.473 69.2656 241.84 69.1927 242.189 69.0469C242.538 68.8958 242.84 68.6615 243.095 68.3438L244.236 69.6484C244.064 69.8984 243.822 70.1406 243.509 70.375C243.202 70.6042 242.832 70.7917 242.4 70.9375C241.968 71.0833 241.478 71.1562 240.931 71.1562ZM253.824 64.5156V71H251.387V62.5469H253.676L253.824 64.5156ZM256.347 62.4844L256.308 64.7578C256.204 64.7422 256.069 64.7292 255.902 64.7188C255.736 64.7031 255.592 64.6953 255.472 64.6953C255.16 64.6953 254.889 64.7344 254.66 64.8125C254.436 64.8854 254.249 64.9948 254.097 65.1406C253.952 65.2865 253.842 65.4688 253.769 65.6875C253.696 65.901 253.66 66.1484 253.66 66.4297L253.199 66.2031C253.199 65.6458 253.254 65.1354 253.363 64.6719C253.472 64.2083 253.631 63.8073 253.84 63.4688C254.048 63.125 254.303 62.8594 254.605 62.6719C254.907 62.4844 255.251 62.3906 255.637 62.3906C255.762 62.3906 255.889 62.3984 256.019 62.4141C256.15 62.4297 256.259 62.4531 256.347 62.4844ZM262.454 68.9844V65.3594C262.454 65.1042 262.415 64.8854 262.337 64.7031C262.259 64.5208 262.136 64.3776 261.97 64.2734C261.803 64.1693 261.587 64.1172 261.321 64.1172C261.097 64.1172 260.902 64.1562 260.735 64.2344C260.574 64.3125 260.449 64.4245 260.36 64.5703C260.277 64.7161 260.235 64.8958 260.235 65.1094H257.798C257.798 64.7292 257.884 64.375 258.056 64.0469C258.228 63.7188 258.472 63.4297 258.79 63.1797C259.113 62.9297 259.498 62.737 259.946 62.6016C260.394 62.4609 260.897 62.3906 261.454 62.3906C262.116 62.3906 262.704 62.5026 263.22 62.7266C263.741 62.9453 264.152 63.276 264.454 63.7188C264.756 64.1562 264.907 64.7083 264.907 65.375V68.9141C264.907 69.4245 264.936 69.8255 264.993 70.1172C265.056 70.4036 265.144 70.6536 265.259 70.8672V71H262.798C262.683 70.7552 262.597 70.4531 262.54 70.0938C262.483 69.7292 262.454 69.3594 262.454 68.9844ZM262.759 65.8438L262.774 67.1875H261.563C261.293 67.1875 261.058 67.2214 260.86 67.2891C260.668 67.3568 260.511 67.4505 260.392 67.5703C260.272 67.6849 260.183 67.8203 260.126 67.9766C260.074 68.1276 260.048 68.2943 260.048 68.4766C260.048 68.6484 260.089 68.8047 260.173 68.9453C260.256 69.0807 260.371 69.1875 260.517 69.2656C260.662 69.3438 260.832 69.3828 261.024 69.3828C261.342 69.3828 261.613 69.3203 261.837 69.1953C262.066 69.0703 262.243 68.9193 262.368 68.7422C262.493 68.5599 262.556 68.3906 262.556 68.2344L263.142 69.25C263.048 69.4583 262.933 69.6745 262.798 69.8984C262.662 70.1172 262.491 70.3229 262.282 70.5156C262.074 70.7031 261.821 70.8568 261.524 70.9766C261.233 71.0964 260.881 71.1562 260.47 71.1562C259.938 71.1562 259.457 71.0495 259.024 70.8359C258.592 70.6172 258.246 70.3177 257.985 69.9375C257.73 69.5573 257.603 69.1198 257.603 68.625C257.603 68.1823 257.683 67.7891 257.845 67.4453C258.006 67.1016 258.248 66.8099 258.571 66.5703C258.899 66.3307 259.311 66.151 259.806 66.0312C260.3 65.9062 260.879 65.8438 261.54 65.8438H262.759ZM267.397 59H269.834V68.9922L269.584 71H267.397V59ZM275.107 66.6797V66.8438C275.107 67.4844 275.04 68.0677 274.904 68.5938C274.774 69.1198 274.574 69.5755 274.303 69.9609C274.032 70.3411 273.691 70.6354 273.279 70.8438C272.868 71.0521 272.384 71.1562 271.826 71.1562C271.311 71.1562 270.868 71.0495 270.498 70.8359C270.128 70.6172 269.818 70.3151 269.568 69.9297C269.318 69.5443 269.115 69.0938 268.959 68.5781C268.808 68.0625 268.691 67.5078 268.607 66.9141V66.6328C268.691 66.0391 268.808 65.4844 268.959 64.9688C269.115 64.4531 269.318 64.0026 269.568 63.6172C269.818 63.2318 270.126 62.9323 270.49 62.7188C270.86 62.5 271.3 62.3906 271.811 62.3906C272.373 62.3906 272.86 62.4974 273.272 62.7109C273.688 62.9245 274.032 63.224 274.303 63.6094C274.574 63.9896 274.774 64.4427 274.904 64.9688C275.04 65.4896 275.107 66.0599 275.107 66.6797ZM272.67 66.8438V66.6797C272.67 66.3568 272.647 66.0521 272.6 65.7656C272.558 65.4792 272.482 65.2266 272.373 65.0078C272.269 64.7839 272.121 64.6094 271.928 64.4844C271.74 64.3542 271.498 64.2891 271.201 64.2891C270.91 64.2891 270.662 64.3385 270.459 64.4375C270.256 64.5365 270.092 64.6771 269.967 64.8594C269.842 65.0365 269.751 65.2526 269.693 65.5078C269.636 65.763 269.605 66.0469 269.6 66.3594V67.1875C269.605 67.6042 269.66 67.9688 269.764 68.2812C269.868 68.5938 270.037 68.8359 270.272 69.0078C270.506 69.1745 270.821 69.2578 271.217 69.2578C271.519 69.2578 271.764 69.2005 271.951 69.0859C272.144 68.9661 272.29 68.7995 272.389 68.5859C272.493 68.3724 272.566 68.1172 272.607 67.8203C272.649 67.5234 272.67 67.1979 272.67 66.8438ZM281.761 68.9844V65.3594C281.761 65.1042 281.722 64.8854 281.644 64.7031C281.566 64.5208 281.443 64.3776 281.277 64.2734C281.11 64.1693 280.894 64.1172 280.628 64.1172C280.404 64.1172 280.209 64.1562 280.042 64.2344C279.881 64.3125 279.756 64.4245 279.667 64.5703C279.584 64.7161 279.542 64.8958 279.542 65.1094H277.105C277.105 64.7292 277.191 64.375 277.363 64.0469C277.534 63.7188 277.779 63.4297 278.097 63.1797C278.42 62.9297 278.805 62.737 279.253 62.6016C279.701 62.4609 280.204 62.3906 280.761 62.3906C281.422 62.3906 282.011 62.5026 282.527 62.7266C283.047 62.9453 283.459 63.276 283.761 63.7188C284.063 64.1562 284.214 64.7083 284.214 65.375V68.9141C284.214 69.4245 284.243 69.8255 284.3 70.1172C284.363 70.4036 284.451 70.6536 284.566 70.8672V71H282.105C281.99 70.7552 281.904 70.4531 281.847 70.0938C281.79 69.7292 281.761 69.3594 281.761 68.9844ZM282.066 65.8438L282.081 67.1875H280.87C280.599 67.1875 280.365 67.2214 280.167 67.2891C279.974 67.3568 279.818 67.4505 279.698 67.5703C279.579 67.6849 279.49 67.8203 279.433 67.9766C279.381 68.1276 279.355 68.2943 279.355 68.4766C279.355 68.6484 279.396 68.8047 279.48 68.9453C279.563 69.0807 279.678 69.1875 279.823 69.2656C279.969 69.3438 280.139 69.3828 280.331 69.3828C280.649 69.3828 280.92 69.3203 281.144 69.1953C281.373 69.0703 281.55 68.9193 281.675 68.7422C281.8 68.5599 281.863 68.3906 281.863 68.2344L282.448 69.25C282.355 69.4583 282.24 69.6745 282.105 69.8984C281.969 70.1172 281.797 70.3229 281.589 70.5156C281.381 70.7031 281.128 70.8568 280.831 70.9766C280.54 71.0964 280.188 71.1562 279.777 71.1562C279.245 71.1562 278.764 71.0495 278.331 70.8359C277.899 70.6172 277.553 70.3177 277.292 69.9375C277.037 69.5573 276.909 69.1198 276.909 68.625C276.909 68.1823 276.99 67.7891 277.152 67.4453C277.313 67.1016 277.555 66.8099 277.878 66.5703C278.206 66.3307 278.618 66.151 279.113 66.0312C279.607 65.9062 280.185 65.8438 280.847 65.8438H282.066ZM290.993 62.5469V64.2578H285.977V62.5469H290.993ZM287.125 60.4531H289.571V68.3516C289.571 68.5859 289.599 68.7656 289.657 68.8906C289.714 69.0156 289.808 69.1042 289.938 69.1562C290.068 69.2031 290.235 69.2266 290.438 69.2266C290.584 69.2266 290.709 69.2214 290.813 69.2109C290.917 69.2005 291.013 69.1875 291.102 69.1719V70.9375C290.894 71.0052 290.672 71.0573 290.438 71.0938C290.203 71.1354 289.948 71.1562 289.672 71.1562C289.146 71.1562 288.69 71.0703 288.305 70.8984C287.925 70.7266 287.633 70.4557 287.43 70.0859C287.227 69.7109 287.125 69.224 287.125 68.625V60.4531ZM297.341 62.5469V64.2578H292.326V62.5469H297.341ZM293.474 60.4531H295.919V68.3516C295.919 68.5859 295.948 68.7656 296.005 68.8906C296.063 69.0156 296.156 69.1042 296.287 69.1562C296.417 69.2031 296.583 69.2266 296.787 69.2266C296.932 69.2266 297.057 69.2214 297.162 69.2109C297.266 69.2005 297.362 69.1875 297.451 69.1719V70.9375C297.242 71.0052 297.021 71.0573 296.787 71.0938C296.552 71.1354 296.297 71.1562 296.021 71.1562C295.495 71.1562 295.039 71.0703 294.654 70.8984C294.274 70.7266 293.982 70.4557 293.779 70.0859C293.576 69.7109 293.474 69.224 293.474 68.625V60.4531ZM303.378 71.1562C302.706 71.1562 302.104 71.0495 301.573 70.8359C301.042 70.6224 300.591 70.3281 300.221 69.9531C299.857 69.5729 299.578 69.1354 299.385 68.6406C299.193 68.1458 299.096 67.6172 299.096 67.0547V66.7578C299.096 66.1276 299.185 65.5469 299.362 65.0156C299.539 64.4844 299.797 64.0234 300.135 63.6328C300.479 63.237 300.901 62.9323 301.401 62.7188C301.901 62.5 302.471 62.3906 303.112 62.3906C303.711 62.3906 304.245 62.4896 304.713 62.6875C305.182 62.8802 305.578 63.1589 305.901 63.5234C306.224 63.8828 306.469 64.3177 306.635 64.8281C306.807 65.3333 306.893 65.901 306.893 66.5312V67.5312H300.081V65.9609H304.503V65.7734C304.503 65.4766 304.448 65.2161 304.338 64.9922C304.234 64.7682 304.078 64.5964 303.87 64.4766C303.667 64.3516 303.409 64.2891 303.096 64.2891C302.799 64.2891 302.552 64.3516 302.354 64.4766C302.156 64.6016 301.997 64.7786 301.878 65.0078C301.763 65.2318 301.68 65.4948 301.628 65.7969C301.575 66.0938 301.549 66.4141 301.549 66.7578V67.0547C301.549 67.3828 301.594 67.6823 301.682 67.9531C301.771 68.224 301.901 68.4557 302.073 68.6484C302.245 68.8411 302.453 68.9922 302.698 69.1016C302.943 69.2109 303.221 69.2656 303.534 69.2656C303.919 69.2656 304.286 69.1927 304.635 69.0469C304.984 68.8958 305.286 68.6615 305.542 68.3438L306.682 69.6484C306.51 69.8984 306.268 70.1406 305.956 70.375C305.648 70.6042 305.279 70.7917 304.846 70.9375C304.414 71.0833 303.924 71.1562 303.378 71.1562ZM311.406 64.5156V71H308.968V62.5469H311.257L311.406 64.5156ZM313.929 62.4844L313.89 64.7578C313.786 64.7422 313.651 64.7292 313.484 64.7188C313.317 64.7031 313.174 64.6953 313.054 64.6953C312.742 64.6953 312.471 64.7344 312.242 64.8125C312.018 64.8854 311.83 64.9948 311.679 65.1406C311.534 65.2865 311.424 65.4688 311.351 65.6875C311.278 65.901 311.242 66.1484 311.242 66.4297L310.781 66.2031C310.781 65.6458 310.836 65.1354 310.945 64.6719C311.054 64.2083 311.213 63.8073 311.422 63.4688C311.63 63.125 311.885 62.8594 312.187 62.6719C312.489 62.4844 312.833 62.3906 313.218 62.3906C313.343 62.3906 313.471 62.3984 313.601 62.4141C313.731 62.4297 313.841 62.4531 313.929 62.4844Z" fill="white"/>
<path d="M15.5703 234.203V236.172H9.67969V234.203H15.5703ZM10.4844 229.625V241H7.9375V229.625H10.4844ZM17.3281 229.625V241H14.7891V229.625H17.3281ZM20.13 232.547H22.5831V241.391C22.5831 242.042 22.4607 242.591 22.2159 243.039C21.9711 243.492 21.617 243.833 21.1534 244.062C20.6951 244.297 20.1456 244.414 19.505 244.414C19.2967 244.414 19.0988 244.404 18.9113 244.383C18.7238 244.367 18.5232 244.333 18.3097 244.281V242.422C18.4399 242.443 18.5649 242.458 18.6847 242.469C18.7993 242.484 18.9217 242.492 19.0519 242.492C19.2863 242.492 19.4816 242.453 19.6378 242.375C19.7993 242.297 19.9217 242.174 20.005 242.008C20.0883 241.846 20.13 241.641 20.13 241.391V232.547ZM19.9425 230.359C19.9425 230.005 20.0675 229.716 20.3175 229.492C20.5675 229.263 20.8982 229.148 21.3097 229.148C21.7159 229.148 22.0441 229.263 22.2941 229.492C22.5441 229.716 22.6691 230.005 22.6691 230.359C22.6691 230.708 22.5441 230.997 22.2941 231.227C22.0441 231.451 21.7159 231.562 21.3097 231.562C20.8982 231.562 20.5675 231.451 20.3175 231.227C20.0675 230.997 19.9425 230.708 19.9425 230.359ZM29.9319 239.57V235.5C29.9319 235.245 29.8876 235.029 29.7991 234.852C29.7105 234.669 29.5803 234.531 29.4084 234.438C29.2418 234.339 29.036 234.289 28.7913 234.289C28.5204 234.289 28.2913 234.331 28.1038 234.414C27.9163 234.492 27.7704 234.599 27.6663 234.734C27.5673 234.87 27.5178 235.023 27.5178 235.195L25.0725 235.047C25.0725 234.661 25.161 234.307 25.3381 233.984C25.5152 233.661 25.7678 233.383 26.0959 233.148C26.4241 232.909 26.8173 232.724 27.2756 232.594C27.7392 232.458 28.2548 232.391 28.8225 232.391C29.5308 232.391 30.1454 232.508 30.6663 232.742C31.1871 232.971 31.5881 233.318 31.8694 233.781C32.1558 234.245 32.2991 234.823 32.2991 235.516V239.297L29.9319 239.57ZM30.2756 235.906L30.2913 237.422H28.7756C28.4423 237.422 28.161 237.474 27.9319 237.578C27.7027 237.682 27.5282 237.818 27.4084 237.984C27.2939 238.151 27.2366 238.331 27.2366 238.523C27.2366 238.711 27.2808 238.875 27.3694 239.016C27.4579 239.151 27.5933 239.258 27.7756 239.336C27.9579 239.409 28.1923 239.445 28.4788 239.445C28.6871 239.445 28.898 239.409 29.1116 239.336C29.3251 239.263 29.5204 239.169 29.6975 239.055C29.8798 238.935 30.0256 238.807 30.135 238.672C30.2444 238.536 30.2991 238.409 30.2991 238.289L31.4241 239.492C31.2939 239.742 31.0829 239.997 30.7913 240.258C30.4996 240.513 30.122 240.727 29.6584 240.898C29.2001 241.07 28.6532 241.156 28.0178 241.156C27.3199 241.156 26.7314 241.047 26.2522 240.828C25.773 240.609 25.4084 240.299 25.1584 239.898C24.9136 239.497 24.7913 239.029 24.7913 238.492C24.7913 238.081 24.8746 237.716 25.0413 237.398C25.2131 237.076 25.4657 236.805 25.7991 236.586C26.1324 236.362 26.5465 236.193 27.0413 236.078C27.536 235.964 28.109 235.906 28.76 235.906H30.2756ZM33.9944 241.156C33.3433 241.156 32.7652 241.06 32.26 240.867C31.7548 240.669 31.3277 240.393 30.9788 240.039C30.635 239.68 30.3746 239.258 30.1975 238.773C30.0256 238.284 29.9397 237.747 29.9397 237.164V236.594C29.9397 235.974 30.023 235.409 30.1897 234.898C30.3564 234.383 30.6038 233.938 30.9319 233.562C31.26 233.188 31.6689 232.898 32.1584 232.695C32.6532 232.487 33.2235 232.385 33.8694 232.391C34.4215 232.391 34.9163 232.479 35.3538 232.656C35.7913 232.833 36.1636 233.089 36.4709 233.422C36.7834 233.755 37.0204 234.159 37.1819 234.633C37.3485 235.102 37.4319 235.628 37.4319 236.211V237.523H30.9084V235.961H35.0334V235.75C35.0334 235.453 34.9892 235.195 34.9006 234.977C34.8173 234.758 34.6897 234.589 34.5178 234.469C34.3459 234.349 34.1298 234.289 33.8694 234.289C33.5725 234.289 33.3225 234.346 33.1194 234.461C32.9215 234.576 32.7626 234.737 32.6428 234.945C32.523 235.154 32.4371 235.398 32.385 235.68C32.3329 235.961 32.3069 236.266 32.3069 236.594V237.164C32.3069 237.466 32.3433 237.745 32.4163 238C32.4944 238.25 32.6116 238.471 32.7678 238.664C32.9293 238.852 33.135 239 33.385 239.109C33.6402 239.214 33.9449 239.266 34.2991 239.266C34.8251 239.266 35.2548 239.208 35.5881 239.094C35.9215 238.974 36.2444 238.839 36.5569 238.688L37.1819 240.211C36.984 240.362 36.7235 240.51 36.4006 240.656C36.0777 240.802 35.7105 240.922 35.2991 241.016C34.8928 241.109 34.4579 241.156 33.9944 241.156ZM42.0697 229V241H39.6244V229H42.0697ZM47.1528 234.172V244.25H44.7153V232.547H46.9888L47.1528 234.172ZM52.4263 236.68V236.844C52.4263 237.458 52.3559 238.029 52.2153 238.555C52.0747 239.076 51.8638 239.531 51.5825 239.922C51.3065 240.312 50.9653 240.617 50.5591 240.836C50.1528 241.049 49.6815 241.156 49.145 241.156C48.6346 241.156 48.1919 241.049 47.8169 240.836C47.4471 240.617 47.1346 240.315 46.8794 239.93C46.6294 239.539 46.4263 239.094 46.27 238.594C46.119 238.089 46.0018 237.549 45.9184 236.977V236.656C46.0018 236.047 46.1216 235.482 46.2778 234.961C46.4341 234.44 46.6372 233.99 46.8872 233.609C47.1372 233.224 47.4471 232.924 47.8169 232.711C48.1867 232.497 48.6268 232.391 49.1372 232.391C49.6684 232.391 50.1398 232.492 50.5513 232.695C50.9627 232.898 51.3065 233.19 51.5825 233.57C51.8638 233.945 52.0747 234.396 52.2153 234.922C52.3559 235.448 52.4263 236.034 52.4263 236.68ZM49.9809 236.844V236.68C49.9809 236.336 49.9549 236.021 49.9028 235.734C49.8507 235.443 49.7674 235.19 49.6528 234.977C49.5382 234.758 49.3872 234.589 49.1997 234.469C49.0122 234.349 48.783 234.289 48.5122 234.289C48.2205 234.289 47.9731 234.336 47.77 234.43C47.5669 234.523 47.4028 234.661 47.2778 234.844C47.1528 235.021 47.0617 235.24 47.0044 235.5C46.9523 235.76 46.9236 236.057 46.9184 236.391V237.25C46.9236 237.641 46.9783 237.99 47.0825 238.297C47.1919 238.599 47.3611 238.836 47.5903 239.008C47.8247 239.174 48.1372 239.258 48.5278 239.258C48.8039 239.258 49.033 239.198 49.2153 239.078C49.4028 238.953 49.5513 238.779 49.6606 238.555C49.7752 238.331 49.8559 238.073 49.9028 237.781C49.9549 237.49 49.9809 237.177 49.9809 236.844ZM59.1159 236.859V236.695C59.1159 236.076 59.2045 235.505 59.3816 234.984C59.5586 234.458 59.8191 234.003 60.1628 233.617C60.5066 233.232 60.9284 232.932 61.4284 232.719C61.9284 232.5 62.5014 232.391 63.1472 232.391C63.8034 232.391 64.3816 232.5 64.8816 232.719C65.3868 232.932 65.8112 233.232 66.155 233.617C66.4987 234.003 66.7592 234.458 66.9362 234.984C67.1133 235.505 67.2019 236.076 67.2019 236.695V236.859C67.2019 237.474 67.1133 238.044 66.9362 238.57C66.7592 239.091 66.4987 239.547 66.155 239.938C65.8112 240.323 65.3894 240.622 64.8894 240.836C64.3894 241.049 63.8139 241.156 63.1628 241.156C62.517 241.156 61.9415 241.049 61.4362 240.836C60.931 240.622 60.5066 240.323 60.1628 239.938C59.8191 239.547 59.5586 239.091 59.3816 238.57C59.2045 238.044 59.1159 237.474 59.1159 236.859ZM61.5612 236.695V236.859C61.5612 237.193 61.5873 237.505 61.6394 237.797C61.6967 238.089 61.7878 238.344 61.9128 238.562C62.0378 238.781 62.2019 238.953 62.405 239.078C62.6133 239.198 62.8659 239.258 63.1628 239.258C63.4597 239.258 63.7097 239.198 63.9128 239.078C64.1159 238.953 64.28 238.781 64.405 238.562C64.53 238.344 64.6185 238.089 64.6706 237.797C64.7279 237.505 64.7566 237.193 64.7566 236.859V236.695C64.7566 236.367 64.7279 236.06 64.6706 235.773C64.6185 235.482 64.53 235.224 64.405 235C64.28 234.776 64.1133 234.602 63.905 234.477C63.7019 234.352 63.4493 234.289 63.1472 234.289C62.8555 234.289 62.6081 234.352 62.405 234.477C62.2019 234.602 62.0378 234.776 61.9128 235C61.7878 235.224 61.6967 235.482 61.6394 235.773C61.5873 236.06 61.5612 236.367 61.5612 236.695ZM74.6912 232.547H76.91V240.695C76.91 241.471 76.7329 242.13 76.3787 242.672C76.0298 243.214 75.5428 243.625 74.9178 243.906C74.2928 244.188 73.561 244.328 72.7225 244.328C72.3579 244.328 71.9777 244.279 71.5819 244.18C71.186 244.086 70.8136 243.943 70.4647 243.75C70.1157 243.562 69.8241 243.323 69.5897 243.031L70.6287 241.594C70.8683 241.865 71.1548 242.083 71.4881 242.25C71.8215 242.422 72.2017 242.508 72.6287 242.508C73.0194 242.508 73.3501 242.438 73.6209 242.297C73.8918 242.156 74.0975 241.951 74.2381 241.68C74.384 241.409 74.4569 241.081 74.4569 240.695V234.523L74.6912 232.547ZM69.0428 236.875V236.711C69.0428 236.07 69.1209 235.487 69.2772 234.961C69.4334 234.43 69.66 233.974 69.9569 233.594C70.259 233.208 70.6209 232.911 71.0428 232.703C71.4699 232.495 71.9491 232.391 72.4803 232.391C73.0532 232.391 73.5272 232.5 73.9022 232.719C74.2772 232.932 74.5819 233.234 74.8162 233.625C75.0506 234.01 75.2355 234.466 75.3709 234.992C75.5064 235.513 75.6157 236.078 75.6991 236.688V236.969C75.6157 237.552 75.4959 238.096 75.3397 238.602C75.1834 239.107 74.9803 239.552 74.7303 239.938C74.4803 240.318 74.1678 240.617 73.7928 240.836C73.423 241.049 72.9803 241.156 72.4647 241.156C71.9386 241.156 71.4647 241.049 71.0428 240.836C70.6209 240.622 70.259 240.323 69.9569 239.938C69.66 239.552 69.4334 239.099 69.2772 238.578C69.1209 238.057 69.0428 237.49 69.0428 236.875ZM71.4803 236.711V236.875C71.4803 237.208 71.5116 237.518 71.5741 237.805C71.6418 238.091 71.7407 238.344 71.8709 238.562C72.0064 238.781 72.173 238.953 72.3709 239.078C72.5741 239.198 72.811 239.258 73.0819 239.258C73.4777 239.258 73.798 239.174 74.0428 239.008C74.2928 238.836 74.4751 238.599 74.5897 238.297C74.7095 237.995 74.772 237.643 74.7772 237.242V236.422C74.7772 236.089 74.7433 235.789 74.6756 235.523C74.6079 235.258 74.5064 235.034 74.3709 234.852C74.2407 234.669 74.0689 234.531 73.8553 234.438C73.647 234.339 73.3944 234.289 73.0975 234.289C72.8319 234.289 72.5975 234.352 72.3944 234.477C72.1912 234.596 72.022 234.766 71.8866 234.984C71.7511 235.203 71.6496 235.461 71.5819 235.758C71.5142 236.049 71.4803 236.367 71.4803 236.711ZM88.7794 238.648C88.7794 238.492 88.7299 238.354 88.6309 238.234C88.5372 238.115 88.3653 238.005 88.1153 237.906C87.8705 237.807 87.5242 237.708 87.0762 237.609C86.6544 237.521 86.2611 237.406 85.8966 237.266C85.532 237.12 85.2143 236.945 84.9434 236.742C84.6726 236.534 84.4617 236.289 84.3106 236.008C84.1596 235.721 84.0841 235.396 84.0841 235.031C84.0841 234.677 84.1596 234.341 84.3106 234.023C84.4669 233.706 84.6908 233.424 84.9825 233.18C85.2794 232.935 85.6387 232.742 86.0606 232.602C86.4877 232.461 86.9721 232.391 87.5137 232.391C88.2585 232.391 88.9018 232.508 89.4434 232.742C89.9851 232.971 90.4018 233.294 90.6934 233.711C90.9851 234.122 91.1309 234.594 91.1309 235.125H88.6934C88.6934 234.906 88.6518 234.716 88.5684 234.555C88.4851 234.393 88.3575 234.268 88.1856 234.18C88.0137 234.086 87.7872 234.039 87.5059 234.039C87.2872 234.039 87.0945 234.078 86.9278 234.156C86.7664 234.229 86.6387 234.331 86.545 234.461C86.4565 234.591 86.4122 234.742 86.4122 234.914C86.4122 235.034 86.4382 235.143 86.4903 235.242C86.5476 235.336 86.6335 235.424 86.7481 235.508C86.8679 235.586 87.0216 235.656 87.2091 235.719C87.4018 235.781 87.6361 235.841 87.9122 235.898C88.5007 236.008 89.0372 236.161 89.5216 236.359C90.0111 236.557 90.4018 236.831 90.6934 237.18C90.9903 237.529 91.1387 237.99 91.1387 238.562C91.1387 238.938 91.0528 239.281 90.8809 239.594C90.7143 239.906 90.4721 240.18 90.1544 240.414C89.8367 240.648 89.4565 240.831 89.0137 240.961C88.571 241.091 88.071 241.156 87.5137 241.156C86.7169 241.156 86.0424 241.013 85.4903 240.727C84.9382 240.44 84.5216 240.081 84.2403 239.648C83.9643 239.211 83.8262 238.763 83.8262 238.305H86.1153C86.1257 238.586 86.196 238.815 86.3262 238.992C86.4617 239.169 86.6361 239.299 86.8497 239.383C87.0632 239.461 87.3028 239.5 87.5684 239.5C87.8341 239.5 88.0554 239.464 88.2325 239.391C88.4096 239.318 88.545 239.219 88.6387 239.094C88.7325 238.964 88.7794 238.815 88.7794 238.648ZM98.3391 238.961V232.547H100.792V241H98.4953L98.3391 238.961ZM98.5969 237.234L99.2688 237.219C99.2688 237.786 99.201 238.31 99.0656 238.789C98.9354 239.268 98.7375 239.685 98.4719 240.039C98.2115 240.393 97.8859 240.669 97.4953 240.867C97.1099 241.06 96.6594 241.156 96.1438 241.156C95.7271 241.156 95.3443 241.099 94.9953 240.984C94.6516 240.865 94.3547 240.68 94.1047 240.43C93.8547 240.174 93.662 239.849 93.5266 239.453C93.3911 239.052 93.3234 238.573 93.3234 238.016V232.547H95.7609V238.031C95.7609 238.25 95.787 238.438 95.8391 238.594C95.8964 238.745 95.9719 238.87 96.0656 238.969C96.1646 239.068 96.2844 239.141 96.425 239.188C96.5708 239.234 96.7297 239.258 96.9016 239.258C97.3339 239.258 97.6724 239.169 97.9172 238.992C98.1672 238.81 98.3417 238.568 98.4406 238.266C98.5448 237.958 98.5969 237.615 98.5969 237.234ZM105.703 234.172V244.25H103.266V232.547H105.539L105.703 234.172ZM110.977 236.68V236.844C110.977 237.458 110.907 238.029 110.766 238.555C110.625 239.076 110.414 239.531 110.133 239.922C109.857 240.312 109.516 240.617 109.11 240.836C108.703 241.049 108.232 241.156 107.696 241.156C107.185 241.156 106.743 241.049 106.368 240.836C105.998 240.617 105.685 240.315 105.43 239.93C105.18 239.539 104.977 239.094 104.821 238.594C104.67 238.089 104.552 237.549 104.469 236.977V236.656C104.552 236.047 104.672 235.482 104.828 234.961C104.985 234.44 105.188 233.99 105.438 233.609C105.688 233.224 105.998 232.924 106.368 232.711C106.737 232.497 107.177 232.391 107.688 232.391C108.219 232.391 108.69 232.492 109.102 232.695C109.513 232.898 109.857 233.19 110.133 233.57C110.414 233.945 110.625 234.396 110.766 234.922C110.907 235.448 110.977 236.034 110.977 236.68ZM108.532 236.844V236.68C108.532 236.336 108.506 236.021 108.453 235.734C108.401 235.443 108.318 235.19 108.203 234.977C108.089 234.758 107.938 234.589 107.75 234.469C107.563 234.349 107.334 234.289 107.063 234.289C106.771 234.289 106.524 234.336 106.321 234.43C106.118 234.523 105.953 234.661 105.828 234.844C105.703 235.021 105.612 235.24 105.555 235.5C105.503 235.76 105.474 236.057 105.469 236.391V237.25C105.474 237.641 105.529 237.99 105.633 238.297C105.743 238.599 105.912 238.836 106.141 239.008C106.375 239.174 106.688 239.258 107.078 239.258C107.354 239.258 107.584 239.198 107.766 239.078C107.953 238.953 108.102 238.779 108.211 238.555C108.326 238.331 108.407 238.073 108.453 237.781C108.506 237.49 108.532 237.177 108.532 236.844ZM115.599 234.172V244.25H113.162V232.547H115.435L115.599 234.172ZM120.872 236.68V236.844C120.872 237.458 120.802 238.029 120.662 238.555C120.521 239.076 120.31 239.531 120.029 239.922C119.753 240.312 119.412 240.617 119.005 240.836C118.599 241.049 118.128 241.156 117.591 241.156C117.081 241.156 116.638 241.049 116.263 240.836C115.893 240.617 115.581 240.315 115.326 239.93C115.076 239.539 114.872 239.094 114.716 238.594C114.565 238.089 114.448 237.549 114.365 236.977V236.656C114.448 236.047 114.568 235.482 114.724 234.961C114.88 234.44 115.083 233.99 115.333 233.609C115.583 233.224 115.893 232.924 116.263 232.711C116.633 232.497 117.073 232.391 117.583 232.391C118.115 232.391 118.586 232.492 118.997 232.695C119.409 232.898 119.753 233.19 120.029 233.57C120.31 233.945 120.521 234.396 120.662 234.922C120.802 235.448 120.872 236.034 120.872 236.68ZM118.427 236.844V236.68C118.427 236.336 118.401 236.021 118.349 235.734C118.297 235.443 118.214 235.19 118.099 234.977C117.984 234.758 117.833 234.589 117.646 234.469C117.458 234.349 117.229 234.289 116.958 234.289C116.667 234.289 116.419 234.336 116.216 234.43C116.013 234.523 115.849 234.661 115.724 234.844C115.599 235.021 115.508 235.24 115.451 235.5C115.399 235.76 115.37 236.057 115.365 236.391V237.25C115.37 237.641 115.425 237.99 115.529 238.297C115.638 238.599 115.807 238.836 116.037 239.008C116.271 239.174 116.583 239.258 116.974 239.258C117.25 239.258 117.479 239.198 117.662 239.078C117.849 238.953 117.997 238.779 118.107 238.555C118.221 238.331 118.302 238.073 118.349 237.781C118.401 237.49 118.427 237.177 118.427 236.844ZM122.698 236.859V236.695C122.698 236.076 122.786 235.505 122.963 234.984C123.141 234.458 123.401 234.003 123.745 233.617C124.088 233.232 124.51 232.932 125.01 232.719C125.51 232.5 126.083 232.391 126.729 232.391C127.385 232.391 127.963 232.5 128.463 232.719C128.969 232.932 129.393 233.232 129.737 233.617C130.081 234.003 130.341 234.458 130.518 234.984C130.695 235.505 130.784 236.076 130.784 236.695V236.859C130.784 237.474 130.695 238.044 130.518 238.57C130.341 239.091 130.081 239.547 129.737 239.938C129.393 240.323 128.971 240.622 128.471 240.836C127.971 241.049 127.396 241.156 126.745 241.156C126.099 241.156 125.523 241.049 125.018 240.836C124.513 240.622 124.088 240.323 123.745 239.938C123.401 239.547 123.141 239.091 122.963 238.57C122.786 238.044 122.698 237.474 122.698 236.859ZM125.143 236.695V236.859C125.143 237.193 125.169 237.505 125.221 237.797C125.279 238.089 125.37 238.344 125.495 238.562C125.62 238.781 125.784 238.953 125.987 239.078C126.195 239.198 126.448 239.258 126.745 239.258C127.042 239.258 127.292 239.198 127.495 239.078C127.698 238.953 127.862 238.781 127.987 238.562C128.112 238.344 128.2 238.089 128.253 237.797C128.31 237.505 128.338 237.193 128.338 236.859V236.695C128.338 236.367 128.31 236.06 128.253 235.773C128.2 235.482 128.112 235.224 127.987 235C127.862 234.776 127.695 234.602 127.487 234.477C127.284 234.352 127.031 234.289 126.729 234.289C126.437 234.289 126.19 234.352 125.987 234.477C125.784 234.602 125.62 234.776 125.495 235C125.37 235.224 125.279 235.482 125.221 235.773C125.169 236.06 125.143 236.367 125.143 236.695ZM135.39 234.516V241H132.953V232.547H135.242L135.39 234.516ZM137.914 232.484L137.875 234.758C137.771 234.742 137.635 234.729 137.468 234.719C137.302 234.703 137.159 234.695 137.039 234.695C136.726 234.695 136.455 234.734 136.226 234.812C136.002 234.885 135.815 234.995 135.664 235.141C135.518 235.286 135.409 235.469 135.336 235.688C135.263 235.901 135.226 236.148 135.226 236.43L134.765 236.203C134.765 235.646 134.82 235.135 134.929 234.672C135.039 234.208 135.198 233.807 135.406 233.469C135.614 233.125 135.869 232.859 136.172 232.672C136.474 232.484 136.817 232.391 137.203 232.391C137.328 232.391 137.455 232.398 137.586 232.414C137.716 232.43 137.825 232.453 137.914 232.484ZM144.481 232.547V234.258H139.466V232.547H144.481ZM140.614 230.453H143.059V238.352C143.059 238.586 143.088 238.766 143.145 238.891C143.203 239.016 143.296 239.104 143.427 239.156C143.557 239.203 143.723 239.227 143.927 239.227C144.072 239.227 144.197 239.221 144.302 239.211C144.406 239.201 144.502 239.188 144.591 239.172V240.938C144.382 241.005 144.161 241.057 143.927 241.094C143.692 241.135 143.437 241.156 143.161 241.156C142.635 241.156 142.179 241.07 141.794 240.898C141.414 240.727 141.122 240.456 140.919 240.086C140.716 239.711 140.614 239.224 140.614 238.625V230.453Z" fill="white"/>
<path d="M142.462 496H162.538C163.722 496 164.857 496.516 165.693 497.435C166.53 498.354 167 499.6 167 500.9V505.8H162.538V500.9H142.462V540.1H162.538V535.2H167V540.1C167 541.4 166.53 542.646 165.693 543.565C164.857 544.484 163.722 545 162.538 545H142.462C141.278 545 140.143 544.484 139.307 543.565C138.47 542.646 138 541.4 138 540.1V500.9C138 499.6 138.47 498.354 139.307 497.435C140.143 496.516 141.278 496 142.462 496Z" fill="white" fill-opacity="0.33"/>
<path d="M165.281 529.475L168.519 533L180 520.5L168.519 508L165.281 511.525L171.205 518H149V523H171.205L165.281 529.475Z" fill="white" fill-opacity="0.33"/>
<path d="M138.109 523.923V525.892H132.367V523.923H138.109ZM133.234 514.517V525.892H130.688V514.517H133.234ZM139.763 521.751V521.587C139.763 520.967 139.851 520.397 140.028 519.876C140.206 519.35 140.466 518.894 140.81 518.509C141.153 518.124 141.575 517.824 142.075 517.611C142.575 517.392 143.148 517.282 143.794 517.282C144.45 517.282 145.028 517.392 145.528 517.611C146.034 517.824 146.458 518.124 146.802 518.509C147.146 518.894 147.406 519.35 147.583 519.876C147.76 520.397 147.849 520.967 147.849 521.587V521.751C147.849 522.366 147.76 522.936 147.583 523.462C147.406 523.983 147.146 524.439 146.802 524.829C146.458 525.215 146.036 525.514 145.536 525.728C145.036 525.941 144.461 526.048 143.81 526.048C143.164 526.048 142.588 525.941 142.083 525.728C141.578 525.514 141.153 525.215 140.81 524.829C140.466 524.439 140.206 523.983 140.028 523.462C139.851 522.936 139.763 522.366 139.763 521.751ZM142.208 521.587V521.751C142.208 522.085 142.234 522.397 142.286 522.689C142.344 522.98 142.435 523.236 142.56 523.454C142.685 523.673 142.849 523.845 143.052 523.97C143.26 524.09 143.513 524.15 143.81 524.15C144.107 524.15 144.357 524.09 144.56 523.97C144.763 523.845 144.927 523.673 145.052 523.454C145.177 523.236 145.265 522.98 145.318 522.689C145.375 522.397 145.403 522.085 145.403 521.751V521.587C145.403 521.259 145.375 520.952 145.318 520.665C145.265 520.374 145.177 520.116 145.052 519.892C144.927 519.668 144.76 519.493 144.552 519.368C144.349 519.243 144.096 519.181 143.794 519.181C143.502 519.181 143.255 519.243 143.052 519.368C142.849 519.493 142.685 519.668 142.56 519.892C142.435 520.116 142.344 520.374 142.286 520.665C142.234 520.952 142.208 521.259 142.208 521.587ZM155.338 517.439H157.557V525.587C157.557 526.363 157.38 527.022 157.026 527.564C156.677 528.105 156.19 528.517 155.565 528.798C154.94 529.079 154.208 529.22 153.369 529.22C153.005 529.22 152.625 529.17 152.229 529.072C151.833 528.978 151.461 528.835 151.112 528.642C150.763 528.454 150.471 528.215 150.237 527.923L151.276 526.486C151.515 526.756 151.802 526.975 152.135 527.142C152.468 527.314 152.849 527.4 153.276 527.4C153.666 527.4 153.997 527.329 154.268 527.189C154.539 527.048 154.744 526.842 154.885 526.572C155.031 526.301 155.104 525.973 155.104 525.587V519.415L155.338 517.439ZM149.69 521.767V521.603C149.69 520.962 149.768 520.379 149.924 519.853C150.08 519.322 150.307 518.866 150.604 518.486C150.906 518.1 151.268 517.803 151.69 517.595C152.117 517.387 152.596 517.282 153.127 517.282C153.7 517.282 154.174 517.392 154.549 517.611C154.924 517.824 155.229 518.126 155.463 518.517C155.698 518.902 155.882 519.358 156.018 519.884C156.153 520.405 156.263 520.97 156.346 521.579V521.861C156.263 522.444 156.143 522.988 155.987 523.493C155.83 523.999 155.627 524.444 155.377 524.829C155.127 525.21 154.815 525.509 154.44 525.728C154.07 525.941 153.627 526.048 153.112 526.048C152.586 526.048 152.112 525.941 151.69 525.728C151.268 525.514 150.906 525.215 150.604 524.829C150.307 524.444 150.08 523.991 149.924 523.47C149.768 522.949 149.69 522.381 149.69 521.767ZM152.127 521.603V521.767C152.127 522.1 152.158 522.41 152.221 522.697C152.289 522.983 152.388 523.236 152.518 523.454C152.653 523.673 152.82 523.845 153.018 523.97C153.221 524.09 153.458 524.15 153.729 524.15C154.125 524.15 154.445 524.066 154.69 523.9C154.94 523.728 155.122 523.491 155.237 523.189C155.356 522.887 155.419 522.535 155.424 522.134V521.314C155.424 520.98 155.39 520.681 155.323 520.415C155.255 520.15 155.153 519.926 155.018 519.743C154.888 519.561 154.716 519.423 154.502 519.329C154.294 519.23 154.041 519.181 153.744 519.181C153.479 519.181 153.244 519.243 153.041 519.368C152.838 519.488 152.669 519.657 152.533 519.876C152.398 520.095 152.296 520.353 152.229 520.65C152.161 520.941 152.127 521.259 152.127 521.603ZM169.887 523.853V517.439H172.34V525.892H170.043L169.887 523.853ZM170.145 522.126L170.817 522.111C170.817 522.678 170.749 523.202 170.614 523.681C170.484 524.16 170.286 524.577 170.02 524.931C169.76 525.285 169.434 525.561 169.043 525.759C168.658 525.952 168.208 526.048 167.692 526.048C167.275 526.048 166.892 525.991 166.543 525.876C166.2 525.756 165.903 525.572 165.653 525.322C165.403 525.066 165.21 524.741 165.075 524.345C164.939 523.944 164.872 523.465 164.872 522.907V517.439H167.309V522.923C167.309 523.142 167.335 523.329 167.387 523.486C167.444 523.637 167.52 523.762 167.614 523.861C167.713 523.96 167.833 524.032 167.973 524.079C168.119 524.126 168.278 524.15 168.45 524.15C168.882 524.15 169.221 524.061 169.465 523.884C169.715 523.702 169.89 523.46 169.989 523.157C170.093 522.85 170.145 522.506 170.145 522.126ZM179.728 524.001V513.892H182.181V525.892H179.978L179.728 524.001ZM174.463 521.767V521.603C174.463 520.962 174.533 520.379 174.673 519.853C174.819 519.322 175.03 518.866 175.306 518.486C175.588 518.1 175.934 517.803 176.345 517.595C176.757 517.387 177.228 517.282 177.759 517.282C178.249 517.282 178.676 517.392 179.041 517.611C179.405 517.824 179.715 518.126 179.97 518.517C180.231 518.902 180.442 519.358 180.603 519.884C180.765 520.405 180.887 520.97 180.97 521.579V521.861C180.892 522.444 180.77 522.988 180.603 523.493C180.442 523.999 180.231 524.444 179.97 524.829C179.715 525.21 179.403 525.509 179.033 525.728C178.668 525.941 178.239 526.048 177.744 526.048C177.213 526.048 176.741 525.941 176.33 525.728C175.923 525.514 175.582 525.215 175.306 524.829C175.03 524.444 174.819 523.991 174.673 523.47C174.533 522.949 174.463 522.381 174.463 521.767ZM176.9 521.603V521.767C176.9 522.1 176.923 522.41 176.97 522.697C177.022 522.983 177.106 523.236 177.22 523.454C177.335 523.673 177.486 523.845 177.673 523.97C177.861 524.09 178.09 524.15 178.361 524.15C178.726 524.15 179.025 524.066 179.259 523.9C179.494 523.728 179.671 523.491 179.791 523.189C179.91 522.887 179.973 522.535 179.978 522.134V521.314C179.978 520.98 179.944 520.681 179.877 520.415C179.809 520.15 179.707 519.926 179.572 519.743C179.442 519.561 179.278 519.423 179.08 519.329C178.882 519.23 178.647 519.181 178.377 519.181C178.111 519.181 177.884 519.243 177.697 519.368C177.509 519.488 177.356 519.657 177.236 519.876C177.121 520.095 177.035 520.353 176.978 520.65C176.926 520.941 176.9 521.259 176.9 521.603Z" fill="white"/>
<path d="M256.837 95.125L227.875 66.1629V72.0796C227.875 73.6475 228.496 75.1562 229.62 76.2508L252.666 99.2962C254.973 101.604 258.73 101.604 261.038 99.2962L279.409 80.925C281.717 78.6175 281.717 74.8604 279.409 72.5529L256.837 95.125Z" fill="white" fill-opacity="0.33"/>
<path d="M252.666 84.5046C253.82 85.6583 255.328 86.25 256.837 86.25C258.346 86.25 259.855 85.6583 261.008 84.5046L279.38 66.1333C281.687 63.8258 281.687 60.0687 279.38 57.7612L256.334 34.7158C255.24 33.6212 253.731 33 252.163 33H233.792C230.538 33 227.875 35.6625 227.875 38.9167V57.2879C227.875 58.8558 228.496 60.3646 229.62 61.4592L252.666 84.5046V84.5046ZM233.792 38.9167H252.163L275.208 61.9621L256.837 80.3333L233.792 57.2879V38.9167Z" fill="white" fill-opacity="0.33"/>
<path d="M240.448 49.2708C242.49 49.2708 244.146 47.6152 244.146 45.5729C244.146 43.5306 242.49 41.875 240.448 41.875C238.406 41.875 236.75 43.5306 236.75 45.5729C236.75 47.6152 238.406 49.2708 240.448 49.2708Z" fill="white" fill-opacity="0.33"/>
<path d="M75.0001 198.667C67.6163 198.667 60.3982 200.856 54.2588 204.958C48.1194 209.061 43.3343 214.891 40.5086 221.713C37.6829 228.535 36.9436 236.041 38.3841 243.283C39.8246 250.525 43.3803 257.178 48.6014 262.399C53.8226 267.62 60.4748 271.175 67.7167 272.616C74.9587 274.057 82.4652 273.317 89.2869 270.492C96.1087 267.666 101.939 262.881 106.042 256.741C110.144 250.602 112.333 243.384 112.333 236C112.333 226.099 108.4 216.603 101.399 209.601C94.3974 202.6 84.9015 198.667 75.0001 198.667V198.667ZM75.0001 268.667C68.5392 268.667 62.2235 266.751 56.8515 263.161C51.4795 259.572 47.2925 254.47 44.82 248.501C42.3476 242.532 41.7007 235.964 42.9611 229.627C44.2216 223.29 47.3328 217.47 51.9013 212.901C56.4698 208.333 62.2904 205.221 68.6271 203.961C74.9639 202.701 81.532 203.347 87.5011 205.82C93.4701 208.292 98.572 212.479 102.161 217.851C105.751 223.223 107.667 229.539 107.667 236C107.667 244.664 104.225 252.973 98.0989 259.099C91.9727 265.225 83.6638 268.667 75.0001 268.667Z" fill="#FFFCFC" fill-opacity="0.33"/>
<path d="M75.0001 198.667C67.6163 198.667 60.3982 200.856 54.2588 204.958C48.1194 209.061 43.3343 214.891 40.5086 221.713C37.6829 228.535 36.9436 236.041 38.3841 243.283C39.8246 250.525 43.3803 257.178 48.6014 262.399C53.8226 267.62 60.4748 271.175 67.7167 272.616C74.9587 274.057 82.4652 273.317 89.2869 270.492C96.1087 267.666 101.939 262.881 106.042 256.741C110.144 250.602 112.333 243.384 112.333 236C112.333 226.099 108.4 216.603 101.399 209.601C94.3974 202.6 84.9015 198.667 75.0001 198.667V198.667ZM75.0001 268.667C68.5392 268.667 62.2235 266.751 56.8515 263.161C51.4795 259.572 47.2925 254.47 44.82 248.501C42.3476 242.532 41.7007 235.964 42.9611 229.627C44.2216 223.29 47.3328 217.47 51.9013 212.901C56.4698 208.333 62.2904 205.221 68.6271 203.961C74.9639 202.701 81.532 203.347 87.5011 205.82C93.4701 208.292 98.572 212.479 102.161 217.851C105.751 223.223 107.667 229.539 107.667 236C107.667 244.664 104.225 252.973 98.0989 259.099C91.9727 265.225 83.6638 268.667 75.0001 268.667Z" fill="#FFFCFC" fill-opacity="0.33"/>
<path d="M75.6766 214.813C73.1481 214.772 70.6414 215.287 68.3347 216.324C66.0279 217.36 63.9778 218.892 62.3299 220.81C62.101 221.022 61.9169 221.278 61.7887 221.563C61.6604 221.847 61.5906 222.155 61.5833 222.467C61.5831 222.755 61.6409 223.04 61.7531 223.305C61.8653 223.57 62.0297 223.81 62.2365 224.01C62.4434 224.21 62.6883 224.367 62.9569 224.47C63.2255 224.574 63.5122 224.623 63.7999 224.613C64.4163 224.598 65.0057 224.357 65.4566 223.937C66.7037 222.475 68.2526 221.301 69.9967 220.496C71.7408 219.69 73.6387 219.272 75.5599 219.27C81.0666 219.27 84.4966 222.817 84.4966 227.227V227.343C84.4966 232.5 80.3899 235.37 73.9033 235.86C73.6406 235.87 73.383 235.936 73.1474 236.052C72.9119 236.169 72.7035 236.334 72.5361 236.536C72.3687 236.739 72.246 236.975 72.176 237.228C72.106 237.482 72.0903 237.747 72.1299 238.007C72.1299 238.007 72.1299 243.42 72.1299 244.423C72.188 245.001 72.4592 245.536 72.8906 245.924C73.3221 246.313 73.8828 246.526 74.4633 246.523H74.7199C75.2975 246.465 75.8327 246.194 76.221 245.763C76.6093 245.331 76.8228 244.77 76.8199 244.19V239.383C83.8199 238.403 89.4899 234.717 89.4899 227.063V226.947C89.4199 219.947 83.9599 214.813 75.6766 214.813V214.813Z" fill="#FFFCFC" fill-opacity="0.33"/>
<path d="M74.4867 258.05C76.0976 258.05 77.4034 256.744 77.4034 255.133C77.4034 253.523 76.0976 252.217 74.4867 252.217C72.8759 252.217 71.5701 253.523 71.5701 255.133C71.5701 256.744 72.8759 258.05 74.4867 258.05Z" fill="#FFFCFC" fill-opacity="0.33"/>
<path d="M241.64 271C235.934 269.202 230.766 265.875 226.639 261.343C227.967 259.681 228.795 257.639 229.016 255.478C229.238 253.316 228.844 251.134 227.884 249.211C226.924 247.288 225.442 245.71 223.628 244.681C221.814 243.651 219.75 243.216 217.7 243.432C217.233 241.018 216.999 238.56 217 236.096C217 232.291 217.552 228.621 218.58 225.173H218.725C220.484 225.173 222.214 224.701 223.752 223.799C225.29 222.898 226.585 221.598 227.515 220.022C228.444 218.446 228.978 216.646 229.066 214.791C229.153 212.937 228.791 211.09 228.014 209.424C232.059 205.449 236.95 202.56 242.275 201C243.141 202.796 244.462 204.304 246.09 205.357C247.718 206.41 249.59 206.967 251.5 206.966C253.41 206.967 255.282 206.41 256.91 205.357C258.538 204.304 259.859 202.796 260.725 201C266.05 202.56 270.941 205.449 274.986 209.424C274.203 211.101 273.842 212.963 273.936 214.83C274.03 216.697 274.576 218.507 275.523 220.088C276.47 221.668 277.785 222.965 279.343 223.856C280.9 224.746 282.649 225.2 284.42 225.173C285.47 228.708 286.003 232.392 286 236.096C286 238.609 285.758 241.063 285.3 243.432C283.25 243.216 281.186 243.651 279.372 244.681C277.558 245.71 276.076 247.288 275.116 249.211C274.156 251.134 273.762 253.316 273.984 255.478C274.205 257.639 275.033 259.681 276.361 261.343C272.234 265.875 267.066 269.202 261.36 271C260.69 268.796 259.374 266.873 257.602 265.509C255.83 264.145 253.693 263.41 251.5 263.41C249.307 263.41 247.17 264.145 245.398 265.509C243.626 266.873 242.31 268.796 241.64 271Z" stroke="white" stroke-opacity="0.33" stroke-width="4" stroke-linejoin="round"/>
<path d="M251.5 248.841C253.086 248.841 254.656 248.511 256.121 247.871C257.586 247.23 258.917 246.292 260.038 245.108C261.159 243.925 262.049 242.52 262.656 240.974C263.262 239.427 263.575 237.77 263.575 236.096C263.575 234.423 263.262 232.766 262.656 231.219C262.049 229.673 261.159 228.268 260.038 227.085C258.917 225.901 257.586 224.963 256.121 224.322C254.656 223.682 253.086 223.352 251.5 223.352C248.297 223.352 245.226 224.695 242.961 227.085C240.697 229.475 239.425 232.716 239.425 236.096C239.425 239.477 240.697 242.718 242.961 245.108C245.226 247.498 248.297 248.841 251.5 248.841V248.841Z" stroke="white" stroke-opacity="0.33" stroke-width="4" stroke-linejoin="round"/>
<path d="M51.3203 60.625V72H48.7812L44.4844 64.6484V72H41.9375V60.625H44.4844L48.7891 67.9766V60.625H51.3203ZM56.505 71.0234L58.7159 63.5469H61.3409L57.9425 73.2656C57.8696 73.4792 57.7706 73.7083 57.6456 73.9531C57.5258 74.1979 57.3618 74.4323 57.1534 74.6562C56.9503 74.8802 56.6899 75.0625 56.3722 75.2031C56.0545 75.3438 55.6639 75.4141 55.2003 75.4141C54.9659 75.4141 54.7836 75.401 54.6534 75.375C54.5284 75.3542 54.3618 75.3177 54.1534 75.2656L54.1456 73.4922C54.2133 73.4922 54.2732 73.4922 54.3253 73.4922C54.3826 73.4974 54.4399 73.5 54.4972 73.5C54.7889 73.5 55.0232 73.4688 55.2003 73.4062C55.3826 73.3438 55.5232 73.25 55.6222 73.125C55.7264 73.0052 55.8097 72.8516 55.8722 72.6641L56.505 71.0234ZM55.7628 63.5469L57.5128 69.5625L57.8097 72.1484L56.1613 72.2344L53.1378 63.5469H55.7628ZM65.3928 60V72H62.9553V60H65.3928ZM65.0725 67.4766L64.4631 67.4922C64.4631 66.8984 64.536 66.3542 64.6819 65.8594C64.8329 65.3594 65.0465 64.9245 65.3225 64.5547C65.5985 64.1849 65.9293 63.8984 66.3147 63.6953C66.7053 63.4922 67.135 63.3906 67.6038 63.3906C68.0204 63.3906 68.4006 63.4505 68.7444 63.5703C69.0881 63.6901 69.385 63.8802 69.635 64.1406C69.885 64.401 70.0777 64.7422 70.2131 65.1641C70.3485 65.5859 70.4163 66.099 70.4163 66.7031V72H67.9631V66.6875C67.9631 66.3281 67.911 66.0469 67.8069 65.8438C67.7079 65.6406 67.5621 65.4974 67.3694 65.4141C67.1819 65.3307 66.9527 65.2891 66.6819 65.2891C66.3642 65.2891 66.1011 65.3464 65.8928 65.4609C65.6845 65.5703 65.5204 65.724 65.4006 65.9219C65.2808 66.1198 65.1949 66.3516 65.1428 66.6172C65.0959 66.8828 65.0725 67.1693 65.0725 67.4766ZM76.8744 72.1562C76.2025 72.1562 75.6009 72.0495 75.0697 71.8359C74.5384 71.6224 74.0879 71.3281 73.7181 70.9531C73.3535 70.5729 73.0749 70.1354 72.8822 69.6406C72.6895 69.1458 72.5931 68.6172 72.5931 68.0547V67.7578C72.5931 67.1276 72.6817 66.5469 72.8587 66.0156C73.0358 65.4844 73.2936 65.0234 73.6322 64.6328C73.9759 64.237 74.3978 63.9323 74.8978 63.7188C75.3978 63.5 75.9681 63.3906 76.6087 63.3906C77.2077 63.3906 77.7416 63.4896 78.2103 63.6875C78.6791 63.8802 79.0749 64.1589 79.3978 64.5234C79.7207 64.8828 79.9655 65.3177 80.1322 65.8281C80.3041 66.3333 80.39 66.901 80.39 67.5312V68.5312H73.5775V66.9609H77.9994V66.7734C77.9994 66.4766 77.9447 66.2161 77.8353 65.9922C77.7311 65.7682 77.5749 65.5964 77.3666 65.4766C77.1634 65.3516 76.9056 65.2891 76.5931 65.2891C76.2962 65.2891 76.0489 65.3516 75.8509 65.4766C75.653 65.6016 75.4942 65.7786 75.3744 66.0078C75.2598 66.2318 75.1765 66.4948 75.1244 66.7969C75.0723 67.0938 75.0462 67.4141 75.0462 67.7578V68.0547C75.0462 68.3828 75.0905 68.6823 75.1791 68.9531C75.2676 69.224 75.3978 69.4557 75.5697 69.6484C75.7416 69.8411 75.9499 69.9922 76.1947 70.1016C76.4395 70.2109 76.7181 70.2656 77.0306 70.2656C77.416 70.2656 77.7832 70.1927 78.1322 70.0469C78.4811 69.8958 78.7832 69.6615 79.0384 69.3438L80.1791 70.6484C80.0072 70.8984 79.765 71.1406 79.4525 71.375C79.1452 71.6042 78.7754 71.7917 78.3431 71.9375C77.9108 72.0833 77.4212 72.1562 76.8744 72.1562ZM87.3794 70.1094V60H89.8325V72H87.6294L87.3794 70.1094ZM82.1138 67.875V67.7109C82.1138 67.0703 82.1841 66.487 82.3247 65.9609C82.4705 65.4297 82.6815 64.974 82.9575 64.5938C83.2388 64.2083 83.5851 63.9115 83.9966 63.7031C84.408 63.4948 84.8794 63.3906 85.4106 63.3906C85.9002 63.3906 86.3273 63.5 86.6919 63.7188C87.0565 63.9323 87.3664 64.2344 87.6216 64.625C87.882 65.0104 88.0929 65.4661 88.2544 65.9922C88.4158 66.513 88.5382 67.0781 88.6216 67.6875V67.9688C88.5434 68.5521 88.421 69.0964 88.2544 69.6016C88.0929 70.1068 87.882 70.5521 87.6216 70.9375C87.3664 71.3177 87.0539 71.6172 86.6841 71.8359C86.3195 72.0495 85.8898 72.1562 85.395 72.1562C84.8638 72.1562 84.3924 72.0495 83.9809 71.8359C83.5747 71.6224 83.2335 71.3229 82.9575 70.9375C82.6815 70.5521 82.4705 70.099 82.3247 69.5781C82.1841 69.0573 82.1138 68.4896 82.1138 67.875ZM84.5513 67.7109V67.875C84.5513 68.2083 84.5747 68.5182 84.6216 68.8047C84.6736 69.0911 84.757 69.3438 84.8716 69.5625C84.9861 69.7812 85.1372 69.9531 85.3247 70.0781C85.5122 70.1979 85.7414 70.2578 86.0122 70.2578C86.3768 70.2578 86.6763 70.1745 86.9106 70.0078C87.145 69.8359 87.3221 69.599 87.4419 69.2969C87.5617 68.9948 87.6242 68.6432 87.6294 68.2422V67.4219C87.6294 67.0885 87.5955 66.7891 87.5278 66.5234C87.4601 66.2578 87.3585 66.0339 87.2231 65.8516C87.0929 65.6693 86.9289 65.5312 86.7309 65.4375C86.533 65.3385 86.2986 65.2891 86.0278 65.2891C85.7622 65.2891 85.5356 65.3516 85.3481 65.4766C85.1606 65.5964 85.007 65.7656 84.8872 65.9844C84.7726 66.2031 84.6867 66.4609 84.6294 66.7578C84.5773 67.0495 84.5513 67.3672 84.5513 67.7109ZM96.3219 72.1562C95.65 72.1562 95.0484 72.0495 94.5172 71.8359C93.9859 71.6224 93.5354 71.3281 93.1656 70.9531C92.801 70.5729 92.5224 70.1354 92.3297 69.6406C92.137 69.1458 92.0406 68.6172 92.0406 68.0547V67.7578C92.0406 67.1276 92.1292 66.5469 92.3063 66.0156C92.4833 65.4844 92.7411 65.0234 93.0797 64.6328C93.4234 64.237 93.8453 63.9323 94.3453 63.7188C94.8453 63.5 95.4156 63.3906 96.0563 63.3906C96.6552 63.3906 97.1891 63.4896 97.6578 63.6875C98.1266 63.8802 98.5224 64.1589 98.8453 64.5234C99.1682 64.8828 99.413 65.3177 99.5797 65.8281C99.7516 66.3333 99.8375 66.901 99.8375 67.5312V68.5312H93.025V66.9609H97.4469V66.7734C97.4469 66.4766 97.3922 66.2161 97.2828 65.9922C97.1786 65.7682 97.0224 65.5964 96.8141 65.4766C96.6109 65.3516 96.3531 65.2891 96.0406 65.2891C95.7438 65.2891 95.4964 65.3516 95.2984 65.4766C95.1005 65.6016 94.9417 65.7786 94.8219 66.0078C94.7073 66.2318 94.624 66.4948 94.5719 66.7969C94.5198 67.0938 94.4938 67.4141 94.4938 67.7578V68.0547C94.4938 68.3828 94.538 68.6823 94.6266 68.9531C94.7151 69.224 94.8453 69.4557 95.0172 69.6484C95.1891 69.8411 95.3974 69.9922 95.6422 70.1016C95.887 70.2109 96.1656 70.2656 96.4781 70.2656C96.8635 70.2656 97.2307 70.1927 97.5797 70.0469C97.9286 69.8958 98.2307 69.6615 98.4859 69.3438L99.6266 70.6484C99.4547 70.8984 99.2125 71.1406 98.9 71.375C98.5927 71.6042 98.2229 71.7917 97.7906 71.9375C97.3583 72.0833 96.8688 72.1562 96.3219 72.1562ZM104.35 65.5156V72H101.913V63.5469H104.202L104.35 65.5156ZM106.874 63.4844L106.835 65.7578C106.731 65.7422 106.595 65.7292 106.428 65.7188C106.262 65.7031 106.119 65.6953 105.999 65.6953C105.686 65.6953 105.415 65.7344 105.186 65.8125C104.962 65.8854 104.775 65.9948 104.624 66.1406C104.478 66.2865 104.369 66.4688 104.296 66.6875C104.223 66.901 104.186 67.1484 104.186 67.4297L103.725 67.2031C103.725 66.6458 103.78 66.1354 103.889 65.6719C103.999 65.2083 104.158 64.8073 104.366 64.4688C104.574 64.125 104.829 63.8594 105.132 63.6719C105.434 63.4844 105.777 63.3906 106.163 63.3906C106.288 63.3906 106.415 63.3984 106.546 63.4141C106.676 63.4297 106.785 63.4531 106.874 63.4844Z" fill="white"/>
<path d="M105.75 35H43.75C39.4487 35 36 38.1892 36 42.1667V92.3333C36 96.3108 39.4487 99.5 43.75 99.5H105.75C110.051 99.5 113.5 96.3108 113.5 92.3333V42.1667C113.5 38.1892 110.051 35 105.75 35ZM47.625 49.3333H67V70.8333H47.625V49.3333ZM101.875 85.1667H47.625V78H101.875V85.1667ZM101.875 70.8333H74.75V63.6667H101.875V70.8333ZM101.875 56.5H74.75V49.3333H101.875V56.5Z" fill="white" fill-opacity="0.33"/>
</svg>
