<svg width="27" height="25" viewBox="0 0 27 25" fill="none" xmlns="http://www.w3.org/2000/svg">
<path d="M11.3333 6.36364H16.6667V4.45455C16.6667 3.75189 16.4063 3.15199 15.8854 2.65483C15.3646 2.15767 14.7361 1.90909 14 1.90909C13.2639 1.90909 12.6354 2.15767 12.1146 2.65483C11.5938 3.15199 11.3333 3.75189 11.3333 4.45455V6.36364ZM20 7.31818V13.0455C20 13.3106 19.9028 13.536 19.7083 13.7216C19.5139 13.9072 19.2778 14 19 14H9C8.72222 14 8.48611 13.9072 8.29167 13.7216C8.09722 13.536 8 13.3106 8 13.0455V7.31818C8 7.05303 8.09722 6.82765 8.29167 6.64205C8.48611 6.45644 8.72222 6.36364 9 6.36364H9.33333V4.45455C9.33333 3.23485 9.79167 2.1875 10.7083 1.3125C11.625 0.4375 12.7222 0 14 0C15.2778 0 16.375 0.4375 17.2917 1.3125C18.2083 2.1875 18.6667 3.23485 18.6667 4.45455V6.36364H19C19.2778 6.36364 19.5139 6.45644 19.7083 6.64205C19.9028 6.82765 20 7.05303 20 7.31818Z" fill="black"/>
<path d="M4.22049 22.1387V23H1.70828V22.1387H4.22049ZM2.08768 18.0234V23H0.973418V18.0234H2.08768ZM4.94387 21.1885V21.1167C4.94387 20.8455 4.9826 20.596 5.06008 20.3682C5.13755 20.138 5.25148 19.9386 5.40188 19.77C5.55227 19.6014 5.73684 19.4704 5.95559 19.377C6.17434 19.2812 6.42499 19.2334 6.70754 19.2334C6.99465 19.2334 7.24758 19.2812 7.46633 19.377C7.68736 19.4704 7.87307 19.6014 8.02346 19.77C8.17385 19.9386 8.28778 20.138 8.36525 20.3682C8.44273 20.596 8.48147 20.8455 8.48147 21.1167V21.1885C8.48147 21.4574 8.44273 21.7069 8.36525 21.937C8.28778 22.1649 8.17385 22.3643 8.02346 22.5352C7.87307 22.7038 7.6885 22.8348 7.46975 22.9282C7.251 23.0216 6.99921 23.0684 6.71438 23.0684C6.43182 23.0684 6.18003 23.0216 5.959 22.9282C5.73798 22.8348 5.55227 22.7038 5.40188 22.5352C5.25148 22.3643 5.13755 22.1649 5.06008 21.937C4.9826 21.7069 4.94387 21.4574 4.94387 21.1885ZM6.01369 21.1167V21.1885C6.01369 21.3343 6.02509 21.471 6.04787 21.5986C6.07294 21.7262 6.11281 21.8379 6.1675 21.9336C6.22219 22.0293 6.29397 22.1045 6.38283 22.1592C6.47398 22.2116 6.58449 22.2378 6.71438 22.2378C6.84426 22.2378 6.95363 22.2116 7.0425 22.1592C7.13137 22.1045 7.20315 22.0293 7.25783 21.9336C7.31252 21.8379 7.35126 21.7262 7.37404 21.5986C7.39911 21.471 7.41164 21.3343 7.41164 21.1885V21.1167C7.41164 20.9731 7.39911 20.8387 7.37404 20.7134C7.35126 20.5858 7.31252 20.473 7.25783 20.375C7.20315 20.277 7.13023 20.2007 7.03908 20.146C6.95022 20.0913 6.8397 20.064 6.70754 20.064C6.57994 20.064 6.4717 20.0913 6.38283 20.146C6.29397 20.2007 6.22219 20.277 6.1675 20.375C6.11281 20.473 6.07294 20.5858 6.04787 20.7134C6.02509 20.8387 6.01369 20.9731 6.01369 21.1167ZM10.5003 17.7466V23H9.43043V17.7466H10.5003ZM12.8484 19.3018L11.2385 21.1611L10.3875 22.0156L9.96022 21.2944L10.6506 20.4023L11.5632 19.3018H12.8484ZM11.7205 23L10.678 21.3013L11.4436 20.7031L12.9441 23H11.7205ZM15.5576 22.1182V20.5322C15.5576 20.4206 15.5405 20.3249 15.5063 20.2451C15.4722 20.1654 15.4186 20.1027 15.3457 20.0571C15.2728 20.0116 15.1782 19.9888 15.062 19.9888C14.964 19.9888 14.8786 20.0059 14.8057 20.04C14.735 20.0742 14.6803 20.1232 14.6416 20.187C14.6051 20.2508 14.5869 20.3294 14.5869 20.4229H13.5205C13.5205 20.2565 13.5581 20.1016 13.6333 19.958C13.7085 19.8145 13.8156 19.688 13.9546 19.5786C14.0959 19.4692 14.2645 19.3849 14.4604 19.3257C14.6564 19.2642 14.8763 19.2334 15.1201 19.2334C15.4095 19.2334 15.667 19.2824 15.8926 19.3804C16.1204 19.4761 16.3005 19.6208 16.4326 19.8145C16.5648 20.0059 16.6309 20.2474 16.6309 20.5391V22.0874C16.6309 22.3107 16.6434 22.4862 16.6685 22.6138C16.6958 22.7391 16.7345 22.8485 16.7847 22.9419V23H15.708C15.6579 22.8929 15.6203 22.7607 15.5952 22.6035C15.5701 22.444 15.5576 22.2822 15.5576 22.1182ZM15.6909 20.7441L15.6978 21.332H15.168C15.0495 21.332 14.9469 21.3468 14.8604 21.3765C14.776 21.4061 14.7077 21.4471 14.6553 21.4995C14.6029 21.5496 14.5641 21.6089 14.5391 21.6772C14.5163 21.7433 14.5049 21.8162 14.5049 21.896C14.5049 21.9712 14.5231 22.0396 14.5596 22.1011C14.596 22.1603 14.6462 22.207 14.71 22.2412C14.7738 22.2754 14.8478 22.2925 14.9321 22.2925C15.0711 22.2925 15.1896 22.2651 15.2876 22.2104C15.3879 22.1558 15.4653 22.0897 15.52 22.0122C15.5747 21.9325 15.6021 21.8584 15.6021 21.79L15.8584 22.2344C15.8174 22.3255 15.7673 22.4201 15.708 22.5181C15.6488 22.6138 15.5736 22.7038 15.4824 22.7881C15.3913 22.8701 15.2808 22.9373 15.1509 22.9897C15.0233 23.0422 14.8695 23.0684 14.6895 23.0684C14.457 23.0684 14.2463 23.0216 14.0571 22.9282C13.868 22.8325 13.7165 22.7015 13.6025 22.5352C13.4909 22.3688 13.4351 22.1774 13.4351 21.9609C13.4351 21.7673 13.4704 21.5952 13.541 21.4448C13.6117 21.2944 13.7176 21.1668 13.8589 21.062C14.0024 20.9572 14.1825 20.8786 14.3989 20.8262C14.6154 20.7715 14.8683 20.7441 15.1577 20.7441H15.6909ZM18.8411 17.75V23H17.7712V17.75H18.8411ZM21.7383 23.0684C21.4443 23.0684 21.1811 23.0216 20.9487 22.9282C20.7163 22.8348 20.5192 22.7061 20.3574 22.542C20.1979 22.3757 20.076 22.1842 19.9917 21.9678C19.9074 21.7513 19.8652 21.52 19.8652 21.2739V21.144C19.8652 20.8683 19.904 20.6143 19.9814 20.3818C20.0589 20.1494 20.1717 19.9478 20.3198 19.7769C20.4702 19.6037 20.6548 19.4704 20.8735 19.377C21.0923 19.2812 21.3418 19.2334 21.6221 19.2334C21.8841 19.2334 22.1177 19.2767 22.3227 19.3633C22.5278 19.4476 22.701 19.5695 22.8423 19.729C22.9835 19.8862 23.0906 20.0765 23.1636 20.2998C23.2388 20.5208 23.2763 20.7692 23.2763 21.0449V21.4824H20.2959V20.7954H22.2304V20.7134C22.2304 20.5835 22.2065 20.4696 22.1587 20.3716C22.1131 20.2736 22.0447 20.1984 21.9536 20.146C21.8647 20.0913 21.7519 20.064 21.6152 20.064C21.4853 20.064 21.3771 20.0913 21.2905 20.146C21.2039 20.2007 21.1344 20.2782 21.082 20.3784C21.0319 20.4764 20.9954 20.5915 20.9726 20.7236C20.9499 20.8535 20.9385 20.9937 20.9385 21.144V21.2739C20.9385 21.4175 20.9578 21.5485 20.9966 21.667C21.0353 21.7855 21.0923 21.8869 21.1675 21.9712C21.2427 22.0555 21.3338 22.1216 21.4409 22.1694C21.548 22.2173 21.6699 22.2412 21.8066 22.2412C21.9752 22.2412 22.1359 22.2093 22.2886 22.1455C22.4412 22.0794 22.5734 21.9769 22.685 21.8379L23.1841 22.4087C23.1089 22.5181 23.0029 22.624 22.8662 22.7266C22.7318 22.8268 22.57 22.9089 22.3808 22.9727C22.1917 23.0365 21.9775 23.0684 21.7383 23.0684ZM25.2507 20.1631V23H24.1843V19.3018H25.1858L25.2507 20.1631ZM26.3547 19.2744L26.3376 20.269C26.292 20.2622 26.2328 20.2565 26.1599 20.252C26.087 20.2451 26.0243 20.2417 25.9719 20.2417C25.8352 20.2417 25.7167 20.2588 25.6164 20.293C25.5184 20.3249 25.4364 20.3727 25.3703 20.4365C25.3065 20.5003 25.2587 20.5801 25.2268 20.6758C25.1949 20.7692 25.1789 20.8774 25.1789 21.0005L24.9773 20.9014C24.9773 20.6576 25.0012 20.4342 25.049 20.2314C25.0969 20.0286 25.1664 19.8532 25.2575 19.7051C25.3487 19.5547 25.4603 19.4385 25.5925 19.3564C25.7247 19.2744 25.8751 19.2334 26.0437 19.2334C26.0984 19.2334 26.1542 19.2368 26.2112 19.2437C26.2681 19.2505 26.316 19.2607 26.3547 19.2744Z" fill="black"/>
</svg>
