<svg width="45" height="43" viewBox="0 0 45 43" fill="none" xmlns="http://www.w3.org/2000/svg">
<path d="M22.5156 0.25C18.7564 0.25 15.6975 3.30867 15.6975 7.06813V13.4301C14.9143 14.6703 14.4602 16.1382 14.4602 17.7103C14.4602 22.1429 18.0673 25.75 22.5 25.75C26.933 25.75 30.5397 22.143 30.5397 17.7103C30.5397 16.1591 30.0976 14.7094 29.3336 13.4796V7.06806C29.3336 3.30867 26.2749 0.25 22.5156 0.25ZM22.5156 2.98043C24.7692 2.98043 26.6031 4.8141 26.6031 7.06813V10.799C25.4011 10.0827 23.9979 9.67052 22.5001 9.67052C21.0151 9.67052 19.6231 10.0758 18.428 10.7808V7.06813C18.428 4.8141 20.2619 2.98043 22.5156 2.98043V2.98043ZM22.5 12.4011C25.4275 12.4011 27.809 14.7827 27.809 17.7103C27.809 20.6376 25.4274 23.0198 22.5 23.0198C19.5726 23.0198 17.1906 20.6376 17.1906 17.7103C17.1906 14.7827 19.5726 12.4011 22.5 12.4011V12.4011ZM22.5262 15.4815C21.2822 15.4815 20.2736 16.4901 20.2736 17.7347C20.2736 18.9785 21.2822 19.987 22.5262 19.987C23.7704 19.987 24.7789 18.9786 24.7789 17.7347C24.7789 16.4901 23.7704 15.4815 22.5262 15.4815Z" fill="black"/>
<path d="M6.26953 38.5234V40H1.96289V38.5234H6.26953ZM2.61328 31.4688V40H0.703125V31.4688H2.61328ZM7.50961 36.8945V36.7715C7.50961 36.3066 7.57602 35.8789 7.70883 35.4883C7.84164 35.0938 8.03695 34.752 8.29477 34.4629C8.55258 34.1738 8.86898 33.9492 9.24398 33.7891C9.61898 33.625 10.0487 33.543 10.533 33.543C11.0252 33.543 11.4588 33.625 11.8338 33.7891C12.2127 33.9492 12.5311 34.1738 12.7889 34.4629C13.0467 34.752 13.242 35.0938 13.3748 35.4883C13.5077 35.8789 13.5741 36.3066 13.5741 36.7715V36.8945C13.5741 37.3555 13.5077 37.7832 13.3748 38.1777C13.242 38.5684 13.0467 38.9102 12.7889 39.2031C12.5311 39.4922 12.2147 39.7168 11.8397 39.877C11.4647 40.0371 11.033 40.1172 10.5448 40.1172C10.0604 40.1172 9.62875 40.0371 9.24984 39.877C8.87094 39.7168 8.55258 39.4922 8.29477 39.2031C8.03695 38.9102 7.84164 38.5684 7.70883 38.1777C7.57602 37.7832 7.50961 37.3555 7.50961 36.8945ZM9.34359 36.7715V36.8945C9.34359 37.1445 9.36312 37.3789 9.40219 37.5977C9.44516 37.8164 9.51352 38.0078 9.60727 38.1719C9.70102 38.3359 9.82406 38.4648 9.97641 38.5586C10.1327 38.6484 10.3221 38.6934 10.5448 38.6934C10.7674 38.6934 10.9549 38.6484 11.1073 38.5586C11.2596 38.4648 11.3827 38.3359 11.4764 38.1719C11.5702 38.0078 11.6366 37.8164 11.6756 37.5977C11.7186 37.3789 11.7401 37.1445 11.7401 36.8945V36.7715C11.7401 36.5254 11.7186 36.2949 11.6756 36.0801C11.6366 35.8613 11.5702 35.668 11.4764 35.5C11.3827 35.332 11.2577 35.2012 11.1014 35.1074C10.9491 35.0137 10.7596 34.9668 10.533 34.9668C10.3143 34.9668 10.1287 35.0137 9.97641 35.1074C9.82406 35.2012 9.70102 35.332 9.60727 35.5C9.51352 35.668 9.44516 35.8613 9.40219 36.0801C9.36312 36.2949 9.34359 36.5254 9.34359 36.7715ZM17.0348 30.9941V40H15.2009V30.9941H17.0348ZM21.0602 33.6602L18.3005 36.8477L16.8415 38.3125L16.1091 37.0762L17.2927 35.5469L18.8571 33.6602H21.0602ZM19.1266 40L17.3395 37.0879L18.652 36.0625L21.2243 40H19.1266ZM25.7046 38.4883V35.7695C25.7046 35.5781 25.6753 35.4141 25.6167 35.2773C25.5581 35.1406 25.4663 35.0332 25.3413 34.9551C25.2163 34.877 25.0542 34.8379 24.855 34.8379C24.687 34.8379 24.5405 34.8672 24.4155 34.9258C24.2945 34.9844 24.2007 35.0684 24.1343 35.1777C24.0718 35.2871 24.0405 35.4219 24.0405 35.582H22.2124C22.2124 35.2969 22.2769 35.0312 22.4058 34.7852C22.5347 34.5391 22.7183 34.3223 22.9566 34.1348C23.1987 33.9473 23.4878 33.8027 23.8237 33.7012C24.1597 33.5957 24.5366 33.543 24.9546 33.543C25.4507 33.543 25.8921 33.627 26.2788 33.7949C26.6695 33.959 26.978 34.207 27.2046 34.5391C27.4312 34.8672 27.5445 35.2812 27.5445 35.7812V38.4355C27.5445 38.8184 27.5659 39.1191 27.6089 39.3379C27.6558 39.5527 27.7222 39.7402 27.8081 39.9004V40H25.9624C25.8765 39.8164 25.812 39.5898 25.7691 39.3203C25.7261 39.0469 25.7046 38.7695 25.7046 38.4883ZM25.9331 36.1328L25.9448 37.1406H25.0366C24.8335 37.1406 24.6577 37.166 24.5093 37.2168C24.3648 37.2676 24.2476 37.3379 24.1577 37.4277C24.0679 37.5137 24.0015 37.6152 23.9585 37.7324C23.9195 37.8457 23.8999 37.9707 23.8999 38.1074C23.8999 38.2363 23.9312 38.3535 23.9937 38.459C24.0562 38.5605 24.1421 38.6406 24.2515 38.6992C24.3609 38.7578 24.4878 38.7871 24.6323 38.7871C24.8706 38.7871 25.0737 38.7402 25.2417 38.6465C25.4136 38.5527 25.5464 38.4395 25.6402 38.3066C25.7339 38.1699 25.7808 38.043 25.7808 37.9258L26.2202 38.6875C26.1499 38.8438 26.064 39.0059 25.9624 39.1738C25.8609 39.3379 25.732 39.4922 25.5757 39.6367C25.4195 39.7773 25.23 39.8926 25.0073 39.9824C24.7886 40.0723 24.5249 40.1172 24.2163 40.1172C23.8179 40.1172 23.4566 40.0371 23.1323 39.877C22.8081 39.7129 22.5484 39.4883 22.353 39.2031C22.1616 38.918 22.0659 38.5898 22.0659 38.2188C22.0659 37.8867 22.1265 37.5918 22.2476 37.334C22.3687 37.0762 22.5503 36.8574 22.7925 36.6777C23.0386 36.498 23.3472 36.3633 23.7183 36.2734C24.0894 36.1797 24.523 36.1328 25.0191 36.1328H25.9331ZM31.3334 31V40H29.4994V31H31.3334ZM36.3 40.1172C35.7961 40.1172 35.3449 40.0371 34.9465 39.877C34.548 39.7168 34.2102 39.4961 33.9328 39.2148C33.6594 38.9297 33.4504 38.6016 33.3059 38.2305C33.1613 37.8594 33.0891 37.4629 33.0891 37.041V36.8184C33.0891 36.3457 33.1555 35.9102 33.2883 35.5117C33.4211 35.1133 33.6145 34.7676 33.8684 34.4746C34.1262 34.1777 34.4426 33.9492 34.8176 33.7891C35.1926 33.625 35.6203 33.543 36.1008 33.543C36.55 33.543 36.9504 33.6172 37.302 33.7656C37.6535 33.9102 37.9504 34.1191 38.1926 34.3926C38.4348 34.6621 38.6184 34.9883 38.7434 35.3711C38.8723 35.75 38.9367 36.1758 38.9367 36.6484V37.3984H33.8273V36.2207H37.1437V36.0801C37.1437 35.8574 37.1027 35.6621 37.0207 35.4941C36.9426 35.3262 36.8254 35.1973 36.6691 35.1074C36.5168 35.0137 36.3234 34.9668 36.0891 34.9668C35.8664 34.9668 35.6809 35.0137 35.5324 35.1074C35.384 35.2012 35.2648 35.334 35.175 35.5059C35.0891 35.6738 35.0266 35.8711 34.9875 36.0977C34.9484 36.3203 34.9289 36.5605 34.9289 36.8184V37.041C34.9289 37.2871 34.9621 37.5117 35.0285 37.7148C35.0949 37.918 35.1926 38.0918 35.3215 38.2363C35.4504 38.3809 35.6066 38.4941 35.7902 38.5762C35.9738 38.6582 36.1828 38.6992 36.4172 38.6992C36.7062 38.6992 36.9816 38.6445 37.2434 38.5352C37.5051 38.4219 37.7316 38.2461 37.923 38.0078L38.7785 38.9863C38.6496 39.1738 38.468 39.3555 38.2336 39.5312C38.0031 39.7031 37.7258 39.8438 37.4016 39.9531C37.0773 40.0625 36.7102 40.1172 36.3 40.1172ZM42.3213 35.1367V40H40.4932V33.6602H42.21L42.3213 35.1367ZM44.2139 33.6133L44.1846 35.3184C44.1065 35.3066 44.0049 35.2969 43.8799 35.2891C43.7549 35.2773 43.6475 35.2715 43.5577 35.2715C43.3233 35.2715 43.1202 35.3008 42.9483 35.3594C42.7803 35.4141 42.6397 35.4961 42.5264 35.6055C42.417 35.7148 42.335 35.8516 42.2803 36.0156C42.2256 36.1758 42.1983 36.3613 42.1983 36.5723L41.8526 36.4023C41.8526 35.9844 41.8936 35.6016 41.9756 35.2539C42.0577 34.9062 42.1768 34.6055 42.333 34.3516C42.4893 34.0938 42.6807 33.8945 42.9073 33.7539C43.1338 33.6133 43.3916 33.543 43.6807 33.543C43.7745 33.543 43.8702 33.5488 43.9678 33.5605C44.0655 33.5723 44.1475 33.5898 44.2139 33.6133Z" fill="black"/>
</svg>
