<svg width="45" height="42" viewBox="0 0 45 42" fill="none" xmlns="http://www.w3.org/2000/svg">
<path d="M19 17L21 15H23L24.36 13.64C25.7502 14.1243 27.2636 14.1224 28.6525 13.6346C30.0414 13.1467 31.2236 12.2018 32.0056 10.9546C32.7876 9.70733 33.123 8.23157 32.957 6.76885C32.791 5.30612 32.1334 3.94306 31.0918 2.90277C30.0502 1.86248 28.6863 1.20657 27.2234 1.04239C25.7604 0.878213 24.2851 1.21549 23.0388 1.99903C21.7926 2.78257 20.8492 3.96595 20.3631 5.35549C19.877 6.74504 19.8769 8.25844 20.363 9.64799L13 17V21H17L19 19V17Z" stroke="black" stroke-width="2" stroke-linecap="round" stroke-linejoin="round"/>
<path d="M28 7C28.5523 7 29 6.55228 29 6C29 5.44772 28.5523 5 28 5C27.4477 5 27 5.44772 27 6C27 6.55228 27.4477 7 28 7Z" stroke="black" stroke-width="2" stroke-linecap="round" stroke-linejoin="round"/>
<path d="M6.26953 37.5234V39H1.96289V37.5234H6.26953ZM2.61328 30.4688V39H0.703125V30.4688H2.61328ZM7.50961 35.8945V35.7715C7.50961 35.3066 7.57602 34.8789 7.70883 34.4883C7.84164 34.0938 8.03695 33.752 8.29477 33.4629C8.55258 33.1738 8.86898 32.9492 9.24398 32.7891C9.61898 32.625 10.0487 32.543 10.533 32.543C11.0252 32.543 11.4588 32.625 11.8338 32.7891C12.2127 32.9492 12.5311 33.1738 12.7889 33.4629C13.0467 33.752 13.242 34.0938 13.3748 34.4883C13.5077 34.8789 13.5741 35.3066 13.5741 35.7715V35.8945C13.5741 36.3555 13.5077 36.7832 13.3748 37.1777C13.242 37.5684 13.0467 37.9102 12.7889 38.2031C12.5311 38.4922 12.2147 38.7168 11.8397 38.877C11.4647 39.0371 11.033 39.1172 10.5448 39.1172C10.0604 39.1172 9.62875 39.0371 9.24984 38.877C8.87094 38.7168 8.55258 38.4922 8.29477 38.2031C8.03695 37.9102 7.84164 37.5684 7.70883 37.1777C7.57602 36.7832 7.50961 36.3555 7.50961 35.8945ZM9.34359 35.7715V35.8945C9.34359 36.1445 9.36312 36.3789 9.40219 36.5977C9.44516 36.8164 9.51352 37.0078 9.60727 37.1719C9.70102 37.3359 9.82406 37.4648 9.97641 37.5586C10.1327 37.6484 10.3221 37.6934 10.5448 37.6934C10.7674 37.6934 10.9549 37.6484 11.1073 37.5586C11.2596 37.4648 11.3827 37.3359 11.4764 37.1719C11.5702 37.0078 11.6366 36.8164 11.6756 36.5977C11.7186 36.3789 11.7401 36.1445 11.7401 35.8945V35.7715C11.7401 35.5254 11.7186 35.2949 11.6756 35.0801C11.6366 34.8613 11.5702 34.668 11.4764 34.5C11.3827 34.332 11.2577 34.2012 11.1014 34.1074C10.9491 34.0137 10.7596 33.9668 10.533 33.9668C10.3143 33.9668 10.1287 34.0137 9.97641 34.1074C9.82406 34.2012 9.70102 34.332 9.60727 34.5C9.51352 34.668 9.44516 34.8613 9.40219 35.0801C9.36312 35.2949 9.34359 35.5254 9.34359 35.7715ZM17.0348 29.9941V39H15.2009V29.9941H17.0348ZM21.0602 32.6602L18.3005 35.8477L16.8415 37.3125L16.1091 36.0762L17.2927 34.5469L18.8571 32.6602H21.0602ZM19.1266 39L17.3395 36.0879L18.652 35.0625L21.2243 39H19.1266ZM25.7046 37.4883V34.7695C25.7046 34.5781 25.6753 34.4141 25.6167 34.2773C25.5581 34.1406 25.4663 34.0332 25.3413 33.9551C25.2163 33.877 25.0542 33.8379 24.855 33.8379C24.687 33.8379 24.5405 33.8672 24.4155 33.9258C24.2945 33.9844 24.2007 34.0684 24.1343 34.1777C24.0718 34.2871 24.0405 34.4219 24.0405 34.582H22.2124C22.2124 34.2969 22.2769 34.0312 22.4058 33.7852C22.5347 33.5391 22.7183 33.3223 22.9566 33.1348C23.1987 32.9473 23.4878 32.8027 23.8237 32.7012C24.1597 32.5957 24.5366 32.543 24.9546 32.543C25.4507 32.543 25.8921 32.627 26.2788 32.7949C26.6695 32.959 26.978 33.207 27.2046 33.5391C27.4312 33.8672 27.5445 34.2812 27.5445 34.7812V37.4355C27.5445 37.8184 27.5659 38.1191 27.6089 38.3379C27.6558 38.5527 27.7222 38.7402 27.8081 38.9004V39H25.9624C25.8765 38.8164 25.812 38.5898 25.7691 38.3203C25.7261 38.0469 25.7046 37.7695 25.7046 37.4883ZM25.9331 35.1328L25.9448 36.1406H25.0366C24.8335 36.1406 24.6577 36.166 24.5093 36.2168C24.3648 36.2676 24.2476 36.3379 24.1577 36.4277C24.0679 36.5137 24.0015 36.6152 23.9585 36.7324C23.9195 36.8457 23.8999 36.9707 23.8999 37.1074C23.8999 37.2363 23.9312 37.3535 23.9937 37.459C24.0562 37.5605 24.1421 37.6406 24.2515 37.6992C24.3609 37.7578 24.4878 37.7871 24.6323 37.7871C24.8706 37.7871 25.0737 37.7402 25.2417 37.6465C25.4136 37.5527 25.5464 37.4395 25.6402 37.3066C25.7339 37.1699 25.7808 37.043 25.7808 36.9258L26.2202 37.6875C26.1499 37.8438 26.064 38.0059 25.9624 38.1738C25.8609 38.3379 25.732 38.4922 25.5757 38.6367C25.4195 38.7773 25.23 38.8926 25.0073 38.9824C24.7886 39.0723 24.5249 39.1172 24.2163 39.1172C23.8179 39.1172 23.4566 39.0371 23.1323 38.877C22.8081 38.7129 22.5484 38.4883 22.353 38.2031C22.1616 37.918 22.0659 37.5898 22.0659 37.2188C22.0659 36.8867 22.1265 36.5918 22.2476 36.334C22.3687 36.0762 22.5503 35.8574 22.7925 35.6777C23.0386 35.498 23.3472 35.3633 23.7183 35.2734C24.0894 35.1797 24.523 35.1328 25.0191 35.1328H25.9331ZM31.3334 30V39H29.4994V30H31.3334ZM36.3 39.1172C35.7961 39.1172 35.3449 39.0371 34.9465 38.877C34.548 38.7168 34.2102 38.4961 33.9328 38.2148C33.6594 37.9297 33.4504 37.6016 33.3059 37.2305C33.1613 36.8594 33.0891 36.4629 33.0891 36.041V35.8184C33.0891 35.3457 33.1555 34.9102 33.2883 34.5117C33.4211 34.1133 33.6145 33.7676 33.8684 33.4746C34.1262 33.1777 34.4426 32.9492 34.8176 32.7891C35.1926 32.625 35.6203 32.543 36.1008 32.543C36.55 32.543 36.9504 32.6172 37.302 32.7656C37.6535 32.9102 37.9504 33.1191 38.1926 33.3926C38.4348 33.6621 38.6184 33.9883 38.7434 34.3711C38.8723 34.75 38.9367 35.1758 38.9367 35.6484V36.3984H33.8273V35.2207H37.1437V35.0801C37.1437 34.8574 37.1027 34.6621 37.0207 34.4941C36.9426 34.3262 36.8254 34.1973 36.6691 34.1074C36.5168 34.0137 36.3234 33.9668 36.0891 33.9668C35.8664 33.9668 35.6809 34.0137 35.5324 34.1074C35.384 34.2012 35.2648 34.334 35.175 34.5059C35.0891 34.6738 35.0266 34.8711 34.9875 35.0977C34.9484 35.3203 34.9289 35.5605 34.9289 35.8184V36.041C34.9289 36.2871 34.9621 36.5117 35.0285 36.7148C35.0949 36.918 35.1926 37.0918 35.3215 37.2363C35.4504 37.3809 35.6066 37.4941 35.7902 37.5762C35.9738 37.6582 36.1828 37.6992 36.4172 37.6992C36.7062 37.6992 36.9816 37.6445 37.2434 37.5352C37.5051 37.4219 37.7316 37.2461 37.923 37.0078L38.7785 37.9863C38.6496 38.1738 38.468 38.3555 38.2336 38.5312C38.0031 38.7031 37.7258 38.8438 37.4016 38.9531C37.0773 39.0625 36.7102 39.1172 36.3 39.1172ZM42.3213 34.1367V39H40.4932V32.6602H42.21L42.3213 34.1367ZM44.2139 32.6133L44.1846 34.3184C44.1065 34.3066 44.0049 34.2969 43.8799 34.2891C43.7549 34.2773 43.6475 34.2715 43.5577 34.2715C43.3233 34.2715 43.1202 34.3008 42.9483 34.3594C42.7803 34.4141 42.6397 34.4961 42.5264 34.6055C42.417 34.7148 42.335 34.8516 42.2803 35.0156C42.2256 35.1758 42.1983 35.3613 42.1983 35.5723L41.8526 35.4023C41.8526 34.9844 41.8936 34.6016 41.9756 34.2539C42.0577 33.9062 42.1768 33.6055 42.333 33.3516C42.4893 33.0938 42.6807 32.8945 42.9073 32.7539C43.1338 32.6133 43.3916 32.543 43.6807 32.543C43.7745 32.543 43.8702 32.5488 43.9678 32.5605C44.0655 32.5723 44.1475 32.5898 44.2139 32.6133Z" fill="black"/>
</svg>
