<svg width="165" height="202" viewBox="0 0 165 202" fill="none" xmlns="http://www.w3.org/2000/svg">
<path d="M45.8333 91.8182H119.167V64.2727C119.167 54.1345 115.586 45.4787 108.424 38.3054C101.263 31.1321 92.6215 27.5455 82.5 27.5455C72.3785 27.5455 63.737 31.1321 56.5755 38.3054C49.4141 45.4787 45.8333 54.1345 45.8333 64.2727V91.8182ZM165 105.591V188.227C165 192.053 163.663 195.305 160.99 197.983C158.316 200.661 155.069 202 151.25 202H13.75C9.93056 202 6.68403 200.661 4.01042 197.983C1.33681 195.305 0 192.053 0 188.227V105.591C0 101.765 1.33681 98.5133 4.01042 95.8352C6.68403 93.1572 9.93056 91.8182 13.75 91.8182H18.3333V64.2727C18.3333 46.6742 24.6354 31.5625 37.2396 18.9375C49.8438 6.3125 64.9306 0 82.5 0C100.069 0 115.156 6.3125 127.76 18.9375C140.365 31.5625 146.667 46.6742 146.667 64.2727V91.8182H151.25C155.069 91.8182 158.316 93.1572 160.99 95.8352C163.663 98.5133 165 101.765 165 105.591Z" fill="black"/>
</svg>
